M48
; DRILL file {KiCad 9.0.1-9.0.1-0~ubuntu24.04.1} date 2025-05-10T10:49:44+0200
; FORMAT={-:-/ absolute / metric / decimal}
; #@! TF.CreationDate,2025-05-10T10:49:44+02:00
; #@! TF.GenerationSoftware,Kicad,Pcbnew,9.0.1-9.0.1-0~ubuntu24.04.1
; #@! TF.FileFunction,Plated,1,4,PTH
FMAT,2
METRIC
; #@! TA.AperFunction,Plated,PTH,ViaDrill
T1C0.150
%
G90
G05
T1
X90.285Y-66.017
X90.305Y-63.432
X90.379Y-61.205
X90.458Y-59.162
X90.992Y-68.115
X91.0Y-66.716
X91.15Y-60.257
X91.15Y-61.457
X91.15Y-62.257
X91.15Y-63.057
X91.15Y-63.457
X91.15Y-64.257
X91.15Y-64.657
X91.4Y-52.884
X91.56Y-62.349
X91.707Y-56.713
X91.972Y-60.296
X92.05Y-59.404
X92.249Y-64.207
X92.326Y-58.737
X92.355Y-56.116
X92.442Y-56.956
X92.445Y-61.457
X92.45Y-61.057
X92.457Y-60.656
X92.47Y-68.083
X92.5Y-68.934
X92.693Y-63.038
X92.71Y-60.219
X92.763Y-59.088
X92.898Y-56.96
X93.107Y-57.857
X93.4Y-52.884
X93.55Y-59.457
X93.55Y-59.857
X93.55Y-60.257
X93.55Y-61.857
X93.55Y-62.257
X93.55Y-62.657
X93.55Y-63.057
X93.55Y-63.857
X94.0Y-68.934
X94.35Y-53.059
X95.175Y-57.709
X95.4Y-52.884
X95.5Y-68.934
X95.95Y-59.259
X95.95Y-62.059
X96.825Y-56.209
X96.825Y-57.709
X96.825Y-59.209
X97.0Y-68.934
X97.4Y-53.409
X97.4Y-54.534
X97.565Y-59.045
X97.572Y-63.994
X97.654Y-57.928
X98.112Y-64.787
X98.119Y-61.649
X98.2Y-60.229
X98.2Y-63.189
X98.435Y-57.492
X98.5Y-68.934
X98.55Y-64.059
X98.65Y-61.959
X98.665Y-61.537
X99.05Y-53.959
X99.22Y-55.209
X99.22Y-56.209
X99.372Y-64.782
X99.53Y-58.057
X99.53Y-58.457
X99.53Y-58.857
X99.53Y-59.257
X99.53Y-59.657
X99.53Y-60.057
X99.53Y-60.457
X99.53Y-60.857
X99.53Y-61.257
X99.53Y-62.057
X99.53Y-62.457
X99.53Y-62.857
X100.0Y-68.934
X100.1Y-55.109
X100.1Y-55.509
X100.5Y-55.109
X100.5Y-55.509
X100.7Y-58.509
X100.7Y-59.509
X100.7Y-60.857
X100.7Y-62.009
X100.7Y-63.009
X100.85Y-53.259
X100.9Y-55.109
X100.9Y-55.509
X100.982Y-52.434
X101.1Y-57.277
X101.1Y-64.437
X101.19Y-54.209
X101.5Y-57.277
X101.5Y-68.934
X101.6Y-58.509
X101.6Y-59.509
X101.6Y-60.857
X101.6Y-62.009
X101.6Y-63.009
X101.799Y-52.836
X101.9Y-57.277
X102.18Y-55.209
X102.18Y-56.209
X102.21Y-54.209
X102.3Y-57.277
X102.3Y-64.437
X102.7Y-57.277
X103.0Y-68.934
X103.1Y-57.277
X103.1Y-58.509
X103.1Y-59.509
X103.1Y-60.857
X103.1Y-62.009
X103.1Y-63.009
X103.2Y-55.229
X103.2Y-56.189
X103.25Y-52.359
X103.5Y-57.277
X103.75Y-67.159
X104.462Y-53.58
X104.5Y-52.784
X104.5Y-68.934
X104.6Y-58.509
X104.6Y-59.509
X104.6Y-60.857
X104.6Y-62.009
X104.6Y-63.009
X105.25Y-65.559
X105.25Y-67.159
X105.5Y-58.509
X105.5Y-59.509
X105.5Y-60.857
X105.5Y-62.009
X105.5Y-63.009
X106.0Y-52.784
X106.0Y-68.934
X106.036Y-53.554
X106.324Y-64.07
X106.67Y-58.057
X106.67Y-58.457
X106.67Y-60.057
X106.67Y-63.257
X106.7Y-56.959
X106.75Y-67.159
X107.02Y-64.915
X107.45Y-60.059
X107.5Y-52.784
X107.5Y-68.934
X107.798Y-56.839
X107.85Y-57.359
X107.85Y-60.059
X107.911Y-59.217
X108.401Y-65.077
X108.7Y-56.959
X109.0Y-52.784
X109.0Y-68.934
X109.85Y-60.659
X109.85Y-62.059
X109.864Y-65.181
X109.95Y-59.159
X109.95Y-63.759
X110.5Y-52.784
X110.5Y-67.284
X110.5Y-68.934
X111.75Y-55.559
X112.0Y-52.784
X112.0Y-68.934
X112.35Y-55.259
X112.35Y-57.057
X112.35Y-57.457
X112.35Y-57.857
X112.35Y-61.857
X112.35Y-62.257
X112.35Y-62.657
X112.35Y-63.057
X112.35Y-63.457
X112.35Y-63.857
X112.35Y-64.257
X112.35Y-64.657
X113.359Y-60.026
X113.5Y-55.08
X113.5Y-68.934
X113.683Y-58.493
X114.75Y-57.057
X114.75Y-57.457
X114.75Y-57.857
X114.75Y-59.057
X114.75Y-60.657
X114.75Y-62.657
X114.75Y-64.657
X114.95Y-66.359
X115.0Y-68.934
X115.434Y-62.105
X115.459Y-64.423
X115.511Y-66.34
M30
