%TF.GenerationSoftware,KiCad,Pcbnew,9.0.1-9.0.1-0~ubuntu24.04.1*%
%TF.CreationDate,2025-05-10T10:43:35+02:00*%
%TF.ProjectId,ILM139C,494c4d31-3339-4432-9e6b-696361645f70,V0.1.0*%
%TF.SameCoordinates,Original*%
%TF.FileFunction,Copper,L3,Inr*%
%TF.FilePolarity,Positive*%
%FSLAX46Y46*%
G04 Gerber Fmt 4.6, Leading zero omitted, Abs format (unit mm)*
G04 Created by KiCad (PCBNEW 9.0.1-9.0.1-0~ubuntu24.04.1) date 2025-05-10 10:43:35*
%MOMM*%
%LPD*%
G01*
G04 APERTURE LIST*
%TA.AperFunction,ViaPad*%
%ADD10C,0.250000*%
%TD*%
%TA.AperFunction,Conductor*%
%ADD11C,0.127000*%
%TD*%
G04 APERTURE END LIST*
D10*
%TO.N,SCL*%
X102300000Y-57276501D03*
X100982000Y-52433501D03*
X93400000Y-52883501D03*
%TO.N,GND*%
X103100000Y-60856501D03*
X104600000Y-60856501D03*
X107850000Y-60058501D03*
X106324000Y-64069501D03*
X103100000Y-58508501D03*
X99050000Y-53958501D03*
X111750000Y-55558501D03*
X103100000Y-63008501D03*
X107798000Y-56838501D03*
X107850000Y-57358501D03*
X102210000Y-54208501D03*
X97572000Y-63993501D03*
X103750000Y-67158501D03*
X112350000Y-55258501D03*
X109950000Y-63758501D03*
X104600000Y-62008501D03*
X98200000Y-60228501D03*
X91400000Y-52883501D03*
X103100000Y-62008501D03*
X95950000Y-62058501D03*
X103100000Y-59508501D03*
X91150000Y-60256501D03*
X98435000Y-57491501D03*
X90305000Y-63431501D03*
X101600000Y-63008501D03*
X105250000Y-67158501D03*
X92050000Y-59403501D03*
X92693000Y-63037501D03*
X100850000Y-53258501D03*
X102180000Y-55208501D03*
X101600000Y-60856501D03*
X106036000Y-53553501D03*
X104462000Y-53579501D03*
X90992000Y-68114501D03*
X105500000Y-60856501D03*
X98550000Y-64058501D03*
X100700000Y-60856501D03*
X101600000Y-59508501D03*
X98112000Y-64786501D03*
X105500000Y-59508501D03*
X97654000Y-57927501D03*
X114750000Y-62656501D03*
X100700000Y-62008501D03*
X104600000Y-59508501D03*
X91972000Y-60295501D03*
X93550000Y-59456501D03*
X94350000Y-53058501D03*
X107911000Y-59216501D03*
X91560000Y-62348501D03*
X103200000Y-55228501D03*
X95950000Y-59258501D03*
X105500000Y-58508501D03*
X107020000Y-64914501D03*
X103250000Y-52358501D03*
X109864000Y-65180501D03*
X105250000Y-65558501D03*
X101500000Y-57276501D03*
X115459000Y-64422501D03*
X100700000Y-59508501D03*
X101600000Y-58508501D03*
X99372000Y-64781501D03*
X91707000Y-56712501D03*
X115511000Y-66339501D03*
X107450000Y-60058501D03*
X100700000Y-58508501D03*
X114950000Y-66358501D03*
X108401000Y-65076501D03*
X109850000Y-60658501D03*
X100700000Y-63008501D03*
X90285000Y-66016501D03*
X99220000Y-55208501D03*
X102300000Y-64436501D03*
X114750000Y-59056501D03*
X102180000Y-56208501D03*
X115434000Y-62104501D03*
X105500000Y-62008501D03*
X91150000Y-63056501D03*
X105500000Y-63008501D03*
X99220000Y-56208501D03*
X109950000Y-59158501D03*
X114750000Y-60656501D03*
X91150000Y-61456501D03*
X114750000Y-64656501D03*
X106750000Y-67158501D03*
X109850000Y-62058501D03*
X113359000Y-60025501D03*
X92470000Y-68082501D03*
X98200000Y-63188501D03*
X101600000Y-62008501D03*
X97565000Y-59044501D03*
X106670000Y-60056501D03*
X90379000Y-61204501D03*
X92710000Y-60218501D03*
X91150000Y-62256501D03*
X92249000Y-64206501D03*
X104600000Y-58508501D03*
X104600000Y-63008501D03*
%TO.N,SDA*%
X101799000Y-52835501D03*
X102700000Y-57276501D03*
X95400000Y-52883501D03*
%TO.N,VCC*%
X100500000Y-55508501D03*
X98665000Y-61536501D03*
X100100000Y-55508501D03*
X98650000Y-61958501D03*
X100900000Y-55508501D03*
X100900000Y-55108501D03*
X97400000Y-53408501D03*
X98119000Y-61648501D03*
X100500000Y-55108501D03*
X100100000Y-55108501D03*
%TO.N,SW1*%
X99530000Y-58056501D03*
X92763000Y-59087501D03*
%TO.N,INTB*%
X103500000Y-57276501D03*
X108700000Y-56958501D03*
%TO.N,SW3*%
X99530000Y-58856501D03*
X92442000Y-56956499D03*
%TO.N,Net-(U1-ISET)*%
X101100000Y-57276501D03*
X101190000Y-54208501D03*
%TO.N,SW5*%
X93550000Y-59856501D03*
X99530000Y-59656501D03*
%TO.N,CS2*%
X99530000Y-62456501D03*
X96825000Y-57708501D03*
%TO.N,SW2*%
X92897998Y-56960197D03*
X99530000Y-58456501D03*
%TO.N,SW7*%
X93550000Y-63856501D03*
X99530000Y-60456501D03*
%TO.N,SW9*%
X91150000Y-64256501D03*
X99530000Y-61256501D03*
%TO.N,CS1*%
X99530000Y-62056501D03*
X96825000Y-56208501D03*
%TO.N,SW4*%
X93107002Y-57856501D03*
X99530000Y-59256501D03*
%TO.N,CS32*%
X106670000Y-58456501D03*
X113683000Y-58492501D03*
%TO.N,SDB*%
X106700000Y-56958501D03*
X103200000Y-56188501D03*
X101900000Y-57276501D03*
%TO.N,CS3*%
X96825000Y-59208501D03*
X99530000Y-62856501D03*
%TO.N,CS33*%
X113500000Y-55079501D03*
X106670000Y-58056501D03*
%TO.N,CS8*%
X91000000Y-66716499D03*
X101100000Y-64436501D03*
%TO.N,SW8*%
X99530000Y-60856501D03*
X91150000Y-64656501D03*
%TO.N,CS21*%
X110500000Y-67283501D03*
X106670000Y-63256501D03*
%TO.N,SW6*%
X93550000Y-61856501D03*
X99530000Y-60056501D03*
%TO.N,S1*%
X92355000Y-56115501D03*
X90458000Y-59161501D03*
%TO.N,S2*%
X92326000Y-58736501D03*
X95175000Y-57708501D03*
%TO.N,S9*%
X91150000Y-63456501D03*
X92500000Y-68933501D03*
%TO.N,S18*%
X106000000Y-68933501D03*
X112350000Y-64256501D03*
%TO.N,S17*%
X104500000Y-68933501D03*
X112350000Y-64656501D03*
%TO.N,S16*%
X93550000Y-60256501D03*
X103000000Y-68933501D03*
%TO.N,S15*%
X101500000Y-68933501D03*
X92457000Y-60655501D03*
%TO.N,S14*%
X92450000Y-61056501D03*
X100000000Y-68933501D03*
%TO.N,S13*%
X92445000Y-61456501D03*
X98500000Y-68933501D03*
%TO.N,S12*%
X97000000Y-68933501D03*
X93550000Y-62256501D03*
%TO.N,S11*%
X95500000Y-68933501D03*
X93550000Y-62656501D03*
%TO.N,S10*%
X93550000Y-63056501D03*
X94000000Y-68933501D03*
%TO.N,S24*%
X115000000Y-68933501D03*
X112350000Y-61856501D03*
%TO.N,S23*%
X112350000Y-62256501D03*
X113500000Y-68933501D03*
%TO.N,S22*%
X112350000Y-62656501D03*
X112000000Y-68933501D03*
%TO.N,S21*%
X112350000Y-63056501D03*
X110500000Y-68933501D03*
%TO.N,S20*%
X109000000Y-68933501D03*
X112350000Y-63456501D03*
%TO.N,S19*%
X107500000Y-68933501D03*
X112350000Y-63856501D03*
%TO.N,S36*%
X112350000Y-57056501D03*
X109000000Y-52783501D03*
%TO.N,S35*%
X112350000Y-57456501D03*
X110500000Y-52783501D03*
%TO.N,S34*%
X112350000Y-57856501D03*
X112000000Y-52783501D03*
%TO.N,S39*%
X104500000Y-52783501D03*
X114750000Y-57856501D03*
%TO.N,S38*%
X106000000Y-52783501D03*
X114750000Y-57456501D03*
%TO.N,S37*%
X107500000Y-52783501D03*
X114750000Y-57056501D03*
%TO.N,Net-(U1-ADDR)*%
X103100000Y-57276501D03*
X97400000Y-54533501D03*
%TD*%
D11*
%TO.N,SCL*%
X93400000Y-55317501D02*
X93400000Y-52883501D01*
X102300000Y-57276501D02*
X102300000Y-57196375D01*
X98235059Y-56937001D02*
X97167060Y-55869001D01*
X93951500Y-55869001D02*
X93400000Y-55317501D01*
X102300000Y-57196375D02*
X102040626Y-56937001D01*
X102040626Y-56937001D02*
X98235059Y-56937001D01*
X97167060Y-55869001D02*
X93951500Y-55869001D01*
%TO.N,SDA*%
X95832500Y-55641001D02*
X97261500Y-55641001D01*
X95400000Y-55208501D02*
X95832500Y-55641001D01*
X95400000Y-52883501D02*
X95400000Y-55208501D01*
X102700000Y-57196375D02*
X102700000Y-57276501D01*
X97261500Y-55641001D02*
X98329500Y-56709001D01*
X102212626Y-56709001D02*
X102700000Y-57196375D01*
X98329500Y-56709001D02*
X102212626Y-56709001D01*
%TO.N,VCC*%
X99750000Y-53408501D02*
X100100000Y-53758501D01*
X100100000Y-53758501D02*
X100100000Y-55108501D01*
X97400000Y-53408501D02*
X99750000Y-53408501D01*
%TO.N,CS2*%
X97164500Y-58048001D02*
X96825000Y-57708501D01*
X99530000Y-62456501D02*
X98389000Y-62456501D01*
X97164500Y-61232001D02*
X97164500Y-58048001D01*
X98389000Y-62456501D02*
X97164500Y-61232001D01*
%TO.N,CS3*%
X96936500Y-59320001D02*
X96825000Y-59208501D01*
X96936500Y-61326441D02*
X96936500Y-59320001D01*
X98465000Y-62856501D02*
X97014000Y-61405501D01*
X99530000Y-62856501D02*
X98465000Y-62856501D01*
X97014000Y-61405501D02*
X97014000Y-61403942D01*
X97014000Y-61403942D02*
X96936500Y-61326441D01*
%TO.N,S1*%
X92102500Y-56368001D02*
X92355000Y-56115501D01*
X90458000Y-59161501D02*
X91384000Y-59161501D01*
X92102500Y-58443001D02*
X92102500Y-56368001D01*
X91384000Y-59161501D02*
X92102500Y-58443001D01*
%TO.N,S2*%
X92326000Y-58736501D02*
X94147000Y-58736501D01*
X94147000Y-58736501D02*
X95175000Y-57708501D01*
%TO.N,S9*%
X93433500Y-64542567D02*
X93433500Y-68592001D01*
X91150000Y-63456501D02*
X92347434Y-63456501D01*
X93433500Y-68592001D02*
X93092000Y-68933501D01*
X93092000Y-68933501D02*
X92500000Y-68933501D01*
X92347434Y-63456501D02*
X93433500Y-64542567D01*
%TO.N,S18*%
X107026500Y-67910001D02*
X106003000Y-68933501D01*
X112430126Y-64256501D02*
X112689500Y-64515875D01*
X112689500Y-64515875D02*
X112689500Y-67511241D01*
X112689500Y-67511241D02*
X112290740Y-67910001D01*
X112290740Y-67910001D02*
X107026500Y-67910001D01*
X106003000Y-68933501D02*
X106000000Y-68933501D01*
X112350000Y-64256501D02*
X112430126Y-64256501D01*
%TO.N,S17*%
X112196300Y-67682001D02*
X105747500Y-67682001D01*
X104500000Y-68929501D02*
X104500000Y-68933501D01*
X112350000Y-64656501D02*
X112461500Y-64768001D01*
X105747500Y-67682001D02*
X104500000Y-68929501D01*
X112461500Y-67416801D02*
X112196300Y-67682001D01*
X112461500Y-64768001D02*
X112461500Y-67416801D01*
%TO.N,S16*%
X95029500Y-67506001D02*
X95205500Y-67682001D01*
X93550000Y-60256501D02*
X93550000Y-60409054D01*
X93550000Y-60409054D02*
X95029500Y-61888554D01*
X101748500Y-67682001D02*
X103000000Y-68933501D01*
X95205500Y-67682001D02*
X101748500Y-67682001D01*
X95029500Y-61888554D02*
X95029500Y-67506001D01*
%TO.N,S15*%
X94801500Y-67662001D02*
X94801500Y-61982995D01*
X100476500Y-67910001D02*
X95049500Y-67910001D01*
X93474006Y-60655501D02*
X92457000Y-60655501D01*
X101500000Y-68933501D02*
X100476500Y-67910001D01*
X94801500Y-61982995D02*
X93474006Y-60655501D01*
X95049500Y-67910001D02*
X94801500Y-67662001D01*
%TO.N,S14*%
X100000000Y-68933501D02*
X99204500Y-68138001D01*
X94883500Y-68138001D02*
X94573500Y-67828001D01*
X94573500Y-62077435D02*
X93552566Y-61056501D01*
X94573500Y-67828001D02*
X94573500Y-62077435D01*
X99204500Y-68138001D02*
X94883500Y-68138001D01*
X93552566Y-61056501D02*
X92450000Y-61056501D01*
%TO.N,S13*%
X93630126Y-61456501D02*
X92445000Y-61456501D01*
X94345500Y-67987001D02*
X94345500Y-62171875D01*
X94724500Y-68366001D02*
X94345500Y-67987001D01*
X98500000Y-68933501D02*
X97932500Y-68366001D01*
X97932500Y-68366001D02*
X94724500Y-68366001D01*
X94345500Y-62171875D02*
X93630126Y-61456501D01*
%TO.N,S12*%
X94530500Y-68594001D02*
X96660500Y-68594001D01*
X94117500Y-68181001D02*
X94530500Y-68594001D01*
X93630126Y-62256501D02*
X94117500Y-62743875D01*
X94117500Y-62743875D02*
X94117500Y-68181001D01*
X96660500Y-68594001D02*
X97000000Y-68933501D01*
X93550000Y-62256501D02*
X93630126Y-62256501D01*
%TO.N,S11*%
X93550000Y-62656501D02*
X93630126Y-62656501D01*
X93630126Y-62656501D02*
X93889500Y-62915875D01*
X93889500Y-68342875D02*
X94480126Y-68933501D01*
X93889500Y-62915875D02*
X93889500Y-68342875D01*
X94480126Y-68933501D02*
X95500000Y-68933501D01*
%TO.N,S10*%
X93210500Y-63396001D02*
X93210500Y-63997127D01*
X93550000Y-63056501D02*
X93210500Y-63396001D01*
X93210500Y-63997127D02*
X93661500Y-64448127D01*
X93661500Y-64448127D02*
X93661500Y-68595001D01*
X93661500Y-68595001D02*
X94000000Y-68933501D01*
%TO.N,S24*%
X112350000Y-61856501D02*
X112430126Y-61856501D01*
X114057500Y-63483875D02*
X114057500Y-68589001D01*
X114057500Y-68589001D02*
X114402000Y-68933501D01*
X112430126Y-61856501D02*
X114057500Y-63483875D01*
X114402000Y-68933501D02*
X115000000Y-68933501D01*
%TO.N,S23*%
X113829500Y-68596001D02*
X113500000Y-68925501D01*
X112350000Y-62256501D02*
X112430126Y-62256501D01*
X112430126Y-62256501D02*
X113829500Y-63655875D01*
X113500000Y-68925501D02*
X113500000Y-68933501D01*
X113829500Y-63655875D02*
X113829500Y-68596001D01*
%TO.N,S22*%
X113601500Y-67889001D02*
X112557000Y-68933501D01*
X113601500Y-63827875D02*
X113601500Y-67889001D01*
X112350000Y-62656501D02*
X112430126Y-62656501D01*
X112557000Y-68933501D02*
X112000000Y-68933501D01*
X112430126Y-62656501D02*
X113601500Y-63827875D01*
%TO.N,S21*%
X112350000Y-63056501D02*
X112430126Y-63056501D01*
X110500000Y-68932501D02*
X110500000Y-68933501D01*
X112574060Y-68594001D02*
X110838500Y-68594001D01*
X113373500Y-63999875D02*
X113373500Y-67794561D01*
X113373500Y-67794561D02*
X112574060Y-68594001D01*
X112430126Y-63056501D02*
X113373500Y-63999875D01*
X110838500Y-68594001D02*
X110500000Y-68932501D01*
%TO.N,S20*%
X113145500Y-67700121D02*
X112479620Y-68366001D01*
X113145500Y-64171875D02*
X113145500Y-67700121D01*
X112479620Y-68366001D02*
X109569500Y-68366001D01*
X112350000Y-63456501D02*
X112430126Y-63456501D01*
X109569500Y-68366001D02*
X109002000Y-68933501D01*
X112430126Y-63456501D02*
X113145500Y-64171875D01*
X109002000Y-68933501D02*
X109000000Y-68933501D01*
%TO.N,S19*%
X112917500Y-64343875D02*
X112917500Y-67605681D01*
X112917500Y-67605681D02*
X112385180Y-68138001D01*
X112430126Y-63856501D02*
X112917500Y-64343875D01*
X112350000Y-63856501D02*
X112430126Y-63856501D01*
X112385180Y-68138001D02*
X108293500Y-68138001D01*
X107500000Y-68931501D02*
X107500000Y-68933501D01*
X108293500Y-68138001D02*
X107500000Y-68931501D01*
%TO.N,S36*%
X114890626Y-58196001D02*
X115089500Y-57997127D01*
X115089500Y-54670881D02*
X113769620Y-53351001D01*
X113469874Y-57056501D02*
X114609374Y-58196001D01*
X114609374Y-58196001D02*
X114890626Y-58196001D01*
X113769620Y-53351001D02*
X109567500Y-53351001D01*
X112350000Y-57056501D02*
X113469874Y-57056501D01*
X109567500Y-53351001D02*
X109000000Y-52783501D01*
X115089500Y-57997127D02*
X115089500Y-54670881D01*
%TO.N,S35*%
X113547434Y-57456501D02*
X114514934Y-58424001D01*
X112350000Y-57456501D02*
X113547434Y-57456501D01*
X115317500Y-58091567D02*
X115317500Y-54576441D01*
X114985067Y-58424001D02*
X115317500Y-58091567D01*
X113864060Y-53123001D02*
X110839500Y-53123001D01*
X110839500Y-53123001D02*
X110500000Y-52783501D01*
X115317500Y-54576441D02*
X113864060Y-53123001D01*
X114514934Y-58424001D02*
X114985067Y-58424001D01*
%TO.N,S34*%
X115545500Y-54482001D02*
X115545500Y-57207501D01*
X115545500Y-57207501D02*
X115545501Y-58186007D01*
X115545501Y-58186007D02*
X115079508Y-58652001D01*
X114420494Y-58652001D02*
X113624994Y-57856501D01*
X113624994Y-57856501D02*
X112350000Y-57856501D01*
X112000000Y-52783501D02*
X113847000Y-52783501D01*
X113847000Y-52783501D02*
X115545500Y-54482001D01*
X115079508Y-58652001D02*
X114420494Y-58652001D01*
%TO.N,S39*%
X114669874Y-57856501D02*
X114182500Y-57369127D01*
X105751500Y-54035001D02*
X104500000Y-52783501D01*
X114182500Y-57369127D02*
X114182500Y-54731201D01*
X114182500Y-54731201D02*
X113486300Y-54035001D01*
X113486300Y-54035001D02*
X105751500Y-54035001D01*
X114750000Y-57856501D02*
X114669874Y-57856501D01*
%TO.N,S38*%
X114669874Y-57456501D02*
X114410500Y-57197127D01*
X114750000Y-57456501D02*
X114669874Y-57456501D01*
X114410500Y-54636761D02*
X113580740Y-53807001D01*
X113580740Y-53807001D02*
X107023500Y-53807001D01*
X114410500Y-57197127D02*
X114410500Y-54636761D01*
X107023500Y-53807001D02*
X106000000Y-52783501D01*
%TO.N,S37*%
X108295500Y-53579001D02*
X107500000Y-52783501D01*
X114750000Y-54653821D02*
X113675180Y-53579001D01*
X114750000Y-57056501D02*
X114750000Y-54653821D01*
X113675180Y-53579001D02*
X108295500Y-53579001D01*
%TO.N,Net-(U1-ADDR)*%
X97811940Y-55869001D02*
X97400000Y-55457060D01*
X97400000Y-55457060D02*
X97400000Y-54533501D01*
X103100000Y-57276501D02*
X103100000Y-56648375D01*
X102320626Y-55869001D02*
X97811940Y-55869001D01*
X103100000Y-56648375D02*
X102320626Y-55869001D01*
%TD*%
%TA.AperFunction,Conductor*%
%TO.N,GND*%
G36*
X102267047Y-56047353D02*
G01*
X102921648Y-56701954D01*
X102936000Y-56736602D01*
X102936000Y-57075298D01*
X102929568Y-57090823D01*
X102924493Y-57106846D01*
X102922504Y-57107877D01*
X102921648Y-57109946D01*
X102906119Y-57116378D01*
X102891203Y-57124117D01*
X102889200Y-57123386D01*
X102887000Y-57124298D01*
X102855452Y-57112791D01*
X102853837Y-57111432D01*
X102827736Y-57085331D01*
X102818049Y-57081318D01*
X102812252Y-57076440D01*
X102811637Y-57075256D01*
X102809152Y-57073595D01*
X102790109Y-57054552D01*
X102790102Y-57054546D01*
X102358551Y-56622995D01*
X102358550Y-56622993D01*
X102358550Y-56622994D01*
X102351659Y-56616102D01*
X102305525Y-56569968D01*
X102305522Y-56569966D01*
X102287871Y-56562656D01*
X102287869Y-56562654D01*
X102287869Y-56562655D01*
X102245249Y-56545000D01*
X102245248Y-56545000D01*
X102180004Y-56545000D01*
X102174303Y-56545000D01*
X102174295Y-56545001D01*
X98417727Y-56545001D01*
X98383079Y-56530649D01*
X97969079Y-56116649D01*
X97954727Y-56082001D01*
X97969079Y-56047353D01*
X98003727Y-56033001D01*
X102232399Y-56033001D01*
X102267047Y-56047353D01*
G37*
%TD.AperFunction*%
%TA.AperFunction,Conductor*%
G36*
X115935148Y-51873353D02*
G01*
X115949500Y-51908001D01*
X115949500Y-69809001D01*
X115935148Y-69843649D01*
X115900500Y-69858001D01*
X89999500Y-69858001D01*
X89964852Y-69843649D01*
X89950500Y-69809001D01*
X89950500Y-66671642D01*
X90774500Y-66671642D01*
X90774500Y-66671644D01*
X90774500Y-66761354D01*
X90774500Y-66761356D01*
X90774501Y-66761357D01*
X90808830Y-66844235D01*
X90808832Y-66844238D01*
X90872261Y-66907667D01*
X90872263Y-66907668D01*
X90872264Y-66907669D01*
X90955145Y-66941999D01*
X90955147Y-66941999D01*
X91044853Y-66941999D01*
X91044855Y-66941999D01*
X91127736Y-66907669D01*
X91127737Y-66907667D01*
X91127739Y-66907667D01*
X91191168Y-66844238D01*
X91191168Y-66844236D01*
X91191170Y-66844235D01*
X91225500Y-66761354D01*
X91225500Y-66671644D01*
X91191170Y-66588763D01*
X91191169Y-66588762D01*
X91191168Y-66588760D01*
X91127739Y-66525331D01*
X91127736Y-66525329D01*
X91044858Y-66491000D01*
X91044856Y-66490999D01*
X91044855Y-66490999D01*
X90955145Y-66490999D01*
X90955143Y-66490999D01*
X90955141Y-66491000D01*
X90872263Y-66525329D01*
X90808830Y-66588762D01*
X90774501Y-66671640D01*
X90774500Y-66671642D01*
X89950500Y-66671642D01*
X89950500Y-64211644D01*
X90924500Y-64211644D01*
X90924500Y-64211646D01*
X90924500Y-64301356D01*
X90924500Y-64301358D01*
X90924501Y-64301359D01*
X90958830Y-64384237D01*
X90958832Y-64384240D01*
X90996445Y-64421853D01*
X91010797Y-64456501D01*
X90996445Y-64491149D01*
X90958830Y-64528764D01*
X90924501Y-64611642D01*
X90924500Y-64611644D01*
X90924500Y-64611646D01*
X90924500Y-64701356D01*
X90924500Y-64701358D01*
X90924501Y-64701359D01*
X90958830Y-64784237D01*
X90958832Y-64784240D01*
X91022261Y-64847669D01*
X91022263Y-64847670D01*
X91022264Y-64847671D01*
X91105145Y-64882001D01*
X91105147Y-64882001D01*
X91194853Y-64882001D01*
X91194855Y-64882001D01*
X91277736Y-64847671D01*
X91277737Y-64847669D01*
X91277739Y-64847669D01*
X91341168Y-64784240D01*
X91341168Y-64784238D01*
X91341170Y-64784237D01*
X91375500Y-64701356D01*
X91375500Y-64611646D01*
X91341170Y-64528765D01*
X91341169Y-64528764D01*
X91341168Y-64528762D01*
X91303555Y-64491149D01*
X91289203Y-64456501D01*
X91303555Y-64421853D01*
X91341168Y-64384240D01*
X91341168Y-64384238D01*
X91341170Y-64384237D01*
X91375500Y-64301356D01*
X91375500Y-64211646D01*
X91341170Y-64128765D01*
X91341169Y-64128764D01*
X91341168Y-64128762D01*
X91277739Y-64065333D01*
X91277736Y-64065331D01*
X91194858Y-64031002D01*
X91194856Y-64031001D01*
X91194855Y-64031001D01*
X91105145Y-64031001D01*
X91105143Y-64031001D01*
X91105141Y-64031002D01*
X91022263Y-64065331D01*
X90958830Y-64128764D01*
X90924501Y-64211642D01*
X90924500Y-64211644D01*
X89950500Y-64211644D01*
X89950500Y-63411644D01*
X90924500Y-63411644D01*
X90924500Y-63411646D01*
X90924500Y-63501356D01*
X90924500Y-63501358D01*
X90924501Y-63501359D01*
X90958830Y-63584237D01*
X90958832Y-63584240D01*
X91022261Y-63647669D01*
X91022263Y-63647670D01*
X91022264Y-63647671D01*
X91105145Y-63682001D01*
X91105147Y-63682001D01*
X91194853Y-63682001D01*
X91194855Y-63682001D01*
X91277736Y-63647671D01*
X91290553Y-63634854D01*
X91325200Y-63620501D01*
X92259207Y-63620501D01*
X92293855Y-63634853D01*
X93255148Y-64596146D01*
X93269500Y-64630794D01*
X93269500Y-68503774D01*
X93255148Y-68538422D01*
X93038421Y-68755149D01*
X93003773Y-68769501D01*
X92675202Y-68769501D01*
X92640554Y-68755149D01*
X92640553Y-68755148D01*
X92627738Y-68742332D01*
X92627736Y-68742331D01*
X92544858Y-68708002D01*
X92544856Y-68708001D01*
X92544855Y-68708001D01*
X92455145Y-68708001D01*
X92455143Y-68708001D01*
X92455141Y-68708002D01*
X92372263Y-68742331D01*
X92308830Y-68805764D01*
X92274501Y-68888642D01*
X92274500Y-68888644D01*
X92274500Y-68888646D01*
X92274500Y-68978356D01*
X92274500Y-68978358D01*
X92274501Y-68978359D01*
X92308830Y-69061237D01*
X92308832Y-69061240D01*
X92372261Y-69124669D01*
X92372263Y-69124670D01*
X92372264Y-69124671D01*
X92455145Y-69159001D01*
X92455147Y-69159001D01*
X92544853Y-69159001D01*
X92544855Y-69159001D01*
X92627736Y-69124671D01*
X92640553Y-69111854D01*
X92675200Y-69097501D01*
X93053669Y-69097501D01*
X93053677Y-69097502D01*
X93059378Y-69097502D01*
X93124621Y-69097502D01*
X93124622Y-69097502D01*
X93167243Y-69079846D01*
X93184899Y-69072534D01*
X93231033Y-69026400D01*
X93231033Y-69026399D01*
X93237922Y-69019510D01*
X93237924Y-69019507D01*
X93511352Y-68746078D01*
X93545999Y-68731727D01*
X93580647Y-68746079D01*
X93760148Y-68925580D01*
X93774500Y-68960228D01*
X93774500Y-68978356D01*
X93774500Y-68978358D01*
X93774501Y-68978359D01*
X93808830Y-69061237D01*
X93808832Y-69061240D01*
X93872261Y-69124669D01*
X93872263Y-69124670D01*
X93872264Y-69124671D01*
X93955145Y-69159001D01*
X93955147Y-69159001D01*
X94044853Y-69159001D01*
X94044855Y-69159001D01*
X94127736Y-69124671D01*
X94127737Y-69124669D01*
X94127739Y-69124669D01*
X94191168Y-69061240D01*
X94191168Y-69061238D01*
X94191170Y-69061237D01*
X94217222Y-68998340D01*
X94224113Y-68991449D01*
X94227843Y-68982445D01*
X94236846Y-68978715D01*
X94243739Y-68971823D01*
X94253486Y-68971823D01*
X94262491Y-68968093D01*
X94271496Y-68971823D01*
X94281242Y-68971823D01*
X94297139Y-68982445D01*
X94338297Y-69023603D01*
X94338300Y-69023607D01*
X94338301Y-69023607D01*
X94341092Y-69026398D01*
X94341093Y-69026400D01*
X94387227Y-69072534D01*
X94447504Y-69097501D01*
X95324798Y-69097501D01*
X95359446Y-69111853D01*
X95359447Y-69111854D01*
X95372261Y-69124669D01*
X95372263Y-69124670D01*
X95372264Y-69124671D01*
X95455145Y-69159001D01*
X95455147Y-69159001D01*
X95544853Y-69159001D01*
X95544855Y-69159001D01*
X95627736Y-69124671D01*
X95627737Y-69124669D01*
X95627739Y-69124669D01*
X95691168Y-69061240D01*
X95691168Y-69061238D01*
X95691170Y-69061237D01*
X95725500Y-68978356D01*
X95725500Y-68888646D01*
X95699449Y-68825752D01*
X95699449Y-68788249D01*
X95725968Y-68761731D01*
X95744719Y-68758001D01*
X96572273Y-68758001D01*
X96606921Y-68772353D01*
X96760148Y-68925580D01*
X96774500Y-68960228D01*
X96774500Y-68978356D01*
X96774500Y-68978358D01*
X96774501Y-68978359D01*
X96808830Y-69061237D01*
X96808832Y-69061240D01*
X96872261Y-69124669D01*
X96872263Y-69124670D01*
X96872264Y-69124671D01*
X96955145Y-69159001D01*
X96955147Y-69159001D01*
X97044853Y-69159001D01*
X97044855Y-69159001D01*
X97127736Y-69124671D01*
X97127737Y-69124669D01*
X97127739Y-69124669D01*
X97191168Y-69061240D01*
X97191168Y-69061238D01*
X97191170Y-69061237D01*
X97225500Y-68978356D01*
X97225500Y-68888646D01*
X97191170Y-68805765D01*
X97191169Y-68805764D01*
X97191168Y-68805762D01*
X97127739Y-68742333D01*
X97127736Y-68742331D01*
X97044858Y-68708002D01*
X97044856Y-68708001D01*
X97044855Y-68708001D01*
X97044853Y-68708001D01*
X97026727Y-68708001D01*
X96992079Y-68693649D01*
X96912079Y-68613649D01*
X96897727Y-68579001D01*
X96912079Y-68544353D01*
X96946727Y-68530001D01*
X97844273Y-68530001D01*
X97878921Y-68544353D01*
X98260148Y-68925580D01*
X98274500Y-68960228D01*
X98274500Y-68978356D01*
X98274500Y-68978358D01*
X98274501Y-68978359D01*
X98308830Y-69061237D01*
X98308832Y-69061240D01*
X98372261Y-69124669D01*
X98372263Y-69124670D01*
X98372264Y-69124671D01*
X98455145Y-69159001D01*
X98455147Y-69159001D01*
X98544853Y-69159001D01*
X98544855Y-69159001D01*
X98627736Y-69124671D01*
X98627737Y-69124669D01*
X98627739Y-69124669D01*
X98691168Y-69061240D01*
X98691168Y-69061238D01*
X98691170Y-69061237D01*
X98725500Y-68978356D01*
X98725500Y-68888646D01*
X98691170Y-68805765D01*
X98691169Y-68805764D01*
X98691168Y-68805762D01*
X98627739Y-68742333D01*
X98627736Y-68742331D01*
X98544858Y-68708002D01*
X98544856Y-68708001D01*
X98544855Y-68708001D01*
X98544853Y-68708001D01*
X98526727Y-68708001D01*
X98492079Y-68693649D01*
X98184079Y-68385649D01*
X98169727Y-68351001D01*
X98184079Y-68316353D01*
X98218727Y-68302001D01*
X99116273Y-68302001D01*
X99150921Y-68316353D01*
X99760148Y-68925580D01*
X99774500Y-68960228D01*
X99774500Y-68978356D01*
X99774500Y-68978358D01*
X99774501Y-68978359D01*
X99808830Y-69061237D01*
X99808832Y-69061240D01*
X99872261Y-69124669D01*
X99872263Y-69124670D01*
X99872264Y-69124671D01*
X99955145Y-69159001D01*
X99955147Y-69159001D01*
X100044853Y-69159001D01*
X100044855Y-69159001D01*
X100127736Y-69124671D01*
X100127737Y-69124669D01*
X100127739Y-69124669D01*
X100191168Y-69061240D01*
X100191168Y-69061238D01*
X100191170Y-69061237D01*
X100225500Y-68978356D01*
X100225500Y-68888646D01*
X100191170Y-68805765D01*
X100191169Y-68805764D01*
X100191168Y-68805762D01*
X100127739Y-68742333D01*
X100127736Y-68742331D01*
X100044858Y-68708002D01*
X100044856Y-68708001D01*
X100044855Y-68708001D01*
X100044853Y-68708001D01*
X100026727Y-68708001D01*
X99992079Y-68693649D01*
X99456079Y-68157649D01*
X99441727Y-68123001D01*
X99456079Y-68088353D01*
X99490727Y-68074001D01*
X100388273Y-68074001D01*
X100422921Y-68088353D01*
X101260148Y-68925580D01*
X101274500Y-68960228D01*
X101274500Y-68978356D01*
X101274500Y-68978358D01*
X101274501Y-68978359D01*
X101308830Y-69061237D01*
X101308832Y-69061240D01*
X101372261Y-69124669D01*
X101372263Y-69124670D01*
X101372264Y-69124671D01*
X101455145Y-69159001D01*
X101455147Y-69159001D01*
X101544853Y-69159001D01*
X101544855Y-69159001D01*
X101627736Y-69124671D01*
X101627737Y-69124669D01*
X101627739Y-69124669D01*
X101691168Y-69061240D01*
X101691168Y-69061238D01*
X101691170Y-69061237D01*
X101725500Y-68978356D01*
X101725500Y-68888646D01*
X101691170Y-68805765D01*
X101691169Y-68805764D01*
X101691168Y-68805762D01*
X101627739Y-68742333D01*
X101627736Y-68742331D01*
X101544858Y-68708002D01*
X101544856Y-68708001D01*
X101544855Y-68708001D01*
X101544853Y-68708001D01*
X101526727Y-68708001D01*
X101492079Y-68693649D01*
X100728079Y-67929649D01*
X100713727Y-67895001D01*
X100728079Y-67860353D01*
X100762727Y-67846001D01*
X101660273Y-67846001D01*
X101694921Y-67860353D01*
X102760148Y-68925580D01*
X102774500Y-68960228D01*
X102774500Y-68978356D01*
X102774500Y-68978358D01*
X102774501Y-68978359D01*
X102808830Y-69061237D01*
X102808832Y-69061240D01*
X102872261Y-69124669D01*
X102872263Y-69124670D01*
X102872264Y-69124671D01*
X102955145Y-69159001D01*
X102955147Y-69159001D01*
X103044853Y-69159001D01*
X103044855Y-69159001D01*
X103127736Y-69124671D01*
X103127737Y-69124669D01*
X103127739Y-69124669D01*
X103191168Y-69061240D01*
X103191168Y-69061238D01*
X103191170Y-69061237D01*
X103225500Y-68978356D01*
X103225500Y-68888646D01*
X103225499Y-68888644D01*
X104274500Y-68888644D01*
X104274500Y-68888646D01*
X104274500Y-68978356D01*
X104274500Y-68978358D01*
X104274501Y-68978359D01*
X104308830Y-69061237D01*
X104308832Y-69061240D01*
X104372261Y-69124669D01*
X104372263Y-69124670D01*
X104372264Y-69124671D01*
X104455145Y-69159001D01*
X104455147Y-69159001D01*
X104544853Y-69159001D01*
X104544855Y-69159001D01*
X104627736Y-69124671D01*
X104627737Y-69124669D01*
X104627739Y-69124669D01*
X104691168Y-69061240D01*
X104691168Y-69061238D01*
X104691170Y-69061237D01*
X104725500Y-68978356D01*
X104725500Y-68956228D01*
X104739852Y-68921580D01*
X105801079Y-67860353D01*
X105835727Y-67846001D01*
X106740273Y-67846001D01*
X106774921Y-67860353D01*
X106789273Y-67895001D01*
X106774921Y-67929649D01*
X106010921Y-68693649D01*
X105976273Y-68708001D01*
X105955145Y-68708001D01*
X105955143Y-68708001D01*
X105955141Y-68708002D01*
X105872263Y-68742331D01*
X105808830Y-68805764D01*
X105774501Y-68888642D01*
X105774500Y-68888644D01*
X105774500Y-68888646D01*
X105774500Y-68978356D01*
X105774500Y-68978358D01*
X105774501Y-68978359D01*
X105808830Y-69061237D01*
X105808832Y-69061240D01*
X105872261Y-69124669D01*
X105872263Y-69124670D01*
X105872264Y-69124671D01*
X105955145Y-69159001D01*
X105955147Y-69159001D01*
X106044853Y-69159001D01*
X106044855Y-69159001D01*
X106127736Y-69124671D01*
X106127737Y-69124669D01*
X106127739Y-69124669D01*
X106191168Y-69061240D01*
X106191168Y-69061238D01*
X106191170Y-69061237D01*
X106225500Y-68978356D01*
X106225500Y-68963228D01*
X106239852Y-68928580D01*
X107080079Y-68088353D01*
X107114727Y-68074001D01*
X108007273Y-68074001D01*
X108041921Y-68088353D01*
X108056273Y-68123001D01*
X108041921Y-68157649D01*
X107505921Y-68693649D01*
X107471273Y-68708001D01*
X107455145Y-68708001D01*
X107455143Y-68708001D01*
X107455141Y-68708002D01*
X107372263Y-68742331D01*
X107308830Y-68805764D01*
X107274501Y-68888642D01*
X107274500Y-68888644D01*
X107274500Y-68888646D01*
X107274500Y-68978356D01*
X107274500Y-68978358D01*
X107274501Y-68978359D01*
X107308830Y-69061237D01*
X107308832Y-69061240D01*
X107372261Y-69124669D01*
X107372263Y-69124670D01*
X107372264Y-69124671D01*
X107455145Y-69159001D01*
X107455147Y-69159001D01*
X107544853Y-69159001D01*
X107544855Y-69159001D01*
X107627736Y-69124671D01*
X107627737Y-69124669D01*
X107627739Y-69124669D01*
X107691168Y-69061240D01*
X107691168Y-69061238D01*
X107691170Y-69061237D01*
X107725500Y-68978356D01*
X107725500Y-68958228D01*
X107739852Y-68923580D01*
X108347079Y-68316353D01*
X108381727Y-68302001D01*
X109283273Y-68302001D01*
X109317921Y-68316353D01*
X109332273Y-68351001D01*
X109317921Y-68385649D01*
X109009921Y-68693649D01*
X108975273Y-68708001D01*
X108955145Y-68708001D01*
X108955143Y-68708001D01*
X108955141Y-68708002D01*
X108872263Y-68742331D01*
X108808830Y-68805764D01*
X108774501Y-68888642D01*
X108774500Y-68888644D01*
X108774500Y-68888646D01*
X108774500Y-68978356D01*
X108774500Y-68978358D01*
X108774501Y-68978359D01*
X108808830Y-69061237D01*
X108808832Y-69061240D01*
X108872261Y-69124669D01*
X108872263Y-69124670D01*
X108872264Y-69124671D01*
X108955145Y-69159001D01*
X108955147Y-69159001D01*
X109044853Y-69159001D01*
X109044855Y-69159001D01*
X109127736Y-69124671D01*
X109127737Y-69124669D01*
X109127739Y-69124669D01*
X109191168Y-69061240D01*
X109191168Y-69061238D01*
X109191170Y-69061237D01*
X109225500Y-68978356D01*
X109225500Y-68962228D01*
X109239852Y-68927580D01*
X109623079Y-68544353D01*
X109657727Y-68530001D01*
X110552273Y-68530001D01*
X110586921Y-68544353D01*
X110601273Y-68579001D01*
X110586921Y-68613649D01*
X110506921Y-68693649D01*
X110472273Y-68708001D01*
X110455145Y-68708001D01*
X110455143Y-68708001D01*
X110455141Y-68708002D01*
X110372263Y-68742331D01*
X110308830Y-68805764D01*
X110274501Y-68888642D01*
X110274500Y-68888644D01*
X110274500Y-68888646D01*
X110274500Y-68978356D01*
X110274500Y-68978358D01*
X110274501Y-68978359D01*
X110308830Y-69061237D01*
X110308832Y-69061240D01*
X110372261Y-69124669D01*
X110372263Y-69124670D01*
X110372264Y-69124671D01*
X110455145Y-69159001D01*
X110455147Y-69159001D01*
X110544853Y-69159001D01*
X110544855Y-69159001D01*
X110627736Y-69124671D01*
X110627737Y-69124669D01*
X110627739Y-69124669D01*
X110691168Y-69061240D01*
X110691168Y-69061238D01*
X110691170Y-69061237D01*
X110725500Y-68978356D01*
X110725500Y-68959228D01*
X110739852Y-68924580D01*
X110892079Y-68772353D01*
X110926727Y-68758001D01*
X111755281Y-68758001D01*
X111789929Y-68772353D01*
X111804281Y-68807001D01*
X111800551Y-68825752D01*
X111774501Y-68888642D01*
X111774500Y-68888644D01*
X111774500Y-68888646D01*
X111774500Y-68978356D01*
X111774500Y-68978358D01*
X111774501Y-68978359D01*
X111808830Y-69061237D01*
X111808832Y-69061240D01*
X111872261Y-69124669D01*
X111872263Y-69124670D01*
X111872264Y-69124671D01*
X111955145Y-69159001D01*
X111955147Y-69159001D01*
X112044853Y-69159001D01*
X112044855Y-69159001D01*
X112127736Y-69124671D01*
X112140553Y-69111854D01*
X112175200Y-69097501D01*
X112518669Y-69097501D01*
X112518677Y-69097502D01*
X112524378Y-69097502D01*
X112589621Y-69097502D01*
X112589622Y-69097502D01*
X112632243Y-69079846D01*
X112649899Y-69072534D01*
X112696033Y-69026400D01*
X112696033Y-69026399D01*
X112702922Y-69019510D01*
X112702923Y-69019507D01*
X113581853Y-68140578D01*
X113616500Y-68126227D01*
X113651148Y-68140579D01*
X113665500Y-68175227D01*
X113665500Y-68507774D01*
X113651148Y-68542422D01*
X113499921Y-68693649D01*
X113465273Y-68708001D01*
X113455145Y-68708001D01*
X113455143Y-68708001D01*
X113455141Y-68708002D01*
X113372263Y-68742331D01*
X113308830Y-68805764D01*
X113274501Y-68888642D01*
X113274500Y-68888644D01*
X113274500Y-68888646D01*
X113274500Y-68978356D01*
X113274500Y-68978358D01*
X113274501Y-68978359D01*
X113308830Y-69061237D01*
X113308832Y-69061240D01*
X113372261Y-69124669D01*
X113372263Y-69124670D01*
X113372264Y-69124671D01*
X113455145Y-69159001D01*
X113455147Y-69159001D01*
X113544853Y-69159001D01*
X113544855Y-69159001D01*
X113627736Y-69124671D01*
X113627737Y-69124669D01*
X113627739Y-69124669D01*
X113691168Y-69061240D01*
X113691168Y-69061238D01*
X113691170Y-69061237D01*
X113725500Y-68978356D01*
X113725500Y-68952227D01*
X113739851Y-68917580D01*
X113912352Y-68745078D01*
X113946999Y-68730727D01*
X113981647Y-68745079D01*
X114260171Y-69023603D01*
X114260174Y-69023607D01*
X114260175Y-69023607D01*
X114262966Y-69026398D01*
X114262967Y-69026400D01*
X114309101Y-69072534D01*
X114332638Y-69082283D01*
X114369379Y-69097502D01*
X114369381Y-69097502D01*
X114440323Y-69097502D01*
X114440331Y-69097501D01*
X114824798Y-69097501D01*
X114859446Y-69111853D01*
X114859447Y-69111854D01*
X114872261Y-69124669D01*
X114872263Y-69124670D01*
X114872264Y-69124671D01*
X114955145Y-69159001D01*
X114955147Y-69159001D01*
X115044853Y-69159001D01*
X115044855Y-69159001D01*
X115127736Y-69124671D01*
X115127737Y-69124669D01*
X115127739Y-69124669D01*
X115191168Y-69061240D01*
X115191168Y-69061238D01*
X115191170Y-69061237D01*
X115225500Y-68978356D01*
X115225500Y-68888646D01*
X115191170Y-68805765D01*
X115191169Y-68805764D01*
X115191168Y-68805762D01*
X115127739Y-68742333D01*
X115127736Y-68742331D01*
X115044858Y-68708002D01*
X115044856Y-68708001D01*
X115044855Y-68708001D01*
X114955145Y-68708001D01*
X114955143Y-68708001D01*
X114955141Y-68708002D01*
X114872263Y-68742331D01*
X114872261Y-68742332D01*
X114859447Y-68755148D01*
X114824800Y-68769501D01*
X114490227Y-68769501D01*
X114455579Y-68755149D01*
X114235852Y-68535422D01*
X114221500Y-68500774D01*
X114221500Y-63451252D01*
X114212127Y-63428625D01*
X114196533Y-63390976D01*
X114150399Y-63344842D01*
X114150397Y-63344841D01*
X114147606Y-63342050D01*
X114147606Y-63342049D01*
X114147602Y-63342046D01*
X112576050Y-61770494D01*
X112569159Y-61763602D01*
X112552903Y-61747346D01*
X112552902Y-61747344D01*
X112542282Y-61731450D01*
X112541170Y-61728765D01*
X112541169Y-61728764D01*
X112541168Y-61728762D01*
X112477739Y-61665333D01*
X112477736Y-61665331D01*
X112394858Y-61631002D01*
X112394856Y-61631001D01*
X112394855Y-61631001D01*
X112305145Y-61631001D01*
X112305143Y-61631001D01*
X112305141Y-61631002D01*
X112222263Y-61665331D01*
X112158830Y-61728764D01*
X112124501Y-61811642D01*
X112124500Y-61811644D01*
X112124500Y-61811646D01*
X112124500Y-61901356D01*
X112124500Y-61901358D01*
X112124501Y-61901359D01*
X112158830Y-61984237D01*
X112158832Y-61984240D01*
X112196445Y-62021853D01*
X112210797Y-62056501D01*
X112196445Y-62091149D01*
X112158830Y-62128764D01*
X112124501Y-62211642D01*
X112124500Y-62211644D01*
X112124500Y-62211646D01*
X112124500Y-62301356D01*
X112124500Y-62301358D01*
X112124501Y-62301359D01*
X112158830Y-62384237D01*
X112158832Y-62384240D01*
X112196445Y-62421853D01*
X112210797Y-62456501D01*
X112196445Y-62491149D01*
X112158830Y-62528764D01*
X112124501Y-62611642D01*
X112124500Y-62611644D01*
X112124500Y-62611646D01*
X112124500Y-62701356D01*
X112124500Y-62701358D01*
X112124501Y-62701359D01*
X112158830Y-62784237D01*
X112158832Y-62784240D01*
X112196445Y-62821853D01*
X112210797Y-62856501D01*
X112196445Y-62891149D01*
X112158830Y-62928764D01*
X112124501Y-63011642D01*
X112124500Y-63011644D01*
X112124500Y-63011646D01*
X112124500Y-63101356D01*
X112124500Y-63101358D01*
X112124501Y-63101359D01*
X112158830Y-63184237D01*
X112158832Y-63184240D01*
X112196445Y-63221853D01*
X112210797Y-63256501D01*
X112196445Y-63291149D01*
X112158830Y-63328764D01*
X112124501Y-63411642D01*
X112124500Y-63411644D01*
X112124500Y-63411646D01*
X112124500Y-63501356D01*
X112124500Y-63501358D01*
X112124501Y-63501359D01*
X112158830Y-63584237D01*
X112158832Y-63584240D01*
X112196445Y-63621853D01*
X112210797Y-63656501D01*
X112196445Y-63691149D01*
X112158830Y-63728764D01*
X112124501Y-63811642D01*
X112124500Y-63811644D01*
X112124500Y-63811646D01*
X112124500Y-63901356D01*
X112124500Y-63901358D01*
X112124501Y-63901359D01*
X112158830Y-63984237D01*
X112158832Y-63984240D01*
X112196445Y-64021853D01*
X112210797Y-64056501D01*
X112196445Y-64091149D01*
X112158830Y-64128764D01*
X112124501Y-64211642D01*
X112124500Y-64211644D01*
X112124500Y-64211646D01*
X112124500Y-64301356D01*
X112124500Y-64301358D01*
X112124501Y-64301359D01*
X112158830Y-64384237D01*
X112158832Y-64384240D01*
X112196445Y-64421853D01*
X112210797Y-64456501D01*
X112196445Y-64491149D01*
X112158830Y-64528764D01*
X112124501Y-64611642D01*
X112124500Y-64611644D01*
X112124500Y-64611646D01*
X112124500Y-64701356D01*
X112124500Y-64701358D01*
X112124501Y-64701359D01*
X112158830Y-64784237D01*
X112158832Y-64784240D01*
X112222261Y-64847669D01*
X112222263Y-64847670D01*
X112222264Y-64847671D01*
X112267252Y-64866305D01*
X112293770Y-64892822D01*
X112297500Y-64911574D01*
X112297500Y-67328574D01*
X112283148Y-67363222D01*
X112142721Y-67503649D01*
X112108073Y-67518001D01*
X110702703Y-67518001D01*
X110668055Y-67503649D01*
X110653703Y-67469001D01*
X110668055Y-67434353D01*
X110691168Y-67411240D01*
X110691168Y-67411238D01*
X110691170Y-67411237D01*
X110725500Y-67328356D01*
X110725500Y-67238646D01*
X110691170Y-67155765D01*
X110691169Y-67155764D01*
X110691168Y-67155762D01*
X110627739Y-67092333D01*
X110627736Y-67092331D01*
X110544858Y-67058002D01*
X110544856Y-67058001D01*
X110544855Y-67058001D01*
X110455145Y-67058001D01*
X110455143Y-67058001D01*
X110455141Y-67058002D01*
X110372263Y-67092331D01*
X110308830Y-67155764D01*
X110274501Y-67238642D01*
X110274500Y-67238644D01*
X110274500Y-67238646D01*
X110274500Y-67328356D01*
X110274500Y-67328358D01*
X110274501Y-67328359D01*
X110308830Y-67411237D01*
X110308832Y-67411240D01*
X110331945Y-67434353D01*
X110346297Y-67469001D01*
X110331945Y-67503649D01*
X110297297Y-67518001D01*
X105714878Y-67518001D01*
X105654601Y-67542968D01*
X105608467Y-67589102D01*
X105608466Y-67589103D01*
X104503921Y-68693649D01*
X104469273Y-68708001D01*
X104455145Y-68708001D01*
X104455143Y-68708001D01*
X104455141Y-68708002D01*
X104372263Y-68742331D01*
X104308830Y-68805764D01*
X104274501Y-68888642D01*
X104274500Y-68888644D01*
X103225499Y-68888644D01*
X103191170Y-68805765D01*
X103191169Y-68805764D01*
X103191168Y-68805762D01*
X103127739Y-68742333D01*
X103127736Y-68742331D01*
X103044858Y-68708002D01*
X103044856Y-68708001D01*
X103044855Y-68708001D01*
X103044853Y-68708001D01*
X103026727Y-68708001D01*
X102992079Y-68693649D01*
X101894425Y-67595995D01*
X101894424Y-67595993D01*
X101894424Y-67595994D01*
X101887533Y-67589102D01*
X101841399Y-67542968D01*
X101841396Y-67542966D01*
X101823745Y-67535656D01*
X101823743Y-67535654D01*
X101823743Y-67535655D01*
X101781123Y-67518000D01*
X101781122Y-67518000D01*
X101715878Y-67518000D01*
X101710177Y-67518000D01*
X101710169Y-67518001D01*
X95293727Y-67518001D01*
X95259079Y-67503649D01*
X95207852Y-67452422D01*
X95193500Y-67417774D01*
X95193500Y-64391644D01*
X100874500Y-64391644D01*
X100874500Y-64391646D01*
X100874500Y-64481356D01*
X100874500Y-64481358D01*
X100874501Y-64481359D01*
X100908830Y-64564237D01*
X100908832Y-64564240D01*
X100972261Y-64627669D01*
X100972263Y-64627670D01*
X100972264Y-64627671D01*
X101055145Y-64662001D01*
X101055147Y-64662001D01*
X101144853Y-64662001D01*
X101144855Y-64662001D01*
X101227736Y-64627671D01*
X101227737Y-64627669D01*
X101227739Y-64627669D01*
X101291168Y-64564240D01*
X101291168Y-64564238D01*
X101291170Y-64564237D01*
X101325500Y-64481356D01*
X101325500Y-64391646D01*
X101291170Y-64308765D01*
X101291169Y-64308764D01*
X101291168Y-64308762D01*
X101227739Y-64245333D01*
X101227736Y-64245331D01*
X101144858Y-64211002D01*
X101144856Y-64211001D01*
X101144855Y-64211001D01*
X101055145Y-64211001D01*
X101055143Y-64211001D01*
X101055141Y-64211002D01*
X100972263Y-64245331D01*
X100908830Y-64308764D01*
X100874501Y-64391642D01*
X100874500Y-64391644D01*
X95193500Y-64391644D01*
X95193500Y-63211644D01*
X106444500Y-63211644D01*
X106444500Y-63211646D01*
X106444500Y-63301356D01*
X106444500Y-63301358D01*
X106444501Y-63301359D01*
X106478830Y-63384237D01*
X106478832Y-63384240D01*
X106542261Y-63447669D01*
X106542263Y-63447670D01*
X106542264Y-63447671D01*
X106625145Y-63482001D01*
X106625147Y-63482001D01*
X106714853Y-63482001D01*
X106714855Y-63482001D01*
X106797736Y-63447671D01*
X106797737Y-63447669D01*
X106797739Y-63447669D01*
X106861168Y-63384240D01*
X106861168Y-63384238D01*
X106861170Y-63384237D01*
X106895500Y-63301356D01*
X106895500Y-63211646D01*
X106861170Y-63128765D01*
X106861169Y-63128764D01*
X106861168Y-63128762D01*
X106797739Y-63065333D01*
X106797736Y-63065331D01*
X106714858Y-63031002D01*
X106714856Y-63031001D01*
X106714855Y-63031001D01*
X106625145Y-63031001D01*
X106625143Y-63031001D01*
X106625141Y-63031002D01*
X106542263Y-63065331D01*
X106478830Y-63128764D01*
X106444501Y-63211642D01*
X106444500Y-63211644D01*
X95193500Y-63211644D01*
X95193500Y-61926885D01*
X95193501Y-61926876D01*
X95193501Y-61855934D01*
X95193500Y-61855930D01*
X95168533Y-61795656D01*
X95168533Y-61795655D01*
X95122399Y-61749521D01*
X95122397Y-61749520D01*
X93768990Y-60396113D01*
X93754638Y-60361465D01*
X93758366Y-60342718D01*
X93775500Y-60301356D01*
X93775500Y-60211646D01*
X93741170Y-60128765D01*
X93741169Y-60128764D01*
X93741168Y-60128762D01*
X93703555Y-60091149D01*
X93689203Y-60056501D01*
X93703555Y-60021853D01*
X93741168Y-59984240D01*
X93741168Y-59984238D01*
X93741170Y-59984237D01*
X93775500Y-59901356D01*
X93775500Y-59811646D01*
X93741170Y-59728765D01*
X93741169Y-59728764D01*
X93741168Y-59728762D01*
X93677739Y-59665333D01*
X93677736Y-59665331D01*
X93594858Y-59631002D01*
X93594856Y-59631001D01*
X93594855Y-59631001D01*
X93505145Y-59631001D01*
X93505143Y-59631001D01*
X93505141Y-59631002D01*
X93422263Y-59665331D01*
X93358830Y-59728764D01*
X93324501Y-59811642D01*
X93324500Y-59811644D01*
X93324500Y-59811646D01*
X93324500Y-59901356D01*
X93324500Y-59901358D01*
X93324501Y-59901359D01*
X93358830Y-59984237D01*
X93358832Y-59984240D01*
X93396445Y-60021853D01*
X93410797Y-60056501D01*
X93396445Y-60091149D01*
X93358830Y-60128764D01*
X93324501Y-60211642D01*
X93324500Y-60211644D01*
X93324500Y-60211646D01*
X93324500Y-60301356D01*
X93324500Y-60301358D01*
X93324501Y-60301359D01*
X93358830Y-60384237D01*
X93358831Y-60384239D01*
X93371646Y-60397053D01*
X93371647Y-60397054D01*
X93375692Y-60406820D01*
X93385999Y-60431700D01*
X93385999Y-60442501D01*
X93371647Y-60477149D01*
X93336999Y-60491501D01*
X92632202Y-60491501D01*
X92597554Y-60477149D01*
X92597553Y-60477148D01*
X92584738Y-60464332D01*
X92584736Y-60464331D01*
X92501858Y-60430002D01*
X92501856Y-60430001D01*
X92501855Y-60430001D01*
X92412145Y-60430001D01*
X92412143Y-60430001D01*
X92412141Y-60430002D01*
X92329263Y-60464331D01*
X92265830Y-60527764D01*
X92231501Y-60610642D01*
X92231500Y-60610644D01*
X92231500Y-60610646D01*
X92231500Y-60700356D01*
X92231500Y-60700358D01*
X92231501Y-60700359D01*
X92265830Y-60783237D01*
X92265832Y-60783240D01*
X92300445Y-60817853D01*
X92314797Y-60852501D01*
X92300445Y-60887149D01*
X92258830Y-60928764D01*
X92224501Y-61011642D01*
X92224500Y-61011644D01*
X92224500Y-61011646D01*
X92224500Y-61101356D01*
X92224500Y-61101358D01*
X92224501Y-61101359D01*
X92258830Y-61184237D01*
X92258832Y-61184240D01*
X92293945Y-61219353D01*
X92308297Y-61254001D01*
X92293945Y-61288649D01*
X92253830Y-61328764D01*
X92219501Y-61411642D01*
X92219500Y-61411644D01*
X92219500Y-61411646D01*
X92219500Y-61501356D01*
X92219500Y-61501358D01*
X92219501Y-61501359D01*
X92253830Y-61584237D01*
X92253832Y-61584240D01*
X92317261Y-61647669D01*
X92317263Y-61647670D01*
X92317264Y-61647671D01*
X92400145Y-61682001D01*
X92400147Y-61682001D01*
X92489853Y-61682001D01*
X92489855Y-61682001D01*
X92572736Y-61647671D01*
X92585553Y-61634854D01*
X92620200Y-61620501D01*
X93348797Y-61620501D01*
X93383445Y-61634853D01*
X93397797Y-61669501D01*
X93383445Y-61704149D01*
X93358830Y-61728764D01*
X93324501Y-61811642D01*
X93324500Y-61811644D01*
X93324500Y-61811646D01*
X93324500Y-61901356D01*
X93324500Y-61901358D01*
X93324501Y-61901359D01*
X93358830Y-61984237D01*
X93358832Y-61984240D01*
X93396445Y-62021853D01*
X93410797Y-62056501D01*
X93396445Y-62091149D01*
X93358830Y-62128764D01*
X93324501Y-62211642D01*
X93324500Y-62211644D01*
X93324500Y-62211646D01*
X93324500Y-62301356D01*
X93324500Y-62301358D01*
X93324501Y-62301359D01*
X93358830Y-62384237D01*
X93358832Y-62384240D01*
X93396445Y-62421853D01*
X93410797Y-62456501D01*
X93396445Y-62491149D01*
X93358830Y-62528764D01*
X93324501Y-62611642D01*
X93324500Y-62611644D01*
X93324500Y-62611646D01*
X93324500Y-62701356D01*
X93324500Y-62701358D01*
X93324501Y-62701359D01*
X93358830Y-62784237D01*
X93358832Y-62784240D01*
X93396445Y-62821853D01*
X93410797Y-62856501D01*
X93396445Y-62891149D01*
X93358830Y-62928764D01*
X93324501Y-63011642D01*
X93324500Y-63011648D01*
X93324500Y-63029773D01*
X93310148Y-63064421D01*
X93071467Y-63303101D01*
X93071467Y-63303103D01*
X93046499Y-63363377D01*
X93046499Y-63434323D01*
X93046500Y-63434332D01*
X93046500Y-63805340D01*
X93032148Y-63839988D01*
X92997500Y-63854340D01*
X92962852Y-63839988D01*
X92493359Y-63370495D01*
X92493358Y-63370493D01*
X92493358Y-63370494D01*
X92486467Y-63363602D01*
X92440333Y-63317468D01*
X92440330Y-63317466D01*
X92422679Y-63310156D01*
X92422677Y-63310154D01*
X92422677Y-63310155D01*
X92380057Y-63292500D01*
X92380056Y-63292500D01*
X92314812Y-63292500D01*
X92309111Y-63292500D01*
X92309103Y-63292501D01*
X91325202Y-63292501D01*
X91290554Y-63278149D01*
X91290553Y-63278148D01*
X91277738Y-63265332D01*
X91277736Y-63265331D01*
X91194858Y-63231002D01*
X91194856Y-63231001D01*
X91194855Y-63231001D01*
X91105145Y-63231001D01*
X91105143Y-63231001D01*
X91105141Y-63231002D01*
X91022263Y-63265331D01*
X90958830Y-63328764D01*
X90924501Y-63411642D01*
X90924500Y-63411644D01*
X89950500Y-63411644D01*
X89950500Y-59116644D01*
X90232500Y-59116644D01*
X90232500Y-59116646D01*
X90232500Y-59206356D01*
X90232500Y-59206358D01*
X90232501Y-59206359D01*
X90266830Y-59289237D01*
X90266832Y-59289240D01*
X90330261Y-59352669D01*
X90330263Y-59352670D01*
X90330264Y-59352671D01*
X90413145Y-59387001D01*
X90413147Y-59387001D01*
X90502853Y-59387001D01*
X90502855Y-59387001D01*
X90585736Y-59352671D01*
X90598553Y-59339854D01*
X90633200Y-59325501D01*
X91345669Y-59325501D01*
X91345677Y-59325502D01*
X91351378Y-59325502D01*
X91416621Y-59325502D01*
X91416622Y-59325502D01*
X91459243Y-59307846D01*
X91476899Y-59300534D01*
X91523033Y-59254400D01*
X91523033Y-59254399D01*
X91529922Y-59247510D01*
X91529924Y-59247507D01*
X92018353Y-58759077D01*
X92053000Y-58744726D01*
X92087648Y-58759078D01*
X92097443Y-58777398D01*
X92098653Y-58776898D01*
X92134830Y-58864237D01*
X92134832Y-58864240D01*
X92198261Y-58927669D01*
X92198263Y-58927670D01*
X92198264Y-58927671D01*
X92281145Y-58962001D01*
X92281147Y-58962001D01*
X92370853Y-58962001D01*
X92370855Y-58962001D01*
X92453736Y-58927671D01*
X92466554Y-58914853D01*
X92487709Y-58906090D01*
X92501200Y-58900501D01*
X92523045Y-58900501D01*
X92557693Y-58914853D01*
X92572045Y-58949501D01*
X92568315Y-58968249D01*
X92555815Y-58998430D01*
X92537500Y-59042644D01*
X92537500Y-59042646D01*
X92537500Y-59132356D01*
X92537500Y-59132358D01*
X92537501Y-59132359D01*
X92571830Y-59215237D01*
X92571832Y-59215240D01*
X92635261Y-59278669D01*
X92635263Y-59278670D01*
X92635264Y-59278671D01*
X92718145Y-59313001D01*
X92718147Y-59313001D01*
X92807853Y-59313001D01*
X92807855Y-59313001D01*
X92890736Y-59278671D01*
X92890737Y-59278669D01*
X92890739Y-59278669D01*
X92954168Y-59215240D01*
X92954168Y-59215238D01*
X92954170Y-59215237D01*
X92988500Y-59132356D01*
X92988500Y-59042646D01*
X92957685Y-58968251D01*
X92957685Y-58930750D01*
X92984203Y-58904231D01*
X93002955Y-58900501D01*
X94108669Y-58900501D01*
X94108677Y-58900502D01*
X94114378Y-58900502D01*
X94179621Y-58900502D01*
X94179622Y-58900502D01*
X94222243Y-58882846D01*
X94239899Y-58875534D01*
X94286033Y-58829400D01*
X94286033Y-58829399D01*
X94292922Y-58822510D01*
X94292923Y-58822507D01*
X95167079Y-57948353D01*
X95201727Y-57934001D01*
X95219853Y-57934001D01*
X95219855Y-57934001D01*
X95302736Y-57899671D01*
X95302737Y-57899669D01*
X95302739Y-57899669D01*
X95366168Y-57836240D01*
X95366168Y-57836238D01*
X95366170Y-57836237D01*
X95400500Y-57753356D01*
X95400500Y-57663646D01*
X95400499Y-57663644D01*
X96599500Y-57663644D01*
X96599500Y-57663646D01*
X96599500Y-57753356D01*
X96599500Y-57753358D01*
X96599501Y-57753359D01*
X96633830Y-57836237D01*
X96633832Y-57836240D01*
X96697261Y-57899669D01*
X96697263Y-57899670D01*
X96697264Y-57899671D01*
X96780145Y-57934001D01*
X96798273Y-57934001D01*
X96832921Y-57948353D01*
X96986148Y-58101580D01*
X97000500Y-58136228D01*
X97000500Y-58963782D01*
X96986148Y-58998430D01*
X96951500Y-59012782D01*
X96932749Y-59009052D01*
X96869858Y-58983002D01*
X96869856Y-58983001D01*
X96869855Y-58983001D01*
X96780145Y-58983001D01*
X96780143Y-58983001D01*
X96780141Y-58983002D01*
X96697263Y-59017331D01*
X96633830Y-59080764D01*
X96599501Y-59163642D01*
X96599500Y-59163644D01*
X96599500Y-59163646D01*
X96599500Y-59253356D01*
X96599500Y-59253358D01*
X96599501Y-59253359D01*
X96633830Y-59336237D01*
X96633832Y-59336240D01*
X96697261Y-59399669D01*
X96697263Y-59399670D01*
X96697264Y-59399671D01*
X96742252Y-59418305D01*
X96768770Y-59444822D01*
X96772500Y-59463574D01*
X96772500Y-61293818D01*
X96772499Y-61359062D01*
X96782841Y-61384029D01*
X96797467Y-61419340D01*
X96843601Y-61465474D01*
X96843602Y-61465474D01*
X96850493Y-61472365D01*
X96850492Y-61472365D01*
X96850494Y-61472366D01*
X96850495Y-61472367D01*
X96868412Y-61490285D01*
X96874501Y-61497704D01*
X96874964Y-61498397D01*
X96927992Y-61551425D01*
X96927994Y-61551426D01*
X98323171Y-62946603D01*
X98323174Y-62946607D01*
X98325967Y-62949400D01*
X98372101Y-62995534D01*
X98389752Y-63002844D01*
X98389755Y-63002847D01*
X98389756Y-63002846D01*
X98432378Y-63020502D01*
X98432379Y-63020502D01*
X98503323Y-63020502D01*
X98503331Y-63020501D01*
X99354798Y-63020501D01*
X99389446Y-63034853D01*
X99389447Y-63034854D01*
X99402261Y-63047669D01*
X99402263Y-63047670D01*
X99402264Y-63047671D01*
X99485145Y-63082001D01*
X99485147Y-63082001D01*
X99574853Y-63082001D01*
X99574855Y-63082001D01*
X99657736Y-63047671D01*
X99657737Y-63047669D01*
X99657739Y-63047669D01*
X99721168Y-62984240D01*
X99721168Y-62984238D01*
X99721170Y-62984237D01*
X99755500Y-62901356D01*
X99755500Y-62811646D01*
X99721170Y-62728765D01*
X99721169Y-62728764D01*
X99721168Y-62728762D01*
X99683555Y-62691149D01*
X99669203Y-62656501D01*
X99683555Y-62621853D01*
X99721168Y-62584240D01*
X99721168Y-62584238D01*
X99721170Y-62584237D01*
X99755500Y-62501356D01*
X99755500Y-62411646D01*
X99721170Y-62328765D01*
X99721169Y-62328764D01*
X99721168Y-62328762D01*
X99683555Y-62291149D01*
X99669203Y-62256501D01*
X99683555Y-62221853D01*
X99721168Y-62184240D01*
X99721168Y-62184238D01*
X99721170Y-62184237D01*
X99755500Y-62101356D01*
X99755500Y-62011646D01*
X99721170Y-61928765D01*
X99721169Y-61928764D01*
X99721168Y-61928762D01*
X99657739Y-61865333D01*
X99657736Y-61865331D01*
X99574858Y-61831002D01*
X99574856Y-61831001D01*
X99574855Y-61831001D01*
X99485145Y-61831001D01*
X99485143Y-61831001D01*
X99485141Y-61831002D01*
X99402263Y-61865331D01*
X99338830Y-61928764D01*
X99304501Y-62011642D01*
X99304500Y-62011644D01*
X99304500Y-62011646D01*
X99304500Y-62101356D01*
X99304500Y-62101358D01*
X99304501Y-62101359D01*
X99338830Y-62184237D01*
X99338832Y-62184240D01*
X99363445Y-62208853D01*
X99377797Y-62243501D01*
X99363445Y-62278149D01*
X99328797Y-62292501D01*
X98477227Y-62292501D01*
X98442579Y-62278149D01*
X98122079Y-61957649D01*
X98107727Y-61923001D01*
X98111603Y-61913644D01*
X98424500Y-61913644D01*
X98424500Y-61913646D01*
X98424500Y-62003356D01*
X98424500Y-62003358D01*
X98424501Y-62003359D01*
X98458830Y-62086237D01*
X98458832Y-62086240D01*
X98522261Y-62149669D01*
X98522263Y-62149670D01*
X98522264Y-62149671D01*
X98605145Y-62184001D01*
X98605147Y-62184001D01*
X98694853Y-62184001D01*
X98694855Y-62184001D01*
X98777736Y-62149671D01*
X98777737Y-62149669D01*
X98777739Y-62149669D01*
X98841168Y-62086240D01*
X98841168Y-62086238D01*
X98841170Y-62086237D01*
X98875500Y-62003356D01*
X98875500Y-61913646D01*
X98841170Y-61830765D01*
X98841169Y-61830764D01*
X98841168Y-61830762D01*
X98800055Y-61789649D01*
X98785703Y-61755001D01*
X98800055Y-61720353D01*
X98856168Y-61664240D01*
X98856168Y-61664238D01*
X98856170Y-61664237D01*
X98890500Y-61581356D01*
X98890500Y-61491646D01*
X98856170Y-61408765D01*
X98856169Y-61408764D01*
X98856168Y-61408762D01*
X98792739Y-61345333D01*
X98792736Y-61345331D01*
X98709858Y-61311002D01*
X98709856Y-61311001D01*
X98709855Y-61311001D01*
X98620145Y-61311001D01*
X98620143Y-61311001D01*
X98620141Y-61311002D01*
X98537263Y-61345331D01*
X98473830Y-61408764D01*
X98439501Y-61491642D01*
X98439500Y-61491644D01*
X98439500Y-61491646D01*
X98439500Y-61581356D01*
X98440029Y-61582633D01*
X98440030Y-61582637D01*
X98449104Y-61604543D01*
X98473830Y-61664237D01*
X98473831Y-61664238D01*
X98473832Y-61664240D01*
X98514945Y-61705353D01*
X98529297Y-61740001D01*
X98514945Y-61774649D01*
X98458830Y-61830764D01*
X98424501Y-61913642D01*
X98424500Y-61913644D01*
X98111603Y-61913644D01*
X98122079Y-61888353D01*
X98156727Y-61874001D01*
X98163853Y-61874001D01*
X98163855Y-61874001D01*
X98246736Y-61839671D01*
X98246737Y-61839669D01*
X98246739Y-61839669D01*
X98310168Y-61776240D01*
X98310168Y-61776238D01*
X98310170Y-61776237D01*
X98344500Y-61693356D01*
X98344500Y-61603646D01*
X98310170Y-61520765D01*
X98310169Y-61520764D01*
X98310168Y-61520762D01*
X98246739Y-61457333D01*
X98246736Y-61457331D01*
X98163858Y-61423002D01*
X98163856Y-61423001D01*
X98163855Y-61423001D01*
X98074145Y-61423001D01*
X98074143Y-61423001D01*
X98074141Y-61423002D01*
X97991263Y-61457331D01*
X97927830Y-61520764D01*
X97893501Y-61603642D01*
X97893500Y-61603648D01*
X97893500Y-61610774D01*
X97879148Y-61645422D01*
X97844500Y-61659774D01*
X97809852Y-61645422D01*
X97342852Y-61178422D01*
X97328500Y-61143774D01*
X97328500Y-58086574D01*
X97328500Y-58080625D01*
X97328501Y-58080623D01*
X97328501Y-58015380D01*
X97326953Y-58011644D01*
X99304500Y-58011644D01*
X99304500Y-58011646D01*
X99304500Y-58101356D01*
X99304500Y-58101358D01*
X99304501Y-58101359D01*
X99338830Y-58184237D01*
X99338832Y-58184240D01*
X99376445Y-58221853D01*
X99390797Y-58256501D01*
X99376445Y-58291149D01*
X99338830Y-58328764D01*
X99304501Y-58411642D01*
X99304500Y-58411644D01*
X99304500Y-58411646D01*
X99304500Y-58501356D01*
X99304500Y-58501358D01*
X99304501Y-58501359D01*
X99338830Y-58584237D01*
X99338832Y-58584240D01*
X99376445Y-58621853D01*
X99390797Y-58656501D01*
X99376445Y-58691149D01*
X99338830Y-58728764D01*
X99304501Y-58811642D01*
X99304500Y-58811644D01*
X99304500Y-58811646D01*
X99304500Y-58901356D01*
X99304500Y-58901358D01*
X99304501Y-58901359D01*
X99338830Y-58984237D01*
X99338832Y-58984240D01*
X99376445Y-59021853D01*
X99390797Y-59056501D01*
X99376445Y-59091149D01*
X99338830Y-59128764D01*
X99304501Y-59211642D01*
X99304500Y-59211644D01*
X99304500Y-59211646D01*
X99304500Y-59301356D01*
X99304500Y-59301358D01*
X99304501Y-59301359D01*
X99338830Y-59384237D01*
X99338832Y-59384240D01*
X99376445Y-59421853D01*
X99390797Y-59456501D01*
X99376445Y-59491149D01*
X99338830Y-59528764D01*
X99304501Y-59611642D01*
X99304500Y-59611644D01*
X99304500Y-59611646D01*
X99304500Y-59701356D01*
X99304500Y-59701358D01*
X99304501Y-59701359D01*
X99338830Y-59784237D01*
X99338832Y-59784240D01*
X99376445Y-59821853D01*
X99390797Y-59856501D01*
X99376445Y-59891149D01*
X99338830Y-59928764D01*
X99304501Y-60011642D01*
X99304500Y-60011644D01*
X99304500Y-60011646D01*
X99304500Y-60101356D01*
X99304500Y-60101358D01*
X99304501Y-60101359D01*
X99338830Y-60184237D01*
X99338832Y-60184240D01*
X99376445Y-60221853D01*
X99390797Y-60256501D01*
X99376445Y-60291149D01*
X99338830Y-60328764D01*
X99304501Y-60411642D01*
X99304500Y-60411644D01*
X99304500Y-60411646D01*
X99304500Y-60501356D01*
X99304500Y-60501358D01*
X99304501Y-60501359D01*
X99338830Y-60584237D01*
X99338832Y-60584240D01*
X99376445Y-60621853D01*
X99390797Y-60656501D01*
X99376445Y-60691149D01*
X99338830Y-60728764D01*
X99304501Y-60811642D01*
X99304500Y-60811644D01*
X99304500Y-60811646D01*
X99304500Y-60901356D01*
X99304500Y-60901358D01*
X99304501Y-60901359D01*
X99338830Y-60984237D01*
X99338832Y-60984240D01*
X99376445Y-61021853D01*
X99390797Y-61056501D01*
X99376445Y-61091149D01*
X99338830Y-61128764D01*
X99304501Y-61211642D01*
X99304500Y-61211644D01*
X99304500Y-61211646D01*
X99304500Y-61301356D01*
X99304500Y-61301358D01*
X99304501Y-61301359D01*
X99338830Y-61384237D01*
X99338832Y-61384240D01*
X99402261Y-61447669D01*
X99402263Y-61447670D01*
X99402264Y-61447671D01*
X99485145Y-61482001D01*
X99485147Y-61482001D01*
X99574853Y-61482001D01*
X99574855Y-61482001D01*
X99657736Y-61447671D01*
X99657737Y-61447669D01*
X99657739Y-61447669D01*
X99721168Y-61384240D01*
X99721168Y-61384238D01*
X99721170Y-61384237D01*
X99755500Y-61301356D01*
X99755500Y-61211646D01*
X99721170Y-61128765D01*
X99721169Y-61128764D01*
X99721168Y-61128762D01*
X99683555Y-61091149D01*
X99669203Y-61056501D01*
X99683555Y-61021853D01*
X99721168Y-60984240D01*
X99721168Y-60984238D01*
X99721170Y-60984237D01*
X99755500Y-60901356D01*
X99755500Y-60811646D01*
X99721170Y-60728765D01*
X99721169Y-60728764D01*
X99721168Y-60728762D01*
X99683555Y-60691149D01*
X99669203Y-60656501D01*
X99683555Y-60621853D01*
X99721168Y-60584240D01*
X99721168Y-60584238D01*
X99721170Y-60584237D01*
X99755500Y-60501356D01*
X99755500Y-60411646D01*
X99721170Y-60328765D01*
X99721169Y-60328764D01*
X99721168Y-60328762D01*
X99683555Y-60291149D01*
X99669203Y-60256501D01*
X99683555Y-60221853D01*
X99721168Y-60184240D01*
X99721168Y-60184238D01*
X99721170Y-60184237D01*
X99755500Y-60101356D01*
X99755500Y-60011646D01*
X99721170Y-59928765D01*
X99721169Y-59928764D01*
X99721168Y-59928762D01*
X99683555Y-59891149D01*
X99669203Y-59856501D01*
X99683555Y-59821853D01*
X99721168Y-59784240D01*
X99721168Y-59784238D01*
X99721170Y-59784237D01*
X99755500Y-59701356D01*
X99755500Y-59611646D01*
X99721170Y-59528765D01*
X99721169Y-59528764D01*
X99721168Y-59528762D01*
X99683555Y-59491149D01*
X99669203Y-59456501D01*
X99683555Y-59421853D01*
X99721168Y-59384240D01*
X99721168Y-59384238D01*
X99721170Y-59384237D01*
X99755500Y-59301356D01*
X99755500Y-59211646D01*
X99721170Y-59128765D01*
X99721169Y-59128764D01*
X99721168Y-59128762D01*
X99683555Y-59091149D01*
X99669203Y-59056501D01*
X99683555Y-59021853D01*
X99721168Y-58984240D01*
X99721168Y-58984238D01*
X99721170Y-58984237D01*
X99755500Y-58901356D01*
X99755500Y-58811646D01*
X99721170Y-58728765D01*
X99721169Y-58728764D01*
X99721168Y-58728762D01*
X99683555Y-58691149D01*
X99669203Y-58656501D01*
X99683555Y-58621853D01*
X99721168Y-58584240D01*
X99721168Y-58584238D01*
X99721170Y-58584237D01*
X99755500Y-58501356D01*
X99755500Y-58411646D01*
X99721170Y-58328765D01*
X99721169Y-58328764D01*
X99721168Y-58328762D01*
X99683555Y-58291149D01*
X99669203Y-58256501D01*
X99683555Y-58221853D01*
X99721168Y-58184240D01*
X99721168Y-58184238D01*
X99721170Y-58184237D01*
X99755500Y-58101356D01*
X99755500Y-58011646D01*
X99755499Y-58011644D01*
X106444500Y-58011644D01*
X106444500Y-58011646D01*
X106444500Y-58101356D01*
X106444500Y-58101358D01*
X106444501Y-58101359D01*
X106478830Y-58184237D01*
X106478832Y-58184240D01*
X106516445Y-58221853D01*
X106530797Y-58256501D01*
X106516445Y-58291149D01*
X106478830Y-58328764D01*
X106444501Y-58411642D01*
X106444500Y-58411644D01*
X106444500Y-58411646D01*
X106444500Y-58501356D01*
X106444500Y-58501358D01*
X106444501Y-58501359D01*
X106478830Y-58584237D01*
X106478832Y-58584240D01*
X106542261Y-58647669D01*
X106542263Y-58647670D01*
X106542264Y-58647671D01*
X106625145Y-58682001D01*
X106625147Y-58682001D01*
X106714853Y-58682001D01*
X106714855Y-58682001D01*
X106797736Y-58647671D01*
X106797737Y-58647669D01*
X106797739Y-58647669D01*
X106861168Y-58584240D01*
X106861168Y-58584238D01*
X106861170Y-58584237D01*
X106895500Y-58501356D01*
X106895500Y-58411646D01*
X106861170Y-58328765D01*
X106861169Y-58328764D01*
X106861168Y-58328762D01*
X106823555Y-58291149D01*
X106809203Y-58256501D01*
X106823555Y-58221853D01*
X106861168Y-58184240D01*
X106861168Y-58184238D01*
X106861170Y-58184237D01*
X106895500Y-58101356D01*
X106895500Y-58011646D01*
X106861170Y-57928765D01*
X106861169Y-57928764D01*
X106861168Y-57928762D01*
X106797739Y-57865333D01*
X106797736Y-57865331D01*
X106714858Y-57831002D01*
X106714856Y-57831001D01*
X106714855Y-57831001D01*
X106625145Y-57831001D01*
X106625143Y-57831001D01*
X106625141Y-57831002D01*
X106542263Y-57865331D01*
X106478830Y-57928764D01*
X106444501Y-58011642D01*
X106444500Y-58011644D01*
X99755499Y-58011644D01*
X99721170Y-57928765D01*
X99721169Y-57928764D01*
X99721168Y-57928762D01*
X99657739Y-57865333D01*
X99657736Y-57865331D01*
X99574858Y-57831002D01*
X99574856Y-57831001D01*
X99574855Y-57831001D01*
X99485145Y-57831001D01*
X99485143Y-57831001D01*
X99485141Y-57831002D01*
X99402263Y-57865331D01*
X99338830Y-57928764D01*
X99304501Y-58011642D01*
X99304500Y-58011644D01*
X97326953Y-58011644D01*
X97307428Y-57964506D01*
X97303533Y-57955102D01*
X97257399Y-57908968D01*
X97254609Y-57906178D01*
X97254602Y-57906172D01*
X97064852Y-57716422D01*
X97050500Y-57681774D01*
X97050500Y-57663648D01*
X97050500Y-57663646D01*
X97016170Y-57580765D01*
X97016169Y-57580764D01*
X97016168Y-57580762D01*
X96952739Y-57517333D01*
X96952736Y-57517331D01*
X96869858Y-57483002D01*
X96869856Y-57483001D01*
X96869855Y-57483001D01*
X96780145Y-57483001D01*
X96780143Y-57483001D01*
X96780141Y-57483002D01*
X96697263Y-57517331D01*
X96633830Y-57580764D01*
X96599501Y-57663642D01*
X96599500Y-57663644D01*
X95400499Y-57663644D01*
X95366170Y-57580765D01*
X95366169Y-57580764D01*
X95366168Y-57580762D01*
X95302739Y-57517333D01*
X95302736Y-57517331D01*
X95219858Y-57483002D01*
X95219856Y-57483001D01*
X95219855Y-57483001D01*
X95130145Y-57483001D01*
X95130143Y-57483001D01*
X95130141Y-57483002D01*
X95047263Y-57517331D01*
X94983830Y-57580764D01*
X94949501Y-57663642D01*
X94949500Y-57663648D01*
X94949500Y-57681774D01*
X94935148Y-57716422D01*
X94093421Y-58558149D01*
X94058773Y-58572501D01*
X92501202Y-58572501D01*
X92466554Y-58558149D01*
X92466553Y-58558148D01*
X92453738Y-58545332D01*
X92453736Y-58545331D01*
X92370858Y-58511002D01*
X92370856Y-58511001D01*
X92370855Y-58511001D01*
X92315500Y-58511001D01*
X92280852Y-58496649D01*
X92266500Y-58462001D01*
X92266500Y-57811644D01*
X92881502Y-57811644D01*
X92881502Y-57811646D01*
X92881502Y-57901356D01*
X92881502Y-57901358D01*
X92881503Y-57901359D01*
X92915832Y-57984237D01*
X92915834Y-57984240D01*
X92979263Y-58047669D01*
X92979265Y-58047670D01*
X92979266Y-58047671D01*
X93062147Y-58082001D01*
X93062149Y-58082001D01*
X93151855Y-58082001D01*
X93151857Y-58082001D01*
X93234738Y-58047671D01*
X93234739Y-58047669D01*
X93234741Y-58047669D01*
X93298170Y-57984240D01*
X93298170Y-57984238D01*
X93298172Y-57984237D01*
X93332502Y-57901356D01*
X93332502Y-57811646D01*
X93298172Y-57728765D01*
X93298171Y-57728764D01*
X93298170Y-57728762D01*
X93234741Y-57665333D01*
X93234738Y-57665331D01*
X93151860Y-57631002D01*
X93151858Y-57631001D01*
X93151857Y-57631001D01*
X93062147Y-57631001D01*
X93062145Y-57631001D01*
X93062143Y-57631002D01*
X92979265Y-57665331D01*
X92915832Y-57728764D01*
X92881503Y-57811642D01*
X92881502Y-57811644D01*
X92266500Y-57811644D01*
X92266500Y-57201217D01*
X92280852Y-57166569D01*
X92315500Y-57152217D01*
X92334246Y-57155945D01*
X92397145Y-57181999D01*
X92397147Y-57181999D01*
X92486853Y-57181999D01*
X92486855Y-57181999D01*
X92569736Y-57147669D01*
X92633170Y-57084235D01*
X92633624Y-57083781D01*
X92668272Y-57069429D01*
X92702920Y-57083781D01*
X92704045Y-57085151D01*
X92770259Y-57151365D01*
X92770261Y-57151366D01*
X92770262Y-57151367D01*
X92853143Y-57185697D01*
X92853145Y-57185697D01*
X92942851Y-57185697D01*
X92942853Y-57185697D01*
X93025734Y-57151367D01*
X93025735Y-57151365D01*
X93025737Y-57151365D01*
X93089166Y-57087936D01*
X93089166Y-57087934D01*
X93089168Y-57087933D01*
X93123498Y-57005052D01*
X93123498Y-56915342D01*
X93089168Y-56832461D01*
X93089167Y-56832460D01*
X93089166Y-56832458D01*
X93025737Y-56769029D01*
X93025734Y-56769027D01*
X92942856Y-56734698D01*
X92942854Y-56734697D01*
X92942853Y-56734697D01*
X92853143Y-56734697D01*
X92853141Y-56734697D01*
X92853139Y-56734698D01*
X92770261Y-56769027D01*
X92770258Y-56769029D01*
X92706373Y-56832914D01*
X92671725Y-56847266D01*
X92637077Y-56832914D01*
X92635953Y-56831545D01*
X92569739Y-56765331D01*
X92569736Y-56765329D01*
X92486858Y-56731000D01*
X92486856Y-56730999D01*
X92486855Y-56730999D01*
X92397145Y-56730999D01*
X92397143Y-56730999D01*
X92397141Y-56731000D01*
X92334251Y-56757050D01*
X92296748Y-56757050D01*
X92270230Y-56730531D01*
X92266500Y-56711780D01*
X92266500Y-56456228D01*
X92280852Y-56421580D01*
X92347079Y-56355353D01*
X92381727Y-56341001D01*
X92399853Y-56341001D01*
X92399855Y-56341001D01*
X92482736Y-56306671D01*
X92482737Y-56306669D01*
X92482739Y-56306669D01*
X92546168Y-56243240D01*
X92546168Y-56243238D01*
X92546170Y-56243237D01*
X92580500Y-56160356D01*
X92580500Y-56070646D01*
X92546170Y-55987765D01*
X92546169Y-55987764D01*
X92546168Y-55987762D01*
X92482739Y-55924333D01*
X92482736Y-55924331D01*
X92399858Y-55890002D01*
X92399856Y-55890001D01*
X92399855Y-55890001D01*
X92310145Y-55890001D01*
X92310143Y-55890001D01*
X92310141Y-55890002D01*
X92227263Y-55924331D01*
X92163830Y-55987764D01*
X92129501Y-56070642D01*
X92129500Y-56070648D01*
X92129500Y-56088773D01*
X92115148Y-56123421D01*
X91963468Y-56275100D01*
X91963467Y-56275101D01*
X91963467Y-56275102D01*
X91963467Y-56275103D01*
X91962709Y-56276934D01*
X91938499Y-56335377D01*
X91938499Y-56406323D01*
X91938500Y-56406332D01*
X91938500Y-58354774D01*
X91924148Y-58389422D01*
X91330421Y-58983149D01*
X91295773Y-58997501D01*
X90633202Y-58997501D01*
X90598554Y-58983149D01*
X90598553Y-58983148D01*
X90585738Y-58970332D01*
X90585736Y-58970331D01*
X90502858Y-58936002D01*
X90502856Y-58936001D01*
X90502855Y-58936001D01*
X90413145Y-58936001D01*
X90413143Y-58936001D01*
X90413141Y-58936002D01*
X90330263Y-58970331D01*
X90266830Y-59033764D01*
X90232501Y-59116642D01*
X90232500Y-59116644D01*
X89950500Y-59116644D01*
X89950500Y-52838644D01*
X93174500Y-52838644D01*
X93174500Y-52838646D01*
X93174500Y-52928356D01*
X93174500Y-52928358D01*
X93174501Y-52928359D01*
X93208830Y-53011237D01*
X93208831Y-53011239D01*
X93221647Y-53024054D01*
X93236000Y-53058701D01*
X93236000Y-55280922D01*
X93235999Y-55280936D01*
X93235999Y-55284879D01*
X93235999Y-55350123D01*
X93245269Y-55372501D01*
X93260967Y-55410400D01*
X93307101Y-55456534D01*
X93307102Y-55456534D01*
X93313993Y-55463425D01*
X93313992Y-55463425D01*
X93313994Y-55463426D01*
X93809671Y-55959103D01*
X93809674Y-55959107D01*
X93809675Y-55959107D01*
X93812466Y-55961898D01*
X93812467Y-55961900D01*
X93858601Y-56008034D01*
X93870589Y-56012999D01*
X93870592Y-56013002D01*
X93870593Y-56013001D01*
X93918878Y-56033002D01*
X93918880Y-56033002D01*
X93989823Y-56033002D01*
X93989831Y-56033001D01*
X96580281Y-56033001D01*
X96614929Y-56047353D01*
X96629281Y-56082001D01*
X96625551Y-56100752D01*
X96599501Y-56163642D01*
X96599500Y-56163644D01*
X96599500Y-56163646D01*
X96599500Y-56253356D01*
X96599500Y-56253358D01*
X96599501Y-56253359D01*
X96633830Y-56336237D01*
X96633832Y-56336240D01*
X96697261Y-56399669D01*
X96697263Y-56399670D01*
X96697264Y-56399671D01*
X96780145Y-56434001D01*
X96780147Y-56434001D01*
X96869853Y-56434001D01*
X96869855Y-56434001D01*
X96952736Y-56399671D01*
X96952737Y-56399669D01*
X96952739Y-56399669D01*
X97016168Y-56336240D01*
X97016168Y-56336238D01*
X97016170Y-56336237D01*
X97050500Y-56253356D01*
X97050500Y-56163646D01*
X97033838Y-56123421D01*
X97024449Y-56100752D01*
X97024449Y-56091005D01*
X97020719Y-56082001D01*
X97024449Y-56072996D01*
X97024449Y-56063249D01*
X97031341Y-56056356D01*
X97035071Y-56047353D01*
X97044075Y-56043623D01*
X97050968Y-56036731D01*
X97069719Y-56033001D01*
X97078833Y-56033001D01*
X97113481Y-56047353D01*
X98093230Y-57027103D01*
X98093233Y-57027107D01*
X98093234Y-57027107D01*
X98096025Y-57029898D01*
X98096026Y-57029900D01*
X98142160Y-57076034D01*
X98202437Y-57101001D01*
X100855281Y-57101001D01*
X100889929Y-57115353D01*
X100904281Y-57150001D01*
X100900551Y-57168752D01*
X100874501Y-57231642D01*
X100874500Y-57231644D01*
X100874500Y-57231646D01*
X100874500Y-57321356D01*
X100874500Y-57321358D01*
X100874501Y-57321359D01*
X100908830Y-57404237D01*
X100908832Y-57404240D01*
X100972261Y-57467669D01*
X100972263Y-57467670D01*
X100972264Y-57467671D01*
X101055145Y-57502001D01*
X101055147Y-57502001D01*
X101144853Y-57502001D01*
X101144855Y-57502001D01*
X101227736Y-57467671D01*
X101227737Y-57467669D01*
X101227739Y-57467669D01*
X101291168Y-57404240D01*
X101291168Y-57404238D01*
X101291170Y-57404237D01*
X101325500Y-57321356D01*
X101325500Y-57231646D01*
X101299449Y-57168752D01*
X101299449Y-57131249D01*
X101325968Y-57104731D01*
X101344719Y-57101001D01*
X101655281Y-57101001D01*
X101689929Y-57115353D01*
X101704281Y-57150001D01*
X101700551Y-57168752D01*
X101674501Y-57231642D01*
X101674500Y-57231644D01*
X101674500Y-57231646D01*
X101674500Y-57321356D01*
X101674500Y-57321358D01*
X101674501Y-57321359D01*
X101708830Y-57404237D01*
X101708832Y-57404240D01*
X101772261Y-57467669D01*
X101772263Y-57467670D01*
X101772264Y-57467671D01*
X101855145Y-57502001D01*
X101855147Y-57502001D01*
X101944853Y-57502001D01*
X101944855Y-57502001D01*
X102027736Y-57467671D01*
X102027737Y-57467669D01*
X102027739Y-57467669D01*
X102065352Y-57430056D01*
X102100000Y-57415704D01*
X102134648Y-57430056D01*
X102172261Y-57467669D01*
X102172263Y-57467670D01*
X102172264Y-57467671D01*
X102255145Y-57502001D01*
X102255147Y-57502001D01*
X102344853Y-57502001D01*
X102344855Y-57502001D01*
X102427736Y-57467671D01*
X102427737Y-57467669D01*
X102427739Y-57467669D01*
X102465352Y-57430056D01*
X102500000Y-57415704D01*
X102534648Y-57430056D01*
X102572261Y-57467669D01*
X102572263Y-57467670D01*
X102572264Y-57467671D01*
X102655145Y-57502001D01*
X102655147Y-57502001D01*
X102744853Y-57502001D01*
X102744855Y-57502001D01*
X102827736Y-57467671D01*
X102827737Y-57467669D01*
X102827739Y-57467669D01*
X102865352Y-57430056D01*
X102900000Y-57415704D01*
X102934648Y-57430056D01*
X102972261Y-57467669D01*
X102972263Y-57467670D01*
X102972264Y-57467671D01*
X103055145Y-57502001D01*
X103055147Y-57502001D01*
X103144853Y-57502001D01*
X103144855Y-57502001D01*
X103227736Y-57467671D01*
X103227737Y-57467669D01*
X103227739Y-57467669D01*
X103265352Y-57430056D01*
X103300000Y-57415704D01*
X103334648Y-57430056D01*
X103372261Y-57467669D01*
X103372263Y-57467670D01*
X103372264Y-57467671D01*
X103455145Y-57502001D01*
X103455147Y-57502001D01*
X103544853Y-57502001D01*
X103544855Y-57502001D01*
X103627736Y-57467671D01*
X103627737Y-57467669D01*
X103627739Y-57467669D01*
X103691168Y-57404240D01*
X103691168Y-57404238D01*
X103691170Y-57404237D01*
X103725500Y-57321356D01*
X103725500Y-57231646D01*
X103691170Y-57148765D01*
X103691169Y-57148764D01*
X103691168Y-57148762D01*
X103627739Y-57085333D01*
X103627736Y-57085331D01*
X103544858Y-57051002D01*
X103544856Y-57051001D01*
X103544855Y-57051001D01*
X103455145Y-57051001D01*
X103455143Y-57051001D01*
X103455141Y-57051002D01*
X103372263Y-57085331D01*
X103347648Y-57109946D01*
X103313000Y-57124298D01*
X103278352Y-57109946D01*
X103264000Y-57075298D01*
X103264000Y-56913644D01*
X106474500Y-56913644D01*
X106474500Y-56913646D01*
X106474500Y-57003356D01*
X106474500Y-57003358D01*
X106474501Y-57003359D01*
X106508830Y-57086237D01*
X106508832Y-57086240D01*
X106572261Y-57149669D01*
X106572263Y-57149670D01*
X106572264Y-57149671D01*
X106655145Y-57184001D01*
X106655147Y-57184001D01*
X106744853Y-57184001D01*
X106744855Y-57184001D01*
X106827736Y-57149671D01*
X106827737Y-57149669D01*
X106827739Y-57149669D01*
X106891168Y-57086240D01*
X106891168Y-57086238D01*
X106891170Y-57086237D01*
X106925500Y-57003356D01*
X106925500Y-56913646D01*
X106925499Y-56913644D01*
X108474500Y-56913644D01*
X108474500Y-56913646D01*
X108474500Y-57003356D01*
X108474500Y-57003358D01*
X108474501Y-57003359D01*
X108508830Y-57086237D01*
X108508832Y-57086240D01*
X108572261Y-57149669D01*
X108572263Y-57149670D01*
X108572264Y-57149671D01*
X108655145Y-57184001D01*
X108655147Y-57184001D01*
X108744853Y-57184001D01*
X108744855Y-57184001D01*
X108827736Y-57149671D01*
X108827737Y-57149669D01*
X108827739Y-57149669D01*
X108891168Y-57086240D01*
X108891168Y-57086238D01*
X108891170Y-57086237D01*
X108925500Y-57003356D01*
X108925500Y-56913646D01*
X108891170Y-56830765D01*
X108891169Y-56830764D01*
X108891168Y-56830762D01*
X108827739Y-56767333D01*
X108827736Y-56767331D01*
X108744858Y-56733002D01*
X108744856Y-56733001D01*
X108744855Y-56733001D01*
X108655145Y-56733001D01*
X108655143Y-56733001D01*
X108655141Y-56733002D01*
X108572263Y-56767331D01*
X108508830Y-56830764D01*
X108474501Y-56913642D01*
X108474500Y-56913644D01*
X106925499Y-56913644D01*
X106891170Y-56830765D01*
X106891169Y-56830764D01*
X106891168Y-56830762D01*
X106827739Y-56767333D01*
X106827736Y-56767331D01*
X106744858Y-56733002D01*
X106744856Y-56733001D01*
X106744855Y-56733001D01*
X106655145Y-56733001D01*
X106655143Y-56733001D01*
X106655141Y-56733002D01*
X106572263Y-56767331D01*
X106508830Y-56830764D01*
X106474501Y-56913642D01*
X106474500Y-56913644D01*
X103264000Y-56913644D01*
X103264000Y-56615752D01*
X103256687Y-56598097D01*
X103239033Y-56555476D01*
X103192899Y-56509342D01*
X103192897Y-56509341D01*
X103190106Y-56506550D01*
X103190106Y-56506549D01*
X103190102Y-56506546D01*
X103181205Y-56497649D01*
X103166853Y-56463001D01*
X103181205Y-56428353D01*
X103215853Y-56414001D01*
X103244853Y-56414001D01*
X103244855Y-56414001D01*
X103327736Y-56379671D01*
X103327737Y-56379669D01*
X103327739Y-56379669D01*
X103391168Y-56316240D01*
X103391168Y-56316238D01*
X103391170Y-56316237D01*
X103425500Y-56233356D01*
X103425500Y-56143646D01*
X103391170Y-56060765D01*
X103391169Y-56060764D01*
X103391168Y-56060762D01*
X103327739Y-55997333D01*
X103327736Y-55997331D01*
X103244858Y-55963002D01*
X103244856Y-55963001D01*
X103244855Y-55963001D01*
X103155145Y-55963001D01*
X103155143Y-55963001D01*
X103155141Y-55963002D01*
X103072263Y-55997331D01*
X103008830Y-56060764D01*
X102974501Y-56143642D01*
X102974500Y-56143648D01*
X102974500Y-56172648D01*
X102960148Y-56207296D01*
X102925500Y-56221648D01*
X102890852Y-56207296D01*
X102466551Y-55782995D01*
X102466550Y-55782993D01*
X102466550Y-55782994D01*
X102459659Y-55776102D01*
X102413525Y-55729968D01*
X102413522Y-55729966D01*
X102395871Y-55722656D01*
X102395869Y-55722654D01*
X102395869Y-55722655D01*
X102353249Y-55705000D01*
X102353248Y-55705000D01*
X102288004Y-55705000D01*
X102282303Y-55705000D01*
X102282295Y-55705001D01*
X101136020Y-55705001D01*
X101101372Y-55690649D01*
X101087020Y-55656001D01*
X101090750Y-55637249D01*
X101091168Y-55636238D01*
X101091170Y-55636237D01*
X101125500Y-55553356D01*
X101125500Y-55463646D01*
X101091170Y-55380765D01*
X101091169Y-55380764D01*
X101091168Y-55380762D01*
X101053555Y-55343149D01*
X101039203Y-55308501D01*
X101053555Y-55273853D01*
X101091168Y-55236240D01*
X101091168Y-55236238D01*
X101091170Y-55236237D01*
X101125500Y-55153356D01*
X101125500Y-55063646D01*
X101113487Y-55034644D01*
X113274500Y-55034644D01*
X113274500Y-55034646D01*
X113274500Y-55124356D01*
X113274500Y-55124358D01*
X113274501Y-55124359D01*
X113308830Y-55207237D01*
X113308832Y-55207240D01*
X113372261Y-55270669D01*
X113372263Y-55270670D01*
X113372264Y-55270671D01*
X113455145Y-55305001D01*
X113455147Y-55305001D01*
X113544853Y-55305001D01*
X113544855Y-55305001D01*
X113627736Y-55270671D01*
X113627737Y-55270669D01*
X113627739Y-55270669D01*
X113691168Y-55207240D01*
X113691168Y-55207238D01*
X113691170Y-55207237D01*
X113725500Y-55124356D01*
X113725500Y-55034646D01*
X113691170Y-54951765D01*
X113691169Y-54951764D01*
X113691168Y-54951762D01*
X113627739Y-54888333D01*
X113627736Y-54888331D01*
X113544858Y-54854002D01*
X113544856Y-54854001D01*
X113544855Y-54854001D01*
X113455145Y-54854001D01*
X113455143Y-54854001D01*
X113455141Y-54854002D01*
X113372263Y-54888331D01*
X113308830Y-54951764D01*
X113274501Y-55034642D01*
X113274500Y-55034644D01*
X101113487Y-55034644D01*
X101091170Y-54980765D01*
X101091169Y-54980764D01*
X101091168Y-54980762D01*
X101027739Y-54917333D01*
X101027736Y-54917331D01*
X100944858Y-54883002D01*
X100944856Y-54883001D01*
X100944855Y-54883001D01*
X100855145Y-54883001D01*
X100855143Y-54883001D01*
X100855141Y-54883002D01*
X100772263Y-54917331D01*
X100734648Y-54954946D01*
X100700000Y-54969298D01*
X100665352Y-54954946D01*
X100627739Y-54917333D01*
X100627736Y-54917331D01*
X100544858Y-54883002D01*
X100544856Y-54883001D01*
X100544855Y-54883001D01*
X100455145Y-54883001D01*
X100455143Y-54883001D01*
X100455141Y-54883002D01*
X100372263Y-54917331D01*
X100347648Y-54941946D01*
X100313000Y-54956298D01*
X100278352Y-54941946D01*
X100264000Y-54907298D01*
X100264000Y-54163644D01*
X100964500Y-54163644D01*
X100964500Y-54163646D01*
X100964500Y-54253356D01*
X100964500Y-54253358D01*
X100964501Y-54253359D01*
X100998830Y-54336237D01*
X100998832Y-54336240D01*
X101062261Y-54399669D01*
X101062263Y-54399670D01*
X101062264Y-54399671D01*
X101145145Y-54434001D01*
X101145147Y-54434001D01*
X101234853Y-54434001D01*
X101234855Y-54434001D01*
X101317736Y-54399671D01*
X101317737Y-54399669D01*
X101317739Y-54399669D01*
X101381168Y-54336240D01*
X101381168Y-54336238D01*
X101381170Y-54336237D01*
X101415500Y-54253356D01*
X101415500Y-54163646D01*
X101381170Y-54080765D01*
X101381169Y-54080764D01*
X101381168Y-54080762D01*
X101317739Y-54017333D01*
X101317736Y-54017331D01*
X101234858Y-53983002D01*
X101234856Y-53983001D01*
X101234855Y-53983001D01*
X101145145Y-53983001D01*
X101145143Y-53983001D01*
X101145141Y-53983002D01*
X101062263Y-54017331D01*
X100998830Y-54080764D01*
X100964501Y-54163642D01*
X100964500Y-54163644D01*
X100264000Y-54163644D01*
X100264000Y-53796832D01*
X100264001Y-53796823D01*
X100264001Y-53725880D01*
X100249374Y-53690570D01*
X100249373Y-53690567D01*
X100247031Y-53684913D01*
X100239033Y-53665602D01*
X100192899Y-53619468D01*
X100190109Y-53616678D01*
X100190102Y-53616672D01*
X99895925Y-53322495D01*
X99895924Y-53322493D01*
X99895924Y-53322494D01*
X99889033Y-53315602D01*
X99842899Y-53269468D01*
X99842896Y-53269466D01*
X99824953Y-53262035D01*
X99824951Y-53262033D01*
X99824951Y-53262034D01*
X99782623Y-53244500D01*
X99782622Y-53244500D01*
X99717378Y-53244500D01*
X99711677Y-53244500D01*
X99711669Y-53244501D01*
X97575202Y-53244501D01*
X97540554Y-53230149D01*
X97540553Y-53230148D01*
X97527738Y-53217332D01*
X97527736Y-53217331D01*
X97444858Y-53183002D01*
X97444856Y-53183001D01*
X97444855Y-53183001D01*
X97355145Y-53183001D01*
X97355143Y-53183001D01*
X97355141Y-53183002D01*
X97272263Y-53217331D01*
X97208830Y-53280764D01*
X97174501Y-53363642D01*
X97174500Y-53363644D01*
X97174500Y-53363646D01*
X97174500Y-53453356D01*
X97174500Y-53453358D01*
X97174501Y-53453359D01*
X97208830Y-53536237D01*
X97208832Y-53536240D01*
X97272261Y-53599669D01*
X97272263Y-53599670D01*
X97272264Y-53599671D01*
X97355145Y-53634001D01*
X97355147Y-53634001D01*
X97444853Y-53634001D01*
X97444855Y-53634001D01*
X97527736Y-53599671D01*
X97540553Y-53586854D01*
X97575200Y-53572501D01*
X99661773Y-53572501D01*
X99696421Y-53586853D01*
X99921648Y-53812080D01*
X99936000Y-53846728D01*
X99936000Y-54933298D01*
X99921648Y-54967946D01*
X99908830Y-54980764D01*
X99874501Y-55063642D01*
X99874500Y-55063644D01*
X99874500Y-55063646D01*
X99874500Y-55153356D01*
X99874500Y-55153358D01*
X99874501Y-55153359D01*
X99908830Y-55236237D01*
X99908832Y-55236240D01*
X99946445Y-55273853D01*
X99960797Y-55308501D01*
X99946445Y-55343149D01*
X99908830Y-55380764D01*
X99874501Y-55463642D01*
X99874500Y-55463644D01*
X99874500Y-55463646D01*
X99874500Y-55553356D01*
X99908830Y-55636237D01*
X99908831Y-55636238D01*
X99909250Y-55637249D01*
X99909250Y-55674752D01*
X99882732Y-55701271D01*
X99863980Y-55705001D01*
X97900167Y-55705001D01*
X97865519Y-55690649D01*
X97578352Y-55403481D01*
X97564000Y-55368833D01*
X97564000Y-54708703D01*
X97578352Y-54674055D01*
X97591168Y-54661239D01*
X97591170Y-54661237D01*
X97625500Y-54578356D01*
X97625500Y-54488646D01*
X97591170Y-54405765D01*
X97591169Y-54405764D01*
X97591168Y-54405762D01*
X97527739Y-54342333D01*
X97527736Y-54342331D01*
X97444858Y-54308002D01*
X97444856Y-54308001D01*
X97444855Y-54308001D01*
X97355145Y-54308001D01*
X97355143Y-54308001D01*
X97355141Y-54308002D01*
X97272263Y-54342331D01*
X97208830Y-54405764D01*
X97174501Y-54488642D01*
X97174500Y-54488644D01*
X97174500Y-54488646D01*
X97174500Y-54578356D01*
X97174500Y-54578358D01*
X97174501Y-54578359D01*
X97208830Y-54661237D01*
X97208831Y-54661239D01*
X97221647Y-54674054D01*
X97236000Y-54708701D01*
X97236000Y-55420488D01*
X97235999Y-55428008D01*
X97227377Y-55448813D01*
X97221647Y-55462649D01*
X97221644Y-55462649D01*
X97221643Y-55462654D01*
X97203086Y-55470337D01*
X97186999Y-55477001D01*
X95920727Y-55477001D01*
X95886079Y-55462649D01*
X95578352Y-55154922D01*
X95564000Y-55120274D01*
X95564000Y-53058703D01*
X95578352Y-53024055D01*
X95591168Y-53011239D01*
X95591170Y-53011237D01*
X95625500Y-52928356D01*
X95625500Y-52838646D01*
X95605617Y-52790644D01*
X101573500Y-52790644D01*
X101573500Y-52790646D01*
X101573500Y-52880356D01*
X101573500Y-52880358D01*
X101573501Y-52880359D01*
X101607830Y-52963237D01*
X101607832Y-52963240D01*
X101671261Y-53026669D01*
X101671263Y-53026670D01*
X101671264Y-53026671D01*
X101754145Y-53061001D01*
X101754147Y-53061001D01*
X101843853Y-53061001D01*
X101843855Y-53061001D01*
X101926736Y-53026671D01*
X101926737Y-53026669D01*
X101926739Y-53026669D01*
X101990168Y-52963240D01*
X101990168Y-52963238D01*
X101990170Y-52963237D01*
X102024500Y-52880356D01*
X102024500Y-52790646D01*
X102002960Y-52738644D01*
X104274500Y-52738644D01*
X104274500Y-52738646D01*
X104274500Y-52828356D01*
X104274500Y-52828358D01*
X104274501Y-52828359D01*
X104308830Y-52911237D01*
X104308832Y-52911240D01*
X104372261Y-52974669D01*
X104372263Y-52974670D01*
X104372264Y-52974671D01*
X104455145Y-53009001D01*
X104473273Y-53009001D01*
X104507921Y-53023353D01*
X105609671Y-54125103D01*
X105609674Y-54125107D01*
X105609675Y-54125107D01*
X105612466Y-54127898D01*
X105612467Y-54127900D01*
X105658601Y-54174034D01*
X105718878Y-54199001D01*
X113398073Y-54199001D01*
X113432721Y-54213353D01*
X114004148Y-54784780D01*
X114018500Y-54819428D01*
X114018500Y-57254900D01*
X114004148Y-57289548D01*
X113969500Y-57303900D01*
X113934852Y-57289548D01*
X113615799Y-56970495D01*
X113615798Y-56970493D01*
X113615798Y-56970494D01*
X113608907Y-56963602D01*
X113562773Y-56917468D01*
X113562770Y-56917466D01*
X113545119Y-56910156D01*
X113545117Y-56910154D01*
X113545117Y-56910155D01*
X113502497Y-56892500D01*
X113502496Y-56892500D01*
X113437252Y-56892500D01*
X113431551Y-56892500D01*
X113431543Y-56892501D01*
X112525202Y-56892501D01*
X112490554Y-56878149D01*
X112490553Y-56878148D01*
X112477738Y-56865332D01*
X112477736Y-56865331D01*
X112394858Y-56831002D01*
X112394856Y-56831001D01*
X112394855Y-56831001D01*
X112305145Y-56831001D01*
X112305143Y-56831001D01*
X112305141Y-56831002D01*
X112222263Y-56865331D01*
X112158830Y-56928764D01*
X112124501Y-57011642D01*
X112124500Y-57011644D01*
X112124500Y-57011646D01*
X112124500Y-57101356D01*
X112124500Y-57101358D01*
X112124501Y-57101359D01*
X112158830Y-57184237D01*
X112158832Y-57184240D01*
X112196445Y-57221853D01*
X112210797Y-57256501D01*
X112196445Y-57291149D01*
X112158830Y-57328764D01*
X112124501Y-57411642D01*
X112124500Y-57411644D01*
X112124500Y-57411646D01*
X112124500Y-57501356D01*
X112124500Y-57501358D01*
X112124501Y-57501359D01*
X112158830Y-57584237D01*
X112158832Y-57584240D01*
X112196445Y-57621853D01*
X112210797Y-57656501D01*
X112196445Y-57691149D01*
X112158830Y-57728764D01*
X112124501Y-57811642D01*
X112124500Y-57811644D01*
X112124500Y-57811646D01*
X112124500Y-57901356D01*
X112124500Y-57901358D01*
X112124501Y-57901359D01*
X112158830Y-57984237D01*
X112158832Y-57984240D01*
X112222261Y-58047669D01*
X112222263Y-58047670D01*
X112222264Y-58047671D01*
X112305145Y-58082001D01*
X112305147Y-58082001D01*
X112394853Y-58082001D01*
X112394855Y-58082001D01*
X112477736Y-58047671D01*
X112490553Y-58034854D01*
X112525200Y-58020501D01*
X113536767Y-58020501D01*
X113571415Y-58034853D01*
X113719915Y-58183353D01*
X113734267Y-58218001D01*
X113719915Y-58252649D01*
X113685267Y-58267001D01*
X113638145Y-58267001D01*
X113638143Y-58267001D01*
X113638141Y-58267002D01*
X113555263Y-58301331D01*
X113491830Y-58364764D01*
X113457501Y-58447642D01*
X113457500Y-58447644D01*
X113457500Y-58447646D01*
X113457500Y-58537356D01*
X113457500Y-58537358D01*
X113457501Y-58537359D01*
X113491830Y-58620237D01*
X113491832Y-58620240D01*
X113555261Y-58683669D01*
X113555263Y-58683670D01*
X113555264Y-58683671D01*
X113638145Y-58718001D01*
X113638147Y-58718001D01*
X113727853Y-58718001D01*
X113727855Y-58718001D01*
X113810736Y-58683671D01*
X113810737Y-58683669D01*
X113810739Y-58683669D01*
X113874168Y-58620240D01*
X113874168Y-58620238D01*
X113874170Y-58620237D01*
X113908500Y-58537356D01*
X113908500Y-58490234D01*
X113922852Y-58455586D01*
X113957500Y-58441234D01*
X113992148Y-58455586D01*
X114278665Y-58742103D01*
X114278668Y-58742107D01*
X114281461Y-58744900D01*
X114327595Y-58791034D01*
X114345246Y-58798344D01*
X114345249Y-58798347D01*
X114345250Y-58798346D01*
X114387872Y-58816002D01*
X114387873Y-58816002D01*
X114458817Y-58816002D01*
X114458825Y-58816001D01*
X115041178Y-58816001D01*
X115041186Y-58816002D01*
X115046887Y-58816002D01*
X115112129Y-58816002D01*
X115112130Y-58816002D01*
X115154751Y-58798346D01*
X115172407Y-58791034D01*
X115218541Y-58744900D01*
X115218541Y-58744899D01*
X115225430Y-58738010D01*
X115225432Y-58738006D01*
X115638398Y-58325040D01*
X115638400Y-58325040D01*
X115684534Y-58278906D01*
X115709501Y-58218629D01*
X115709500Y-57174879D01*
X115709500Y-54520332D01*
X115709501Y-54520323D01*
X115709501Y-54449382D01*
X115709500Y-54449378D01*
X115691435Y-54405765D01*
X115688910Y-54399669D01*
X115684533Y-54389102D01*
X115638399Y-54342968D01*
X115638397Y-54342967D01*
X115635606Y-54340176D01*
X115635606Y-54340175D01*
X115635602Y-54340172D01*
X113992925Y-52697495D01*
X113992924Y-52697493D01*
X113992924Y-52697494D01*
X113986033Y-52690602D01*
X113939899Y-52644468D01*
X113939896Y-52644466D01*
X113922245Y-52637156D01*
X113922243Y-52637154D01*
X113922243Y-52637155D01*
X113879623Y-52619500D01*
X113879622Y-52619500D01*
X113814378Y-52619500D01*
X113808677Y-52619500D01*
X113808669Y-52619501D01*
X112175202Y-52619501D01*
X112140554Y-52605149D01*
X112140553Y-52605148D01*
X112127738Y-52592332D01*
X112127736Y-52592331D01*
X112044858Y-52558002D01*
X112044856Y-52558001D01*
X112044855Y-52558001D01*
X111955145Y-52558001D01*
X111955143Y-52558001D01*
X111955141Y-52558002D01*
X111872263Y-52592331D01*
X111808830Y-52655764D01*
X111774501Y-52738642D01*
X111774500Y-52738644D01*
X111774500Y-52738646D01*
X111774500Y-52828356D01*
X111774500Y-52828358D01*
X111774501Y-52828359D01*
X111800551Y-52891250D01*
X111800551Y-52928753D01*
X111774032Y-52955271D01*
X111755281Y-52959001D01*
X110927727Y-52959001D01*
X110893079Y-52944649D01*
X110739852Y-52791422D01*
X110725500Y-52756774D01*
X110725500Y-52738648D01*
X110725500Y-52738646D01*
X110691170Y-52655765D01*
X110691169Y-52655764D01*
X110691168Y-52655762D01*
X110627739Y-52592333D01*
X110627736Y-52592331D01*
X110544858Y-52558002D01*
X110544856Y-52558001D01*
X110544855Y-52558001D01*
X110455145Y-52558001D01*
X110455143Y-52558001D01*
X110455141Y-52558002D01*
X110372263Y-52592331D01*
X110308830Y-52655764D01*
X110274501Y-52738642D01*
X110274500Y-52738644D01*
X110274500Y-52738646D01*
X110274500Y-52828356D01*
X110274500Y-52828358D01*
X110274501Y-52828359D01*
X110308830Y-52911237D01*
X110308832Y-52911240D01*
X110372261Y-52974669D01*
X110372263Y-52974670D01*
X110372264Y-52974671D01*
X110455145Y-53009001D01*
X110473273Y-53009001D01*
X110507921Y-53023353D01*
X110587921Y-53103353D01*
X110602273Y-53138001D01*
X110587921Y-53172649D01*
X110553273Y-53187001D01*
X109655727Y-53187001D01*
X109621079Y-53172649D01*
X109239852Y-52791422D01*
X109225500Y-52756774D01*
X109225500Y-52738648D01*
X109225500Y-52738646D01*
X109191170Y-52655765D01*
X109191169Y-52655764D01*
X109191168Y-52655762D01*
X109127739Y-52592333D01*
X109127736Y-52592331D01*
X109044858Y-52558002D01*
X109044856Y-52558001D01*
X109044855Y-52558001D01*
X108955145Y-52558001D01*
X108955143Y-52558001D01*
X108955141Y-52558002D01*
X108872263Y-52592331D01*
X108808830Y-52655764D01*
X108774501Y-52738642D01*
X108774500Y-52738644D01*
X108774500Y-52738646D01*
X108774500Y-52828356D01*
X108774500Y-52828358D01*
X108774501Y-52828359D01*
X108808830Y-52911237D01*
X108808832Y-52911240D01*
X108872261Y-52974669D01*
X108872263Y-52974670D01*
X108872264Y-52974671D01*
X108955145Y-53009001D01*
X108973273Y-53009001D01*
X109007921Y-53023353D01*
X109315921Y-53331353D01*
X109330273Y-53366001D01*
X109315921Y-53400649D01*
X109281273Y-53415001D01*
X108383727Y-53415001D01*
X108349079Y-53400649D01*
X107739852Y-52791422D01*
X107725500Y-52756774D01*
X107725500Y-52738648D01*
X107725500Y-52738646D01*
X107691170Y-52655765D01*
X107691169Y-52655764D01*
X107691168Y-52655762D01*
X107627739Y-52592333D01*
X107627736Y-52592331D01*
X107544858Y-52558002D01*
X107544856Y-52558001D01*
X107544855Y-52558001D01*
X107455145Y-52558001D01*
X107455143Y-52558001D01*
X107455141Y-52558002D01*
X107372263Y-52592331D01*
X107308830Y-52655764D01*
X107274501Y-52738642D01*
X107274500Y-52738644D01*
X107274500Y-52738646D01*
X107274500Y-52828356D01*
X107274500Y-52828358D01*
X107274501Y-52828359D01*
X107308830Y-52911237D01*
X107308832Y-52911240D01*
X107372261Y-52974669D01*
X107372263Y-52974670D01*
X107372264Y-52974671D01*
X107455145Y-53009001D01*
X107473273Y-53009001D01*
X107507921Y-53023353D01*
X108043921Y-53559353D01*
X108058273Y-53594001D01*
X108043921Y-53628649D01*
X108009273Y-53643001D01*
X107111727Y-53643001D01*
X107077079Y-53628649D01*
X106239852Y-52791422D01*
X106225500Y-52756774D01*
X106225500Y-52738648D01*
X106225500Y-52738646D01*
X106191170Y-52655765D01*
X106191169Y-52655764D01*
X106191168Y-52655762D01*
X106127739Y-52592333D01*
X106127736Y-52592331D01*
X106044858Y-52558002D01*
X106044856Y-52558001D01*
X106044855Y-52558001D01*
X105955145Y-52558001D01*
X105955143Y-52558001D01*
X105955141Y-52558002D01*
X105872263Y-52592331D01*
X105808830Y-52655764D01*
X105774501Y-52738642D01*
X105774500Y-52738644D01*
X105774500Y-52738646D01*
X105774500Y-52828356D01*
X105774500Y-52828358D01*
X105774501Y-52828359D01*
X105808830Y-52911237D01*
X105808832Y-52911240D01*
X105872261Y-52974669D01*
X105872263Y-52974670D01*
X105872264Y-52974671D01*
X105955145Y-53009001D01*
X105973273Y-53009001D01*
X106007921Y-53023353D01*
X106771921Y-53787353D01*
X106786273Y-53822001D01*
X106771921Y-53856649D01*
X106737273Y-53871001D01*
X105839727Y-53871001D01*
X105805079Y-53856649D01*
X104739852Y-52791422D01*
X104725500Y-52756774D01*
X104725500Y-52738648D01*
X104725500Y-52738646D01*
X104691170Y-52655765D01*
X104691169Y-52655764D01*
X104691168Y-52655762D01*
X104627739Y-52592333D01*
X104627736Y-52592331D01*
X104544858Y-52558002D01*
X104544856Y-52558001D01*
X104544855Y-52558001D01*
X104455145Y-52558001D01*
X104455143Y-52558001D01*
X104455141Y-52558002D01*
X104372263Y-52592331D01*
X104308830Y-52655764D01*
X104274501Y-52738642D01*
X104274500Y-52738644D01*
X102002960Y-52738644D01*
X101990170Y-52707765D01*
X101990169Y-52707764D01*
X101990168Y-52707762D01*
X101926739Y-52644333D01*
X101926736Y-52644331D01*
X101843858Y-52610002D01*
X101843856Y-52610001D01*
X101843855Y-52610001D01*
X101754145Y-52610001D01*
X101754143Y-52610001D01*
X101754141Y-52610002D01*
X101671263Y-52644331D01*
X101607830Y-52707764D01*
X101573501Y-52790642D01*
X101573500Y-52790644D01*
X95605617Y-52790644D01*
X95591170Y-52755765D01*
X95591169Y-52755764D01*
X95591168Y-52755762D01*
X95527739Y-52692333D01*
X95527736Y-52692331D01*
X95444858Y-52658002D01*
X95444856Y-52658001D01*
X95444855Y-52658001D01*
X95355145Y-52658001D01*
X95355143Y-52658001D01*
X95355141Y-52658002D01*
X95272263Y-52692331D01*
X95208830Y-52755764D01*
X95174501Y-52838642D01*
X95174500Y-52838644D01*
X95174500Y-52838646D01*
X95174500Y-52928356D01*
X95174500Y-52928358D01*
X95174501Y-52928359D01*
X95208830Y-53011237D01*
X95208831Y-53011239D01*
X95221647Y-53024054D01*
X95236000Y-53058701D01*
X95236000Y-55171922D01*
X95235999Y-55171936D01*
X95235999Y-55241124D01*
X95248237Y-55270669D01*
X95248239Y-55270671D01*
X95260967Y-55301400D01*
X95307101Y-55347534D01*
X95307102Y-55347534D01*
X95313993Y-55354425D01*
X95313992Y-55354425D01*
X95313994Y-55354426D01*
X95580921Y-55621353D01*
X95595273Y-55656001D01*
X95580921Y-55690649D01*
X95546273Y-55705001D01*
X94039727Y-55705001D01*
X94005079Y-55690649D01*
X93578352Y-55263922D01*
X93564000Y-55229274D01*
X93564000Y-53058703D01*
X93578352Y-53024055D01*
X93591168Y-53011239D01*
X93591170Y-53011237D01*
X93625500Y-52928356D01*
X93625500Y-52838646D01*
X93591170Y-52755765D01*
X93591169Y-52755764D01*
X93591168Y-52755762D01*
X93527739Y-52692333D01*
X93527736Y-52692331D01*
X93444858Y-52658002D01*
X93444856Y-52658001D01*
X93444855Y-52658001D01*
X93355145Y-52658001D01*
X93355143Y-52658001D01*
X93355141Y-52658002D01*
X93272263Y-52692331D01*
X93208830Y-52755764D01*
X93174501Y-52838642D01*
X93174500Y-52838644D01*
X89950500Y-52838644D01*
X89950500Y-52388644D01*
X100756500Y-52388644D01*
X100756500Y-52388646D01*
X100756500Y-52478356D01*
X100756500Y-52478358D01*
X100756501Y-52478359D01*
X100790830Y-52561237D01*
X100790832Y-52561240D01*
X100854261Y-52624669D01*
X100854263Y-52624670D01*
X100854264Y-52624671D01*
X100937145Y-52659001D01*
X100937147Y-52659001D01*
X101026853Y-52659001D01*
X101026855Y-52659001D01*
X101109736Y-52624671D01*
X101109737Y-52624669D01*
X101109739Y-52624669D01*
X101173168Y-52561240D01*
X101173168Y-52561238D01*
X101173170Y-52561237D01*
X101207500Y-52478356D01*
X101207500Y-52388646D01*
X101173170Y-52305765D01*
X101173169Y-52305764D01*
X101173168Y-52305762D01*
X101109739Y-52242333D01*
X101109736Y-52242331D01*
X101026858Y-52208002D01*
X101026856Y-52208001D01*
X101026855Y-52208001D01*
X100937145Y-52208001D01*
X100937143Y-52208001D01*
X100937141Y-52208002D01*
X100854263Y-52242331D01*
X100790830Y-52305764D01*
X100756501Y-52388642D01*
X100756500Y-52388644D01*
X89950500Y-52388644D01*
X89950500Y-51908001D01*
X89964852Y-51873353D01*
X89999500Y-51859001D01*
X115900500Y-51859001D01*
X115935148Y-51873353D01*
G37*
%TD.AperFunction*%
%TD*%
M02*
