%TF.GenerationSoftware,KiCad,Pcbnew,9.0.1-9.0.1-0~ubuntu24.04.1*%
%TF.CreationDate,2025-05-10T10:43:36+02:00*%
%TF.ProjectId,ILM139C,494c4d31-3339-4432-9e6b-696361645f70,V0.1.0*%
%TF.SameCoordinates,Original*%
%TF.FileFunction,Legend,Bot*%
%TF.FilePolarity,Positive*%
%FSLAX46Y46*%
G04 Gerber Fmt 4.6, Leading zero omitted, Abs format (unit mm)*
G04 Created by KiCad (PCBNEW 9.0.1-9.0.1-0~ubuntu24.04.1) date 2025-05-10 10:43:36*
%MOMM*%
%LPD*%
G01*
G04 APERTURE LIST*
%ADD10C,0.100000*%
%ADD11C,0.200000*%
%ADD12C,0.120000*%
%ADD13C,0.250000*%
%ADD14C,0.000000*%
G04 APERTURE END LIST*
D10*
X90050000Y-51958501D02*
X90650000Y-51958501D01*
X90650000Y-51958501D02*
X90050000Y-52558501D01*
X109750000Y-67458501D02*
X109750000Y-66858501D01*
X90050000Y-52558501D02*
X90050000Y-51958501D01*
X95850000Y-54658501D02*
X96450000Y-54658501D01*
X96150000Y-54958501D02*
X96150000Y-54358501D01*
X109450000Y-67158501D02*
X110050000Y-67158501D01*
D11*
G36*
X106565161Y-54356973D02*
G01*
X106531791Y-54355193D01*
X106500555Y-54350338D01*
X106472728Y-54342855D01*
X106446909Y-54332628D01*
X106423804Y-54320110D01*
X106402642Y-54305066D01*
X106366531Y-54267876D01*
X106338014Y-54220331D01*
X106317352Y-54160987D01*
X106305605Y-54088014D01*
X106303528Y-54036624D01*
X106305080Y-53993772D01*
X106309694Y-53953816D01*
X106316900Y-53918432D01*
X106326784Y-53885828D01*
X106338667Y-53857357D01*
X106352891Y-53831541D01*
X106368723Y-53809285D01*
X106386628Y-53789587D01*
X106406045Y-53772892D01*
X106427353Y-53758729D01*
X106475203Y-53738272D01*
X106530919Y-53728342D01*
X106554023Y-53727510D01*
X106586634Y-53729102D01*
X106616228Y-53733987D01*
X106639932Y-53741159D01*
X106661518Y-53751136D01*
X106679987Y-53763189D01*
X106696761Y-53777923D01*
X106725689Y-53816024D01*
X106750107Y-53869674D01*
X106770570Y-53946106D01*
X106772718Y-53957099D01*
X106794993Y-54071355D01*
X106805330Y-54117222D01*
X106817535Y-54154096D01*
X106828416Y-54176555D01*
X106840900Y-54194389D01*
X106853096Y-54206236D01*
X106866786Y-54215023D01*
X106898160Y-54223979D01*
X106913304Y-54224789D01*
X106931232Y-54223243D01*
X106947760Y-54218679D01*
X106975885Y-54201343D01*
X106998363Y-54172702D01*
X107014528Y-54131229D01*
X107022315Y-54075280D01*
X107022628Y-54060169D01*
X107021074Y-54026097D01*
X107016455Y-53995363D01*
X107009492Y-53969913D01*
X106999996Y-53947417D01*
X106988870Y-53929097D01*
X106975612Y-53913431D01*
X106960890Y-53900903D01*
X106944267Y-53890892D01*
X106905367Y-53878531D01*
X106887610Y-53876499D01*
X106887610Y-53712954D01*
X106921844Y-53716500D01*
X106953882Y-53723012D01*
X106982551Y-53732021D01*
X107009141Y-53743695D01*
X107033006Y-53757586D01*
X107054852Y-53773938D01*
X107092133Y-53813556D01*
X107121497Y-53863193D01*
X107142704Y-53924117D01*
X107154782Y-53997930D01*
X107157010Y-54051181D01*
X107155458Y-54095988D01*
X107150846Y-54137937D01*
X107143612Y-54175397D01*
X107133685Y-54210067D01*
X107121719Y-54240557D01*
X107107393Y-54268351D01*
X107091460Y-54292445D01*
X107073443Y-54313928D01*
X107053998Y-54332231D01*
X107032674Y-54347960D01*
X107009817Y-54360910D01*
X106985208Y-54371242D01*
X106930554Y-54383877D01*
X106893228Y-54386087D01*
X106860211Y-54384508D01*
X106830045Y-54379712D01*
X106805160Y-54372536D01*
X106782445Y-54362590D01*
X106762867Y-54350557D01*
X106745106Y-54335923D01*
X106714831Y-54298694D01*
X106690061Y-54247815D01*
X106670535Y-54178092D01*
X106668915Y-54169932D01*
X106644393Y-54042242D01*
X106631629Y-53985905D01*
X106617647Y-53944127D01*
X106607245Y-53923830D01*
X106595456Y-53908556D01*
X106584200Y-53899236D01*
X106571513Y-53892847D01*
X106538392Y-53887685D01*
X106520931Y-53889229D01*
X106504862Y-53893784D01*
X106477718Y-53911060D01*
X106456653Y-53939397D01*
X106442651Y-53979908D01*
X106437959Y-54028808D01*
X106439514Y-54061633D01*
X106444144Y-54091114D01*
X106451083Y-54115260D01*
X106460548Y-54136488D01*
X106471615Y-54153619D01*
X106484810Y-54168146D01*
X106499528Y-54179661D01*
X106516167Y-54188694D01*
X106555537Y-54199250D01*
X106565161Y-54200169D01*
X106565161Y-54356973D01*
G37*
G36*
X107132000Y-54828948D02*
G01*
X107130418Y-54876433D01*
X107125597Y-54919326D01*
X107118525Y-54953784D01*
X107108741Y-54985134D01*
X107097148Y-55011691D01*
X107083081Y-55035956D01*
X107048217Y-55077477D01*
X107036842Y-55087699D01*
X106982436Y-55125231D01*
X106917344Y-55154870D01*
X106841738Y-55175406D01*
X106756270Y-55185446D01*
X106723479Y-55186226D01*
X106677777Y-55184673D01*
X106633758Y-55180055D01*
X106592296Y-55172587D01*
X106552792Y-55162274D01*
X106516291Y-55149525D01*
X106481962Y-55134177D01*
X106450855Y-55116841D01*
X106422077Y-55097154D01*
X106410115Y-55087699D01*
X106389164Y-55067848D01*
X106371040Y-55046135D01*
X106356331Y-55023519D01*
X106344031Y-54998802D01*
X106326210Y-54941543D01*
X106317052Y-54868405D01*
X106316033Y-54828948D01*
X106456033Y-54828948D01*
X106457598Y-54856968D01*
X106462298Y-54882734D01*
X106469505Y-54904711D01*
X106479448Y-54924736D01*
X106491651Y-54942222D01*
X106506417Y-54957892D01*
X106544028Y-54983988D01*
X106594720Y-55003444D01*
X106662136Y-55015373D01*
X106724602Y-55018236D01*
X106771299Y-55016672D01*
X106813488Y-55011977D01*
X106847887Y-55005000D01*
X106878589Y-54995436D01*
X106903479Y-54984399D01*
X106925278Y-54971184D01*
X106942904Y-54956823D01*
X106957825Y-54940546D01*
X106979117Y-54903400D01*
X106990331Y-54858252D01*
X106992048Y-54828948D01*
X106992048Y-54677762D01*
X106456033Y-54677762D01*
X106456033Y-54828948D01*
X106316033Y-54828948D01*
X106316033Y-54509771D01*
X107132000Y-54509771D01*
X107132000Y-54828948D01*
G37*
G36*
X107132000Y-55690881D02*
G01*
X107130408Y-55736412D01*
X107125519Y-55776995D01*
X107118488Y-55808563D01*
X107108744Y-55837166D01*
X107097131Y-55861447D01*
X107082978Y-55883740D01*
X107072648Y-55896973D01*
X107036183Y-55930957D01*
X106989482Y-55957792D01*
X106963490Y-55967389D01*
X106936647Y-55973935D01*
X106897184Y-55977573D01*
X106871124Y-55975999D01*
X106846231Y-55971235D01*
X106823503Y-55963651D01*
X106801742Y-55953046D01*
X106760951Y-55922563D01*
X106721991Y-55877291D01*
X106699445Y-55842067D01*
X106676282Y-55875330D01*
X106653169Y-55902204D01*
X106633692Y-55919869D01*
X106613551Y-55933629D01*
X106594154Y-55943022D01*
X106573680Y-55949450D01*
X106531211Y-55954077D01*
X106484531Y-55948029D01*
X106437618Y-55929603D01*
X106415223Y-55915812D01*
X106394422Y-55899325D01*
X106375433Y-55880169D01*
X106358522Y-55858086D01*
X106344606Y-55834403D01*
X106326063Y-55783671D01*
X106316992Y-55720724D01*
X106316033Y-55687510D01*
X106316033Y-55674077D01*
X106456033Y-55674077D01*
X106457591Y-55702450D01*
X106462246Y-55727007D01*
X106468943Y-55745580D01*
X106478034Y-55761108D01*
X106488444Y-55772643D01*
X106500827Y-55781592D01*
X106530893Y-55791591D01*
X106548064Y-55792779D01*
X106567933Y-55791219D01*
X106585443Y-55786552D01*
X106599399Y-55779570D01*
X106611361Y-55770014D01*
X106629051Y-55743741D01*
X106639274Y-55705155D01*
X106640076Y-55692004D01*
X106781169Y-55692004D01*
X106782730Y-55719915D01*
X106787406Y-55744356D01*
X106794205Y-55763223D01*
X106803470Y-55779270D01*
X106814226Y-55791578D01*
X106827077Y-55801432D01*
X106858606Y-55813615D01*
X106887170Y-55816324D01*
X106908902Y-55814765D01*
X106928156Y-55810107D01*
X106943621Y-55803134D01*
X106956973Y-55793598D01*
X106976820Y-55767824D01*
X106988836Y-55731003D01*
X106992048Y-55692004D01*
X106992048Y-55491530D01*
X106781169Y-55491530D01*
X106781169Y-55692004D01*
X106640076Y-55692004D01*
X106641169Y-55674077D01*
X106641169Y-55491530D01*
X106456033Y-55491530D01*
X106456033Y-55674077D01*
X106316033Y-55674077D01*
X106316033Y-55323540D01*
X107132000Y-55323540D01*
X107132000Y-55690881D01*
G37*
G36*
X108266033Y-54395479D02*
G01*
X108266033Y-54227489D01*
X109082000Y-54227489D01*
X109082000Y-54395479D01*
X108266033Y-54395479D01*
G37*
G36*
X109082000Y-55040329D02*
G01*
X109082000Y-55208319D01*
X108266033Y-55208319D01*
X108266033Y-55040329D01*
X108821197Y-55040329D01*
X108266033Y-54716610D01*
X108266033Y-54544174D01*
X109082000Y-54544174D01*
X109082000Y-54712164D01*
X108517896Y-54712164D01*
X109082000Y-55040329D01*
G37*
G36*
X108406033Y-55707356D02*
G01*
X108406033Y-55945884D01*
X108266033Y-55945884D01*
X108266033Y-55291801D01*
X108406033Y-55291801D01*
X108406033Y-55539366D01*
X109082000Y-55539366D01*
X109082000Y-55707356D01*
X108406033Y-55707356D01*
G37*
G36*
X101847906Y-52799378D02*
G01*
X101629308Y-52799378D01*
X101629308Y-53017976D01*
X101847906Y-53017976D01*
X101847906Y-52799378D01*
G37*
G36*
X100422558Y-52847718D02*
G01*
X100478278Y-52861460D01*
X100526932Y-52883509D01*
X100569618Y-52913857D01*
X100607054Y-52953105D01*
X100636630Y-52997460D01*
X100660633Y-53049665D01*
X100678760Y-53110950D01*
X100690365Y-53182778D01*
X100694493Y-53266810D01*
X100690370Y-53350569D01*
X100678774Y-53422216D01*
X100660654Y-53483398D01*
X100636648Y-53535563D01*
X100607054Y-53579930D01*
X100569618Y-53619178D01*
X100526932Y-53649526D01*
X100478278Y-53671574D01*
X100422558Y-53685316D01*
X100358366Y-53690132D01*
X100294439Y-53685323D01*
X100238898Y-53671596D01*
X100190350Y-53649557D01*
X100147709Y-53619205D01*
X100110264Y-53579930D01*
X100080671Y-53535563D01*
X100056665Y-53483398D01*
X100038545Y-53422216D01*
X100026949Y-53350569D01*
X100022825Y-53266810D01*
X100022921Y-53264856D01*
X100233216Y-53264856D01*
X100237404Y-53369275D01*
X100247920Y-53438910D01*
X100262183Y-53482916D01*
X100279626Y-53511352D01*
X100300961Y-53530633D01*
X100326741Y-53542246D01*
X100358366Y-53546322D01*
X100390278Y-53542232D01*
X100416228Y-53530598D01*
X100437641Y-53511313D01*
X100455086Y-53482916D01*
X100469350Y-53438910D01*
X100479865Y-53369275D01*
X100484054Y-53264856D01*
X100479864Y-53161568D01*
X100469349Y-53092744D01*
X100455086Y-53049288D01*
X100437689Y-53021321D01*
X100416303Y-53002279D01*
X100390338Y-52990765D01*
X100358366Y-52986713D01*
X100326399Y-52990769D01*
X100300491Y-53002287D01*
X100279201Y-53021326D01*
X100261939Y-53049288D01*
X100247800Y-53092732D01*
X100237371Y-53161556D01*
X100233216Y-53264856D01*
X100022921Y-53264856D01*
X100026954Y-53182778D01*
X100038559Y-53110950D01*
X100056686Y-53049665D01*
X100080689Y-52997460D01*
X100110264Y-52953105D01*
X100147709Y-52913830D01*
X100190350Y-52883478D01*
X100238898Y-52861439D01*
X100294439Y-52847711D01*
X100358366Y-52842902D01*
X100422558Y-52847718D01*
G37*
G36*
X99720160Y-53360990D02*
G01*
X99940906Y-53061744D01*
X99733788Y-53061744D01*
X99608638Y-53243363D01*
X99481876Y-53061744D01*
X99274758Y-53061744D01*
X99495554Y-53359916D01*
X99263816Y-53674501D01*
X99470934Y-53674501D01*
X99608638Y-53480816D01*
X99744731Y-53674501D01*
X99951848Y-53674501D01*
X99720160Y-53360990D01*
G37*
G36*
X98921148Y-52847718D02*
G01*
X98976868Y-52861460D01*
X99025522Y-52883509D01*
X99068208Y-52913857D01*
X99105645Y-52953105D01*
X99135220Y-52997460D01*
X99159224Y-53049665D01*
X99177350Y-53110950D01*
X99188955Y-53182778D01*
X99193084Y-53266810D01*
X99188960Y-53350569D01*
X99177364Y-53422216D01*
X99159244Y-53483398D01*
X99135238Y-53535563D01*
X99105645Y-53579930D01*
X99068208Y-53619178D01*
X99025522Y-53649526D01*
X98976868Y-53671574D01*
X98921148Y-53685316D01*
X98856957Y-53690132D01*
X98793030Y-53685323D01*
X98737489Y-53671596D01*
X98688941Y-53649557D01*
X98646300Y-53619205D01*
X98608855Y-53579930D01*
X98579261Y-53535563D01*
X98555255Y-53483398D01*
X98537135Y-53422216D01*
X98525539Y-53350569D01*
X98521416Y-53266810D01*
X98521512Y-53264856D01*
X98731807Y-53264856D01*
X98735995Y-53369275D01*
X98746511Y-53438910D01*
X98760774Y-53482916D01*
X98778216Y-53511352D01*
X98799551Y-53530633D01*
X98825331Y-53542246D01*
X98856957Y-53546322D01*
X98888868Y-53542232D01*
X98914818Y-53530598D01*
X98936231Y-53511313D01*
X98953677Y-53482916D01*
X98967940Y-53438910D01*
X98978456Y-53369275D01*
X98982644Y-53264856D01*
X98978455Y-53161568D01*
X98967939Y-53092744D01*
X98953677Y-53049288D01*
X98936280Y-53021321D01*
X98914893Y-53002279D01*
X98888928Y-52990765D01*
X98856957Y-52986713D01*
X98824989Y-52990769D01*
X98799081Y-53002287D01*
X98777792Y-53021326D01*
X98760530Y-53049288D01*
X98746390Y-53092732D01*
X98735962Y-53161556D01*
X98731807Y-53264856D01*
X98521512Y-53264856D01*
X98525544Y-53182778D01*
X98537149Y-53110950D01*
X98555276Y-53049665D01*
X98579279Y-52997460D01*
X98608855Y-52953105D01*
X98646300Y-52913830D01*
X98688941Y-52883478D01*
X98737489Y-52861439D01*
X98793030Y-52847711D01*
X98856957Y-52842902D01*
X98921148Y-52847718D01*
G37*
G36*
X98141916Y-52847718D02*
G01*
X98197636Y-52861460D01*
X98246290Y-52883509D01*
X98288976Y-52913857D01*
X98326412Y-52953105D01*
X98355988Y-52997460D01*
X98379991Y-53049665D01*
X98398118Y-53110950D01*
X98409723Y-53182778D01*
X98413851Y-53266810D01*
X98409728Y-53350569D01*
X98398132Y-53422216D01*
X98380012Y-53483398D01*
X98356006Y-53535563D01*
X98326412Y-53579930D01*
X98288976Y-53619178D01*
X98246290Y-53649526D01*
X98197636Y-53671574D01*
X98141916Y-53685316D01*
X98077724Y-53690132D01*
X98013797Y-53685323D01*
X97958256Y-53671596D01*
X97909708Y-53649557D01*
X97867067Y-53619205D01*
X97829622Y-53579930D01*
X97800029Y-53535563D01*
X97776023Y-53483398D01*
X97757903Y-53422216D01*
X97746307Y-53350569D01*
X97742183Y-53266810D01*
X97742279Y-53264856D01*
X97952574Y-53264856D01*
X97956762Y-53369275D01*
X97967278Y-53438910D01*
X97981541Y-53482916D01*
X97998984Y-53511352D01*
X98020319Y-53530633D01*
X98046099Y-53542246D01*
X98077724Y-53546322D01*
X98109636Y-53542232D01*
X98135586Y-53530598D01*
X98156999Y-53511313D01*
X98174444Y-53482916D01*
X98188708Y-53438910D01*
X98199223Y-53369275D01*
X98203412Y-53264856D01*
X98199222Y-53161568D01*
X98188707Y-53092744D01*
X98174444Y-53049288D01*
X98157047Y-53021321D01*
X98135661Y-53002279D01*
X98109696Y-52990765D01*
X98077724Y-52986713D01*
X98045757Y-52990769D01*
X98019849Y-53002287D01*
X97998559Y-53021326D01*
X97981297Y-53049288D01*
X97967158Y-53092732D01*
X97956729Y-53161556D01*
X97952574Y-53264856D01*
X97742279Y-53264856D01*
X97746312Y-53182778D01*
X97757917Y-53110950D01*
X97776044Y-53049665D01*
X97800047Y-52997460D01*
X97829622Y-52953105D01*
X97867067Y-52913830D01*
X97909708Y-52883478D01*
X97958256Y-52861439D01*
X98013797Y-52847711D01*
X98077724Y-52842902D01*
X98141916Y-52847718D01*
G37*
G36*
X101847906Y-54143378D02*
G01*
X101629308Y-54143378D01*
X101629308Y-54361976D01*
X101847906Y-54361976D01*
X101847906Y-54143378D01*
G37*
G36*
X101519985Y-54143378D02*
G01*
X101301388Y-54143378D01*
X101301388Y-54361976D01*
X101519985Y-54361976D01*
X101519985Y-54143378D01*
G37*
G36*
X100422558Y-54191718D02*
G01*
X100478278Y-54205460D01*
X100526932Y-54227509D01*
X100569618Y-54257857D01*
X100607054Y-54297105D01*
X100636630Y-54341460D01*
X100660633Y-54393665D01*
X100678760Y-54454950D01*
X100690365Y-54526778D01*
X100694493Y-54610810D01*
X100690370Y-54694569D01*
X100678774Y-54766216D01*
X100660654Y-54827398D01*
X100636648Y-54879563D01*
X100607054Y-54923930D01*
X100569618Y-54963178D01*
X100526932Y-54993526D01*
X100478278Y-55015574D01*
X100422558Y-55029316D01*
X100358366Y-55034132D01*
X100294439Y-55029323D01*
X100238898Y-55015596D01*
X100190350Y-54993557D01*
X100147709Y-54963205D01*
X100110264Y-54923930D01*
X100080671Y-54879563D01*
X100056665Y-54827398D01*
X100038545Y-54766216D01*
X100026949Y-54694569D01*
X100022825Y-54610810D01*
X100022921Y-54608856D01*
X100233216Y-54608856D01*
X100237404Y-54713275D01*
X100247920Y-54782910D01*
X100262183Y-54826916D01*
X100279626Y-54855352D01*
X100300961Y-54874633D01*
X100326741Y-54886246D01*
X100358366Y-54890322D01*
X100390278Y-54886232D01*
X100416228Y-54874598D01*
X100437641Y-54855313D01*
X100455086Y-54826916D01*
X100469350Y-54782910D01*
X100479865Y-54713275D01*
X100484054Y-54608856D01*
X100479864Y-54505568D01*
X100469349Y-54436744D01*
X100455086Y-54393288D01*
X100437689Y-54365321D01*
X100416303Y-54346279D01*
X100390338Y-54334765D01*
X100358366Y-54330713D01*
X100326399Y-54334769D01*
X100300491Y-54346287D01*
X100279201Y-54365326D01*
X100261939Y-54393288D01*
X100247800Y-54436732D01*
X100237371Y-54505556D01*
X100233216Y-54608856D01*
X100022921Y-54608856D01*
X100026954Y-54526778D01*
X100038559Y-54454950D01*
X100056686Y-54393665D01*
X100080689Y-54341460D01*
X100110264Y-54297105D01*
X100147709Y-54257830D01*
X100190350Y-54227478D01*
X100238898Y-54205439D01*
X100294439Y-54191711D01*
X100358366Y-54186902D01*
X100422558Y-54191718D01*
G37*
G36*
X99720160Y-54704990D02*
G01*
X99940906Y-54405744D01*
X99733788Y-54405744D01*
X99608638Y-54587363D01*
X99481876Y-54405744D01*
X99274758Y-54405744D01*
X99495554Y-54703916D01*
X99263816Y-55018501D01*
X99470934Y-55018501D01*
X99608638Y-54824816D01*
X99744731Y-55018501D01*
X99951848Y-55018501D01*
X99720160Y-54704990D01*
G37*
G36*
X98921148Y-54191718D02*
G01*
X98976868Y-54205460D01*
X99025522Y-54227509D01*
X99068208Y-54257857D01*
X99105645Y-54297105D01*
X99135220Y-54341460D01*
X99159224Y-54393665D01*
X99177350Y-54454950D01*
X99188955Y-54526778D01*
X99193084Y-54610810D01*
X99188960Y-54694569D01*
X99177364Y-54766216D01*
X99159244Y-54827398D01*
X99135238Y-54879563D01*
X99105645Y-54923930D01*
X99068208Y-54963178D01*
X99025522Y-54993526D01*
X98976868Y-55015574D01*
X98921148Y-55029316D01*
X98856957Y-55034132D01*
X98793030Y-55029323D01*
X98737489Y-55015596D01*
X98688941Y-54993557D01*
X98646300Y-54963205D01*
X98608855Y-54923930D01*
X98579261Y-54879563D01*
X98555255Y-54827398D01*
X98537135Y-54766216D01*
X98525539Y-54694569D01*
X98521416Y-54610810D01*
X98521512Y-54608856D01*
X98731807Y-54608856D01*
X98735995Y-54713275D01*
X98746511Y-54782910D01*
X98760774Y-54826916D01*
X98778216Y-54855352D01*
X98799551Y-54874633D01*
X98825331Y-54886246D01*
X98856957Y-54890322D01*
X98888868Y-54886232D01*
X98914818Y-54874598D01*
X98936231Y-54855313D01*
X98953677Y-54826916D01*
X98967940Y-54782910D01*
X98978456Y-54713275D01*
X98982644Y-54608856D01*
X98978455Y-54505568D01*
X98967939Y-54436744D01*
X98953677Y-54393288D01*
X98936280Y-54365321D01*
X98914893Y-54346279D01*
X98888928Y-54334765D01*
X98856957Y-54330713D01*
X98824989Y-54334769D01*
X98799081Y-54346287D01*
X98777792Y-54365326D01*
X98760530Y-54393288D01*
X98746390Y-54436732D01*
X98735962Y-54505556D01*
X98731807Y-54608856D01*
X98521512Y-54608856D01*
X98525544Y-54526778D01*
X98537149Y-54454950D01*
X98555276Y-54393665D01*
X98579279Y-54341460D01*
X98608855Y-54297105D01*
X98646300Y-54257830D01*
X98688941Y-54227478D01*
X98737489Y-54205439D01*
X98793030Y-54191711D01*
X98856957Y-54186902D01*
X98921148Y-54191718D01*
G37*
G36*
X98336231Y-54871564D02*
G01*
X98150411Y-54871564D01*
X98150411Y-54346344D01*
X98341165Y-54386986D01*
X98341165Y-54243176D01*
X98151534Y-54202534D01*
X97951500Y-54202534D01*
X97951500Y-54871564D01*
X97765680Y-54871564D01*
X97765680Y-55018501D01*
X98336231Y-55018501D01*
X98336231Y-54871564D01*
G37*
G36*
X101847906Y-55487378D02*
G01*
X101629308Y-55487378D01*
X101629308Y-55705976D01*
X101847906Y-55705976D01*
X101847906Y-55487378D01*
G37*
G36*
X101847906Y-55778125D02*
G01*
X101629308Y-55778125D01*
X101629308Y-55996722D01*
X101847906Y-55996722D01*
X101847906Y-55778125D01*
G37*
G36*
X101519985Y-55487378D02*
G01*
X101301388Y-55487378D01*
X101301388Y-55705976D01*
X101519985Y-55705976D01*
X101519985Y-55487378D01*
G37*
G36*
X100422558Y-55535718D02*
G01*
X100478278Y-55549460D01*
X100526932Y-55571509D01*
X100569618Y-55601857D01*
X100607054Y-55641105D01*
X100636630Y-55685460D01*
X100660633Y-55737665D01*
X100678760Y-55798950D01*
X100690365Y-55870778D01*
X100694493Y-55954810D01*
X100690370Y-56038569D01*
X100678774Y-56110216D01*
X100660654Y-56171398D01*
X100636648Y-56223563D01*
X100607054Y-56267930D01*
X100569618Y-56307178D01*
X100526932Y-56337526D01*
X100478278Y-56359574D01*
X100422558Y-56373316D01*
X100358366Y-56378132D01*
X100294439Y-56373323D01*
X100238898Y-56359596D01*
X100190350Y-56337557D01*
X100147709Y-56307205D01*
X100110264Y-56267930D01*
X100080671Y-56223563D01*
X100056665Y-56171398D01*
X100038545Y-56110216D01*
X100026949Y-56038569D01*
X100022825Y-55954810D01*
X100022921Y-55952856D01*
X100233216Y-55952856D01*
X100237404Y-56057275D01*
X100247920Y-56126910D01*
X100262183Y-56170916D01*
X100279626Y-56199352D01*
X100300961Y-56218633D01*
X100326741Y-56230246D01*
X100358366Y-56234322D01*
X100390278Y-56230232D01*
X100416228Y-56218598D01*
X100437641Y-56199313D01*
X100455086Y-56170916D01*
X100469350Y-56126910D01*
X100479865Y-56057275D01*
X100484054Y-55952856D01*
X100479864Y-55849568D01*
X100469349Y-55780744D01*
X100455086Y-55737288D01*
X100437689Y-55709321D01*
X100416303Y-55690279D01*
X100390338Y-55678765D01*
X100358366Y-55674713D01*
X100326399Y-55678769D01*
X100300491Y-55690287D01*
X100279201Y-55709326D01*
X100261939Y-55737288D01*
X100247800Y-55780732D01*
X100237371Y-55849556D01*
X100233216Y-55952856D01*
X100022921Y-55952856D01*
X100026954Y-55870778D01*
X100038559Y-55798950D01*
X100056686Y-55737665D01*
X100080689Y-55685460D01*
X100110264Y-55641105D01*
X100147709Y-55601830D01*
X100190350Y-55571478D01*
X100238898Y-55549439D01*
X100294439Y-55535711D01*
X100358366Y-55530902D01*
X100422558Y-55535718D01*
G37*
G36*
X99720160Y-56048990D02*
G01*
X99940906Y-55749744D01*
X99733788Y-55749744D01*
X99608638Y-55931363D01*
X99481876Y-55749744D01*
X99274758Y-55749744D01*
X99495554Y-56047916D01*
X99263816Y-56362501D01*
X99470934Y-56362501D01*
X99608638Y-56168816D01*
X99744731Y-56362501D01*
X99951848Y-56362501D01*
X99720160Y-56048990D01*
G37*
G36*
X99115463Y-56215564D02*
G01*
X98929643Y-56215564D01*
X98929643Y-55690344D01*
X99120397Y-55730986D01*
X99120397Y-55587176D01*
X98930767Y-55546534D01*
X98730732Y-55546534D01*
X98730732Y-56215564D01*
X98544912Y-56215564D01*
X98544912Y-56362501D01*
X99115463Y-56362501D01*
X99115463Y-56215564D01*
G37*
G36*
X98141916Y-55535718D02*
G01*
X98197636Y-55549460D01*
X98246290Y-55571509D01*
X98288976Y-55601857D01*
X98326412Y-55641105D01*
X98355988Y-55685460D01*
X98379991Y-55737665D01*
X98398118Y-55798950D01*
X98409723Y-55870778D01*
X98413851Y-55954810D01*
X98409728Y-56038569D01*
X98398132Y-56110216D01*
X98380012Y-56171398D01*
X98356006Y-56223563D01*
X98326412Y-56267930D01*
X98288976Y-56307178D01*
X98246290Y-56337526D01*
X98197636Y-56359574D01*
X98141916Y-56373316D01*
X98077724Y-56378132D01*
X98013797Y-56373323D01*
X97958256Y-56359596D01*
X97909708Y-56337557D01*
X97867067Y-56307205D01*
X97829622Y-56267930D01*
X97800029Y-56223563D01*
X97776023Y-56171398D01*
X97757903Y-56110216D01*
X97746307Y-56038569D01*
X97742183Y-55954810D01*
X97742279Y-55952856D01*
X97952574Y-55952856D01*
X97956762Y-56057275D01*
X97967278Y-56126910D01*
X97981541Y-56170916D01*
X97998984Y-56199352D01*
X98020319Y-56218633D01*
X98046099Y-56230246D01*
X98077724Y-56234322D01*
X98109636Y-56230232D01*
X98135586Y-56218598D01*
X98156999Y-56199313D01*
X98174444Y-56170916D01*
X98188708Y-56126910D01*
X98199223Y-56057275D01*
X98203412Y-55952856D01*
X98199222Y-55849568D01*
X98188707Y-55780744D01*
X98174444Y-55737288D01*
X98157047Y-55709321D01*
X98135661Y-55690279D01*
X98109696Y-55678765D01*
X98077724Y-55674713D01*
X98045757Y-55678769D01*
X98019849Y-55690287D01*
X97998559Y-55709326D01*
X97981297Y-55737288D01*
X97967158Y-55780732D01*
X97956729Y-55849556D01*
X97952574Y-55952856D01*
X97742279Y-55952856D01*
X97746312Y-55870778D01*
X97757917Y-55798950D01*
X97776044Y-55737665D01*
X97800047Y-55685460D01*
X97829622Y-55641105D01*
X97867067Y-55601830D01*
X97909708Y-55571478D01*
X97958256Y-55549439D01*
X98013797Y-55535711D01*
X98077724Y-55530902D01*
X98141916Y-55535718D01*
G37*
G36*
X101847906Y-56831378D02*
G01*
X101629308Y-56831378D01*
X101629308Y-57049976D01*
X101847906Y-57049976D01*
X101847906Y-56831378D01*
G37*
G36*
X101847906Y-57122125D02*
G01*
X101629308Y-57122125D01*
X101629308Y-57340722D01*
X101847906Y-57340722D01*
X101847906Y-57122125D01*
G37*
G36*
X101519985Y-56831378D02*
G01*
X101301388Y-56831378D01*
X101301388Y-57049976D01*
X101519985Y-57049976D01*
X101519985Y-56831378D01*
G37*
G36*
X101519985Y-57122125D02*
G01*
X101301388Y-57122125D01*
X101301388Y-57340722D01*
X101519985Y-57340722D01*
X101519985Y-57122125D01*
G37*
G36*
X100422558Y-56879718D02*
G01*
X100478278Y-56893460D01*
X100526932Y-56915509D01*
X100569618Y-56945857D01*
X100607054Y-56985105D01*
X100636630Y-57029460D01*
X100660633Y-57081665D01*
X100678760Y-57142950D01*
X100690365Y-57214778D01*
X100694493Y-57298810D01*
X100690370Y-57382569D01*
X100678774Y-57454216D01*
X100660654Y-57515398D01*
X100636648Y-57567563D01*
X100607054Y-57611930D01*
X100569618Y-57651178D01*
X100526932Y-57681526D01*
X100478278Y-57703574D01*
X100422558Y-57717316D01*
X100358366Y-57722132D01*
X100294439Y-57717323D01*
X100238898Y-57703596D01*
X100190350Y-57681557D01*
X100147709Y-57651205D01*
X100110264Y-57611930D01*
X100080671Y-57567563D01*
X100056665Y-57515398D01*
X100038545Y-57454216D01*
X100026949Y-57382569D01*
X100022825Y-57298810D01*
X100022921Y-57296856D01*
X100233216Y-57296856D01*
X100237404Y-57401275D01*
X100247920Y-57470910D01*
X100262183Y-57514916D01*
X100279626Y-57543352D01*
X100300961Y-57562633D01*
X100326741Y-57574246D01*
X100358366Y-57578322D01*
X100390278Y-57574232D01*
X100416228Y-57562598D01*
X100437641Y-57543313D01*
X100455086Y-57514916D01*
X100469350Y-57470910D01*
X100479865Y-57401275D01*
X100484054Y-57296856D01*
X100479864Y-57193568D01*
X100469349Y-57124744D01*
X100455086Y-57081288D01*
X100437689Y-57053321D01*
X100416303Y-57034279D01*
X100390338Y-57022765D01*
X100358366Y-57018713D01*
X100326399Y-57022769D01*
X100300491Y-57034287D01*
X100279201Y-57053326D01*
X100261939Y-57081288D01*
X100247800Y-57124732D01*
X100237371Y-57193556D01*
X100233216Y-57296856D01*
X100022921Y-57296856D01*
X100026954Y-57214778D01*
X100038559Y-57142950D01*
X100056686Y-57081665D01*
X100080689Y-57029460D01*
X100110264Y-56985105D01*
X100147709Y-56945830D01*
X100190350Y-56915478D01*
X100238898Y-56893439D01*
X100294439Y-56879711D01*
X100358366Y-56874902D01*
X100422558Y-56879718D01*
G37*
G36*
X99720160Y-57392990D02*
G01*
X99940906Y-57093744D01*
X99733788Y-57093744D01*
X99608638Y-57275363D01*
X99481876Y-57093744D01*
X99274758Y-57093744D01*
X99495554Y-57391916D01*
X99263816Y-57706501D01*
X99470934Y-57706501D01*
X99608638Y-57512816D01*
X99744731Y-57706501D01*
X99951848Y-57706501D01*
X99720160Y-57392990D01*
G37*
G36*
X99115463Y-57559564D02*
G01*
X98929643Y-57559564D01*
X98929643Y-57034344D01*
X99120397Y-57074986D01*
X99120397Y-56931176D01*
X98930767Y-56890534D01*
X98730732Y-56890534D01*
X98730732Y-57559564D01*
X98544912Y-57559564D01*
X98544912Y-57706501D01*
X99115463Y-57706501D01*
X99115463Y-57559564D01*
G37*
G36*
X98336231Y-57559564D02*
G01*
X98150411Y-57559564D01*
X98150411Y-57034344D01*
X98341165Y-57074986D01*
X98341165Y-56931176D01*
X98151534Y-56890534D01*
X97951500Y-56890534D01*
X97951500Y-57559564D01*
X97765680Y-57559564D01*
X97765680Y-57706501D01*
X98336231Y-57706501D01*
X98336231Y-57559564D01*
G37*
G36*
X115006182Y-68674534D02*
G01*
X115174172Y-68674534D01*
X115174172Y-69490501D01*
X115006182Y-69490501D01*
X115006182Y-68674534D01*
G37*
G36*
X114676063Y-68674534D02*
G01*
X114844054Y-68674534D01*
X114844054Y-69490501D01*
X114285177Y-69490501D01*
X114285177Y-69350549D01*
X114676063Y-69350549D01*
X114676063Y-68674534D01*
G37*
G36*
X114020369Y-68854785D02*
G01*
X113873677Y-69490501D01*
X113705638Y-69490501D01*
X113561192Y-68854785D01*
X113561192Y-69490501D01*
X113393202Y-69490501D01*
X113393202Y-68674534D01*
X113646287Y-68674534D01*
X113789657Y-69323731D01*
X113937473Y-68674534D01*
X114188359Y-68674534D01*
X114188359Y-69490501D01*
X114020369Y-69490501D01*
X114020369Y-68854785D01*
G37*
G36*
X113063328Y-68942859D02*
G01*
X113063328Y-69490501D01*
X112906524Y-69490501D01*
X112906524Y-68696467D01*
X113010669Y-68696467D01*
X113018536Y-68720313D01*
X113029063Y-68742001D01*
X113041693Y-68760821D01*
X113056767Y-68777627D01*
X113094075Y-68805087D01*
X113142644Y-68824931D01*
X113205106Y-68836468D01*
X113253691Y-68838714D01*
X113253691Y-68942859D01*
X113063328Y-68942859D01*
G37*
G36*
X112464689Y-69135567D02*
G01*
X112406589Y-69136544D01*
X112372853Y-69143383D01*
X112354518Y-69150033D01*
X112338030Y-69159256D01*
X112311063Y-69184806D01*
X112293410Y-69218598D01*
X112288570Y-69238102D01*
X112286660Y-69258990D01*
X112286636Y-69261694D01*
X112288166Y-69282697D01*
X112292626Y-69302169D01*
X112299826Y-69319944D01*
X112309567Y-69335821D01*
X112335909Y-69361169D01*
X112352113Y-69370262D01*
X112370073Y-69376719D01*
X112404214Y-69381129D01*
X112427553Y-69379570D01*
X112448398Y-69374912D01*
X112465371Y-69367905D01*
X112480199Y-69358315D01*
X112502714Y-69332547D01*
X112517325Y-69296301D01*
X112522916Y-69257249D01*
X112675275Y-69257249D01*
X112673493Y-69290282D01*
X112668687Y-69321427D01*
X112661158Y-69349948D01*
X112650914Y-69376498D01*
X112638298Y-69400563D01*
X112623227Y-69422571D01*
X112605956Y-69442266D01*
X112586432Y-69459788D01*
X112540831Y-69488064D01*
X112486362Y-69506877D01*
X112422846Y-69515216D01*
X112407585Y-69515511D01*
X112371865Y-69513965D01*
X112338153Y-69509395D01*
X112307179Y-69502085D01*
X112278337Y-69492067D01*
X112252271Y-69479732D01*
X112228443Y-69464985D01*
X112207314Y-69448243D01*
X112188528Y-69429348D01*
X112172336Y-69408617D01*
X112158616Y-69385945D01*
X112138956Y-69335151D01*
X112130199Y-69277070D01*
X112129832Y-69261694D01*
X112131408Y-69231317D01*
X112136190Y-69203314D01*
X112143464Y-69179595D01*
X112153565Y-69157651D01*
X112181390Y-69119807D01*
X112221534Y-69086760D01*
X112259720Y-69065225D01*
X112231178Y-69045396D01*
X112207479Y-69024721D01*
X112190629Y-69005759D01*
X112177217Y-68985716D01*
X112167625Y-68965665D01*
X112160885Y-68944303D01*
X112155575Y-68896697D01*
X112157121Y-68868704D01*
X112161693Y-68842311D01*
X112169040Y-68818005D01*
X112179118Y-68795407D01*
X112206887Y-68755868D01*
X112244638Y-68723803D01*
X112292448Y-68699797D01*
X112350492Y-68684987D01*
X112407585Y-68680787D01*
X112441900Y-68682334D01*
X112474383Y-68686916D01*
X112504216Y-68694245D01*
X112531973Y-68704302D01*
X112556815Y-68716612D01*
X112579398Y-68731340D01*
X112599036Y-68747890D01*
X112616269Y-68766574D01*
X112630662Y-68786834D01*
X112642504Y-68808998D01*
X112646112Y-68817416D01*
X112657207Y-68851835D01*
X112663175Y-68889040D01*
X112665163Y-68946914D01*
X112519594Y-68946914D01*
X112516711Y-68902287D01*
X112510246Y-68871633D01*
X112507236Y-68863187D01*
X112489471Y-68836645D01*
X112461989Y-68817715D01*
X112425636Y-68808105D01*
X112410955Y-68807353D01*
X112390029Y-68808900D01*
X112371403Y-68813477D01*
X112356100Y-68820437D01*
X112342969Y-68829898D01*
X112323900Y-68855189D01*
X112313729Y-68890031D01*
X112312379Y-68911205D01*
X112313943Y-68935482D01*
X112318642Y-68956965D01*
X112325592Y-68973990D01*
X112335115Y-68988757D01*
X112360528Y-69010761D01*
X112396522Y-69024895D01*
X112446957Y-69030612D01*
X112451255Y-69030640D01*
X112464689Y-69030640D01*
X112464689Y-69135567D01*
G37*
G36*
X111818087Y-68682330D02*
G01*
X111848115Y-68686884D01*
X111876420Y-68694290D01*
X111903038Y-68704448D01*
X111927818Y-68717216D01*
X111950707Y-68732496D01*
X111990447Y-68770203D01*
X112021463Y-68816871D01*
X112042792Y-68871834D01*
X112049494Y-68902267D01*
X112053331Y-68934364D01*
X112054263Y-68960591D01*
X112052720Y-68995765D01*
X112048174Y-69029130D01*
X112040834Y-69060243D01*
X112030789Y-69089299D01*
X112018366Y-69115772D01*
X112003549Y-69139977D01*
X111986781Y-69161409D01*
X111967921Y-69180398D01*
X111947458Y-69196555D01*
X111925182Y-69210109D01*
X111901508Y-69220821D01*
X111876267Y-69228761D01*
X111849698Y-69233795D01*
X111821772Y-69235855D01*
X111816810Y-69235902D01*
X111766736Y-69230007D01*
X111743836Y-69222847D01*
X111723727Y-69213262D01*
X111713740Y-69206788D01*
X111697477Y-69193423D01*
X111677946Y-69172657D01*
X111664524Y-69157526D01*
X111664500Y-69157500D01*
X111666068Y-69205581D01*
X111670789Y-69247795D01*
X111677551Y-69280052D01*
X111686781Y-69307882D01*
X111697067Y-69328930D01*
X111709330Y-69346546D01*
X111722344Y-69359726D01*
X111737046Y-69370059D01*
X111770572Y-69382098D01*
X111795512Y-69384255D01*
X111816525Y-69382722D01*
X111835374Y-69378245D01*
X111851310Y-69371314D01*
X111864881Y-69361980D01*
X111875576Y-69350839D01*
X111883744Y-69337756D01*
X111889179Y-69323060D01*
X111891840Y-69306754D01*
X111891841Y-69306732D01*
X112043028Y-69306732D01*
X112040775Y-69332622D01*
X112035570Y-69357366D01*
X112016563Y-69403506D01*
X111986637Y-69444011D01*
X111946550Y-69477383D01*
X111897446Y-69501895D01*
X111869996Y-69510295D01*
X111840928Y-69515870D01*
X111800006Y-69518637D01*
X111767087Y-69517080D01*
X111736021Y-69512433D01*
X111707907Y-69505073D01*
X111681596Y-69494916D01*
X111657690Y-69482332D01*
X111635579Y-69467144D01*
X111597084Y-69429296D01*
X111573788Y-69395441D01*
X111547983Y-69339415D01*
X111526001Y-69261381D01*
X111511503Y-69163208D01*
X111507696Y-69076900D01*
X111509265Y-69019764D01*
X111513991Y-68967372D01*
X111515094Y-68960591D01*
X111667822Y-68960591D01*
X111669359Y-68986836D01*
X111673863Y-69010996D01*
X111680960Y-69032355D01*
X111690580Y-69051363D01*
X111702138Y-69067332D01*
X111715783Y-69080773D01*
X111730892Y-69091241D01*
X111747720Y-69099024D01*
X111765895Y-69103927D01*
X111785510Y-69105924D01*
X111788820Y-69105965D01*
X111808811Y-69104419D01*
X111827202Y-69099856D01*
X111843467Y-69092624D01*
X111858036Y-69082737D01*
X111881794Y-69055300D01*
X111898043Y-69016979D01*
X111905145Y-68966822D01*
X111905275Y-68958344D01*
X111903733Y-68929530D01*
X111899197Y-68903308D01*
X111892200Y-68880888D01*
X111882712Y-68861169D01*
X111871556Y-68845165D01*
X111858373Y-68831865D01*
X111843964Y-68821808D01*
X111827873Y-68814476D01*
X111791542Y-68808478D01*
X111791067Y-68808477D01*
X111770231Y-68810021D01*
X111751052Y-68814577D01*
X111734063Y-68821797D01*
X111718815Y-68831658D01*
X111693863Y-68858903D01*
X111676513Y-68896696D01*
X111668222Y-68945852D01*
X111667822Y-68960591D01*
X111515094Y-68960591D01*
X111521072Y-68923839D01*
X111530824Y-68884351D01*
X111542084Y-68851862D01*
X111555612Y-68822830D01*
X111562553Y-68810724D01*
X111579867Y-68784547D01*
X111599058Y-68761226D01*
X111619537Y-68741237D01*
X111641648Y-68724039D01*
X111665005Y-68709827D01*
X111689801Y-68698400D01*
X111743466Y-68684015D01*
X111786573Y-68680787D01*
X111818087Y-68682330D01*
G37*
G36*
X110699643Y-68951554D02*
G01*
X110704675Y-68909012D01*
X110712957Y-68872113D01*
X110722370Y-68845577D01*
X110734652Y-68820728D01*
X110754500Y-68790842D01*
X110796335Y-68745839D01*
X110846755Y-68709837D01*
X110905472Y-68683317D01*
X110972205Y-68667058D01*
X111040118Y-68662029D01*
X111078223Y-68663580D01*
X111114610Y-68668188D01*
X111148600Y-68675615D01*
X111180819Y-68685853D01*
X111210831Y-68698650D01*
X111239007Y-68714058D01*
X111265166Y-68731914D01*
X111289400Y-68752227D01*
X111332038Y-68800189D01*
X111366646Y-68858086D01*
X111392579Y-68926230D01*
X111408842Y-69004919D01*
X111414200Y-69089893D01*
X111412650Y-69136404D01*
X111408049Y-69180656D01*
X111400678Y-69221640D01*
X111390538Y-69260304D01*
X111378042Y-69295720D01*
X111363043Y-69328777D01*
X111346037Y-69358720D01*
X111326766Y-69386272D01*
X111305719Y-69410913D01*
X111282609Y-69433120D01*
X111257801Y-69452611D01*
X111231092Y-69469599D01*
X111172368Y-69495749D01*
X111106317Y-69511248D01*
X111044612Y-69515511D01*
X111004841Y-69513962D01*
X110967013Y-69509373D01*
X110931876Y-69501999D01*
X110898795Y-69491861D01*
X110868433Y-69479312D01*
X110840224Y-69464260D01*
X110814671Y-69447093D01*
X110791366Y-69427653D01*
X110770616Y-69406270D01*
X110752224Y-69382808D01*
X110736327Y-69357437D01*
X110722929Y-69330143D01*
X110703889Y-69269795D01*
X110696273Y-69211526D01*
X110859769Y-69211526D01*
X110864388Y-69239762D01*
X110871818Y-69265530D01*
X110881457Y-69287739D01*
X110893522Y-69307572D01*
X110907443Y-69324435D01*
X110923517Y-69338955D01*
X110961521Y-69360585D01*
X111008187Y-69372440D01*
X111040118Y-69374436D01*
X111066775Y-69372884D01*
X111091785Y-69368274D01*
X111114452Y-69360934D01*
X111135477Y-69350836D01*
X111172162Y-69322879D01*
X111202311Y-69284073D01*
X111225590Y-69233294D01*
X111240828Y-69169110D01*
X111246210Y-69092140D01*
X111244661Y-69049967D01*
X111240071Y-69010753D01*
X111232902Y-68976065D01*
X111223095Y-68944292D01*
X111211363Y-68916811D01*
X111197369Y-68892149D01*
X111181945Y-68871296D01*
X111164572Y-68853167D01*
X111145965Y-68838290D01*
X111125640Y-68826097D01*
X111103936Y-68816756D01*
X111080656Y-68810158D01*
X111034500Y-68805399D01*
X111005091Y-68806969D01*
X110978450Y-68811703D01*
X110956516Y-68818809D01*
X110936770Y-68828605D01*
X110919906Y-68840497D01*
X110904939Y-68854895D01*
X110880311Y-68891708D01*
X110861995Y-68942289D01*
X110859769Y-68951554D01*
X110699643Y-68951554D01*
G37*
G36*
X104694316Y-54311292D02*
G01*
X104694316Y-53984251D01*
X104834316Y-53984251D01*
X104834316Y-54170169D01*
X104865094Y-54165514D01*
X104891049Y-54157758D01*
X104927960Y-54136544D01*
X104936166Y-54129868D01*
X104970403Y-54093673D01*
X104996062Y-54048800D01*
X105004923Y-54023959D01*
X105010785Y-53998194D01*
X105013688Y-53963002D01*
X105012145Y-53936232D01*
X105007595Y-53910638D01*
X104989876Y-53863224D01*
X104961075Y-53821265D01*
X104921487Y-53785605D01*
X104871436Y-53757500D01*
X104811568Y-53738511D01*
X104778196Y-53732938D01*
X104743006Y-53730269D01*
X104729048Y-53730043D01*
X104689080Y-53731593D01*
X104651767Y-53736193D01*
X104618543Y-53743406D01*
X104587957Y-53753290D01*
X104561226Y-53765197D01*
X104537084Y-53779432D01*
X104516369Y-53795277D01*
X104498205Y-53813169D01*
X104483014Y-53832544D01*
X104470388Y-53853767D01*
X104453177Y-53901254D01*
X104446907Y-53956210D01*
X104446898Y-53958508D01*
X104448455Y-53988418D01*
X104453102Y-54016554D01*
X104460433Y-54041787D01*
X104470543Y-54065188D01*
X104496187Y-54103002D01*
X104513635Y-54120621D01*
X104533941Y-54134673D01*
X104577910Y-54153365D01*
X104577910Y-54311292D01*
X104545744Y-54305893D01*
X104515265Y-54297632D01*
X104486770Y-54286701D01*
X104460067Y-54273136D01*
X104412363Y-54238507D01*
X104372373Y-54194111D01*
X104340617Y-54140079D01*
X104317956Y-54076487D01*
X104305532Y-54003538D01*
X104303528Y-53957384D01*
X104305076Y-53919417D01*
X104309658Y-53882885D01*
X104317142Y-53848030D01*
X104327451Y-53814762D01*
X104340465Y-53783229D01*
X104356113Y-53753441D01*
X104394999Y-53699377D01*
X104443596Y-53653120D01*
X104501467Y-53615359D01*
X104568171Y-53586936D01*
X104643191Y-53568816D01*
X104683706Y-53563934D01*
X104725884Y-53562028D01*
X104731295Y-53562004D01*
X104772555Y-53563548D01*
X104812410Y-53568107D01*
X104850889Y-53575603D01*
X104887698Y-53585911D01*
X104922739Y-53598929D01*
X104955853Y-53614536D01*
X104986820Y-53632557D01*
X105015619Y-53652925D01*
X105041946Y-53675359D01*
X105065889Y-53699885D01*
X105087119Y-53726113D01*
X105105772Y-53754175D01*
X105121557Y-53783605D01*
X105134592Y-53814617D01*
X105144661Y-53846729D01*
X105151819Y-53880186D01*
X105157010Y-53943951D01*
X105155426Y-53980533D01*
X105150592Y-54014482D01*
X105143268Y-54043264D01*
X105133059Y-54070225D01*
X105120457Y-54094552D01*
X105105029Y-54117511D01*
X105064835Y-54160386D01*
X105025998Y-54190343D01*
X105133514Y-54210517D01*
X105133514Y-54311292D01*
X104694316Y-54311292D01*
G37*
G36*
X105132000Y-54957998D02*
G01*
X105132000Y-55125988D01*
X104316033Y-55125988D01*
X104316033Y-54957998D01*
X104871197Y-54957998D01*
X104316033Y-54634279D01*
X104316033Y-54461843D01*
X105132000Y-54461843D01*
X105132000Y-54629834D01*
X104567896Y-54629834D01*
X105132000Y-54957998D01*
G37*
G36*
X105132000Y-55599233D02*
G01*
X105130418Y-55646719D01*
X105125597Y-55689612D01*
X105118525Y-55724070D01*
X105108741Y-55755420D01*
X105097148Y-55781977D01*
X105083081Y-55806242D01*
X105048217Y-55847763D01*
X105036842Y-55857984D01*
X104982436Y-55895516D01*
X104917344Y-55925156D01*
X104841738Y-55945691D01*
X104756270Y-55955732D01*
X104723479Y-55956512D01*
X104677777Y-55954959D01*
X104633758Y-55950341D01*
X104592296Y-55942873D01*
X104552792Y-55932560D01*
X104516291Y-55919811D01*
X104481962Y-55904463D01*
X104450855Y-55887126D01*
X104422077Y-55867440D01*
X104410115Y-55857984D01*
X104389164Y-55838133D01*
X104371040Y-55816421D01*
X104356331Y-55793804D01*
X104344031Y-55769088D01*
X104326210Y-55711829D01*
X104317052Y-55638690D01*
X104316033Y-55599233D01*
X104456033Y-55599233D01*
X104457598Y-55627254D01*
X104462298Y-55653019D01*
X104469505Y-55674996D01*
X104479448Y-55695022D01*
X104491651Y-55712507D01*
X104506417Y-55728178D01*
X104544028Y-55754274D01*
X104594720Y-55773729D01*
X104662136Y-55785658D01*
X104724602Y-55788522D01*
X104771299Y-55786958D01*
X104813488Y-55782262D01*
X104847887Y-55775286D01*
X104878589Y-55765721D01*
X104903479Y-55754685D01*
X104925278Y-55741470D01*
X104942904Y-55727109D01*
X104957825Y-55710831D01*
X104979117Y-55673685D01*
X104990331Y-55628538D01*
X104992048Y-55599233D01*
X104992048Y-55448047D01*
X104456033Y-55448047D01*
X104456033Y-55599233D01*
X104316033Y-55599233D01*
X104316033Y-55280057D01*
X105132000Y-55280057D01*
X105132000Y-55599233D01*
G37*
G36*
X94122853Y-53090501D02*
G01*
X93842853Y-52274534D01*
X94011967Y-52274534D01*
X94190068Y-52889049D01*
X94371492Y-52274534D01*
X94540606Y-52274534D01*
X94265100Y-53090501D01*
X94122853Y-53090501D01*
G37*
G36*
X93545555Y-52282340D02*
G01*
X93574580Y-52286961D01*
X93601864Y-52294453D01*
X93627730Y-52304807D01*
X93651800Y-52317810D01*
X93674243Y-52333505D01*
X93694857Y-52351755D01*
X93713621Y-52372566D01*
X93721415Y-52382734D01*
X93748193Y-52429159D01*
X93768856Y-52491180D01*
X93782856Y-52574780D01*
X93788600Y-52688573D01*
X93788631Y-52698735D01*
X93787057Y-52766988D01*
X93782289Y-52827980D01*
X93775390Y-52875805D01*
X93765915Y-52918190D01*
X93755256Y-52951471D01*
X93742481Y-52980563D01*
X93732602Y-52997932D01*
X93716184Y-53021558D01*
X93697730Y-53042662D01*
X93677516Y-53061061D01*
X93655517Y-53076876D01*
X93606565Y-53100567D01*
X93551242Y-53113366D01*
X93515323Y-53115511D01*
X93484335Y-53113954D01*
X93454819Y-53109307D01*
X93427598Y-53101861D01*
X93401886Y-53091563D01*
X93378076Y-53078654D01*
X93355843Y-53063038D01*
X93316248Y-53023704D01*
X93309280Y-53014736D01*
X93282596Y-52967454D01*
X93261653Y-52903759D01*
X93247507Y-52818737D01*
X93242064Y-52703180D01*
X93242138Y-52699858D01*
X93398868Y-52699858D01*
X93404663Y-52829179D01*
X93410887Y-52876177D01*
X93418963Y-52908506D01*
X93418994Y-52908588D01*
X93428313Y-52928615D01*
X93439741Y-52945559D01*
X93452272Y-52958552D01*
X93466489Y-52968679D01*
X93481744Y-52975666D01*
X93498424Y-52979837D01*
X93515323Y-52981129D01*
X93534074Y-52979574D01*
X93551282Y-52974944D01*
X93566302Y-52967652D01*
X93579806Y-52957618D01*
X93602312Y-52929096D01*
X93607158Y-52919726D01*
X93618645Y-52880927D01*
X93628546Y-52800338D01*
X93631827Y-52697611D01*
X93626041Y-52563496D01*
X93619866Y-52515540D01*
X93611871Y-52482770D01*
X93611653Y-52482189D01*
X93603067Y-52462333D01*
X93592290Y-52445356D01*
X93580102Y-52431938D01*
X93566188Y-52421335D01*
X93551142Y-52413818D01*
X93534712Y-52409133D01*
X93515323Y-52407353D01*
X93497420Y-52408905D01*
X93480731Y-52413511D01*
X93452040Y-52431100D01*
X93429071Y-52460102D01*
X93423488Y-52471003D01*
X93412259Y-52509270D01*
X93402358Y-52590502D01*
X93398868Y-52699858D01*
X93242138Y-52699858D01*
X93243638Y-52632993D01*
X93248404Y-52570685D01*
X93255266Y-52522264D01*
X93264681Y-52479477D01*
X93275295Y-52445828D01*
X93288015Y-52416376D01*
X93298045Y-52398414D01*
X93314467Y-52374781D01*
X93332927Y-52353667D01*
X93353148Y-52335260D01*
X93375153Y-52319436D01*
X93424111Y-52295734D01*
X93479428Y-52282931D01*
X93515323Y-52280787D01*
X93545555Y-52282340D01*
G37*
G36*
X92959280Y-52927004D02*
G01*
X93127270Y-52927004D01*
X93127270Y-53090501D01*
X92959280Y-53090501D01*
X92959280Y-52927004D01*
G37*
G36*
X92621345Y-52542859D02*
G01*
X92621345Y-53090501D01*
X92464542Y-53090501D01*
X92464542Y-52296467D01*
X92568687Y-52296467D01*
X92576554Y-52320313D01*
X92587081Y-52342001D01*
X92599710Y-52360821D01*
X92614785Y-52377627D01*
X92652092Y-52405087D01*
X92700661Y-52424931D01*
X92763124Y-52436468D01*
X92811708Y-52438714D01*
X92811708Y-52542859D01*
X92621345Y-52542859D01*
G37*
G36*
X92026077Y-52927004D02*
G01*
X92194067Y-52927004D01*
X92194067Y-53090501D01*
X92026077Y-53090501D01*
X92026077Y-52927004D01*
G37*
G36*
X91679149Y-52282340D02*
G01*
X91708174Y-52286961D01*
X91735458Y-52294453D01*
X91761324Y-52304807D01*
X91785394Y-52317810D01*
X91807836Y-52333505D01*
X91828451Y-52351755D01*
X91847214Y-52372566D01*
X91855009Y-52382734D01*
X91881787Y-52429159D01*
X91902449Y-52491180D01*
X91916450Y-52574780D01*
X91922193Y-52688573D01*
X91922225Y-52698735D01*
X91920650Y-52766988D01*
X91915883Y-52827980D01*
X91908984Y-52875805D01*
X91899509Y-52918190D01*
X91888850Y-52951471D01*
X91876075Y-52980563D01*
X91866195Y-52997932D01*
X91849778Y-53021558D01*
X91831324Y-53042662D01*
X91811110Y-53061061D01*
X91789111Y-53076876D01*
X91740159Y-53100567D01*
X91684836Y-53113366D01*
X91648917Y-53115511D01*
X91617929Y-53113954D01*
X91588413Y-53109307D01*
X91561192Y-53101861D01*
X91535480Y-53091563D01*
X91511670Y-53078654D01*
X91489437Y-53063038D01*
X91449842Y-53023704D01*
X91442874Y-53014736D01*
X91416190Y-52967454D01*
X91395247Y-52903759D01*
X91381101Y-52818737D01*
X91375658Y-52703180D01*
X91375732Y-52699858D01*
X91532462Y-52699858D01*
X91538257Y-52829179D01*
X91544481Y-52876177D01*
X91552556Y-52908506D01*
X91552588Y-52908588D01*
X91561907Y-52928615D01*
X91573335Y-52945559D01*
X91585866Y-52958552D01*
X91600083Y-52968679D01*
X91615338Y-52975666D01*
X91632018Y-52979837D01*
X91648917Y-52981129D01*
X91667668Y-52979574D01*
X91684876Y-52974944D01*
X91699896Y-52967652D01*
X91713400Y-52957618D01*
X91735906Y-52929096D01*
X91740752Y-52919726D01*
X91752239Y-52880927D01*
X91762140Y-52800338D01*
X91765421Y-52697611D01*
X91759635Y-52563496D01*
X91753460Y-52515540D01*
X91745465Y-52482770D01*
X91745246Y-52482189D01*
X91736661Y-52462333D01*
X91725884Y-52445356D01*
X91713696Y-52431938D01*
X91699782Y-52421335D01*
X91684736Y-52413818D01*
X91668306Y-52409133D01*
X91648917Y-52407353D01*
X91631014Y-52408905D01*
X91614325Y-52413511D01*
X91585634Y-52431100D01*
X91562665Y-52460102D01*
X91557082Y-52471003D01*
X91545852Y-52509270D01*
X91535952Y-52590502D01*
X91532462Y-52699858D01*
X91375732Y-52699858D01*
X91377232Y-52632993D01*
X91381998Y-52570685D01*
X91388860Y-52522264D01*
X91398275Y-52479477D01*
X91408889Y-52445828D01*
X91421609Y-52416376D01*
X91431639Y-52398414D01*
X91448061Y-52374781D01*
X91466521Y-52353667D01*
X91486741Y-52335260D01*
X91508747Y-52319436D01*
X91557705Y-52295734D01*
X91613022Y-52282931D01*
X91648917Y-52280787D01*
X91679149Y-52282340D01*
G37*
G36*
X94952693Y-69139670D02*
G01*
X94561806Y-69139670D01*
X94561806Y-68999670D01*
X94952693Y-68999670D01*
X94952693Y-68814534D01*
X94530445Y-68814534D01*
X94530445Y-68674534D01*
X95120683Y-68674534D01*
X95120683Y-69490501D01*
X94510320Y-69490501D01*
X94510320Y-69350549D01*
X94952693Y-69350549D01*
X94952693Y-69139670D01*
G37*
G36*
X94376524Y-69490501D02*
G01*
X94057347Y-69490501D01*
X94009862Y-69488919D01*
X93966969Y-69484098D01*
X93932511Y-69477026D01*
X93901161Y-69467242D01*
X93874604Y-69455649D01*
X93850339Y-69441582D01*
X93808818Y-69406718D01*
X93798596Y-69395343D01*
X93761064Y-69340937D01*
X93731425Y-69275845D01*
X93710889Y-69200239D01*
X93700849Y-69114771D01*
X93700096Y-69083103D01*
X93868059Y-69083103D01*
X93869623Y-69129800D01*
X93874318Y-69171989D01*
X93881295Y-69206388D01*
X93890859Y-69237090D01*
X93901896Y-69261980D01*
X93915111Y-69283779D01*
X93929472Y-69301405D01*
X93945749Y-69316326D01*
X93982895Y-69337618D01*
X94028043Y-69348832D01*
X94057347Y-69350549D01*
X94208533Y-69350549D01*
X94208533Y-68814534D01*
X94057347Y-68814534D01*
X94029327Y-68816099D01*
X94003561Y-68820799D01*
X93981584Y-68828006D01*
X93961559Y-68837949D01*
X93944073Y-68850152D01*
X93928403Y-68864918D01*
X93902307Y-68902529D01*
X93882851Y-68953221D01*
X93870922Y-69020637D01*
X93868059Y-69083103D01*
X93700096Y-69083103D01*
X93700069Y-69081980D01*
X93701622Y-69036278D01*
X93706240Y-68992259D01*
X93713708Y-68950797D01*
X93724021Y-68911293D01*
X93736770Y-68874792D01*
X93752118Y-68840463D01*
X93769454Y-68809356D01*
X93789141Y-68780578D01*
X93798596Y-68768616D01*
X93818447Y-68747665D01*
X93840160Y-68729541D01*
X93862776Y-68714832D01*
X93887493Y-68702532D01*
X93944752Y-68684711D01*
X94017890Y-68675553D01*
X94057347Y-68674534D01*
X94376524Y-68674534D01*
X94376524Y-69490501D01*
G37*
G36*
X93584053Y-68887123D02*
G01*
X93584053Y-69490501D01*
X93427249Y-69490501D01*
X93427249Y-69169858D01*
X93425686Y-69141555D01*
X93420997Y-69116488D01*
X93414094Y-69096663D01*
X93404654Y-69079446D01*
X93393496Y-69065661D01*
X93380106Y-69054151D01*
X93346733Y-69037960D01*
X93301788Y-69030585D01*
X93289496Y-69030298D01*
X93240208Y-69034792D01*
X93240208Y-68875741D01*
X93259259Y-68874618D01*
X93281531Y-68876167D01*
X93303017Y-68880756D01*
X93343388Y-68898853D01*
X93379838Y-68928941D01*
X93411278Y-68971419D01*
X93427249Y-69003431D01*
X93427249Y-68887123D01*
X93584053Y-68887123D01*
G37*
G36*
X92788066Y-68814534D02*
G01*
X92549538Y-68814534D01*
X92549538Y-68674534D01*
X93203621Y-68674534D01*
X93203621Y-68814534D01*
X92956056Y-68814534D01*
X92956056Y-69490501D01*
X92788066Y-69490501D01*
X92788066Y-68814534D01*
G37*
G36*
X92343967Y-68876168D02*
G01*
X92374942Y-68880769D01*
X92403478Y-68888140D01*
X92430234Y-68898282D01*
X92454828Y-68910930D01*
X92477578Y-68926137D01*
X92517286Y-68963911D01*
X92549300Y-69011730D01*
X92573050Y-69070065D01*
X92587449Y-69139452D01*
X92591255Y-69203711D01*
X92589705Y-69243346D01*
X92585111Y-69280680D01*
X92577819Y-69314624D01*
X92567812Y-69346228D01*
X92555578Y-69374572D01*
X92540927Y-69400557D01*
X92524388Y-69423538D01*
X92505681Y-69444133D01*
X92485217Y-69462001D01*
X92462774Y-69477421D01*
X92412364Y-69500590D01*
X92354202Y-69513285D01*
X92314626Y-69515511D01*
X92281556Y-69513966D01*
X92249711Y-69509407D01*
X92219204Y-69501927D01*
X92190262Y-69491646D01*
X92163147Y-69478725D01*
X92137919Y-69463244D01*
X92114942Y-69445483D01*
X92094143Y-69425424D01*
X92075903Y-69403467D01*
X92060102Y-69379477D01*
X92047057Y-69353923D01*
X92036687Y-69326592D01*
X92034626Y-69319824D01*
X92189182Y-69319824D01*
X92197923Y-69337644D01*
X92209054Y-69353286D01*
X92237581Y-69377438D01*
X92274032Y-69391868D01*
X92309008Y-69395685D01*
X92330532Y-69394143D01*
X92350458Y-69389595D01*
X92368287Y-69382355D01*
X92384355Y-69372470D01*
X92410658Y-69345346D01*
X92412078Y-69343271D01*
X92420725Y-69326945D01*
X92426957Y-69307378D01*
X92433803Y-69251130D01*
X92434451Y-69237270D01*
X92029008Y-69237270D01*
X92027884Y-69210403D01*
X92033325Y-69133124D01*
X92191429Y-69133124D01*
X92432204Y-69133124D01*
X92427138Y-69100662D01*
X92419393Y-69072601D01*
X92410286Y-69051396D01*
X92399058Y-69033585D01*
X92386921Y-69020242D01*
X92372995Y-69009696D01*
X92340765Y-68997125D01*
X92313502Y-68994492D01*
X92292153Y-68996048D01*
X92272718Y-69000685D01*
X92256138Y-69007861D01*
X92241334Y-69017713D01*
X92217389Y-69044968D01*
X92200281Y-69083963D01*
X92191429Y-69133124D01*
X92033325Y-69133124D01*
X92033755Y-69127016D01*
X92040891Y-69088453D01*
X92050414Y-69053900D01*
X92051429Y-69050863D01*
X92063227Y-69023123D01*
X92077492Y-68997471D01*
X92094062Y-68974040D01*
X92112833Y-68952863D01*
X92156513Y-68917590D01*
X92207684Y-68892315D01*
X92265519Y-68877840D01*
X92311255Y-68874618D01*
X92343967Y-68876168D01*
G37*
G36*
X91409120Y-69111045D02*
G01*
X91413142Y-69078413D01*
X91420063Y-69047910D01*
X91429487Y-69020378D01*
X91441494Y-68994997D01*
X91455668Y-68972318D01*
X91472172Y-68951831D01*
X91511441Y-68917994D01*
X91559231Y-68893434D01*
X91615873Y-68878665D01*
X91670069Y-68874618D01*
X91705105Y-68876172D01*
X91738059Y-68880798D01*
X91767807Y-68888112D01*
X91795535Y-68898180D01*
X91820550Y-68910582D01*
X91843572Y-68925503D01*
X91883088Y-68962258D01*
X91914547Y-69008699D01*
X91937770Y-69065674D01*
X91951893Y-69134337D01*
X91955686Y-69199558D01*
X91954133Y-69240633D01*
X91949516Y-69279144D01*
X91942256Y-69313642D01*
X91932282Y-69345648D01*
X91920177Y-69374030D01*
X91905658Y-69399992D01*
X91889317Y-69422808D01*
X91870797Y-69443244D01*
X91850496Y-69460973D01*
X91828172Y-69476301D01*
X91777582Y-69499571D01*
X91718334Y-69512771D01*
X91672316Y-69515511D01*
X91639752Y-69513964D01*
X91608842Y-69509387D01*
X91580131Y-69502013D01*
X91553237Y-69491887D01*
X91528585Y-69479288D01*
X91505909Y-69464187D01*
X91485468Y-69446824D01*
X91467170Y-69427172D01*
X91437428Y-69381396D01*
X91417342Y-69327148D01*
X91409120Y-69280256D01*
X91559231Y-69280256D01*
X91568638Y-69312249D01*
X91580079Y-69338150D01*
X91590967Y-69354745D01*
X91603600Y-69367845D01*
X91616763Y-69376875D01*
X91631676Y-69383307D01*
X91668671Y-69388958D01*
X91672316Y-69388993D01*
X91692078Y-69387444D01*
X91710348Y-69382854D01*
X91726644Y-69375548D01*
X91741422Y-69365520D01*
X91766520Y-69337153D01*
X91785476Y-69296349D01*
X91796780Y-69241119D01*
X91798882Y-69199558D01*
X91797353Y-69162724D01*
X91792897Y-69128134D01*
X91785801Y-69096767D01*
X91776229Y-69068915D01*
X91768645Y-69052768D01*
X91759253Y-69038423D01*
X91747642Y-69026337D01*
X91718212Y-69009084D01*
X91680058Y-69001425D01*
X91671192Y-69001184D01*
X91647756Y-69002790D01*
X91627501Y-69007780D01*
X91612698Y-69014797D01*
X91599776Y-69024551D01*
X91579317Y-69052062D01*
X91562789Y-69096488D01*
X91559231Y-69111045D01*
X91409120Y-69111045D01*
G37*
G36*
X91299699Y-68674534D02*
G01*
X91299699Y-69490501D01*
X91142895Y-69490501D01*
X91142895Y-69126872D01*
X91141363Y-69106303D01*
X91136896Y-69087170D01*
X91129659Y-69069613D01*
X91119854Y-69053873D01*
X91093185Y-69028504D01*
X91076688Y-69019291D01*
X91058367Y-69012677D01*
X91021946Y-69007925D01*
X91001697Y-69009488D01*
X90983644Y-69014175D01*
X90968883Y-69021271D01*
X90955905Y-69031025D01*
X90943544Y-69044953D01*
X90934011Y-69061150D01*
X90928481Y-69078810D01*
X90925616Y-69120179D01*
X90925616Y-69490501D01*
X90768861Y-69490501D01*
X90768861Y-69084227D01*
X90770430Y-69049590D01*
X90775155Y-69018219D01*
X90782214Y-68992490D01*
X90791930Y-68969369D01*
X90803486Y-68950002D01*
X90817421Y-68932859D01*
X90830459Y-68920584D01*
X90868880Y-68896142D01*
X90917519Y-68879755D01*
X90965965Y-68874618D01*
X90995295Y-68876196D01*
X91022548Y-68880989D01*
X91045948Y-68888338D01*
X91067780Y-68898569D01*
X91106171Y-68927037D01*
X91140539Y-68968501D01*
X91142895Y-68972071D01*
X91142895Y-68674534D01*
X91299699Y-68674534D01*
G37*
D12*
%TO.C,R46*%
X99548303Y-65621271D02*
X99212770Y-65956804D01*
X100287230Y-66360198D02*
X99951697Y-66695731D01*
%TO.C,TP3*%
X109400000Y-56958501D02*
G75*
G02*
X108000000Y-56958501I-700000J0D01*
G01*
X108000000Y-56958501D02*
G75*
G02*
X109400000Y-56958501I700000J0D01*
G01*
%TO.C,TP1*%
X107400000Y-56958501D02*
G75*
G02*
X106000000Y-56958501I-700000J0D01*
G01*
X106000000Y-56958501D02*
G75*
G02*
X107400000Y-56958501I700000J0D01*
G01*
%TO.C,TP2*%
X105400000Y-56958501D02*
G75*
G02*
X104000000Y-56958501I-700000J0D01*
G01*
X104000000Y-56958501D02*
G75*
G02*
X105400000Y-56958501I700000J0D01*
G01*
D13*
%TO.C,U2*%
X110860000Y-53508501D02*
X112800000Y-53508501D01*
X110860000Y-54678501D02*
X110860000Y-53508501D01*
X110860000Y-54678501D02*
X110860000Y-54048501D01*
X110860000Y-60008501D02*
X110860000Y-58838501D01*
X110860000Y-60008501D02*
X112800000Y-60008501D01*
X115160000Y-58538501D02*
X115160000Y-54978501D01*
D11*
X110370000Y-54468501D02*
G75*
G02*
X110170000Y-54468501I-100000J0D01*
G01*
X110170000Y-54468501D02*
G75*
G02*
X110370000Y-54468501I100000J0D01*
G01*
D13*
%TO.C,CN2*%
X110800000Y-63598501D02*
X110800000Y-64668501D01*
X110800000Y-66838501D02*
X110800000Y-68038501D01*
X110800000Y-68038501D02*
X112700000Y-68038501D01*
X112700000Y-63598501D02*
X110800000Y-63598501D01*
X115240000Y-64738501D02*
X115240000Y-66768501D01*
%TO.C,CN1*%
X90660000Y-56978501D02*
X90660000Y-54948501D01*
X93200000Y-58118501D02*
X95100000Y-58118501D01*
X95100000Y-53678501D02*
X93200000Y-53678501D01*
X95100000Y-54878501D02*
X95100000Y-53678501D01*
X95100000Y-58118501D02*
X95100000Y-57048501D01*
%TO.C,U3*%
X90740000Y-63178501D02*
X90740000Y-66738501D01*
X95040000Y-61708501D02*
X93100000Y-61708501D01*
X95040000Y-61708501D02*
X95040000Y-62878501D01*
X95040000Y-67038501D02*
X95040000Y-67668501D01*
X95040000Y-67038501D02*
X95040000Y-68208501D01*
X95040000Y-68208501D02*
X93100000Y-68208501D01*
D11*
X95730000Y-67248501D02*
G75*
G02*
X95530000Y-67248501I-100000J0D01*
G01*
X95530000Y-67248501D02*
G75*
G02*
X95730000Y-67248501I100000J0D01*
G01*
D14*
%TO.C,G\u002A\u002A\u002A*%
G36*
X113984047Y-52523273D02*
G01*
X114010417Y-52526725D01*
X114033104Y-52535564D01*
X114053617Y-52550334D01*
X114062995Y-52559564D01*
X114079704Y-52582253D01*
X114090809Y-52608378D01*
X114096529Y-52638559D01*
X114097083Y-52673415D01*
X114095483Y-52690638D01*
X114088238Y-52721863D01*
X114075710Y-52748312D01*
X114058013Y-52769828D01*
X114035258Y-52786256D01*
X114007560Y-52797439D01*
X114002962Y-52798536D01*
X113987538Y-52800552D01*
X113972568Y-52800660D01*
X113958680Y-52799032D01*
X113931872Y-52791859D01*
X113909562Y-52779342D01*
X113891008Y-52760990D01*
X113875470Y-52736313D01*
X113871510Y-52728388D01*
X113866023Y-52715912D01*
X113862689Y-52704625D01*
X113860789Y-52691716D01*
X113859600Y-52674372D01*
X113859225Y-52654722D01*
X113862225Y-52622831D01*
X113870195Y-52595431D01*
X113883385Y-52571797D01*
X113902046Y-52551206D01*
X113907501Y-52546541D01*
X113928381Y-52533135D01*
X113951403Y-52525563D01*
X113978317Y-52523181D01*
X113984047Y-52523273D01*
G37*
G36*
X113673951Y-52760586D02*
G01*
X113673951Y-53139303D01*
X112803431Y-53138218D01*
X111932910Y-53137132D01*
X111897767Y-53129050D01*
X111881772Y-53125171D01*
X111826437Y-53108167D01*
X111776010Y-53086509D01*
X111729615Y-53059713D01*
X111686378Y-53027290D01*
X111645424Y-52988755D01*
X111629776Y-52971790D01*
X111593149Y-52925365D01*
X111563326Y-52876502D01*
X111540242Y-52825041D01*
X111523834Y-52770821D01*
X111514036Y-52713680D01*
X111510785Y-52653460D01*
X111510970Y-52638438D01*
X111515167Y-52583798D01*
X111525162Y-52532195D01*
X111526901Y-52526805D01*
X111883847Y-52526805D01*
X111912002Y-52526884D01*
X111927860Y-52527567D01*
X111948701Y-52531567D01*
X111966752Y-52539899D01*
X111984356Y-52553423D01*
X112000993Y-52573075D01*
X112013237Y-52597226D01*
X112020976Y-52624501D01*
X112024171Y-52653589D01*
X112022781Y-52683181D01*
X112016766Y-52711967D01*
X112006087Y-52738637D01*
X111990703Y-52761880D01*
X111979853Y-52772980D01*
X111962617Y-52784321D01*
X111941776Y-52791218D01*
X111915878Y-52794298D01*
X111883847Y-52795830D01*
X111884826Y-52868757D01*
X111885806Y-52941684D01*
X111920228Y-52942208D01*
X111937069Y-52942195D01*
X111972822Y-52939799D01*
X111991613Y-52936248D01*
X112242710Y-52936248D01*
X112333295Y-52936248D01*
X112423880Y-52936248D01*
X112423880Y-52659059D01*
X112460114Y-52659059D01*
X112460114Y-52936248D01*
X112550699Y-52936248D01*
X112641284Y-52936248D01*
X112641284Y-52659059D01*
X112641284Y-52384211D01*
X112666648Y-52384211D01*
X112666879Y-52385003D01*
X112669118Y-52391480D01*
X112673583Y-52404026D01*
X112680090Y-52422129D01*
X112688452Y-52445277D01*
X112698483Y-52472958D01*
X112709998Y-52504657D01*
X112722811Y-52539864D01*
X112736735Y-52578065D01*
X112751585Y-52618748D01*
X112767175Y-52661400D01*
X112867702Y-52936248D01*
X112958309Y-52936244D01*
X113048916Y-52936240D01*
X113101219Y-52765890D01*
X113102887Y-52760464D01*
X113113164Y-52727262D01*
X113122823Y-52696459D01*
X113131651Y-52668703D01*
X113139437Y-52644642D01*
X113145969Y-52624924D01*
X113151036Y-52610198D01*
X113154426Y-52601111D01*
X113155927Y-52598312D01*
X113155966Y-52598366D01*
X113157624Y-52602728D01*
X113161183Y-52613288D01*
X113166425Y-52629365D01*
X113173133Y-52650278D01*
X113181088Y-52675346D01*
X113190075Y-52703888D01*
X113199876Y-52735222D01*
X113210273Y-52768666D01*
X113262212Y-52936248D01*
X113353039Y-52936186D01*
X113443866Y-52936124D01*
X113544064Y-52659902D01*
X113644262Y-52383681D01*
X113553375Y-52382711D01*
X113542313Y-52382607D01*
X113512701Y-52382510D01*
X113489952Y-52382762D01*
X113473781Y-52383374D01*
X113463904Y-52384353D01*
X113460037Y-52385709D01*
X113459682Y-52386576D01*
X113457453Y-52393329D01*
X113453468Y-52406110D01*
X113447924Y-52424259D01*
X113441021Y-52447114D01*
X113432958Y-52474014D01*
X113423934Y-52504298D01*
X113414149Y-52537306D01*
X113403801Y-52572376D01*
X113399279Y-52587700D01*
X113389190Y-52621611D01*
X113379748Y-52652974D01*
X113371148Y-52681159D01*
X113363588Y-52705536D01*
X113357264Y-52725474D01*
X113352373Y-52740345D01*
X113349111Y-52749517D01*
X113347674Y-52752360D01*
X113346831Y-52750237D01*
X113344089Y-52741785D01*
X113339725Y-52727591D01*
X113333950Y-52708375D01*
X113326979Y-52684854D01*
X113319027Y-52657748D01*
X113310306Y-52627773D01*
X113301030Y-52595649D01*
X113295654Y-52576971D01*
X113286178Y-52544100D01*
X113277145Y-52512824D01*
X113268814Y-52484038D01*
X113261444Y-52458637D01*
X113255295Y-52437517D01*
X113250627Y-52421572D01*
X113247698Y-52411698D01*
X113238666Y-52381741D01*
X113151250Y-52382711D01*
X113063834Y-52383681D01*
X113046453Y-52443467D01*
X113043369Y-52454077D01*
X113028092Y-52506610D01*
X113014682Y-52552667D01*
X113003011Y-52592656D01*
X112992949Y-52626984D01*
X112984368Y-52656060D01*
X112977138Y-52680290D01*
X112971132Y-52700083D01*
X112966219Y-52715845D01*
X112962271Y-52727983D01*
X112959159Y-52736907D01*
X112956754Y-52743022D01*
X112954927Y-52746737D01*
X112953550Y-52748460D01*
X112952493Y-52748596D01*
X112951627Y-52747555D01*
X112950824Y-52745744D01*
X112950583Y-52745090D01*
X112948332Y-52738135D01*
X112944306Y-52725091D01*
X112938716Y-52706663D01*
X112931775Y-52683559D01*
X112923694Y-52656485D01*
X112914685Y-52626148D01*
X112904959Y-52593254D01*
X112894728Y-52558510D01*
X112842822Y-52381869D01*
X112754735Y-52381869D01*
X112736734Y-52381918D01*
X112714127Y-52382134D01*
X112694830Y-52382498D01*
X112679829Y-52382982D01*
X112670107Y-52383562D01*
X112666648Y-52384211D01*
X112641284Y-52384211D01*
X112641284Y-52381869D01*
X112550699Y-52381869D01*
X112460114Y-52381869D01*
X112460114Y-52659059D01*
X112423880Y-52659059D01*
X112423880Y-52381869D01*
X112333295Y-52381869D01*
X112242710Y-52381869D01*
X112242710Y-52659059D01*
X112242710Y-52660870D01*
X112242710Y-52936248D01*
X111991613Y-52936248D01*
X112005377Y-52933647D01*
X112037124Y-52923195D01*
X112070452Y-52907897D01*
X112095361Y-52893240D01*
X112127295Y-52867559D01*
X112154078Y-52836891D01*
X112175361Y-52801590D01*
X112180822Y-52790251D01*
X112189677Y-52770087D01*
X112196073Y-52751787D01*
X112200391Y-52733533D01*
X112203008Y-52713508D01*
X112204303Y-52689892D01*
X112204655Y-52660870D01*
X112204161Y-52630769D01*
X112202296Y-52604173D01*
X112198655Y-52581106D01*
X112192833Y-52559693D01*
X112184424Y-52538059D01*
X112173024Y-52514328D01*
X112167304Y-52504029D01*
X112147148Y-52475581D01*
X112122210Y-52448917D01*
X112094284Y-52425806D01*
X112065164Y-52408017D01*
X112058702Y-52404858D01*
X112028546Y-52392215D01*
X111998839Y-52383733D01*
X111967163Y-52378853D01*
X111931098Y-52377016D01*
X111885806Y-52376434D01*
X111884827Y-52451619D01*
X111883847Y-52526805D01*
X111526901Y-52526805D01*
X111541305Y-52482164D01*
X111563949Y-52432240D01*
X111571159Y-52418783D01*
X111602844Y-52368988D01*
X111639764Y-52324077D01*
X111681639Y-52284265D01*
X111728186Y-52249766D01*
X111779125Y-52220797D01*
X111834175Y-52197574D01*
X111893053Y-52180310D01*
X111895546Y-52179754D01*
X111898789Y-52179132D01*
X111902562Y-52178553D01*
X111907115Y-52178015D01*
X111912696Y-52177517D01*
X111919554Y-52177057D01*
X111927938Y-52176633D01*
X111938095Y-52176245D01*
X111950276Y-52175891D01*
X111964729Y-52175568D01*
X111981702Y-52175276D01*
X112001445Y-52175014D01*
X112024205Y-52174779D01*
X112050233Y-52174570D01*
X112079776Y-52174385D01*
X112113083Y-52174224D01*
X112150404Y-52174084D01*
X112191986Y-52173963D01*
X112238079Y-52173862D01*
X112288931Y-52173777D01*
X112344791Y-52173708D01*
X112405908Y-52173652D01*
X112472530Y-52173609D01*
X112544907Y-52173577D01*
X112623287Y-52173553D01*
X112707918Y-52173538D01*
X112799051Y-52173529D01*
X112896932Y-52173525D01*
X113001812Y-52173524D01*
X114081583Y-52173524D01*
X114120622Y-52183439D01*
X114144213Y-52189966D01*
X114199308Y-52209937D01*
X114250190Y-52235595D01*
X114297406Y-52267241D01*
X114341503Y-52305177D01*
X114380429Y-52346850D01*
X114415217Y-52393848D01*
X114443478Y-52443951D01*
X114465271Y-52497281D01*
X114480655Y-52553962D01*
X114489690Y-52614119D01*
X114491321Y-52667635D01*
X114486335Y-52722765D01*
X114474877Y-52778243D01*
X114457108Y-52832982D01*
X114447285Y-52856399D01*
X114420897Y-52906166D01*
X114388760Y-52952228D01*
X114351424Y-52994177D01*
X114309437Y-53031605D01*
X114263349Y-53064102D01*
X114213710Y-53091261D01*
X114161068Y-53112672D01*
X114105972Y-53127927D01*
X114048973Y-53136618D01*
X114045023Y-53136861D01*
X114033485Y-53137265D01*
X114016661Y-53137658D01*
X113995765Y-53138019D01*
X113972011Y-53138324D01*
X113946612Y-53138549D01*
X113858745Y-53139159D01*
X113858745Y-53003658D01*
X113858745Y-52868158D01*
X113880204Y-52889156D01*
X113884772Y-52893480D01*
X113913802Y-52915229D01*
X113946623Y-52930874D01*
X113983004Y-52940325D01*
X114022711Y-52943495D01*
X114060316Y-52941218D01*
X114101863Y-52932605D01*
X114141369Y-52917389D01*
X114172130Y-52899190D01*
X114201725Y-52874038D01*
X114227215Y-52843812D01*
X114247695Y-52809430D01*
X114255691Y-52792329D01*
X114264568Y-52770019D01*
X114271100Y-52747921D01*
X114275983Y-52723549D01*
X114279913Y-52694420D01*
X114281911Y-52663641D01*
X114280405Y-52622596D01*
X114274553Y-52582093D01*
X114264662Y-52544078D01*
X114251037Y-52510500D01*
X114230625Y-52476352D01*
X114203902Y-52444591D01*
X114172590Y-52418286D01*
X114137033Y-52397725D01*
X114097575Y-52383192D01*
X114097044Y-52383047D01*
X114076269Y-52379060D01*
X114051488Y-52376849D01*
X114024914Y-52376381D01*
X113998761Y-52377628D01*
X113975244Y-52380558D01*
X113956576Y-52385140D01*
X113937386Y-52392749D01*
X113906045Y-52410335D01*
X113877767Y-52433733D01*
X113858745Y-52452278D01*
X113858745Y-52417073D01*
X113858745Y-52381869D01*
X113766348Y-52381869D01*
X113673951Y-52381869D01*
X113673951Y-52383681D01*
X113673951Y-52760586D01*
G37*
%TD*%
M02*
