M48
; DRILL file {KiCad 9.0.1-9.0.1-0~ubuntu24.04.1} date 2025-04-23T13:35:58+0200
; FORMAT={-:-/ absolute / metric / decimal}
; #@! TF.CreationDate,2025-04-23T13:35:58+02:00
; #@! TF.GenerationSoftware,Kicad,Pcbnew,9.0.1-9.0.1-0~ubuntu24.04.1
; #@! TF.FileFunction,Plated,1,4,PTH
FMAT,2
METRIC
; #@! TA.AperFunction,Plated,PTH,ViaDrill
T1C0.150
%
G90
G05
T1
X90.77Y-58.61
X90.77Y-59.77
X91.611Y-51.77
X91.611Y-53.77
X91.611Y-54.61
X91.611Y-65.77
X91.611Y-67.77
X91.611Y-55.088
X91.721Y-57.191
X91.721Y-59.191
X91.721Y-61.191
X91.721Y-63.191
X92.77Y-54.61
X92.77Y-57.77
X93.46Y-57.191
X93.46Y-59.191
X93.46Y-61.191
X93.46Y-63.191
X93.611Y-51.77
X93.611Y-52.61
X93.611Y-53.77
X93.611Y-65.77
X93.611Y-67.77
X93.611Y-55.088
X94.77Y-62.61
X94.77Y-63.77
X95.611Y-51.77
X95.611Y-53.77
X95.611Y-55.77
X95.611Y-57.77
X95.611Y-59.77
X95.611Y-61.77
X95.611Y-63.77
X95.611Y-65.77
X95.611Y-66.611
X95.611Y-67.77
X96.77Y-62.61
X96.77Y-63.77
X97.611Y-51.77
X97.611Y-53.77
X97.611Y-55.77
X97.611Y-57.77
X97.611Y-59.77
X97.611Y-60.61
X97.611Y-61.77
X97.611Y-63.77
X97.611Y-65.77
X97.611Y-67.77
X98.77Y-58.61
X98.77Y-59.77
X99.611Y-51.77
X99.611Y-53.77
X99.611Y-55.77
X99.611Y-57.77
X99.611Y-58.61
X99.611Y-59.77
X99.611Y-61.77
X99.611Y-63.77
X99.611Y-65.77
X99.611Y-67.77
X100.77Y-57.77
X100.77Y-64.611
X101.611Y-51.77
X101.611Y-53.77
X101.611Y-55.77
X101.611Y-57.77
X101.611Y-59.77
X101.611Y-61.77
X101.611Y-63.77
X101.611Y-64.611
X101.611Y-65.77
X101.611Y-67.77
X102.77Y-62.61
X102.77Y-63.77
X103.611Y-51.77
X103.611Y-53.77
X103.611Y-55.77
X103.611Y-57.77
X103.611Y-59.77
X103.611Y-61.77
X103.611Y-62.61
X103.611Y-63.77
X103.611Y-65.77
X103.611Y-67.77
X104.77Y-61.77
X104.77Y-62.61
X105.611Y-51.77
X105.611Y-53.77
X105.611Y-55.77
X105.611Y-57.77
X105.611Y-59.77
X105.611Y-61.77
X105.611Y-62.61
X105.611Y-63.77
X105.611Y-65.77
X105.611Y-67.77
X106.77Y-60.61
X106.77Y-61.77
X107.611Y-51.77
X107.611Y-53.77
X107.611Y-55.77
X107.611Y-57.77
X107.611Y-58.61
X107.611Y-59.77
X107.611Y-61.77
X107.611Y-63.77
X107.611Y-65.77
X107.611Y-67.77
X108.77Y-58.61
X108.77Y-59.77
X109.611Y-51.77
X109.611Y-53.77
X109.611Y-55.77
X109.611Y-57.77
X109.611Y-58.61
X109.611Y-59.77
X109.611Y-61.77
X109.611Y-63.77
X109.611Y-65.77
X109.611Y-67.77
X110.77Y-56.61
X110.77Y-57.77
X111.611Y-51.77
X111.611Y-53.77
X111.611Y-55.77
X111.611Y-56.61
X111.611Y-57.77
X111.611Y-59.77
X111.611Y-61.77
X111.611Y-63.77
X111.611Y-65.77
X111.611Y-67.77
X112.77Y-53.77
X112.77Y-54.61
X113.611Y-51.77
X113.611Y-53.77
X113.611Y-56.61
X113.611Y-57.77
X113.611Y-59.77
X113.611Y-61.77
X113.611Y-63.77
X113.611Y-65.77
X113.611Y-67.77
X113.611Y-55.088
X114.77Y-52.61
X114.77Y-53.77
X115.611Y-51.77
X115.611Y-53.77
X115.611Y-55.77
X115.611Y-56.61
X115.611Y-57.77
X115.611Y-59.77
X115.611Y-61.77
X115.611Y-63.77
X115.611Y-65.77
X115.611Y-67.77
M30
