G04 #@! TF.GenerationSoftware,KiCad,Pcbnew,9.0.1-9.0.1-0~ubuntu24.04.1*
G04 #@! TF.CreationDate,2025-04-23T13:35:13+02:00*
G04 #@! TF.ProjectId,ILM139C,494c4d31-3339-4432-9e6b-696361645f70,rev?*
G04 #@! TF.SameCoordinates,Original*
G04 #@! TF.FileFunction,Copper,L4,Bot*
G04 #@! TF.FilePolarity,Positive*
%FSLAX46Y46*%
G04 Gerber Fmt 4.6, Leading zero omitted, Abs format (unit mm)*
G04 Created by KiCad (PCBNEW 9.0.1-9.0.1-0~ubuntu24.04.1) date 2025-04-23 13:35:13*
%MOMM*%
%LPD*%
G01*
G04 APERTURE LIST*
G04 #@! TA.AperFunction,SMDPad,CuDef*
%ADD10R,0.650000X0.200000*%
G04 #@! TD*
G04 #@! TA.AperFunction,SMDPad,CuDef*
%ADD11R,0.530000X0.450000*%
G04 #@! TD*
G04 #@! TA.AperFunction,ViaPad*
%ADD12C,0.250000*%
G04 #@! TD*
G04 #@! TA.AperFunction,Conductor*
%ADD13C,0.127000*%
G04 #@! TD*
G04 APERTURE END LIST*
D10*
X93460500Y-56390500D03*
X93460500Y-56790500D03*
X93460500Y-57190500D03*
X93460500Y-57590500D03*
X93460500Y-57990500D03*
X93460500Y-58390500D03*
X93460500Y-58790500D03*
X93460500Y-59190500D03*
X93460500Y-59590500D03*
X93460500Y-59990500D03*
X93460500Y-60390500D03*
X93460500Y-60790500D03*
X93460500Y-61190500D03*
X93460500Y-61590500D03*
X93460500Y-61990500D03*
X93460500Y-62390500D03*
X93460500Y-62790500D03*
X93460500Y-63190500D03*
X93460500Y-63590500D03*
X93460500Y-63990500D03*
X91720500Y-63990500D03*
X91720500Y-63590500D03*
X91720500Y-63190500D03*
X91720500Y-62790500D03*
X91720500Y-62390500D03*
X91720500Y-61990500D03*
X91720500Y-61590500D03*
X91720500Y-61190500D03*
X91720500Y-60790500D03*
X91720500Y-60390500D03*
X91720500Y-59990500D03*
X91720500Y-59590500D03*
X91720500Y-59190500D03*
X91720500Y-58790500D03*
X91720500Y-58390500D03*
X91720500Y-57990500D03*
X91720500Y-57590500D03*
X91720500Y-57190500D03*
X91720500Y-56790500D03*
X91720500Y-56390500D03*
D11*
X92020500Y-55580500D03*
X93160500Y-55580500D03*
X93160500Y-64800500D03*
X92020500Y-64800500D03*
D10*
X114660500Y-56390500D03*
X114660500Y-56790500D03*
X114660500Y-57190500D03*
X114660500Y-57590500D03*
X114660500Y-57990500D03*
X114660500Y-58390500D03*
X114660500Y-58790500D03*
X114660500Y-59190500D03*
X114660500Y-59590500D03*
X114660500Y-59990500D03*
X114660500Y-60390500D03*
X114660500Y-60790500D03*
X114660500Y-61190500D03*
X114660500Y-61590500D03*
X114660500Y-61990500D03*
X114660500Y-62390500D03*
X114660500Y-62790500D03*
X114660500Y-63190500D03*
X114660500Y-63590500D03*
X114660500Y-63990500D03*
X112920500Y-63990500D03*
X112920500Y-63590500D03*
X112920500Y-63190500D03*
X112920500Y-62790500D03*
X112920500Y-62390500D03*
X112920500Y-61990500D03*
X112920500Y-61590500D03*
X112920500Y-61190500D03*
X112920500Y-60790500D03*
X112920500Y-60390500D03*
X112920500Y-59990500D03*
X112920500Y-59590500D03*
X112920500Y-59190500D03*
X112920500Y-58790500D03*
X112920500Y-58390500D03*
X112920500Y-57990500D03*
X112920500Y-57590500D03*
X112920500Y-57190500D03*
X112920500Y-56790500D03*
X112920500Y-56390500D03*
D11*
X113220500Y-55580500D03*
X114360500Y-55580500D03*
X114360500Y-64800500D03*
X113220500Y-64800500D03*
D12*
X93610500Y-52610500D03*
X100770500Y-64610500D03*
X101610500Y-64610500D03*
X102770500Y-63770500D03*
X102770500Y-62610500D03*
X103610500Y-62610500D03*
X104770500Y-61770500D03*
X104770500Y-62610500D03*
X105610500Y-62610500D03*
X106770500Y-61770500D03*
X106770500Y-60610500D03*
X107610500Y-58610500D03*
X108770500Y-59770500D03*
X108770500Y-58610500D03*
X109610500Y-58610500D03*
X110770500Y-57770500D03*
X110770500Y-56610500D03*
X111610500Y-56610500D03*
X112770500Y-53770500D03*
X112770500Y-54610500D03*
X113610500Y-56610500D03*
X115610500Y-56610500D03*
X114770500Y-52610500D03*
X114770500Y-53770500D03*
X92770500Y-54610500D03*
X92770500Y-57770500D03*
X100770500Y-57770500D03*
X99610500Y-58610500D03*
X98770500Y-58610500D03*
X98770500Y-59770500D03*
X97610500Y-60610500D03*
X96770500Y-62610500D03*
X96770500Y-63770500D03*
X94770500Y-62610500D03*
X94770500Y-63770500D03*
X95610500Y-66610500D03*
X90770500Y-59770500D03*
X90770500Y-58610500D03*
X91610500Y-54610500D03*
X93460500Y-57190500D03*
X91720500Y-57190500D03*
X113610500Y-63770500D03*
X113610750Y-55087502D03*
X93460500Y-63190500D03*
X91720500Y-63190500D03*
X93460500Y-61190500D03*
X91720500Y-61190500D03*
X93460500Y-59190500D03*
X91720500Y-59190500D03*
X93610750Y-55087502D03*
X91610750Y-55087502D03*
X115610500Y-67770500D03*
X113610500Y-67770500D03*
X111610500Y-67770500D03*
X109610500Y-67770500D03*
X107610500Y-67770500D03*
X105610500Y-67770500D03*
X103610500Y-67770500D03*
X101610500Y-67770500D03*
X99610500Y-67770500D03*
X97610500Y-67770500D03*
X95610500Y-67770500D03*
X93610500Y-67770500D03*
X91610500Y-67770500D03*
X91610500Y-65770500D03*
X93610500Y-65770500D03*
X95610500Y-65770500D03*
X97610500Y-65770500D03*
X99610500Y-65770500D03*
X101610500Y-65770500D03*
X103610500Y-65770500D03*
X105610500Y-65770500D03*
X107610500Y-65770500D03*
X109610500Y-65770500D03*
X111610500Y-65770500D03*
X113610500Y-65770500D03*
X115610500Y-65770500D03*
X115610500Y-63770500D03*
X111610500Y-63770500D03*
X109610500Y-63770500D03*
X107610500Y-63770500D03*
X105610500Y-63770500D03*
X103610500Y-63770500D03*
X101610500Y-63770500D03*
X99610500Y-63770500D03*
X97610500Y-63770500D03*
X95610500Y-63770500D03*
X95610500Y-61770500D03*
X97610500Y-61770500D03*
X99610500Y-61770500D03*
X101610500Y-61770500D03*
X103610500Y-61770500D03*
X105610500Y-61770500D03*
X107610500Y-61770500D03*
X109610500Y-61770500D03*
X111610500Y-61770500D03*
X113610500Y-61770500D03*
X115610500Y-61770500D03*
X115610500Y-59770500D03*
X113610500Y-57770500D03*
X113610500Y-59770500D03*
X111610500Y-59770500D03*
X109610500Y-59770500D03*
X107610500Y-59770500D03*
X105610500Y-59770500D03*
X103610500Y-59770500D03*
X101610500Y-59770500D03*
X99610500Y-59770500D03*
X97610500Y-59770500D03*
X95610500Y-59770500D03*
X95610500Y-57770500D03*
X97610500Y-57770500D03*
X99610500Y-57770500D03*
X101610500Y-57770500D03*
X103610500Y-57770500D03*
X105610500Y-57770500D03*
X107610500Y-57770500D03*
X109610500Y-57770500D03*
X111610500Y-57770500D03*
X115610500Y-57770500D03*
X115610500Y-55770500D03*
X111610500Y-55770500D03*
X109610500Y-55770500D03*
X107610500Y-55770500D03*
X105610500Y-55770500D03*
X103610500Y-55770500D03*
X101610500Y-55770500D03*
X99610500Y-55770500D03*
X97610500Y-55770500D03*
X95610500Y-55770500D03*
X91610500Y-53770500D03*
X93610500Y-53770500D03*
X95610500Y-53770500D03*
X97610500Y-53770500D03*
X99610500Y-53770500D03*
X101610500Y-53770500D03*
X103610500Y-53770500D03*
X105610500Y-53770500D03*
X107610500Y-53770500D03*
X109610500Y-53770500D03*
X111610500Y-53770500D03*
X113610500Y-53770500D03*
X115610500Y-53770500D03*
X115610500Y-51770500D03*
X113610500Y-51770500D03*
X111610500Y-51770500D03*
X109610500Y-51770500D03*
X107610500Y-51770500D03*
X105610500Y-51770500D03*
X103610500Y-51770500D03*
X101610500Y-51770500D03*
X99610500Y-51770500D03*
X97610500Y-51770500D03*
X95610500Y-51770500D03*
X93610500Y-51770500D03*
X91610500Y-51770500D03*
D13*
X92450000Y-63166000D02*
X92825500Y-62790500D01*
X92825500Y-62790500D02*
X93460500Y-62790500D01*
X93460500Y-57590500D02*
X93814500Y-57590500D01*
X94178250Y-57226750D02*
X94178250Y-53178250D01*
X93814500Y-57590500D02*
X94178250Y-57226750D01*
X94178250Y-53178250D02*
X93610500Y-52610500D01*
X112920500Y-63590500D02*
X111910626Y-63590500D01*
X111910626Y-63590500D02*
X111747376Y-63427250D01*
X107895756Y-64610250D02*
X101610750Y-64610250D01*
X101610750Y-64610250D02*
X101610500Y-64610500D01*
X111747376Y-63427250D02*
X109078756Y-63427250D01*
X109078756Y-63427250D02*
X107895756Y-64610250D01*
X112920500Y-63990500D02*
X111870626Y-63990500D01*
X111870626Y-63990500D02*
X111751126Y-64110000D01*
X111751126Y-64110000D02*
X108718446Y-64110000D01*
X107878446Y-64950000D02*
X101110000Y-64950000D01*
X108718446Y-64110000D02*
X107878446Y-64950000D01*
X101110000Y-64950000D02*
X100770500Y-64610500D01*
X112920500Y-63190500D02*
X108993066Y-63190500D01*
X107842316Y-64341250D02*
X103341250Y-64341250D01*
X108993066Y-63190500D02*
X107842316Y-64341250D01*
X103341250Y-64341250D02*
X102770500Y-63770500D01*
X112920500Y-62790500D02*
X109070626Y-62790500D01*
X104430126Y-64110000D02*
X102930626Y-62610500D01*
X109070626Y-62790500D02*
X107751126Y-64110000D01*
X107751126Y-64110000D02*
X104430126Y-64110000D01*
X102930626Y-62610500D02*
X102770500Y-62610500D01*
X108437946Y-62390500D02*
X107422446Y-63406000D01*
X104406000Y-63406000D02*
X103610500Y-62610500D01*
X112920500Y-62390500D02*
X108437946Y-62390500D01*
X107422446Y-63406000D02*
X104406000Y-63406000D01*
X112920500Y-61990500D02*
X111870626Y-61990500D01*
X104431000Y-62110000D02*
X104770500Y-61770500D01*
X111870626Y-61990500D02*
X111751126Y-62110000D01*
X111751126Y-62110000D02*
X108396006Y-62110000D01*
X108396006Y-62110000D02*
X107328006Y-63178000D01*
X107328006Y-63178000D02*
X104857874Y-63178000D01*
X104857874Y-63178000D02*
X104431000Y-62751126D01*
X104431000Y-62751126D02*
X104431000Y-62110000D01*
X111751126Y-61431000D02*
X108752566Y-61431000D01*
X107233566Y-62950000D02*
X105110000Y-62950000D01*
X112920500Y-61590500D02*
X111910626Y-61590500D01*
X111910626Y-61590500D02*
X111751126Y-61431000D01*
X108752566Y-61431000D02*
X107233566Y-62950000D01*
X105110000Y-62950000D02*
X104770500Y-62610500D01*
X107250626Y-62610500D02*
X105610500Y-62610500D01*
X112920500Y-61190500D02*
X108670626Y-61190500D01*
X108670626Y-61190500D02*
X107250626Y-62610500D01*
X112920500Y-60790500D02*
X107750500Y-60790500D01*
X107750500Y-60790500D02*
X106770500Y-61770500D01*
X112920500Y-60390500D02*
X106990500Y-60390500D01*
X106990500Y-60390500D02*
X106770500Y-60610500D01*
X111870626Y-59990500D02*
X111751126Y-60110000D01*
X112920500Y-59990500D02*
X111870626Y-59990500D01*
X108629874Y-60110000D02*
X107610500Y-59090626D01*
X111751126Y-60110000D02*
X108629874Y-60110000D01*
X107610500Y-59090626D02*
X107610500Y-58610500D01*
X112920500Y-59590500D02*
X111910626Y-59590500D01*
X111910626Y-59590500D02*
X111751126Y-59431000D01*
X111751126Y-59431000D02*
X109110000Y-59431000D01*
X109110000Y-59431000D02*
X108770500Y-59770500D01*
X112920500Y-59190500D02*
X109350500Y-59190500D01*
X109350500Y-59190500D02*
X108770500Y-58610500D01*
X112920500Y-58790500D02*
X109790500Y-58790500D01*
X109790500Y-58790500D02*
X109610500Y-58610500D01*
X112920500Y-58390500D02*
X111750374Y-58390500D01*
X111750374Y-58390500D02*
X111130374Y-57770500D01*
X111130374Y-57770500D02*
X110770500Y-57770500D01*
X112920500Y-57990500D02*
X112510374Y-57990500D01*
X112510374Y-57990500D02*
X111130374Y-56610500D01*
X111130374Y-56610500D02*
X110770500Y-56610500D01*
X112920500Y-57590500D02*
X112590500Y-57590500D01*
X112590500Y-57590500D02*
X111610500Y-56610500D01*
X112644060Y-57190500D02*
X112203000Y-56749440D01*
X112920500Y-57190500D02*
X112644060Y-57190500D01*
X112203000Y-56749440D02*
X112203000Y-54338000D01*
X112203000Y-54338000D02*
X112770500Y-53770500D01*
X112431000Y-54950000D02*
X112770500Y-54610500D01*
X112431000Y-56655000D02*
X112431000Y-54950000D01*
X112920500Y-56790500D02*
X112566500Y-56790500D01*
X112566500Y-56790500D02*
X112431000Y-56655000D01*
X112920500Y-56390500D02*
X113390500Y-56390500D01*
X113390500Y-56390500D02*
X113610500Y-56610500D01*
X114660500Y-57190500D02*
X115030500Y-57190500D01*
X115030500Y-57190500D02*
X115610500Y-56610500D01*
X114660500Y-56790500D02*
X115014500Y-56790500D01*
X115014500Y-56790500D02*
X115150000Y-56655000D01*
X115150000Y-56655000D02*
X115150000Y-52990000D01*
X115150000Y-52990000D02*
X114770500Y-52610500D01*
X114790000Y-56262500D02*
X114881750Y-56354250D01*
X114790000Y-56261000D02*
X114790000Y-56262500D01*
X114881750Y-56354250D02*
X114845500Y-56390500D01*
X114845500Y-56390500D02*
X114660500Y-56390500D01*
X114660500Y-56390500D02*
X114790000Y-56261000D01*
X114790000Y-56261000D02*
X114790000Y-53790000D01*
X114790000Y-53790000D02*
X114770500Y-53770500D01*
X93460500Y-56790500D02*
X93814500Y-56790500D01*
X93950250Y-56654750D02*
X93950250Y-54946876D01*
X93814500Y-56790500D02*
X93950250Y-56654750D01*
X93950250Y-54946876D02*
X93613874Y-54610500D01*
X93613874Y-54610500D02*
X92770500Y-54610500D01*
X92895500Y-56390500D02*
X92770500Y-56515500D01*
X93460500Y-56390500D02*
X92895500Y-56390500D01*
X92770500Y-56515500D02*
X92770500Y-57770500D01*
X93460500Y-59590500D02*
X94987934Y-59590500D01*
X94987934Y-59590500D02*
X97147434Y-57431000D01*
X97147434Y-57431000D02*
X100431000Y-57431000D01*
X100431000Y-57431000D02*
X100770500Y-57770500D01*
X94910374Y-59990500D02*
X96629874Y-58271000D01*
X93460500Y-59990500D02*
X94910374Y-59990500D01*
X96629874Y-58271000D02*
X99271000Y-58271000D01*
X99271000Y-58271000D02*
X99610500Y-58610500D01*
X93460500Y-60390500D02*
X95865493Y-60390500D01*
X95865493Y-60390500D02*
X97645492Y-58610500D01*
X97645492Y-58610500D02*
X98770500Y-58610500D01*
X96307433Y-60271000D02*
X98270000Y-60271000D01*
X93460500Y-60790500D02*
X95787934Y-60790500D01*
X95787934Y-60790500D02*
X96307433Y-60271000D01*
X98270000Y-60271000D02*
X98770500Y-59770500D01*
X95310374Y-61590500D02*
X96290374Y-60610500D01*
X93460500Y-61590500D02*
X95310374Y-61590500D01*
X96290374Y-60610500D02*
X97610500Y-60610500D01*
X93460500Y-61990500D02*
X95312940Y-61990500D01*
X95312940Y-61990500D02*
X95932941Y-62610500D01*
X95932941Y-62610500D02*
X96770500Y-62610500D01*
X93460500Y-62390500D02*
X94510374Y-62390500D01*
X94629874Y-62271000D02*
X95271000Y-62271000D01*
X94510374Y-62390500D02*
X94629874Y-62271000D01*
X95271000Y-62271000D02*
X96770500Y-63770500D01*
X93460500Y-63590500D02*
X94470374Y-63590500D01*
X94470374Y-63590500D02*
X94770500Y-63290374D01*
X94770500Y-63290374D02*
X94770500Y-62610500D01*
X93460500Y-63990500D02*
X94550500Y-63990500D01*
X94550500Y-63990500D02*
X94770500Y-63770500D01*
X92450000Y-66221500D02*
X92839000Y-66610500D01*
X92450000Y-63166000D02*
X92450000Y-66221500D01*
X92839000Y-66610500D02*
X95610500Y-66610500D01*
X91720500Y-63590500D02*
X91366500Y-63590500D01*
X91366500Y-63590500D02*
X91231000Y-63726000D01*
X91231000Y-63726000D02*
X91231000Y-67391000D01*
X91231000Y-67391000D02*
X91610500Y-67770500D01*
X91591000Y-64119500D02*
X91508750Y-64037250D01*
X91591000Y-64120000D02*
X91591000Y-64119500D01*
X91508750Y-64037250D02*
X91508750Y-64036250D01*
X91508750Y-64036250D02*
X91554500Y-63990500D01*
X91554500Y-63990500D02*
X91720500Y-63990500D01*
X91720500Y-63990500D02*
X91591000Y-64120000D01*
X91591000Y-64120000D02*
X91591000Y-65751000D01*
X91591000Y-65751000D02*
X91610500Y-65770500D01*
X91720500Y-58790500D02*
X91366500Y-58790500D01*
X91366500Y-58790500D02*
X90770500Y-59386500D01*
X90770500Y-59386500D02*
X90770500Y-59770500D01*
X91720500Y-58390500D02*
X90990500Y-58390500D01*
X90990500Y-58390500D02*
X90770500Y-58610500D01*
X91720500Y-57990500D02*
X92074500Y-57990500D01*
X92074500Y-57990500D02*
X92450000Y-57615000D01*
X92450000Y-57615000D02*
X92450000Y-55191000D01*
X92450000Y-55191000D02*
X91869500Y-54610500D01*
X91869500Y-54610500D02*
X91610500Y-54610500D01*
X91720500Y-57590500D02*
X91366500Y-57590500D01*
X91366500Y-57590500D02*
X91003000Y-57227000D01*
X91003000Y-57227000D02*
X91003000Y-52378000D01*
X91003000Y-52378000D02*
X91610500Y-51770500D01*
X91720500Y-56790500D02*
X91366500Y-56790500D01*
X91366500Y-56790500D02*
X91231000Y-56655000D01*
X91231000Y-56655000D02*
X91231000Y-54150000D01*
X91231000Y-54150000D02*
X91610500Y-53770500D01*
X91536750Y-56207250D02*
X91459750Y-56284250D01*
X91536750Y-56206750D02*
X91536750Y-56207250D01*
X91459750Y-56284250D02*
X91459750Y-56285250D01*
X91459750Y-56285250D02*
X91565000Y-56390500D01*
X91565000Y-56390500D02*
X91720500Y-56390500D01*
X91536750Y-56206750D02*
X91536750Y-56345250D01*
X91536750Y-56345250D02*
X91675250Y-56345250D01*
X91675250Y-56345250D02*
X91720500Y-56390500D01*
X91720500Y-56390500D02*
X91536750Y-56206750D01*
X91536750Y-56206750D02*
X91536750Y-55161502D01*
X91536750Y-55161502D02*
X91610750Y-55087502D01*
M02*
