G04 #@! TF.GenerationSoftware,KiCad,Pcbnew,9.0.1-9.0.1-0~ubuntu24.04.1*
G04 #@! TF.CreationDate,2025-04-23T13:35:14+02:00*
G04 #@! TF.ProjectId,ILM139C,494c4d31-3339-4432-9e6b-696361645f70,rev?*
G04 #@! TF.SameCoordinates,Original*
G04 #@! TF.FileFunction,Legend,Top*
G04 #@! TF.FilePolarity,Positive*
%FSLAX46Y46*%
G04 Gerber Fmt 4.6, Leading zero omitted, Abs format (unit mm)*
G04 Created by KiCad (PCBNEW 9.0.1-9.0.1-0~ubuntu24.04.1) date 2025-04-23 13:35:14*
%MOMM*%
%LPD*%
G01*
G04 APERTURE LIST*
%ADD10C,0.150000*%
G04 APERTURE END LIST*
D10*
X98690500Y-58170500D02*
X98690500Y-58210500D01*
X99180500Y-58690500D02*
X99210500Y-58690500D01*
X99190500Y-57680500D02*
X99180500Y-57680500D01*
X99700500Y-58210500D02*
X99700500Y-58170500D01*
X99960500Y-57800500D02*
X100460500Y-57800500D01*
X100210500Y-57550500D02*
X100210500Y-58060500D01*
X102690500Y-52170500D02*
X102690500Y-52210500D01*
X103180500Y-52690500D02*
X103210500Y-52690500D01*
X103190500Y-51680500D02*
X103180500Y-51680500D01*
X103700500Y-52210500D02*
X103700500Y-52170500D01*
X103960500Y-51800500D02*
X104460500Y-51800500D01*
X104210500Y-51550500D02*
X104210500Y-52060500D01*
X100690500Y-62170500D02*
X100690500Y-62210500D01*
X101180500Y-62690500D02*
X101210500Y-62690500D01*
X101190500Y-61680500D02*
X101180500Y-61680500D01*
X101700500Y-62210500D02*
X101700500Y-62170500D01*
X101960500Y-61800500D02*
X102460500Y-61800500D01*
X102210500Y-61550500D02*
X102210500Y-62060500D01*
X92690500Y-62170500D02*
X92690500Y-62210500D01*
X93180500Y-62690500D02*
X93210500Y-62690500D01*
X93190500Y-61680500D02*
X93180500Y-61680500D01*
X93700500Y-62210500D02*
X93700500Y-62170500D01*
X93960500Y-61800500D02*
X94460500Y-61800500D01*
X94210500Y-61550500D02*
X94210500Y-62060500D01*
X94690500Y-62170500D02*
X94690500Y-62210500D01*
X95180500Y-62690500D02*
X95210500Y-62690500D01*
X95190500Y-61680500D02*
X95180500Y-61680500D01*
X95700500Y-62210500D02*
X95700500Y-62170500D01*
X95960500Y-61800500D02*
X96460500Y-61800500D01*
X96210500Y-61550500D02*
X96210500Y-62060500D01*
X108690500Y-66170500D02*
X108690500Y-66210500D01*
X109180500Y-66690500D02*
X109210500Y-66690500D01*
X109190500Y-65680500D02*
X109180500Y-65680500D01*
X109700500Y-66210500D02*
X109700500Y-66170500D01*
X109960500Y-65800500D02*
X110460500Y-65800500D01*
X110210500Y-65550500D02*
X110210500Y-66060500D01*
X96690500Y-68170500D02*
X96690500Y-68210500D01*
X97180500Y-68690500D02*
X97210500Y-68690500D01*
X97190500Y-67680500D02*
X97180500Y-67680500D01*
X97700500Y-68210500D02*
X97700500Y-68170500D01*
X97960500Y-67800500D02*
X98460500Y-67800500D01*
X98210500Y-67550500D02*
X98210500Y-68060500D01*
X108690500Y-68170500D02*
X108690500Y-68210500D01*
X109180500Y-68690500D02*
X109210500Y-68690500D01*
X109190500Y-67680500D02*
X109180500Y-67680500D01*
X109700500Y-68210500D02*
X109700500Y-68170500D01*
X109960500Y-67800500D02*
X110460500Y-67800500D01*
X110210500Y-67550500D02*
X110210500Y-68060500D01*
X106690500Y-52170500D02*
X106690500Y-52210500D01*
X107180500Y-52690500D02*
X107210500Y-52690500D01*
X107190500Y-51680500D02*
X107180500Y-51680500D01*
X107700500Y-52210500D02*
X107700500Y-52170500D01*
X107960500Y-51800500D02*
X108460500Y-51800500D01*
X108210500Y-51550500D02*
X108210500Y-52060500D01*
X98690500Y-54170500D02*
X98690500Y-54210500D01*
X99180500Y-54690500D02*
X99210500Y-54690500D01*
X99190500Y-53680500D02*
X99180500Y-53680500D01*
X99700500Y-54210500D02*
X99700500Y-54170500D01*
X99960500Y-53800500D02*
X100460500Y-53800500D01*
X100210500Y-53550500D02*
X100210500Y-54060500D01*
X100690500Y-58170500D02*
X100690500Y-58210500D01*
X101180500Y-58690500D02*
X101210500Y-58690500D01*
X101190500Y-57680500D02*
X101180500Y-57680500D01*
X101700500Y-58210500D02*
X101700500Y-58170500D01*
X101960500Y-57800500D02*
X102460500Y-57800500D01*
X102210500Y-57550500D02*
X102210500Y-58060500D01*
X104690500Y-56170500D02*
X104690500Y-56210500D01*
X105180500Y-56690500D02*
X105210500Y-56690500D01*
X105190500Y-55680500D02*
X105180500Y-55680500D01*
X105700500Y-56210500D02*
X105700500Y-56170500D01*
X105960500Y-55800500D02*
X106460500Y-55800500D01*
X106210500Y-55550500D02*
X106210500Y-56060500D01*
X102690500Y-64170500D02*
X102690500Y-64210500D01*
X103180500Y-64690500D02*
X103210500Y-64690500D01*
X103190500Y-63680500D02*
X103180500Y-63680500D01*
X103700500Y-64210500D02*
X103700500Y-64170500D01*
X103960500Y-63800500D02*
X104460500Y-63800500D01*
X104210500Y-63550500D02*
X104210500Y-64060500D01*
X108690500Y-64170500D02*
X108690500Y-64210500D01*
X109180500Y-64690500D02*
X109210500Y-64690500D01*
X109190500Y-63680500D02*
X109180500Y-63680500D01*
X109700500Y-64210500D02*
X109700500Y-64170500D01*
X109960500Y-63800500D02*
X110460500Y-63800500D01*
X110210500Y-63550500D02*
X110210500Y-64060500D01*
X90690500Y-52170500D02*
X90690500Y-52210500D01*
X91180500Y-52690500D02*
X91210500Y-52690500D01*
X91190500Y-51680500D02*
X91180500Y-51680500D01*
X91700500Y-52210500D02*
X91700500Y-52170500D01*
X91960500Y-51800500D02*
X92460500Y-51800500D01*
X92210500Y-51550500D02*
X92210500Y-52060500D01*
X106690500Y-58170500D02*
X106690500Y-58210500D01*
X107180500Y-58690500D02*
X107210500Y-58690500D01*
X107190500Y-57680500D02*
X107180500Y-57680500D01*
X107700500Y-58210500D02*
X107700500Y-58170500D01*
X107960500Y-57800500D02*
X108460500Y-57800500D01*
X108210500Y-57550500D02*
X108210500Y-58060500D01*
X104690500Y-68170500D02*
X104690500Y-68210500D01*
X105180500Y-68690500D02*
X105210500Y-68690500D01*
X105190500Y-67680500D02*
X105180500Y-67680500D01*
X105700500Y-68210500D02*
X105700500Y-68170500D01*
X105960500Y-67800500D02*
X106460500Y-67800500D01*
X106210500Y-67550500D02*
X106210500Y-68060500D01*
X92690500Y-66170500D02*
X92690500Y-66210500D01*
X93180500Y-66690500D02*
X93210500Y-66690500D01*
X93190500Y-65680500D02*
X93180500Y-65680500D01*
X93700500Y-66210500D02*
X93700500Y-66170500D01*
X93960500Y-65800500D02*
X94460500Y-65800500D01*
X94210500Y-65550500D02*
X94210500Y-66060500D01*
X110690500Y-62170500D02*
X110690500Y-62210500D01*
X111180500Y-62690500D02*
X111210500Y-62690500D01*
X111190500Y-61680500D02*
X111180500Y-61680500D01*
X111700500Y-62210500D02*
X111700500Y-62170500D01*
X111960500Y-61800500D02*
X112460500Y-61800500D01*
X112210500Y-61550500D02*
X112210500Y-62060500D01*
X96690500Y-58170500D02*
X96690500Y-58210500D01*
X97180500Y-58690500D02*
X97210500Y-58690500D01*
X97190500Y-57680500D02*
X97180500Y-57680500D01*
X97700500Y-58210500D02*
X97700500Y-58170500D01*
X97960500Y-57800500D02*
X98460500Y-57800500D01*
X98210500Y-57550500D02*
X98210500Y-58060500D01*
X112690500Y-58170500D02*
X112690500Y-58210500D01*
X113180500Y-58690500D02*
X113210500Y-58690500D01*
X113190500Y-57680500D02*
X113180500Y-57680500D01*
X113700500Y-58210500D02*
X113700500Y-58170500D01*
X113960500Y-57800500D02*
X114460500Y-57800500D01*
X114210500Y-57550500D02*
X114210500Y-58060500D01*
X112690500Y-66170500D02*
X112690500Y-66210500D01*
X113180500Y-66690500D02*
X113210500Y-66690500D01*
X113190500Y-65680500D02*
X113180500Y-65680500D01*
X113700500Y-66210500D02*
X113700500Y-66170500D01*
X113960500Y-65800500D02*
X114460500Y-65800500D01*
X114210500Y-65550500D02*
X114210500Y-66060500D01*
X98690500Y-66170500D02*
X98690500Y-66210500D01*
X99180500Y-66690500D02*
X99210500Y-66690500D01*
X99190500Y-65680500D02*
X99180500Y-65680500D01*
X99700500Y-66210500D02*
X99700500Y-66170500D01*
X99960500Y-65800500D02*
X100460500Y-65800500D01*
X100210500Y-65550500D02*
X100210500Y-66060500D01*
X102690500Y-66170500D02*
X102690500Y-66210500D01*
X103180500Y-66690500D02*
X103210500Y-66690500D01*
X103190500Y-65680500D02*
X103180500Y-65680500D01*
X103700500Y-66210500D02*
X103700500Y-66170500D01*
X103960500Y-65800500D02*
X104460500Y-65800500D01*
X104210500Y-65550500D02*
X104210500Y-66060500D01*
X94690500Y-52170500D02*
X94690500Y-52210500D01*
X95180500Y-52690500D02*
X95210500Y-52690500D01*
X95190500Y-51680500D02*
X95180500Y-51680500D01*
X95700500Y-52210500D02*
X95700500Y-52170500D01*
X95960500Y-51800500D02*
X96460500Y-51800500D01*
X96210500Y-51550500D02*
X96210500Y-52060500D01*
X102690500Y-68170500D02*
X102690500Y-68210500D01*
X103180500Y-68690500D02*
X103210500Y-68690500D01*
X103190500Y-67680500D02*
X103180500Y-67680500D01*
X103700500Y-68210500D02*
X103700500Y-68170500D01*
X103960500Y-67800500D02*
X104460500Y-67800500D01*
X104210500Y-67550500D02*
X104210500Y-68060500D01*
X112690500Y-56170500D02*
X112690500Y-56210500D01*
X113180500Y-56690500D02*
X113210500Y-56690500D01*
X113190500Y-55680500D02*
X113180500Y-55680500D01*
X113700500Y-56210500D02*
X113700500Y-56170500D01*
X113960500Y-55800500D02*
X114460500Y-55800500D01*
X114210500Y-55550500D02*
X114210500Y-56060500D01*
X102690500Y-60170500D02*
X102690500Y-60210500D01*
X103180500Y-60690500D02*
X103210500Y-60690500D01*
X103190500Y-59680500D02*
X103180500Y-59680500D01*
X103700500Y-60210500D02*
X103700500Y-60170500D01*
X103960500Y-59800500D02*
X104460500Y-59800500D01*
X104210500Y-59550500D02*
X104210500Y-60060500D01*
X100690500Y-52170500D02*
X100690500Y-52210500D01*
X101180500Y-52690500D02*
X101210500Y-52690500D01*
X101190500Y-51680500D02*
X101180500Y-51680500D01*
X101700500Y-52210500D02*
X101700500Y-52170500D01*
X101960500Y-51800500D02*
X102460500Y-51800500D01*
X102210500Y-51550500D02*
X102210500Y-52060500D01*
X108690500Y-58170500D02*
X108690500Y-58210500D01*
X109180500Y-58690500D02*
X109210500Y-58690500D01*
X109190500Y-57680500D02*
X109180500Y-57680500D01*
X109700500Y-58210500D02*
X109700500Y-58170500D01*
X109960500Y-57800500D02*
X110460500Y-57800500D01*
X110210500Y-57550500D02*
X110210500Y-58060500D01*
X96690500Y-54170500D02*
X96690500Y-54210500D01*
X97180500Y-54690500D02*
X97210500Y-54690500D01*
X97190500Y-53680500D02*
X97180500Y-53680500D01*
X97700500Y-54210500D02*
X97700500Y-54170500D01*
X97960500Y-53800500D02*
X98460500Y-53800500D01*
X98210500Y-53550500D02*
X98210500Y-54060500D01*
X114690500Y-56170500D02*
X114690500Y-56210500D01*
X115180500Y-56690500D02*
X115210500Y-56690500D01*
X115190500Y-55680500D02*
X115180500Y-55680500D01*
X115700500Y-56210500D02*
X115700500Y-56170500D01*
X115960500Y-55800500D02*
X116460500Y-55800500D01*
X116210500Y-55550500D02*
X116210500Y-56060500D01*
X90690500Y-56170500D02*
X90690500Y-56210500D01*
X91180500Y-56690500D02*
X91210500Y-56690500D01*
X91190500Y-55680500D02*
X91180500Y-55680500D01*
X91700500Y-56210500D02*
X91700500Y-56170500D01*
X91960500Y-55800500D02*
X92460500Y-55800500D01*
X92210500Y-55550500D02*
X92210500Y-56060500D01*
X106690500Y-60170500D02*
X106690500Y-60210500D01*
X107180500Y-60690500D02*
X107210500Y-60690500D01*
X107190500Y-59680500D02*
X107180500Y-59680500D01*
X107700500Y-60210500D02*
X107700500Y-60170500D01*
X107960500Y-59800500D02*
X108460500Y-59800500D01*
X108210500Y-59550500D02*
X108210500Y-60060500D01*
X112690500Y-60170500D02*
X112690500Y-60210500D01*
X113180500Y-60690500D02*
X113210500Y-60690500D01*
X113190500Y-59680500D02*
X113180500Y-59680500D01*
X113700500Y-60210500D02*
X113700500Y-60170500D01*
X113960500Y-59800500D02*
X114460500Y-59800500D01*
X114210500Y-59550500D02*
X114210500Y-60060500D01*
X114690500Y-68170500D02*
X114690500Y-68210500D01*
X115180500Y-68690500D02*
X115210500Y-68690500D01*
X115190500Y-67680500D02*
X115180500Y-67680500D01*
X115700500Y-68210500D02*
X115700500Y-68170500D01*
X115960500Y-67800500D02*
X116460500Y-67800500D01*
X116210500Y-67550500D02*
X116210500Y-68060500D01*
X104690500Y-60170500D02*
X104690500Y-60210500D01*
X105180500Y-60690500D02*
X105210500Y-60690500D01*
X105190500Y-59680500D02*
X105180500Y-59680500D01*
X105700500Y-60210500D02*
X105700500Y-60170500D01*
X105960500Y-59800500D02*
X106460500Y-59800500D01*
X106210500Y-59550500D02*
X106210500Y-60060500D01*
X100690500Y-60170500D02*
X100690500Y-60210500D01*
X101180500Y-60690500D02*
X101210500Y-60690500D01*
X101190500Y-59680500D02*
X101180500Y-59680500D01*
X101700500Y-60210500D02*
X101700500Y-60170500D01*
X101960500Y-59800500D02*
X102460500Y-59800500D01*
X102210500Y-59550500D02*
X102210500Y-60060500D01*
X102690500Y-62170500D02*
X102690500Y-62210500D01*
X103180500Y-62690500D02*
X103210500Y-62690500D01*
X103190500Y-61680500D02*
X103180500Y-61680500D01*
X103700500Y-62210500D02*
X103700500Y-62170500D01*
X103960500Y-61800500D02*
X104460500Y-61800500D01*
X104210500Y-61550500D02*
X104210500Y-62060500D01*
X106690500Y-64170500D02*
X106690500Y-64210500D01*
X107180500Y-64690500D02*
X107210500Y-64690500D01*
X107190500Y-63680500D02*
X107180500Y-63680500D01*
X107700500Y-64210500D02*
X107700500Y-64170500D01*
X107960500Y-63800500D02*
X108460500Y-63800500D01*
X108210500Y-63550500D02*
X108210500Y-64060500D01*
X114690500Y-62170500D02*
X114690500Y-62210500D01*
X115180500Y-62690500D02*
X115210500Y-62690500D01*
X115190500Y-61680500D02*
X115180500Y-61680500D01*
X115700500Y-62210500D02*
X115700500Y-62170500D01*
X115960500Y-61800500D02*
X116460500Y-61800500D01*
X116210500Y-61550500D02*
X116210500Y-62060500D01*
X112690500Y-62170500D02*
X112690500Y-62210500D01*
X113180500Y-62690500D02*
X113210500Y-62690500D01*
X113190500Y-61680500D02*
X113180500Y-61680500D01*
X113700500Y-62210500D02*
X113700500Y-62170500D01*
X113960500Y-61800500D02*
X114460500Y-61800500D01*
X114210500Y-61550500D02*
X114210500Y-62060500D01*
X102690500Y-56170500D02*
X102690500Y-56210500D01*
X103180500Y-56690500D02*
X103210500Y-56690500D01*
X103190500Y-55680500D02*
X103180500Y-55680500D01*
X103700500Y-56210500D02*
X103700500Y-56170500D01*
X103960500Y-55800500D02*
X104460500Y-55800500D01*
X104210500Y-55550500D02*
X104210500Y-56060500D01*
X110690500Y-56170500D02*
X110690500Y-56210500D01*
X111180500Y-56690500D02*
X111210500Y-56690500D01*
X111190500Y-55680500D02*
X111180500Y-55680500D01*
X111700500Y-56210500D02*
X111700500Y-56170500D01*
X111960500Y-55800500D02*
X112460500Y-55800500D01*
X112210500Y-55550500D02*
X112210500Y-56060500D01*
X106690500Y-56170500D02*
X106690500Y-56210500D01*
X107180500Y-56690500D02*
X107210500Y-56690500D01*
X107190500Y-55680500D02*
X107180500Y-55680500D01*
X107700500Y-56210500D02*
X107700500Y-56170500D01*
X107960500Y-55800500D02*
X108460500Y-55800500D01*
X108210500Y-55550500D02*
X108210500Y-56060500D01*
X114690500Y-54170500D02*
X114690500Y-54210500D01*
X115180500Y-54690500D02*
X115210500Y-54690500D01*
X115190500Y-53680500D02*
X115180500Y-53680500D01*
X115700500Y-54210500D02*
X115700500Y-54170500D01*
X115960500Y-53800500D02*
X116460500Y-53800500D01*
X116210500Y-53550500D02*
X116210500Y-54060500D01*
X92690500Y-64170500D02*
X92690500Y-64210500D01*
X93180500Y-64690500D02*
X93210500Y-64690500D01*
X93190500Y-63680500D02*
X93180500Y-63680500D01*
X93700500Y-64210500D02*
X93700500Y-64170500D01*
X93960500Y-63800500D02*
X94460500Y-63800500D01*
X94210500Y-63550500D02*
X94210500Y-64060500D01*
X110690500Y-54170500D02*
X110690500Y-54210500D01*
X111180500Y-54690500D02*
X111210500Y-54690500D01*
X111190500Y-53680500D02*
X111180500Y-53680500D01*
X111700500Y-54210500D02*
X111700500Y-54170500D01*
X111960500Y-53800500D02*
X112460500Y-53800500D01*
X112210500Y-53550500D02*
X112210500Y-54060500D01*
X108690500Y-56170500D02*
X108690500Y-56210500D01*
X109180500Y-56690500D02*
X109210500Y-56690500D01*
X109190500Y-55680500D02*
X109180500Y-55680500D01*
X109700500Y-56210500D02*
X109700500Y-56170500D01*
X109960500Y-55800500D02*
X110460500Y-55800500D01*
X110210500Y-55550500D02*
X110210500Y-56060500D01*
X110690500Y-60170500D02*
X110690500Y-60210500D01*
X111180500Y-60690500D02*
X111210500Y-60690500D01*
X111190500Y-59680500D02*
X111180500Y-59680500D01*
X111700500Y-60210500D02*
X111700500Y-60170500D01*
X111960500Y-59800500D02*
X112460500Y-59800500D01*
X112210500Y-59550500D02*
X112210500Y-60060500D01*
X100690500Y-64170500D02*
X100690500Y-64210500D01*
X101180500Y-64690500D02*
X101210500Y-64690500D01*
X101190500Y-63680500D02*
X101180500Y-63680500D01*
X101700500Y-64210500D02*
X101700500Y-64170500D01*
X101960500Y-63800500D02*
X102460500Y-63800500D01*
X102210500Y-63550500D02*
X102210500Y-64060500D01*
X90690500Y-54170500D02*
X90690500Y-54210500D01*
X91180500Y-54690500D02*
X91210500Y-54690500D01*
X91190500Y-53680500D02*
X91180500Y-53680500D01*
X91700500Y-54210500D02*
X91700500Y-54170500D01*
X91960500Y-53800500D02*
X92460500Y-53800500D01*
X92210500Y-53550500D02*
X92210500Y-54060500D01*
X98690500Y-62170500D02*
X98690500Y-62210500D01*
X99180500Y-62690500D02*
X99210500Y-62690500D01*
X99190500Y-61680500D02*
X99180500Y-61680500D01*
X99700500Y-62210500D02*
X99700500Y-62170500D01*
X99960500Y-61800500D02*
X100460500Y-61800500D01*
X100210500Y-61550500D02*
X100210500Y-62060500D01*
X90690500Y-66170500D02*
X90690500Y-66210500D01*
X91180500Y-66690500D02*
X91210500Y-66690500D01*
X91190500Y-65680500D02*
X91180500Y-65680500D01*
X91700500Y-66210500D02*
X91700500Y-66170500D01*
X91960500Y-65800500D02*
X92460500Y-65800500D01*
X92210500Y-65550500D02*
X92210500Y-66060500D01*
X94690500Y-54170500D02*
X94690500Y-54210500D01*
X95180500Y-54690500D02*
X95210500Y-54690500D01*
X95190500Y-53680500D02*
X95180500Y-53680500D01*
X95700500Y-54210500D02*
X95700500Y-54170500D01*
X95960500Y-53800500D02*
X96460500Y-53800500D01*
X96210500Y-53550500D02*
X96210500Y-54060500D01*
X104690500Y-64170500D02*
X104690500Y-64210500D01*
X105180500Y-64690500D02*
X105210500Y-64690500D01*
X105190500Y-63680500D02*
X105180500Y-63680500D01*
X105700500Y-64210500D02*
X105700500Y-64170500D01*
X105960500Y-63800500D02*
X106460500Y-63800500D01*
X106210500Y-63550500D02*
X106210500Y-64060500D01*
X108690500Y-62170500D02*
X108690500Y-62210500D01*
X109180500Y-62690500D02*
X109210500Y-62690500D01*
X109190500Y-61680500D02*
X109180500Y-61680500D01*
X109700500Y-62210500D02*
X109700500Y-62170500D01*
X109960500Y-61800500D02*
X110460500Y-61800500D01*
X110210500Y-61550500D02*
X110210500Y-62060500D01*
X104690500Y-62170500D02*
X104690500Y-62210500D01*
X105180500Y-62690500D02*
X105210500Y-62690500D01*
X105190500Y-61680500D02*
X105180500Y-61680500D01*
X105700500Y-62210500D02*
X105700500Y-62170500D01*
X105960500Y-61800500D02*
X106460500Y-61800500D01*
X106210500Y-61550500D02*
X106210500Y-62060500D01*
X98690500Y-56170500D02*
X98690500Y-56210500D01*
X99180500Y-56690500D02*
X99210500Y-56690500D01*
X99190500Y-55680500D02*
X99180500Y-55680500D01*
X99700500Y-56210500D02*
X99700500Y-56170500D01*
X99960500Y-55800500D02*
X100460500Y-55800500D01*
X100210500Y-55550500D02*
X100210500Y-56060500D01*
X94690500Y-64170500D02*
X94690500Y-64210500D01*
X95180500Y-64690500D02*
X95210500Y-64690500D01*
X95190500Y-63680500D02*
X95180500Y-63680500D01*
X95700500Y-64210500D02*
X95700500Y-64170500D01*
X95960500Y-63800500D02*
X96460500Y-63800500D01*
X96210500Y-63550500D02*
X96210500Y-64060500D01*
X114690500Y-66170500D02*
X114690500Y-66210500D01*
X115180500Y-66690500D02*
X115210500Y-66690500D01*
X115190500Y-65680500D02*
X115180500Y-65680500D01*
X115700500Y-66210500D02*
X115700500Y-66170500D01*
X115960500Y-65800500D02*
X116460500Y-65800500D01*
X116210500Y-65550500D02*
X116210500Y-66060500D01*
X114690500Y-64170500D02*
X114690500Y-64210500D01*
X115180500Y-64690500D02*
X115210500Y-64690500D01*
X115190500Y-63680500D02*
X115180500Y-63680500D01*
X115700500Y-64210500D02*
X115700500Y-64170500D01*
X115960500Y-63800500D02*
X116460500Y-63800500D01*
X116210500Y-63550500D02*
X116210500Y-64060500D01*
X106690500Y-62170500D02*
X106690500Y-62210500D01*
X107180500Y-62690500D02*
X107210500Y-62690500D01*
X107190500Y-61680500D02*
X107180500Y-61680500D01*
X107700500Y-62210500D02*
X107700500Y-62170500D01*
X107960500Y-61800500D02*
X108460500Y-61800500D01*
X108210500Y-61550500D02*
X108210500Y-62060500D01*
X106690500Y-54170500D02*
X106690500Y-54210500D01*
X107180500Y-54690500D02*
X107210500Y-54690500D01*
X107190500Y-53680500D02*
X107180500Y-53680500D01*
X107700500Y-54210500D02*
X107700500Y-54170500D01*
X107960500Y-53800500D02*
X108460500Y-53800500D01*
X108210500Y-53550500D02*
X108210500Y-54060500D01*
X100690500Y-54170500D02*
X100690500Y-54210500D01*
X101180500Y-54690500D02*
X101210500Y-54690500D01*
X101190500Y-53680500D02*
X101180500Y-53680500D01*
X101700500Y-54210500D02*
X101700500Y-54170500D01*
X101960500Y-53800500D02*
X102460500Y-53800500D01*
X102210500Y-53550500D02*
X102210500Y-54060500D01*
X98690500Y-52170500D02*
X98690500Y-52210500D01*
X99180500Y-52690500D02*
X99210500Y-52690500D01*
X99190500Y-51680500D02*
X99180500Y-51680500D01*
X99700500Y-52210500D02*
X99700500Y-52170500D01*
X99960500Y-51800500D02*
X100460500Y-51800500D01*
X100210500Y-51550500D02*
X100210500Y-52060500D01*
X100690500Y-66170500D02*
X100690500Y-66210500D01*
X101180500Y-66690500D02*
X101210500Y-66690500D01*
X101190500Y-65680500D02*
X101180500Y-65680500D01*
X101700500Y-66210500D02*
X101700500Y-66170500D01*
X101960500Y-65800500D02*
X102460500Y-65800500D01*
X102210500Y-65550500D02*
X102210500Y-66060500D01*
X110690500Y-64170500D02*
X110690500Y-64210500D01*
X111180500Y-64690500D02*
X111210500Y-64690500D01*
X111190500Y-63680500D02*
X111180500Y-63680500D01*
X111700500Y-64210500D02*
X111700500Y-64170500D01*
X111960500Y-63800500D02*
X112460500Y-63800500D01*
X112210500Y-63550500D02*
X112210500Y-64060500D01*
X98690500Y-68170500D02*
X98690500Y-68210500D01*
X99180500Y-68690500D02*
X99210500Y-68690500D01*
X99190500Y-67680500D02*
X99180500Y-67680500D01*
X99700500Y-68210500D02*
X99700500Y-68170500D01*
X99960500Y-67800500D02*
X100460500Y-67800500D01*
X100210500Y-67550500D02*
X100210500Y-68060500D01*
X100690500Y-68170500D02*
X100690500Y-68210500D01*
X101180500Y-68690500D02*
X101210500Y-68690500D01*
X101190500Y-67680500D02*
X101180500Y-67680500D01*
X101700500Y-68210500D02*
X101700500Y-68170500D01*
X101960500Y-67800500D02*
X102460500Y-67800500D01*
X102210500Y-67550500D02*
X102210500Y-68060500D01*
X114690500Y-60170500D02*
X114690500Y-60210500D01*
X115180500Y-60690500D02*
X115210500Y-60690500D01*
X115190500Y-59680500D02*
X115180500Y-59680500D01*
X115700500Y-60210500D02*
X115700500Y-60170500D01*
X115960500Y-59800500D02*
X116460500Y-59800500D01*
X116210500Y-59550500D02*
X116210500Y-60060500D01*
X90690500Y-64170500D02*
X90690500Y-64210500D01*
X91180500Y-64690500D02*
X91210500Y-64690500D01*
X91190500Y-63680500D02*
X91180500Y-63680500D01*
X91700500Y-64210500D02*
X91700500Y-64170500D01*
X91960500Y-63800500D02*
X92460500Y-63800500D01*
X92210500Y-63550500D02*
X92210500Y-64060500D01*
X100690500Y-56170500D02*
X100690500Y-56210500D01*
X101180500Y-56690500D02*
X101210500Y-56690500D01*
X101190500Y-55680500D02*
X101180500Y-55680500D01*
X101700500Y-56210500D02*
X101700500Y-56170500D01*
X101960500Y-55800500D02*
X102460500Y-55800500D01*
X102210500Y-55550500D02*
X102210500Y-56060500D01*
X114690500Y-52170500D02*
X114690500Y-52210500D01*
X115180500Y-52690500D02*
X115210500Y-52690500D01*
X115190500Y-51680500D02*
X115180500Y-51680500D01*
X115700500Y-52210500D02*
X115700500Y-52170500D01*
X115960500Y-51800500D02*
X116460500Y-51800500D01*
X116210500Y-51550500D02*
X116210500Y-52060500D01*
X110690500Y-66170500D02*
X110690500Y-66210500D01*
X111180500Y-66690500D02*
X111210500Y-66690500D01*
X111190500Y-65680500D02*
X111180500Y-65680500D01*
X111700500Y-66210500D02*
X111700500Y-66170500D01*
X111960500Y-65800500D02*
X112460500Y-65800500D01*
X112210500Y-65550500D02*
X112210500Y-66060500D01*
X92690500Y-52170500D02*
X92690500Y-52210500D01*
X93180500Y-52690500D02*
X93210500Y-52690500D01*
X93190500Y-51680500D02*
X93180500Y-51680500D01*
X93700500Y-52210500D02*
X93700500Y-52170500D01*
X93960500Y-51800500D02*
X94460500Y-51800500D01*
X94210500Y-51550500D02*
X94210500Y-52060500D01*
X94690500Y-60170500D02*
X94690500Y-60210500D01*
X95180500Y-60690500D02*
X95210500Y-60690500D01*
X95190500Y-59680500D02*
X95180500Y-59680500D01*
X95700500Y-60210500D02*
X95700500Y-60170500D01*
X95960500Y-59800500D02*
X96460500Y-59800500D01*
X96210500Y-59550500D02*
X96210500Y-60060500D01*
X106690500Y-68170500D02*
X106690500Y-68210500D01*
X107180500Y-68690500D02*
X107210500Y-68690500D01*
X107190500Y-67680500D02*
X107180500Y-67680500D01*
X107700500Y-68210500D02*
X107700500Y-68170500D01*
X107960500Y-67800500D02*
X108460500Y-67800500D01*
X108210500Y-67550500D02*
X108210500Y-68060500D01*
X110690500Y-58170500D02*
X110690500Y-58210500D01*
X111180500Y-58690500D02*
X111210500Y-58690500D01*
X111190500Y-57680500D02*
X111180500Y-57680500D01*
X111700500Y-58210500D02*
X111700500Y-58170500D01*
X111960500Y-57800500D02*
X112460500Y-57800500D01*
X112210500Y-57550500D02*
X112210500Y-58060500D01*
X94690500Y-68170500D02*
X94690500Y-68210500D01*
X95180500Y-68690500D02*
X95210500Y-68690500D01*
X95190500Y-67680500D02*
X95180500Y-67680500D01*
X95700500Y-68210500D02*
X95700500Y-68170500D01*
X95960500Y-67800500D02*
X96460500Y-67800500D01*
X96210500Y-67550500D02*
X96210500Y-68060500D01*
X104690500Y-66170500D02*
X104690500Y-66210500D01*
X105180500Y-66690500D02*
X105210500Y-66690500D01*
X105190500Y-65680500D02*
X105180500Y-65680500D01*
X105700500Y-66210500D02*
X105700500Y-66170500D01*
X105960500Y-65800500D02*
X106460500Y-65800500D01*
X106210500Y-65550500D02*
X106210500Y-66060500D01*
X94690500Y-56170500D02*
X94690500Y-56210500D01*
X95180500Y-56690500D02*
X95210500Y-56690500D01*
X95190500Y-55680500D02*
X95180500Y-55680500D01*
X95700500Y-56210500D02*
X95700500Y-56170500D01*
X95960500Y-55800500D02*
X96460500Y-55800500D01*
X96210500Y-55550500D02*
X96210500Y-56060500D01*
X112690500Y-54170500D02*
X112690500Y-54210500D01*
X113180500Y-54690500D02*
X113210500Y-54690500D01*
X113190500Y-53680500D02*
X113180500Y-53680500D01*
X113700500Y-54210500D02*
X113700500Y-54170500D01*
X113960500Y-53800500D02*
X114460500Y-53800500D01*
X114210500Y-53550500D02*
X114210500Y-54060500D01*
X110690500Y-68170500D02*
X110690500Y-68210500D01*
X111180500Y-68690500D02*
X111210500Y-68690500D01*
X111190500Y-67680500D02*
X111180500Y-67680500D01*
X111700500Y-68210500D02*
X111700500Y-68170500D01*
X111960500Y-67800500D02*
X112460500Y-67800500D01*
X112210500Y-67550500D02*
X112210500Y-68060500D01*
X90690500Y-60170500D02*
X90690500Y-60210500D01*
X91180500Y-60690500D02*
X91210500Y-60690500D01*
X91190500Y-59680500D02*
X91180500Y-59680500D01*
X91700500Y-60210500D02*
X91700500Y-60170500D01*
X91960500Y-59800500D02*
X92460500Y-59800500D01*
X92210500Y-59550500D02*
X92210500Y-60060500D01*
X104690500Y-52170500D02*
X104690500Y-52210500D01*
X105180500Y-52690500D02*
X105210500Y-52690500D01*
X105190500Y-51680500D02*
X105180500Y-51680500D01*
X105700500Y-52210500D02*
X105700500Y-52170500D01*
X105960500Y-51800500D02*
X106460500Y-51800500D01*
X106210500Y-51550500D02*
X106210500Y-52060500D01*
X104690500Y-58170500D02*
X104690500Y-58210500D01*
X105180500Y-58690500D02*
X105210500Y-58690500D01*
X105190500Y-57680500D02*
X105180500Y-57680500D01*
X105700500Y-58210500D02*
X105700500Y-58170500D01*
X105960500Y-57800500D02*
X106460500Y-57800500D01*
X106210500Y-57550500D02*
X106210500Y-58060500D01*
X90690500Y-68170500D02*
X90690500Y-68210500D01*
X91180500Y-68690500D02*
X91210500Y-68690500D01*
X91190500Y-67680500D02*
X91180500Y-67680500D01*
X91700500Y-68210500D02*
X91700500Y-68170500D01*
X91960500Y-67800500D02*
X92460500Y-67800500D01*
X92210500Y-67550500D02*
X92210500Y-68060500D01*
X110690500Y-52170500D02*
X110690500Y-52210500D01*
X111180500Y-52690500D02*
X111210500Y-52690500D01*
X111190500Y-51680500D02*
X111180500Y-51680500D01*
X111700500Y-52210500D02*
X111700500Y-52170500D01*
X111960500Y-51800500D02*
X112460500Y-51800500D01*
X112210500Y-51550500D02*
X112210500Y-52060500D01*
X108690500Y-54170500D02*
X108690500Y-54210500D01*
X109180500Y-54690500D02*
X109210500Y-54690500D01*
X109190500Y-53680500D02*
X109180500Y-53680500D01*
X109700500Y-54210500D02*
X109700500Y-54170500D01*
X109960500Y-53800500D02*
X110460500Y-53800500D01*
X110210500Y-53550500D02*
X110210500Y-54060500D01*
X98690500Y-60170500D02*
X98690500Y-60210500D01*
X99180500Y-60690500D02*
X99210500Y-60690500D01*
X99190500Y-59680500D02*
X99180500Y-59680500D01*
X99700500Y-60210500D02*
X99700500Y-60170500D01*
X99960500Y-59800500D02*
X100460500Y-59800500D01*
X100210500Y-59550500D02*
X100210500Y-60060500D01*
X96690500Y-52170500D02*
X96690500Y-52210500D01*
X97180500Y-52690500D02*
X97210500Y-52690500D01*
X97190500Y-51680500D02*
X97180500Y-51680500D01*
X97700500Y-52210500D02*
X97700500Y-52170500D01*
X97960500Y-51800500D02*
X98460500Y-51800500D01*
X98210500Y-51550500D02*
X98210500Y-52060500D01*
X108690500Y-52170500D02*
X108690500Y-52210500D01*
X109180500Y-52690500D02*
X109210500Y-52690500D01*
X109190500Y-51680500D02*
X109180500Y-51680500D01*
X109700500Y-52210500D02*
X109700500Y-52170500D01*
X109960500Y-51800500D02*
X110460500Y-51800500D01*
X110210500Y-51550500D02*
X110210500Y-52060500D01*
X94690500Y-66170500D02*
X94690500Y-66210500D01*
X95180500Y-66690500D02*
X95210500Y-66690500D01*
X95190500Y-65680500D02*
X95180500Y-65680500D01*
X95700500Y-66210500D02*
X95700500Y-66170500D01*
X95960500Y-65800500D02*
X96460500Y-65800500D01*
X96210500Y-65550500D02*
X96210500Y-66060500D01*
X94690500Y-58170500D02*
X94690500Y-58210500D01*
X95180500Y-58690500D02*
X95210500Y-58690500D01*
X95190500Y-57680500D02*
X95180500Y-57680500D01*
X95700500Y-58210500D02*
X95700500Y-58170500D01*
X95960500Y-57800500D02*
X96460500Y-57800500D01*
X96210500Y-57550500D02*
X96210500Y-58060500D01*
X96690500Y-56170500D02*
X96690500Y-56210500D01*
X97180500Y-56690500D02*
X97210500Y-56690500D01*
X97190500Y-55680500D02*
X97180500Y-55680500D01*
X97700500Y-56210500D02*
X97700500Y-56170500D01*
X97960500Y-55800500D02*
X98460500Y-55800500D01*
X98210500Y-55550500D02*
X98210500Y-56060500D01*
X102690500Y-58170500D02*
X102690500Y-58210500D01*
X103180500Y-58690500D02*
X103210500Y-58690500D01*
X103190500Y-57680500D02*
X103180500Y-57680500D01*
X103700500Y-58210500D02*
X103700500Y-58170500D01*
X103960500Y-57800500D02*
X104460500Y-57800500D01*
X104210500Y-57550500D02*
X104210500Y-58060500D01*
X92690500Y-54170500D02*
X92690500Y-54210500D01*
X93180500Y-54690500D02*
X93210500Y-54690500D01*
X93190500Y-53680500D02*
X93180500Y-53680500D01*
X93700500Y-54210500D02*
X93700500Y-54170500D01*
X93960500Y-53800500D02*
X94460500Y-53800500D01*
X94210500Y-53550500D02*
X94210500Y-54060500D01*
X90690500Y-62170500D02*
X90690500Y-62210500D01*
X91180500Y-62690500D02*
X91210500Y-62690500D01*
X91190500Y-61680500D02*
X91180500Y-61680500D01*
X91700500Y-62210500D02*
X91700500Y-62170500D01*
X91960500Y-61800500D02*
X92460500Y-61800500D01*
X92210500Y-61550500D02*
X92210500Y-62060500D01*
X102690500Y-54170500D02*
X102690500Y-54210500D01*
X103180500Y-54690500D02*
X103210500Y-54690500D01*
X103190500Y-53680500D02*
X103180500Y-53680500D01*
X103700500Y-54210500D02*
X103700500Y-54170500D01*
X103960500Y-53800500D02*
X104460500Y-53800500D01*
X104210500Y-53550500D02*
X104210500Y-54060500D01*
X114690500Y-58170500D02*
X114690500Y-58210500D01*
X115180500Y-58690500D02*
X115210500Y-58690500D01*
X115190500Y-57680500D02*
X115180500Y-57680500D01*
X115700500Y-58210500D02*
X115700500Y-58170500D01*
X115960500Y-57800500D02*
X116460500Y-57800500D01*
X116210500Y-57550500D02*
X116210500Y-58060500D01*
X108690500Y-60170500D02*
X108690500Y-60210500D01*
X109180500Y-60690500D02*
X109210500Y-60690500D01*
X109190500Y-59680500D02*
X109180500Y-59680500D01*
X109700500Y-60210500D02*
X109700500Y-60170500D01*
X109960500Y-59800500D02*
X110460500Y-59800500D01*
X110210500Y-59550500D02*
X110210500Y-60060500D01*
X112690500Y-64170500D02*
X112690500Y-64210500D01*
X113180500Y-64690500D02*
X113210500Y-64690500D01*
X113190500Y-63680500D02*
X113180500Y-63680500D01*
X113700500Y-64210500D02*
X113700500Y-64170500D01*
X113960500Y-63800500D02*
X114460500Y-63800500D01*
X114210500Y-63550500D02*
X114210500Y-64060500D01*
X98690500Y-64170500D02*
X98690500Y-64210500D01*
X99180500Y-64690500D02*
X99210500Y-64690500D01*
X99190500Y-63680500D02*
X99180500Y-63680500D01*
X99700500Y-64210500D02*
X99700500Y-64170500D01*
X99960500Y-63800500D02*
X100460500Y-63800500D01*
X100210500Y-63550500D02*
X100210500Y-64060500D01*
X92690500Y-60170500D02*
X92690500Y-60210500D01*
X93180500Y-60690500D02*
X93210500Y-60690500D01*
X93190500Y-59680500D02*
X93180500Y-59680500D01*
X93700500Y-60210500D02*
X93700500Y-60170500D01*
X93960500Y-59800500D02*
X94460500Y-59800500D01*
X94210500Y-59550500D02*
X94210500Y-60060500D01*
X96690500Y-60170500D02*
X96690500Y-60210500D01*
X97180500Y-60690500D02*
X97210500Y-60690500D01*
X97190500Y-59680500D02*
X97180500Y-59680500D01*
X97700500Y-60210500D02*
X97700500Y-60170500D01*
X97960500Y-59800500D02*
X98460500Y-59800500D01*
X98210500Y-59550500D02*
X98210500Y-60060500D01*
X106690500Y-66170500D02*
X106690500Y-66210500D01*
X107180500Y-66690500D02*
X107210500Y-66690500D01*
X107190500Y-65680500D02*
X107180500Y-65680500D01*
X107700500Y-66210500D02*
X107700500Y-66170500D01*
X107960500Y-65800500D02*
X108460500Y-65800500D01*
X108210500Y-65550500D02*
X108210500Y-66060500D01*
X96690500Y-66170500D02*
X96690500Y-66210500D01*
X97180500Y-66690500D02*
X97210500Y-66690500D01*
X97190500Y-65680500D02*
X97180500Y-65680500D01*
X97700500Y-66210500D02*
X97700500Y-66170500D01*
X97960500Y-65800500D02*
X98460500Y-65800500D01*
X98210500Y-65550500D02*
X98210500Y-66060500D01*
X96690500Y-64170500D02*
X96690500Y-64210500D01*
X97180500Y-64690500D02*
X97210500Y-64690500D01*
X97190500Y-63680500D02*
X97180500Y-63680500D01*
X97700500Y-64210500D02*
X97700500Y-64170500D01*
X97960500Y-63800500D02*
X98460500Y-63800500D01*
X98210500Y-63550500D02*
X98210500Y-64060500D01*
X104690500Y-54170500D02*
X104690500Y-54210500D01*
X105180500Y-54690500D02*
X105210500Y-54690500D01*
X105190500Y-53680500D02*
X105180500Y-53680500D01*
X105700500Y-54210500D02*
X105700500Y-54170500D01*
X105960500Y-53800500D02*
X106460500Y-53800500D01*
X106210500Y-53550500D02*
X106210500Y-54060500D01*
X112690500Y-52170500D02*
X112690500Y-52210500D01*
X113180500Y-52690500D02*
X113210500Y-52690500D01*
X113190500Y-51680500D02*
X113180500Y-51680500D01*
X113700500Y-52210500D02*
X113700500Y-52170500D01*
X113960500Y-51800500D02*
X114460500Y-51800500D01*
X114210500Y-51550500D02*
X114210500Y-52060500D01*
X92690500Y-56170500D02*
X92690500Y-56210500D01*
X93180500Y-56690500D02*
X93210500Y-56690500D01*
X93190500Y-55680500D02*
X93180500Y-55680500D01*
X93700500Y-56210500D02*
X93700500Y-56170500D01*
X93960500Y-55800500D02*
X94460500Y-55800500D01*
X94210500Y-55550500D02*
X94210500Y-56060500D01*
X96690500Y-62170500D02*
X96690500Y-62210500D01*
X97180500Y-62690500D02*
X97210500Y-62690500D01*
X97190500Y-61680500D02*
X97180500Y-61680500D01*
X97700500Y-62210500D02*
X97700500Y-62170500D01*
X97960500Y-61800500D02*
X98460500Y-61800500D01*
X98210500Y-61550500D02*
X98210500Y-62060500D01*
X112690500Y-68170500D02*
X112690500Y-68210500D01*
X113180500Y-68690500D02*
X113210500Y-68690500D01*
X113190500Y-67680500D02*
X113180500Y-67680500D01*
X113700500Y-68210500D02*
X113700500Y-68170500D01*
X113960500Y-67800500D02*
X114460500Y-67800500D01*
X114210500Y-67550500D02*
X114210500Y-68060500D01*
X90690500Y-58170500D02*
X90690500Y-58210500D01*
X91180500Y-58690500D02*
X91210500Y-58690500D01*
X91190500Y-57680500D02*
X91180500Y-57680500D01*
X91700500Y-58210500D02*
X91700500Y-58170500D01*
X91960500Y-57800500D02*
X92460500Y-57800500D01*
X92210500Y-57550500D02*
X92210500Y-58060500D01*
X92690500Y-68170500D02*
X92690500Y-68210500D01*
X93180500Y-68690500D02*
X93210500Y-68690500D01*
X93190500Y-67680500D02*
X93180500Y-67680500D01*
X93700500Y-68210500D02*
X93700500Y-68170500D01*
X93960500Y-67800500D02*
X94460500Y-67800500D01*
X94210500Y-67550500D02*
X94210500Y-68060500D01*
X92690500Y-58170500D02*
X92690500Y-58210500D01*
X93180500Y-58690500D02*
X93210500Y-58690500D01*
X93190500Y-57680500D02*
X93180500Y-57680500D01*
X93700500Y-58210500D02*
X93700500Y-58170500D01*
X93960500Y-57800500D02*
X94460500Y-57800500D01*
X94210500Y-57550500D02*
X94210500Y-58060500D01*
M02*
