G04 #@! TF.GenerationSoftware,KiCad,Pcbnew,9.0.1-9.0.1-0~ubuntu24.04.1*
G04 #@! TF.CreationDate,2025-04-23T13:35:13+02:00*
G04 #@! TF.ProjectId,ILM139C,494c4d31-3339-4432-9e6b-696361645f70,rev?*
G04 #@! TF.SameCoordinates,Original*
G04 #@! TF.FileFunction,Copper,L1,Top*
G04 #@! TF.FilePolarity,Positive*
%FSLAX46Y46*%
G04 Gerber Fmt 4.6, Leading zero omitted, Abs format (unit mm)*
G04 Created by KiCad (PCBNEW 9.0.1-9.0.1-0~ubuntu24.04.1) date 2025-04-23 13:35:13*
%MOMM*%
%LPD*%
G01*
G04 APERTURE LIST*
G04 #@! TA.AperFunction,SMDPad,CuDef*
%ADD10R,0.450000X0.450000*%
G04 #@! TD*
G04 #@! TA.AperFunction,ViaPad*
%ADD11C,0.250000*%
G04 #@! TD*
G04 #@! TA.AperFunction,Conductor*
%ADD12C,0.127000*%
G04 #@! TD*
G04 APERTURE END LIST*
D10*
X99610500Y-57770500D03*
X99610500Y-58610500D03*
X98770500Y-58610500D03*
X98770500Y-57770500D03*
X103610500Y-51770500D03*
X103610500Y-52610500D03*
X102770500Y-52610500D03*
X102770500Y-51770500D03*
X101610500Y-61770500D03*
X101610500Y-62610500D03*
X100770500Y-62610500D03*
X100770500Y-61770500D03*
X93610500Y-61770500D03*
X93610500Y-62610500D03*
X92770500Y-62610500D03*
X92770500Y-61770500D03*
X95610500Y-61770500D03*
X95610500Y-62610500D03*
X94770500Y-62610500D03*
X94770500Y-61770500D03*
X109610500Y-65770500D03*
X109610500Y-66610500D03*
X108770500Y-66610500D03*
X108770500Y-65770500D03*
X97610500Y-67770500D03*
X97610500Y-68610500D03*
X96770500Y-68610500D03*
X96770500Y-67770500D03*
X109610500Y-67770500D03*
X109610500Y-68610500D03*
X108770500Y-68610500D03*
X108770500Y-67770500D03*
X107610500Y-51770500D03*
X107610500Y-52610500D03*
X106770500Y-52610500D03*
X106770500Y-51770500D03*
X99610500Y-53770500D03*
X99610500Y-54610500D03*
X98770500Y-54610500D03*
X98770500Y-53770500D03*
X101610500Y-57770500D03*
X101610500Y-58610500D03*
X100770500Y-58610500D03*
X100770500Y-57770500D03*
X105610500Y-55770500D03*
X105610500Y-56610500D03*
X104770500Y-56610500D03*
X104770500Y-55770500D03*
X103610500Y-63770500D03*
X103610500Y-64610500D03*
X102770500Y-64610500D03*
X102770500Y-63770500D03*
X109610500Y-63770500D03*
X109610500Y-64610500D03*
X108770500Y-64610500D03*
X108770500Y-63770500D03*
X91610500Y-51770500D03*
X91610500Y-52610500D03*
X90770500Y-52610500D03*
X90770500Y-51770500D03*
X107610500Y-57770500D03*
X107610500Y-58610500D03*
X106770500Y-58610500D03*
X106770500Y-57770500D03*
X105610500Y-67770500D03*
X105610500Y-68610500D03*
X104770500Y-68610500D03*
X104770500Y-67770500D03*
X93610500Y-65770500D03*
X93610500Y-66610500D03*
X92770500Y-66610500D03*
X92770500Y-65770500D03*
X111610500Y-61770500D03*
X111610500Y-62610500D03*
X110770500Y-62610500D03*
X110770500Y-61770500D03*
X97610500Y-57770500D03*
X97610500Y-58610500D03*
X96770500Y-58610500D03*
X96770500Y-57770500D03*
X113610500Y-57770500D03*
X113610500Y-58610500D03*
X112770500Y-58610500D03*
X112770500Y-57770500D03*
X113610500Y-65770500D03*
X113610500Y-66610500D03*
X112770500Y-66610500D03*
X112770500Y-65770500D03*
X99610500Y-65770500D03*
X99610500Y-66610500D03*
X98770500Y-66610500D03*
X98770500Y-65770500D03*
X103610500Y-65770500D03*
X103610500Y-66610500D03*
X102770500Y-66610500D03*
X102770500Y-65770500D03*
X95610500Y-51770500D03*
X95610500Y-52610500D03*
X94770500Y-52610500D03*
X94770500Y-51770500D03*
X103610500Y-67770500D03*
X103610500Y-68610500D03*
X102770500Y-68610500D03*
X102770500Y-67770500D03*
X113610500Y-55770500D03*
X113610500Y-56610500D03*
X112770500Y-56610500D03*
X112770500Y-55770500D03*
X103610500Y-59770500D03*
X103610500Y-60610500D03*
X102770500Y-60610500D03*
X102770500Y-59770500D03*
X101610500Y-51770500D03*
X101610500Y-52610500D03*
X100770500Y-52610500D03*
X100770500Y-51770500D03*
X109610500Y-57770500D03*
X109610500Y-58610500D03*
X108770500Y-58610500D03*
X108770500Y-57770500D03*
X97610500Y-53770500D03*
X97610500Y-54610500D03*
X96770500Y-54610500D03*
X96770500Y-53770500D03*
X115610500Y-55770500D03*
X115610500Y-56610500D03*
X114770500Y-56610500D03*
X114770500Y-55770500D03*
X91610500Y-55770500D03*
X91610500Y-56610500D03*
X90770500Y-56610500D03*
X90770500Y-55770500D03*
X107610500Y-59770500D03*
X107610500Y-60610500D03*
X106770500Y-60610500D03*
X106770500Y-59770500D03*
X113610500Y-59770500D03*
X113610500Y-60610500D03*
X112770500Y-60610500D03*
X112770500Y-59770500D03*
X115610500Y-67770500D03*
X115610500Y-68610500D03*
X114770500Y-68610500D03*
X114770500Y-67770500D03*
X105610500Y-59770500D03*
X105610500Y-60610500D03*
X104770500Y-60610500D03*
X104770500Y-59770500D03*
X101610500Y-59770500D03*
X101610500Y-60610500D03*
X100770500Y-60610500D03*
X100770500Y-59770500D03*
X103610500Y-61770500D03*
X103610500Y-62610500D03*
X102770500Y-62610500D03*
X102770500Y-61770500D03*
X107610500Y-63770500D03*
X107610500Y-64610500D03*
X106770500Y-64610500D03*
X106770500Y-63770500D03*
X115610500Y-61770500D03*
X115610500Y-62610500D03*
X114770500Y-62610500D03*
X114770500Y-61770500D03*
X113610500Y-61770500D03*
X113610500Y-62610500D03*
X112770500Y-62610500D03*
X112770500Y-61770500D03*
X103610500Y-55770500D03*
X103610500Y-56610500D03*
X102770500Y-56610500D03*
X102770500Y-55770500D03*
X111610500Y-55770500D03*
X111610500Y-56610500D03*
X110770500Y-56610500D03*
X110770500Y-55770500D03*
X107610500Y-55770500D03*
X107610500Y-56610500D03*
X106770500Y-56610500D03*
X106770500Y-55770500D03*
X115610500Y-53770500D03*
X115610500Y-54610500D03*
X114770500Y-54610500D03*
X114770500Y-53770500D03*
X93610500Y-63770500D03*
X93610500Y-64610500D03*
X92770500Y-64610500D03*
X92770500Y-63770500D03*
X111610500Y-53770500D03*
X111610500Y-54610500D03*
X110770500Y-54610500D03*
X110770500Y-53770500D03*
X109610500Y-55770500D03*
X109610500Y-56610500D03*
X108770500Y-56610500D03*
X108770500Y-55770500D03*
X111610500Y-59770500D03*
X111610500Y-60610500D03*
X110770500Y-60610500D03*
X110770500Y-59770500D03*
X101610500Y-63770500D03*
X101610500Y-64610500D03*
X100770500Y-64610500D03*
X100770500Y-63770500D03*
X91610500Y-53770500D03*
X91610500Y-54610500D03*
X90770500Y-54610500D03*
X90770500Y-53770500D03*
X99610500Y-61770500D03*
X99610500Y-62610500D03*
X98770500Y-62610500D03*
X98770500Y-61770500D03*
X91610500Y-65770500D03*
X91610500Y-66610500D03*
X90770500Y-66610500D03*
X90770500Y-65770500D03*
X95610500Y-53770500D03*
X95610500Y-54610500D03*
X94770500Y-54610500D03*
X94770500Y-53770500D03*
X105610500Y-63770500D03*
X105610500Y-64610500D03*
X104770500Y-64610500D03*
X104770500Y-63770500D03*
X109610500Y-61770500D03*
X109610500Y-62610500D03*
X108770500Y-62610500D03*
X108770500Y-61770500D03*
X105610500Y-61770500D03*
X105610500Y-62610500D03*
X104770500Y-62610500D03*
X104770500Y-61770500D03*
X99610500Y-55770500D03*
X99610500Y-56610500D03*
X98770500Y-56610500D03*
X98770500Y-55770500D03*
X95610500Y-63770500D03*
X95610500Y-64610500D03*
X94770500Y-64610500D03*
X94770500Y-63770500D03*
X115610500Y-65770500D03*
X115610500Y-66610500D03*
X114770500Y-66610500D03*
X114770500Y-65770500D03*
X115610500Y-63770500D03*
X115610500Y-64610500D03*
X114770500Y-64610500D03*
X114770500Y-63770500D03*
X107610500Y-61770500D03*
X107610500Y-62610500D03*
X106770500Y-62610500D03*
X106770500Y-61770500D03*
X107610500Y-53770500D03*
X107610500Y-54610500D03*
X106770500Y-54610500D03*
X106770500Y-53770500D03*
X101610500Y-53770500D03*
X101610500Y-54610500D03*
X100770500Y-54610500D03*
X100770500Y-53770500D03*
X99610500Y-51770500D03*
X99610500Y-52610500D03*
X98770500Y-52610500D03*
X98770500Y-51770500D03*
X101610500Y-65770500D03*
X101610500Y-66610500D03*
X100770500Y-66610500D03*
X100770500Y-65770500D03*
X111610500Y-63770500D03*
X111610500Y-64610500D03*
X110770500Y-64610500D03*
X110770500Y-63770500D03*
X99610500Y-67770500D03*
X99610500Y-68610500D03*
X98770500Y-68610500D03*
X98770500Y-67770500D03*
X101610500Y-67770500D03*
X101610500Y-68610500D03*
X100770500Y-68610500D03*
X100770500Y-67770500D03*
X115610500Y-59770500D03*
X115610500Y-60610500D03*
X114770500Y-60610500D03*
X114770500Y-59770500D03*
X91610500Y-63770500D03*
X91610500Y-64610500D03*
X90770500Y-64610500D03*
X90770500Y-63770500D03*
X101610500Y-55770500D03*
X101610500Y-56610500D03*
X100770500Y-56610500D03*
X100770500Y-55770500D03*
X115610500Y-51770500D03*
X115610500Y-52610500D03*
X114770500Y-52610500D03*
X114770500Y-51770500D03*
X111610500Y-65770500D03*
X111610500Y-66610500D03*
X110770500Y-66610500D03*
X110770500Y-65770500D03*
X93610500Y-51770500D03*
X93610500Y-52610500D03*
X92770500Y-52610500D03*
X92770500Y-51770500D03*
X95610500Y-59770500D03*
X95610500Y-60610500D03*
X94770500Y-60610500D03*
X94770500Y-59770500D03*
X107610500Y-67770500D03*
X107610500Y-68610500D03*
X106770500Y-68610500D03*
X106770500Y-67770500D03*
X111610500Y-57770500D03*
X111610500Y-58610500D03*
X110770500Y-58610500D03*
X110770500Y-57770500D03*
X95610500Y-67770500D03*
X95610500Y-68610500D03*
X94770500Y-68610500D03*
X94770500Y-67770500D03*
X105610500Y-65770500D03*
X105610500Y-66610500D03*
X104770500Y-66610500D03*
X104770500Y-65770500D03*
X95610500Y-55770500D03*
X95610500Y-56610500D03*
X94770500Y-56610500D03*
X94770500Y-55770500D03*
X113610500Y-53770500D03*
X113610500Y-54610500D03*
X112770500Y-54610500D03*
X112770500Y-53770500D03*
X111610500Y-67770500D03*
X111610500Y-68610500D03*
X110770500Y-68610500D03*
X110770500Y-67770500D03*
X91610500Y-59770500D03*
X91610500Y-60610500D03*
X90770500Y-60610500D03*
X90770500Y-59770500D03*
X105610500Y-51770500D03*
X105610500Y-52610500D03*
X104770500Y-52610500D03*
X104770500Y-51770500D03*
X105610500Y-57770500D03*
X105610500Y-58610500D03*
X104770500Y-58610500D03*
X104770500Y-57770500D03*
X91610500Y-67770500D03*
X91610500Y-68610500D03*
X90770500Y-68610500D03*
X90770500Y-67770500D03*
X111610500Y-51770500D03*
X111610500Y-52610500D03*
X110770500Y-52610500D03*
X110770500Y-51770500D03*
X109610500Y-53770500D03*
X109610500Y-54610500D03*
X108770500Y-54610500D03*
X108770500Y-53770500D03*
X99610500Y-59770500D03*
X99610500Y-60610500D03*
X98770500Y-60610500D03*
X98770500Y-59770500D03*
X97610500Y-51770500D03*
X97610500Y-52610500D03*
X96770500Y-52610500D03*
X96770500Y-51770500D03*
X109610500Y-51770500D03*
X109610500Y-52610500D03*
X108770500Y-52610500D03*
X108770500Y-51770500D03*
X95610500Y-65770500D03*
X95610500Y-66610500D03*
X94770500Y-66610500D03*
X94770500Y-65770500D03*
X95610500Y-57770500D03*
X95610500Y-58610500D03*
X94770500Y-58610500D03*
X94770500Y-57770500D03*
X97610500Y-55770500D03*
X97610500Y-56610500D03*
X96770500Y-56610500D03*
X96770500Y-55770500D03*
X103610500Y-57770500D03*
X103610500Y-58610500D03*
X102770500Y-58610500D03*
X102770500Y-57770500D03*
X93610500Y-53770500D03*
X93610500Y-54610500D03*
X92770500Y-54610500D03*
X92770500Y-53770500D03*
X91610500Y-61770500D03*
X91610500Y-62610500D03*
X90770500Y-62610500D03*
X90770500Y-61770500D03*
X103610500Y-53770500D03*
X103610500Y-54610500D03*
X102770500Y-54610500D03*
X102770500Y-53770500D03*
X115610500Y-57770500D03*
X115610500Y-58610500D03*
X114770500Y-58610500D03*
X114770500Y-57770500D03*
X109610500Y-59770500D03*
X109610500Y-60610500D03*
X108770500Y-60610500D03*
X108770500Y-59770500D03*
X113610500Y-63770500D03*
X113610500Y-64610500D03*
X112770500Y-64610500D03*
X112770500Y-63770500D03*
X99610500Y-63770500D03*
X99610500Y-64610500D03*
X98770500Y-64610500D03*
X98770500Y-63770500D03*
X93610500Y-59770500D03*
X93610500Y-60610500D03*
X92770500Y-60610500D03*
X92770500Y-59770500D03*
X97610500Y-59770500D03*
X97610500Y-60610500D03*
X96770500Y-60610500D03*
X96770500Y-59770500D03*
X107610500Y-65770500D03*
X107610500Y-66610500D03*
X106770500Y-66610500D03*
X106770500Y-65770500D03*
X97610500Y-65770500D03*
X97610500Y-66610500D03*
X96770500Y-66610500D03*
X96770500Y-65770500D03*
X97610500Y-63770500D03*
X97610500Y-64610500D03*
X96770500Y-64610500D03*
X96770500Y-63770500D03*
X105610500Y-53770500D03*
X105610500Y-54610500D03*
X104770500Y-54610500D03*
X104770500Y-53770500D03*
X113610500Y-51770500D03*
X113610500Y-52610500D03*
X112770500Y-52610500D03*
X112770500Y-51770500D03*
X93610500Y-55770500D03*
X93610500Y-56610500D03*
X92770500Y-56610500D03*
X92770500Y-55770500D03*
X97610500Y-61770500D03*
X97610500Y-62610500D03*
X96770500Y-62610500D03*
X96770500Y-61770500D03*
X113610500Y-67770500D03*
X113610500Y-68610500D03*
X112770500Y-68610500D03*
X112770500Y-67770500D03*
X91610500Y-57770500D03*
X91610500Y-58610500D03*
X90770500Y-58610500D03*
X90770500Y-57770500D03*
X93610500Y-67770500D03*
X93610500Y-68610500D03*
X92770500Y-68610500D03*
X92770500Y-67770500D03*
X93610500Y-57770500D03*
X93610500Y-58610500D03*
X92770500Y-58610500D03*
X92770500Y-57770500D03*
D11*
X93610500Y-52610500D03*
X100770500Y-64610500D03*
X101610500Y-64610500D03*
X102770500Y-63770500D03*
X102770500Y-62610500D03*
X103610500Y-62610500D03*
X104770500Y-61770500D03*
X104770500Y-62610500D03*
X105610500Y-62610500D03*
X106770500Y-61770500D03*
X106770500Y-60610500D03*
X107610500Y-58610500D03*
X108770500Y-59770500D03*
X108770500Y-58610500D03*
X109610500Y-58610500D03*
X110770500Y-57770500D03*
X110770500Y-56610500D03*
X111610500Y-56610500D03*
X112770500Y-53770500D03*
X112770500Y-54610500D03*
X113610500Y-56610500D03*
X115610500Y-56610500D03*
X114770500Y-52610500D03*
X114770500Y-53770500D03*
X92770500Y-54610500D03*
X92770500Y-57770500D03*
X100770500Y-57770500D03*
X99610500Y-58610500D03*
X98770500Y-58610500D03*
X98770500Y-59770500D03*
X97610500Y-60610500D03*
X96770500Y-62610500D03*
X96770500Y-63770500D03*
X94770500Y-62610500D03*
X94770500Y-63770500D03*
X95610500Y-66610500D03*
X90770500Y-59770500D03*
X90770500Y-58610500D03*
X91610500Y-54610500D03*
X93460500Y-57190500D03*
X91720500Y-57190500D03*
X113610500Y-63770500D03*
X113610750Y-55087502D03*
X93460500Y-63190500D03*
X91720500Y-63190500D03*
X93460500Y-61190500D03*
X91720500Y-61190500D03*
X93460500Y-59190500D03*
X91720500Y-59190500D03*
X93610750Y-55087502D03*
X91610750Y-55087502D03*
X115610500Y-67770500D03*
X113610500Y-67770500D03*
X111610500Y-67770500D03*
X109610500Y-67770500D03*
X107610500Y-67770500D03*
X105610500Y-67770500D03*
X103610500Y-67770500D03*
X101610500Y-67770500D03*
X99610500Y-67770500D03*
X97610500Y-67770500D03*
X95610500Y-67770500D03*
X93610500Y-67770500D03*
X91610500Y-67770500D03*
X91610500Y-65770500D03*
X93610500Y-65770500D03*
X95610500Y-65770500D03*
X97610500Y-65770500D03*
X99610500Y-65770500D03*
X101610500Y-65770500D03*
X103610500Y-65770500D03*
X105610500Y-65770500D03*
X107610500Y-65770500D03*
X109610500Y-65770500D03*
X111610500Y-65770500D03*
X113610500Y-65770500D03*
X115610500Y-65770500D03*
X115610500Y-63770500D03*
X111610500Y-63770500D03*
X109610500Y-63770500D03*
X107610500Y-63770500D03*
X105610500Y-63770500D03*
X103610500Y-63770500D03*
X101610500Y-63770500D03*
X99610500Y-63770500D03*
X97610500Y-63770500D03*
X95610500Y-63770500D03*
X95610500Y-61770500D03*
X97610500Y-61770500D03*
X99610500Y-61770500D03*
X101610500Y-61770500D03*
X103610500Y-61770500D03*
X105610500Y-61770500D03*
X107610500Y-61770500D03*
X109610500Y-61770500D03*
X111610500Y-61770500D03*
X113610500Y-61770500D03*
X115610500Y-61770500D03*
X115610500Y-59770500D03*
X113610500Y-57770500D03*
X113610500Y-59770500D03*
X111610500Y-59770500D03*
X109610500Y-59770500D03*
X107610500Y-59770500D03*
X105610500Y-59770500D03*
X103610500Y-59770500D03*
X101610500Y-59770500D03*
X99610500Y-59770500D03*
X97610500Y-59770500D03*
X95610500Y-59770500D03*
X95610500Y-57770500D03*
X97610500Y-57770500D03*
X99610500Y-57770500D03*
X101610500Y-57770500D03*
X103610500Y-57770500D03*
X105610500Y-57770500D03*
X107610500Y-57770500D03*
X109610500Y-57770500D03*
X111610500Y-57770500D03*
X115610500Y-57770500D03*
X115610500Y-55770500D03*
X111610500Y-55770500D03*
X109610500Y-55770500D03*
X107610500Y-55770500D03*
X105610500Y-55770500D03*
X103610500Y-55770500D03*
X101610500Y-55770500D03*
X99610500Y-55770500D03*
X97610500Y-55770500D03*
X95610500Y-55770500D03*
X91610500Y-53770500D03*
X93610500Y-53770500D03*
X95610500Y-53770500D03*
X97610500Y-53770500D03*
X99610500Y-53770500D03*
X101610500Y-53770500D03*
X103610500Y-53770500D03*
X105610500Y-53770500D03*
X107610500Y-53770500D03*
X109610500Y-53770500D03*
X111610500Y-53770500D03*
X113610500Y-53770500D03*
X115610500Y-53770500D03*
X115610500Y-51770500D03*
X113610500Y-51770500D03*
X111610500Y-51770500D03*
X109610500Y-51770500D03*
X107610500Y-51770500D03*
X105610500Y-51770500D03*
X103610500Y-51770500D03*
X101610500Y-51770500D03*
X99610500Y-51770500D03*
X97610500Y-51770500D03*
X95610500Y-51770500D03*
X93610500Y-51770500D03*
X91610500Y-51770500D03*
D12*
X92357750Y-59357750D02*
X92357750Y-58183250D01*
X92357750Y-58183250D02*
X92770500Y-57770500D01*
X93610500Y-58610500D02*
X94042750Y-58178250D01*
X94042750Y-58178250D02*
X94042750Y-57042750D01*
X94042750Y-57042750D02*
X93610500Y-56610500D01*
X92770500Y-57770500D02*
X92381000Y-57381000D01*
X92381000Y-57381000D02*
X92381000Y-56160000D01*
X92770500Y-56610500D02*
X92770500Y-56980626D01*
X92770500Y-56980626D02*
X93160000Y-57370126D01*
X93160000Y-57370126D02*
X93160000Y-58221000D01*
X93160000Y-58221000D02*
X92770500Y-58610500D01*
X91610500Y-56610500D02*
X91620626Y-56610500D01*
X91620626Y-56610500D02*
X92060000Y-57049874D01*
X92060000Y-57049874D02*
X92060000Y-58161000D01*
X92060000Y-58161000D02*
X91610500Y-58610500D01*
X93610500Y-57770500D02*
X93610500Y-57340500D01*
X93610500Y-57340500D02*
X93460500Y-57190500D01*
X91610500Y-57770500D02*
X91610500Y-57300500D01*
X91610500Y-57300500D02*
X91720500Y-57190500D01*
X115610500Y-66610500D02*
X116000000Y-67000000D01*
X116000000Y-67000000D02*
X116000000Y-68221000D01*
X116000000Y-68221000D02*
X115610500Y-68610500D01*
X115610500Y-64610500D02*
X116000000Y-65000000D01*
X116000000Y-65000000D02*
X116000000Y-66221000D01*
X116000000Y-66221000D02*
X115610500Y-66610500D01*
X115610500Y-62610500D02*
X116000000Y-63000000D01*
X116000000Y-63000000D02*
X116000000Y-64221000D01*
X116000000Y-64221000D02*
X115610500Y-64610500D01*
X115610500Y-60610500D02*
X116000000Y-61000000D01*
X116000000Y-61000000D02*
X116000000Y-62221000D01*
X116000000Y-62221000D02*
X115610500Y-62610500D01*
X115610500Y-58610500D02*
X116000000Y-59000000D01*
X116000000Y-59000000D02*
X116000000Y-60221000D01*
X116000000Y-60221000D02*
X115610500Y-60610500D01*
X115610500Y-56610500D02*
X116000000Y-57000000D01*
X116000000Y-57000000D02*
X116000000Y-58221000D01*
X116000000Y-58221000D02*
X115610500Y-58610500D01*
X115610500Y-54610500D02*
X116000000Y-55000000D01*
X116000000Y-55000000D02*
X116000000Y-56221000D01*
X116000000Y-56221000D02*
X115610500Y-56610500D01*
X115610500Y-52610500D02*
X116000000Y-53000000D01*
X116000000Y-53000000D02*
X116000000Y-54221000D01*
X116000000Y-54221000D02*
X115610500Y-54610500D01*
X114770500Y-54610500D02*
X115160000Y-54221000D01*
X115160000Y-54221000D02*
X115160000Y-53000000D01*
X115160000Y-53000000D02*
X114770500Y-52610500D01*
X114770500Y-56610500D02*
X115160000Y-56221000D01*
X115160000Y-56221000D02*
X115160000Y-55000000D01*
X115160000Y-55000000D02*
X114770500Y-54610500D01*
X114770500Y-58610500D02*
X115160000Y-58221000D01*
X115160000Y-58221000D02*
X115160000Y-57000000D01*
X115160000Y-57000000D02*
X114770500Y-56610500D01*
X114770500Y-60610500D02*
X115160000Y-60221000D01*
X115160000Y-60221000D02*
X115160000Y-59000000D01*
X115160000Y-59000000D02*
X114770500Y-58610500D01*
X114770500Y-62610500D02*
X115160000Y-62221000D01*
X115160000Y-62221000D02*
X115160000Y-61000000D01*
X115160000Y-61000000D02*
X114770500Y-60610500D01*
X114770500Y-64610500D02*
X115160000Y-64221000D01*
X115160000Y-64221000D02*
X115160000Y-63000000D01*
X115160000Y-63000000D02*
X114770500Y-62610500D01*
X114770500Y-66610500D02*
X115160000Y-66221000D01*
X115160000Y-66221000D02*
X115160000Y-65000000D01*
X115160000Y-65000000D02*
X114770500Y-64610500D01*
X114770500Y-68610500D02*
X115160000Y-68221000D01*
X115160000Y-68221000D02*
X115160000Y-67000000D01*
X115160000Y-67000000D02*
X114770500Y-66610500D01*
X114770500Y-65770500D02*
X114381000Y-66160000D01*
X114381000Y-66160000D02*
X114381000Y-67381000D01*
X114381000Y-67381000D02*
X114770500Y-67770500D01*
X114770500Y-63770500D02*
X114381000Y-64160000D01*
X114381000Y-64160000D02*
X114381000Y-65381000D01*
X114381000Y-65381000D02*
X114770500Y-65770500D01*
X114770500Y-61770500D02*
X114381000Y-62160000D01*
X114381000Y-62160000D02*
X114381000Y-63381000D01*
X114381000Y-63381000D02*
X114770500Y-63770500D01*
X114770500Y-59770500D02*
X114381000Y-60160000D01*
X114381000Y-60160000D02*
X114381000Y-61381000D01*
X114381000Y-61381000D02*
X114770500Y-61770500D01*
X114770500Y-57770500D02*
X114381000Y-58160000D01*
X114381000Y-58160000D02*
X114381000Y-59381000D01*
X114381000Y-59381000D02*
X114770500Y-59770500D01*
X114770500Y-55770500D02*
X114381000Y-56160000D01*
X114381000Y-56160000D02*
X114381000Y-57381000D01*
X114381000Y-57381000D02*
X114770500Y-57770500D01*
X114770500Y-53825500D02*
X114381000Y-54215000D01*
X114770500Y-53770500D02*
X114770500Y-53825500D01*
X114381000Y-54215000D02*
X114381000Y-55381000D01*
X114381000Y-55381000D02*
X114770500Y-55770500D01*
X114770500Y-51770500D02*
X114381000Y-52160000D01*
X114381000Y-52160000D02*
X114381000Y-53381000D01*
X114381000Y-53381000D02*
X114770500Y-53770500D01*
X113610500Y-54610500D02*
X114000000Y-54221000D01*
X114000000Y-54221000D02*
X114000000Y-53000000D01*
X114000000Y-53000000D02*
X113610500Y-52610500D01*
X113610500Y-56610500D02*
X114000000Y-56221000D01*
X114000000Y-56221000D02*
X114000000Y-54996626D01*
X114000000Y-54996626D02*
X113613874Y-54610500D01*
X113613874Y-54610500D02*
X113610500Y-54610500D01*
X113610500Y-58610500D02*
X114000000Y-58221000D01*
X114000000Y-58221000D02*
X114000000Y-57000000D01*
X114000000Y-57000000D02*
X113610500Y-56610500D01*
X113610500Y-60610500D02*
X114000000Y-60221000D01*
X114000000Y-60221000D02*
X114000000Y-59000000D01*
X114000000Y-59000000D02*
X113610500Y-58610500D01*
X113610500Y-62610500D02*
X114000000Y-62221000D01*
X114000000Y-62221000D02*
X114000000Y-61000000D01*
X114000000Y-61000000D02*
X113610500Y-60610500D01*
X113610500Y-64610500D02*
X114000000Y-64221000D01*
X114000000Y-63000000D02*
X113610500Y-62610500D01*
X114000000Y-64221000D02*
X114000000Y-63000000D01*
X113610500Y-66610500D02*
X114000000Y-66221000D01*
X114000000Y-66221000D02*
X114000000Y-65000000D01*
X114000000Y-65000000D02*
X113610500Y-64610500D01*
X113610500Y-68610500D02*
X114000000Y-68221000D01*
X114000000Y-68221000D02*
X114000000Y-67000000D01*
X114000000Y-67000000D02*
X113610500Y-66610500D01*
X112770500Y-66610500D02*
X113160000Y-67000000D01*
X113160000Y-67000000D02*
X113160000Y-68221000D01*
X113160000Y-68221000D02*
X112770500Y-68610500D01*
X112770500Y-64610500D02*
X113160000Y-65000000D01*
X113160000Y-65000000D02*
X113160000Y-66221000D01*
X113160000Y-66221000D02*
X112770500Y-66610500D01*
X112770500Y-62610500D02*
X113160000Y-63000000D01*
X113160000Y-63000000D02*
X113160000Y-64221000D01*
X113160000Y-64221000D02*
X112770500Y-64610500D01*
X112770500Y-60610500D02*
X113160000Y-61000000D01*
X113160000Y-61000000D02*
X113160000Y-62221000D01*
X113160000Y-62221000D02*
X112770500Y-62610500D01*
X112770500Y-58610500D02*
X113160000Y-59000000D01*
X113160000Y-59000000D02*
X113160000Y-60221000D01*
X113160000Y-60221000D02*
X112770500Y-60610500D01*
X112770500Y-56610500D02*
X113160000Y-57000000D01*
X113160000Y-57000000D02*
X113160000Y-58221000D01*
X113160000Y-58221000D02*
X112770500Y-58610500D01*
X112770500Y-54610500D02*
X113160000Y-55000000D01*
X113160000Y-55000000D02*
X113160000Y-56221000D01*
X113160000Y-56221000D02*
X112770500Y-56610500D01*
X112770500Y-52610500D02*
X113160000Y-53000000D01*
X113160000Y-53000000D02*
X113160000Y-54221000D01*
X113160000Y-54221000D02*
X112770500Y-54610500D01*
X112770500Y-53770500D02*
X112381000Y-53381000D01*
X112381000Y-52160000D02*
X112770500Y-51770500D01*
X112381000Y-53381000D02*
X112381000Y-52160000D01*
X112770500Y-55770500D02*
X112381000Y-55381000D01*
X112381000Y-55381000D02*
X112381000Y-54160000D01*
X112381000Y-54160000D02*
X112770500Y-53770500D01*
X112770500Y-57770500D02*
X112381000Y-57381000D01*
X112381000Y-57381000D02*
X112381000Y-56160000D01*
X112381000Y-56160000D02*
X112770500Y-55770500D01*
X112770500Y-59770500D02*
X112381000Y-59381000D01*
X112381000Y-59381000D02*
X112381000Y-58160000D01*
X112381000Y-58160000D02*
X112770500Y-57770500D01*
X112770500Y-61770500D02*
X112381000Y-61381000D01*
X112381000Y-61381000D02*
X112381000Y-60160000D01*
X112381000Y-60160000D02*
X112770500Y-59770500D01*
X112770500Y-63770500D02*
X112381000Y-63381000D01*
X112381000Y-63381000D02*
X112381000Y-62160000D01*
X112381000Y-62160000D02*
X112770500Y-61770500D01*
X112770500Y-65770500D02*
X112381000Y-65381000D01*
X112381000Y-65381000D02*
X112381000Y-64160000D01*
X112381000Y-64160000D02*
X112770500Y-63770500D01*
X112770500Y-67770500D02*
X112381000Y-67381000D01*
X112381000Y-67381000D02*
X112381000Y-66160000D01*
X112381000Y-66160000D02*
X112770500Y-65770500D01*
X111610500Y-66610500D02*
X112000000Y-67000000D01*
X112000000Y-67000000D02*
X112000000Y-68221000D01*
X112000000Y-68221000D02*
X111610500Y-68610500D01*
X111610500Y-64610500D02*
X112000000Y-65000000D01*
X112000000Y-65000000D02*
X112000000Y-66221000D01*
X112000000Y-66221000D02*
X111610500Y-66610500D01*
X111610500Y-62610500D02*
X112000000Y-63000000D01*
X112000000Y-63000000D02*
X112000000Y-64221000D01*
X112000000Y-64221000D02*
X111610500Y-64610500D01*
X111610500Y-60610500D02*
X112000000Y-61000000D01*
X112000000Y-61000000D02*
X112000000Y-62221000D01*
X112000000Y-62221000D02*
X111610500Y-62610500D01*
X111610500Y-58610500D02*
X112000000Y-59000000D01*
X112000000Y-59000000D02*
X112000000Y-60221000D01*
X112000000Y-60221000D02*
X111610500Y-60610500D01*
X111610500Y-56610500D02*
X112000000Y-57000000D01*
X112000000Y-57000000D02*
X112000000Y-58221000D01*
X112000000Y-58221000D02*
X111610500Y-58610500D01*
X111610500Y-54610500D02*
X112040750Y-55040750D01*
X112040750Y-55040750D02*
X112040750Y-56180250D01*
X112040750Y-56180250D02*
X111610500Y-56610500D01*
X111610500Y-52610500D02*
X112000000Y-53000000D01*
X112000000Y-53000000D02*
X112000000Y-54221000D01*
X112000000Y-54221000D02*
X111610500Y-54610500D01*
X110770500Y-54610500D02*
X111160000Y-54221000D01*
X111160000Y-54221000D02*
X111160000Y-53000000D01*
X111160000Y-53000000D02*
X110770500Y-52610500D01*
X110770500Y-56610500D02*
X111160000Y-56221000D01*
X111160000Y-56221000D02*
X111160000Y-55000000D01*
X111160000Y-55000000D02*
X110770500Y-54610500D01*
X110770500Y-58610500D02*
X111160000Y-58221000D01*
X111160000Y-58221000D02*
X111160000Y-57000000D01*
X111160000Y-57000000D02*
X110770500Y-56610500D01*
X110770500Y-60610500D02*
X111160000Y-60221000D01*
X111160000Y-60221000D02*
X111160000Y-59000000D01*
X111160000Y-59000000D02*
X110770500Y-58610500D01*
X110770500Y-62610500D02*
X111160000Y-62221000D01*
X111160000Y-62221000D02*
X111160000Y-61000000D01*
X111160000Y-61000000D02*
X110770500Y-60610500D01*
X110770500Y-64610500D02*
X111160000Y-64221000D01*
X111160000Y-64221000D02*
X111160000Y-63000000D01*
X111160000Y-63000000D02*
X110770500Y-62610500D01*
X110770500Y-66610500D02*
X111160000Y-66221000D01*
X111160000Y-66221000D02*
X111160000Y-65000000D01*
X111160000Y-65000000D02*
X110770500Y-64610500D01*
X110770500Y-68610500D02*
X111160000Y-68221000D01*
X111160000Y-68221000D02*
X111160000Y-67000000D01*
X111160000Y-67000000D02*
X110770500Y-66610500D01*
X110770500Y-65770500D02*
X110381000Y-66160000D01*
X110381000Y-66160000D02*
X110381000Y-67381000D01*
X110381000Y-67381000D02*
X110770500Y-67770500D01*
X110770500Y-63770500D02*
X110381000Y-64160000D01*
X110381000Y-64160000D02*
X110381000Y-65381000D01*
X110381000Y-65381000D02*
X110770500Y-65770500D01*
X110770500Y-61770500D02*
X110381000Y-62160000D01*
X110381000Y-62160000D02*
X110381000Y-63381000D01*
X110381000Y-63381000D02*
X110770500Y-63770500D01*
X110770500Y-59770500D02*
X110381000Y-60160000D01*
X110381000Y-60160000D02*
X110381000Y-61381000D01*
X110381000Y-61381000D02*
X110770500Y-61770500D01*
X110770500Y-57770500D02*
X110381000Y-58160000D01*
X110381000Y-58160000D02*
X110381000Y-59381000D01*
X110381000Y-59381000D02*
X110770500Y-59770500D01*
X110770500Y-55770500D02*
X110381000Y-56160000D01*
X110381000Y-56160000D02*
X110381000Y-57381000D01*
X110381000Y-57381000D02*
X110770500Y-57770500D01*
X110770500Y-53770500D02*
X110381000Y-54160000D01*
X110381000Y-54160000D02*
X110381000Y-55381000D01*
X110381000Y-55381000D02*
X110770500Y-55770500D01*
X110770500Y-51770500D02*
X110381000Y-52160000D01*
X110381000Y-52160000D02*
X110381000Y-53381000D01*
X110381000Y-53381000D02*
X110770500Y-53770500D01*
X109610500Y-54610500D02*
X110000000Y-54221000D01*
X110000000Y-54221000D02*
X110000000Y-53000000D01*
X110000000Y-53000000D02*
X109610500Y-52610500D01*
X109610500Y-56610500D02*
X110000000Y-56221000D01*
X110000000Y-56221000D02*
X110000000Y-55000000D01*
X110000000Y-55000000D02*
X109610500Y-54610500D01*
X109610500Y-58610500D02*
X110000000Y-58221000D01*
X110000000Y-58221000D02*
X110000000Y-57000000D01*
X110000000Y-57000000D02*
X109610500Y-56610500D01*
X109610500Y-60610500D02*
X110000000Y-60221000D01*
X110000000Y-60221000D02*
X110000000Y-59000000D01*
X110000000Y-59000000D02*
X109610500Y-58610500D01*
X109610500Y-62610500D02*
X110000000Y-62221000D01*
X110000000Y-62221000D02*
X110000000Y-61000000D01*
X110000000Y-61000000D02*
X109610500Y-60610500D01*
X109610500Y-64610500D02*
X110000000Y-64221000D01*
X110000000Y-63000000D02*
X109610500Y-62610500D01*
X110000000Y-64221000D02*
X110000000Y-63000000D01*
X109610500Y-66610500D02*
X110000000Y-66221000D01*
X110000000Y-66221000D02*
X110000000Y-65000000D01*
X110000000Y-65000000D02*
X109610500Y-64610500D01*
X109610500Y-68610500D02*
X110000000Y-68221000D01*
X110000000Y-68221000D02*
X110000000Y-67000000D01*
X110000000Y-67000000D02*
X109610500Y-66610500D01*
X108770500Y-66610500D02*
X109160000Y-67000000D01*
X109160000Y-67000000D02*
X109160000Y-68221000D01*
X109160000Y-68221000D02*
X108770500Y-68610500D01*
X108770500Y-64610500D02*
X109160000Y-65000000D01*
X109160000Y-65000000D02*
X109160000Y-66221000D01*
X109160000Y-66221000D02*
X108770500Y-66610500D01*
X108770500Y-62610500D02*
X109160000Y-63000000D01*
X109160000Y-63000000D02*
X109160000Y-64221000D01*
X109160000Y-64221000D02*
X108770500Y-64610500D01*
X108770500Y-60610500D02*
X109160000Y-61000000D01*
X109160000Y-61000000D02*
X109160000Y-62221000D01*
X109160000Y-62221000D02*
X108770500Y-62610500D01*
X108770500Y-58610500D02*
X109160000Y-59000000D01*
X109160000Y-59000000D02*
X109160000Y-60221000D01*
X109160000Y-60221000D02*
X108770500Y-60610500D01*
X108770500Y-56610500D02*
X109160000Y-57000000D01*
X109160000Y-57000000D02*
X109160000Y-58221000D01*
X109160000Y-58221000D02*
X108770500Y-58610500D01*
X108770500Y-54610500D02*
X109160000Y-55000000D01*
X109160000Y-55000000D02*
X109160000Y-56221000D01*
X109160000Y-56221000D02*
X108770500Y-56610500D01*
X108770500Y-52610500D02*
X109160000Y-53000000D01*
X109160000Y-53000000D02*
X109160000Y-54221000D01*
X109160000Y-54221000D02*
X108770500Y-54610500D01*
X108770500Y-53747000D02*
X108381000Y-53357500D01*
X108770500Y-53770500D02*
X108770500Y-53747000D01*
X108381000Y-52160000D02*
X108770500Y-51770500D01*
X108381000Y-53357500D02*
X108381000Y-52160000D01*
X108770500Y-55770500D02*
X108381000Y-55381000D01*
X108381000Y-55381000D02*
X108381000Y-54160000D01*
X108381000Y-54160000D02*
X108770500Y-53770500D01*
X108770500Y-57770500D02*
X108381000Y-57381000D01*
X108381000Y-57381000D02*
X108381000Y-56160000D01*
X108381000Y-56160000D02*
X108770500Y-55770500D01*
X108770500Y-59770500D02*
X108381000Y-59381000D01*
X108381000Y-59381000D02*
X108381000Y-58160000D01*
X108381000Y-58160000D02*
X108770500Y-57770500D01*
X108770500Y-61770500D02*
X108381000Y-61381000D01*
X108381000Y-61381000D02*
X108381000Y-60160000D01*
X108381000Y-60160000D02*
X108770500Y-59770500D01*
X108770500Y-63770500D02*
X108381000Y-63381000D01*
X108381000Y-63381000D02*
X108381000Y-62160000D01*
X108381000Y-62160000D02*
X108770500Y-61770500D01*
X108770500Y-65770500D02*
X108381000Y-65381000D01*
X108381000Y-65381000D02*
X108381000Y-64160000D01*
X108381000Y-64160000D02*
X108770500Y-63770500D01*
X108770500Y-67770500D02*
X108381000Y-67381000D01*
X108381000Y-66160000D02*
X108770500Y-65770500D01*
X108381000Y-67381000D02*
X108381000Y-66160000D01*
X107610500Y-66610500D02*
X108000000Y-67000000D01*
X108000000Y-68221000D02*
X107610500Y-68610500D01*
X108000000Y-67000000D02*
X108000000Y-68221000D01*
X107610500Y-64610500D02*
X108000000Y-65000000D01*
X108000000Y-65000000D02*
X108000000Y-66221000D01*
X108000000Y-66221000D02*
X107610500Y-66610500D01*
X107610500Y-62610500D02*
X108000000Y-63000000D01*
X108000000Y-63000000D02*
X108000000Y-64221000D01*
X108000000Y-64221000D02*
X107610500Y-64610500D01*
X107610500Y-60610500D02*
X108000000Y-61000000D01*
X108000000Y-61000000D02*
X108000000Y-62221000D01*
X108000000Y-62221000D02*
X107610500Y-62610500D01*
X107610500Y-58610500D02*
X108000000Y-59000000D01*
X108000000Y-59000000D02*
X108000000Y-60221000D01*
X108000000Y-60221000D02*
X107610500Y-60610500D01*
X107610500Y-56610500D02*
X108000000Y-57000000D01*
X108000000Y-57000000D02*
X108000000Y-58221000D01*
X108000000Y-58221000D02*
X107610500Y-58610500D01*
X107610500Y-54610500D02*
X108000000Y-55000000D01*
X108000000Y-55000000D02*
X108000000Y-56221000D01*
X108000000Y-56221000D02*
X107610500Y-56610500D01*
X107610500Y-52610500D02*
X108000000Y-53000000D01*
X108000000Y-53000000D02*
X108000000Y-54221000D01*
X108000000Y-54221000D02*
X107610500Y-54610500D01*
X106770500Y-54610500D02*
X107160000Y-54221000D01*
X107160000Y-54221000D02*
X107160000Y-53000000D01*
X107160000Y-53000000D02*
X106770500Y-52610500D01*
X106770500Y-56610500D02*
X107160000Y-56221000D01*
X107160000Y-56221000D02*
X107160000Y-55000000D01*
X107160000Y-55000000D02*
X106770500Y-54610500D01*
X106770500Y-58610500D02*
X107160000Y-58221000D01*
X107160000Y-58221000D02*
X107160000Y-57000000D01*
X107160000Y-57000000D02*
X106770500Y-56610500D01*
X106770500Y-60610500D02*
X107160000Y-60221000D01*
X107160000Y-60221000D02*
X107160000Y-59000000D01*
X107160000Y-59000000D02*
X106770500Y-58610500D01*
X106770500Y-62610500D02*
X107160000Y-62221000D01*
X107160000Y-62221000D02*
X107160000Y-61000000D01*
X107160000Y-61000000D02*
X106770500Y-60610500D01*
X106770500Y-64610500D02*
X107160000Y-64221000D01*
X107160000Y-64221000D02*
X107160000Y-63000000D01*
X107160000Y-63000000D02*
X106770500Y-62610500D01*
X106770500Y-66610500D02*
X107160000Y-66221000D01*
X107160000Y-66221000D02*
X107160000Y-65000000D01*
X107160000Y-65000000D02*
X106770500Y-64610500D01*
X106770500Y-68610500D02*
X107160000Y-68221000D01*
X107160000Y-68221000D02*
X107160000Y-67000000D01*
X107160000Y-67000000D02*
X106770500Y-66610500D01*
X106770500Y-65770500D02*
X106381000Y-66160000D01*
X106381000Y-67381000D02*
X106770500Y-67770500D01*
X106381000Y-66160000D02*
X106381000Y-67381000D01*
X106770500Y-63770500D02*
X106381000Y-64160000D01*
X106381000Y-64160000D02*
X106381000Y-65381000D01*
X106381000Y-65381000D02*
X106770500Y-65770500D01*
X106770500Y-61770500D02*
X106381000Y-62160000D01*
X106381000Y-62160000D02*
X106381000Y-63381000D01*
X106381000Y-63381000D02*
X106770500Y-63770500D01*
X106770500Y-59770500D02*
X106381000Y-60160000D01*
X106381000Y-60160000D02*
X106381000Y-61381000D01*
X106381000Y-61381000D02*
X106770500Y-61770500D01*
X106770500Y-57770500D02*
X106381000Y-58160000D01*
X106381000Y-58160000D02*
X106381000Y-59381000D01*
X106381000Y-59381000D02*
X106770500Y-59770500D01*
X106770500Y-55770500D02*
X106381000Y-56160000D01*
X106381000Y-56160000D02*
X106381000Y-57381000D01*
X106381000Y-57381000D02*
X106770500Y-57770500D01*
X106770500Y-53770500D02*
X106381000Y-54160000D01*
X106381000Y-54160000D02*
X106381000Y-55381000D01*
X106381000Y-55381000D02*
X106770500Y-55770500D01*
X106770500Y-51770500D02*
X106381000Y-52160000D01*
X106381000Y-52160000D02*
X106381000Y-53381000D01*
X106381000Y-53381000D02*
X106770500Y-53770500D01*
X105610500Y-54610500D02*
X106000000Y-54221000D01*
X106000000Y-54221000D02*
X106000000Y-53000000D01*
X106000000Y-53000000D02*
X105610500Y-52610500D01*
X105610500Y-56610500D02*
X106000000Y-56221000D01*
X106000000Y-56221000D02*
X106000000Y-55000000D01*
X106000000Y-55000000D02*
X105610500Y-54610500D01*
X105610500Y-58610500D02*
X106000000Y-58221000D01*
X106000000Y-58221000D02*
X106000000Y-57000000D01*
X106000000Y-57000000D02*
X105610500Y-56610500D01*
X105610500Y-60610500D02*
X106000000Y-60221000D01*
X106000000Y-60221000D02*
X106000000Y-59000000D01*
X106000000Y-59000000D02*
X105610500Y-58610500D01*
X105610500Y-62610500D02*
X106000000Y-62221000D01*
X106000000Y-62221000D02*
X106000000Y-61000000D01*
X106000000Y-61000000D02*
X105610500Y-60610500D01*
X105610500Y-64610500D02*
X106000000Y-64221000D01*
X106000000Y-64221000D02*
X106000000Y-63000000D01*
X106000000Y-63000000D02*
X105610500Y-62610500D01*
X105610500Y-66610500D02*
X106000000Y-66221000D01*
X106000000Y-66221000D02*
X106000000Y-65000000D01*
X106000000Y-65000000D02*
X105610500Y-64610500D01*
X105610500Y-68610500D02*
X106000000Y-68221000D01*
X106000000Y-68221000D02*
X106000000Y-67000000D01*
X106000000Y-67000000D02*
X105610500Y-66610500D01*
X104770500Y-66610500D02*
X105160000Y-67000000D01*
X105160000Y-67000000D02*
X105160000Y-68221000D01*
X105160000Y-68221000D02*
X104770500Y-68610500D01*
X104770500Y-64610500D02*
X105160000Y-65000000D01*
X105160000Y-65000000D02*
X105160000Y-66221000D01*
X105160000Y-66221000D02*
X104770500Y-66610500D01*
X104770500Y-62610500D02*
X105160000Y-63000000D01*
X105160000Y-63000000D02*
X105160000Y-64221000D01*
X105160000Y-64221000D02*
X104770500Y-64610500D01*
X104770500Y-60610500D02*
X105160000Y-61000000D01*
X105160000Y-61000000D02*
X105160000Y-62221000D01*
X105160000Y-62221000D02*
X104770500Y-62610500D01*
X104770500Y-58610500D02*
X105160000Y-59000000D01*
X105160000Y-59000000D02*
X105160000Y-60221000D01*
X105160000Y-60221000D02*
X104770500Y-60610500D01*
X104770500Y-56610500D02*
X105160000Y-57000000D01*
X105160000Y-57000000D02*
X105160000Y-58221000D01*
X105160000Y-58221000D02*
X104770500Y-58610500D01*
X104770500Y-54610500D02*
X105160000Y-55000000D01*
X105160000Y-55000000D02*
X105160000Y-56221000D01*
X105160000Y-56221000D02*
X104770500Y-56610500D01*
X104770500Y-52610500D02*
X105160000Y-53000000D01*
X105160000Y-53000000D02*
X105160000Y-54221000D01*
X105160000Y-54221000D02*
X104770500Y-54610500D01*
X104770500Y-53770500D02*
X104381000Y-53381000D01*
X104381000Y-53381000D02*
X104381000Y-52160000D01*
X104381000Y-52160000D02*
X104770500Y-51770500D01*
X104770500Y-55770500D02*
X104381000Y-55381000D01*
X104381000Y-55381000D02*
X104381000Y-54160000D01*
X104381000Y-54160000D02*
X104770500Y-53770500D01*
X104770500Y-57770500D02*
X104381000Y-57381000D01*
X104381000Y-57381000D02*
X104381000Y-56160000D01*
X104381000Y-56160000D02*
X104770500Y-55770500D01*
X104770500Y-59770500D02*
X104381000Y-59381000D01*
X104381000Y-59381000D02*
X104381000Y-58160000D01*
X104381000Y-58160000D02*
X104770500Y-57770500D01*
X104770500Y-61770500D02*
X104381000Y-61381000D01*
X104381000Y-61381000D02*
X104381000Y-60160000D01*
X104381000Y-60160000D02*
X104770500Y-59770500D01*
X104770500Y-63770500D02*
X104381000Y-63381000D01*
X104381000Y-63381000D02*
X104381000Y-62160000D01*
X104381000Y-62160000D02*
X104770500Y-61770500D01*
X104770500Y-65770500D02*
X104381000Y-65381000D01*
X104381000Y-65381000D02*
X104381000Y-64160000D01*
X104381000Y-64160000D02*
X104770500Y-63770500D01*
X104770500Y-67770500D02*
X104381000Y-67381000D01*
X104381000Y-67381000D02*
X104381000Y-66160000D01*
X104381000Y-66160000D02*
X104770500Y-65770500D01*
X103610500Y-66610500D02*
X104000000Y-67000000D01*
X104000000Y-67000000D02*
X104000000Y-68221000D01*
X104000000Y-68221000D02*
X103610500Y-68610500D01*
X103610500Y-64610500D02*
X104000000Y-65000000D01*
X104000000Y-65000000D02*
X104000000Y-66221000D01*
X104000000Y-66221000D02*
X103610500Y-66610500D01*
X103610500Y-62610500D02*
X104000000Y-63000000D01*
X104000000Y-63000000D02*
X104000000Y-64221000D01*
X104000000Y-64221000D02*
X103610500Y-64610500D01*
X103610500Y-60610500D02*
X104000000Y-61000000D01*
X104000000Y-61000000D02*
X104000000Y-62221000D01*
X104000000Y-62221000D02*
X103610500Y-62610500D01*
X103610500Y-58610500D02*
X104000000Y-59000000D01*
X104000000Y-59000000D02*
X104000000Y-60221000D01*
X104000000Y-60221000D02*
X103610500Y-60610500D01*
X103610500Y-56610500D02*
X104000000Y-57000000D01*
X104000000Y-57000000D02*
X104000000Y-58221000D01*
X104000000Y-58221000D02*
X103610500Y-58610500D01*
X103610500Y-54610500D02*
X104000000Y-55000000D01*
X104000000Y-55000000D02*
X104000000Y-56221000D01*
X104000000Y-56221000D02*
X103610500Y-56610500D01*
X103610500Y-52610500D02*
X104000000Y-53000000D01*
X104000000Y-53000000D02*
X104000000Y-54221000D01*
X104000000Y-54221000D02*
X103610500Y-54610500D01*
X102770500Y-54610500D02*
X103160000Y-54221000D01*
X103160000Y-54221000D02*
X103160000Y-53000000D01*
X103160000Y-53000000D02*
X102770500Y-52610500D01*
X102770500Y-56610500D02*
X103160000Y-56221000D01*
X103160000Y-56221000D02*
X103160000Y-55000000D01*
X103160000Y-55000000D02*
X102770500Y-54610500D01*
X102770500Y-58610500D02*
X103160000Y-58221000D01*
X103160000Y-58221000D02*
X103160000Y-57000000D01*
X103160000Y-57000000D02*
X102770500Y-56610500D01*
X102770500Y-60610500D02*
X103160000Y-60221000D01*
X103160000Y-60221000D02*
X103160000Y-59000000D01*
X103160000Y-59000000D02*
X102770500Y-58610500D01*
X102770500Y-62610500D02*
X103160000Y-62221000D01*
X103160000Y-62221000D02*
X103160000Y-61000000D01*
X103160000Y-61000000D02*
X102770500Y-60610500D01*
X102770500Y-64610500D02*
X103160000Y-64221000D01*
X103160000Y-64221000D02*
X103160000Y-63000000D01*
X103160000Y-63000000D02*
X102770500Y-62610500D01*
X102770500Y-66610500D02*
X103160000Y-66221000D01*
X103160000Y-66221000D02*
X103160000Y-65000000D01*
X103160000Y-65000000D02*
X102770500Y-64610500D01*
X102770500Y-68610500D02*
X103160000Y-68221000D01*
X103160000Y-68221000D02*
X103160000Y-67000000D01*
X103160000Y-67000000D02*
X102770500Y-66610500D01*
X102770500Y-65770500D02*
X102381000Y-66160000D01*
X102381000Y-66160000D02*
X102381000Y-67381000D01*
X102381000Y-67381000D02*
X102770500Y-67770500D01*
X102770500Y-63770500D02*
X102381000Y-64160000D01*
X102381000Y-64160000D02*
X102381000Y-65381000D01*
X102381000Y-65381000D02*
X102770500Y-65770500D01*
X102770500Y-61770500D02*
X102381000Y-62160000D01*
X102381000Y-62160000D02*
X102381000Y-63381000D01*
X102381000Y-63381000D02*
X102770500Y-63770500D01*
X102770500Y-59770500D02*
X102381000Y-60160000D01*
X102381000Y-60160000D02*
X102381000Y-61381000D01*
X102381000Y-61381000D02*
X102770500Y-61770500D01*
X102770500Y-57770500D02*
X102381000Y-58160000D01*
X102381000Y-58160000D02*
X102381000Y-59381000D01*
X102381000Y-59381000D02*
X102770500Y-59770500D01*
X102770500Y-55770500D02*
X102381000Y-56160000D01*
X102381000Y-56160000D02*
X102381000Y-57381000D01*
X102381000Y-57381000D02*
X102770500Y-57770500D01*
X102770500Y-53770500D02*
X102381000Y-54160000D01*
X102381000Y-54160000D02*
X102381000Y-55381000D01*
X102381000Y-55381000D02*
X102770500Y-55770500D01*
X102770500Y-51770500D02*
X102381000Y-52160000D01*
X102381000Y-52160000D02*
X102381000Y-53381000D01*
X102381000Y-53381000D02*
X102770500Y-53770500D01*
X101610500Y-54610500D02*
X102000000Y-54221000D01*
X102000000Y-54221000D02*
X102000000Y-53000000D01*
X102000000Y-53000000D02*
X101610500Y-52610500D01*
X101610500Y-56610500D02*
X102000000Y-56221000D01*
X102000000Y-56221000D02*
X102000000Y-55000000D01*
X102000000Y-55000000D02*
X101610500Y-54610500D01*
X101610500Y-58610500D02*
X102000000Y-58221000D01*
X102000000Y-58221000D02*
X102000000Y-57000000D01*
X102000000Y-57000000D02*
X101610500Y-56610500D01*
X101610500Y-60610500D02*
X102000000Y-60221000D01*
X102000000Y-60221000D02*
X102000000Y-59000000D01*
X102000000Y-59000000D02*
X101610500Y-58610500D01*
X101610500Y-62610500D02*
X102000000Y-62221000D01*
X102000000Y-62221000D02*
X102000000Y-61000000D01*
X102000000Y-61000000D02*
X101610500Y-60610500D01*
X101610500Y-64610500D02*
X102000000Y-64221000D01*
X102000000Y-64221000D02*
X102000000Y-63000000D01*
X102000000Y-63000000D02*
X101610500Y-62610500D01*
X101610500Y-66610500D02*
X102000000Y-66221000D01*
X102000000Y-66221000D02*
X102000000Y-65000000D01*
X102000000Y-65000000D02*
X101610500Y-64610500D01*
X101610500Y-68610500D02*
X102000000Y-68221000D01*
X102000000Y-68221000D02*
X102000000Y-67000000D01*
X102000000Y-67000000D02*
X101610500Y-66610500D01*
X100770500Y-66610500D02*
X101160000Y-67000000D01*
X101160000Y-67000000D02*
X101160000Y-68221000D01*
X101160000Y-68221000D02*
X100770500Y-68610500D01*
X100770500Y-64610500D02*
X101160000Y-65000000D01*
X101160000Y-65000000D02*
X101160000Y-66221000D01*
X101160000Y-66221000D02*
X100770500Y-66610500D01*
X100770500Y-62610500D02*
X101160000Y-63000000D01*
X101160000Y-63000000D02*
X101160000Y-64221000D01*
X101160000Y-64221000D02*
X100770500Y-64610500D01*
X100770500Y-60610500D02*
X101160000Y-61000000D01*
X101160000Y-61000000D02*
X101160000Y-62221000D01*
X101160000Y-62221000D02*
X100770500Y-62610500D01*
X100770500Y-58610500D02*
X101160000Y-59000000D01*
X101160000Y-59000000D02*
X101160000Y-60221000D01*
X101160000Y-60221000D02*
X100770500Y-60610500D01*
X100770500Y-56610500D02*
X101160000Y-57000000D01*
X101160000Y-57000000D02*
X101160000Y-58221000D01*
X101160000Y-58221000D02*
X100770500Y-58610500D01*
X100770500Y-54610500D02*
X101160000Y-55000000D01*
X101160000Y-55000000D02*
X101160000Y-56221000D01*
X101160000Y-56221000D02*
X100770500Y-56610500D01*
X100770500Y-52610500D02*
X101160000Y-53000000D01*
X101160000Y-53000000D02*
X101160000Y-54221000D01*
X101160000Y-54221000D02*
X100770500Y-54610500D01*
X100770500Y-53770500D02*
X100381000Y-53381000D01*
X100381000Y-53381000D02*
X100381000Y-52160000D01*
X100381000Y-52160000D02*
X100770500Y-51770500D01*
X100770500Y-55770500D02*
X100381000Y-55381000D01*
X100381000Y-55381000D02*
X100381000Y-54160000D01*
X100381000Y-54160000D02*
X100770500Y-53770500D01*
X100770500Y-57770500D02*
X100381000Y-57381000D01*
X100381000Y-56160000D02*
X100770500Y-55770500D01*
X100381000Y-57381000D02*
X100381000Y-56160000D01*
X100770500Y-59770500D02*
X100381000Y-59381000D01*
X100381000Y-59381000D02*
X100381000Y-58160000D01*
X100381000Y-58160000D02*
X100770500Y-57770500D01*
X100770500Y-61770500D02*
X100381000Y-61381000D01*
X100381000Y-61381000D02*
X100381000Y-60160000D01*
X100381000Y-60160000D02*
X100770500Y-59770500D01*
X100770500Y-63770500D02*
X100381000Y-63381000D01*
X100381000Y-63381000D02*
X100381000Y-62160000D01*
X100381000Y-62160000D02*
X100770500Y-61770500D01*
X100770500Y-65770500D02*
X100381000Y-65381000D01*
X100381000Y-65381000D02*
X100381000Y-64160000D01*
X100381000Y-64160000D02*
X100770500Y-63770500D01*
X100770500Y-67770500D02*
X100381000Y-67381000D01*
X100381000Y-67381000D02*
X100381000Y-66160000D01*
X100381000Y-66160000D02*
X100770500Y-65770500D01*
X99610500Y-66610500D02*
X100000000Y-67000000D01*
X100000000Y-67000000D02*
X100000000Y-68221000D01*
X100000000Y-68221000D02*
X99610500Y-68610500D01*
X99610500Y-64610500D02*
X100000000Y-65000000D01*
X100000000Y-65000000D02*
X100000000Y-66221000D01*
X100000000Y-66221000D02*
X99610500Y-66610500D01*
X99610500Y-62610500D02*
X100000000Y-63000000D01*
X100000000Y-63000000D02*
X100000000Y-64221000D01*
X100000000Y-64221000D02*
X99610500Y-64610500D01*
X99610500Y-60610500D02*
X100000000Y-61000000D01*
X100000000Y-61000000D02*
X100000000Y-62221000D01*
X100000000Y-62221000D02*
X99610500Y-62610500D01*
X99610500Y-58610500D02*
X100000000Y-59000000D01*
X100000000Y-59000000D02*
X100000000Y-60221000D01*
X100000000Y-60221000D02*
X99610500Y-60610500D01*
X99610500Y-56610500D02*
X100000000Y-57000000D01*
X100000000Y-57000000D02*
X100000000Y-58221000D01*
X100000000Y-58221000D02*
X99610500Y-58610500D01*
X99610500Y-54610500D02*
X100000000Y-55000000D01*
X100000000Y-55000000D02*
X100000000Y-56221000D01*
X100000000Y-56221000D02*
X99610500Y-56610500D01*
X99610500Y-52610500D02*
X100000000Y-53000000D01*
X100000000Y-53000000D02*
X100000000Y-54221000D01*
X100000000Y-54221000D02*
X99610500Y-54610500D01*
X98770500Y-54610500D02*
X99160000Y-54221000D01*
X99160000Y-54221000D02*
X99160000Y-53000000D01*
X99160000Y-53000000D02*
X98770500Y-52610500D01*
X98770500Y-56610500D02*
X99160000Y-56221000D01*
X99160000Y-56221000D02*
X99160000Y-55000000D01*
X99160000Y-55000000D02*
X98770500Y-54610500D01*
X98770500Y-58610500D02*
X99160000Y-58221000D01*
X99160000Y-58221000D02*
X99160000Y-57000000D01*
X99160000Y-57000000D02*
X98770500Y-56610500D01*
X98770500Y-60610500D02*
X99160000Y-60221000D01*
X99160000Y-60221000D02*
X99160000Y-59000000D01*
X99160000Y-59000000D02*
X98770500Y-58610500D01*
X98770500Y-62610500D02*
X99160000Y-62221000D01*
X99160000Y-62221000D02*
X99160000Y-61000000D01*
X99160000Y-61000000D02*
X98770500Y-60610500D01*
X98770500Y-64610500D02*
X99160000Y-64221000D01*
X99160000Y-64221000D02*
X99160000Y-63000000D01*
X99160000Y-63000000D02*
X98770500Y-62610500D01*
X99160000Y-66221000D02*
X99160000Y-65000000D01*
X98770500Y-66610500D02*
X99160000Y-66221000D01*
X99160000Y-65000000D02*
X98770500Y-64610500D01*
X98770500Y-68610500D02*
X99160000Y-68221000D01*
X99160000Y-68221000D02*
X99160000Y-67000000D01*
X99160000Y-67000000D02*
X98770500Y-66610500D01*
X98770500Y-65770500D02*
X98381000Y-66160000D01*
X98381000Y-66160000D02*
X98381000Y-67381000D01*
X98381000Y-67381000D02*
X98770500Y-67770500D01*
X98770500Y-63770500D02*
X98381000Y-64160000D01*
X98381000Y-64160000D02*
X98381000Y-65381000D01*
X98381000Y-65381000D02*
X98770500Y-65770500D01*
X98770500Y-61770500D02*
X98381000Y-62160000D01*
X98381000Y-62160000D02*
X98381000Y-63381000D01*
X98381000Y-63381000D02*
X98770500Y-63770500D01*
X98770500Y-59770500D02*
X98381000Y-60160000D01*
X98381000Y-60160000D02*
X98381000Y-61381000D01*
X98381000Y-61381000D02*
X98770500Y-61770500D01*
X98770500Y-57770500D02*
X98381000Y-58160000D01*
X98381000Y-58160000D02*
X98381000Y-59381000D01*
X98381000Y-59381000D02*
X98770500Y-59770500D01*
X98770500Y-55770500D02*
X98381000Y-56160000D01*
X98381000Y-56160000D02*
X98381000Y-57381000D01*
X98381000Y-57381000D02*
X98770500Y-57770500D01*
X98770500Y-53770500D02*
X98381000Y-54160000D01*
X98381000Y-54160000D02*
X98381000Y-55381000D01*
X98381000Y-55381000D02*
X98770500Y-55770500D01*
X98770500Y-51770500D02*
X98381000Y-52160000D01*
X98381000Y-52160000D02*
X98381000Y-53381000D01*
X98381000Y-53381000D02*
X98770500Y-53770500D01*
X97610500Y-66610500D02*
X98000000Y-67000000D01*
X98000000Y-67000000D02*
X98000000Y-68221000D01*
X98000000Y-68221000D02*
X97610500Y-68610500D01*
X97610500Y-64610500D02*
X98000000Y-65000000D01*
X98000000Y-65000000D02*
X98000000Y-66221000D01*
X98000000Y-66221000D02*
X97610500Y-66610500D01*
X97610500Y-62610500D02*
X98000000Y-63000000D01*
X98000000Y-63000000D02*
X98000000Y-64221000D01*
X98000000Y-64221000D02*
X97610500Y-64610500D01*
X97610500Y-60610500D02*
X98000000Y-61000000D01*
X98000000Y-61000000D02*
X98000000Y-62221000D01*
X98000000Y-62221000D02*
X97610500Y-62610500D01*
X97610500Y-58610500D02*
X98000000Y-59000000D01*
X98000000Y-59000000D02*
X98000000Y-60221000D01*
X98000000Y-60221000D02*
X97610500Y-60610500D01*
X97610500Y-56610500D02*
X98000000Y-57000000D01*
X98000000Y-57000000D02*
X98000000Y-58221000D01*
X98000000Y-58221000D02*
X97610500Y-58610500D01*
X97610500Y-54610500D02*
X98000000Y-55000000D01*
X98000000Y-55000000D02*
X98000000Y-56221000D01*
X98000000Y-56221000D02*
X97610500Y-56610500D01*
X97610500Y-52610500D02*
X98000000Y-53000000D01*
X98000000Y-53000000D02*
X98000000Y-54221000D01*
X98000000Y-54221000D02*
X97610500Y-54610500D01*
X96770500Y-54610500D02*
X97160000Y-54221000D01*
X97160000Y-54221000D02*
X97160000Y-53000000D01*
X97160000Y-53000000D02*
X96770500Y-52610500D01*
X96770500Y-56610500D02*
X97160000Y-56221000D01*
X97160000Y-56221000D02*
X97160000Y-55000000D01*
X97160000Y-55000000D02*
X96770500Y-54610500D01*
X96770500Y-58610500D02*
X97160000Y-58221000D01*
X97160000Y-58221000D02*
X97160000Y-57000000D01*
X97160000Y-57000000D02*
X96770500Y-56610500D01*
X96770500Y-60610500D02*
X97160000Y-60221000D01*
X97160000Y-60221000D02*
X97160000Y-59000000D01*
X97160000Y-59000000D02*
X96770500Y-58610500D01*
X96770500Y-62610500D02*
X97160000Y-62221000D01*
X97160000Y-62221000D02*
X97160000Y-61000000D01*
X97160000Y-61000000D02*
X96770500Y-60610500D01*
X96770500Y-64610500D02*
X97160000Y-64221000D01*
X97160000Y-64221000D02*
X97160000Y-63000000D01*
X97160000Y-63000000D02*
X96770500Y-62610500D01*
X96770500Y-66610500D02*
X97160000Y-66221000D01*
X97160000Y-66221000D02*
X97160000Y-65000000D01*
X97160000Y-65000000D02*
X96770500Y-64610500D01*
X96770500Y-68610500D02*
X97160000Y-68221000D01*
X97160000Y-68221000D02*
X97160000Y-67000000D01*
X97160000Y-67000000D02*
X96770500Y-66610500D01*
X96770500Y-65770500D02*
X96381000Y-66160000D01*
X96381000Y-66160000D02*
X96381000Y-67381000D01*
X96381000Y-67381000D02*
X96770500Y-67770500D01*
X96770500Y-63770500D02*
X96381000Y-64160000D01*
X96381000Y-64160000D02*
X96381000Y-65381000D01*
X96381000Y-65381000D02*
X96770500Y-65770500D01*
X96770500Y-61770500D02*
X96381000Y-62160000D01*
X96381000Y-62160000D02*
X96381000Y-63381000D01*
X96381000Y-63381000D02*
X96770500Y-63770500D01*
X96770500Y-59770500D02*
X96381000Y-60160000D01*
X96381000Y-60160000D02*
X96381000Y-61381000D01*
X96381000Y-61381000D02*
X96770500Y-61770500D01*
X96770500Y-57770500D02*
X96381000Y-58160000D01*
X96381000Y-58160000D02*
X96381000Y-59381000D01*
X96381000Y-59381000D02*
X96770500Y-59770500D01*
X96770500Y-55770500D02*
X96381000Y-56160000D01*
X96381000Y-56160000D02*
X96381000Y-57381000D01*
X96381000Y-57381000D02*
X96770500Y-57770500D01*
X96770500Y-53770500D02*
X96381000Y-54160000D01*
X96381000Y-54160000D02*
X96381000Y-55381000D01*
X96381000Y-55381000D02*
X96770500Y-55770500D01*
X96770500Y-51770500D02*
X96381000Y-52160000D01*
X96381000Y-52160000D02*
X96381000Y-53381000D01*
X96381000Y-53381000D02*
X96770500Y-53770500D01*
X95610500Y-66610500D02*
X96000000Y-67000000D01*
X96000000Y-68221000D02*
X95610500Y-68610500D01*
X96000000Y-67000000D02*
X96000000Y-68221000D01*
X95610500Y-64610500D02*
X96000000Y-65000000D01*
X96000000Y-65000000D02*
X96000000Y-66221000D01*
X96000000Y-66221000D02*
X95610500Y-66610500D01*
X95610500Y-62610500D02*
X96000000Y-63000000D01*
X96000000Y-63000000D02*
X96000000Y-64221000D01*
X96000000Y-64221000D02*
X95610500Y-64610500D01*
X95610500Y-60610500D02*
X96000000Y-61000000D01*
X96000000Y-61000000D02*
X96000000Y-62221000D01*
X96000000Y-62221000D02*
X95610500Y-62610500D01*
X95610500Y-58610500D02*
X96000000Y-59000000D01*
X96000000Y-59000000D02*
X96000000Y-60221000D01*
X96000000Y-60221000D02*
X95610500Y-60610500D01*
X95610500Y-56610500D02*
X96000000Y-57000000D01*
X96000000Y-57000000D02*
X96000000Y-58221000D01*
X96000000Y-58221000D02*
X95610500Y-58610500D01*
X95610500Y-54610500D02*
X96000000Y-55000000D01*
X96000000Y-55000000D02*
X96000000Y-56221000D01*
X96000000Y-56221000D02*
X95610500Y-56610500D01*
X95610500Y-52610500D02*
X96000000Y-53000000D01*
X96000000Y-53000000D02*
X96000000Y-54221000D01*
X96000000Y-54221000D02*
X95610500Y-54610500D01*
X94770500Y-54610500D02*
X95160000Y-54221000D01*
X95160000Y-54221000D02*
X95160000Y-53000000D01*
X95160000Y-53000000D02*
X94770500Y-52610500D01*
X94770500Y-56610500D02*
X95160000Y-56221000D01*
X95160000Y-56221000D02*
X95160000Y-55000000D01*
X95160000Y-55000000D02*
X94770500Y-54610500D01*
X94770500Y-58610500D02*
X95160000Y-58221000D01*
X95160000Y-58221000D02*
X95160000Y-57000000D01*
X95160000Y-57000000D02*
X94770500Y-56610500D01*
X94770500Y-60610500D02*
X95160000Y-60221000D01*
X95160000Y-60221000D02*
X95160000Y-59000000D01*
X95160000Y-59000000D02*
X94770500Y-58610500D01*
X94770500Y-62610500D02*
X95160000Y-62221000D01*
X95160000Y-62221000D02*
X95160000Y-61000000D01*
X95160000Y-61000000D02*
X94770500Y-60610500D01*
X94770500Y-64610500D02*
X95160000Y-64221000D01*
X95160000Y-64221000D02*
X95160000Y-63000000D01*
X95160000Y-63000000D02*
X94770500Y-62610500D01*
X94770500Y-66610500D02*
X95160000Y-66221000D01*
X95160000Y-66221000D02*
X95160000Y-65000000D01*
X95160000Y-65000000D02*
X94770500Y-64610500D01*
X94770500Y-68610500D02*
X95160000Y-68221000D01*
X95160000Y-68221000D02*
X95160000Y-67000000D01*
X95160000Y-67000000D02*
X94770500Y-66610500D01*
X94770500Y-65770500D02*
X94381000Y-66160000D01*
X94381000Y-66160000D02*
X94381000Y-67381000D01*
X94381000Y-67381000D02*
X94770500Y-67770500D01*
X94770500Y-63770500D02*
X94381000Y-64160000D01*
X94381000Y-64160000D02*
X94381000Y-65381000D01*
X94381000Y-65381000D02*
X94770500Y-65770500D01*
X94770500Y-61770500D02*
X94381000Y-62160000D01*
X94381000Y-62160000D02*
X94381000Y-63381000D01*
X94381000Y-63381000D02*
X94770500Y-63770500D01*
X94770500Y-59770500D02*
X94381000Y-60160000D01*
X94381000Y-60160000D02*
X94381000Y-61381000D01*
X94381000Y-61381000D02*
X94770500Y-61770500D01*
X94770500Y-57770500D02*
X94381000Y-58160000D01*
X94381000Y-58160000D02*
X94381000Y-59381000D01*
X94381000Y-59381000D02*
X94770500Y-59770500D01*
X94770500Y-55770500D02*
X94381000Y-56160000D01*
X94381000Y-56160000D02*
X94381000Y-57381000D01*
X94381000Y-57381000D02*
X94770500Y-57770500D01*
X94770500Y-53770500D02*
X94381000Y-54160000D01*
X94381000Y-54160000D02*
X94381000Y-55381000D01*
X94381000Y-55381000D02*
X94770500Y-55770500D01*
X94770500Y-51770500D02*
X94381000Y-52160000D01*
X94381000Y-52160000D02*
X94381000Y-53381000D01*
X94381000Y-53381000D02*
X94770500Y-53770500D01*
X93610500Y-54610500D02*
X94000000Y-54221000D01*
X94000000Y-54221000D02*
X94000000Y-53000000D01*
X94000000Y-53000000D02*
X93610500Y-52610500D01*
X93610500Y-56610500D02*
X94000000Y-56221000D01*
X94000000Y-56221000D02*
X94000000Y-54996626D01*
X94000000Y-54996626D02*
X93613874Y-54610500D01*
X93613874Y-54610500D02*
X93610500Y-54610500D01*
X93610500Y-60610500D02*
X94000000Y-60221000D01*
X94000000Y-60221000D02*
X94000000Y-59000000D01*
X94000000Y-59000000D02*
X93610500Y-58610500D01*
X93610500Y-62610500D02*
X94000000Y-62221000D01*
X94000000Y-62221000D02*
X94000000Y-61000000D01*
X94000000Y-61000000D02*
X93610500Y-60610500D01*
X93610500Y-64610500D02*
X94000000Y-64221000D01*
X94000000Y-64221000D02*
X94000000Y-63000000D01*
X94000000Y-63000000D02*
X93610500Y-62610500D01*
X93610500Y-66610500D02*
X94000000Y-66221000D01*
X94000000Y-66221000D02*
X94000000Y-65000000D01*
X94000000Y-65000000D02*
X93610500Y-64610500D01*
X93610500Y-68610500D02*
X94000000Y-68221000D01*
X94000000Y-68221000D02*
X94000000Y-67000000D01*
X94000000Y-67000000D02*
X93610500Y-66610500D01*
X92770500Y-66610500D02*
X93160000Y-67000000D01*
X93160000Y-67000000D02*
X93160000Y-68221000D01*
X93160000Y-68221000D02*
X92770500Y-68610500D01*
X92770500Y-64610500D02*
X93160000Y-65000000D01*
X93160000Y-65000000D02*
X93160000Y-66221000D01*
X93160000Y-66221000D02*
X92770500Y-66610500D01*
X92770500Y-62610500D02*
X92770500Y-62991500D01*
X92770500Y-62991500D02*
X93160000Y-63381000D01*
X93160000Y-63381000D02*
X93160000Y-64221000D01*
X93160000Y-64221000D02*
X92770500Y-64610500D01*
X92770500Y-60610500D02*
X92770500Y-60991500D01*
X92770500Y-60991500D02*
X93160000Y-61381000D01*
X93160000Y-61381000D02*
X93160000Y-62221000D01*
X93160000Y-62221000D02*
X92770500Y-62610500D01*
X92770500Y-58610500D02*
X92770500Y-58980626D01*
X92770500Y-58980626D02*
X93183750Y-59393876D01*
X93183750Y-59393876D02*
X93183750Y-60197250D01*
X93183750Y-60197250D02*
X92770500Y-60610500D01*
X92770500Y-54610500D02*
X93160000Y-55000000D01*
X93160000Y-55000000D02*
X93160000Y-56221000D01*
X93160000Y-56221000D02*
X92770500Y-56610500D01*
X92770500Y-52610500D02*
X93160000Y-53000000D01*
X93160000Y-53000000D02*
X93160000Y-54221000D01*
X93160000Y-54221000D02*
X92770500Y-54610500D01*
X92770500Y-53770500D02*
X92381000Y-53381000D01*
X92381000Y-52160000D02*
X92770500Y-51770500D01*
X92381000Y-53381000D02*
X92381000Y-52160000D01*
X92770500Y-55770500D02*
X92381000Y-55381000D01*
X92381000Y-55381000D02*
X92381000Y-54160000D01*
X92381000Y-54160000D02*
X92770500Y-53770500D01*
X92381000Y-56160000D02*
X92770500Y-55770500D01*
X92770500Y-59770500D02*
X92357750Y-59357750D01*
X92770500Y-61770500D02*
X92381000Y-61381000D01*
X92381000Y-61381000D02*
X92381000Y-60160000D01*
X92381000Y-60160000D02*
X92770500Y-59770500D01*
X92770500Y-63770500D02*
X92381000Y-63381000D01*
X92381000Y-63381000D02*
X92381000Y-62160000D01*
X92381000Y-62160000D02*
X92770500Y-61770500D01*
X92770500Y-65770500D02*
X92381000Y-65381000D01*
X92381000Y-65381000D02*
X92381000Y-64160000D01*
X92381000Y-64160000D02*
X92770500Y-63770500D01*
X92770500Y-67770500D02*
X92381000Y-67381000D01*
X92381000Y-67381000D02*
X92381000Y-66160000D01*
X92381000Y-66160000D02*
X92770500Y-65770500D01*
X91610500Y-66610500D02*
X92000000Y-67000000D01*
X92000000Y-67000000D02*
X92000000Y-68221000D01*
X92000000Y-68221000D02*
X91610500Y-68610500D01*
X91610500Y-64610500D02*
X92000000Y-65000000D01*
X92000000Y-65000000D02*
X92000000Y-66221000D01*
X92000000Y-66221000D02*
X91610500Y-66610500D01*
X91610500Y-62610500D02*
X91620626Y-62610500D01*
X91620626Y-62610500D02*
X92060000Y-63049874D01*
X92060000Y-63049874D02*
X92060000Y-64161000D01*
X92060000Y-64161000D02*
X91610500Y-64610500D01*
X91610500Y-60610500D02*
X91620626Y-60610500D01*
X91620626Y-60610500D02*
X92060000Y-61049874D01*
X92060000Y-61049874D02*
X92060000Y-62161000D01*
X92060000Y-62161000D02*
X91610500Y-62610500D01*
X91610500Y-58610500D02*
X91620626Y-58610500D01*
X91620626Y-58610500D02*
X92060000Y-59049874D01*
X92060000Y-59049874D02*
X92060000Y-60161000D01*
X92060000Y-60161000D02*
X91610500Y-60610500D01*
X91610500Y-54610500D02*
X91613874Y-54610500D01*
X91613874Y-54610500D02*
X92000000Y-54996626D01*
X92000000Y-54996626D02*
X92000000Y-56221000D01*
X92000000Y-56221000D02*
X91610500Y-56610500D01*
X113610500Y-55087752D02*
X113610750Y-55087502D01*
X113610500Y-55770500D02*
X113610500Y-55087752D01*
X93610500Y-63770500D02*
X93610500Y-63340500D01*
X93610500Y-63340500D02*
X93460500Y-63190500D01*
X91610500Y-63770500D02*
X91610500Y-63300500D01*
X91610500Y-63300500D02*
X91720500Y-63190500D01*
X93610500Y-61770500D02*
X93610500Y-61340500D01*
X93610500Y-61340500D02*
X93460500Y-61190500D01*
X91610500Y-61770500D02*
X91610500Y-61300500D01*
X91610500Y-61300500D02*
X91720500Y-61190500D01*
X93610500Y-59770500D02*
X93610500Y-59340500D01*
X93610500Y-59340500D02*
X93460500Y-59190500D01*
X91610500Y-59770500D02*
X91610500Y-59300500D01*
X91610500Y-59300500D02*
X91720500Y-59190500D01*
X93610500Y-55087752D02*
X93610750Y-55087502D01*
X93610500Y-55770500D02*
X93610500Y-55087752D01*
X91610500Y-55087752D02*
X91610750Y-55087502D01*
X91610500Y-55770500D02*
X91610500Y-55087752D01*
X91610500Y-52610500D02*
X92025000Y-53025000D01*
X92025000Y-53025000D02*
X92025000Y-54196000D01*
X92025000Y-54196000D02*
X91610500Y-54610500D01*
X90770500Y-54610500D02*
X91160000Y-54221000D01*
X91160000Y-54221000D02*
X91160000Y-53000000D01*
X91160000Y-53000000D02*
X90770500Y-52610500D01*
X90770500Y-56610500D02*
X91160000Y-56221000D01*
X91160000Y-56221000D02*
X91160000Y-55000000D01*
X91160000Y-55000000D02*
X90770500Y-54610500D01*
X90770500Y-58610500D02*
X91160000Y-58221000D01*
X91160000Y-58221000D02*
X91160000Y-57000000D01*
X91160000Y-57000000D02*
X90770500Y-56610500D01*
X90770500Y-60610500D02*
X91160000Y-60221000D01*
X91160000Y-60221000D02*
X91160000Y-59000000D01*
X91160000Y-59000000D02*
X90770500Y-58610500D01*
X90770500Y-62610500D02*
X91160000Y-62221000D01*
X91160000Y-62221000D02*
X91160000Y-61000000D01*
X91160000Y-61000000D02*
X90770500Y-60610500D01*
X90770500Y-64610500D02*
X91160000Y-64221000D01*
X91160000Y-64221000D02*
X91160000Y-63000000D01*
X91160000Y-63000000D02*
X90770500Y-62610500D01*
X90770500Y-66610500D02*
X91160000Y-66221000D01*
X91160000Y-66221000D02*
X91160000Y-65000000D01*
X91160000Y-65000000D02*
X90770500Y-64610500D01*
X90770500Y-66610500D02*
X91160000Y-67000000D01*
X91160000Y-67000000D02*
X91160000Y-68221000D01*
X91160000Y-68221000D02*
X90770500Y-68610500D01*
X90770500Y-65770500D02*
X90381000Y-66160000D01*
X90381000Y-66160000D02*
X90381000Y-67381000D01*
X90381000Y-67381000D02*
X90770500Y-67770500D01*
X90770500Y-63770500D02*
X90381000Y-64160000D01*
X90381000Y-65381000D02*
X90770500Y-65770500D01*
X90381000Y-64160000D02*
X90381000Y-65381000D01*
X90770500Y-61770500D02*
X90381000Y-62160000D01*
X90381000Y-62160000D02*
X90381000Y-63381000D01*
X90381000Y-63381000D02*
X90770500Y-63770500D01*
X90770500Y-59770500D02*
X90381000Y-60160000D01*
X90381000Y-60160000D02*
X90381000Y-61381000D01*
X90381000Y-61381000D02*
X90770500Y-61770500D01*
X90770500Y-57770500D02*
X90381000Y-58160000D01*
X90381000Y-58160000D02*
X90381000Y-59381000D01*
X90381000Y-59381000D02*
X90770500Y-59770500D01*
X90770500Y-55770500D02*
X90381000Y-56160000D01*
X90381000Y-56160000D02*
X90381000Y-57381000D01*
X90381000Y-57381000D02*
X90770500Y-57770500D01*
X90770500Y-53770500D02*
X90381000Y-54160000D01*
X90381000Y-54160000D02*
X90381000Y-55381000D01*
X90381000Y-55381000D02*
X90770500Y-55770500D01*
X90770500Y-51770500D02*
X90381000Y-52160000D01*
X90381000Y-52160000D02*
X90381000Y-53381000D01*
X90381000Y-53381000D02*
X90770500Y-53770500D01*
M02*
