G04 #@! TF.GenerationSoftware,KiCad,Pcbnew,9.0.1-9.0.1-0~ubuntu24.04.1*
G04 #@! TF.CreationDate,2025-04-23T13:35:13+02:00*
G04 #@! TF.ProjectId,ILM139C,494c4d31-3339-4432-9e6b-696361645f70,rev?*
G04 #@! TF.SameCoordinates,Original*
G04 #@! TF.FileFunction,Copper,L2,Inr*
G04 #@! TF.FilePolarity,Positive*
%FSLAX46Y46*%
G04 Gerber Fmt 4.6, Leading zero omitted, Abs format (unit mm)*
G04 Created by KiCad (PCBNEW 9.0.1-9.0.1-0~ubuntu24.04.1) date 2025-04-23 13:35:13*
%MOMM*%
%LPD*%
G01*
G04 APERTURE LIST*
G04 #@! TA.AperFunction,ViaPad*
%ADD10C,0.250000*%
G04 #@! TD*
G04 #@! TA.AperFunction,Conductor*
%ADD11C,0.203200*%
G04 #@! TD*
G04 APERTURE END LIST*
D10*
X93610500Y-52610500D03*
X100770500Y-64610500D03*
X101610500Y-64610500D03*
X102770500Y-63770500D03*
X102770500Y-62610500D03*
X103610500Y-62610500D03*
X104770500Y-61770500D03*
X104770500Y-62610500D03*
X105610500Y-62610500D03*
X106770500Y-61770500D03*
X106770500Y-60610500D03*
X107610500Y-58610500D03*
X108770500Y-59770500D03*
X108770500Y-58610500D03*
X109610500Y-58610500D03*
X110770500Y-57770500D03*
X110770500Y-56610500D03*
X111610500Y-56610500D03*
X112770500Y-53770500D03*
X112770500Y-54610500D03*
X113610500Y-56610500D03*
X115610500Y-56610500D03*
X114770500Y-52610500D03*
X114770500Y-53770500D03*
X92770500Y-54610500D03*
X92770500Y-57770500D03*
X100770500Y-57770500D03*
X99610500Y-58610500D03*
X98770500Y-58610500D03*
X98770500Y-59770500D03*
X97610500Y-60610500D03*
X96770500Y-62610500D03*
X96770500Y-63770500D03*
X94770500Y-62610500D03*
X94770500Y-63770500D03*
X95610500Y-66610500D03*
X90770500Y-59770500D03*
X90770500Y-58610500D03*
X91610500Y-54610500D03*
X93460500Y-57190500D03*
X91720500Y-57190500D03*
X113610500Y-63770500D03*
X113610750Y-55087502D03*
X93460500Y-63190500D03*
X91720500Y-63190500D03*
X93460500Y-61190500D03*
X91720500Y-61190500D03*
X93460500Y-59190500D03*
X91720500Y-59190500D03*
X93610750Y-55087502D03*
X91610750Y-55087502D03*
X115610500Y-67770500D03*
X113610500Y-67770500D03*
X111610500Y-67770500D03*
X109610500Y-67770500D03*
X107610500Y-67770500D03*
X105610500Y-67770500D03*
X103610500Y-67770500D03*
X101610500Y-67770500D03*
X99610500Y-67770500D03*
X97610500Y-67770500D03*
X95610500Y-67770500D03*
X93610500Y-67770500D03*
X91610500Y-67770500D03*
X91610500Y-65770500D03*
X93610500Y-65770500D03*
X95610500Y-65770500D03*
X97610500Y-65770500D03*
X99610500Y-65770500D03*
X101610500Y-65770500D03*
X103610500Y-65770500D03*
X105610500Y-65770500D03*
X107610500Y-65770500D03*
X109610500Y-65770500D03*
X111610500Y-65770500D03*
X113610500Y-65770500D03*
X115610500Y-65770500D03*
X115610500Y-63770500D03*
X111610500Y-63770500D03*
X109610500Y-63770500D03*
X107610500Y-63770500D03*
X105610500Y-63770500D03*
X103610500Y-63770500D03*
X101610500Y-63770500D03*
X99610500Y-63770500D03*
X97610500Y-63770500D03*
X95610500Y-63770500D03*
X95610500Y-61770500D03*
X97610500Y-61770500D03*
X99610500Y-61770500D03*
X101610500Y-61770500D03*
X103610500Y-61770500D03*
X105610500Y-61770500D03*
X107610500Y-61770500D03*
X109610500Y-61770500D03*
X111610500Y-61770500D03*
X113610500Y-61770500D03*
X115610500Y-61770500D03*
X115610500Y-59770500D03*
X113610500Y-57770500D03*
X113610500Y-59770500D03*
X111610500Y-59770500D03*
X109610500Y-59770500D03*
X107610500Y-59770500D03*
X105610500Y-59770500D03*
X103610500Y-59770500D03*
X101610500Y-59770500D03*
X99610500Y-59770500D03*
X97610500Y-59770500D03*
X95610500Y-59770500D03*
X95610500Y-57770500D03*
X97610500Y-57770500D03*
X99610500Y-57770500D03*
X101610500Y-57770500D03*
X103610500Y-57770500D03*
X105610500Y-57770500D03*
X107610500Y-57770500D03*
X109610500Y-57770500D03*
X111610500Y-57770500D03*
X115610500Y-57770500D03*
X115610500Y-55770500D03*
X111610500Y-55770500D03*
X109610500Y-55770500D03*
X107610500Y-55770500D03*
X105610500Y-55770500D03*
X103610500Y-55770500D03*
X101610500Y-55770500D03*
X99610500Y-55770500D03*
X97610500Y-55770500D03*
X95610500Y-55770500D03*
X91610500Y-53770500D03*
X93610500Y-53770500D03*
X95610500Y-53770500D03*
X97610500Y-53770500D03*
X99610500Y-53770500D03*
X101610500Y-53770500D03*
X103610500Y-53770500D03*
X105610500Y-53770500D03*
X107610500Y-53770500D03*
X109610500Y-53770500D03*
X111610500Y-53770500D03*
X113610500Y-53770500D03*
X115610500Y-53770500D03*
X115610500Y-51770500D03*
X113610500Y-51770500D03*
X111610500Y-51770500D03*
X109610500Y-51770500D03*
X107610500Y-51770500D03*
X105610500Y-51770500D03*
X103610500Y-51770500D03*
X101610500Y-51770500D03*
X99610500Y-51770500D03*
X97610500Y-51770500D03*
X95610500Y-51770500D03*
X93610500Y-51770500D03*
X91610500Y-51770500D03*
D11*
X91610500Y-67770500D02*
X115610500Y-67770500D01*
X91610500Y-65770500D02*
X115610500Y-65770500D01*
X93460500Y-63190500D02*
X91720500Y-63190500D01*
X95610500Y-63770500D02*
X95030500Y-63190500D01*
X95030500Y-63190500D02*
X93460500Y-63190500D01*
X97610500Y-63770500D02*
X97232900Y-64148100D01*
X95988100Y-64148100D02*
X95610500Y-63770500D01*
X97232900Y-64148100D02*
X95988100Y-64148100D01*
X101610500Y-63770500D02*
X97610500Y-63770500D01*
X103610500Y-63770500D02*
X103232900Y-64148100D01*
X103232900Y-64148100D02*
X101988100Y-64148100D01*
X101988100Y-64148100D02*
X101610500Y-63770500D01*
X115610500Y-63770500D02*
X103610500Y-63770500D01*
X107610500Y-61770500D02*
X115610500Y-61770500D01*
X105610500Y-61770500D02*
X105988100Y-62148100D01*
X105988100Y-62148100D02*
X107232900Y-62148100D01*
X107232900Y-62148100D02*
X107610500Y-61770500D01*
X103610500Y-61770500D02*
X103988100Y-61392900D01*
X103988100Y-61392900D02*
X105232900Y-61392900D01*
X105232900Y-61392900D02*
X105610500Y-61770500D01*
X95610500Y-61770500D02*
X103610500Y-61770500D01*
X93460500Y-61190500D02*
X91720500Y-61190500D01*
X95610500Y-61770500D02*
X94040500Y-61770500D01*
X94040500Y-61770500D02*
X93460500Y-61190500D01*
X93460500Y-59190500D02*
X91720500Y-59190500D01*
X95610500Y-59770500D02*
X94040500Y-59770500D01*
X94040500Y-59770500D02*
X93460500Y-59190500D01*
X97610500Y-59770500D02*
X95610500Y-59770500D01*
X99610500Y-59770500D02*
X99232900Y-60148100D01*
X99232900Y-60148100D02*
X97988100Y-60148100D01*
X97988100Y-60148100D02*
X97610500Y-59770500D01*
X107610500Y-59770500D02*
X99610500Y-59770500D01*
X109610500Y-59770500D02*
X109232900Y-59392900D01*
X109232900Y-59392900D02*
X107988100Y-59392900D01*
X107988100Y-59392900D02*
X107610500Y-59770500D01*
X115610500Y-59770500D02*
X109610500Y-59770500D01*
X111610500Y-57770500D02*
X115610500Y-57770500D01*
X109610500Y-57770500D02*
X109988100Y-57392900D01*
X109988100Y-57392900D02*
X111232900Y-57392900D01*
X111232900Y-57392900D02*
X111610500Y-57770500D01*
X101610500Y-57770500D02*
X109610500Y-57770500D01*
X99610500Y-57770500D02*
X99988100Y-57392900D01*
X99988100Y-57392900D02*
X101232900Y-57392900D01*
X101232900Y-57392900D02*
X101610500Y-57770500D01*
X95610500Y-57770500D02*
X99610500Y-57770500D01*
X95610500Y-57770500D02*
X94040500Y-57770500D01*
X94040500Y-57770500D02*
X93460500Y-57190500D01*
X91720500Y-57190500D02*
X93460500Y-57190500D01*
X93610750Y-55087502D02*
X91610750Y-55087502D01*
X95610500Y-55770500D02*
X94293748Y-55770500D01*
X94293748Y-55770500D02*
X93610750Y-55087502D01*
X111610500Y-55770500D02*
X95610500Y-55770500D01*
X113610750Y-55087502D02*
X112293498Y-55087502D01*
X112293498Y-55087502D02*
X111610500Y-55770500D01*
X115610500Y-55770500D02*
X114927502Y-55087502D01*
X114927502Y-55087502D02*
X113610750Y-55087502D01*
X113610500Y-53770500D02*
X113988100Y-54148100D01*
X113988100Y-54148100D02*
X115232900Y-54148100D01*
X115232900Y-54148100D02*
X115610500Y-53770500D01*
X111610500Y-53770500D02*
X111988100Y-53392900D01*
X111988100Y-53392900D02*
X113232900Y-53392900D01*
X113232900Y-53392900D02*
X113610500Y-53770500D01*
X109610500Y-53770500D02*
X111610500Y-53770500D01*
X105610500Y-53770500D02*
X109610500Y-53770500D01*
X93610500Y-53770500D02*
X105610500Y-53770500D01*
X91610500Y-53770500D02*
X93610500Y-53770500D01*
X115610500Y-51770500D02*
X91610500Y-51770500D01*
M02*
