%TF.GenerationSoftware,KiCad,Pcbnew,9.0.2*%
%TF.CreationDate,2025-07-16T13:59:47+02:00*%
%TF.ProjectId,ILM139C_panel4x4,494c4d31-3339-4435-9f70-616e656c3478,V0.1.0*%
%TF.SameCoordinates,Original*%
%TF.FileFunction,Legend,Top*%
%TF.FilePolarity,Positive*%
%FSLAX46Y46*%
G04 Gerber Fmt 4.6, Leading zero omitted, Abs format (unit mm)*
G04 Created by KiCad (PCBNEW 9.0.2) date 2025-07-16 13:59:47*
%MOMM*%
%LPD*%
G01*
G04 APERTURE LIST*
%ADD10C,0.100000*%
%ADD11C,0.120000*%
%ADD12C,0.250000*%
G04 APERTURE END LIST*
D10*
X71200000Y-20508501D02*
G75*
G02*
X71100000Y-20508501I-50000J0D01*
G01*
X71100000Y-20508501D02*
G75*
G02*
X71200000Y-20508501I50000J0D01*
G01*
X43700000Y-20508501D02*
G75*
G02*
X43600000Y-20508501I-50000J0D01*
G01*
X43600000Y-20508501D02*
G75*
G02*
X43700000Y-20508501I50000J0D01*
G01*
X48200000Y-19208501D02*
X48200000Y-22208501D01*
X47200000Y-20908501D02*
G75*
G02*
X47100000Y-20908501I-50000J0D01*
G01*
X47100000Y-20908501D02*
G75*
G02*
X47200000Y-20908501I50000J0D01*
G01*
X41200000Y-20458501D02*
G75*
G02*
X41100000Y-20458501I-50000J0D01*
G01*
X41100000Y-20458501D02*
G75*
G02*
X41200000Y-20458501I50000J0D01*
G01*
X44400000Y-19208501D02*
X44400000Y-22208501D01*
X45200000Y-20908501D02*
G75*
G02*
X45100000Y-20908501I-50000J0D01*
G01*
X45100000Y-20908501D02*
G75*
G02*
X45200000Y-20908501I50000J0D01*
G01*
X47700000Y-20908501D02*
G75*
G02*
X47600000Y-20908501I-50000J0D01*
G01*
X47600000Y-20908501D02*
G75*
G02*
X47700000Y-20908501I50000J0D01*
G01*
X48200000Y-22208501D02*
X40600000Y-22208501D01*
X42400000Y-19208501D02*
X42400000Y-22208501D01*
X47700000Y-20508501D02*
G75*
G02*
X47600000Y-20508501I-50000J0D01*
G01*
X47600000Y-20508501D02*
G75*
G02*
X47700000Y-20508501I50000J0D01*
G01*
X40600000Y-22208501D02*
X40600000Y-19208501D01*
X45700000Y-20508501D02*
G75*
G02*
X45600000Y-20508501I-50000J0D01*
G01*
X45600000Y-20508501D02*
G75*
G02*
X45700000Y-20508501I50000J0D01*
G01*
X46400000Y-19208501D02*
X46400000Y-22208501D01*
X47200000Y-20508501D02*
G75*
G02*
X47100000Y-20508501I-50000J0D01*
G01*
X47100000Y-20508501D02*
G75*
G02*
X47200000Y-20508501I50000J0D01*
G01*
X40600000Y-19208501D02*
X48200000Y-19208501D01*
X45200000Y-20508501D02*
G75*
G02*
X45100000Y-20508501I-50000J0D01*
G01*
X45100000Y-20508501D02*
G75*
G02*
X45200000Y-20508501I50000J0D01*
G01*
X43200000Y-20508501D02*
G75*
G02*
X43100000Y-20508501I-50000J0D01*
G01*
X43100000Y-20508501D02*
G75*
G02*
X43200000Y-20508501I50000J0D01*
G01*
X75700000Y-20508501D02*
G75*
G02*
X75600000Y-20508501I-50000J0D01*
G01*
X75600000Y-20508501D02*
G75*
G02*
X75700000Y-20508501I50000J0D01*
G01*
X69200000Y-20458501D02*
G75*
G02*
X69100000Y-20458501I-50000J0D01*
G01*
X69100000Y-20458501D02*
G75*
G02*
X69200000Y-20458501I50000J0D01*
G01*
X75700000Y-20908501D02*
G75*
G02*
X75600000Y-20908501I-50000J0D01*
G01*
X75600000Y-20908501D02*
G75*
G02*
X75700000Y-20908501I50000J0D01*
G01*
X74400000Y-19208501D02*
X74400000Y-22208501D01*
X73700000Y-60508501D02*
G75*
G02*
X73600000Y-60508501I-50000J0D01*
G01*
X73600000Y-60508501D02*
G75*
G02*
X73700000Y-60508501I50000J0D01*
G01*
X73200000Y-20908501D02*
G75*
G02*
X73100000Y-20908501I-50000J0D01*
G01*
X73100000Y-20908501D02*
G75*
G02*
X73200000Y-20908501I50000J0D01*
G01*
X69200000Y-40458501D02*
G75*
G02*
X69100000Y-40458501I-50000J0D01*
G01*
X69100000Y-40458501D02*
G75*
G02*
X69200000Y-40458501I50000J0D01*
G01*
X68600000Y-22208501D02*
X68600000Y-19208501D01*
X70400000Y-19208501D02*
X70400000Y-22208501D01*
X127700000Y-40508501D02*
G75*
G02*
X127600000Y-40508501I-50000J0D01*
G01*
X127600000Y-40508501D02*
G75*
G02*
X127700000Y-40508501I50000J0D01*
G01*
X132200000Y-39208501D02*
X132200000Y-42208501D01*
X131200000Y-40908501D02*
G75*
G02*
X131100000Y-40908501I-50000J0D01*
G01*
X131100000Y-40908501D02*
G75*
G02*
X131200000Y-40908501I50000J0D01*
G01*
X125200000Y-40458501D02*
G75*
G02*
X125100000Y-40458501I-50000J0D01*
G01*
X125100000Y-40458501D02*
G75*
G02*
X125200000Y-40458501I50000J0D01*
G01*
X128400000Y-39208501D02*
X128400000Y-42208501D01*
X76200000Y-19208501D02*
X76200000Y-22208501D01*
X75200000Y-20908501D02*
G75*
G02*
X75100000Y-20908501I-50000J0D01*
G01*
X75100000Y-20908501D02*
G75*
G02*
X75200000Y-20908501I50000J0D01*
G01*
X43700000Y-40508501D02*
G75*
G02*
X43600000Y-40508501I-50000J0D01*
G01*
X43600000Y-40508501D02*
G75*
G02*
X43700000Y-40508501I50000J0D01*
G01*
X48200000Y-39208501D02*
X48200000Y-42208501D01*
X47200000Y-40908501D02*
G75*
G02*
X47100000Y-40908501I-50000J0D01*
G01*
X47100000Y-40908501D02*
G75*
G02*
X47200000Y-40908501I50000J0D01*
G01*
X41200000Y-40458501D02*
G75*
G02*
X41100000Y-40458501I-50000J0D01*
G01*
X41100000Y-40458501D02*
G75*
G02*
X41200000Y-40458501I50000J0D01*
G01*
X44400000Y-39208501D02*
X44400000Y-42208501D01*
X45200000Y-40908501D02*
G75*
G02*
X45100000Y-40908501I-50000J0D01*
G01*
X45100000Y-40908501D02*
G75*
G02*
X45200000Y-40908501I50000J0D01*
G01*
X47700000Y-40908501D02*
G75*
G02*
X47600000Y-40908501I-50000J0D01*
G01*
X47600000Y-40908501D02*
G75*
G02*
X47700000Y-40908501I50000J0D01*
G01*
X48200000Y-42208501D02*
X40600000Y-42208501D01*
X42400000Y-39208501D02*
X42400000Y-42208501D01*
X47700000Y-40508501D02*
G75*
G02*
X47600000Y-40508501I-50000J0D01*
G01*
X47600000Y-40508501D02*
G75*
G02*
X47700000Y-40508501I50000J0D01*
G01*
X40600000Y-42208501D02*
X40600000Y-39208501D01*
X45700000Y-40508501D02*
G75*
G02*
X45600000Y-40508501I-50000J0D01*
G01*
X45600000Y-40508501D02*
G75*
G02*
X45700000Y-40508501I50000J0D01*
G01*
X46400000Y-39208501D02*
X46400000Y-42208501D01*
X47200000Y-40508501D02*
G75*
G02*
X47100000Y-40508501I-50000J0D01*
G01*
X47100000Y-40508501D02*
G75*
G02*
X47200000Y-40508501I50000J0D01*
G01*
X40600000Y-39208501D02*
X48200000Y-39208501D01*
X73200000Y-40908501D02*
G75*
G02*
X73100000Y-40908501I-50000J0D01*
G01*
X73100000Y-40908501D02*
G75*
G02*
X73200000Y-40908501I50000J0D01*
G01*
X71200000Y-60508501D02*
G75*
G02*
X71100000Y-60508501I-50000J0D01*
G01*
X71100000Y-60508501D02*
G75*
G02*
X71200000Y-60508501I50000J0D01*
G01*
X76200000Y-22208501D02*
X68600000Y-22208501D01*
X75200000Y-60908501D02*
G75*
G02*
X75100000Y-60908501I-50000J0D01*
G01*
X75100000Y-60908501D02*
G75*
G02*
X75200000Y-60908501I50000J0D01*
G01*
X68600000Y-59208501D02*
X76200000Y-59208501D01*
X74400000Y-39208501D02*
X74400000Y-42208501D01*
X71200000Y-40508501D02*
G75*
G02*
X71100000Y-40508501I-50000J0D01*
G01*
X71100000Y-40508501D02*
G75*
G02*
X71200000Y-40508501I50000J0D01*
G01*
X97200000Y-60458501D02*
G75*
G02*
X97100000Y-60458501I-50000J0D01*
G01*
X97100000Y-60458501D02*
G75*
G02*
X97200000Y-60458501I50000J0D01*
G01*
X100400000Y-59208501D02*
X100400000Y-62208501D01*
X101200000Y-60908501D02*
G75*
G02*
X101100000Y-60908501I-50000J0D01*
G01*
X101100000Y-60908501D02*
G75*
G02*
X101200000Y-60908501I50000J0D01*
G01*
X103700000Y-60908501D02*
G75*
G02*
X103600000Y-60908501I-50000J0D01*
G01*
X103600000Y-60908501D02*
G75*
G02*
X103700000Y-60908501I50000J0D01*
G01*
X104200000Y-62208501D02*
X96600000Y-62208501D01*
X98400000Y-59208501D02*
X98400000Y-62208501D01*
X45200000Y-40508501D02*
G75*
G02*
X45100000Y-40508501I-50000J0D01*
G01*
X45100000Y-40508501D02*
G75*
G02*
X45200000Y-40508501I50000J0D01*
G01*
X43200000Y-40508501D02*
G75*
G02*
X43100000Y-40508501I-50000J0D01*
G01*
X43100000Y-40508501D02*
G75*
G02*
X43200000Y-40508501I50000J0D01*
G01*
X75700000Y-40508501D02*
G75*
G02*
X75600000Y-40508501I-50000J0D01*
G01*
X75600000Y-40508501D02*
G75*
G02*
X75700000Y-40508501I50000J0D01*
G01*
X73700000Y-40508501D02*
G75*
G02*
X73600000Y-40508501I-50000J0D01*
G01*
X73600000Y-40508501D02*
G75*
G02*
X73700000Y-40508501I50000J0D01*
G01*
X71700000Y-20508501D02*
G75*
G02*
X71600000Y-20508501I-50000J0D01*
G01*
X71600000Y-20508501D02*
G75*
G02*
X71700000Y-20508501I50000J0D01*
G01*
X103700000Y-20508501D02*
G75*
G02*
X103600000Y-20508501I-50000J0D01*
G01*
X103600000Y-20508501D02*
G75*
G02*
X103700000Y-20508501I50000J0D01*
G01*
X96600000Y-22208501D02*
X96600000Y-19208501D01*
X101700000Y-20508501D02*
G75*
G02*
X101600000Y-20508501I-50000J0D01*
G01*
X101600000Y-20508501D02*
G75*
G02*
X101700000Y-20508501I50000J0D01*
G01*
X102400000Y-19208501D02*
X102400000Y-22208501D01*
X103200000Y-20508501D02*
G75*
G02*
X103100000Y-20508501I-50000J0D01*
G01*
X103100000Y-20508501D02*
G75*
G02*
X103200000Y-20508501I50000J0D01*
G01*
X96600000Y-19208501D02*
X104200000Y-19208501D01*
X103700000Y-60508501D02*
G75*
G02*
X103600000Y-60508501I-50000J0D01*
G01*
X103600000Y-60508501D02*
G75*
G02*
X103700000Y-60508501I50000J0D01*
G01*
X96600000Y-62208501D02*
X96600000Y-59208501D01*
X101700000Y-60508501D02*
G75*
G02*
X101600000Y-60508501I-50000J0D01*
G01*
X101600000Y-60508501D02*
G75*
G02*
X101700000Y-60508501I50000J0D01*
G01*
X102400000Y-59208501D02*
X102400000Y-62208501D01*
X103200000Y-60508501D02*
G75*
G02*
X103100000Y-60508501I-50000J0D01*
G01*
X103100000Y-60508501D02*
G75*
G02*
X103200000Y-60508501I50000J0D01*
G01*
X96600000Y-59208501D02*
X104200000Y-59208501D01*
X129200000Y-20908501D02*
G75*
G02*
X129100000Y-20908501I-50000J0D01*
G01*
X129100000Y-20908501D02*
G75*
G02*
X129200000Y-20908501I50000J0D01*
G01*
X131700000Y-20908501D02*
G75*
G02*
X131600000Y-20908501I-50000J0D01*
G01*
X131600000Y-20908501D02*
G75*
G02*
X131700000Y-20908501I50000J0D01*
G01*
X132200000Y-22208501D02*
X124600000Y-22208501D01*
X126400000Y-19208501D02*
X126400000Y-22208501D01*
X131700000Y-20508501D02*
G75*
G02*
X131600000Y-20508501I-50000J0D01*
G01*
X131600000Y-20508501D02*
G75*
G02*
X131700000Y-20508501I50000J0D01*
G01*
X124600000Y-22208501D02*
X124600000Y-19208501D01*
X129700000Y-20508501D02*
G75*
G02*
X129600000Y-20508501I-50000J0D01*
G01*
X129600000Y-20508501D02*
G75*
G02*
X129700000Y-20508501I50000J0D01*
G01*
X130400000Y-19208501D02*
X130400000Y-22208501D01*
X131200000Y-20508501D02*
G75*
G02*
X131100000Y-20508501I-50000J0D01*
G01*
X131100000Y-20508501D02*
G75*
G02*
X131200000Y-20508501I50000J0D01*
G01*
X124600000Y-19208501D02*
X132200000Y-19208501D01*
X129200000Y-20508501D02*
G75*
G02*
X129100000Y-20508501I-50000J0D01*
G01*
X129100000Y-20508501D02*
G75*
G02*
X129200000Y-20508501I50000J0D01*
G01*
X127200000Y-20508501D02*
G75*
G02*
X127100000Y-20508501I-50000J0D01*
G01*
X127100000Y-20508501D02*
G75*
G02*
X127200000Y-20508501I50000J0D01*
G01*
X75200000Y-20508501D02*
G75*
G02*
X75100000Y-20508501I-50000J0D01*
G01*
X75100000Y-20508501D02*
G75*
G02*
X75200000Y-20508501I50000J0D01*
G01*
X101200000Y-60508501D02*
G75*
G02*
X101100000Y-60508501I-50000J0D01*
G01*
X101100000Y-60508501D02*
G75*
G02*
X101200000Y-60508501I50000J0D01*
G01*
X99200000Y-60508501D02*
G75*
G02*
X99100000Y-60508501I-50000J0D01*
G01*
X99100000Y-60508501D02*
G75*
G02*
X99200000Y-60508501I50000J0D01*
G01*
X68600000Y-19208501D02*
X76200000Y-19208501D01*
X75700000Y-40908501D02*
G75*
G02*
X75600000Y-40908501I-50000J0D01*
G01*
X75600000Y-40908501D02*
G75*
G02*
X75700000Y-40908501I50000J0D01*
G01*
X103700000Y-40508501D02*
G75*
G02*
X103600000Y-40508501I-50000J0D01*
G01*
X103600000Y-40508501D02*
G75*
G02*
X103700000Y-40508501I50000J0D01*
G01*
X96600000Y-42208501D02*
X96600000Y-39208501D01*
X101700000Y-40508501D02*
G75*
G02*
X101600000Y-40508501I-50000J0D01*
G01*
X101600000Y-40508501D02*
G75*
G02*
X101700000Y-40508501I50000J0D01*
G01*
X102400000Y-39208501D02*
X102400000Y-42208501D01*
X103200000Y-40508501D02*
G75*
G02*
X103100000Y-40508501I-50000J0D01*
G01*
X103100000Y-40508501D02*
G75*
G02*
X103200000Y-40508501I50000J0D01*
G01*
X96600000Y-39208501D02*
X104200000Y-39208501D01*
X97200000Y-20458501D02*
G75*
G02*
X97100000Y-20458501I-50000J0D01*
G01*
X97100000Y-20458501D02*
G75*
G02*
X97200000Y-20458501I50000J0D01*
G01*
X100400000Y-19208501D02*
X100400000Y-22208501D01*
X101200000Y-20908501D02*
G75*
G02*
X101100000Y-20908501I-50000J0D01*
G01*
X101100000Y-20908501D02*
G75*
G02*
X101200000Y-20908501I50000J0D01*
G01*
X103700000Y-20908501D02*
G75*
G02*
X103600000Y-20908501I-50000J0D01*
G01*
X103600000Y-20908501D02*
G75*
G02*
X103700000Y-20908501I50000J0D01*
G01*
X104200000Y-22208501D02*
X96600000Y-22208501D01*
X98400000Y-19208501D02*
X98400000Y-22208501D01*
X73700000Y-20508501D02*
G75*
G02*
X73600000Y-20508501I-50000J0D01*
G01*
X73600000Y-20508501D02*
G75*
G02*
X73700000Y-20508501I50000J0D01*
G01*
X76200000Y-59208501D02*
X76200000Y-62208501D01*
X71200000Y-80508501D02*
G75*
G02*
X71100000Y-80508501I-50000J0D01*
G01*
X71100000Y-80508501D02*
G75*
G02*
X71200000Y-80508501I50000J0D01*
G01*
X73200000Y-20508501D02*
G75*
G02*
X73100000Y-20508501I-50000J0D01*
G01*
X73100000Y-20508501D02*
G75*
G02*
X73200000Y-20508501I50000J0D01*
G01*
X72400000Y-19208501D02*
X72400000Y-22208501D01*
X101200000Y-40508501D02*
G75*
G02*
X101100000Y-40508501I-50000J0D01*
G01*
X101100000Y-40508501D02*
G75*
G02*
X101200000Y-40508501I50000J0D01*
G01*
X99200000Y-40508501D02*
G75*
G02*
X99100000Y-40508501I-50000J0D01*
G01*
X99100000Y-40508501D02*
G75*
G02*
X99200000Y-40508501I50000J0D01*
G01*
X129200000Y-60908501D02*
G75*
G02*
X129100000Y-60908501I-50000J0D01*
G01*
X129100000Y-60908501D02*
G75*
G02*
X129200000Y-60908501I50000J0D01*
G01*
X131700000Y-60908501D02*
G75*
G02*
X131600000Y-60908501I-50000J0D01*
G01*
X131600000Y-60908501D02*
G75*
G02*
X131700000Y-60908501I50000J0D01*
G01*
X132200000Y-62208501D02*
X124600000Y-62208501D01*
X126400000Y-59208501D02*
X126400000Y-62208501D01*
X131700000Y-60508501D02*
G75*
G02*
X131600000Y-60508501I-50000J0D01*
G01*
X131600000Y-60508501D02*
G75*
G02*
X131700000Y-60508501I50000J0D01*
G01*
X124600000Y-62208501D02*
X124600000Y-59208501D01*
X129700000Y-60508501D02*
G75*
G02*
X129600000Y-60508501I-50000J0D01*
G01*
X129600000Y-60508501D02*
G75*
G02*
X129700000Y-60508501I50000J0D01*
G01*
X130400000Y-59208501D02*
X130400000Y-62208501D01*
X131200000Y-60508501D02*
G75*
G02*
X131100000Y-60508501I-50000J0D01*
G01*
X131100000Y-60508501D02*
G75*
G02*
X131200000Y-60508501I50000J0D01*
G01*
X124600000Y-59208501D02*
X132200000Y-59208501D01*
X129200000Y-60508501D02*
G75*
G02*
X129100000Y-60508501I-50000J0D01*
G01*
X129100000Y-60508501D02*
G75*
G02*
X129200000Y-60508501I50000J0D01*
G01*
X127200000Y-60508501D02*
G75*
G02*
X127100000Y-60508501I-50000J0D01*
G01*
X127100000Y-60508501D02*
G75*
G02*
X127200000Y-60508501I50000J0D01*
G01*
X75200000Y-60508501D02*
G75*
G02*
X75100000Y-60508501I-50000J0D01*
G01*
X75100000Y-60508501D02*
G75*
G02*
X75200000Y-60508501I50000J0D01*
G01*
X127700000Y-60508501D02*
G75*
G02*
X127600000Y-60508501I-50000J0D01*
G01*
X127600000Y-60508501D02*
G75*
G02*
X127700000Y-60508501I50000J0D01*
G01*
X132200000Y-59208501D02*
X132200000Y-62208501D01*
X131200000Y-60908501D02*
G75*
G02*
X131100000Y-60908501I-50000J0D01*
G01*
X131100000Y-60908501D02*
G75*
G02*
X131200000Y-60908501I50000J0D01*
G01*
X125200000Y-60458501D02*
G75*
G02*
X125100000Y-60458501I-50000J0D01*
G01*
X125100000Y-60458501D02*
G75*
G02*
X125200000Y-60458501I50000J0D01*
G01*
X128400000Y-59208501D02*
X128400000Y-62208501D01*
X76200000Y-42208501D02*
X68600000Y-42208501D01*
X75200000Y-40908501D02*
G75*
G02*
X75100000Y-40908501I-50000J0D01*
G01*
X75100000Y-40908501D02*
G75*
G02*
X75200000Y-40908501I50000J0D01*
G01*
X101200000Y-40908501D02*
G75*
G02*
X101100000Y-40908501I-50000J0D01*
G01*
X101100000Y-40908501D02*
G75*
G02*
X101200000Y-40908501I50000J0D01*
G01*
X103700000Y-40908501D02*
G75*
G02*
X103600000Y-40908501I-50000J0D01*
G01*
X103600000Y-40908501D02*
G75*
G02*
X103700000Y-40908501I50000J0D01*
G01*
X104200000Y-42208501D02*
X96600000Y-42208501D01*
X98400000Y-39208501D02*
X98400000Y-42208501D01*
X70400000Y-39208501D02*
X70400000Y-42208501D01*
X97200000Y-40458501D02*
G75*
G02*
X97100000Y-40458501I-50000J0D01*
G01*
X97100000Y-40458501D02*
G75*
G02*
X97200000Y-40458501I50000J0D01*
G01*
X100400000Y-39208501D02*
X100400000Y-42208501D01*
X99700000Y-20508501D02*
G75*
G02*
X99600000Y-20508501I-50000J0D01*
G01*
X99600000Y-20508501D02*
G75*
G02*
X99700000Y-20508501I50000J0D01*
G01*
X104200000Y-19208501D02*
X104200000Y-22208501D01*
X103200000Y-20908501D02*
G75*
G02*
X103100000Y-20908501I-50000J0D01*
G01*
X103100000Y-20908501D02*
G75*
G02*
X103200000Y-20908501I50000J0D01*
G01*
X75200000Y-40508501D02*
G75*
G02*
X75100000Y-40508501I-50000J0D01*
G01*
X75100000Y-40508501D02*
G75*
G02*
X75200000Y-40508501I50000J0D01*
G01*
X68600000Y-39208501D02*
X76200000Y-39208501D01*
X129200000Y-40908501D02*
G75*
G02*
X129100000Y-40908501I-50000J0D01*
G01*
X129100000Y-40908501D02*
G75*
G02*
X129200000Y-40908501I50000J0D01*
G01*
X131700000Y-40908501D02*
G75*
G02*
X131600000Y-40908501I-50000J0D01*
G01*
X131600000Y-40908501D02*
G75*
G02*
X131700000Y-40908501I50000J0D01*
G01*
X132200000Y-42208501D02*
X124600000Y-42208501D01*
X126400000Y-39208501D02*
X126400000Y-42208501D01*
X131700000Y-40508501D02*
G75*
G02*
X131600000Y-40508501I-50000J0D01*
G01*
X131600000Y-40508501D02*
G75*
G02*
X131700000Y-40508501I50000J0D01*
G01*
X124600000Y-42208501D02*
X124600000Y-39208501D01*
X129700000Y-40508501D02*
G75*
G02*
X129600000Y-40508501I-50000J0D01*
G01*
X129600000Y-40508501D02*
G75*
G02*
X129700000Y-40508501I50000J0D01*
G01*
X130400000Y-39208501D02*
X130400000Y-42208501D01*
X131200000Y-40508501D02*
G75*
G02*
X131100000Y-40508501I-50000J0D01*
G01*
X131100000Y-40508501D02*
G75*
G02*
X131200000Y-40508501I50000J0D01*
G01*
X124600000Y-39208501D02*
X132200000Y-39208501D01*
X129200000Y-40508501D02*
G75*
G02*
X129100000Y-40508501I-50000J0D01*
G01*
X129100000Y-40508501D02*
G75*
G02*
X129200000Y-40508501I50000J0D01*
G01*
X127200000Y-40508501D02*
G75*
G02*
X127100000Y-40508501I-50000J0D01*
G01*
X127100000Y-40508501D02*
G75*
G02*
X127200000Y-40508501I50000J0D01*
G01*
X127700000Y-20508501D02*
G75*
G02*
X127600000Y-20508501I-50000J0D01*
G01*
X127600000Y-20508501D02*
G75*
G02*
X127700000Y-20508501I50000J0D01*
G01*
X132200000Y-19208501D02*
X132200000Y-22208501D01*
X131200000Y-20908501D02*
G75*
G02*
X131100000Y-20908501I-50000J0D01*
G01*
X131100000Y-20908501D02*
G75*
G02*
X131200000Y-20908501I50000J0D01*
G01*
X125200000Y-20458501D02*
G75*
G02*
X125100000Y-20458501I-50000J0D01*
G01*
X125100000Y-20458501D02*
G75*
G02*
X125200000Y-20458501I50000J0D01*
G01*
X128400000Y-19208501D02*
X128400000Y-22208501D01*
X99700000Y-40508501D02*
G75*
G02*
X99600000Y-40508501I-50000J0D01*
G01*
X99600000Y-40508501D02*
G75*
G02*
X99700000Y-40508501I50000J0D01*
G01*
X104200000Y-39208501D02*
X104200000Y-42208501D01*
X103200000Y-40908501D02*
G75*
G02*
X103100000Y-40908501I-50000J0D01*
G01*
X103100000Y-40908501D02*
G75*
G02*
X103200000Y-40908501I50000J0D01*
G01*
X73200000Y-60908501D02*
G75*
G02*
X73100000Y-60908501I-50000J0D01*
G01*
X73100000Y-60908501D02*
G75*
G02*
X73200000Y-60908501I50000J0D01*
G01*
X73200000Y-40508501D02*
G75*
G02*
X73100000Y-40508501I-50000J0D01*
G01*
X73100000Y-40508501D02*
G75*
G02*
X73200000Y-40508501I50000J0D01*
G01*
X69200000Y-60458501D02*
G75*
G02*
X69100000Y-60458501I-50000J0D01*
G01*
X69100000Y-60458501D02*
G75*
G02*
X69200000Y-60458501I50000J0D01*
G01*
X75700000Y-60908501D02*
G75*
G02*
X75600000Y-60908501I-50000J0D01*
G01*
X75600000Y-60908501D02*
G75*
G02*
X75700000Y-60908501I50000J0D01*
G01*
X74400000Y-59208501D02*
X74400000Y-62208501D01*
X71700000Y-40508501D02*
G75*
G02*
X71600000Y-40508501I-50000J0D01*
G01*
X71600000Y-40508501D02*
G75*
G02*
X71700000Y-40508501I50000J0D01*
G01*
X73200000Y-60508501D02*
G75*
G02*
X73100000Y-60508501I-50000J0D01*
G01*
X73100000Y-60508501D02*
G75*
G02*
X73200000Y-60508501I50000J0D01*
G01*
X101200000Y-20508501D02*
G75*
G02*
X101100000Y-20508501I-50000J0D01*
G01*
X101100000Y-20508501D02*
G75*
G02*
X101200000Y-20508501I50000J0D01*
G01*
X99200000Y-20508501D02*
G75*
G02*
X99100000Y-20508501I-50000J0D01*
G01*
X99100000Y-20508501D02*
G75*
G02*
X99200000Y-20508501I50000J0D01*
G01*
X76200000Y-62208501D02*
X68600000Y-62208501D01*
X43700000Y-60508501D02*
G75*
G02*
X43600000Y-60508501I-50000J0D01*
G01*
X43600000Y-60508501D02*
G75*
G02*
X43700000Y-60508501I50000J0D01*
G01*
X48200000Y-59208501D02*
X48200000Y-62208501D01*
X47200000Y-60908501D02*
G75*
G02*
X47100000Y-60908501I-50000J0D01*
G01*
X47100000Y-60908501D02*
G75*
G02*
X47200000Y-60908501I50000J0D01*
G01*
X41200000Y-60458501D02*
G75*
G02*
X41100000Y-60458501I-50000J0D01*
G01*
X41100000Y-60458501D02*
G75*
G02*
X41200000Y-60458501I50000J0D01*
G01*
X44400000Y-59208501D02*
X44400000Y-62208501D01*
X45200000Y-60908501D02*
G75*
G02*
X45100000Y-60908501I-50000J0D01*
G01*
X45100000Y-60908501D02*
G75*
G02*
X45200000Y-60908501I50000J0D01*
G01*
X47700000Y-60908501D02*
G75*
G02*
X47600000Y-60908501I-50000J0D01*
G01*
X47600000Y-60908501D02*
G75*
G02*
X47700000Y-60908501I50000J0D01*
G01*
X48200000Y-62208501D02*
X40600000Y-62208501D01*
X42400000Y-59208501D02*
X42400000Y-62208501D01*
X47700000Y-60508501D02*
G75*
G02*
X47600000Y-60508501I-50000J0D01*
G01*
X47600000Y-60508501D02*
G75*
G02*
X47700000Y-60508501I50000J0D01*
G01*
X40600000Y-62208501D02*
X40600000Y-59208501D01*
X45700000Y-60508501D02*
G75*
G02*
X45600000Y-60508501I-50000J0D01*
G01*
X45600000Y-60508501D02*
G75*
G02*
X45700000Y-60508501I50000J0D01*
G01*
X46400000Y-59208501D02*
X46400000Y-62208501D01*
X47200000Y-60508501D02*
G75*
G02*
X47100000Y-60508501I-50000J0D01*
G01*
X47100000Y-60508501D02*
G75*
G02*
X47200000Y-60508501I50000J0D01*
G01*
X40600000Y-59208501D02*
X48200000Y-59208501D01*
X45200000Y-60508501D02*
G75*
G02*
X45100000Y-60508501I-50000J0D01*
G01*
X45100000Y-60508501D02*
G75*
G02*
X45200000Y-60508501I50000J0D01*
G01*
X43200000Y-60508501D02*
G75*
G02*
X43100000Y-60508501I-50000J0D01*
G01*
X43100000Y-60508501D02*
G75*
G02*
X43200000Y-60508501I50000J0D01*
G01*
X75700000Y-60508501D02*
G75*
G02*
X75600000Y-60508501I-50000J0D01*
G01*
X75600000Y-60508501D02*
G75*
G02*
X75700000Y-60508501I50000J0D01*
G01*
X72400000Y-39208501D02*
X72400000Y-42208501D01*
X71700000Y-60508501D02*
G75*
G02*
X71600000Y-60508501I-50000J0D01*
G01*
X71600000Y-60508501D02*
G75*
G02*
X71700000Y-60508501I50000J0D01*
G01*
X76200000Y-39208501D02*
X76200000Y-42208501D01*
X68600000Y-62208501D02*
X68600000Y-59208501D01*
X70400000Y-59208501D02*
X70400000Y-62208501D01*
X99700000Y-60508501D02*
G75*
G02*
X99600000Y-60508501I-50000J0D01*
G01*
X99600000Y-60508501D02*
G75*
G02*
X99700000Y-60508501I50000J0D01*
G01*
X104200000Y-59208501D02*
X104200000Y-62208501D01*
X103200000Y-60908501D02*
G75*
G02*
X103100000Y-60908501I-50000J0D01*
G01*
X103100000Y-60908501D02*
G75*
G02*
X103200000Y-60908501I50000J0D01*
G01*
X72400000Y-59208501D02*
X72400000Y-62208501D01*
X43700000Y-80508501D02*
G75*
G02*
X43600000Y-80508501I-50000J0D01*
G01*
X43600000Y-80508501D02*
G75*
G02*
X43700000Y-80508501I50000J0D01*
G01*
X48200000Y-79208501D02*
X48200000Y-82208501D01*
X47200000Y-80908501D02*
G75*
G02*
X47100000Y-80908501I-50000J0D01*
G01*
X47100000Y-80908501D02*
G75*
G02*
X47200000Y-80908501I50000J0D01*
G01*
X41200000Y-80458501D02*
G75*
G02*
X41100000Y-80458501I-50000J0D01*
G01*
X41100000Y-80458501D02*
G75*
G02*
X41200000Y-80458501I50000J0D01*
G01*
X44400000Y-79208501D02*
X44400000Y-82208501D01*
X45200000Y-80908501D02*
G75*
G02*
X45100000Y-80908501I-50000J0D01*
G01*
X45100000Y-80908501D02*
G75*
G02*
X45200000Y-80908501I50000J0D01*
G01*
X47700000Y-80908501D02*
G75*
G02*
X47600000Y-80908501I-50000J0D01*
G01*
X47600000Y-80908501D02*
G75*
G02*
X47700000Y-80908501I50000J0D01*
G01*
X48200000Y-82208501D02*
X40600000Y-82208501D01*
X42400000Y-79208501D02*
X42400000Y-82208501D01*
X47700000Y-80508501D02*
G75*
G02*
X47600000Y-80508501I-50000J0D01*
G01*
X47600000Y-80508501D02*
G75*
G02*
X47700000Y-80508501I50000J0D01*
G01*
X40600000Y-82208501D02*
X40600000Y-79208501D01*
X45700000Y-80508501D02*
G75*
G02*
X45600000Y-80508501I-50000J0D01*
G01*
X45600000Y-80508501D02*
G75*
G02*
X45700000Y-80508501I50000J0D01*
G01*
X46400000Y-79208501D02*
X46400000Y-82208501D01*
X47200000Y-80508501D02*
G75*
G02*
X47100000Y-80508501I-50000J0D01*
G01*
X47100000Y-80508501D02*
G75*
G02*
X47200000Y-80508501I50000J0D01*
G01*
X40600000Y-79208501D02*
X48200000Y-79208501D01*
X45200000Y-80508501D02*
G75*
G02*
X45100000Y-80508501I-50000J0D01*
G01*
X45100000Y-80508501D02*
G75*
G02*
X45200000Y-80508501I50000J0D01*
G01*
X43200000Y-80508501D02*
G75*
G02*
X43100000Y-80508501I-50000J0D01*
G01*
X43100000Y-80508501D02*
G75*
G02*
X43200000Y-80508501I50000J0D01*
G01*
X75700000Y-80508501D02*
G75*
G02*
X75600000Y-80508501I-50000J0D01*
G01*
X75600000Y-80508501D02*
G75*
G02*
X75700000Y-80508501I50000J0D01*
G01*
X69200000Y-80458501D02*
G75*
G02*
X69100000Y-80458501I-50000J0D01*
G01*
X69100000Y-80458501D02*
G75*
G02*
X69200000Y-80458501I50000J0D01*
G01*
X75700000Y-80908501D02*
G75*
G02*
X75600000Y-80908501I-50000J0D01*
G01*
X75600000Y-80908501D02*
G75*
G02*
X75700000Y-80908501I50000J0D01*
G01*
X74400000Y-79208501D02*
X74400000Y-82208501D01*
X71700000Y-80508501D02*
G75*
G02*
X71600000Y-80508501I-50000J0D01*
G01*
X71600000Y-80508501D02*
G75*
G02*
X71700000Y-80508501I50000J0D01*
G01*
X103700000Y-80508501D02*
G75*
G02*
X103600000Y-80508501I-50000J0D01*
G01*
X103600000Y-80508501D02*
G75*
G02*
X103700000Y-80508501I50000J0D01*
G01*
X96600000Y-82208501D02*
X96600000Y-79208501D01*
X101700000Y-80508501D02*
G75*
G02*
X101600000Y-80508501I-50000J0D01*
G01*
X101600000Y-80508501D02*
G75*
G02*
X101700000Y-80508501I50000J0D01*
G01*
X102400000Y-79208501D02*
X102400000Y-82208501D01*
X103200000Y-80508501D02*
G75*
G02*
X103100000Y-80508501I-50000J0D01*
G01*
X103100000Y-80508501D02*
G75*
G02*
X103200000Y-80508501I50000J0D01*
G01*
X96600000Y-79208501D02*
X104200000Y-79208501D01*
X129200000Y-80908501D02*
G75*
G02*
X129100000Y-80908501I-50000J0D01*
G01*
X129100000Y-80908501D02*
G75*
G02*
X129200000Y-80908501I50000J0D01*
G01*
X131700000Y-80908501D02*
G75*
G02*
X131600000Y-80908501I-50000J0D01*
G01*
X131600000Y-80908501D02*
G75*
G02*
X131700000Y-80908501I50000J0D01*
G01*
X132200000Y-82208501D02*
X124600000Y-82208501D01*
X126400000Y-79208501D02*
X126400000Y-82208501D01*
X131700000Y-80508501D02*
G75*
G02*
X131600000Y-80508501I-50000J0D01*
G01*
X131600000Y-80508501D02*
G75*
G02*
X131700000Y-80508501I50000J0D01*
G01*
X124600000Y-82208501D02*
X124600000Y-79208501D01*
X129700000Y-80508501D02*
G75*
G02*
X129600000Y-80508501I-50000J0D01*
G01*
X129600000Y-80508501D02*
G75*
G02*
X129700000Y-80508501I50000J0D01*
G01*
X130400000Y-79208501D02*
X130400000Y-82208501D01*
X131200000Y-80508501D02*
G75*
G02*
X131100000Y-80508501I-50000J0D01*
G01*
X131100000Y-80508501D02*
G75*
G02*
X131200000Y-80508501I50000J0D01*
G01*
X124600000Y-79208501D02*
X132200000Y-79208501D01*
X129200000Y-80508501D02*
G75*
G02*
X129100000Y-80508501I-50000J0D01*
G01*
X129100000Y-80508501D02*
G75*
G02*
X129200000Y-80508501I50000J0D01*
G01*
X127200000Y-80508501D02*
G75*
G02*
X127100000Y-80508501I-50000J0D01*
G01*
X127100000Y-80508501D02*
G75*
G02*
X127200000Y-80508501I50000J0D01*
G01*
X75200000Y-80508501D02*
G75*
G02*
X75100000Y-80508501I-50000J0D01*
G01*
X75100000Y-80508501D02*
G75*
G02*
X75200000Y-80508501I50000J0D01*
G01*
X73200000Y-80908501D02*
G75*
G02*
X73100000Y-80908501I-50000J0D01*
G01*
X73100000Y-80908501D02*
G75*
G02*
X73200000Y-80908501I50000J0D01*
G01*
X68600000Y-82208501D02*
X68600000Y-79208501D01*
X70400000Y-79208501D02*
X70400000Y-82208501D01*
X76200000Y-79208501D02*
X76200000Y-82208501D01*
X75200000Y-80908501D02*
G75*
G02*
X75100000Y-80908501I-50000J0D01*
G01*
X75100000Y-80908501D02*
G75*
G02*
X75200000Y-80908501I50000J0D01*
G01*
X76200000Y-82208501D02*
X68600000Y-82208501D01*
X68600000Y-42208501D02*
X68600000Y-39208501D01*
X68600000Y-79208501D02*
X76200000Y-79208501D01*
X97200000Y-80458501D02*
G75*
G02*
X97100000Y-80458501I-50000J0D01*
G01*
X97100000Y-80458501D02*
G75*
G02*
X97200000Y-80458501I50000J0D01*
G01*
X100400000Y-79208501D02*
X100400000Y-82208501D01*
X101200000Y-80908501D02*
G75*
G02*
X101100000Y-80908501I-50000J0D01*
G01*
X101100000Y-80908501D02*
G75*
G02*
X101200000Y-80908501I50000J0D01*
G01*
X103700000Y-80908501D02*
G75*
G02*
X103600000Y-80908501I-50000J0D01*
G01*
X103600000Y-80908501D02*
G75*
G02*
X103700000Y-80908501I50000J0D01*
G01*
X104200000Y-82208501D02*
X96600000Y-82208501D01*
X98400000Y-79208501D02*
X98400000Y-82208501D01*
X73700000Y-80508501D02*
G75*
G02*
X73600000Y-80508501I-50000J0D01*
G01*
X73600000Y-80508501D02*
G75*
G02*
X73700000Y-80508501I50000J0D01*
G01*
X73200000Y-80508501D02*
G75*
G02*
X73100000Y-80508501I-50000J0D01*
G01*
X73100000Y-80508501D02*
G75*
G02*
X73200000Y-80508501I50000J0D01*
G01*
X72400000Y-79208501D02*
X72400000Y-82208501D01*
X99700000Y-80508501D02*
G75*
G02*
X99600000Y-80508501I-50000J0D01*
G01*
X99600000Y-80508501D02*
G75*
G02*
X99700000Y-80508501I50000J0D01*
G01*
X104200000Y-79208501D02*
X104200000Y-82208501D01*
X103200000Y-80908501D02*
G75*
G02*
X103100000Y-80908501I-50000J0D01*
G01*
X103100000Y-80908501D02*
G75*
G02*
X103200000Y-80908501I50000J0D01*
G01*
X127700000Y-80508501D02*
G75*
G02*
X127600000Y-80508501I-50000J0D01*
G01*
X127600000Y-80508501D02*
G75*
G02*
X127700000Y-80508501I50000J0D01*
G01*
X132200000Y-79208501D02*
X132200000Y-82208501D01*
X131200000Y-80908501D02*
G75*
G02*
X131100000Y-80908501I-50000J0D01*
G01*
X131100000Y-80908501D02*
G75*
G02*
X131200000Y-80908501I50000J0D01*
G01*
X125200000Y-80458501D02*
G75*
G02*
X125100000Y-80458501I-50000J0D01*
G01*
X125100000Y-80458501D02*
G75*
G02*
X125200000Y-80458501I50000J0D01*
G01*
X128400000Y-79208501D02*
X128400000Y-82208501D01*
X101200000Y-80508501D02*
G75*
G02*
X101100000Y-80508501I-50000J0D01*
G01*
X101100000Y-80508501D02*
G75*
G02*
X101200000Y-80508501I50000J0D01*
G01*
X99200000Y-80508501D02*
G75*
G02*
X99100000Y-80508501I-50000J0D01*
G01*
X99100000Y-80508501D02*
G75*
G02*
X99200000Y-80508501I50000J0D01*
G01*
D11*
%TO.C,R4*%
X130237258Y-90186001D02*
X129762742Y-90186001D01*
X130237258Y-91231001D02*
X129762742Y-91231001D01*
%TO.C,R18*%
X99477500Y-94871243D02*
X99477500Y-95345759D01*
X100522500Y-94871243D02*
X100522500Y-95345759D01*
%TO.C,R34*%
X115662742Y-84186001D02*
X116137258Y-84186001D01*
X115662742Y-85231001D02*
X116137258Y-85231001D01*
%TO.C,R35*%
X143662742Y-85686001D02*
X144137258Y-85686001D01*
X143662742Y-86731001D02*
X144137258Y-86731001D01*
%TO.C,R34*%
X143662742Y-84186001D02*
X144137258Y-84186001D01*
X143662742Y-85231001D02*
X144137258Y-85231001D01*
%TO.C,R19*%
X115662742Y-88686001D02*
X116137258Y-88686001D01*
X115662742Y-89731001D02*
X116137258Y-89731001D01*
%TO.C,R30*%
X145477500Y-80845759D02*
X145477500Y-80371243D01*
X146522500Y-80845759D02*
X146522500Y-80371243D01*
%TO.C,R18*%
X71477500Y-94871243D02*
X71477500Y-95345759D01*
X72522500Y-94871243D02*
X72522500Y-95345759D01*
%TO.C,R39*%
X140977500Y-80845759D02*
X140977500Y-80371243D01*
X142022500Y-80845759D02*
X142022500Y-80371243D01*
%TO.C,C1*%
X135592164Y-81848501D02*
X135807836Y-81848501D01*
X135592164Y-82568501D02*
X135807836Y-82568501D01*
%TO.C,R32*%
X92477500Y-80845759D02*
X92477500Y-80371243D01*
X93522500Y-80845759D02*
X93522500Y-80371243D01*
%TO.C,R2*%
X74237258Y-84186001D02*
X73762742Y-84186001D01*
X74237258Y-85231001D02*
X73762742Y-85231001D01*
%TO.C,R10*%
X139477500Y-94871243D02*
X139477500Y-95345759D01*
X140522500Y-94871243D02*
X140522500Y-95345759D01*
%TO.C,R22*%
X148477500Y-94871243D02*
X148477500Y-95345759D01*
X149522500Y-94871243D02*
X149522500Y-95345759D01*
%TO.C,R8*%
X124477500Y-94871243D02*
X124477500Y-95345759D01*
X125522500Y-94871243D02*
X125522500Y-95345759D01*
%TO.C,R45*%
X130877500Y-80945759D02*
X130877500Y-80471243D01*
X131922500Y-80945759D02*
X131922500Y-80471243D01*
%TO.C,R6*%
X130237258Y-87186001D02*
X129762742Y-87186001D01*
X130237258Y-88231001D02*
X129762742Y-88231001D01*
%TO.C,C4*%
X133807836Y-81848501D02*
X133592164Y-81848501D01*
X133807836Y-82568501D02*
X133592164Y-82568501D01*
%TO.C,R39*%
X112977500Y-80845759D02*
X112977500Y-80371243D01*
X114022500Y-80845759D02*
X114022500Y-80371243D01*
%TO.C,R40*%
X136820000Y-80554860D02*
X136820000Y-80862142D01*
X137580000Y-80554860D02*
X137580000Y-80862142D01*
%TO.C,R12*%
X136477500Y-94871243D02*
X136477500Y-95345759D01*
X137522500Y-94871243D02*
X137522500Y-95345759D01*
%TO.C,R45*%
X102877500Y-80945759D02*
X102877500Y-80471243D01*
X103922500Y-80945759D02*
X103922500Y-80471243D01*
%TO.C,R25*%
X115977500Y-94871243D02*
X115977500Y-95345759D01*
X117022500Y-94871243D02*
X117022500Y-95345759D01*
%TO.C,R42*%
X124877500Y-80945759D02*
X124877500Y-80471243D01*
X125922500Y-80945759D02*
X125922500Y-80471243D01*
%TO.C,R8*%
X96477500Y-94871243D02*
X96477500Y-95345759D01*
X97522500Y-94871243D02*
X97522500Y-95345759D01*
%TO.C,R28*%
X142477500Y-80845759D02*
X142477500Y-80371243D01*
X143522500Y-80845759D02*
X143522500Y-80371243D01*
%TO.C,C7*%
X80840000Y-82816337D02*
X80840000Y-82600665D01*
X81560000Y-82816337D02*
X81560000Y-82600665D01*
%TO.C,R14*%
X105477500Y-94871243D02*
X105477500Y-95345759D01*
X106522500Y-94871243D02*
X106522500Y-95345759D01*
%TO.C,R27*%
X112977500Y-94871243D02*
X112977500Y-95345759D01*
X114022500Y-94871243D02*
X114022500Y-95345759D01*
%TO.C,R44*%
X100877500Y-80945759D02*
X100877500Y-80471243D01*
X101922500Y-80945759D02*
X101922500Y-80471243D01*
%TO.C,R29*%
X115977500Y-80845759D02*
X115977500Y-80371243D01*
X117022500Y-80845759D02*
X117022500Y-80371243D01*
D12*
%TO.C,CN6*%
X97210000Y-82526501D02*
X97210000Y-82526501D01*
X97210000Y-83696501D02*
X97210000Y-83726501D01*
X97210000Y-91996501D02*
X97210000Y-92026501D01*
X97210000Y-93196501D02*
X97210000Y-93196501D01*
X97210000Y-93196501D02*
X99490000Y-93196501D01*
X99490000Y-82526501D02*
X97210000Y-82526501D01*
X99490000Y-82526501D02*
X99490000Y-82526501D01*
X99490000Y-83726501D02*
X99490000Y-83696501D01*
X99490000Y-92026501D02*
X99490000Y-91996501D01*
X99490000Y-93196501D02*
X99490000Y-93196501D01*
X96430000Y-83026501D02*
G75*
G02*
X96210000Y-83026501I-110000J0D01*
G01*
X96210000Y-83026501D02*
G75*
G02*
X96430000Y-83026501I110000J0D01*
G01*
D11*
%TO.C,R6*%
X74237258Y-87186001D02*
X73762742Y-87186001D01*
X74237258Y-88231001D02*
X73762742Y-88231001D01*
%TO.C,R43*%
X98877500Y-80945759D02*
X98877500Y-80471243D01*
X99922500Y-80945759D02*
X99922500Y-80471243D01*
%TO.C,R9*%
X102237258Y-91686001D02*
X101762742Y-91686001D01*
X102237258Y-92731001D02*
X101762742Y-92731001D01*
%TO.C,R33*%
X87662742Y-82686001D02*
X88137258Y-82686001D01*
X87662742Y-83731001D02*
X88137258Y-83731001D01*
%TO.C,R6*%
X102237258Y-87186001D02*
X101762742Y-87186001D01*
X102237258Y-88231001D02*
X101762742Y-88231001D01*
D12*
%TO.C,U1*%
X133500000Y-84256501D02*
X133500000Y-84726501D01*
X133500000Y-90986501D02*
X133500000Y-91456501D01*
X133500000Y-91456501D02*
X133970000Y-91456501D01*
X133970000Y-84256501D02*
X133500000Y-84256501D01*
X140230000Y-91456501D02*
X140700000Y-91456501D01*
X140700000Y-84256501D02*
X140230000Y-84256501D01*
X140700000Y-84656501D02*
X140700000Y-84256501D01*
X140700000Y-84726501D02*
X140700000Y-84656501D01*
X140700000Y-91456501D02*
X140700000Y-90986501D01*
X140790000Y-83666501D02*
G75*
G02*
X140530000Y-83666501I-130000J0D01*
G01*
X140530000Y-83666501D02*
G75*
G02*
X140790000Y-83666501I130000J0D01*
G01*
%TO.C,CN5*%
X118410000Y-82526501D02*
X118410000Y-82526501D01*
X118410000Y-83696501D02*
X118410000Y-83726501D01*
X118410000Y-91996501D02*
X118410000Y-92026501D01*
X118410000Y-93196501D02*
X118410000Y-93196501D01*
X118410000Y-93196501D02*
X120690000Y-93196501D01*
X120690000Y-82526501D02*
X118410000Y-82526501D01*
X120690000Y-82526501D02*
X120690000Y-82526501D01*
X120690000Y-83726501D02*
X120690000Y-83696501D01*
X120690000Y-92026501D02*
X120690000Y-91996501D01*
X120690000Y-93196501D02*
X120690000Y-93196501D01*
X117630000Y-83026501D02*
G75*
G02*
X117410000Y-83026501I-110000J0D01*
G01*
X117410000Y-83026501D02*
G75*
G02*
X117630000Y-83026501I110000J0D01*
G01*
D11*
%TO.C,R43*%
X126877500Y-80945759D02*
X126877500Y-80471243D01*
X127922500Y-80945759D02*
X127922500Y-80471243D01*
%TO.C,R35*%
X115662742Y-85686001D02*
X116137258Y-85686001D01*
X115662742Y-86731001D02*
X116137258Y-86731001D01*
%TO.C,R31*%
X146977500Y-80845759D02*
X146977500Y-80371243D01*
X148022500Y-80845759D02*
X148022500Y-80371243D01*
%TO.C,C2*%
X79592164Y-82848501D02*
X79807836Y-82848501D01*
X79592164Y-83568501D02*
X79807836Y-83568501D01*
%TO.C,R36*%
X87662742Y-87186001D02*
X88137258Y-87186001D01*
X87662742Y-88231001D02*
X88137258Y-88231001D01*
%TO.C,R5*%
X74237258Y-88686001D02*
X73762742Y-88686001D01*
X74237258Y-89731001D02*
X73762742Y-89731001D01*
%TO.C,R37*%
X137977500Y-80845759D02*
X137977500Y-80371243D01*
X139022500Y-80845759D02*
X139022500Y-80371243D01*
%TO.C,C4*%
X77807836Y-81848501D02*
X77592164Y-81848501D01*
X77807836Y-82568501D02*
X77592164Y-82568501D01*
%TO.C,R20*%
X87662742Y-90186001D02*
X88137258Y-90186001D01*
X87662742Y-91231001D02*
X88137258Y-91231001D01*
%TO.C,R15*%
X75977500Y-94871243D02*
X75977500Y-95345759D01*
X77022500Y-94871243D02*
X77022500Y-95345759D01*
%TO.C,R40*%
X108820000Y-80554860D02*
X108820000Y-80862142D01*
X109580000Y-80554860D02*
X109580000Y-80862142D01*
%TO.C,R10*%
X83477500Y-94871243D02*
X83477500Y-95345759D01*
X84522500Y-94871243D02*
X84522500Y-95345759D01*
%TO.C,R11*%
X81977500Y-94871243D02*
X81977500Y-95345759D01*
X83022500Y-94871243D02*
X83022500Y-95345759D01*
%TO.C,R5*%
X130237258Y-88686001D02*
X129762742Y-88686001D01*
X130237258Y-89731001D02*
X129762742Y-89731001D01*
%TO.C,R30*%
X89477500Y-80845759D02*
X89477500Y-80371243D01*
X90522500Y-80845759D02*
X90522500Y-80371243D01*
%TO.C,R44*%
X72877500Y-80945759D02*
X72877500Y-80471243D01*
X73922500Y-80945759D02*
X73922500Y-80471243D01*
%TO.C,R1*%
X102237258Y-82686001D02*
X101762742Y-82686001D01*
X102237258Y-83731001D02*
X101762742Y-83731001D01*
%TO.C,R14*%
X133477500Y-94871243D02*
X133477500Y-95345759D01*
X134522500Y-94871243D02*
X134522500Y-95345759D01*
%TO.C,R37*%
X109977500Y-80845759D02*
X109977500Y-80371243D01*
X111022500Y-80845759D02*
X111022500Y-80371243D01*
%TO.C,C4*%
X105807836Y-81848501D02*
X105592164Y-81848501D01*
X105807836Y-82568501D02*
X105592164Y-82568501D01*
%TO.C,R9*%
X74237258Y-91686001D02*
X73762742Y-91686001D01*
X74237258Y-92731001D02*
X73762742Y-92731001D01*
%TO.C,R34*%
X87662742Y-84186001D02*
X88137258Y-84186001D01*
X87662742Y-85231001D02*
X88137258Y-85231001D01*
D12*
%TO.C,U1*%
X77500000Y-84256501D02*
X77500000Y-84726501D01*
X77500000Y-90986501D02*
X77500000Y-91456501D01*
X77500000Y-91456501D02*
X77970000Y-91456501D01*
X77970000Y-84256501D02*
X77500000Y-84256501D01*
X84230000Y-91456501D02*
X84700000Y-91456501D01*
X84700000Y-84256501D02*
X84230000Y-84256501D01*
X84700000Y-84656501D02*
X84700000Y-84256501D01*
X84700000Y-84726501D02*
X84700000Y-84656501D01*
X84700000Y-91456501D02*
X84700000Y-90986501D01*
X84790000Y-83666501D02*
G75*
G02*
X84530000Y-83666501I-130000J0D01*
G01*
X84530000Y-83666501D02*
G75*
G02*
X84790000Y-83666501I130000J0D01*
G01*
D11*
%TO.C,C5*%
X131840000Y-87816337D02*
X131840000Y-87600665D01*
X132560000Y-87816337D02*
X132560000Y-87600665D01*
%TO.C,R28*%
X86477500Y-80845759D02*
X86477500Y-80371243D01*
X87522500Y-80845759D02*
X87522500Y-80371243D01*
%TO.C,R15*%
X103977500Y-94871243D02*
X103977500Y-95345759D01*
X105022500Y-94871243D02*
X105022500Y-95345759D01*
%TO.C,R27*%
X140977500Y-94871243D02*
X140977500Y-95345759D01*
X142022500Y-94871243D02*
X142022500Y-95345759D01*
%TO.C,R29*%
X143977500Y-80845759D02*
X143977500Y-80371243D01*
X145022500Y-80845759D02*
X145022500Y-80371243D01*
%TO.C,R3*%
X102237258Y-85686001D02*
X101762742Y-85686001D01*
X102237258Y-86731001D02*
X101762742Y-86731001D01*
%TO.C,R7*%
X97977500Y-94871243D02*
X97977500Y-95345759D01*
X99022500Y-94871243D02*
X99022500Y-95345759D01*
%TO.C,R9*%
X130237258Y-91686001D02*
X129762742Y-91686001D01*
X130237258Y-92731001D02*
X129762742Y-92731001D01*
%TO.C,R25*%
X143977500Y-94871243D02*
X143977500Y-95345759D01*
X145022500Y-94871243D02*
X145022500Y-95345759D01*
%TO.C,R14*%
X77477500Y-94871243D02*
X77477500Y-95345759D01*
X78522500Y-94871243D02*
X78522500Y-95345759D01*
%TO.C,C7*%
X136840000Y-82816337D02*
X136840000Y-82600665D01*
X137560000Y-82816337D02*
X137560000Y-82600665D01*
%TO.C,R18*%
X127477500Y-94871243D02*
X127477500Y-95345759D01*
X128522500Y-94871243D02*
X128522500Y-95345759D01*
%TO.C,R33*%
X115662742Y-82686001D02*
X116137258Y-82686001D01*
X115662742Y-83731001D02*
X116137258Y-83731001D01*
%TO.C,C3*%
X133807836Y-82848501D02*
X133592164Y-82848501D01*
X133807836Y-83568501D02*
X133592164Y-83568501D01*
%TO.C,R23*%
X146977500Y-94871243D02*
X146977500Y-95345759D01*
X148022500Y-94871243D02*
X148022500Y-95345759D01*
%TO.C,R26*%
X114477500Y-94871243D02*
X114477500Y-95345759D01*
X115522500Y-94871243D02*
X115522500Y-95345759D01*
%TO.C,R24*%
X145477500Y-94871243D02*
X145477500Y-95345759D01*
X146522500Y-94871243D02*
X146522500Y-95345759D01*
%TO.C,R30*%
X117477500Y-80845759D02*
X117477500Y-80371243D01*
X118522500Y-80845759D02*
X118522500Y-80371243D01*
%TO.C,R23*%
X118977500Y-94871243D02*
X118977500Y-95345759D01*
X120022500Y-94871243D02*
X120022500Y-95345759D01*
%TO.C,C3*%
X105807836Y-82848501D02*
X105592164Y-82848501D01*
X105807836Y-83568501D02*
X105592164Y-83568501D01*
%TO.C,R42*%
X68877500Y-80945759D02*
X68877500Y-80471243D01*
X69922500Y-80945759D02*
X69922500Y-80471243D01*
%TO.C,C5*%
X103840000Y-87816337D02*
X103840000Y-87600665D01*
X104560000Y-87816337D02*
X104560000Y-87600665D01*
%TO.C,R26*%
X142477500Y-94871243D02*
X142477500Y-95345759D01*
X143522500Y-94871243D02*
X143522500Y-95345759D01*
%TO.C,R16*%
X130477500Y-94871243D02*
X130477500Y-95345759D01*
X131522500Y-94871243D02*
X131522500Y-95345759D01*
%TO.C,R31*%
X90977500Y-80845759D02*
X90977500Y-80371243D01*
X92022500Y-80845759D02*
X92022500Y-80371243D01*
%TO.C,R42*%
X96877500Y-80945759D02*
X96877500Y-80471243D01*
X97922500Y-80945759D02*
X97922500Y-80471243D01*
%TO.C,R39*%
X84977500Y-80845759D02*
X84977500Y-80371243D01*
X86022500Y-80845759D02*
X86022500Y-80371243D01*
%TO.C,R1*%
X74237258Y-82686001D02*
X73762742Y-82686001D01*
X74237258Y-83731001D02*
X73762742Y-83731001D01*
%TO.C,R7*%
X125977500Y-94871243D02*
X125977500Y-95345759D01*
X127022500Y-94871243D02*
X127022500Y-95345759D01*
%TO.C,R12*%
X80477500Y-94871243D02*
X80477500Y-95345759D01*
X81522500Y-94871243D02*
X81522500Y-95345759D01*
%TO.C,R11*%
X137977500Y-94871243D02*
X137977500Y-95345759D01*
X139022500Y-94871243D02*
X139022500Y-95345759D01*
%TO.C,R13*%
X134977500Y-94871243D02*
X134977500Y-95345759D01*
X136022500Y-94871243D02*
X136022500Y-95345759D01*
%TO.C,C5*%
X75840000Y-87816337D02*
X75840000Y-87600665D01*
X76560000Y-87816337D02*
X76560000Y-87600665D01*
%TO.C,R38*%
X139477500Y-80845759D02*
X139477500Y-80371243D01*
X140522500Y-80845759D02*
X140522500Y-80371243D01*
%TO.C,R41*%
X79853641Y-80828501D02*
X79546359Y-80828501D01*
X79853641Y-81588501D02*
X79546359Y-81588501D01*
%TO.C,C1*%
X107592164Y-81848501D02*
X107807836Y-81848501D01*
X107592164Y-82568501D02*
X107807836Y-82568501D01*
%TO.C,R24*%
X89477500Y-94871243D02*
X89477500Y-95345759D01*
X90522500Y-94871243D02*
X90522500Y-95345759D01*
%TO.C,R4*%
X74237258Y-90186001D02*
X73762742Y-90186001D01*
X74237258Y-91231001D02*
X73762742Y-91231001D01*
%TO.C,R38*%
X83477500Y-80845759D02*
X83477500Y-80371243D01*
X84522500Y-80845759D02*
X84522500Y-80371243D01*
%TO.C,R36*%
X115662742Y-87186001D02*
X116137258Y-87186001D01*
X115662742Y-88231001D02*
X116137258Y-88231001D01*
D12*
%TO.C,U1*%
X105500000Y-84256501D02*
X105500000Y-84726501D01*
X105500000Y-90986501D02*
X105500000Y-91456501D01*
X105500000Y-91456501D02*
X105970000Y-91456501D01*
X105970000Y-84256501D02*
X105500000Y-84256501D01*
X112230000Y-91456501D02*
X112700000Y-91456501D01*
X112700000Y-84256501D02*
X112230000Y-84256501D01*
X112700000Y-84656501D02*
X112700000Y-84256501D01*
X112700000Y-84726501D02*
X112700000Y-84656501D01*
X112700000Y-91456501D02*
X112700000Y-90986501D01*
X112790000Y-83666501D02*
G75*
G02*
X112530000Y-83666501I-130000J0D01*
G01*
X112530000Y-83666501D02*
G75*
G02*
X112790000Y-83666501I130000J0D01*
G01*
D11*
%TO.C,C6*%
X103840000Y-89600665D02*
X103840000Y-89816337D01*
X104560000Y-89600665D02*
X104560000Y-89816337D01*
%TO.C,C1*%
X79592164Y-81848501D02*
X79807836Y-81848501D01*
X79592164Y-82568501D02*
X79807836Y-82568501D01*
%TO.C,C2*%
X107592164Y-82848501D02*
X107807836Y-82848501D01*
X107592164Y-83568501D02*
X107807836Y-83568501D01*
%TO.C,R37*%
X81977500Y-80845759D02*
X81977500Y-80371243D01*
X83022500Y-80845759D02*
X83022500Y-80371243D01*
%TO.C,R44*%
X128877500Y-80945759D02*
X128877500Y-80471243D01*
X129922500Y-80945759D02*
X129922500Y-80471243D01*
%TO.C,R32*%
X148477500Y-80845759D02*
X148477500Y-80371243D01*
X149522500Y-80845759D02*
X149522500Y-80371243D01*
%TO.C,C3*%
X77807836Y-82848501D02*
X77592164Y-82848501D01*
X77807836Y-83568501D02*
X77592164Y-83568501D01*
%TO.C,R19*%
X143662742Y-88686001D02*
X144137258Y-88686001D01*
X143662742Y-89731001D02*
X144137258Y-89731001D01*
%TO.C,R3*%
X130237258Y-85686001D02*
X129762742Y-85686001D01*
X130237258Y-86731001D02*
X129762742Y-86731001D01*
%TO.C,R24*%
X117477500Y-94871243D02*
X117477500Y-95345759D01*
X118522500Y-94871243D02*
X118522500Y-95345759D01*
%TO.C,R7*%
X69977500Y-94871243D02*
X69977500Y-95345759D01*
X71022500Y-94871243D02*
X71022500Y-95345759D01*
%TO.C,R27*%
X84977500Y-94871243D02*
X84977500Y-95345759D01*
X86022500Y-94871243D02*
X86022500Y-95345759D01*
%TO.C,R15*%
X131977500Y-94871243D02*
X131977500Y-95345759D01*
X133022500Y-94871243D02*
X133022500Y-95345759D01*
%TO.C,R17*%
X100977500Y-94871243D02*
X100977500Y-95345759D01*
X102022500Y-94871243D02*
X102022500Y-95345759D01*
%TO.C,R16*%
X74477500Y-94871243D02*
X74477500Y-95345759D01*
X75522500Y-94871243D02*
X75522500Y-95345759D01*
%TO.C,R2*%
X130237258Y-84186001D02*
X129762742Y-84186001D01*
X130237258Y-85231001D02*
X129762742Y-85231001D01*
%TO.C,R41*%
X135853641Y-80828501D02*
X135546359Y-80828501D01*
X135853641Y-81588501D02*
X135546359Y-81588501D01*
%TO.C,R21*%
X143662742Y-91686001D02*
X144137258Y-91686001D01*
X143662742Y-92731001D02*
X144137258Y-92731001D01*
D12*
%TO.C,CN6*%
X125210000Y-82526501D02*
X125210000Y-82526501D01*
X125210000Y-83696501D02*
X125210000Y-83726501D01*
X125210000Y-91996501D02*
X125210000Y-92026501D01*
X125210000Y-93196501D02*
X125210000Y-93196501D01*
X125210000Y-93196501D02*
X127490000Y-93196501D01*
X127490000Y-82526501D02*
X125210000Y-82526501D01*
X127490000Y-82526501D02*
X127490000Y-82526501D01*
X127490000Y-83726501D02*
X127490000Y-83696501D01*
X127490000Y-92026501D02*
X127490000Y-91996501D01*
X127490000Y-93196501D02*
X127490000Y-93196501D01*
X124430000Y-83026501D02*
G75*
G02*
X124210000Y-83026501I-110000J0D01*
G01*
X124210000Y-83026501D02*
G75*
G02*
X124430000Y-83026501I110000J0D01*
G01*
D11*
%TO.C,R45*%
X74877500Y-80945759D02*
X74877500Y-80471243D01*
X75922500Y-80945759D02*
X75922500Y-80471243D01*
%TO.C,R29*%
X87977500Y-80845759D02*
X87977500Y-80371243D01*
X89022500Y-80845759D02*
X89022500Y-80371243D01*
%TO.C,R3*%
X74237258Y-85686001D02*
X73762742Y-85686001D01*
X74237258Y-86731001D02*
X73762742Y-86731001D01*
%TO.C,R5*%
X102237258Y-88686001D02*
X101762742Y-88686001D01*
X102237258Y-89731001D02*
X101762742Y-89731001D01*
%TO.C,R28*%
X114477500Y-80845759D02*
X114477500Y-80371243D01*
X115522500Y-80845759D02*
X115522500Y-80371243D01*
%TO.C,R21*%
X115662742Y-91686001D02*
X116137258Y-91686001D01*
X115662742Y-92731001D02*
X116137258Y-92731001D01*
%TO.C,R35*%
X87662742Y-85686001D02*
X88137258Y-85686001D01*
X87662742Y-86731001D02*
X88137258Y-86731001D01*
%TO.C,R22*%
X120477500Y-94871243D02*
X120477500Y-95345759D01*
X121522500Y-94871243D02*
X121522500Y-95345759D01*
%TO.C,R25*%
X87977500Y-94871243D02*
X87977500Y-95345759D01*
X89022500Y-94871243D02*
X89022500Y-95345759D01*
%TO.C,R21*%
X87662742Y-91686001D02*
X88137258Y-91686001D01*
X87662742Y-92731001D02*
X88137258Y-92731001D01*
%TO.C,R43*%
X70877500Y-80945759D02*
X70877500Y-80471243D01*
X71922500Y-80945759D02*
X71922500Y-80471243D01*
%TO.C,R12*%
X108477500Y-94871243D02*
X108477500Y-95345759D01*
X109522500Y-94871243D02*
X109522500Y-95345759D01*
%TO.C,C2*%
X135592164Y-82848501D02*
X135807836Y-82848501D01*
X135592164Y-83568501D02*
X135807836Y-83568501D01*
D12*
%TO.C,CN6*%
X69210000Y-82526501D02*
X69210000Y-82526501D01*
X69210000Y-83696501D02*
X69210000Y-83726501D01*
X69210000Y-91996501D02*
X69210000Y-92026501D01*
X69210000Y-93196501D02*
X69210000Y-93196501D01*
X69210000Y-93196501D02*
X71490000Y-93196501D01*
X71490000Y-82526501D02*
X69210000Y-82526501D01*
X71490000Y-82526501D02*
X71490000Y-82526501D01*
X71490000Y-83726501D02*
X71490000Y-83696501D01*
X71490000Y-92026501D02*
X71490000Y-91996501D01*
X71490000Y-93196501D02*
X71490000Y-93196501D01*
X68430000Y-83026501D02*
G75*
G02*
X68210000Y-83026501I-110000J0D01*
G01*
X68210000Y-83026501D02*
G75*
G02*
X68430000Y-83026501I110000J0D01*
G01*
D11*
%TO.C,R41*%
X107853641Y-80828501D02*
X107546359Y-80828501D01*
X107853641Y-81588501D02*
X107546359Y-81588501D01*
%TO.C,C6*%
X131840000Y-89600665D02*
X131840000Y-89816337D01*
X132560000Y-89600665D02*
X132560000Y-89816337D01*
%TO.C,R17*%
X128977500Y-94871243D02*
X128977500Y-95345759D01*
X130022500Y-94871243D02*
X130022500Y-95345759D01*
%TO.C,R1*%
X130237258Y-82686001D02*
X129762742Y-82686001D01*
X130237258Y-83731001D02*
X129762742Y-83731001D01*
%TO.C,R11*%
X109977500Y-94871243D02*
X109977500Y-95345759D01*
X111022500Y-94871243D02*
X111022500Y-95345759D01*
%TO.C,R22*%
X92477500Y-94871243D02*
X92477500Y-95345759D01*
X93522500Y-94871243D02*
X93522500Y-95345759D01*
%TO.C,R10*%
X111477500Y-94871243D02*
X111477500Y-95345759D01*
X112522500Y-94871243D02*
X112522500Y-95345759D01*
%TO.C,R16*%
X102477500Y-94871243D02*
X102477500Y-95345759D01*
X103522500Y-94871243D02*
X103522500Y-95345759D01*
%TO.C,R20*%
X143662742Y-90186001D02*
X144137258Y-90186001D01*
X143662742Y-91231001D02*
X144137258Y-91231001D01*
%TO.C,R26*%
X86477500Y-94871243D02*
X86477500Y-95345759D01*
X87522500Y-94871243D02*
X87522500Y-95345759D01*
%TO.C,R40*%
X80820000Y-80554860D02*
X80820000Y-80862142D01*
X81580000Y-80554860D02*
X81580000Y-80862142D01*
%TO.C,R4*%
X102237258Y-90186001D02*
X101762742Y-90186001D01*
X102237258Y-91231001D02*
X101762742Y-91231001D01*
%TO.C,R32*%
X120477500Y-80845759D02*
X120477500Y-80371243D01*
X121522500Y-80845759D02*
X121522500Y-80371243D01*
%TO.C,R2*%
X102237258Y-84186001D02*
X101762742Y-84186001D01*
X102237258Y-85231001D02*
X101762742Y-85231001D01*
%TO.C,R17*%
X72977500Y-94871243D02*
X72977500Y-95345759D01*
X74022500Y-94871243D02*
X74022500Y-95345759D01*
%TO.C,R33*%
X143662742Y-82686001D02*
X144137258Y-82686001D01*
X143662742Y-83731001D02*
X144137258Y-83731001D01*
%TO.C,R23*%
X90977500Y-94871243D02*
X90977500Y-95345759D01*
X92022500Y-94871243D02*
X92022500Y-95345759D01*
D12*
%TO.C,CN5*%
X90410000Y-82526501D02*
X90410000Y-82526501D01*
X90410000Y-83696501D02*
X90410000Y-83726501D01*
X90410000Y-91996501D02*
X90410000Y-92026501D01*
X90410000Y-93196501D02*
X90410000Y-93196501D01*
X90410000Y-93196501D02*
X92690000Y-93196501D01*
X92690000Y-82526501D02*
X90410000Y-82526501D01*
X92690000Y-82526501D02*
X92690000Y-82526501D01*
X92690000Y-83726501D02*
X92690000Y-83696501D01*
X92690000Y-92026501D02*
X92690000Y-91996501D01*
X92690000Y-93196501D02*
X92690000Y-93196501D01*
X89630000Y-83026501D02*
G75*
G02*
X89410000Y-83026501I-110000J0D01*
G01*
X89410000Y-83026501D02*
G75*
G02*
X89630000Y-83026501I110000J0D01*
G01*
D11*
%TO.C,R36*%
X143662742Y-87186001D02*
X144137258Y-87186001D01*
X143662742Y-88231001D02*
X144137258Y-88231001D01*
%TO.C,R13*%
X78977500Y-94871243D02*
X78977500Y-95345759D01*
X80022500Y-94871243D02*
X80022500Y-95345759D01*
%TO.C,R19*%
X87662742Y-88686001D02*
X88137258Y-88686001D01*
X87662742Y-89731001D02*
X88137258Y-89731001D01*
D12*
%TO.C,CN5*%
X146410000Y-82526501D02*
X146410000Y-82526501D01*
X146410000Y-83696501D02*
X146410000Y-83726501D01*
X146410000Y-91996501D02*
X146410000Y-92026501D01*
X146410000Y-93196501D02*
X146410000Y-93196501D01*
X146410000Y-93196501D02*
X148690000Y-93196501D01*
X148690000Y-82526501D02*
X146410000Y-82526501D01*
X148690000Y-82526501D02*
X148690000Y-82526501D01*
X148690000Y-83726501D02*
X148690000Y-83696501D01*
X148690000Y-92026501D02*
X148690000Y-91996501D01*
X148690000Y-93196501D02*
X148690000Y-93196501D01*
X145630000Y-83026501D02*
G75*
G02*
X145410000Y-83026501I-110000J0D01*
G01*
X145410000Y-83026501D02*
G75*
G02*
X145630000Y-83026501I110000J0D01*
G01*
D11*
%TO.C,R13*%
X106977500Y-94871243D02*
X106977500Y-95345759D01*
X108022500Y-94871243D02*
X108022500Y-95345759D01*
%TO.C,C7*%
X108840000Y-82816337D02*
X108840000Y-82600665D01*
X109560000Y-82816337D02*
X109560000Y-82600665D01*
%TO.C,R31*%
X118977500Y-80845759D02*
X118977500Y-80371243D01*
X120022500Y-80845759D02*
X120022500Y-80371243D01*
%TO.C,C6*%
X75840000Y-89600665D02*
X75840000Y-89816337D01*
X76560000Y-89600665D02*
X76560000Y-89816337D01*
%TO.C,R8*%
X68477500Y-94871243D02*
X68477500Y-95345759D01*
X69522500Y-94871243D02*
X69522500Y-95345759D01*
%TO.C,R45*%
X46877500Y-80945759D02*
X46877500Y-80471243D01*
X47922500Y-80945759D02*
X47922500Y-80471243D01*
%TO.C,R8*%
X40477500Y-94871243D02*
X40477500Y-95345759D01*
X41522500Y-94871243D02*
X41522500Y-95345759D01*
%TO.C,R15*%
X47977500Y-94871243D02*
X47977500Y-95345759D01*
X49022500Y-94871243D02*
X49022500Y-95345759D01*
%TO.C,R31*%
X62977500Y-80845759D02*
X62977500Y-80371243D01*
X64022500Y-80845759D02*
X64022500Y-80371243D01*
%TO.C,R26*%
X58477500Y-94871243D02*
X58477500Y-95345759D01*
X59522500Y-94871243D02*
X59522500Y-95345759D01*
%TO.C,R32*%
X64477500Y-80845759D02*
X64477500Y-80371243D01*
X65522500Y-80845759D02*
X65522500Y-80371243D01*
%TO.C,R36*%
X59662742Y-87186001D02*
X60137258Y-87186001D01*
X59662742Y-88231001D02*
X60137258Y-88231001D01*
%TO.C,R16*%
X46477500Y-94871243D02*
X46477500Y-95345759D01*
X47522500Y-94871243D02*
X47522500Y-95345759D01*
%TO.C,C4*%
X49807836Y-81848501D02*
X49592164Y-81848501D01*
X49807836Y-82568501D02*
X49592164Y-82568501D01*
%TO.C,R44*%
X44877500Y-80945759D02*
X44877500Y-80471243D01*
X45922500Y-80945759D02*
X45922500Y-80471243D01*
%TO.C,C5*%
X47840000Y-87816337D02*
X47840000Y-87600665D01*
X48560000Y-87816337D02*
X48560000Y-87600665D01*
%TO.C,R39*%
X56977500Y-80845759D02*
X56977500Y-80371243D01*
X58022500Y-80845759D02*
X58022500Y-80371243D01*
%TO.C,C7*%
X52840000Y-82816337D02*
X52840000Y-82600665D01*
X53560000Y-82816337D02*
X53560000Y-82600665D01*
%TO.C,R12*%
X52477500Y-94871243D02*
X52477500Y-95345759D01*
X53522500Y-94871243D02*
X53522500Y-95345759D01*
%TO.C,R11*%
X53977500Y-94871243D02*
X53977500Y-95345759D01*
X55022500Y-94871243D02*
X55022500Y-95345759D01*
%TO.C,R10*%
X55477500Y-94871243D02*
X55477500Y-95345759D01*
X56522500Y-94871243D02*
X56522500Y-95345759D01*
%TO.C,R23*%
X62977500Y-94871243D02*
X62977500Y-95345759D01*
X64022500Y-94871243D02*
X64022500Y-95345759D01*
%TO.C,R41*%
X51853641Y-80828501D02*
X51546359Y-80828501D01*
X51853641Y-81588501D02*
X51546359Y-81588501D01*
%TO.C,R29*%
X59977500Y-80845759D02*
X59977500Y-80371243D01*
X61022500Y-80845759D02*
X61022500Y-80371243D01*
%TO.C,R3*%
X46237258Y-85686001D02*
X45762742Y-85686001D01*
X46237258Y-86731001D02*
X45762742Y-86731001D01*
%TO.C,R5*%
X46237258Y-88686001D02*
X45762742Y-88686001D01*
X46237258Y-89731001D02*
X45762742Y-89731001D01*
%TO.C,R19*%
X59662742Y-88686001D02*
X60137258Y-88686001D01*
X59662742Y-89731001D02*
X60137258Y-89731001D01*
%TO.C,C1*%
X51592164Y-81848501D02*
X51807836Y-81848501D01*
X51592164Y-82568501D02*
X51807836Y-82568501D01*
%TO.C,R14*%
X49477500Y-94871243D02*
X49477500Y-95345759D01*
X50522500Y-94871243D02*
X50522500Y-95345759D01*
%TO.C,C2*%
X51592164Y-82848501D02*
X51807836Y-82848501D01*
X51592164Y-83568501D02*
X51807836Y-83568501D01*
D12*
%TO.C,CN5*%
X62410000Y-82526501D02*
X62410000Y-82526501D01*
X62410000Y-83696501D02*
X62410000Y-83726501D01*
X62410000Y-91996501D02*
X62410000Y-92026501D01*
X62410000Y-93196501D02*
X62410000Y-93196501D01*
X62410000Y-93196501D02*
X64690000Y-93196501D01*
X64690000Y-82526501D02*
X62410000Y-82526501D01*
X64690000Y-82526501D02*
X64690000Y-82526501D01*
X64690000Y-83726501D02*
X64690000Y-83696501D01*
X64690000Y-92026501D02*
X64690000Y-91996501D01*
X64690000Y-93196501D02*
X64690000Y-93196501D01*
X61630000Y-83026501D02*
G75*
G02*
X61410000Y-83026501I-110000J0D01*
G01*
X61410000Y-83026501D02*
G75*
G02*
X61630000Y-83026501I110000J0D01*
G01*
D11*
%TO.C,R35*%
X59662742Y-85686001D02*
X60137258Y-85686001D01*
X59662742Y-86731001D02*
X60137258Y-86731001D01*
D12*
%TO.C,U1*%
X49500000Y-84256501D02*
X49500000Y-84726501D01*
X49500000Y-90986501D02*
X49500000Y-91456501D01*
X49500000Y-91456501D02*
X49970000Y-91456501D01*
X49970000Y-84256501D02*
X49500000Y-84256501D01*
X56230000Y-91456501D02*
X56700000Y-91456501D01*
X56700000Y-84256501D02*
X56230000Y-84256501D01*
X56700000Y-84656501D02*
X56700000Y-84256501D01*
X56700000Y-84726501D02*
X56700000Y-84656501D01*
X56700000Y-91456501D02*
X56700000Y-90986501D01*
X56790000Y-83666501D02*
G75*
G02*
X56530000Y-83666501I-130000J0D01*
G01*
X56530000Y-83666501D02*
G75*
G02*
X56790000Y-83666501I130000J0D01*
G01*
D11*
%TO.C,R7*%
X41977500Y-94871243D02*
X41977500Y-95345759D01*
X43022500Y-94871243D02*
X43022500Y-95345759D01*
%TO.C,R2*%
X46237258Y-84186001D02*
X45762742Y-84186001D01*
X46237258Y-85231001D02*
X45762742Y-85231001D01*
%TO.C,R30*%
X61477500Y-80845759D02*
X61477500Y-80371243D01*
X62522500Y-80845759D02*
X62522500Y-80371243D01*
%TO.C,R22*%
X64477500Y-94871243D02*
X64477500Y-95345759D01*
X65522500Y-94871243D02*
X65522500Y-95345759D01*
%TO.C,R1*%
X46237258Y-82686001D02*
X45762742Y-82686001D01*
X46237258Y-83731001D02*
X45762742Y-83731001D01*
%TO.C,R24*%
X61477500Y-94871243D02*
X61477500Y-95345759D01*
X62522500Y-94871243D02*
X62522500Y-95345759D01*
%TO.C,R38*%
X55477500Y-80845759D02*
X55477500Y-80371243D01*
X56522500Y-80845759D02*
X56522500Y-80371243D01*
%TO.C,R4*%
X46237258Y-90186001D02*
X45762742Y-90186001D01*
X46237258Y-91231001D02*
X45762742Y-91231001D01*
%TO.C,C3*%
X49807836Y-82848501D02*
X49592164Y-82848501D01*
X49807836Y-83568501D02*
X49592164Y-83568501D01*
%TO.C,R37*%
X53977500Y-80845759D02*
X53977500Y-80371243D01*
X55022500Y-80845759D02*
X55022500Y-80371243D01*
%TO.C,R43*%
X42877500Y-80945759D02*
X42877500Y-80471243D01*
X43922500Y-80945759D02*
X43922500Y-80471243D01*
%TO.C,R13*%
X50977500Y-94871243D02*
X50977500Y-95345759D01*
X52022500Y-94871243D02*
X52022500Y-95345759D01*
%TO.C,C6*%
X47840000Y-89600665D02*
X47840000Y-89816337D01*
X48560000Y-89600665D02*
X48560000Y-89816337D01*
%TO.C,R18*%
X43477500Y-94871243D02*
X43477500Y-95345759D01*
X44522500Y-94871243D02*
X44522500Y-95345759D01*
%TO.C,R42*%
X40877500Y-80945759D02*
X40877500Y-80471243D01*
X41922500Y-80945759D02*
X41922500Y-80471243D01*
%TO.C,R33*%
X59662742Y-82686001D02*
X60137258Y-82686001D01*
X59662742Y-83731001D02*
X60137258Y-83731001D01*
%TO.C,R25*%
X59977500Y-94871243D02*
X59977500Y-95345759D01*
X61022500Y-94871243D02*
X61022500Y-95345759D01*
%TO.C,R20*%
X59662742Y-90186001D02*
X60137258Y-90186001D01*
X59662742Y-91231001D02*
X60137258Y-91231001D01*
%TO.C,R27*%
X56977500Y-94871243D02*
X56977500Y-95345759D01*
X58022500Y-94871243D02*
X58022500Y-95345759D01*
%TO.C,R9*%
X46237258Y-91686001D02*
X45762742Y-91686001D01*
X46237258Y-92731001D02*
X45762742Y-92731001D01*
%TO.C,R17*%
X44977500Y-94871243D02*
X44977500Y-95345759D01*
X46022500Y-94871243D02*
X46022500Y-95345759D01*
%TO.C,R34*%
X59662742Y-84186001D02*
X60137258Y-84186001D01*
X59662742Y-85231001D02*
X60137258Y-85231001D01*
%TO.C,R6*%
X46237258Y-87186001D02*
X45762742Y-87186001D01*
X46237258Y-88231001D02*
X45762742Y-88231001D01*
%TO.C,R21*%
X59662742Y-91686001D02*
X60137258Y-91686001D01*
X59662742Y-92731001D02*
X60137258Y-92731001D01*
%TO.C,R40*%
X52820000Y-80554860D02*
X52820000Y-80862142D01*
X53580000Y-80554860D02*
X53580000Y-80862142D01*
%TO.C,R28*%
X58477500Y-80845759D02*
X58477500Y-80371243D01*
X59522500Y-80845759D02*
X59522500Y-80371243D01*
D12*
%TO.C,CN6*%
X41210000Y-82526501D02*
X41210000Y-82526501D01*
X41210000Y-83696501D02*
X41210000Y-83726501D01*
X41210000Y-91996501D02*
X41210000Y-92026501D01*
X41210000Y-93196501D02*
X41210000Y-93196501D01*
X41210000Y-93196501D02*
X43490000Y-93196501D01*
X43490000Y-82526501D02*
X41210000Y-82526501D01*
X43490000Y-82526501D02*
X43490000Y-82526501D01*
X43490000Y-83726501D02*
X43490000Y-83696501D01*
X43490000Y-92026501D02*
X43490000Y-91996501D01*
X43490000Y-93196501D02*
X43490000Y-93196501D01*
X40430000Y-83026501D02*
G75*
G02*
X40210000Y-83026501I-110000J0D01*
G01*
X40210000Y-83026501D02*
G75*
G02*
X40430000Y-83026501I110000J0D01*
G01*
D11*
%TO.C,R20*%
X115662742Y-90186001D02*
X116137258Y-90186001D01*
X115662742Y-91231001D02*
X116137258Y-91231001D01*
%TO.C,R38*%
X111477500Y-80845759D02*
X111477500Y-80371243D01*
X112522500Y-80845759D02*
X112522500Y-80371243D01*
%TO.C,R4*%
X130237258Y-70186001D02*
X129762742Y-70186001D01*
X130237258Y-71231001D02*
X129762742Y-71231001D01*
%TO.C,R18*%
X99477500Y-74871243D02*
X99477500Y-75345759D01*
X100522500Y-74871243D02*
X100522500Y-75345759D01*
%TO.C,R34*%
X115662742Y-64186001D02*
X116137258Y-64186001D01*
X115662742Y-65231001D02*
X116137258Y-65231001D01*
%TO.C,R35*%
X143662742Y-65686001D02*
X144137258Y-65686001D01*
X143662742Y-66731001D02*
X144137258Y-66731001D01*
%TO.C,R34*%
X143662742Y-64186001D02*
X144137258Y-64186001D01*
X143662742Y-65231001D02*
X144137258Y-65231001D01*
%TO.C,R19*%
X115662742Y-68686001D02*
X116137258Y-68686001D01*
X115662742Y-69731001D02*
X116137258Y-69731001D01*
%TO.C,R30*%
X145477500Y-60845759D02*
X145477500Y-60371243D01*
X146522500Y-60845759D02*
X146522500Y-60371243D01*
%TO.C,R18*%
X71477500Y-74871243D02*
X71477500Y-75345759D01*
X72522500Y-74871243D02*
X72522500Y-75345759D01*
%TO.C,R39*%
X140977500Y-60845759D02*
X140977500Y-60371243D01*
X142022500Y-60845759D02*
X142022500Y-60371243D01*
%TO.C,C1*%
X135592164Y-61848501D02*
X135807836Y-61848501D01*
X135592164Y-62568501D02*
X135807836Y-62568501D01*
%TO.C,R32*%
X92477500Y-60845759D02*
X92477500Y-60371243D01*
X93522500Y-60845759D02*
X93522500Y-60371243D01*
%TO.C,R2*%
X74237258Y-64186001D02*
X73762742Y-64186001D01*
X74237258Y-65231001D02*
X73762742Y-65231001D01*
%TO.C,R10*%
X139477500Y-74871243D02*
X139477500Y-75345759D01*
X140522500Y-74871243D02*
X140522500Y-75345759D01*
%TO.C,R22*%
X148477500Y-74871243D02*
X148477500Y-75345759D01*
X149522500Y-74871243D02*
X149522500Y-75345759D01*
%TO.C,R8*%
X124477500Y-74871243D02*
X124477500Y-75345759D01*
X125522500Y-74871243D02*
X125522500Y-75345759D01*
%TO.C,R45*%
X130877500Y-60945759D02*
X130877500Y-60471243D01*
X131922500Y-60945759D02*
X131922500Y-60471243D01*
%TO.C,R6*%
X130237258Y-67186001D02*
X129762742Y-67186001D01*
X130237258Y-68231001D02*
X129762742Y-68231001D01*
%TO.C,C4*%
X133807836Y-61848501D02*
X133592164Y-61848501D01*
X133807836Y-62568501D02*
X133592164Y-62568501D01*
%TO.C,R39*%
X112977500Y-60845759D02*
X112977500Y-60371243D01*
X114022500Y-60845759D02*
X114022500Y-60371243D01*
%TO.C,R40*%
X136820000Y-60554860D02*
X136820000Y-60862142D01*
X137580000Y-60554860D02*
X137580000Y-60862142D01*
%TO.C,R12*%
X136477500Y-74871243D02*
X136477500Y-75345759D01*
X137522500Y-74871243D02*
X137522500Y-75345759D01*
%TO.C,R45*%
X102877500Y-60945759D02*
X102877500Y-60471243D01*
X103922500Y-60945759D02*
X103922500Y-60471243D01*
%TO.C,R25*%
X115977500Y-74871243D02*
X115977500Y-75345759D01*
X117022500Y-74871243D02*
X117022500Y-75345759D01*
%TO.C,R42*%
X124877500Y-60945759D02*
X124877500Y-60471243D01*
X125922500Y-60945759D02*
X125922500Y-60471243D01*
%TO.C,R8*%
X96477500Y-74871243D02*
X96477500Y-75345759D01*
X97522500Y-74871243D02*
X97522500Y-75345759D01*
%TO.C,R28*%
X142477500Y-60845759D02*
X142477500Y-60371243D01*
X143522500Y-60845759D02*
X143522500Y-60371243D01*
%TO.C,C7*%
X80840000Y-62816337D02*
X80840000Y-62600665D01*
X81560000Y-62816337D02*
X81560000Y-62600665D01*
%TO.C,R14*%
X105477500Y-74871243D02*
X105477500Y-75345759D01*
X106522500Y-74871243D02*
X106522500Y-75345759D01*
%TO.C,R27*%
X112977500Y-74871243D02*
X112977500Y-75345759D01*
X114022500Y-74871243D02*
X114022500Y-75345759D01*
%TO.C,R44*%
X100877500Y-60945759D02*
X100877500Y-60471243D01*
X101922500Y-60945759D02*
X101922500Y-60471243D01*
%TO.C,R29*%
X115977500Y-60845759D02*
X115977500Y-60371243D01*
X117022500Y-60845759D02*
X117022500Y-60371243D01*
D12*
%TO.C,CN6*%
X97210000Y-62526501D02*
X97210000Y-62526501D01*
X97210000Y-63696501D02*
X97210000Y-63726501D01*
X97210000Y-71996501D02*
X97210000Y-72026501D01*
X97210000Y-73196501D02*
X97210000Y-73196501D01*
X97210000Y-73196501D02*
X99490000Y-73196501D01*
X99490000Y-62526501D02*
X97210000Y-62526501D01*
X99490000Y-62526501D02*
X99490000Y-62526501D01*
X99490000Y-63726501D02*
X99490000Y-63696501D01*
X99490000Y-72026501D02*
X99490000Y-71996501D01*
X99490000Y-73196501D02*
X99490000Y-73196501D01*
X96430000Y-63026501D02*
G75*
G02*
X96210000Y-63026501I-110000J0D01*
G01*
X96210000Y-63026501D02*
G75*
G02*
X96430000Y-63026501I110000J0D01*
G01*
D11*
%TO.C,R6*%
X74237258Y-67186001D02*
X73762742Y-67186001D01*
X74237258Y-68231001D02*
X73762742Y-68231001D01*
%TO.C,R43*%
X98877500Y-60945759D02*
X98877500Y-60471243D01*
X99922500Y-60945759D02*
X99922500Y-60471243D01*
%TO.C,R9*%
X102237258Y-71686001D02*
X101762742Y-71686001D01*
X102237258Y-72731001D02*
X101762742Y-72731001D01*
%TO.C,R33*%
X87662742Y-62686001D02*
X88137258Y-62686001D01*
X87662742Y-63731001D02*
X88137258Y-63731001D01*
%TO.C,R6*%
X102237258Y-67186001D02*
X101762742Y-67186001D01*
X102237258Y-68231001D02*
X101762742Y-68231001D01*
D12*
%TO.C,U1*%
X133500000Y-64256501D02*
X133500000Y-64726501D01*
X133500000Y-70986501D02*
X133500000Y-71456501D01*
X133500000Y-71456501D02*
X133970000Y-71456501D01*
X133970000Y-64256501D02*
X133500000Y-64256501D01*
X140230000Y-71456501D02*
X140700000Y-71456501D01*
X140700000Y-64256501D02*
X140230000Y-64256501D01*
X140700000Y-64656501D02*
X140700000Y-64256501D01*
X140700000Y-64726501D02*
X140700000Y-64656501D01*
X140700000Y-71456501D02*
X140700000Y-70986501D01*
X140790000Y-63666501D02*
G75*
G02*
X140530000Y-63666501I-130000J0D01*
G01*
X140530000Y-63666501D02*
G75*
G02*
X140790000Y-63666501I130000J0D01*
G01*
%TO.C,CN5*%
X118410000Y-62526501D02*
X118410000Y-62526501D01*
X118410000Y-63696501D02*
X118410000Y-63726501D01*
X118410000Y-71996501D02*
X118410000Y-72026501D01*
X118410000Y-73196501D02*
X118410000Y-73196501D01*
X118410000Y-73196501D02*
X120690000Y-73196501D01*
X120690000Y-62526501D02*
X118410000Y-62526501D01*
X120690000Y-62526501D02*
X120690000Y-62526501D01*
X120690000Y-63726501D02*
X120690000Y-63696501D01*
X120690000Y-72026501D02*
X120690000Y-71996501D01*
X120690000Y-73196501D02*
X120690000Y-73196501D01*
X117630000Y-63026501D02*
G75*
G02*
X117410000Y-63026501I-110000J0D01*
G01*
X117410000Y-63026501D02*
G75*
G02*
X117630000Y-63026501I110000J0D01*
G01*
D11*
%TO.C,R43*%
X126877500Y-60945759D02*
X126877500Y-60471243D01*
X127922500Y-60945759D02*
X127922500Y-60471243D01*
%TO.C,R35*%
X115662742Y-65686001D02*
X116137258Y-65686001D01*
X115662742Y-66731001D02*
X116137258Y-66731001D01*
%TO.C,R31*%
X146977500Y-60845759D02*
X146977500Y-60371243D01*
X148022500Y-60845759D02*
X148022500Y-60371243D01*
%TO.C,C2*%
X79592164Y-62848501D02*
X79807836Y-62848501D01*
X79592164Y-63568501D02*
X79807836Y-63568501D01*
%TO.C,R36*%
X87662742Y-67186001D02*
X88137258Y-67186001D01*
X87662742Y-68231001D02*
X88137258Y-68231001D01*
%TO.C,R5*%
X74237258Y-68686001D02*
X73762742Y-68686001D01*
X74237258Y-69731001D02*
X73762742Y-69731001D01*
%TO.C,R37*%
X137977500Y-60845759D02*
X137977500Y-60371243D01*
X139022500Y-60845759D02*
X139022500Y-60371243D01*
%TO.C,C4*%
X77807836Y-61848501D02*
X77592164Y-61848501D01*
X77807836Y-62568501D02*
X77592164Y-62568501D01*
%TO.C,R20*%
X87662742Y-70186001D02*
X88137258Y-70186001D01*
X87662742Y-71231001D02*
X88137258Y-71231001D01*
%TO.C,R15*%
X75977500Y-74871243D02*
X75977500Y-75345759D01*
X77022500Y-74871243D02*
X77022500Y-75345759D01*
%TO.C,R40*%
X108820000Y-60554860D02*
X108820000Y-60862142D01*
X109580000Y-60554860D02*
X109580000Y-60862142D01*
%TO.C,R10*%
X83477500Y-74871243D02*
X83477500Y-75345759D01*
X84522500Y-74871243D02*
X84522500Y-75345759D01*
%TO.C,R11*%
X81977500Y-74871243D02*
X81977500Y-75345759D01*
X83022500Y-74871243D02*
X83022500Y-75345759D01*
%TO.C,R5*%
X130237258Y-68686001D02*
X129762742Y-68686001D01*
X130237258Y-69731001D02*
X129762742Y-69731001D01*
%TO.C,R30*%
X89477500Y-60845759D02*
X89477500Y-60371243D01*
X90522500Y-60845759D02*
X90522500Y-60371243D01*
%TO.C,R44*%
X72877500Y-60945759D02*
X72877500Y-60471243D01*
X73922500Y-60945759D02*
X73922500Y-60471243D01*
%TO.C,R1*%
X102237258Y-62686001D02*
X101762742Y-62686001D01*
X102237258Y-63731001D02*
X101762742Y-63731001D01*
%TO.C,R14*%
X133477500Y-74871243D02*
X133477500Y-75345759D01*
X134522500Y-74871243D02*
X134522500Y-75345759D01*
%TO.C,R37*%
X109977500Y-60845759D02*
X109977500Y-60371243D01*
X111022500Y-60845759D02*
X111022500Y-60371243D01*
%TO.C,C4*%
X105807836Y-61848501D02*
X105592164Y-61848501D01*
X105807836Y-62568501D02*
X105592164Y-62568501D01*
%TO.C,R9*%
X74237258Y-71686001D02*
X73762742Y-71686001D01*
X74237258Y-72731001D02*
X73762742Y-72731001D01*
%TO.C,R34*%
X87662742Y-64186001D02*
X88137258Y-64186001D01*
X87662742Y-65231001D02*
X88137258Y-65231001D01*
D12*
%TO.C,U1*%
X77500000Y-64256501D02*
X77500000Y-64726501D01*
X77500000Y-70986501D02*
X77500000Y-71456501D01*
X77500000Y-71456501D02*
X77970000Y-71456501D01*
X77970000Y-64256501D02*
X77500000Y-64256501D01*
X84230000Y-71456501D02*
X84700000Y-71456501D01*
X84700000Y-64256501D02*
X84230000Y-64256501D01*
X84700000Y-64656501D02*
X84700000Y-64256501D01*
X84700000Y-64726501D02*
X84700000Y-64656501D01*
X84700000Y-71456501D02*
X84700000Y-70986501D01*
X84790000Y-63666501D02*
G75*
G02*
X84530000Y-63666501I-130000J0D01*
G01*
X84530000Y-63666501D02*
G75*
G02*
X84790000Y-63666501I130000J0D01*
G01*
D11*
%TO.C,C5*%
X131840000Y-67816337D02*
X131840000Y-67600665D01*
X132560000Y-67816337D02*
X132560000Y-67600665D01*
%TO.C,R28*%
X86477500Y-60845759D02*
X86477500Y-60371243D01*
X87522500Y-60845759D02*
X87522500Y-60371243D01*
%TO.C,R15*%
X103977500Y-74871243D02*
X103977500Y-75345759D01*
X105022500Y-74871243D02*
X105022500Y-75345759D01*
%TO.C,R27*%
X140977500Y-74871243D02*
X140977500Y-75345759D01*
X142022500Y-74871243D02*
X142022500Y-75345759D01*
%TO.C,R29*%
X143977500Y-60845759D02*
X143977500Y-60371243D01*
X145022500Y-60845759D02*
X145022500Y-60371243D01*
%TO.C,R3*%
X102237258Y-65686001D02*
X101762742Y-65686001D01*
X102237258Y-66731001D02*
X101762742Y-66731001D01*
%TO.C,R7*%
X97977500Y-74871243D02*
X97977500Y-75345759D01*
X99022500Y-74871243D02*
X99022500Y-75345759D01*
%TO.C,R9*%
X130237258Y-71686001D02*
X129762742Y-71686001D01*
X130237258Y-72731001D02*
X129762742Y-72731001D01*
%TO.C,R25*%
X143977500Y-74871243D02*
X143977500Y-75345759D01*
X145022500Y-74871243D02*
X145022500Y-75345759D01*
%TO.C,R14*%
X77477500Y-74871243D02*
X77477500Y-75345759D01*
X78522500Y-74871243D02*
X78522500Y-75345759D01*
%TO.C,C7*%
X136840000Y-62816337D02*
X136840000Y-62600665D01*
X137560000Y-62816337D02*
X137560000Y-62600665D01*
%TO.C,R18*%
X127477500Y-74871243D02*
X127477500Y-75345759D01*
X128522500Y-74871243D02*
X128522500Y-75345759D01*
%TO.C,R33*%
X115662742Y-62686001D02*
X116137258Y-62686001D01*
X115662742Y-63731001D02*
X116137258Y-63731001D01*
%TO.C,C3*%
X133807836Y-62848501D02*
X133592164Y-62848501D01*
X133807836Y-63568501D02*
X133592164Y-63568501D01*
%TO.C,R23*%
X146977500Y-74871243D02*
X146977500Y-75345759D01*
X148022500Y-74871243D02*
X148022500Y-75345759D01*
%TO.C,R26*%
X114477500Y-74871243D02*
X114477500Y-75345759D01*
X115522500Y-74871243D02*
X115522500Y-75345759D01*
%TO.C,R24*%
X145477500Y-74871243D02*
X145477500Y-75345759D01*
X146522500Y-74871243D02*
X146522500Y-75345759D01*
%TO.C,R30*%
X117477500Y-60845759D02*
X117477500Y-60371243D01*
X118522500Y-60845759D02*
X118522500Y-60371243D01*
%TO.C,R23*%
X118977500Y-74871243D02*
X118977500Y-75345759D01*
X120022500Y-74871243D02*
X120022500Y-75345759D01*
%TO.C,C3*%
X105807836Y-62848501D02*
X105592164Y-62848501D01*
X105807836Y-63568501D02*
X105592164Y-63568501D01*
%TO.C,R42*%
X68877500Y-60945759D02*
X68877500Y-60471243D01*
X69922500Y-60945759D02*
X69922500Y-60471243D01*
%TO.C,C5*%
X103840000Y-67816337D02*
X103840000Y-67600665D01*
X104560000Y-67816337D02*
X104560000Y-67600665D01*
%TO.C,R26*%
X142477500Y-74871243D02*
X142477500Y-75345759D01*
X143522500Y-74871243D02*
X143522500Y-75345759D01*
%TO.C,R16*%
X130477500Y-74871243D02*
X130477500Y-75345759D01*
X131522500Y-74871243D02*
X131522500Y-75345759D01*
%TO.C,R31*%
X90977500Y-60845759D02*
X90977500Y-60371243D01*
X92022500Y-60845759D02*
X92022500Y-60371243D01*
%TO.C,R42*%
X96877500Y-60945759D02*
X96877500Y-60471243D01*
X97922500Y-60945759D02*
X97922500Y-60471243D01*
%TO.C,R39*%
X84977500Y-60845759D02*
X84977500Y-60371243D01*
X86022500Y-60845759D02*
X86022500Y-60371243D01*
%TO.C,R1*%
X74237258Y-62686001D02*
X73762742Y-62686001D01*
X74237258Y-63731001D02*
X73762742Y-63731001D01*
%TO.C,R7*%
X125977500Y-74871243D02*
X125977500Y-75345759D01*
X127022500Y-74871243D02*
X127022500Y-75345759D01*
%TO.C,R12*%
X80477500Y-74871243D02*
X80477500Y-75345759D01*
X81522500Y-74871243D02*
X81522500Y-75345759D01*
%TO.C,R11*%
X137977500Y-74871243D02*
X137977500Y-75345759D01*
X139022500Y-74871243D02*
X139022500Y-75345759D01*
%TO.C,R13*%
X134977500Y-74871243D02*
X134977500Y-75345759D01*
X136022500Y-74871243D02*
X136022500Y-75345759D01*
%TO.C,C5*%
X75840000Y-67816337D02*
X75840000Y-67600665D01*
X76560000Y-67816337D02*
X76560000Y-67600665D01*
%TO.C,R38*%
X139477500Y-60845759D02*
X139477500Y-60371243D01*
X140522500Y-60845759D02*
X140522500Y-60371243D01*
%TO.C,R41*%
X79853641Y-60828501D02*
X79546359Y-60828501D01*
X79853641Y-61588501D02*
X79546359Y-61588501D01*
%TO.C,C1*%
X107592164Y-61848501D02*
X107807836Y-61848501D01*
X107592164Y-62568501D02*
X107807836Y-62568501D01*
%TO.C,R24*%
X89477500Y-74871243D02*
X89477500Y-75345759D01*
X90522500Y-74871243D02*
X90522500Y-75345759D01*
%TO.C,R4*%
X74237258Y-70186001D02*
X73762742Y-70186001D01*
X74237258Y-71231001D02*
X73762742Y-71231001D01*
%TO.C,R38*%
X83477500Y-60845759D02*
X83477500Y-60371243D01*
X84522500Y-60845759D02*
X84522500Y-60371243D01*
%TO.C,R36*%
X115662742Y-67186001D02*
X116137258Y-67186001D01*
X115662742Y-68231001D02*
X116137258Y-68231001D01*
D12*
%TO.C,U1*%
X105500000Y-64256501D02*
X105500000Y-64726501D01*
X105500000Y-70986501D02*
X105500000Y-71456501D01*
X105500000Y-71456501D02*
X105970000Y-71456501D01*
X105970000Y-64256501D02*
X105500000Y-64256501D01*
X112230000Y-71456501D02*
X112700000Y-71456501D01*
X112700000Y-64256501D02*
X112230000Y-64256501D01*
X112700000Y-64656501D02*
X112700000Y-64256501D01*
X112700000Y-64726501D02*
X112700000Y-64656501D01*
X112700000Y-71456501D02*
X112700000Y-70986501D01*
X112790000Y-63666501D02*
G75*
G02*
X112530000Y-63666501I-130000J0D01*
G01*
X112530000Y-63666501D02*
G75*
G02*
X112790000Y-63666501I130000J0D01*
G01*
D11*
%TO.C,C6*%
X103840000Y-69600665D02*
X103840000Y-69816337D01*
X104560000Y-69600665D02*
X104560000Y-69816337D01*
%TO.C,C1*%
X79592164Y-61848501D02*
X79807836Y-61848501D01*
X79592164Y-62568501D02*
X79807836Y-62568501D01*
%TO.C,C2*%
X107592164Y-62848501D02*
X107807836Y-62848501D01*
X107592164Y-63568501D02*
X107807836Y-63568501D01*
%TO.C,R37*%
X81977500Y-60845759D02*
X81977500Y-60371243D01*
X83022500Y-60845759D02*
X83022500Y-60371243D01*
%TO.C,R44*%
X128877500Y-60945759D02*
X128877500Y-60471243D01*
X129922500Y-60945759D02*
X129922500Y-60471243D01*
%TO.C,R32*%
X148477500Y-60845759D02*
X148477500Y-60371243D01*
X149522500Y-60845759D02*
X149522500Y-60371243D01*
%TO.C,C3*%
X77807836Y-62848501D02*
X77592164Y-62848501D01*
X77807836Y-63568501D02*
X77592164Y-63568501D01*
%TO.C,R19*%
X143662742Y-68686001D02*
X144137258Y-68686001D01*
X143662742Y-69731001D02*
X144137258Y-69731001D01*
%TO.C,R3*%
X130237258Y-65686001D02*
X129762742Y-65686001D01*
X130237258Y-66731001D02*
X129762742Y-66731001D01*
%TO.C,R24*%
X117477500Y-74871243D02*
X117477500Y-75345759D01*
X118522500Y-74871243D02*
X118522500Y-75345759D01*
%TO.C,R7*%
X69977500Y-74871243D02*
X69977500Y-75345759D01*
X71022500Y-74871243D02*
X71022500Y-75345759D01*
%TO.C,R27*%
X84977500Y-74871243D02*
X84977500Y-75345759D01*
X86022500Y-74871243D02*
X86022500Y-75345759D01*
%TO.C,R15*%
X131977500Y-74871243D02*
X131977500Y-75345759D01*
X133022500Y-74871243D02*
X133022500Y-75345759D01*
%TO.C,R17*%
X100977500Y-74871243D02*
X100977500Y-75345759D01*
X102022500Y-74871243D02*
X102022500Y-75345759D01*
%TO.C,R16*%
X74477500Y-74871243D02*
X74477500Y-75345759D01*
X75522500Y-74871243D02*
X75522500Y-75345759D01*
%TO.C,R2*%
X130237258Y-64186001D02*
X129762742Y-64186001D01*
X130237258Y-65231001D02*
X129762742Y-65231001D01*
%TO.C,R41*%
X135853641Y-60828501D02*
X135546359Y-60828501D01*
X135853641Y-61588501D02*
X135546359Y-61588501D01*
%TO.C,R21*%
X143662742Y-71686001D02*
X144137258Y-71686001D01*
X143662742Y-72731001D02*
X144137258Y-72731001D01*
D12*
%TO.C,CN6*%
X125210000Y-62526501D02*
X125210000Y-62526501D01*
X125210000Y-63696501D02*
X125210000Y-63726501D01*
X125210000Y-71996501D02*
X125210000Y-72026501D01*
X125210000Y-73196501D02*
X125210000Y-73196501D01*
X125210000Y-73196501D02*
X127490000Y-73196501D01*
X127490000Y-62526501D02*
X125210000Y-62526501D01*
X127490000Y-62526501D02*
X127490000Y-62526501D01*
X127490000Y-63726501D02*
X127490000Y-63696501D01*
X127490000Y-72026501D02*
X127490000Y-71996501D01*
X127490000Y-73196501D02*
X127490000Y-73196501D01*
X124430000Y-63026501D02*
G75*
G02*
X124210000Y-63026501I-110000J0D01*
G01*
X124210000Y-63026501D02*
G75*
G02*
X124430000Y-63026501I110000J0D01*
G01*
D11*
%TO.C,R45*%
X74877500Y-60945759D02*
X74877500Y-60471243D01*
X75922500Y-60945759D02*
X75922500Y-60471243D01*
%TO.C,R29*%
X87977500Y-60845759D02*
X87977500Y-60371243D01*
X89022500Y-60845759D02*
X89022500Y-60371243D01*
%TO.C,R3*%
X74237258Y-65686001D02*
X73762742Y-65686001D01*
X74237258Y-66731001D02*
X73762742Y-66731001D01*
%TO.C,R5*%
X102237258Y-68686001D02*
X101762742Y-68686001D01*
X102237258Y-69731001D02*
X101762742Y-69731001D01*
%TO.C,R28*%
X114477500Y-60845759D02*
X114477500Y-60371243D01*
X115522500Y-60845759D02*
X115522500Y-60371243D01*
%TO.C,R21*%
X115662742Y-71686001D02*
X116137258Y-71686001D01*
X115662742Y-72731001D02*
X116137258Y-72731001D01*
%TO.C,R35*%
X87662742Y-65686001D02*
X88137258Y-65686001D01*
X87662742Y-66731001D02*
X88137258Y-66731001D01*
%TO.C,R22*%
X120477500Y-74871243D02*
X120477500Y-75345759D01*
X121522500Y-74871243D02*
X121522500Y-75345759D01*
%TO.C,R25*%
X87977500Y-74871243D02*
X87977500Y-75345759D01*
X89022500Y-74871243D02*
X89022500Y-75345759D01*
%TO.C,R21*%
X87662742Y-71686001D02*
X88137258Y-71686001D01*
X87662742Y-72731001D02*
X88137258Y-72731001D01*
%TO.C,R43*%
X70877500Y-60945759D02*
X70877500Y-60471243D01*
X71922500Y-60945759D02*
X71922500Y-60471243D01*
%TO.C,R12*%
X108477500Y-74871243D02*
X108477500Y-75345759D01*
X109522500Y-74871243D02*
X109522500Y-75345759D01*
%TO.C,C2*%
X135592164Y-62848501D02*
X135807836Y-62848501D01*
X135592164Y-63568501D02*
X135807836Y-63568501D01*
D12*
%TO.C,CN6*%
X69210000Y-62526501D02*
X69210000Y-62526501D01*
X69210000Y-63696501D02*
X69210000Y-63726501D01*
X69210000Y-71996501D02*
X69210000Y-72026501D01*
X69210000Y-73196501D02*
X69210000Y-73196501D01*
X69210000Y-73196501D02*
X71490000Y-73196501D01*
X71490000Y-62526501D02*
X69210000Y-62526501D01*
X71490000Y-62526501D02*
X71490000Y-62526501D01*
X71490000Y-63726501D02*
X71490000Y-63696501D01*
X71490000Y-72026501D02*
X71490000Y-71996501D01*
X71490000Y-73196501D02*
X71490000Y-73196501D01*
X68430000Y-63026501D02*
G75*
G02*
X68210000Y-63026501I-110000J0D01*
G01*
X68210000Y-63026501D02*
G75*
G02*
X68430000Y-63026501I110000J0D01*
G01*
D11*
%TO.C,R41*%
X107853641Y-60828501D02*
X107546359Y-60828501D01*
X107853641Y-61588501D02*
X107546359Y-61588501D01*
%TO.C,C6*%
X131840000Y-69600665D02*
X131840000Y-69816337D01*
X132560000Y-69600665D02*
X132560000Y-69816337D01*
%TO.C,R17*%
X128977500Y-74871243D02*
X128977500Y-75345759D01*
X130022500Y-74871243D02*
X130022500Y-75345759D01*
%TO.C,R1*%
X130237258Y-62686001D02*
X129762742Y-62686001D01*
X130237258Y-63731001D02*
X129762742Y-63731001D01*
%TO.C,R11*%
X109977500Y-74871243D02*
X109977500Y-75345759D01*
X111022500Y-74871243D02*
X111022500Y-75345759D01*
%TO.C,R22*%
X92477500Y-74871243D02*
X92477500Y-75345759D01*
X93522500Y-74871243D02*
X93522500Y-75345759D01*
%TO.C,R10*%
X111477500Y-74871243D02*
X111477500Y-75345759D01*
X112522500Y-74871243D02*
X112522500Y-75345759D01*
%TO.C,R16*%
X102477500Y-74871243D02*
X102477500Y-75345759D01*
X103522500Y-74871243D02*
X103522500Y-75345759D01*
%TO.C,R20*%
X143662742Y-70186001D02*
X144137258Y-70186001D01*
X143662742Y-71231001D02*
X144137258Y-71231001D01*
%TO.C,R26*%
X86477500Y-74871243D02*
X86477500Y-75345759D01*
X87522500Y-74871243D02*
X87522500Y-75345759D01*
%TO.C,R40*%
X80820000Y-60554860D02*
X80820000Y-60862142D01*
X81580000Y-60554860D02*
X81580000Y-60862142D01*
%TO.C,R4*%
X102237258Y-70186001D02*
X101762742Y-70186001D01*
X102237258Y-71231001D02*
X101762742Y-71231001D01*
%TO.C,R32*%
X120477500Y-60845759D02*
X120477500Y-60371243D01*
X121522500Y-60845759D02*
X121522500Y-60371243D01*
%TO.C,R2*%
X102237258Y-64186001D02*
X101762742Y-64186001D01*
X102237258Y-65231001D02*
X101762742Y-65231001D01*
%TO.C,R17*%
X72977500Y-74871243D02*
X72977500Y-75345759D01*
X74022500Y-74871243D02*
X74022500Y-75345759D01*
%TO.C,R33*%
X143662742Y-62686001D02*
X144137258Y-62686001D01*
X143662742Y-63731001D02*
X144137258Y-63731001D01*
%TO.C,R23*%
X90977500Y-74871243D02*
X90977500Y-75345759D01*
X92022500Y-74871243D02*
X92022500Y-75345759D01*
D12*
%TO.C,CN5*%
X90410000Y-62526501D02*
X90410000Y-62526501D01*
X90410000Y-63696501D02*
X90410000Y-63726501D01*
X90410000Y-71996501D02*
X90410000Y-72026501D01*
X90410000Y-73196501D02*
X90410000Y-73196501D01*
X90410000Y-73196501D02*
X92690000Y-73196501D01*
X92690000Y-62526501D02*
X90410000Y-62526501D01*
X92690000Y-62526501D02*
X92690000Y-62526501D01*
X92690000Y-63726501D02*
X92690000Y-63696501D01*
X92690000Y-72026501D02*
X92690000Y-71996501D01*
X92690000Y-73196501D02*
X92690000Y-73196501D01*
X89630000Y-63026501D02*
G75*
G02*
X89410000Y-63026501I-110000J0D01*
G01*
X89410000Y-63026501D02*
G75*
G02*
X89630000Y-63026501I110000J0D01*
G01*
D11*
%TO.C,R36*%
X143662742Y-67186001D02*
X144137258Y-67186001D01*
X143662742Y-68231001D02*
X144137258Y-68231001D01*
%TO.C,R13*%
X78977500Y-74871243D02*
X78977500Y-75345759D01*
X80022500Y-74871243D02*
X80022500Y-75345759D01*
%TO.C,R19*%
X87662742Y-68686001D02*
X88137258Y-68686001D01*
X87662742Y-69731001D02*
X88137258Y-69731001D01*
D12*
%TO.C,CN5*%
X146410000Y-62526501D02*
X146410000Y-62526501D01*
X146410000Y-63696501D02*
X146410000Y-63726501D01*
X146410000Y-71996501D02*
X146410000Y-72026501D01*
X146410000Y-73196501D02*
X146410000Y-73196501D01*
X146410000Y-73196501D02*
X148690000Y-73196501D01*
X148690000Y-62526501D02*
X146410000Y-62526501D01*
X148690000Y-62526501D02*
X148690000Y-62526501D01*
X148690000Y-63726501D02*
X148690000Y-63696501D01*
X148690000Y-72026501D02*
X148690000Y-71996501D01*
X148690000Y-73196501D02*
X148690000Y-73196501D01*
X145630000Y-63026501D02*
G75*
G02*
X145410000Y-63026501I-110000J0D01*
G01*
X145410000Y-63026501D02*
G75*
G02*
X145630000Y-63026501I110000J0D01*
G01*
D11*
%TO.C,R13*%
X106977500Y-74871243D02*
X106977500Y-75345759D01*
X108022500Y-74871243D02*
X108022500Y-75345759D01*
%TO.C,C7*%
X108840000Y-62816337D02*
X108840000Y-62600665D01*
X109560000Y-62816337D02*
X109560000Y-62600665D01*
%TO.C,R31*%
X118977500Y-60845759D02*
X118977500Y-60371243D01*
X120022500Y-60845759D02*
X120022500Y-60371243D01*
%TO.C,C6*%
X75840000Y-69600665D02*
X75840000Y-69816337D01*
X76560000Y-69600665D02*
X76560000Y-69816337D01*
%TO.C,R8*%
X68477500Y-74871243D02*
X68477500Y-75345759D01*
X69522500Y-74871243D02*
X69522500Y-75345759D01*
%TO.C,R45*%
X46877500Y-60945759D02*
X46877500Y-60471243D01*
X47922500Y-60945759D02*
X47922500Y-60471243D01*
%TO.C,R8*%
X40477500Y-74871243D02*
X40477500Y-75345759D01*
X41522500Y-74871243D02*
X41522500Y-75345759D01*
%TO.C,R15*%
X47977500Y-74871243D02*
X47977500Y-75345759D01*
X49022500Y-74871243D02*
X49022500Y-75345759D01*
%TO.C,R31*%
X62977500Y-60845759D02*
X62977500Y-60371243D01*
X64022500Y-60845759D02*
X64022500Y-60371243D01*
%TO.C,R26*%
X58477500Y-74871243D02*
X58477500Y-75345759D01*
X59522500Y-74871243D02*
X59522500Y-75345759D01*
%TO.C,R32*%
X64477500Y-60845759D02*
X64477500Y-60371243D01*
X65522500Y-60845759D02*
X65522500Y-60371243D01*
%TO.C,R36*%
X59662742Y-67186001D02*
X60137258Y-67186001D01*
X59662742Y-68231001D02*
X60137258Y-68231001D01*
%TO.C,R16*%
X46477500Y-74871243D02*
X46477500Y-75345759D01*
X47522500Y-74871243D02*
X47522500Y-75345759D01*
%TO.C,C4*%
X49807836Y-61848501D02*
X49592164Y-61848501D01*
X49807836Y-62568501D02*
X49592164Y-62568501D01*
%TO.C,R44*%
X44877500Y-60945759D02*
X44877500Y-60471243D01*
X45922500Y-60945759D02*
X45922500Y-60471243D01*
%TO.C,C5*%
X47840000Y-67816337D02*
X47840000Y-67600665D01*
X48560000Y-67816337D02*
X48560000Y-67600665D01*
%TO.C,R39*%
X56977500Y-60845759D02*
X56977500Y-60371243D01*
X58022500Y-60845759D02*
X58022500Y-60371243D01*
%TO.C,C7*%
X52840000Y-62816337D02*
X52840000Y-62600665D01*
X53560000Y-62816337D02*
X53560000Y-62600665D01*
%TO.C,R12*%
X52477500Y-74871243D02*
X52477500Y-75345759D01*
X53522500Y-74871243D02*
X53522500Y-75345759D01*
%TO.C,R11*%
X53977500Y-74871243D02*
X53977500Y-75345759D01*
X55022500Y-74871243D02*
X55022500Y-75345759D01*
%TO.C,R10*%
X55477500Y-74871243D02*
X55477500Y-75345759D01*
X56522500Y-74871243D02*
X56522500Y-75345759D01*
%TO.C,R23*%
X62977500Y-74871243D02*
X62977500Y-75345759D01*
X64022500Y-74871243D02*
X64022500Y-75345759D01*
%TO.C,R41*%
X51853641Y-60828501D02*
X51546359Y-60828501D01*
X51853641Y-61588501D02*
X51546359Y-61588501D01*
%TO.C,R29*%
X59977500Y-60845759D02*
X59977500Y-60371243D01*
X61022500Y-60845759D02*
X61022500Y-60371243D01*
%TO.C,R3*%
X46237258Y-65686001D02*
X45762742Y-65686001D01*
X46237258Y-66731001D02*
X45762742Y-66731001D01*
%TO.C,R5*%
X46237258Y-68686001D02*
X45762742Y-68686001D01*
X46237258Y-69731001D02*
X45762742Y-69731001D01*
%TO.C,R19*%
X59662742Y-68686001D02*
X60137258Y-68686001D01*
X59662742Y-69731001D02*
X60137258Y-69731001D01*
%TO.C,C1*%
X51592164Y-61848501D02*
X51807836Y-61848501D01*
X51592164Y-62568501D02*
X51807836Y-62568501D01*
%TO.C,R14*%
X49477500Y-74871243D02*
X49477500Y-75345759D01*
X50522500Y-74871243D02*
X50522500Y-75345759D01*
%TO.C,C2*%
X51592164Y-62848501D02*
X51807836Y-62848501D01*
X51592164Y-63568501D02*
X51807836Y-63568501D01*
D12*
%TO.C,CN5*%
X62410000Y-62526501D02*
X62410000Y-62526501D01*
X62410000Y-63696501D02*
X62410000Y-63726501D01*
X62410000Y-71996501D02*
X62410000Y-72026501D01*
X62410000Y-73196501D02*
X62410000Y-73196501D01*
X62410000Y-73196501D02*
X64690000Y-73196501D01*
X64690000Y-62526501D02*
X62410000Y-62526501D01*
X64690000Y-62526501D02*
X64690000Y-62526501D01*
X64690000Y-63726501D02*
X64690000Y-63696501D01*
X64690000Y-72026501D02*
X64690000Y-71996501D01*
X64690000Y-73196501D02*
X64690000Y-73196501D01*
X61630000Y-63026501D02*
G75*
G02*
X61410000Y-63026501I-110000J0D01*
G01*
X61410000Y-63026501D02*
G75*
G02*
X61630000Y-63026501I110000J0D01*
G01*
D11*
%TO.C,R35*%
X59662742Y-65686001D02*
X60137258Y-65686001D01*
X59662742Y-66731001D02*
X60137258Y-66731001D01*
D12*
%TO.C,U1*%
X49500000Y-64256501D02*
X49500000Y-64726501D01*
X49500000Y-70986501D02*
X49500000Y-71456501D01*
X49500000Y-71456501D02*
X49970000Y-71456501D01*
X49970000Y-64256501D02*
X49500000Y-64256501D01*
X56230000Y-71456501D02*
X56700000Y-71456501D01*
X56700000Y-64256501D02*
X56230000Y-64256501D01*
X56700000Y-64656501D02*
X56700000Y-64256501D01*
X56700000Y-64726501D02*
X56700000Y-64656501D01*
X56700000Y-71456501D02*
X56700000Y-70986501D01*
X56790000Y-63666501D02*
G75*
G02*
X56530000Y-63666501I-130000J0D01*
G01*
X56530000Y-63666501D02*
G75*
G02*
X56790000Y-63666501I130000J0D01*
G01*
D11*
%TO.C,R7*%
X41977500Y-74871243D02*
X41977500Y-75345759D01*
X43022500Y-74871243D02*
X43022500Y-75345759D01*
%TO.C,R2*%
X46237258Y-64186001D02*
X45762742Y-64186001D01*
X46237258Y-65231001D02*
X45762742Y-65231001D01*
%TO.C,R30*%
X61477500Y-60845759D02*
X61477500Y-60371243D01*
X62522500Y-60845759D02*
X62522500Y-60371243D01*
%TO.C,R22*%
X64477500Y-74871243D02*
X64477500Y-75345759D01*
X65522500Y-74871243D02*
X65522500Y-75345759D01*
%TO.C,R1*%
X46237258Y-62686001D02*
X45762742Y-62686001D01*
X46237258Y-63731001D02*
X45762742Y-63731001D01*
%TO.C,R24*%
X61477500Y-74871243D02*
X61477500Y-75345759D01*
X62522500Y-74871243D02*
X62522500Y-75345759D01*
%TO.C,R38*%
X55477500Y-60845759D02*
X55477500Y-60371243D01*
X56522500Y-60845759D02*
X56522500Y-60371243D01*
%TO.C,R4*%
X46237258Y-70186001D02*
X45762742Y-70186001D01*
X46237258Y-71231001D02*
X45762742Y-71231001D01*
%TO.C,C3*%
X49807836Y-62848501D02*
X49592164Y-62848501D01*
X49807836Y-63568501D02*
X49592164Y-63568501D01*
%TO.C,R37*%
X53977500Y-60845759D02*
X53977500Y-60371243D01*
X55022500Y-60845759D02*
X55022500Y-60371243D01*
%TO.C,R43*%
X42877500Y-60945759D02*
X42877500Y-60471243D01*
X43922500Y-60945759D02*
X43922500Y-60471243D01*
%TO.C,R13*%
X50977500Y-74871243D02*
X50977500Y-75345759D01*
X52022500Y-74871243D02*
X52022500Y-75345759D01*
%TO.C,C6*%
X47840000Y-69600665D02*
X47840000Y-69816337D01*
X48560000Y-69600665D02*
X48560000Y-69816337D01*
%TO.C,R18*%
X43477500Y-74871243D02*
X43477500Y-75345759D01*
X44522500Y-74871243D02*
X44522500Y-75345759D01*
%TO.C,R42*%
X40877500Y-60945759D02*
X40877500Y-60471243D01*
X41922500Y-60945759D02*
X41922500Y-60471243D01*
%TO.C,R33*%
X59662742Y-62686001D02*
X60137258Y-62686001D01*
X59662742Y-63731001D02*
X60137258Y-63731001D01*
%TO.C,R25*%
X59977500Y-74871243D02*
X59977500Y-75345759D01*
X61022500Y-74871243D02*
X61022500Y-75345759D01*
%TO.C,R20*%
X59662742Y-70186001D02*
X60137258Y-70186001D01*
X59662742Y-71231001D02*
X60137258Y-71231001D01*
%TO.C,R27*%
X56977500Y-74871243D02*
X56977500Y-75345759D01*
X58022500Y-74871243D02*
X58022500Y-75345759D01*
%TO.C,R9*%
X46237258Y-71686001D02*
X45762742Y-71686001D01*
X46237258Y-72731001D02*
X45762742Y-72731001D01*
%TO.C,R17*%
X44977500Y-74871243D02*
X44977500Y-75345759D01*
X46022500Y-74871243D02*
X46022500Y-75345759D01*
%TO.C,R34*%
X59662742Y-64186001D02*
X60137258Y-64186001D01*
X59662742Y-65231001D02*
X60137258Y-65231001D01*
%TO.C,R6*%
X46237258Y-67186001D02*
X45762742Y-67186001D01*
X46237258Y-68231001D02*
X45762742Y-68231001D01*
%TO.C,R21*%
X59662742Y-71686001D02*
X60137258Y-71686001D01*
X59662742Y-72731001D02*
X60137258Y-72731001D01*
%TO.C,R40*%
X52820000Y-60554860D02*
X52820000Y-60862142D01*
X53580000Y-60554860D02*
X53580000Y-60862142D01*
%TO.C,R28*%
X58477500Y-60845759D02*
X58477500Y-60371243D01*
X59522500Y-60845759D02*
X59522500Y-60371243D01*
D12*
%TO.C,CN6*%
X41210000Y-62526501D02*
X41210000Y-62526501D01*
X41210000Y-63696501D02*
X41210000Y-63726501D01*
X41210000Y-71996501D02*
X41210000Y-72026501D01*
X41210000Y-73196501D02*
X41210000Y-73196501D01*
X41210000Y-73196501D02*
X43490000Y-73196501D01*
X43490000Y-62526501D02*
X41210000Y-62526501D01*
X43490000Y-62526501D02*
X43490000Y-62526501D01*
X43490000Y-63726501D02*
X43490000Y-63696501D01*
X43490000Y-72026501D02*
X43490000Y-71996501D01*
X43490000Y-73196501D02*
X43490000Y-73196501D01*
X40430000Y-63026501D02*
G75*
G02*
X40210000Y-63026501I-110000J0D01*
G01*
X40210000Y-63026501D02*
G75*
G02*
X40430000Y-63026501I110000J0D01*
G01*
D11*
%TO.C,R20*%
X115662742Y-70186001D02*
X116137258Y-70186001D01*
X115662742Y-71231001D02*
X116137258Y-71231001D01*
%TO.C,R38*%
X111477500Y-60845759D02*
X111477500Y-60371243D01*
X112522500Y-60845759D02*
X112522500Y-60371243D01*
%TO.C,R4*%
X130237258Y-50186001D02*
X129762742Y-50186001D01*
X130237258Y-51231001D02*
X129762742Y-51231001D01*
%TO.C,R18*%
X99477500Y-54871243D02*
X99477500Y-55345759D01*
X100522500Y-54871243D02*
X100522500Y-55345759D01*
%TO.C,R34*%
X115662742Y-44186001D02*
X116137258Y-44186001D01*
X115662742Y-45231001D02*
X116137258Y-45231001D01*
%TO.C,R35*%
X143662742Y-45686001D02*
X144137258Y-45686001D01*
X143662742Y-46731001D02*
X144137258Y-46731001D01*
%TO.C,R34*%
X143662742Y-44186001D02*
X144137258Y-44186001D01*
X143662742Y-45231001D02*
X144137258Y-45231001D01*
%TO.C,R19*%
X115662742Y-48686001D02*
X116137258Y-48686001D01*
X115662742Y-49731001D02*
X116137258Y-49731001D01*
%TO.C,R30*%
X145477500Y-40845759D02*
X145477500Y-40371243D01*
X146522500Y-40845759D02*
X146522500Y-40371243D01*
%TO.C,R18*%
X71477500Y-54871243D02*
X71477500Y-55345759D01*
X72522500Y-54871243D02*
X72522500Y-55345759D01*
%TO.C,R39*%
X140977500Y-40845759D02*
X140977500Y-40371243D01*
X142022500Y-40845759D02*
X142022500Y-40371243D01*
%TO.C,C1*%
X135592164Y-41848501D02*
X135807836Y-41848501D01*
X135592164Y-42568501D02*
X135807836Y-42568501D01*
%TO.C,R32*%
X92477500Y-40845759D02*
X92477500Y-40371243D01*
X93522500Y-40845759D02*
X93522500Y-40371243D01*
%TO.C,R2*%
X74237258Y-44186001D02*
X73762742Y-44186001D01*
X74237258Y-45231001D02*
X73762742Y-45231001D01*
%TO.C,R10*%
X139477500Y-54871243D02*
X139477500Y-55345759D01*
X140522500Y-54871243D02*
X140522500Y-55345759D01*
%TO.C,R22*%
X148477500Y-54871243D02*
X148477500Y-55345759D01*
X149522500Y-54871243D02*
X149522500Y-55345759D01*
%TO.C,R8*%
X124477500Y-54871243D02*
X124477500Y-55345759D01*
X125522500Y-54871243D02*
X125522500Y-55345759D01*
%TO.C,R45*%
X130877500Y-40945759D02*
X130877500Y-40471243D01*
X131922500Y-40945759D02*
X131922500Y-40471243D01*
%TO.C,R6*%
X130237258Y-47186001D02*
X129762742Y-47186001D01*
X130237258Y-48231001D02*
X129762742Y-48231001D01*
%TO.C,C4*%
X133807836Y-41848501D02*
X133592164Y-41848501D01*
X133807836Y-42568501D02*
X133592164Y-42568501D01*
%TO.C,R39*%
X112977500Y-40845759D02*
X112977500Y-40371243D01*
X114022500Y-40845759D02*
X114022500Y-40371243D01*
%TO.C,R40*%
X136820000Y-40554860D02*
X136820000Y-40862142D01*
X137580000Y-40554860D02*
X137580000Y-40862142D01*
%TO.C,R12*%
X136477500Y-54871243D02*
X136477500Y-55345759D01*
X137522500Y-54871243D02*
X137522500Y-55345759D01*
%TO.C,R45*%
X102877500Y-40945759D02*
X102877500Y-40471243D01*
X103922500Y-40945759D02*
X103922500Y-40471243D01*
%TO.C,R25*%
X115977500Y-54871243D02*
X115977500Y-55345759D01*
X117022500Y-54871243D02*
X117022500Y-55345759D01*
%TO.C,R42*%
X124877500Y-40945759D02*
X124877500Y-40471243D01*
X125922500Y-40945759D02*
X125922500Y-40471243D01*
%TO.C,R8*%
X96477500Y-54871243D02*
X96477500Y-55345759D01*
X97522500Y-54871243D02*
X97522500Y-55345759D01*
%TO.C,R28*%
X142477500Y-40845759D02*
X142477500Y-40371243D01*
X143522500Y-40845759D02*
X143522500Y-40371243D01*
%TO.C,C7*%
X80840000Y-42816337D02*
X80840000Y-42600665D01*
X81560000Y-42816337D02*
X81560000Y-42600665D01*
%TO.C,R14*%
X105477500Y-54871243D02*
X105477500Y-55345759D01*
X106522500Y-54871243D02*
X106522500Y-55345759D01*
%TO.C,R27*%
X112977500Y-54871243D02*
X112977500Y-55345759D01*
X114022500Y-54871243D02*
X114022500Y-55345759D01*
%TO.C,R44*%
X100877500Y-40945759D02*
X100877500Y-40471243D01*
X101922500Y-40945759D02*
X101922500Y-40471243D01*
%TO.C,R29*%
X115977500Y-40845759D02*
X115977500Y-40371243D01*
X117022500Y-40845759D02*
X117022500Y-40371243D01*
D12*
%TO.C,CN6*%
X97210000Y-42526501D02*
X97210000Y-42526501D01*
X97210000Y-43696501D02*
X97210000Y-43726501D01*
X97210000Y-51996501D02*
X97210000Y-52026501D01*
X97210000Y-53196501D02*
X97210000Y-53196501D01*
X97210000Y-53196501D02*
X99490000Y-53196501D01*
X99490000Y-42526501D02*
X97210000Y-42526501D01*
X99490000Y-42526501D02*
X99490000Y-42526501D01*
X99490000Y-43726501D02*
X99490000Y-43696501D01*
X99490000Y-52026501D02*
X99490000Y-51996501D01*
X99490000Y-53196501D02*
X99490000Y-53196501D01*
X96430000Y-43026501D02*
G75*
G02*
X96210000Y-43026501I-110000J0D01*
G01*
X96210000Y-43026501D02*
G75*
G02*
X96430000Y-43026501I110000J0D01*
G01*
D11*
%TO.C,R6*%
X74237258Y-47186001D02*
X73762742Y-47186001D01*
X74237258Y-48231001D02*
X73762742Y-48231001D01*
%TO.C,R43*%
X98877500Y-40945759D02*
X98877500Y-40471243D01*
X99922500Y-40945759D02*
X99922500Y-40471243D01*
%TO.C,R9*%
X102237258Y-51686001D02*
X101762742Y-51686001D01*
X102237258Y-52731001D02*
X101762742Y-52731001D01*
%TO.C,R33*%
X87662742Y-42686001D02*
X88137258Y-42686001D01*
X87662742Y-43731001D02*
X88137258Y-43731001D01*
%TO.C,R6*%
X102237258Y-47186001D02*
X101762742Y-47186001D01*
X102237258Y-48231001D02*
X101762742Y-48231001D01*
D12*
%TO.C,U1*%
X133500000Y-44256501D02*
X133500000Y-44726501D01*
X133500000Y-50986501D02*
X133500000Y-51456501D01*
X133500000Y-51456501D02*
X133970000Y-51456501D01*
X133970000Y-44256501D02*
X133500000Y-44256501D01*
X140230000Y-51456501D02*
X140700000Y-51456501D01*
X140700000Y-44256501D02*
X140230000Y-44256501D01*
X140700000Y-44656501D02*
X140700000Y-44256501D01*
X140700000Y-44726501D02*
X140700000Y-44656501D01*
X140700000Y-51456501D02*
X140700000Y-50986501D01*
X140790000Y-43666501D02*
G75*
G02*
X140530000Y-43666501I-130000J0D01*
G01*
X140530000Y-43666501D02*
G75*
G02*
X140790000Y-43666501I130000J0D01*
G01*
%TO.C,CN5*%
X118410000Y-42526501D02*
X118410000Y-42526501D01*
X118410000Y-43696501D02*
X118410000Y-43726501D01*
X118410000Y-51996501D02*
X118410000Y-52026501D01*
X118410000Y-53196501D02*
X118410000Y-53196501D01*
X118410000Y-53196501D02*
X120690000Y-53196501D01*
X120690000Y-42526501D02*
X118410000Y-42526501D01*
X120690000Y-42526501D02*
X120690000Y-42526501D01*
X120690000Y-43726501D02*
X120690000Y-43696501D01*
X120690000Y-52026501D02*
X120690000Y-51996501D01*
X120690000Y-53196501D02*
X120690000Y-53196501D01*
X117630000Y-43026501D02*
G75*
G02*
X117410000Y-43026501I-110000J0D01*
G01*
X117410000Y-43026501D02*
G75*
G02*
X117630000Y-43026501I110000J0D01*
G01*
D11*
%TO.C,R43*%
X126877500Y-40945759D02*
X126877500Y-40471243D01*
X127922500Y-40945759D02*
X127922500Y-40471243D01*
%TO.C,R35*%
X115662742Y-45686001D02*
X116137258Y-45686001D01*
X115662742Y-46731001D02*
X116137258Y-46731001D01*
%TO.C,R31*%
X146977500Y-40845759D02*
X146977500Y-40371243D01*
X148022500Y-40845759D02*
X148022500Y-40371243D01*
%TO.C,C2*%
X79592164Y-42848501D02*
X79807836Y-42848501D01*
X79592164Y-43568501D02*
X79807836Y-43568501D01*
%TO.C,R36*%
X87662742Y-47186001D02*
X88137258Y-47186001D01*
X87662742Y-48231001D02*
X88137258Y-48231001D01*
%TO.C,R5*%
X74237258Y-48686001D02*
X73762742Y-48686001D01*
X74237258Y-49731001D02*
X73762742Y-49731001D01*
%TO.C,R37*%
X137977500Y-40845759D02*
X137977500Y-40371243D01*
X139022500Y-40845759D02*
X139022500Y-40371243D01*
%TO.C,C4*%
X77807836Y-41848501D02*
X77592164Y-41848501D01*
X77807836Y-42568501D02*
X77592164Y-42568501D01*
%TO.C,R20*%
X87662742Y-50186001D02*
X88137258Y-50186001D01*
X87662742Y-51231001D02*
X88137258Y-51231001D01*
%TO.C,R15*%
X75977500Y-54871243D02*
X75977500Y-55345759D01*
X77022500Y-54871243D02*
X77022500Y-55345759D01*
%TO.C,R40*%
X108820000Y-40554860D02*
X108820000Y-40862142D01*
X109580000Y-40554860D02*
X109580000Y-40862142D01*
%TO.C,R10*%
X83477500Y-54871243D02*
X83477500Y-55345759D01*
X84522500Y-54871243D02*
X84522500Y-55345759D01*
%TO.C,R11*%
X81977500Y-54871243D02*
X81977500Y-55345759D01*
X83022500Y-54871243D02*
X83022500Y-55345759D01*
%TO.C,R5*%
X130237258Y-48686001D02*
X129762742Y-48686001D01*
X130237258Y-49731001D02*
X129762742Y-49731001D01*
%TO.C,R30*%
X89477500Y-40845759D02*
X89477500Y-40371243D01*
X90522500Y-40845759D02*
X90522500Y-40371243D01*
%TO.C,R44*%
X72877500Y-40945759D02*
X72877500Y-40471243D01*
X73922500Y-40945759D02*
X73922500Y-40471243D01*
%TO.C,R1*%
X102237258Y-42686001D02*
X101762742Y-42686001D01*
X102237258Y-43731001D02*
X101762742Y-43731001D01*
%TO.C,R14*%
X133477500Y-54871243D02*
X133477500Y-55345759D01*
X134522500Y-54871243D02*
X134522500Y-55345759D01*
%TO.C,R37*%
X109977500Y-40845759D02*
X109977500Y-40371243D01*
X111022500Y-40845759D02*
X111022500Y-40371243D01*
%TO.C,C4*%
X105807836Y-41848501D02*
X105592164Y-41848501D01*
X105807836Y-42568501D02*
X105592164Y-42568501D01*
%TO.C,R9*%
X74237258Y-51686001D02*
X73762742Y-51686001D01*
X74237258Y-52731001D02*
X73762742Y-52731001D01*
%TO.C,R34*%
X87662742Y-44186001D02*
X88137258Y-44186001D01*
X87662742Y-45231001D02*
X88137258Y-45231001D01*
D12*
%TO.C,U1*%
X77500000Y-44256501D02*
X77500000Y-44726501D01*
X77500000Y-50986501D02*
X77500000Y-51456501D01*
X77500000Y-51456501D02*
X77970000Y-51456501D01*
X77970000Y-44256501D02*
X77500000Y-44256501D01*
X84230000Y-51456501D02*
X84700000Y-51456501D01*
X84700000Y-44256501D02*
X84230000Y-44256501D01*
X84700000Y-44656501D02*
X84700000Y-44256501D01*
X84700000Y-44726501D02*
X84700000Y-44656501D01*
X84700000Y-51456501D02*
X84700000Y-50986501D01*
X84790000Y-43666501D02*
G75*
G02*
X84530000Y-43666501I-130000J0D01*
G01*
X84530000Y-43666501D02*
G75*
G02*
X84790000Y-43666501I130000J0D01*
G01*
D11*
%TO.C,C5*%
X131840000Y-47816337D02*
X131840000Y-47600665D01*
X132560000Y-47816337D02*
X132560000Y-47600665D01*
%TO.C,R28*%
X86477500Y-40845759D02*
X86477500Y-40371243D01*
X87522500Y-40845759D02*
X87522500Y-40371243D01*
%TO.C,R15*%
X103977500Y-54871243D02*
X103977500Y-55345759D01*
X105022500Y-54871243D02*
X105022500Y-55345759D01*
%TO.C,R27*%
X140977500Y-54871243D02*
X140977500Y-55345759D01*
X142022500Y-54871243D02*
X142022500Y-55345759D01*
%TO.C,R29*%
X143977500Y-40845759D02*
X143977500Y-40371243D01*
X145022500Y-40845759D02*
X145022500Y-40371243D01*
%TO.C,R3*%
X102237258Y-45686001D02*
X101762742Y-45686001D01*
X102237258Y-46731001D02*
X101762742Y-46731001D01*
%TO.C,R7*%
X97977500Y-54871243D02*
X97977500Y-55345759D01*
X99022500Y-54871243D02*
X99022500Y-55345759D01*
%TO.C,R9*%
X130237258Y-51686001D02*
X129762742Y-51686001D01*
X130237258Y-52731001D02*
X129762742Y-52731001D01*
%TO.C,R25*%
X143977500Y-54871243D02*
X143977500Y-55345759D01*
X145022500Y-54871243D02*
X145022500Y-55345759D01*
%TO.C,R14*%
X77477500Y-54871243D02*
X77477500Y-55345759D01*
X78522500Y-54871243D02*
X78522500Y-55345759D01*
%TO.C,C7*%
X136840000Y-42816337D02*
X136840000Y-42600665D01*
X137560000Y-42816337D02*
X137560000Y-42600665D01*
%TO.C,R18*%
X127477500Y-54871243D02*
X127477500Y-55345759D01*
X128522500Y-54871243D02*
X128522500Y-55345759D01*
%TO.C,R33*%
X115662742Y-42686001D02*
X116137258Y-42686001D01*
X115662742Y-43731001D02*
X116137258Y-43731001D01*
%TO.C,C3*%
X133807836Y-42848501D02*
X133592164Y-42848501D01*
X133807836Y-43568501D02*
X133592164Y-43568501D01*
%TO.C,R23*%
X146977500Y-54871243D02*
X146977500Y-55345759D01*
X148022500Y-54871243D02*
X148022500Y-55345759D01*
%TO.C,R26*%
X114477500Y-54871243D02*
X114477500Y-55345759D01*
X115522500Y-54871243D02*
X115522500Y-55345759D01*
%TO.C,R24*%
X145477500Y-54871243D02*
X145477500Y-55345759D01*
X146522500Y-54871243D02*
X146522500Y-55345759D01*
%TO.C,R30*%
X117477500Y-40845759D02*
X117477500Y-40371243D01*
X118522500Y-40845759D02*
X118522500Y-40371243D01*
%TO.C,R23*%
X118977500Y-54871243D02*
X118977500Y-55345759D01*
X120022500Y-54871243D02*
X120022500Y-55345759D01*
%TO.C,C3*%
X105807836Y-42848501D02*
X105592164Y-42848501D01*
X105807836Y-43568501D02*
X105592164Y-43568501D01*
%TO.C,R42*%
X68877500Y-40945759D02*
X68877500Y-40471243D01*
X69922500Y-40945759D02*
X69922500Y-40471243D01*
%TO.C,C5*%
X103840000Y-47816337D02*
X103840000Y-47600665D01*
X104560000Y-47816337D02*
X104560000Y-47600665D01*
%TO.C,R26*%
X142477500Y-54871243D02*
X142477500Y-55345759D01*
X143522500Y-54871243D02*
X143522500Y-55345759D01*
%TO.C,R16*%
X130477500Y-54871243D02*
X130477500Y-55345759D01*
X131522500Y-54871243D02*
X131522500Y-55345759D01*
%TO.C,R31*%
X90977500Y-40845759D02*
X90977500Y-40371243D01*
X92022500Y-40845759D02*
X92022500Y-40371243D01*
%TO.C,R42*%
X96877500Y-40945759D02*
X96877500Y-40471243D01*
X97922500Y-40945759D02*
X97922500Y-40471243D01*
%TO.C,R39*%
X84977500Y-40845759D02*
X84977500Y-40371243D01*
X86022500Y-40845759D02*
X86022500Y-40371243D01*
%TO.C,R1*%
X74237258Y-42686001D02*
X73762742Y-42686001D01*
X74237258Y-43731001D02*
X73762742Y-43731001D01*
%TO.C,R7*%
X125977500Y-54871243D02*
X125977500Y-55345759D01*
X127022500Y-54871243D02*
X127022500Y-55345759D01*
%TO.C,R12*%
X80477500Y-54871243D02*
X80477500Y-55345759D01*
X81522500Y-54871243D02*
X81522500Y-55345759D01*
%TO.C,R11*%
X137977500Y-54871243D02*
X137977500Y-55345759D01*
X139022500Y-54871243D02*
X139022500Y-55345759D01*
%TO.C,R13*%
X134977500Y-54871243D02*
X134977500Y-55345759D01*
X136022500Y-54871243D02*
X136022500Y-55345759D01*
%TO.C,C5*%
X75840000Y-47816337D02*
X75840000Y-47600665D01*
X76560000Y-47816337D02*
X76560000Y-47600665D01*
%TO.C,R38*%
X139477500Y-40845759D02*
X139477500Y-40371243D01*
X140522500Y-40845759D02*
X140522500Y-40371243D01*
%TO.C,R41*%
X79853641Y-40828501D02*
X79546359Y-40828501D01*
X79853641Y-41588501D02*
X79546359Y-41588501D01*
%TO.C,C1*%
X107592164Y-41848501D02*
X107807836Y-41848501D01*
X107592164Y-42568501D02*
X107807836Y-42568501D01*
%TO.C,R24*%
X89477500Y-54871243D02*
X89477500Y-55345759D01*
X90522500Y-54871243D02*
X90522500Y-55345759D01*
%TO.C,R4*%
X74237258Y-50186001D02*
X73762742Y-50186001D01*
X74237258Y-51231001D02*
X73762742Y-51231001D01*
%TO.C,R38*%
X83477500Y-40845759D02*
X83477500Y-40371243D01*
X84522500Y-40845759D02*
X84522500Y-40371243D01*
%TO.C,R36*%
X115662742Y-47186001D02*
X116137258Y-47186001D01*
X115662742Y-48231001D02*
X116137258Y-48231001D01*
D12*
%TO.C,U1*%
X105500000Y-44256501D02*
X105500000Y-44726501D01*
X105500000Y-50986501D02*
X105500000Y-51456501D01*
X105500000Y-51456501D02*
X105970000Y-51456501D01*
X105970000Y-44256501D02*
X105500000Y-44256501D01*
X112230000Y-51456501D02*
X112700000Y-51456501D01*
X112700000Y-44256501D02*
X112230000Y-44256501D01*
X112700000Y-44656501D02*
X112700000Y-44256501D01*
X112700000Y-44726501D02*
X112700000Y-44656501D01*
X112700000Y-51456501D02*
X112700000Y-50986501D01*
X112790000Y-43666501D02*
G75*
G02*
X112530000Y-43666501I-130000J0D01*
G01*
X112530000Y-43666501D02*
G75*
G02*
X112790000Y-43666501I130000J0D01*
G01*
D11*
%TO.C,C6*%
X103840000Y-49600665D02*
X103840000Y-49816337D01*
X104560000Y-49600665D02*
X104560000Y-49816337D01*
%TO.C,C1*%
X79592164Y-41848501D02*
X79807836Y-41848501D01*
X79592164Y-42568501D02*
X79807836Y-42568501D01*
%TO.C,C2*%
X107592164Y-42848501D02*
X107807836Y-42848501D01*
X107592164Y-43568501D02*
X107807836Y-43568501D01*
%TO.C,R37*%
X81977500Y-40845759D02*
X81977500Y-40371243D01*
X83022500Y-40845759D02*
X83022500Y-40371243D01*
%TO.C,R44*%
X128877500Y-40945759D02*
X128877500Y-40471243D01*
X129922500Y-40945759D02*
X129922500Y-40471243D01*
%TO.C,R32*%
X148477500Y-40845759D02*
X148477500Y-40371243D01*
X149522500Y-40845759D02*
X149522500Y-40371243D01*
%TO.C,C3*%
X77807836Y-42848501D02*
X77592164Y-42848501D01*
X77807836Y-43568501D02*
X77592164Y-43568501D01*
%TO.C,R19*%
X143662742Y-48686001D02*
X144137258Y-48686001D01*
X143662742Y-49731001D02*
X144137258Y-49731001D01*
%TO.C,R3*%
X130237258Y-45686001D02*
X129762742Y-45686001D01*
X130237258Y-46731001D02*
X129762742Y-46731001D01*
%TO.C,R24*%
X117477500Y-54871243D02*
X117477500Y-55345759D01*
X118522500Y-54871243D02*
X118522500Y-55345759D01*
%TO.C,R7*%
X69977500Y-54871243D02*
X69977500Y-55345759D01*
X71022500Y-54871243D02*
X71022500Y-55345759D01*
%TO.C,R27*%
X84977500Y-54871243D02*
X84977500Y-55345759D01*
X86022500Y-54871243D02*
X86022500Y-55345759D01*
%TO.C,R15*%
X131977500Y-54871243D02*
X131977500Y-55345759D01*
X133022500Y-54871243D02*
X133022500Y-55345759D01*
%TO.C,R17*%
X100977500Y-54871243D02*
X100977500Y-55345759D01*
X102022500Y-54871243D02*
X102022500Y-55345759D01*
%TO.C,R16*%
X74477500Y-54871243D02*
X74477500Y-55345759D01*
X75522500Y-54871243D02*
X75522500Y-55345759D01*
%TO.C,R2*%
X130237258Y-44186001D02*
X129762742Y-44186001D01*
X130237258Y-45231001D02*
X129762742Y-45231001D01*
%TO.C,R41*%
X135853641Y-40828501D02*
X135546359Y-40828501D01*
X135853641Y-41588501D02*
X135546359Y-41588501D01*
%TO.C,R21*%
X143662742Y-51686001D02*
X144137258Y-51686001D01*
X143662742Y-52731001D02*
X144137258Y-52731001D01*
D12*
%TO.C,CN6*%
X125210000Y-42526501D02*
X125210000Y-42526501D01*
X125210000Y-43696501D02*
X125210000Y-43726501D01*
X125210000Y-51996501D02*
X125210000Y-52026501D01*
X125210000Y-53196501D02*
X125210000Y-53196501D01*
X125210000Y-53196501D02*
X127490000Y-53196501D01*
X127490000Y-42526501D02*
X125210000Y-42526501D01*
X127490000Y-42526501D02*
X127490000Y-42526501D01*
X127490000Y-43726501D02*
X127490000Y-43696501D01*
X127490000Y-52026501D02*
X127490000Y-51996501D01*
X127490000Y-53196501D02*
X127490000Y-53196501D01*
X124430000Y-43026501D02*
G75*
G02*
X124210000Y-43026501I-110000J0D01*
G01*
X124210000Y-43026501D02*
G75*
G02*
X124430000Y-43026501I110000J0D01*
G01*
D11*
%TO.C,R45*%
X74877500Y-40945759D02*
X74877500Y-40471243D01*
X75922500Y-40945759D02*
X75922500Y-40471243D01*
%TO.C,R29*%
X87977500Y-40845759D02*
X87977500Y-40371243D01*
X89022500Y-40845759D02*
X89022500Y-40371243D01*
%TO.C,R3*%
X74237258Y-45686001D02*
X73762742Y-45686001D01*
X74237258Y-46731001D02*
X73762742Y-46731001D01*
%TO.C,R5*%
X102237258Y-48686001D02*
X101762742Y-48686001D01*
X102237258Y-49731001D02*
X101762742Y-49731001D01*
%TO.C,R28*%
X114477500Y-40845759D02*
X114477500Y-40371243D01*
X115522500Y-40845759D02*
X115522500Y-40371243D01*
%TO.C,R21*%
X115662742Y-51686001D02*
X116137258Y-51686001D01*
X115662742Y-52731001D02*
X116137258Y-52731001D01*
%TO.C,R35*%
X87662742Y-45686001D02*
X88137258Y-45686001D01*
X87662742Y-46731001D02*
X88137258Y-46731001D01*
%TO.C,R22*%
X120477500Y-54871243D02*
X120477500Y-55345759D01*
X121522500Y-54871243D02*
X121522500Y-55345759D01*
%TO.C,R25*%
X87977500Y-54871243D02*
X87977500Y-55345759D01*
X89022500Y-54871243D02*
X89022500Y-55345759D01*
%TO.C,R21*%
X87662742Y-51686001D02*
X88137258Y-51686001D01*
X87662742Y-52731001D02*
X88137258Y-52731001D01*
%TO.C,R43*%
X70877500Y-40945759D02*
X70877500Y-40471243D01*
X71922500Y-40945759D02*
X71922500Y-40471243D01*
%TO.C,R12*%
X108477500Y-54871243D02*
X108477500Y-55345759D01*
X109522500Y-54871243D02*
X109522500Y-55345759D01*
%TO.C,C2*%
X135592164Y-42848501D02*
X135807836Y-42848501D01*
X135592164Y-43568501D02*
X135807836Y-43568501D01*
D12*
%TO.C,CN6*%
X69210000Y-42526501D02*
X69210000Y-42526501D01*
X69210000Y-43696501D02*
X69210000Y-43726501D01*
X69210000Y-51996501D02*
X69210000Y-52026501D01*
X69210000Y-53196501D02*
X69210000Y-53196501D01*
X69210000Y-53196501D02*
X71490000Y-53196501D01*
X71490000Y-42526501D02*
X69210000Y-42526501D01*
X71490000Y-42526501D02*
X71490000Y-42526501D01*
X71490000Y-43726501D02*
X71490000Y-43696501D01*
X71490000Y-52026501D02*
X71490000Y-51996501D01*
X71490000Y-53196501D02*
X71490000Y-53196501D01*
X68430000Y-43026501D02*
G75*
G02*
X68210000Y-43026501I-110000J0D01*
G01*
X68210000Y-43026501D02*
G75*
G02*
X68430000Y-43026501I110000J0D01*
G01*
D11*
%TO.C,R41*%
X107853641Y-40828501D02*
X107546359Y-40828501D01*
X107853641Y-41588501D02*
X107546359Y-41588501D01*
%TO.C,C6*%
X131840000Y-49600665D02*
X131840000Y-49816337D01*
X132560000Y-49600665D02*
X132560000Y-49816337D01*
%TO.C,R17*%
X128977500Y-54871243D02*
X128977500Y-55345759D01*
X130022500Y-54871243D02*
X130022500Y-55345759D01*
%TO.C,R1*%
X130237258Y-42686001D02*
X129762742Y-42686001D01*
X130237258Y-43731001D02*
X129762742Y-43731001D01*
%TO.C,R11*%
X109977500Y-54871243D02*
X109977500Y-55345759D01*
X111022500Y-54871243D02*
X111022500Y-55345759D01*
%TO.C,R22*%
X92477500Y-54871243D02*
X92477500Y-55345759D01*
X93522500Y-54871243D02*
X93522500Y-55345759D01*
%TO.C,R10*%
X111477500Y-54871243D02*
X111477500Y-55345759D01*
X112522500Y-54871243D02*
X112522500Y-55345759D01*
%TO.C,R16*%
X102477500Y-54871243D02*
X102477500Y-55345759D01*
X103522500Y-54871243D02*
X103522500Y-55345759D01*
%TO.C,R20*%
X143662742Y-50186001D02*
X144137258Y-50186001D01*
X143662742Y-51231001D02*
X144137258Y-51231001D01*
%TO.C,R26*%
X86477500Y-54871243D02*
X86477500Y-55345759D01*
X87522500Y-54871243D02*
X87522500Y-55345759D01*
%TO.C,R40*%
X80820000Y-40554860D02*
X80820000Y-40862142D01*
X81580000Y-40554860D02*
X81580000Y-40862142D01*
%TO.C,R4*%
X102237258Y-50186001D02*
X101762742Y-50186001D01*
X102237258Y-51231001D02*
X101762742Y-51231001D01*
%TO.C,R32*%
X120477500Y-40845759D02*
X120477500Y-40371243D01*
X121522500Y-40845759D02*
X121522500Y-40371243D01*
%TO.C,R2*%
X102237258Y-44186001D02*
X101762742Y-44186001D01*
X102237258Y-45231001D02*
X101762742Y-45231001D01*
%TO.C,R17*%
X72977500Y-54871243D02*
X72977500Y-55345759D01*
X74022500Y-54871243D02*
X74022500Y-55345759D01*
%TO.C,R33*%
X143662742Y-42686001D02*
X144137258Y-42686001D01*
X143662742Y-43731001D02*
X144137258Y-43731001D01*
%TO.C,R23*%
X90977500Y-54871243D02*
X90977500Y-55345759D01*
X92022500Y-54871243D02*
X92022500Y-55345759D01*
D12*
%TO.C,CN5*%
X90410000Y-42526501D02*
X90410000Y-42526501D01*
X90410000Y-43696501D02*
X90410000Y-43726501D01*
X90410000Y-51996501D02*
X90410000Y-52026501D01*
X90410000Y-53196501D02*
X90410000Y-53196501D01*
X90410000Y-53196501D02*
X92690000Y-53196501D01*
X92690000Y-42526501D02*
X90410000Y-42526501D01*
X92690000Y-42526501D02*
X92690000Y-42526501D01*
X92690000Y-43726501D02*
X92690000Y-43696501D01*
X92690000Y-52026501D02*
X92690000Y-51996501D01*
X92690000Y-53196501D02*
X92690000Y-53196501D01*
X89630000Y-43026501D02*
G75*
G02*
X89410000Y-43026501I-110000J0D01*
G01*
X89410000Y-43026501D02*
G75*
G02*
X89630000Y-43026501I110000J0D01*
G01*
D11*
%TO.C,R36*%
X143662742Y-47186001D02*
X144137258Y-47186001D01*
X143662742Y-48231001D02*
X144137258Y-48231001D01*
%TO.C,R13*%
X78977500Y-54871243D02*
X78977500Y-55345759D01*
X80022500Y-54871243D02*
X80022500Y-55345759D01*
%TO.C,R19*%
X87662742Y-48686001D02*
X88137258Y-48686001D01*
X87662742Y-49731001D02*
X88137258Y-49731001D01*
D12*
%TO.C,CN5*%
X146410000Y-42526501D02*
X146410000Y-42526501D01*
X146410000Y-43696501D02*
X146410000Y-43726501D01*
X146410000Y-51996501D02*
X146410000Y-52026501D01*
X146410000Y-53196501D02*
X146410000Y-53196501D01*
X146410000Y-53196501D02*
X148690000Y-53196501D01*
X148690000Y-42526501D02*
X146410000Y-42526501D01*
X148690000Y-42526501D02*
X148690000Y-42526501D01*
X148690000Y-43726501D02*
X148690000Y-43696501D01*
X148690000Y-52026501D02*
X148690000Y-51996501D01*
X148690000Y-53196501D02*
X148690000Y-53196501D01*
X145630000Y-43026501D02*
G75*
G02*
X145410000Y-43026501I-110000J0D01*
G01*
X145410000Y-43026501D02*
G75*
G02*
X145630000Y-43026501I110000J0D01*
G01*
D11*
%TO.C,R13*%
X106977500Y-54871243D02*
X106977500Y-55345759D01*
X108022500Y-54871243D02*
X108022500Y-55345759D01*
%TO.C,C7*%
X108840000Y-42816337D02*
X108840000Y-42600665D01*
X109560000Y-42816337D02*
X109560000Y-42600665D01*
%TO.C,R31*%
X118977500Y-40845759D02*
X118977500Y-40371243D01*
X120022500Y-40845759D02*
X120022500Y-40371243D01*
%TO.C,C6*%
X75840000Y-49600665D02*
X75840000Y-49816337D01*
X76560000Y-49600665D02*
X76560000Y-49816337D01*
%TO.C,R8*%
X68477500Y-54871243D02*
X68477500Y-55345759D01*
X69522500Y-54871243D02*
X69522500Y-55345759D01*
%TO.C,R45*%
X46877500Y-40945759D02*
X46877500Y-40471243D01*
X47922500Y-40945759D02*
X47922500Y-40471243D01*
%TO.C,R8*%
X40477500Y-54871243D02*
X40477500Y-55345759D01*
X41522500Y-54871243D02*
X41522500Y-55345759D01*
%TO.C,R15*%
X47977500Y-54871243D02*
X47977500Y-55345759D01*
X49022500Y-54871243D02*
X49022500Y-55345759D01*
%TO.C,R31*%
X62977500Y-40845759D02*
X62977500Y-40371243D01*
X64022500Y-40845759D02*
X64022500Y-40371243D01*
%TO.C,R26*%
X58477500Y-54871243D02*
X58477500Y-55345759D01*
X59522500Y-54871243D02*
X59522500Y-55345759D01*
%TO.C,R32*%
X64477500Y-40845759D02*
X64477500Y-40371243D01*
X65522500Y-40845759D02*
X65522500Y-40371243D01*
%TO.C,R36*%
X59662742Y-47186001D02*
X60137258Y-47186001D01*
X59662742Y-48231001D02*
X60137258Y-48231001D01*
%TO.C,R16*%
X46477500Y-54871243D02*
X46477500Y-55345759D01*
X47522500Y-54871243D02*
X47522500Y-55345759D01*
%TO.C,C4*%
X49807836Y-41848501D02*
X49592164Y-41848501D01*
X49807836Y-42568501D02*
X49592164Y-42568501D01*
%TO.C,R44*%
X44877500Y-40945759D02*
X44877500Y-40471243D01*
X45922500Y-40945759D02*
X45922500Y-40471243D01*
%TO.C,C5*%
X47840000Y-47816337D02*
X47840000Y-47600665D01*
X48560000Y-47816337D02*
X48560000Y-47600665D01*
%TO.C,R39*%
X56977500Y-40845759D02*
X56977500Y-40371243D01*
X58022500Y-40845759D02*
X58022500Y-40371243D01*
%TO.C,C7*%
X52840000Y-42816337D02*
X52840000Y-42600665D01*
X53560000Y-42816337D02*
X53560000Y-42600665D01*
%TO.C,R12*%
X52477500Y-54871243D02*
X52477500Y-55345759D01*
X53522500Y-54871243D02*
X53522500Y-55345759D01*
%TO.C,R11*%
X53977500Y-54871243D02*
X53977500Y-55345759D01*
X55022500Y-54871243D02*
X55022500Y-55345759D01*
%TO.C,R10*%
X55477500Y-54871243D02*
X55477500Y-55345759D01*
X56522500Y-54871243D02*
X56522500Y-55345759D01*
%TO.C,R23*%
X62977500Y-54871243D02*
X62977500Y-55345759D01*
X64022500Y-54871243D02*
X64022500Y-55345759D01*
%TO.C,R41*%
X51853641Y-40828501D02*
X51546359Y-40828501D01*
X51853641Y-41588501D02*
X51546359Y-41588501D01*
%TO.C,R29*%
X59977500Y-40845759D02*
X59977500Y-40371243D01*
X61022500Y-40845759D02*
X61022500Y-40371243D01*
%TO.C,R3*%
X46237258Y-45686001D02*
X45762742Y-45686001D01*
X46237258Y-46731001D02*
X45762742Y-46731001D01*
%TO.C,R5*%
X46237258Y-48686001D02*
X45762742Y-48686001D01*
X46237258Y-49731001D02*
X45762742Y-49731001D01*
%TO.C,R19*%
X59662742Y-48686001D02*
X60137258Y-48686001D01*
X59662742Y-49731001D02*
X60137258Y-49731001D01*
%TO.C,C1*%
X51592164Y-41848501D02*
X51807836Y-41848501D01*
X51592164Y-42568501D02*
X51807836Y-42568501D01*
%TO.C,R14*%
X49477500Y-54871243D02*
X49477500Y-55345759D01*
X50522500Y-54871243D02*
X50522500Y-55345759D01*
%TO.C,C2*%
X51592164Y-42848501D02*
X51807836Y-42848501D01*
X51592164Y-43568501D02*
X51807836Y-43568501D01*
D12*
%TO.C,CN5*%
X62410000Y-42526501D02*
X62410000Y-42526501D01*
X62410000Y-43696501D02*
X62410000Y-43726501D01*
X62410000Y-51996501D02*
X62410000Y-52026501D01*
X62410000Y-53196501D02*
X62410000Y-53196501D01*
X62410000Y-53196501D02*
X64690000Y-53196501D01*
X64690000Y-42526501D02*
X62410000Y-42526501D01*
X64690000Y-42526501D02*
X64690000Y-42526501D01*
X64690000Y-43726501D02*
X64690000Y-43696501D01*
X64690000Y-52026501D02*
X64690000Y-51996501D01*
X64690000Y-53196501D02*
X64690000Y-53196501D01*
X61630000Y-43026501D02*
G75*
G02*
X61410000Y-43026501I-110000J0D01*
G01*
X61410000Y-43026501D02*
G75*
G02*
X61630000Y-43026501I110000J0D01*
G01*
D11*
%TO.C,R35*%
X59662742Y-45686001D02*
X60137258Y-45686001D01*
X59662742Y-46731001D02*
X60137258Y-46731001D01*
D12*
%TO.C,U1*%
X49500000Y-44256501D02*
X49500000Y-44726501D01*
X49500000Y-50986501D02*
X49500000Y-51456501D01*
X49500000Y-51456501D02*
X49970000Y-51456501D01*
X49970000Y-44256501D02*
X49500000Y-44256501D01*
X56230000Y-51456501D02*
X56700000Y-51456501D01*
X56700000Y-44256501D02*
X56230000Y-44256501D01*
X56700000Y-44656501D02*
X56700000Y-44256501D01*
X56700000Y-44726501D02*
X56700000Y-44656501D01*
X56700000Y-51456501D02*
X56700000Y-50986501D01*
X56790000Y-43666501D02*
G75*
G02*
X56530000Y-43666501I-130000J0D01*
G01*
X56530000Y-43666501D02*
G75*
G02*
X56790000Y-43666501I130000J0D01*
G01*
D11*
%TO.C,R7*%
X41977500Y-54871243D02*
X41977500Y-55345759D01*
X43022500Y-54871243D02*
X43022500Y-55345759D01*
%TO.C,R2*%
X46237258Y-44186001D02*
X45762742Y-44186001D01*
X46237258Y-45231001D02*
X45762742Y-45231001D01*
%TO.C,R30*%
X61477500Y-40845759D02*
X61477500Y-40371243D01*
X62522500Y-40845759D02*
X62522500Y-40371243D01*
%TO.C,R22*%
X64477500Y-54871243D02*
X64477500Y-55345759D01*
X65522500Y-54871243D02*
X65522500Y-55345759D01*
%TO.C,R1*%
X46237258Y-42686001D02*
X45762742Y-42686001D01*
X46237258Y-43731001D02*
X45762742Y-43731001D01*
%TO.C,R24*%
X61477500Y-54871243D02*
X61477500Y-55345759D01*
X62522500Y-54871243D02*
X62522500Y-55345759D01*
%TO.C,R38*%
X55477500Y-40845759D02*
X55477500Y-40371243D01*
X56522500Y-40845759D02*
X56522500Y-40371243D01*
%TO.C,R4*%
X46237258Y-50186001D02*
X45762742Y-50186001D01*
X46237258Y-51231001D02*
X45762742Y-51231001D01*
%TO.C,C3*%
X49807836Y-42848501D02*
X49592164Y-42848501D01*
X49807836Y-43568501D02*
X49592164Y-43568501D01*
%TO.C,R37*%
X53977500Y-40845759D02*
X53977500Y-40371243D01*
X55022500Y-40845759D02*
X55022500Y-40371243D01*
%TO.C,R43*%
X42877500Y-40945759D02*
X42877500Y-40471243D01*
X43922500Y-40945759D02*
X43922500Y-40471243D01*
%TO.C,R13*%
X50977500Y-54871243D02*
X50977500Y-55345759D01*
X52022500Y-54871243D02*
X52022500Y-55345759D01*
%TO.C,C6*%
X47840000Y-49600665D02*
X47840000Y-49816337D01*
X48560000Y-49600665D02*
X48560000Y-49816337D01*
%TO.C,R18*%
X43477500Y-54871243D02*
X43477500Y-55345759D01*
X44522500Y-54871243D02*
X44522500Y-55345759D01*
%TO.C,R42*%
X40877500Y-40945759D02*
X40877500Y-40471243D01*
X41922500Y-40945759D02*
X41922500Y-40471243D01*
%TO.C,R33*%
X59662742Y-42686001D02*
X60137258Y-42686001D01*
X59662742Y-43731001D02*
X60137258Y-43731001D01*
%TO.C,R25*%
X59977500Y-54871243D02*
X59977500Y-55345759D01*
X61022500Y-54871243D02*
X61022500Y-55345759D01*
%TO.C,R20*%
X59662742Y-50186001D02*
X60137258Y-50186001D01*
X59662742Y-51231001D02*
X60137258Y-51231001D01*
%TO.C,R27*%
X56977500Y-54871243D02*
X56977500Y-55345759D01*
X58022500Y-54871243D02*
X58022500Y-55345759D01*
%TO.C,R9*%
X46237258Y-51686001D02*
X45762742Y-51686001D01*
X46237258Y-52731001D02*
X45762742Y-52731001D01*
%TO.C,R17*%
X44977500Y-54871243D02*
X44977500Y-55345759D01*
X46022500Y-54871243D02*
X46022500Y-55345759D01*
%TO.C,R34*%
X59662742Y-44186001D02*
X60137258Y-44186001D01*
X59662742Y-45231001D02*
X60137258Y-45231001D01*
%TO.C,R6*%
X46237258Y-47186001D02*
X45762742Y-47186001D01*
X46237258Y-48231001D02*
X45762742Y-48231001D01*
%TO.C,R21*%
X59662742Y-51686001D02*
X60137258Y-51686001D01*
X59662742Y-52731001D02*
X60137258Y-52731001D01*
%TO.C,R40*%
X52820000Y-40554860D02*
X52820000Y-40862142D01*
X53580000Y-40554860D02*
X53580000Y-40862142D01*
%TO.C,R28*%
X58477500Y-40845759D02*
X58477500Y-40371243D01*
X59522500Y-40845759D02*
X59522500Y-40371243D01*
D12*
%TO.C,CN6*%
X41210000Y-42526501D02*
X41210000Y-42526501D01*
X41210000Y-43696501D02*
X41210000Y-43726501D01*
X41210000Y-51996501D02*
X41210000Y-52026501D01*
X41210000Y-53196501D02*
X41210000Y-53196501D01*
X41210000Y-53196501D02*
X43490000Y-53196501D01*
X43490000Y-42526501D02*
X41210000Y-42526501D01*
X43490000Y-42526501D02*
X43490000Y-42526501D01*
X43490000Y-43726501D02*
X43490000Y-43696501D01*
X43490000Y-52026501D02*
X43490000Y-51996501D01*
X43490000Y-53196501D02*
X43490000Y-53196501D01*
X40430000Y-43026501D02*
G75*
G02*
X40210000Y-43026501I-110000J0D01*
G01*
X40210000Y-43026501D02*
G75*
G02*
X40430000Y-43026501I110000J0D01*
G01*
D11*
%TO.C,R20*%
X115662742Y-50186001D02*
X116137258Y-50186001D01*
X115662742Y-51231001D02*
X116137258Y-51231001D01*
%TO.C,R38*%
X111477500Y-40845759D02*
X111477500Y-40371243D01*
X112522500Y-40845759D02*
X112522500Y-40371243D01*
%TO.C,R45*%
X130877500Y-20945759D02*
X130877500Y-20471243D01*
X131922500Y-20945759D02*
X131922500Y-20471243D01*
%TO.C,R8*%
X124477500Y-34871243D02*
X124477500Y-35345759D01*
X125522500Y-34871243D02*
X125522500Y-35345759D01*
%TO.C,R15*%
X131977500Y-34871243D02*
X131977500Y-35345759D01*
X133022500Y-34871243D02*
X133022500Y-35345759D01*
%TO.C,R31*%
X146977500Y-20845759D02*
X146977500Y-20371243D01*
X148022500Y-20845759D02*
X148022500Y-20371243D01*
%TO.C,R26*%
X142477500Y-34871243D02*
X142477500Y-35345759D01*
X143522500Y-34871243D02*
X143522500Y-35345759D01*
%TO.C,R32*%
X148477500Y-20845759D02*
X148477500Y-20371243D01*
X149522500Y-20845759D02*
X149522500Y-20371243D01*
%TO.C,R36*%
X143662742Y-27186001D02*
X144137258Y-27186001D01*
X143662742Y-28231001D02*
X144137258Y-28231001D01*
%TO.C,R16*%
X130477500Y-34871243D02*
X130477500Y-35345759D01*
X131522500Y-34871243D02*
X131522500Y-35345759D01*
%TO.C,C4*%
X133807836Y-21848501D02*
X133592164Y-21848501D01*
X133807836Y-22568501D02*
X133592164Y-22568501D01*
%TO.C,R44*%
X128877500Y-20945759D02*
X128877500Y-20471243D01*
X129922500Y-20945759D02*
X129922500Y-20471243D01*
%TO.C,C5*%
X131840000Y-27816337D02*
X131840000Y-27600665D01*
X132560000Y-27816337D02*
X132560000Y-27600665D01*
%TO.C,R39*%
X140977500Y-20845759D02*
X140977500Y-20371243D01*
X142022500Y-20845759D02*
X142022500Y-20371243D01*
%TO.C,C7*%
X136840000Y-22816337D02*
X136840000Y-22600665D01*
X137560000Y-22816337D02*
X137560000Y-22600665D01*
%TO.C,R12*%
X136477500Y-34871243D02*
X136477500Y-35345759D01*
X137522500Y-34871243D02*
X137522500Y-35345759D01*
%TO.C,R11*%
X137977500Y-34871243D02*
X137977500Y-35345759D01*
X139022500Y-34871243D02*
X139022500Y-35345759D01*
%TO.C,R10*%
X139477500Y-34871243D02*
X139477500Y-35345759D01*
X140522500Y-34871243D02*
X140522500Y-35345759D01*
%TO.C,R23*%
X146977500Y-34871243D02*
X146977500Y-35345759D01*
X148022500Y-34871243D02*
X148022500Y-35345759D01*
%TO.C,R41*%
X135853641Y-20828501D02*
X135546359Y-20828501D01*
X135853641Y-21588501D02*
X135546359Y-21588501D01*
%TO.C,R29*%
X143977500Y-20845759D02*
X143977500Y-20371243D01*
X145022500Y-20845759D02*
X145022500Y-20371243D01*
%TO.C,R3*%
X130237258Y-25686001D02*
X129762742Y-25686001D01*
X130237258Y-26731001D02*
X129762742Y-26731001D01*
%TO.C,R5*%
X130237258Y-28686001D02*
X129762742Y-28686001D01*
X130237258Y-29731001D02*
X129762742Y-29731001D01*
%TO.C,R19*%
X143662742Y-28686001D02*
X144137258Y-28686001D01*
X143662742Y-29731001D02*
X144137258Y-29731001D01*
%TO.C,C1*%
X135592164Y-21848501D02*
X135807836Y-21848501D01*
X135592164Y-22568501D02*
X135807836Y-22568501D01*
%TO.C,R14*%
X133477500Y-34871243D02*
X133477500Y-35345759D01*
X134522500Y-34871243D02*
X134522500Y-35345759D01*
%TO.C,C2*%
X135592164Y-22848501D02*
X135807836Y-22848501D01*
X135592164Y-23568501D02*
X135807836Y-23568501D01*
D12*
%TO.C,CN5*%
X146410000Y-22526501D02*
X146410000Y-22526501D01*
X146410000Y-23696501D02*
X146410000Y-23726501D01*
X146410000Y-31996501D02*
X146410000Y-32026501D01*
X146410000Y-33196501D02*
X146410000Y-33196501D01*
X146410000Y-33196501D02*
X148690000Y-33196501D01*
X148690000Y-22526501D02*
X146410000Y-22526501D01*
X148690000Y-22526501D02*
X148690000Y-22526501D01*
X148690000Y-23726501D02*
X148690000Y-23696501D01*
X148690000Y-32026501D02*
X148690000Y-31996501D01*
X148690000Y-33196501D02*
X148690000Y-33196501D01*
X145630000Y-23026501D02*
G75*
G02*
X145410000Y-23026501I-110000J0D01*
G01*
X145410000Y-23026501D02*
G75*
G02*
X145630000Y-23026501I110000J0D01*
G01*
D11*
%TO.C,R35*%
X143662742Y-25686001D02*
X144137258Y-25686001D01*
X143662742Y-26731001D02*
X144137258Y-26731001D01*
D12*
%TO.C,U1*%
X133500000Y-24256501D02*
X133500000Y-24726501D01*
X133500000Y-30986501D02*
X133500000Y-31456501D01*
X133500000Y-31456501D02*
X133970000Y-31456501D01*
X133970000Y-24256501D02*
X133500000Y-24256501D01*
X140230000Y-31456501D02*
X140700000Y-31456501D01*
X140700000Y-24256501D02*
X140230000Y-24256501D01*
X140700000Y-24656501D02*
X140700000Y-24256501D01*
X140700000Y-24726501D02*
X140700000Y-24656501D01*
X140700000Y-31456501D02*
X140700000Y-30986501D01*
X140790000Y-23666501D02*
G75*
G02*
X140530000Y-23666501I-130000J0D01*
G01*
X140530000Y-23666501D02*
G75*
G02*
X140790000Y-23666501I130000J0D01*
G01*
D11*
%TO.C,R7*%
X125977500Y-34871243D02*
X125977500Y-35345759D01*
X127022500Y-34871243D02*
X127022500Y-35345759D01*
%TO.C,R2*%
X130237258Y-24186001D02*
X129762742Y-24186001D01*
X130237258Y-25231001D02*
X129762742Y-25231001D01*
%TO.C,R30*%
X145477500Y-20845759D02*
X145477500Y-20371243D01*
X146522500Y-20845759D02*
X146522500Y-20371243D01*
%TO.C,R22*%
X148477500Y-34871243D02*
X148477500Y-35345759D01*
X149522500Y-34871243D02*
X149522500Y-35345759D01*
%TO.C,R1*%
X130237258Y-22686001D02*
X129762742Y-22686001D01*
X130237258Y-23731001D02*
X129762742Y-23731001D01*
%TO.C,R24*%
X145477500Y-34871243D02*
X145477500Y-35345759D01*
X146522500Y-34871243D02*
X146522500Y-35345759D01*
%TO.C,R38*%
X139477500Y-20845759D02*
X139477500Y-20371243D01*
X140522500Y-20845759D02*
X140522500Y-20371243D01*
%TO.C,R4*%
X130237258Y-30186001D02*
X129762742Y-30186001D01*
X130237258Y-31231001D02*
X129762742Y-31231001D01*
%TO.C,C3*%
X133807836Y-22848501D02*
X133592164Y-22848501D01*
X133807836Y-23568501D02*
X133592164Y-23568501D01*
%TO.C,R37*%
X137977500Y-20845759D02*
X137977500Y-20371243D01*
X139022500Y-20845759D02*
X139022500Y-20371243D01*
%TO.C,R43*%
X126877500Y-20945759D02*
X126877500Y-20471243D01*
X127922500Y-20945759D02*
X127922500Y-20471243D01*
%TO.C,R13*%
X134977500Y-34871243D02*
X134977500Y-35345759D01*
X136022500Y-34871243D02*
X136022500Y-35345759D01*
%TO.C,C6*%
X131840000Y-29600665D02*
X131840000Y-29816337D01*
X132560000Y-29600665D02*
X132560000Y-29816337D01*
%TO.C,R18*%
X127477500Y-34871243D02*
X127477500Y-35345759D01*
X128522500Y-34871243D02*
X128522500Y-35345759D01*
%TO.C,R42*%
X124877500Y-20945759D02*
X124877500Y-20471243D01*
X125922500Y-20945759D02*
X125922500Y-20471243D01*
%TO.C,R33*%
X143662742Y-22686001D02*
X144137258Y-22686001D01*
X143662742Y-23731001D02*
X144137258Y-23731001D01*
%TO.C,R25*%
X143977500Y-34871243D02*
X143977500Y-35345759D01*
X145022500Y-34871243D02*
X145022500Y-35345759D01*
%TO.C,R20*%
X143662742Y-30186001D02*
X144137258Y-30186001D01*
X143662742Y-31231001D02*
X144137258Y-31231001D01*
%TO.C,R27*%
X140977500Y-34871243D02*
X140977500Y-35345759D01*
X142022500Y-34871243D02*
X142022500Y-35345759D01*
%TO.C,R9*%
X130237258Y-31686001D02*
X129762742Y-31686001D01*
X130237258Y-32731001D02*
X129762742Y-32731001D01*
%TO.C,R17*%
X128977500Y-34871243D02*
X128977500Y-35345759D01*
X130022500Y-34871243D02*
X130022500Y-35345759D01*
%TO.C,R34*%
X143662742Y-24186001D02*
X144137258Y-24186001D01*
X143662742Y-25231001D02*
X144137258Y-25231001D01*
%TO.C,R6*%
X130237258Y-27186001D02*
X129762742Y-27186001D01*
X130237258Y-28231001D02*
X129762742Y-28231001D01*
%TO.C,R21*%
X143662742Y-31686001D02*
X144137258Y-31686001D01*
X143662742Y-32731001D02*
X144137258Y-32731001D01*
%TO.C,R40*%
X136820000Y-20554860D02*
X136820000Y-20862142D01*
X137580000Y-20554860D02*
X137580000Y-20862142D01*
%TO.C,R28*%
X142477500Y-20845759D02*
X142477500Y-20371243D01*
X143522500Y-20845759D02*
X143522500Y-20371243D01*
D12*
%TO.C,CN6*%
X125210000Y-22526501D02*
X125210000Y-22526501D01*
X125210000Y-23696501D02*
X125210000Y-23726501D01*
X125210000Y-31996501D02*
X125210000Y-32026501D01*
X125210000Y-33196501D02*
X125210000Y-33196501D01*
X125210000Y-33196501D02*
X127490000Y-33196501D01*
X127490000Y-22526501D02*
X125210000Y-22526501D01*
X127490000Y-22526501D02*
X127490000Y-22526501D01*
X127490000Y-23726501D02*
X127490000Y-23696501D01*
X127490000Y-32026501D02*
X127490000Y-31996501D01*
X127490000Y-33196501D02*
X127490000Y-33196501D01*
X124430000Y-23026501D02*
G75*
G02*
X124210000Y-23026501I-110000J0D01*
G01*
X124210000Y-23026501D02*
G75*
G02*
X124430000Y-23026501I110000J0D01*
G01*
D11*
%TO.C,R45*%
X102877500Y-20945759D02*
X102877500Y-20471243D01*
X103922500Y-20945759D02*
X103922500Y-20471243D01*
%TO.C,R8*%
X96477500Y-34871243D02*
X96477500Y-35345759D01*
X97522500Y-34871243D02*
X97522500Y-35345759D01*
%TO.C,R15*%
X103977500Y-34871243D02*
X103977500Y-35345759D01*
X105022500Y-34871243D02*
X105022500Y-35345759D01*
%TO.C,R31*%
X118977500Y-20845759D02*
X118977500Y-20371243D01*
X120022500Y-20845759D02*
X120022500Y-20371243D01*
%TO.C,R26*%
X114477500Y-34871243D02*
X114477500Y-35345759D01*
X115522500Y-34871243D02*
X115522500Y-35345759D01*
%TO.C,R32*%
X120477500Y-20845759D02*
X120477500Y-20371243D01*
X121522500Y-20845759D02*
X121522500Y-20371243D01*
%TO.C,R36*%
X115662742Y-27186001D02*
X116137258Y-27186001D01*
X115662742Y-28231001D02*
X116137258Y-28231001D01*
%TO.C,R16*%
X102477500Y-34871243D02*
X102477500Y-35345759D01*
X103522500Y-34871243D02*
X103522500Y-35345759D01*
%TO.C,C4*%
X105807836Y-21848501D02*
X105592164Y-21848501D01*
X105807836Y-22568501D02*
X105592164Y-22568501D01*
%TO.C,R44*%
X100877500Y-20945759D02*
X100877500Y-20471243D01*
X101922500Y-20945759D02*
X101922500Y-20471243D01*
%TO.C,C5*%
X103840000Y-27816337D02*
X103840000Y-27600665D01*
X104560000Y-27816337D02*
X104560000Y-27600665D01*
%TO.C,R39*%
X112977500Y-20845759D02*
X112977500Y-20371243D01*
X114022500Y-20845759D02*
X114022500Y-20371243D01*
%TO.C,C7*%
X108840000Y-22816337D02*
X108840000Y-22600665D01*
X109560000Y-22816337D02*
X109560000Y-22600665D01*
%TO.C,R12*%
X108477500Y-34871243D02*
X108477500Y-35345759D01*
X109522500Y-34871243D02*
X109522500Y-35345759D01*
%TO.C,R11*%
X109977500Y-34871243D02*
X109977500Y-35345759D01*
X111022500Y-34871243D02*
X111022500Y-35345759D01*
%TO.C,R10*%
X111477500Y-34871243D02*
X111477500Y-35345759D01*
X112522500Y-34871243D02*
X112522500Y-35345759D01*
%TO.C,R23*%
X118977500Y-34871243D02*
X118977500Y-35345759D01*
X120022500Y-34871243D02*
X120022500Y-35345759D01*
%TO.C,R41*%
X107853641Y-20828501D02*
X107546359Y-20828501D01*
X107853641Y-21588501D02*
X107546359Y-21588501D01*
%TO.C,R29*%
X115977500Y-20845759D02*
X115977500Y-20371243D01*
X117022500Y-20845759D02*
X117022500Y-20371243D01*
%TO.C,R3*%
X102237258Y-25686001D02*
X101762742Y-25686001D01*
X102237258Y-26731001D02*
X101762742Y-26731001D01*
%TO.C,R5*%
X102237258Y-28686001D02*
X101762742Y-28686001D01*
X102237258Y-29731001D02*
X101762742Y-29731001D01*
%TO.C,R19*%
X115662742Y-28686001D02*
X116137258Y-28686001D01*
X115662742Y-29731001D02*
X116137258Y-29731001D01*
%TO.C,C1*%
X107592164Y-21848501D02*
X107807836Y-21848501D01*
X107592164Y-22568501D02*
X107807836Y-22568501D01*
%TO.C,R14*%
X105477500Y-34871243D02*
X105477500Y-35345759D01*
X106522500Y-34871243D02*
X106522500Y-35345759D01*
%TO.C,C2*%
X107592164Y-22848501D02*
X107807836Y-22848501D01*
X107592164Y-23568501D02*
X107807836Y-23568501D01*
D12*
%TO.C,CN5*%
X118410000Y-22526501D02*
X118410000Y-22526501D01*
X118410000Y-23696501D02*
X118410000Y-23726501D01*
X118410000Y-31996501D02*
X118410000Y-32026501D01*
X118410000Y-33196501D02*
X118410000Y-33196501D01*
X118410000Y-33196501D02*
X120690000Y-33196501D01*
X120690000Y-22526501D02*
X118410000Y-22526501D01*
X120690000Y-22526501D02*
X120690000Y-22526501D01*
X120690000Y-23726501D02*
X120690000Y-23696501D01*
X120690000Y-32026501D02*
X120690000Y-31996501D01*
X120690000Y-33196501D02*
X120690000Y-33196501D01*
X117630000Y-23026501D02*
G75*
G02*
X117410000Y-23026501I-110000J0D01*
G01*
X117410000Y-23026501D02*
G75*
G02*
X117630000Y-23026501I110000J0D01*
G01*
D11*
%TO.C,R35*%
X115662742Y-25686001D02*
X116137258Y-25686001D01*
X115662742Y-26731001D02*
X116137258Y-26731001D01*
D12*
%TO.C,U1*%
X105500000Y-24256501D02*
X105500000Y-24726501D01*
X105500000Y-30986501D02*
X105500000Y-31456501D01*
X105500000Y-31456501D02*
X105970000Y-31456501D01*
X105970000Y-24256501D02*
X105500000Y-24256501D01*
X112230000Y-31456501D02*
X112700000Y-31456501D01*
X112700000Y-24256501D02*
X112230000Y-24256501D01*
X112700000Y-24656501D02*
X112700000Y-24256501D01*
X112700000Y-24726501D02*
X112700000Y-24656501D01*
X112700000Y-31456501D02*
X112700000Y-30986501D01*
X112790000Y-23666501D02*
G75*
G02*
X112530000Y-23666501I-130000J0D01*
G01*
X112530000Y-23666501D02*
G75*
G02*
X112790000Y-23666501I130000J0D01*
G01*
D11*
%TO.C,R7*%
X97977500Y-34871243D02*
X97977500Y-35345759D01*
X99022500Y-34871243D02*
X99022500Y-35345759D01*
%TO.C,R2*%
X102237258Y-24186001D02*
X101762742Y-24186001D01*
X102237258Y-25231001D02*
X101762742Y-25231001D01*
%TO.C,R30*%
X117477500Y-20845759D02*
X117477500Y-20371243D01*
X118522500Y-20845759D02*
X118522500Y-20371243D01*
%TO.C,R22*%
X120477500Y-34871243D02*
X120477500Y-35345759D01*
X121522500Y-34871243D02*
X121522500Y-35345759D01*
%TO.C,R1*%
X102237258Y-22686001D02*
X101762742Y-22686001D01*
X102237258Y-23731001D02*
X101762742Y-23731001D01*
%TO.C,R24*%
X117477500Y-34871243D02*
X117477500Y-35345759D01*
X118522500Y-34871243D02*
X118522500Y-35345759D01*
%TO.C,R38*%
X111477500Y-20845759D02*
X111477500Y-20371243D01*
X112522500Y-20845759D02*
X112522500Y-20371243D01*
%TO.C,R4*%
X102237258Y-30186001D02*
X101762742Y-30186001D01*
X102237258Y-31231001D02*
X101762742Y-31231001D01*
%TO.C,C3*%
X105807836Y-22848501D02*
X105592164Y-22848501D01*
X105807836Y-23568501D02*
X105592164Y-23568501D01*
%TO.C,R37*%
X109977500Y-20845759D02*
X109977500Y-20371243D01*
X111022500Y-20845759D02*
X111022500Y-20371243D01*
%TO.C,R43*%
X98877500Y-20945759D02*
X98877500Y-20471243D01*
X99922500Y-20945759D02*
X99922500Y-20471243D01*
%TO.C,R13*%
X106977500Y-34871243D02*
X106977500Y-35345759D01*
X108022500Y-34871243D02*
X108022500Y-35345759D01*
%TO.C,C6*%
X103840000Y-29600665D02*
X103840000Y-29816337D01*
X104560000Y-29600665D02*
X104560000Y-29816337D01*
%TO.C,R18*%
X99477500Y-34871243D02*
X99477500Y-35345759D01*
X100522500Y-34871243D02*
X100522500Y-35345759D01*
%TO.C,R42*%
X96877500Y-20945759D02*
X96877500Y-20471243D01*
X97922500Y-20945759D02*
X97922500Y-20471243D01*
%TO.C,R33*%
X115662742Y-22686001D02*
X116137258Y-22686001D01*
X115662742Y-23731001D02*
X116137258Y-23731001D01*
%TO.C,R25*%
X115977500Y-34871243D02*
X115977500Y-35345759D01*
X117022500Y-34871243D02*
X117022500Y-35345759D01*
%TO.C,R20*%
X115662742Y-30186001D02*
X116137258Y-30186001D01*
X115662742Y-31231001D02*
X116137258Y-31231001D01*
%TO.C,R27*%
X112977500Y-34871243D02*
X112977500Y-35345759D01*
X114022500Y-34871243D02*
X114022500Y-35345759D01*
%TO.C,R9*%
X102237258Y-31686001D02*
X101762742Y-31686001D01*
X102237258Y-32731001D02*
X101762742Y-32731001D01*
%TO.C,R17*%
X100977500Y-34871243D02*
X100977500Y-35345759D01*
X102022500Y-34871243D02*
X102022500Y-35345759D01*
%TO.C,R34*%
X115662742Y-24186001D02*
X116137258Y-24186001D01*
X115662742Y-25231001D02*
X116137258Y-25231001D01*
%TO.C,R6*%
X102237258Y-27186001D02*
X101762742Y-27186001D01*
X102237258Y-28231001D02*
X101762742Y-28231001D01*
%TO.C,R21*%
X115662742Y-31686001D02*
X116137258Y-31686001D01*
X115662742Y-32731001D02*
X116137258Y-32731001D01*
%TO.C,R40*%
X108820000Y-20554860D02*
X108820000Y-20862142D01*
X109580000Y-20554860D02*
X109580000Y-20862142D01*
%TO.C,R28*%
X114477500Y-20845759D02*
X114477500Y-20371243D01*
X115522500Y-20845759D02*
X115522500Y-20371243D01*
D12*
%TO.C,CN6*%
X97210000Y-22526501D02*
X97210000Y-22526501D01*
X97210000Y-23696501D02*
X97210000Y-23726501D01*
X97210000Y-31996501D02*
X97210000Y-32026501D01*
X97210000Y-33196501D02*
X97210000Y-33196501D01*
X97210000Y-33196501D02*
X99490000Y-33196501D01*
X99490000Y-22526501D02*
X97210000Y-22526501D01*
X99490000Y-22526501D02*
X99490000Y-22526501D01*
X99490000Y-23726501D02*
X99490000Y-23696501D01*
X99490000Y-32026501D02*
X99490000Y-31996501D01*
X99490000Y-33196501D02*
X99490000Y-33196501D01*
X96430000Y-23026501D02*
G75*
G02*
X96210000Y-23026501I-110000J0D01*
G01*
X96210000Y-23026501D02*
G75*
G02*
X96430000Y-23026501I110000J0D01*
G01*
D11*
%TO.C,R45*%
X74877500Y-20945759D02*
X74877500Y-20471243D01*
X75922500Y-20945759D02*
X75922500Y-20471243D01*
%TO.C,R8*%
X68477500Y-34871243D02*
X68477500Y-35345759D01*
X69522500Y-34871243D02*
X69522500Y-35345759D01*
%TO.C,R15*%
X75977500Y-34871243D02*
X75977500Y-35345759D01*
X77022500Y-34871243D02*
X77022500Y-35345759D01*
%TO.C,R31*%
X90977500Y-20845759D02*
X90977500Y-20371243D01*
X92022500Y-20845759D02*
X92022500Y-20371243D01*
%TO.C,R26*%
X86477500Y-34871243D02*
X86477500Y-35345759D01*
X87522500Y-34871243D02*
X87522500Y-35345759D01*
%TO.C,R32*%
X92477500Y-20845759D02*
X92477500Y-20371243D01*
X93522500Y-20845759D02*
X93522500Y-20371243D01*
%TO.C,R36*%
X87662742Y-27186001D02*
X88137258Y-27186001D01*
X87662742Y-28231001D02*
X88137258Y-28231001D01*
%TO.C,R16*%
X74477500Y-34871243D02*
X74477500Y-35345759D01*
X75522500Y-34871243D02*
X75522500Y-35345759D01*
%TO.C,C4*%
X77807836Y-21848501D02*
X77592164Y-21848501D01*
X77807836Y-22568501D02*
X77592164Y-22568501D01*
%TO.C,R44*%
X72877500Y-20945759D02*
X72877500Y-20471243D01*
X73922500Y-20945759D02*
X73922500Y-20471243D01*
%TO.C,C5*%
X75840000Y-27816337D02*
X75840000Y-27600665D01*
X76560000Y-27816337D02*
X76560000Y-27600665D01*
%TO.C,R39*%
X84977500Y-20845759D02*
X84977500Y-20371243D01*
X86022500Y-20845759D02*
X86022500Y-20371243D01*
%TO.C,C7*%
X80840000Y-22816337D02*
X80840000Y-22600665D01*
X81560000Y-22816337D02*
X81560000Y-22600665D01*
%TO.C,R12*%
X80477500Y-34871243D02*
X80477500Y-35345759D01*
X81522500Y-34871243D02*
X81522500Y-35345759D01*
%TO.C,R11*%
X81977500Y-34871243D02*
X81977500Y-35345759D01*
X83022500Y-34871243D02*
X83022500Y-35345759D01*
%TO.C,R10*%
X83477500Y-34871243D02*
X83477500Y-35345759D01*
X84522500Y-34871243D02*
X84522500Y-35345759D01*
%TO.C,R23*%
X90977500Y-34871243D02*
X90977500Y-35345759D01*
X92022500Y-34871243D02*
X92022500Y-35345759D01*
%TO.C,R41*%
X79853641Y-20828501D02*
X79546359Y-20828501D01*
X79853641Y-21588501D02*
X79546359Y-21588501D01*
%TO.C,R29*%
X87977500Y-20845759D02*
X87977500Y-20371243D01*
X89022500Y-20845759D02*
X89022500Y-20371243D01*
%TO.C,R3*%
X74237258Y-25686001D02*
X73762742Y-25686001D01*
X74237258Y-26731001D02*
X73762742Y-26731001D01*
%TO.C,R5*%
X74237258Y-28686001D02*
X73762742Y-28686001D01*
X74237258Y-29731001D02*
X73762742Y-29731001D01*
%TO.C,R19*%
X87662742Y-28686001D02*
X88137258Y-28686001D01*
X87662742Y-29731001D02*
X88137258Y-29731001D01*
%TO.C,C1*%
X79592164Y-21848501D02*
X79807836Y-21848501D01*
X79592164Y-22568501D02*
X79807836Y-22568501D01*
%TO.C,R14*%
X77477500Y-34871243D02*
X77477500Y-35345759D01*
X78522500Y-34871243D02*
X78522500Y-35345759D01*
%TO.C,C2*%
X79592164Y-22848501D02*
X79807836Y-22848501D01*
X79592164Y-23568501D02*
X79807836Y-23568501D01*
D12*
%TO.C,CN5*%
X90410000Y-22526501D02*
X90410000Y-22526501D01*
X90410000Y-23696501D02*
X90410000Y-23726501D01*
X90410000Y-31996501D02*
X90410000Y-32026501D01*
X90410000Y-33196501D02*
X90410000Y-33196501D01*
X90410000Y-33196501D02*
X92690000Y-33196501D01*
X92690000Y-22526501D02*
X90410000Y-22526501D01*
X92690000Y-22526501D02*
X92690000Y-22526501D01*
X92690000Y-23726501D02*
X92690000Y-23696501D01*
X92690000Y-32026501D02*
X92690000Y-31996501D01*
X92690000Y-33196501D02*
X92690000Y-33196501D01*
X89630000Y-23026501D02*
G75*
G02*
X89410000Y-23026501I-110000J0D01*
G01*
X89410000Y-23026501D02*
G75*
G02*
X89630000Y-23026501I110000J0D01*
G01*
D11*
%TO.C,R35*%
X87662742Y-25686001D02*
X88137258Y-25686001D01*
X87662742Y-26731001D02*
X88137258Y-26731001D01*
D12*
%TO.C,U1*%
X77500000Y-24256501D02*
X77500000Y-24726501D01*
X77500000Y-30986501D02*
X77500000Y-31456501D01*
X77500000Y-31456501D02*
X77970000Y-31456501D01*
X77970000Y-24256501D02*
X77500000Y-24256501D01*
X84230000Y-31456501D02*
X84700000Y-31456501D01*
X84700000Y-24256501D02*
X84230000Y-24256501D01*
X84700000Y-24656501D02*
X84700000Y-24256501D01*
X84700000Y-24726501D02*
X84700000Y-24656501D01*
X84700000Y-31456501D02*
X84700000Y-30986501D01*
X84790000Y-23666501D02*
G75*
G02*
X84530000Y-23666501I-130000J0D01*
G01*
X84530000Y-23666501D02*
G75*
G02*
X84790000Y-23666501I130000J0D01*
G01*
D11*
%TO.C,R7*%
X69977500Y-34871243D02*
X69977500Y-35345759D01*
X71022500Y-34871243D02*
X71022500Y-35345759D01*
%TO.C,R2*%
X74237258Y-24186001D02*
X73762742Y-24186001D01*
X74237258Y-25231001D02*
X73762742Y-25231001D01*
%TO.C,R30*%
X89477500Y-20845759D02*
X89477500Y-20371243D01*
X90522500Y-20845759D02*
X90522500Y-20371243D01*
%TO.C,R22*%
X92477500Y-34871243D02*
X92477500Y-35345759D01*
X93522500Y-34871243D02*
X93522500Y-35345759D01*
%TO.C,R1*%
X74237258Y-22686001D02*
X73762742Y-22686001D01*
X74237258Y-23731001D02*
X73762742Y-23731001D01*
%TO.C,R24*%
X89477500Y-34871243D02*
X89477500Y-35345759D01*
X90522500Y-34871243D02*
X90522500Y-35345759D01*
%TO.C,R38*%
X83477500Y-20845759D02*
X83477500Y-20371243D01*
X84522500Y-20845759D02*
X84522500Y-20371243D01*
%TO.C,R4*%
X74237258Y-30186001D02*
X73762742Y-30186001D01*
X74237258Y-31231001D02*
X73762742Y-31231001D01*
%TO.C,C3*%
X77807836Y-22848501D02*
X77592164Y-22848501D01*
X77807836Y-23568501D02*
X77592164Y-23568501D01*
%TO.C,R37*%
X81977500Y-20845759D02*
X81977500Y-20371243D01*
X83022500Y-20845759D02*
X83022500Y-20371243D01*
%TO.C,R43*%
X70877500Y-20945759D02*
X70877500Y-20471243D01*
X71922500Y-20945759D02*
X71922500Y-20471243D01*
%TO.C,R13*%
X78977500Y-34871243D02*
X78977500Y-35345759D01*
X80022500Y-34871243D02*
X80022500Y-35345759D01*
%TO.C,C6*%
X75840000Y-29600665D02*
X75840000Y-29816337D01*
X76560000Y-29600665D02*
X76560000Y-29816337D01*
%TO.C,R18*%
X71477500Y-34871243D02*
X71477500Y-35345759D01*
X72522500Y-34871243D02*
X72522500Y-35345759D01*
%TO.C,R42*%
X68877500Y-20945759D02*
X68877500Y-20471243D01*
X69922500Y-20945759D02*
X69922500Y-20471243D01*
%TO.C,R33*%
X87662742Y-22686001D02*
X88137258Y-22686001D01*
X87662742Y-23731001D02*
X88137258Y-23731001D01*
%TO.C,R25*%
X87977500Y-34871243D02*
X87977500Y-35345759D01*
X89022500Y-34871243D02*
X89022500Y-35345759D01*
%TO.C,R20*%
X87662742Y-30186001D02*
X88137258Y-30186001D01*
X87662742Y-31231001D02*
X88137258Y-31231001D01*
%TO.C,R27*%
X84977500Y-34871243D02*
X84977500Y-35345759D01*
X86022500Y-34871243D02*
X86022500Y-35345759D01*
%TO.C,R9*%
X74237258Y-31686001D02*
X73762742Y-31686001D01*
X74237258Y-32731001D02*
X73762742Y-32731001D01*
%TO.C,R17*%
X72977500Y-34871243D02*
X72977500Y-35345759D01*
X74022500Y-34871243D02*
X74022500Y-35345759D01*
%TO.C,R34*%
X87662742Y-24186001D02*
X88137258Y-24186001D01*
X87662742Y-25231001D02*
X88137258Y-25231001D01*
%TO.C,R6*%
X74237258Y-27186001D02*
X73762742Y-27186001D01*
X74237258Y-28231001D02*
X73762742Y-28231001D01*
%TO.C,R21*%
X87662742Y-31686001D02*
X88137258Y-31686001D01*
X87662742Y-32731001D02*
X88137258Y-32731001D01*
%TO.C,R40*%
X80820000Y-20554860D02*
X80820000Y-20862142D01*
X81580000Y-20554860D02*
X81580000Y-20862142D01*
%TO.C,R28*%
X86477500Y-20845759D02*
X86477500Y-20371243D01*
X87522500Y-20845759D02*
X87522500Y-20371243D01*
D12*
%TO.C,CN6*%
X69210000Y-22526501D02*
X69210000Y-22526501D01*
X69210000Y-23696501D02*
X69210000Y-23726501D01*
X69210000Y-31996501D02*
X69210000Y-32026501D01*
X69210000Y-33196501D02*
X69210000Y-33196501D01*
X69210000Y-33196501D02*
X71490000Y-33196501D01*
X71490000Y-22526501D02*
X69210000Y-22526501D01*
X71490000Y-22526501D02*
X71490000Y-22526501D01*
X71490000Y-23726501D02*
X71490000Y-23696501D01*
X71490000Y-32026501D02*
X71490000Y-31996501D01*
X71490000Y-33196501D02*
X71490000Y-33196501D01*
X68430000Y-23026501D02*
G75*
G02*
X68210000Y-23026501I-110000J0D01*
G01*
X68210000Y-23026501D02*
G75*
G02*
X68430000Y-23026501I110000J0D01*
G01*
X41210000Y-22526501D02*
X41210000Y-22526501D01*
X41210000Y-23696501D02*
X41210000Y-23726501D01*
X41210000Y-31996501D02*
X41210000Y-32026501D01*
X41210000Y-33196501D02*
X41210000Y-33196501D01*
X41210000Y-33196501D02*
X43490000Y-33196501D01*
X43490000Y-22526501D02*
X41210000Y-22526501D01*
X43490000Y-22526501D02*
X43490000Y-22526501D01*
X43490000Y-23726501D02*
X43490000Y-23696501D01*
X43490000Y-32026501D02*
X43490000Y-31996501D01*
X43490000Y-33196501D02*
X43490000Y-33196501D01*
X40430000Y-23026501D02*
G75*
G02*
X40210000Y-23026501I-110000J0D01*
G01*
X40210000Y-23026501D02*
G75*
G02*
X40430000Y-23026501I110000J0D01*
G01*
D11*
%TO.C,R28*%
X58477500Y-20845759D02*
X58477500Y-20371243D01*
X59522500Y-20845759D02*
X59522500Y-20371243D01*
%TO.C,R40*%
X52820000Y-20554860D02*
X52820000Y-20862142D01*
X53580000Y-20554860D02*
X53580000Y-20862142D01*
%TO.C,R21*%
X59662742Y-31686001D02*
X60137258Y-31686001D01*
X59662742Y-32731001D02*
X60137258Y-32731001D01*
%TO.C,R6*%
X46237258Y-27186001D02*
X45762742Y-27186001D01*
X46237258Y-28231001D02*
X45762742Y-28231001D01*
%TO.C,R34*%
X59662742Y-24186001D02*
X60137258Y-24186001D01*
X59662742Y-25231001D02*
X60137258Y-25231001D01*
%TO.C,R17*%
X44977500Y-34871243D02*
X44977500Y-35345759D01*
X46022500Y-34871243D02*
X46022500Y-35345759D01*
%TO.C,R9*%
X46237258Y-31686001D02*
X45762742Y-31686001D01*
X46237258Y-32731001D02*
X45762742Y-32731001D01*
%TO.C,R27*%
X56977500Y-34871243D02*
X56977500Y-35345759D01*
X58022500Y-34871243D02*
X58022500Y-35345759D01*
%TO.C,R20*%
X59662742Y-30186001D02*
X60137258Y-30186001D01*
X59662742Y-31231001D02*
X60137258Y-31231001D01*
%TO.C,R25*%
X59977500Y-34871243D02*
X59977500Y-35345759D01*
X61022500Y-34871243D02*
X61022500Y-35345759D01*
%TO.C,R33*%
X59662742Y-22686001D02*
X60137258Y-22686001D01*
X59662742Y-23731001D02*
X60137258Y-23731001D01*
%TO.C,R42*%
X40877500Y-20945759D02*
X40877500Y-20471243D01*
X41922500Y-20945759D02*
X41922500Y-20471243D01*
%TO.C,R18*%
X43477500Y-34871243D02*
X43477500Y-35345759D01*
X44522500Y-34871243D02*
X44522500Y-35345759D01*
%TO.C,C6*%
X47840000Y-29600665D02*
X47840000Y-29816337D01*
X48560000Y-29600665D02*
X48560000Y-29816337D01*
%TO.C,R13*%
X50977500Y-34871243D02*
X50977500Y-35345759D01*
X52022500Y-34871243D02*
X52022500Y-35345759D01*
%TO.C,R43*%
X42877500Y-20945759D02*
X42877500Y-20471243D01*
X43922500Y-20945759D02*
X43922500Y-20471243D01*
%TO.C,R37*%
X53977500Y-20845759D02*
X53977500Y-20371243D01*
X55022500Y-20845759D02*
X55022500Y-20371243D01*
%TO.C,C3*%
X49807836Y-22848501D02*
X49592164Y-22848501D01*
X49807836Y-23568501D02*
X49592164Y-23568501D01*
%TO.C,R4*%
X46237258Y-30186001D02*
X45762742Y-30186001D01*
X46237258Y-31231001D02*
X45762742Y-31231001D01*
%TO.C,R38*%
X55477500Y-20845759D02*
X55477500Y-20371243D01*
X56522500Y-20845759D02*
X56522500Y-20371243D01*
%TO.C,R24*%
X61477500Y-34871243D02*
X61477500Y-35345759D01*
X62522500Y-34871243D02*
X62522500Y-35345759D01*
%TO.C,R1*%
X46237258Y-22686001D02*
X45762742Y-22686001D01*
X46237258Y-23731001D02*
X45762742Y-23731001D01*
%TO.C,R22*%
X64477500Y-34871243D02*
X64477500Y-35345759D01*
X65522500Y-34871243D02*
X65522500Y-35345759D01*
%TO.C,R30*%
X61477500Y-20845759D02*
X61477500Y-20371243D01*
X62522500Y-20845759D02*
X62522500Y-20371243D01*
%TO.C,R2*%
X46237258Y-24186001D02*
X45762742Y-24186001D01*
X46237258Y-25231001D02*
X45762742Y-25231001D01*
%TO.C,R7*%
X41977500Y-34871243D02*
X41977500Y-35345759D01*
X43022500Y-34871243D02*
X43022500Y-35345759D01*
D12*
%TO.C,U1*%
X49500000Y-24256501D02*
X49500000Y-24726501D01*
X49500000Y-30986501D02*
X49500000Y-31456501D01*
X49500000Y-31456501D02*
X49970000Y-31456501D01*
X49970000Y-24256501D02*
X49500000Y-24256501D01*
X56230000Y-31456501D02*
X56700000Y-31456501D01*
X56700000Y-24256501D02*
X56230000Y-24256501D01*
X56700000Y-24656501D02*
X56700000Y-24256501D01*
X56700000Y-24726501D02*
X56700000Y-24656501D01*
X56700000Y-31456501D02*
X56700000Y-30986501D01*
X56790000Y-23666501D02*
G75*
G02*
X56530000Y-23666501I-130000J0D01*
G01*
X56530000Y-23666501D02*
G75*
G02*
X56790000Y-23666501I130000J0D01*
G01*
D11*
%TO.C,R35*%
X59662742Y-25686001D02*
X60137258Y-25686001D01*
X59662742Y-26731001D02*
X60137258Y-26731001D01*
D12*
%TO.C,CN5*%
X62410000Y-22526501D02*
X62410000Y-22526501D01*
X62410000Y-23696501D02*
X62410000Y-23726501D01*
X62410000Y-31996501D02*
X62410000Y-32026501D01*
X62410000Y-33196501D02*
X62410000Y-33196501D01*
X62410000Y-33196501D02*
X64690000Y-33196501D01*
X64690000Y-22526501D02*
X62410000Y-22526501D01*
X64690000Y-22526501D02*
X64690000Y-22526501D01*
X64690000Y-23726501D02*
X64690000Y-23696501D01*
X64690000Y-32026501D02*
X64690000Y-31996501D01*
X64690000Y-33196501D02*
X64690000Y-33196501D01*
X61630000Y-23026501D02*
G75*
G02*
X61410000Y-23026501I-110000J0D01*
G01*
X61410000Y-23026501D02*
G75*
G02*
X61630000Y-23026501I110000J0D01*
G01*
D11*
%TO.C,C2*%
X51592164Y-22848501D02*
X51807836Y-22848501D01*
X51592164Y-23568501D02*
X51807836Y-23568501D01*
%TO.C,R14*%
X49477500Y-34871243D02*
X49477500Y-35345759D01*
X50522500Y-34871243D02*
X50522500Y-35345759D01*
%TO.C,C1*%
X51592164Y-21848501D02*
X51807836Y-21848501D01*
X51592164Y-22568501D02*
X51807836Y-22568501D01*
%TO.C,R19*%
X59662742Y-28686001D02*
X60137258Y-28686001D01*
X59662742Y-29731001D02*
X60137258Y-29731001D01*
%TO.C,R5*%
X46237258Y-28686001D02*
X45762742Y-28686001D01*
X46237258Y-29731001D02*
X45762742Y-29731001D01*
%TO.C,R3*%
X46237258Y-25686001D02*
X45762742Y-25686001D01*
X46237258Y-26731001D02*
X45762742Y-26731001D01*
%TO.C,R29*%
X59977500Y-20845759D02*
X59977500Y-20371243D01*
X61022500Y-20845759D02*
X61022500Y-20371243D01*
%TO.C,R41*%
X51853641Y-20828501D02*
X51546359Y-20828501D01*
X51853641Y-21588501D02*
X51546359Y-21588501D01*
%TO.C,R23*%
X62977500Y-34871243D02*
X62977500Y-35345759D01*
X64022500Y-34871243D02*
X64022500Y-35345759D01*
%TO.C,R10*%
X55477500Y-34871243D02*
X55477500Y-35345759D01*
X56522500Y-34871243D02*
X56522500Y-35345759D01*
%TO.C,R11*%
X53977500Y-34871243D02*
X53977500Y-35345759D01*
X55022500Y-34871243D02*
X55022500Y-35345759D01*
%TO.C,R12*%
X52477500Y-34871243D02*
X52477500Y-35345759D01*
X53522500Y-34871243D02*
X53522500Y-35345759D01*
%TO.C,C7*%
X52840000Y-22816337D02*
X52840000Y-22600665D01*
X53560000Y-22816337D02*
X53560000Y-22600665D01*
%TO.C,R39*%
X56977500Y-20845759D02*
X56977500Y-20371243D01*
X58022500Y-20845759D02*
X58022500Y-20371243D01*
%TO.C,C5*%
X47840000Y-27816337D02*
X47840000Y-27600665D01*
X48560000Y-27816337D02*
X48560000Y-27600665D01*
%TO.C,R44*%
X44877500Y-20945759D02*
X44877500Y-20471243D01*
X45922500Y-20945759D02*
X45922500Y-20471243D01*
%TO.C,C4*%
X49807836Y-21848501D02*
X49592164Y-21848501D01*
X49807836Y-22568501D02*
X49592164Y-22568501D01*
%TO.C,R16*%
X46477500Y-34871243D02*
X46477500Y-35345759D01*
X47522500Y-34871243D02*
X47522500Y-35345759D01*
%TO.C,R36*%
X59662742Y-27186001D02*
X60137258Y-27186001D01*
X59662742Y-28231001D02*
X60137258Y-28231001D01*
%TO.C,R32*%
X64477500Y-20845759D02*
X64477500Y-20371243D01*
X65522500Y-20845759D02*
X65522500Y-20371243D01*
%TO.C,R26*%
X58477500Y-34871243D02*
X58477500Y-35345759D01*
X59522500Y-34871243D02*
X59522500Y-35345759D01*
%TO.C,R31*%
X62977500Y-20845759D02*
X62977500Y-20371243D01*
X64022500Y-20845759D02*
X64022500Y-20371243D01*
%TO.C,R15*%
X47977500Y-34871243D02*
X47977500Y-35345759D01*
X49022500Y-34871243D02*
X49022500Y-35345759D01*
%TO.C,R8*%
X40477500Y-34871243D02*
X40477500Y-35345759D01*
X41522500Y-34871243D02*
X41522500Y-35345759D01*
%TO.C,R45*%
X46877500Y-20945759D02*
X46877500Y-20471243D01*
X47922500Y-20945759D02*
X47922500Y-20471243D01*
%TD*%
M02*
