M48
; DRILL file {KiCad 9.0.2} date 2025-07-16T13:48:26+0200
; FORMAT={-:-/ absolute / metric / decimal}
; #@! TF.CreationDate,2025-07-16T13:48:26+02:00
; #@! TF.GenerationSoftware,Kicad,Pcbnew,9.0.2
; #@! TF.FileFunction,Plated,1,4,PTH
FMAT,2
METRIC
; #@! TA.AperFunction,Plated,PTH,ViaDrill
T1C0.150
%
G90
G05
T1
X40.285Y-33.017
X40.285Y-53.017
X40.285Y-73.017
X40.285Y-93.017
X40.305Y-30.432
X40.305Y-50.432
X40.305Y-70.432
X40.305Y-90.432
X40.379Y-28.205
X40.379Y-48.205
X40.379Y-68.205
X40.379Y-88.205
X40.41Y-22.179
X40.41Y-42.179
X40.41Y-62.179
X40.41Y-82.179
X40.45Y-27.3
X40.45Y-47.3
X40.45Y-67.3
X40.45Y-87.3
X40.458Y-26.162
X40.458Y-46.162
X40.458Y-66.162
X40.458Y-86.162
X40.992Y-35.115
X40.992Y-55.115
X40.992Y-75.115
X40.992Y-95.115
X41.0Y-33.716
X41.0Y-53.716
X41.0Y-73.716
X41.0Y-93.716
X41.15Y-27.257
X41.15Y-28.457
X41.15Y-29.257
X41.15Y-30.057
X41.15Y-30.457
X41.15Y-31.257
X41.15Y-31.657
X41.15Y-47.257
X41.15Y-48.457
X41.15Y-49.257
X41.15Y-50.057
X41.15Y-50.457
X41.15Y-51.257
X41.15Y-51.657
X41.15Y-67.257
X41.15Y-68.457
X41.15Y-69.257
X41.15Y-70.057
X41.15Y-70.457
X41.15Y-71.257
X41.15Y-71.657
X41.15Y-87.257
X41.15Y-88.457
X41.15Y-89.257
X41.15Y-90.057
X41.15Y-90.457
X41.15Y-91.257
X41.15Y-91.657
X41.4Y-19.884
X41.4Y-39.884
X41.4Y-59.884
X41.4Y-79.884
X41.56Y-29.349
X41.56Y-49.349
X41.56Y-69.349
X41.56Y-89.349
X41.707Y-23.713
X41.707Y-43.713
X41.707Y-63.713
X41.707Y-83.713
X41.82Y-26.449
X41.82Y-46.449
X41.82Y-66.449
X41.82Y-86.449
X41.972Y-27.296
X41.972Y-47.296
X41.972Y-67.296
X41.972Y-87.296
X42.249Y-31.207
X42.249Y-51.207
X42.249Y-71.207
X42.249Y-91.207
X42.26Y-26.519
X42.26Y-46.519
X42.26Y-66.519
X42.26Y-86.519
X42.326Y-25.737
X42.326Y-45.737
X42.326Y-65.737
X42.326Y-85.737
X42.355Y-23.116
X42.355Y-43.116
X42.355Y-63.116
X42.355Y-83.116
X42.39Y-26.159
X42.39Y-46.159
X42.39Y-66.159
X42.39Y-86.159
X42.442Y-23.956
X42.442Y-43.956
X42.442Y-63.956
X42.442Y-83.956
X42.445Y-28.457
X42.445Y-48.457
X42.445Y-68.457
X42.445Y-88.457
X42.45Y-28.057
X42.45Y-48.057
X42.45Y-68.057
X42.45Y-88.057
X42.457Y-27.656
X42.457Y-47.656
X42.457Y-67.656
X42.457Y-87.656
X42.47Y-35.083
X42.47Y-55.083
X42.47Y-75.083
X42.47Y-95.083
X42.5Y-35.934
X42.5Y-55.934
X42.5Y-75.934
X42.5Y-95.934
X42.693Y-30.038
X42.693Y-50.038
X42.693Y-70.038
X42.693Y-90.038
X42.71Y-27.219
X42.71Y-47.219
X42.71Y-67.219
X42.71Y-87.219
X42.763Y-26.088
X42.763Y-46.088
X42.763Y-66.088
X42.763Y-86.088
X42.79Y-26.499
X42.79Y-46.499
X42.79Y-66.499
X42.79Y-86.499
X42.898Y-23.96
X42.898Y-43.96
X42.898Y-63.96
X42.898Y-83.96
X43.107Y-24.857
X43.107Y-44.857
X43.107Y-64.857
X43.107Y-84.857
X43.4Y-19.884
X43.4Y-39.884
X43.4Y-59.884
X43.4Y-79.884
X43.55Y-26.457
X43.55Y-26.857
X43.55Y-27.257
X43.55Y-28.857
X43.55Y-29.257
X43.55Y-29.657
X43.55Y-30.057
X43.55Y-30.857
X43.55Y-46.457
X43.55Y-46.857
X43.55Y-47.257
X43.55Y-48.857
X43.55Y-49.257
X43.55Y-49.657
X43.55Y-50.057
X43.55Y-50.857
X43.55Y-66.457
X43.55Y-66.857
X43.55Y-67.257
X43.55Y-68.857
X43.55Y-69.257
X43.55Y-69.657
X43.55Y-70.057
X43.55Y-70.857
X43.55Y-86.457
X43.55Y-86.857
X43.55Y-87.257
X43.55Y-88.857
X43.55Y-89.257
X43.55Y-89.657
X43.55Y-90.057
X43.55Y-90.857
X44.0Y-35.934
X44.0Y-55.934
X44.0Y-75.934
X44.0Y-95.934
X44.35Y-20.059
X44.35Y-40.059
X44.35Y-60.059
X44.35Y-80.059
X44.95Y-25.459
X44.95Y-45.459
X44.95Y-65.459
X44.95Y-85.459
X45.175Y-24.709
X45.175Y-44.709
X45.175Y-64.709
X45.175Y-84.709
X45.4Y-19.884
X45.4Y-25.449
X45.4Y-39.884
X45.4Y-45.449
X45.4Y-59.884
X45.4Y-65.449
X45.4Y-79.884
X45.4Y-85.449
X45.5Y-35.934
X45.5Y-55.934
X45.5Y-75.934
X45.5Y-95.934
X45.68Y-29.857
X45.68Y-49.857
X45.68Y-69.857
X45.68Y-89.857
X45.95Y-26.259
X45.95Y-46.259
X45.95Y-66.259
X45.95Y-86.259
X45.96Y-26.766
X45.96Y-46.766
X45.96Y-66.766
X45.96Y-86.766
X45.98Y-28.871
X45.98Y-48.871
X45.98Y-68.871
X45.98Y-88.871
X46.095Y-24.758
X46.095Y-44.758
X46.095Y-64.758
X46.095Y-84.758
X46.11Y-25.199
X46.11Y-45.199
X46.11Y-65.199
X46.11Y-85.199
X46.343Y-28.504
X46.343Y-48.504
X46.343Y-68.504
X46.343Y-88.504
X46.4Y-19.4
X46.4Y-19.9
X46.4Y-20.5
X46.4Y-39.4
X46.4Y-39.9
X46.4Y-40.5
X46.4Y-59.4
X46.4Y-59.9
X46.4Y-60.5
X46.4Y-79.4
X46.4Y-79.9
X46.4Y-80.5
X46.76Y-25.949
X46.76Y-45.949
X46.76Y-65.949
X46.76Y-85.949
X46.825Y-23.209
X46.825Y-43.209
X46.825Y-63.209
X46.825Y-83.209
X47.0Y-35.934
X47.0Y-55.934
X47.0Y-75.934
X47.0Y-95.934
X47.4Y-20.409
X47.4Y-21.534
X47.4Y-40.409
X47.4Y-41.534
X47.4Y-60.409
X47.4Y-61.534
X47.4Y-80.409
X47.4Y-81.534
X47.415Y-24.704
X47.415Y-44.704
X47.415Y-64.704
X47.415Y-84.704
X47.61Y-25.391
X47.61Y-45.391
X47.61Y-65.391
X47.61Y-85.391
X47.63Y-25.769
X47.63Y-45.769
X47.63Y-65.769
X47.63Y-85.769
X47.636Y-26.219
X47.636Y-46.219
X47.636Y-66.219
X47.636Y-86.219
X47.661Y-30.954
X47.661Y-50.954
X47.661Y-70.954
X47.661Y-90.954
X47.677Y-31.859
X47.677Y-51.859
X47.677Y-71.859
X47.677Y-91.859
X47.694Y-25.026
X47.694Y-45.026
X47.694Y-65.026
X47.694Y-85.026
X47.695Y-32.379
X47.695Y-52.379
X47.695Y-72.379
X47.695Y-92.379
X47.74Y-27.25
X47.74Y-47.25
X47.74Y-67.25
X47.74Y-87.25
X47.78Y-30.099
X47.78Y-50.099
X47.78Y-70.099
X47.78Y-90.099
X48.29Y-28.671
X48.29Y-48.671
X48.29Y-68.671
X48.29Y-88.671
X48.395Y-21.525
X48.395Y-41.525
X48.395Y-61.525
X48.395Y-81.525
X48.5Y-35.934
X48.5Y-55.934
X48.5Y-75.934
X48.5Y-95.934
X48.7Y-19.35
X48.7Y-39.35
X48.7Y-59.35
X48.7Y-79.35
X48.75Y-28.461
X48.75Y-28.868
X48.75Y-48.461
X48.75Y-48.868
X48.75Y-68.461
X48.75Y-68.868
X48.75Y-88.461
X48.75Y-88.868
X48.913Y-21.002
X48.913Y-41.002
X48.913Y-61.002
X48.913Y-81.002
X49.25Y-19.35
X49.25Y-39.35
X49.25Y-59.35
X49.25Y-79.35
X49.399Y-21.14
X49.399Y-41.14
X49.399Y-61.14
X49.399Y-81.14
X49.516Y-31.875
X49.516Y-51.875
X49.516Y-71.875
X49.516Y-91.875
X49.53Y-25.057
X49.53Y-25.457
X49.53Y-25.857
X49.53Y-26.257
X49.53Y-26.657
X49.53Y-27.057
X49.53Y-27.457
X49.53Y-27.857
X49.53Y-28.257
X49.53Y-29.057
X49.53Y-29.457
X49.53Y-29.857
X49.53Y-45.057
X49.53Y-45.457
X49.53Y-45.857
X49.53Y-46.257
X49.53Y-46.657
X49.53Y-47.057
X49.53Y-47.457
X49.53Y-47.857
X49.53Y-48.257
X49.53Y-49.057
X49.53Y-49.457
X49.53Y-49.857
X49.53Y-65.057
X49.53Y-65.457
X49.53Y-65.857
X49.53Y-66.257
X49.53Y-66.657
X49.53Y-67.057
X49.53Y-67.457
X49.53Y-67.857
X49.53Y-68.257
X49.53Y-69.057
X49.53Y-69.457
X49.53Y-69.857
X49.53Y-85.057
X49.53Y-85.457
X49.53Y-85.857
X49.53Y-86.257
X49.53Y-86.657
X49.53Y-87.057
X49.53Y-87.457
X49.53Y-87.857
X49.53Y-88.257
X49.53Y-89.057
X49.53Y-89.457
X49.53Y-89.857
X49.55Y-19.7
X49.55Y-39.7
X49.55Y-59.7
X49.55Y-79.7
X49.916Y-31.867
X49.916Y-51.867
X49.916Y-71.867
X49.916Y-91.867
X50.0Y-19.7
X50.0Y-35.934
X50.0Y-39.7
X50.0Y-55.934
X50.0Y-59.7
X50.0Y-75.934
X50.0Y-79.7
X50.0Y-95.934
X50.1Y-22.109
X50.1Y-22.509
X50.1Y-42.109
X50.1Y-42.509
X50.1Y-62.109
X50.1Y-62.509
X50.1Y-82.109
X50.1Y-82.509
X50.2Y-19.35
X50.2Y-39.35
X50.2Y-59.35
X50.2Y-79.35
X50.5Y-22.109
X50.5Y-22.509
X50.5Y-42.109
X50.5Y-42.509
X50.5Y-62.109
X50.5Y-62.509
X50.5Y-82.109
X50.5Y-82.509
X50.65Y-25.45
X50.65Y-26.15
X50.65Y-26.9
X50.65Y-27.65
X50.65Y-28.4
X50.65Y-29.15
X50.65Y-29.9
X50.65Y-45.45
X50.65Y-46.15
X50.65Y-46.9
X50.65Y-47.65
X50.65Y-48.4
X50.65Y-49.15
X50.65Y-49.9
X50.65Y-65.45
X50.65Y-66.15
X50.65Y-66.9
X50.65Y-67.65
X50.65Y-68.4
X50.65Y-69.15
X50.65Y-69.9
X50.65Y-85.45
X50.65Y-86.15
X50.65Y-86.9
X50.65Y-87.65
X50.65Y-88.4
X50.65Y-89.15
X50.65Y-89.9
X50.85Y-20.259
X50.85Y-40.259
X50.85Y-60.259
X50.85Y-80.259
X50.9Y-22.109
X50.9Y-22.509
X50.9Y-25.8
X50.9Y-26.5
X50.9Y-27.25
X50.9Y-28.0
X50.9Y-28.75
X50.9Y-29.5
X50.9Y-30.25
X50.9Y-42.109
X50.9Y-42.509
X50.9Y-45.8
X50.9Y-46.5
X50.9Y-47.25
X50.9Y-48.0
X50.9Y-48.75
X50.9Y-49.5
X50.9Y-50.25
X50.9Y-62.109
X50.9Y-62.509
X50.9Y-65.8
X50.9Y-66.5
X50.9Y-67.25
X50.9Y-68.0
X50.9Y-68.75
X50.9Y-69.5
X50.9Y-70.25
X50.9Y-82.109
X50.9Y-82.509
X50.9Y-85.8
X50.9Y-86.5
X50.9Y-87.25
X50.9Y-88.0
X50.9Y-88.75
X50.9Y-89.5
X50.9Y-90.25
X51.1Y-24.277
X51.1Y-31.437
X51.1Y-44.277
X51.1Y-51.437
X51.1Y-64.277
X51.1Y-71.437
X51.1Y-84.277
X51.1Y-91.437
X51.19Y-21.209
X51.19Y-41.209
X51.19Y-61.209
X51.19Y-81.209
X51.2Y-25.45
X51.2Y-26.15
X51.2Y-26.9
X51.2Y-27.65
X51.2Y-28.4
X51.2Y-29.15
X51.2Y-29.9
X51.2Y-45.45
X51.2Y-46.15
X51.2Y-46.9
X51.2Y-47.65
X51.2Y-48.4
X51.2Y-49.15
X51.2Y-49.9
X51.2Y-65.45
X51.2Y-66.15
X51.2Y-66.9
X51.2Y-67.65
X51.2Y-68.4
X51.2Y-69.15
X51.2Y-69.9
X51.2Y-85.45
X51.2Y-86.15
X51.2Y-86.9
X51.2Y-87.65
X51.2Y-88.4
X51.2Y-89.15
X51.2Y-89.9
X51.45Y-25.8
X51.45Y-26.5
X51.45Y-27.25
X51.45Y-28.0
X51.45Y-28.75
X51.45Y-29.5
X51.45Y-30.25
X51.45Y-45.8
X51.45Y-46.5
X51.45Y-47.25
X51.45Y-48.0
X51.45Y-48.75
X51.45Y-49.5
X51.45Y-50.25
X51.45Y-65.8
X51.45Y-66.5
X51.45Y-67.25
X51.45Y-68.0
X51.45Y-68.75
X51.45Y-69.5
X51.45Y-70.25
X51.45Y-85.8
X51.45Y-86.5
X51.45Y-87.25
X51.45Y-88.0
X51.45Y-88.75
X51.45Y-89.5
X51.45Y-90.25
X51.5Y-24.277
X51.5Y-35.934
X51.5Y-44.277
X51.5Y-55.934
X51.5Y-64.277
X51.5Y-75.934
X51.5Y-84.277
X51.5Y-95.934
X51.75Y-25.45
X51.75Y-26.15
X51.75Y-26.9
X51.75Y-27.65
X51.75Y-28.4
X51.75Y-29.15
X51.75Y-29.9
X51.75Y-45.45
X51.75Y-46.15
X51.75Y-46.9
X51.75Y-47.65
X51.75Y-48.4
X51.75Y-49.15
X51.75Y-49.9
X51.75Y-65.45
X51.75Y-66.15
X51.75Y-66.9
X51.75Y-67.65
X51.75Y-68.4
X51.75Y-69.15
X51.75Y-69.9
X51.75Y-85.45
X51.75Y-86.15
X51.75Y-86.9
X51.75Y-87.65
X51.75Y-88.4
X51.75Y-89.15
X51.75Y-89.9
X51.9Y-24.277
X51.9Y-44.277
X51.9Y-64.277
X51.9Y-84.277
X51.95Y-19.35
X51.95Y-39.35
X51.95Y-59.35
X51.95Y-79.35
X52.0Y-25.8
X52.0Y-26.5
X52.0Y-27.25
X52.0Y-28.0
X52.0Y-28.75
X52.0Y-29.5
X52.0Y-30.25
X52.0Y-45.8
X52.0Y-46.5
X52.0Y-47.25
X52.0Y-48.0
X52.0Y-48.75
X52.0Y-49.5
X52.0Y-50.25
X52.0Y-65.8
X52.0Y-66.5
X52.0Y-67.25
X52.0Y-68.0
X52.0Y-68.75
X52.0Y-69.5
X52.0Y-70.25
X52.0Y-85.8
X52.0Y-86.5
X52.0Y-87.25
X52.0Y-88.0
X52.0Y-88.75
X52.0Y-89.5
X52.0Y-90.25
X52.18Y-22.209
X52.18Y-23.209
X52.18Y-42.209
X52.18Y-43.209
X52.18Y-62.209
X52.18Y-63.209
X52.18Y-82.209
X52.18Y-83.209
X52.21Y-21.209
X52.21Y-41.209
X52.21Y-61.209
X52.21Y-81.209
X52.24Y-32.029
X52.24Y-52.029
X52.24Y-72.029
X52.24Y-92.029
X52.3Y-24.277
X52.3Y-25.45
X52.3Y-26.15
X52.3Y-26.9
X52.3Y-27.65
X52.3Y-28.4
X52.3Y-29.15
X52.3Y-29.9
X52.3Y-31.437
X52.3Y-44.277
X52.3Y-45.45
X52.3Y-46.15
X52.3Y-46.9
X52.3Y-47.65
X52.3Y-48.4
X52.3Y-49.15
X52.3Y-49.9
X52.3Y-51.437
X52.3Y-64.277
X52.3Y-65.45
X52.3Y-66.15
X52.3Y-66.9
X52.3Y-67.65
X52.3Y-68.4
X52.3Y-69.15
X52.3Y-69.9
X52.3Y-71.437
X52.3Y-84.277
X52.3Y-85.45
X52.3Y-86.15
X52.3Y-86.9
X52.3Y-87.65
X52.3Y-88.4
X52.3Y-89.15
X52.3Y-89.9
X52.3Y-91.437
X52.34Y-19.869
X52.34Y-39.869
X52.34Y-59.869
X52.34Y-79.869
X52.55Y-25.8
X52.55Y-26.5
X52.55Y-27.25
X52.55Y-28.0
X52.55Y-28.75
X52.55Y-29.5
X52.55Y-30.25
X52.55Y-45.8
X52.55Y-46.5
X52.55Y-47.25
X52.55Y-48.0
X52.55Y-48.75
X52.55Y-49.5
X52.55Y-50.25
X52.55Y-65.8
X52.55Y-66.5
X52.55Y-67.25
X52.55Y-68.0
X52.55Y-68.75
X52.55Y-69.5
X52.55Y-70.25
X52.55Y-85.8
X52.55Y-86.5
X52.55Y-87.25
X52.55Y-88.0
X52.55Y-88.75
X52.55Y-89.5
X52.55Y-90.25
X52.6Y-19.4
X52.6Y-39.4
X52.6Y-59.4
X52.6Y-79.4
X52.7Y-24.277
X52.7Y-44.277
X52.7Y-64.277
X52.7Y-84.277
X52.85Y-25.45
X52.85Y-26.15
X52.85Y-26.9
X52.85Y-27.65
X52.85Y-28.4
X52.85Y-29.15
X52.85Y-29.9
X52.85Y-45.45
X52.85Y-46.15
X52.85Y-46.9
X52.85Y-47.65
X52.85Y-48.4
X52.85Y-49.15
X52.85Y-49.9
X52.85Y-65.45
X52.85Y-66.15
X52.85Y-66.9
X52.85Y-67.65
X52.85Y-68.4
X52.85Y-69.15
X52.85Y-69.9
X52.85Y-85.45
X52.85Y-86.15
X52.85Y-86.9
X52.85Y-87.65
X52.85Y-88.4
X52.85Y-89.15
X52.85Y-89.9
X53.0Y-35.934
X53.0Y-55.934
X53.0Y-75.934
X53.0Y-95.934
X53.051Y-23.047
X53.051Y-43.047
X53.051Y-63.047
X53.051Y-83.047
X53.1Y-24.277
X53.1Y-25.8
X53.1Y-26.5
X53.1Y-27.25
X53.1Y-28.0
X53.1Y-28.75
X53.1Y-29.5
X53.1Y-30.25
X53.1Y-44.277
X53.1Y-45.8
X53.1Y-46.5
X53.1Y-47.25
X53.1Y-48.0
X53.1Y-48.75
X53.1Y-49.5
X53.1Y-50.25
X53.1Y-64.277
X53.1Y-65.8
X53.1Y-66.5
X53.1Y-67.25
X53.1Y-68.0
X53.1Y-68.75
X53.1Y-69.5
X53.1Y-70.25
X53.1Y-84.277
X53.1Y-85.8
X53.1Y-86.5
X53.1Y-87.25
X53.1Y-88.0
X53.1Y-88.75
X53.1Y-89.5
X53.1Y-90.25
X53.2Y-22.229
X53.2Y-42.229
X53.2Y-62.229
X53.2Y-82.229
X53.25Y-19.359
X53.25Y-39.359
X53.25Y-59.359
X53.25Y-79.359
X53.4Y-25.45
X53.4Y-26.15
X53.4Y-26.9
X53.4Y-27.65
X53.4Y-28.4
X53.4Y-29.15
X53.4Y-29.9
X53.4Y-45.45
X53.4Y-46.15
X53.4Y-46.9
X53.4Y-47.65
X53.4Y-48.4
X53.4Y-49.15
X53.4Y-49.9
X53.4Y-65.45
X53.4Y-66.15
X53.4Y-66.9
X53.4Y-67.65
X53.4Y-68.4
X53.4Y-69.15
X53.4Y-69.9
X53.4Y-85.45
X53.4Y-86.15
X53.4Y-86.9
X53.4Y-87.65
X53.4Y-88.4
X53.4Y-89.15
X53.4Y-89.9
X53.5Y-24.277
X53.5Y-44.277
X53.5Y-64.277
X53.5Y-84.277
X53.62Y-33.669
X53.62Y-53.669
X53.62Y-73.669
X53.62Y-93.669
X53.65Y-25.8
X53.65Y-26.5
X53.65Y-27.25
X53.65Y-28.0
X53.65Y-28.75
X53.65Y-29.5
X53.65Y-30.25
X53.65Y-45.8
X53.65Y-46.5
X53.65Y-47.25
X53.65Y-48.0
X53.65Y-48.75
X53.65Y-49.5
X53.65Y-50.25
X53.65Y-65.8
X53.65Y-66.5
X53.65Y-67.25
X53.65Y-68.0
X53.65Y-68.75
X53.65Y-69.5
X53.65Y-70.25
X53.65Y-85.8
X53.65Y-86.5
X53.65Y-87.25
X53.65Y-88.0
X53.65Y-88.75
X53.65Y-89.5
X53.65Y-90.25
X53.88Y-19.769
X53.88Y-39.769
X53.88Y-59.769
X53.88Y-79.769
X53.95Y-25.45
X53.95Y-26.15
X53.95Y-26.9
X53.95Y-27.65
X53.95Y-28.4
X53.95Y-29.15
X53.95Y-29.9
X53.95Y-45.45
X53.95Y-46.15
X53.95Y-46.9
X53.95Y-47.65
X53.95Y-48.4
X53.95Y-49.15
X53.95Y-49.9
X53.95Y-65.45
X53.95Y-66.15
X53.95Y-66.9
X53.95Y-67.65
X53.95Y-68.4
X53.95Y-69.15
X53.95Y-69.9
X53.95Y-85.45
X53.95Y-86.15
X53.95Y-86.9
X53.95Y-87.65
X53.95Y-88.4
X53.95Y-89.15
X53.95Y-89.9
X54.09Y-33.579
X54.09Y-53.579
X54.09Y-73.579
X54.09Y-93.579
X54.16Y-33.059
X54.16Y-53.059
X54.16Y-73.059
X54.16Y-93.059
X54.2Y-25.8
X54.2Y-26.5
X54.2Y-27.25
X54.2Y-28.0
X54.2Y-28.75
X54.2Y-29.5
X54.2Y-30.25
X54.2Y-45.8
X54.2Y-46.5
X54.2Y-47.25
X54.2Y-48.0
X54.2Y-48.75
X54.2Y-49.5
X54.2Y-50.25
X54.2Y-65.8
X54.2Y-66.5
X54.2Y-67.25
X54.2Y-68.0
X54.2Y-68.75
X54.2Y-69.5
X54.2Y-70.25
X54.2Y-85.8
X54.2Y-86.5
X54.2Y-87.25
X54.2Y-88.0
X54.2Y-88.75
X54.2Y-89.5
X54.2Y-90.25
X54.462Y-20.58
X54.462Y-40.58
X54.462Y-60.58
X54.462Y-80.58
X54.5Y-25.45
X54.5Y-26.15
X54.5Y-26.9
X54.5Y-27.65
X54.5Y-28.4
X54.5Y-29.15
X54.5Y-29.9
X54.5Y-35.934
X54.5Y-45.45
X54.5Y-46.15
X54.5Y-46.9
X54.5Y-47.65
X54.5Y-48.4
X54.5Y-49.15
X54.5Y-49.9
X54.5Y-55.934
X54.5Y-65.45
X54.5Y-66.15
X54.5Y-66.9
X54.5Y-67.65
X54.5Y-68.4
X54.5Y-69.15
X54.5Y-69.9
X54.5Y-75.934
X54.5Y-85.45
X54.5Y-86.15
X54.5Y-86.9
X54.5Y-87.65
X54.5Y-88.4
X54.5Y-89.15
X54.5Y-89.9
X54.5Y-95.934
X54.75Y-25.8
X54.75Y-26.5
X54.75Y-27.25
X54.75Y-28.0
X54.75Y-28.75
X54.75Y-29.5
X54.75Y-30.25
X54.75Y-45.8
X54.75Y-46.5
X54.75Y-47.25
X54.75Y-48.0
X54.75Y-48.75
X54.75Y-49.5
X54.75Y-50.25
X54.75Y-65.8
X54.75Y-66.5
X54.75Y-67.25
X54.75Y-68.0
X54.75Y-68.75
X54.75Y-69.5
X54.75Y-70.25
X54.75Y-85.8
X54.75Y-86.5
X54.75Y-87.25
X54.75Y-88.0
X54.75Y-88.75
X54.75Y-89.5
X54.75Y-90.25
X54.86Y-32.789
X54.86Y-52.789
X54.86Y-72.789
X54.86Y-92.789
X54.91Y-33.499
X54.91Y-53.499
X54.91Y-73.499
X54.91Y-93.499
X55.05Y-25.45
X55.05Y-26.15
X55.05Y-26.9
X55.05Y-27.65
X55.05Y-28.4
X55.05Y-29.15
X55.05Y-29.9
X55.05Y-45.45
X55.05Y-46.15
X55.05Y-46.9
X55.05Y-47.65
X55.05Y-48.4
X55.05Y-49.15
X55.05Y-49.9
X55.05Y-65.45
X55.05Y-66.15
X55.05Y-66.9
X55.05Y-67.65
X55.05Y-68.4
X55.05Y-69.15
X55.05Y-69.9
X55.05Y-85.45
X55.05Y-86.15
X55.05Y-86.9
X55.05Y-87.65
X55.05Y-88.4
X55.05Y-89.15
X55.05Y-89.9
X55.3Y-25.8
X55.3Y-26.5
X55.3Y-27.25
X55.3Y-28.0
X55.3Y-28.75
X55.3Y-29.5
X55.3Y-30.25
X55.3Y-32.329
X55.3Y-45.8
X55.3Y-46.5
X55.3Y-47.25
X55.3Y-48.0
X55.3Y-48.75
X55.3Y-49.5
X55.3Y-50.25
X55.3Y-52.329
X55.3Y-65.8
X55.3Y-66.5
X55.3Y-67.25
X55.3Y-68.0
X55.3Y-68.75
X55.3Y-69.5
X55.3Y-70.25
X55.3Y-72.329
X55.3Y-85.8
X55.3Y-86.5
X55.3Y-87.25
X55.3Y-88.0
X55.3Y-88.75
X55.3Y-89.5
X55.3Y-90.25
X55.3Y-92.329
X55.55Y-25.45
X55.55Y-26.15
X55.55Y-26.9
X55.55Y-27.65
X55.55Y-28.4
X55.55Y-29.15
X55.55Y-29.9
X55.55Y-45.45
X55.55Y-46.15
X55.55Y-46.9
X55.55Y-47.65
X55.55Y-48.4
X55.55Y-49.15
X55.55Y-49.9
X55.55Y-65.45
X55.55Y-66.15
X55.55Y-66.9
X55.55Y-67.65
X55.55Y-68.4
X55.55Y-69.15
X55.55Y-69.9
X55.55Y-85.45
X55.55Y-86.15
X55.55Y-86.9
X55.55Y-87.65
X55.55Y-88.4
X55.55Y-89.15
X55.55Y-89.9
X55.57Y-33.149
X55.57Y-53.149
X55.57Y-73.149
X55.57Y-93.149
X55.61Y-32.739
X55.61Y-52.739
X55.61Y-72.739
X55.61Y-92.739
X55.65Y-33.589
X55.65Y-53.589
X55.65Y-73.589
X55.65Y-93.589
X55.87Y-19.829
X55.87Y-39.829
X55.87Y-59.829
X55.87Y-79.829
X56.0Y-35.934
X56.0Y-55.934
X56.0Y-75.934
X56.0Y-95.934
X56.036Y-20.554
X56.036Y-40.554
X56.036Y-60.554
X56.036Y-80.554
X56.28Y-31.049
X56.28Y-51.049
X56.28Y-71.049
X56.28Y-91.049
X56.34Y-31.859
X56.34Y-32.979
X56.34Y-51.859
X56.34Y-52.979
X56.34Y-71.859
X56.34Y-72.979
X56.34Y-91.859
X56.34Y-92.979
X56.37Y-33.569
X56.37Y-53.569
X56.37Y-73.569
X56.37Y-93.569
X56.45Y-23.249
X56.45Y-43.249
X56.45Y-63.249
X56.45Y-83.249
X56.47Y-31.499
X56.47Y-51.499
X56.47Y-71.499
X56.47Y-91.499
X56.67Y-25.057
X56.67Y-25.457
X56.67Y-27.057
X56.67Y-45.057
X56.67Y-45.457
X56.67Y-47.057
X56.67Y-65.057
X56.67Y-65.457
X56.67Y-67.057
X56.67Y-85.057
X56.67Y-85.457
X56.67Y-87.057
X56.72Y-31.839
X56.72Y-51.839
X56.72Y-71.839
X56.72Y-91.839
X56.727Y-21.539
X56.727Y-41.539
X56.727Y-61.539
X56.727Y-81.539
X56.75Y-32.239
X56.75Y-52.239
X56.75Y-72.239
X56.75Y-92.239
X56.78Y-31.069
X56.78Y-51.069
X56.78Y-71.069
X56.78Y-91.069
X56.96Y-33.619
X56.96Y-53.619
X56.96Y-73.619
X56.96Y-93.619
X57.04Y-23.419
X57.04Y-43.419
X57.04Y-63.419
X57.04Y-83.419
X57.45Y-27.059
X57.45Y-47.059
X57.45Y-67.059
X57.45Y-87.059
X57.5Y-35.934
X57.5Y-55.934
X57.5Y-75.934
X57.5Y-95.934
X57.54Y-23.049
X57.54Y-43.049
X57.54Y-63.049
X57.54Y-83.049
X57.62Y-19.799
X57.62Y-39.799
X57.62Y-59.799
X57.62Y-79.799
X57.85Y-27.059
X57.85Y-47.059
X57.85Y-67.059
X57.85Y-87.059
X57.911Y-26.217
X57.911Y-46.217
X57.911Y-66.217
X57.911Y-86.217
X58.0Y-23.629
X58.0Y-43.629
X58.0Y-63.629
X58.0Y-83.629
X58.092Y-25.128
X58.092Y-45.128
X58.092Y-65.128
X58.092Y-85.128
X58.35Y-27.05
X58.35Y-47.05
X58.35Y-67.05
X58.35Y-87.05
X58.401Y-32.029
X58.401Y-52.029
X58.401Y-72.029
X58.401Y-92.029
X58.703Y-25.435
X58.703Y-45.435
X58.703Y-65.435
X58.703Y-85.435
X58.738Y-23.92
X58.738Y-43.92
X58.738Y-63.92
X58.738Y-83.92
X58.78Y-31.429
X58.78Y-51.429
X58.78Y-71.429
X58.78Y-91.429
X58.85Y-26.95
X58.85Y-46.95
X58.85Y-66.95
X58.85Y-86.95
X59.0Y-35.934
X59.0Y-55.934
X59.0Y-75.934
X59.0Y-95.934
X59.05Y-28.45
X59.05Y-48.45
X59.05Y-68.45
X59.05Y-88.45
X59.1Y-29.95
X59.1Y-49.95
X59.1Y-69.95
X59.1Y-89.95
X59.53Y-19.819
X59.53Y-39.819
X59.53Y-59.819
X59.53Y-79.819
X59.6Y-26.95
X59.6Y-28.5
X59.6Y-46.95
X59.6Y-48.5
X59.6Y-66.95
X59.6Y-68.5
X59.6Y-86.95
X59.6Y-88.5
X59.74Y-32.509
X59.74Y-52.509
X59.74Y-72.509
X59.74Y-92.509
X59.8Y-30.2
X59.8Y-50.2
X59.8Y-70.2
X59.8Y-90.2
X59.85Y-26.55
X59.85Y-27.659
X59.85Y-28.1
X59.85Y-29.059
X59.85Y-29.75
X59.85Y-46.55
X59.85Y-47.659
X59.85Y-48.1
X59.85Y-49.059
X59.85Y-49.75
X59.85Y-66.55
X59.85Y-67.659
X59.85Y-68.1
X59.85Y-69.059
X59.85Y-69.75
X59.85Y-86.55
X59.85Y-87.659
X59.85Y-88.1
X59.85Y-89.059
X59.85Y-89.75
X59.9Y-27.25
X59.9Y-31.2
X59.9Y-47.25
X59.9Y-51.2
X59.9Y-67.25
X59.9Y-71.2
X59.9Y-87.25
X59.9Y-91.2
X59.94Y-32.059
X59.94Y-52.059
X59.94Y-72.059
X59.94Y-92.059
X59.95Y-26.159
X59.95Y-30.759
X59.95Y-46.159
X59.95Y-50.759
X59.95Y-66.159
X59.95Y-70.759
X59.95Y-86.159
X59.95Y-90.759
X60.1Y-26.9
X60.1Y-28.5
X60.1Y-31.6
X60.1Y-46.9
X60.1Y-48.5
X60.1Y-51.6
X60.1Y-66.9
X60.1Y-68.5
X60.1Y-71.6
X60.1Y-86.9
X60.1Y-88.5
X60.1Y-91.6
X60.5Y-19.784
X60.5Y-35.934
X60.5Y-39.784
X60.5Y-55.934
X60.5Y-59.784
X60.5Y-75.934
X60.5Y-79.784
X60.5Y-95.934
X60.75Y-29.95
X60.75Y-49.95
X60.75Y-69.95
X60.75Y-89.95
X61.75Y-22.559
X61.75Y-42.559
X61.75Y-62.559
X61.75Y-82.559
X61.9Y-22.15
X61.9Y-42.15
X61.9Y-62.15
X61.9Y-82.15
X62.0Y-19.784
X62.0Y-35.934
X62.0Y-39.784
X62.0Y-55.934
X62.0Y-59.784
X62.0Y-75.934
X62.0Y-79.784
X62.0Y-95.934
X62.35Y-22.259
X62.35Y-24.057
X62.35Y-24.457
X62.35Y-24.857
X62.35Y-28.857
X62.35Y-29.257
X62.35Y-29.657
X62.35Y-30.057
X62.35Y-30.457
X62.35Y-30.857
X62.35Y-31.257
X62.35Y-31.657
X62.35Y-42.259
X62.35Y-44.057
X62.35Y-44.457
X62.35Y-44.857
X62.35Y-48.857
X62.35Y-49.257
X62.35Y-49.657
X62.35Y-50.057
X62.35Y-50.457
X62.35Y-50.857
X62.35Y-51.257
X62.35Y-51.657
X62.35Y-62.259
X62.35Y-64.057
X62.35Y-64.457
X62.35Y-64.857
X62.35Y-68.857
X62.35Y-69.257
X62.35Y-69.657
X62.35Y-70.057
X62.35Y-70.457
X62.35Y-70.857
X62.35Y-71.257
X62.35Y-71.657
X62.35Y-82.259
X62.35Y-84.057
X62.35Y-84.457
X62.35Y-84.857
X62.35Y-88.857
X62.35Y-89.257
X62.35Y-89.657
X62.35Y-90.057
X62.35Y-90.457
X62.35Y-90.857
X62.35Y-91.257
X62.35Y-91.657
X63.15Y-28.05
X63.15Y-28.5
X63.15Y-48.05
X63.15Y-48.5
X63.15Y-68.05
X63.15Y-68.5
X63.15Y-88.05
X63.15Y-88.5
X63.25Y-27.45
X63.25Y-47.45
X63.25Y-67.45
X63.25Y-87.45
X63.359Y-27.026
X63.359Y-47.026
X63.359Y-67.026
X63.359Y-87.026
X63.5Y-22.08
X63.5Y-29.2
X63.5Y-35.934
X63.5Y-42.08
X63.5Y-49.2
X63.5Y-55.934
X63.5Y-62.08
X63.5Y-69.2
X63.5Y-75.934
X63.5Y-82.08
X63.5Y-89.2
X63.5Y-95.934
X63.683Y-25.493
X63.683Y-45.493
X63.683Y-65.493
X63.683Y-85.493
X63.85Y-28.6
X63.85Y-29.6
X63.85Y-48.6
X63.85Y-49.6
X63.85Y-68.6
X63.85Y-69.6
X63.85Y-88.6
X63.85Y-89.6
X63.9Y-27.45
X63.9Y-28.15
X63.9Y-47.45
X63.9Y-48.15
X63.9Y-67.45
X63.9Y-68.15
X63.9Y-87.45
X63.9Y-88.15
X63.95Y-29.2
X63.95Y-49.2
X63.95Y-69.2
X63.95Y-89.2
X64.75Y-24.057
X64.75Y-24.457
X64.75Y-24.857
X64.75Y-26.057
X64.75Y-27.657
X64.75Y-29.657
X64.75Y-31.657
X64.75Y-44.057
X64.75Y-44.457
X64.75Y-44.857
X64.75Y-46.057
X64.75Y-47.657
X64.75Y-49.657
X64.75Y-51.657
X64.75Y-64.057
X64.75Y-64.457
X64.75Y-64.857
X64.75Y-66.057
X64.75Y-67.657
X64.75Y-69.657
X64.75Y-71.657
X64.75Y-84.057
X64.75Y-84.457
X64.75Y-84.857
X64.75Y-86.057
X64.75Y-87.657
X64.75Y-89.657
X64.75Y-91.657
X64.95Y-33.359
X64.95Y-53.359
X64.95Y-73.359
X64.95Y-93.359
X65.0Y-35.934
X65.0Y-55.934
X65.0Y-75.934
X65.0Y-95.934
X65.434Y-29.105
X65.434Y-49.105
X65.434Y-69.105
X65.434Y-89.105
X65.45Y-27.3
X65.45Y-47.3
X65.45Y-67.3
X65.45Y-87.3
X65.459Y-31.423
X65.459Y-51.423
X65.459Y-71.423
X65.459Y-91.423
X65.5Y-28.4
X65.5Y-48.4
X65.5Y-68.4
X65.5Y-88.4
X65.511Y-33.34
X65.511Y-53.34
X65.511Y-73.34
X65.511Y-93.34
X65.55Y-29.9
X65.55Y-49.9
X65.55Y-69.9
X65.55Y-89.9
X68.285Y-33.017
X68.285Y-53.017
X68.285Y-73.017
X68.285Y-93.017
X68.305Y-30.432
X68.305Y-50.432
X68.305Y-70.432
X68.305Y-90.432
X68.379Y-28.205
X68.379Y-48.205
X68.379Y-68.205
X68.379Y-88.205
X68.41Y-22.179
X68.41Y-42.179
X68.41Y-62.179
X68.41Y-82.179
X68.45Y-27.3
X68.45Y-47.3
X68.45Y-67.3
X68.45Y-87.3
X68.458Y-26.162
X68.458Y-46.162
X68.458Y-66.162
X68.458Y-86.162
X68.992Y-35.115
X68.992Y-55.115
X68.992Y-75.115
X68.992Y-95.115
X69.0Y-33.716
X69.0Y-53.716
X69.0Y-73.716
X69.0Y-93.716
X69.15Y-27.257
X69.15Y-28.457
X69.15Y-29.257
X69.15Y-30.057
X69.15Y-30.457
X69.15Y-31.257
X69.15Y-31.657
X69.15Y-47.257
X69.15Y-48.457
X69.15Y-49.257
X69.15Y-50.057
X69.15Y-50.457
X69.15Y-51.257
X69.15Y-51.657
X69.15Y-67.257
X69.15Y-68.457
X69.15Y-69.257
X69.15Y-70.057
X69.15Y-70.457
X69.15Y-71.257
X69.15Y-71.657
X69.15Y-87.257
X69.15Y-88.457
X69.15Y-89.257
X69.15Y-90.057
X69.15Y-90.457
X69.15Y-91.257
X69.15Y-91.657
X69.4Y-19.884
X69.4Y-39.884
X69.4Y-59.884
X69.4Y-79.884
X69.56Y-29.349
X69.56Y-49.349
X69.56Y-69.349
X69.56Y-89.349
X69.707Y-23.713
X69.707Y-43.713
X69.707Y-63.713
X69.707Y-83.713
X69.82Y-26.449
X69.82Y-46.449
X69.82Y-66.449
X69.82Y-86.449
X69.972Y-27.296
X69.972Y-47.296
X69.972Y-67.296
X69.972Y-87.296
X70.249Y-31.207
X70.249Y-51.207
X70.249Y-71.207
X70.249Y-91.207
X70.26Y-26.519
X70.26Y-46.519
X70.26Y-66.519
X70.26Y-86.519
X70.326Y-25.737
X70.326Y-45.737
X70.326Y-65.737
X70.326Y-85.737
X70.355Y-23.116
X70.355Y-43.116
X70.355Y-63.116
X70.355Y-83.116
X70.39Y-26.159
X70.39Y-46.159
X70.39Y-66.159
X70.39Y-86.159
X70.442Y-23.956
X70.442Y-43.956
X70.442Y-63.956
X70.442Y-83.956
X70.445Y-28.457
X70.445Y-48.457
X70.445Y-68.457
X70.445Y-88.457
X70.45Y-28.057
X70.45Y-48.057
X70.45Y-68.057
X70.45Y-88.057
X70.457Y-27.656
X70.457Y-47.656
X70.457Y-67.656
X70.457Y-87.656
X70.47Y-35.083
X70.47Y-55.083
X70.47Y-75.083
X70.47Y-95.083
X70.5Y-35.934
X70.5Y-55.934
X70.5Y-75.934
X70.5Y-95.934
X70.693Y-30.038
X70.693Y-50.038
X70.693Y-70.038
X70.693Y-90.038
X70.71Y-27.219
X70.71Y-47.219
X70.71Y-67.219
X70.71Y-87.219
X70.763Y-26.088
X70.763Y-46.088
X70.763Y-66.088
X70.763Y-86.088
X70.79Y-26.499
X70.79Y-46.499
X70.79Y-66.499
X70.79Y-86.499
X70.898Y-23.96
X70.898Y-43.96
X70.898Y-63.96
X70.898Y-83.96
X71.107Y-24.857
X71.107Y-44.857
X71.107Y-64.857
X71.107Y-84.857
X71.4Y-19.884
X71.4Y-39.884
X71.4Y-59.884
X71.4Y-79.884
X71.55Y-26.457
X71.55Y-26.857
X71.55Y-27.257
X71.55Y-28.857
X71.55Y-29.257
X71.55Y-29.657
X71.55Y-30.057
X71.55Y-30.857
X71.55Y-46.457
X71.55Y-46.857
X71.55Y-47.257
X71.55Y-48.857
X71.55Y-49.257
X71.55Y-49.657
X71.55Y-50.057
X71.55Y-50.857
X71.55Y-66.457
X71.55Y-66.857
X71.55Y-67.257
X71.55Y-68.857
X71.55Y-69.257
X71.55Y-69.657
X71.55Y-70.057
X71.55Y-70.857
X71.55Y-86.457
X71.55Y-86.857
X71.55Y-87.257
X71.55Y-88.857
X71.55Y-89.257
X71.55Y-89.657
X71.55Y-90.057
X71.55Y-90.857
X72.0Y-35.934
X72.0Y-55.934
X72.0Y-75.934
X72.0Y-95.934
X72.35Y-20.059
X72.35Y-40.059
X72.35Y-60.059
X72.35Y-80.059
X72.95Y-25.459
X72.95Y-45.459
X72.95Y-65.459
X72.95Y-85.459
X73.175Y-24.709
X73.175Y-44.709
X73.175Y-64.709
X73.175Y-84.709
X73.4Y-19.884
X73.4Y-25.449
X73.4Y-39.884
X73.4Y-45.449
X73.4Y-59.884
X73.4Y-65.449
X73.4Y-79.884
X73.4Y-85.449
X73.5Y-35.934
X73.5Y-55.934
X73.5Y-75.934
X73.5Y-95.934
X73.68Y-29.857
X73.68Y-49.857
X73.68Y-69.857
X73.68Y-89.857
X73.95Y-26.259
X73.95Y-46.259
X73.95Y-66.259
X73.95Y-86.259
X73.96Y-26.766
X73.96Y-46.766
X73.96Y-66.766
X73.96Y-86.766
X73.98Y-28.871
X73.98Y-48.871
X73.98Y-68.871
X73.98Y-88.871
X74.095Y-24.758
X74.095Y-44.758
X74.095Y-64.758
X74.095Y-84.758
X74.11Y-25.199
X74.11Y-45.199
X74.11Y-65.199
X74.11Y-85.199
X74.343Y-28.504
X74.343Y-48.504
X74.343Y-68.504
X74.343Y-88.504
X74.4Y-19.4
X74.4Y-19.9
X74.4Y-20.5
X74.4Y-39.4
X74.4Y-39.9
X74.4Y-40.5
X74.4Y-59.4
X74.4Y-59.9
X74.4Y-60.5
X74.4Y-79.4
X74.4Y-79.9
X74.4Y-80.5
X74.76Y-25.949
X74.76Y-45.949
X74.76Y-65.949
X74.76Y-85.949
X74.825Y-23.209
X74.825Y-43.209
X74.825Y-63.209
X74.825Y-83.209
X75.0Y-35.934
X75.0Y-55.934
X75.0Y-75.934
X75.0Y-95.934
X75.4Y-20.409
X75.4Y-21.534
X75.4Y-40.409
X75.4Y-41.534
X75.4Y-60.409
X75.4Y-61.534
X75.4Y-80.409
X75.4Y-81.534
X75.415Y-24.704
X75.415Y-44.704
X75.415Y-64.704
X75.415Y-84.704
X75.61Y-25.391
X75.61Y-45.391
X75.61Y-65.391
X75.61Y-85.391
X75.63Y-25.769
X75.63Y-45.769
X75.63Y-65.769
X75.63Y-85.769
X75.636Y-26.219
X75.636Y-46.219
X75.636Y-66.219
X75.636Y-86.219
X75.661Y-30.954
X75.661Y-50.954
X75.661Y-70.954
X75.661Y-90.954
X75.677Y-31.859
X75.677Y-51.859
X75.677Y-71.859
X75.677Y-91.859
X75.694Y-25.026
X75.694Y-45.026
X75.694Y-65.026
X75.694Y-85.026
X75.695Y-32.379
X75.695Y-52.379
X75.695Y-72.379
X75.695Y-92.379
X75.74Y-27.25
X75.74Y-47.25
X75.74Y-67.25
X75.74Y-87.25
X75.78Y-30.099
X75.78Y-50.099
X75.78Y-70.099
X75.78Y-90.099
X76.29Y-28.671
X76.29Y-48.671
X76.29Y-68.671
X76.29Y-88.671
X76.395Y-21.525
X76.395Y-41.525
X76.395Y-61.525
X76.395Y-81.525
X76.5Y-35.934
X76.5Y-55.934
X76.5Y-75.934
X76.5Y-95.934
X76.7Y-19.35
X76.7Y-39.35
X76.7Y-59.35
X76.7Y-79.35
X76.75Y-28.461
X76.75Y-28.868
X76.75Y-48.461
X76.75Y-48.868
X76.75Y-68.461
X76.75Y-68.868
X76.75Y-88.461
X76.75Y-88.868
X76.913Y-21.002
X76.913Y-41.002
X76.913Y-61.002
X76.913Y-81.002
X77.25Y-19.35
X77.25Y-39.35
X77.25Y-59.35
X77.25Y-79.35
X77.399Y-21.14
X77.399Y-41.14
X77.399Y-61.14
X77.399Y-81.14
X77.516Y-31.875
X77.516Y-51.875
X77.516Y-71.875
X77.516Y-91.875
X77.53Y-25.057
X77.53Y-25.457
X77.53Y-25.857
X77.53Y-26.257
X77.53Y-26.657
X77.53Y-27.057
X77.53Y-27.457
X77.53Y-27.857
X77.53Y-28.257
X77.53Y-29.057
X77.53Y-29.457
X77.53Y-29.857
X77.53Y-45.057
X77.53Y-45.457
X77.53Y-45.857
X77.53Y-46.257
X77.53Y-46.657
X77.53Y-47.057
X77.53Y-47.457
X77.53Y-47.857
X77.53Y-48.257
X77.53Y-49.057
X77.53Y-49.457
X77.53Y-49.857
X77.53Y-65.057
X77.53Y-65.457
X77.53Y-65.857
X77.53Y-66.257
X77.53Y-66.657
X77.53Y-67.057
X77.53Y-67.457
X77.53Y-67.857
X77.53Y-68.257
X77.53Y-69.057
X77.53Y-69.457
X77.53Y-69.857
X77.53Y-85.057
X77.53Y-85.457
X77.53Y-85.857
X77.53Y-86.257
X77.53Y-86.657
X77.53Y-87.057
X77.53Y-87.457
X77.53Y-87.857
X77.53Y-88.257
X77.53Y-89.057
X77.53Y-89.457
X77.53Y-89.857
X77.55Y-19.7
X77.55Y-39.7
X77.55Y-59.7
X77.55Y-79.7
X77.916Y-31.867
X77.916Y-51.867
X77.916Y-71.867
X77.916Y-91.867
X78.0Y-19.7
X78.0Y-35.934
X78.0Y-39.7
X78.0Y-55.934
X78.0Y-59.7
X78.0Y-75.934
X78.0Y-79.7
X78.0Y-95.934
X78.1Y-22.109
X78.1Y-22.509
X78.1Y-42.109
X78.1Y-42.509
X78.1Y-62.109
X78.1Y-62.509
X78.1Y-82.109
X78.1Y-82.509
X78.2Y-19.35
X78.2Y-39.35
X78.2Y-59.35
X78.2Y-79.35
X78.5Y-22.109
X78.5Y-22.509
X78.5Y-42.109
X78.5Y-42.509
X78.5Y-62.109
X78.5Y-62.509
X78.5Y-82.109
X78.5Y-82.509
X78.65Y-25.45
X78.65Y-26.15
X78.65Y-26.9
X78.65Y-27.65
X78.65Y-28.4
X78.65Y-29.15
X78.65Y-29.9
X78.65Y-45.45
X78.65Y-46.15
X78.65Y-46.9
X78.65Y-47.65
X78.65Y-48.4
X78.65Y-49.15
X78.65Y-49.9
X78.65Y-65.45
X78.65Y-66.15
X78.65Y-66.9
X78.65Y-67.65
X78.65Y-68.4
X78.65Y-69.15
X78.65Y-69.9
X78.65Y-85.45
X78.65Y-86.15
X78.65Y-86.9
X78.65Y-87.65
X78.65Y-88.4
X78.65Y-89.15
X78.65Y-89.9
X78.85Y-20.259
X78.85Y-40.259
X78.85Y-60.259
X78.85Y-80.259
X78.9Y-22.109
X78.9Y-22.509
X78.9Y-25.8
X78.9Y-26.5
X78.9Y-27.25
X78.9Y-28.0
X78.9Y-28.75
X78.9Y-29.5
X78.9Y-30.25
X78.9Y-42.109
X78.9Y-42.509
X78.9Y-45.8
X78.9Y-46.5
X78.9Y-47.25
X78.9Y-48.0
X78.9Y-48.75
X78.9Y-49.5
X78.9Y-50.25
X78.9Y-62.109
X78.9Y-62.509
X78.9Y-65.8
X78.9Y-66.5
X78.9Y-67.25
X78.9Y-68.0
X78.9Y-68.75
X78.9Y-69.5
X78.9Y-70.25
X78.9Y-82.109
X78.9Y-82.509
X78.9Y-85.8
X78.9Y-86.5
X78.9Y-87.25
X78.9Y-88.0
X78.9Y-88.75
X78.9Y-89.5
X78.9Y-90.25
X79.1Y-24.277
X79.1Y-31.437
X79.1Y-44.277
X79.1Y-51.437
X79.1Y-64.277
X79.1Y-71.437
X79.1Y-84.277
X79.1Y-91.437
X79.19Y-21.209
X79.19Y-41.209
X79.19Y-61.209
X79.19Y-81.209
X79.2Y-25.45
X79.2Y-26.15
X79.2Y-26.9
X79.2Y-27.65
X79.2Y-28.4
X79.2Y-29.15
X79.2Y-29.9
X79.2Y-45.45
X79.2Y-46.15
X79.2Y-46.9
X79.2Y-47.65
X79.2Y-48.4
X79.2Y-49.15
X79.2Y-49.9
X79.2Y-65.45
X79.2Y-66.15
X79.2Y-66.9
X79.2Y-67.65
X79.2Y-68.4
X79.2Y-69.15
X79.2Y-69.9
X79.2Y-85.45
X79.2Y-86.15
X79.2Y-86.9
X79.2Y-87.65
X79.2Y-88.4
X79.2Y-89.15
X79.2Y-89.9
X79.45Y-25.8
X79.45Y-26.5
X79.45Y-27.25
X79.45Y-28.0
X79.45Y-28.75
X79.45Y-29.5
X79.45Y-30.25
X79.45Y-45.8
X79.45Y-46.5
X79.45Y-47.25
X79.45Y-48.0
X79.45Y-48.75
X79.45Y-49.5
X79.45Y-50.25
X79.45Y-65.8
X79.45Y-66.5
X79.45Y-67.25
X79.45Y-68.0
X79.45Y-68.75
X79.45Y-69.5
X79.45Y-70.25
X79.45Y-85.8
X79.45Y-86.5
X79.45Y-87.25
X79.45Y-88.0
X79.45Y-88.75
X79.45Y-89.5
X79.45Y-90.25
X79.5Y-24.277
X79.5Y-35.934
X79.5Y-44.277
X79.5Y-55.934
X79.5Y-64.277
X79.5Y-75.934
X79.5Y-84.277
X79.5Y-95.934
X79.75Y-25.45
X79.75Y-26.15
X79.75Y-26.9
X79.75Y-27.65
X79.75Y-28.4
X79.75Y-29.15
X79.75Y-29.9
X79.75Y-45.45
X79.75Y-46.15
X79.75Y-46.9
X79.75Y-47.65
X79.75Y-48.4
X79.75Y-49.15
X79.75Y-49.9
X79.75Y-65.45
X79.75Y-66.15
X79.75Y-66.9
X79.75Y-67.65
X79.75Y-68.4
X79.75Y-69.15
X79.75Y-69.9
X79.75Y-85.45
X79.75Y-86.15
X79.75Y-86.9
X79.75Y-87.65
X79.75Y-88.4
X79.75Y-89.15
X79.75Y-89.9
X79.9Y-24.277
X79.9Y-44.277
X79.9Y-64.277
X79.9Y-84.277
X79.95Y-19.35
X79.95Y-39.35
X79.95Y-59.35
X79.95Y-79.35
X80.0Y-25.8
X80.0Y-26.5
X80.0Y-27.25
X80.0Y-28.0
X80.0Y-28.75
X80.0Y-29.5
X80.0Y-30.25
X80.0Y-45.8
X80.0Y-46.5
X80.0Y-47.25
X80.0Y-48.0
X80.0Y-48.75
X80.0Y-49.5
X80.0Y-50.25
X80.0Y-65.8
X80.0Y-66.5
X80.0Y-67.25
X80.0Y-68.0
X80.0Y-68.75
X80.0Y-69.5
X80.0Y-70.25
X80.0Y-85.8
X80.0Y-86.5
X80.0Y-87.25
X80.0Y-88.0
X80.0Y-88.75
X80.0Y-89.5
X80.0Y-90.25
X80.18Y-22.209
X80.18Y-23.209
X80.18Y-42.209
X80.18Y-43.209
X80.18Y-62.209
X80.18Y-63.209
X80.18Y-82.209
X80.18Y-83.209
X80.21Y-21.209
X80.21Y-41.209
X80.21Y-61.209
X80.21Y-81.209
X80.24Y-32.029
X80.24Y-52.029
X80.24Y-72.029
X80.24Y-92.029
X80.3Y-24.277
X80.3Y-25.45
X80.3Y-26.15
X80.3Y-26.9
X80.3Y-27.65
X80.3Y-28.4
X80.3Y-29.15
X80.3Y-29.9
X80.3Y-31.437
X80.3Y-44.277
X80.3Y-45.45
X80.3Y-46.15
X80.3Y-46.9
X80.3Y-47.65
X80.3Y-48.4
X80.3Y-49.15
X80.3Y-49.9
X80.3Y-51.437
X80.3Y-64.277
X80.3Y-65.45
X80.3Y-66.15
X80.3Y-66.9
X80.3Y-67.65
X80.3Y-68.4
X80.3Y-69.15
X80.3Y-69.9
X80.3Y-71.437
X80.3Y-84.277
X80.3Y-85.45
X80.3Y-86.15
X80.3Y-86.9
X80.3Y-87.65
X80.3Y-88.4
X80.3Y-89.15
X80.3Y-89.9
X80.3Y-91.437
X80.34Y-19.869
X80.34Y-39.869
X80.34Y-59.869
X80.34Y-79.869
X80.55Y-25.8
X80.55Y-26.5
X80.55Y-27.25
X80.55Y-28.0
X80.55Y-28.75
X80.55Y-29.5
X80.55Y-30.25
X80.55Y-45.8
X80.55Y-46.5
X80.55Y-47.25
X80.55Y-48.0
X80.55Y-48.75
X80.55Y-49.5
X80.55Y-50.25
X80.55Y-65.8
X80.55Y-66.5
X80.55Y-67.25
X80.55Y-68.0
X80.55Y-68.75
X80.55Y-69.5
X80.55Y-70.25
X80.55Y-85.8
X80.55Y-86.5
X80.55Y-87.25
X80.55Y-88.0
X80.55Y-88.75
X80.55Y-89.5
X80.55Y-90.25
X80.6Y-19.4
X80.6Y-39.4
X80.6Y-59.4
X80.6Y-79.4
X80.7Y-24.277
X80.7Y-44.277
X80.7Y-64.277
X80.7Y-84.277
X80.85Y-25.45
X80.85Y-26.15
X80.85Y-26.9
X80.85Y-27.65
X80.85Y-28.4
X80.85Y-29.15
X80.85Y-29.9
X80.85Y-45.45
X80.85Y-46.15
X80.85Y-46.9
X80.85Y-47.65
X80.85Y-48.4
X80.85Y-49.15
X80.85Y-49.9
X80.85Y-65.45
X80.85Y-66.15
X80.85Y-66.9
X80.85Y-67.65
X80.85Y-68.4
X80.85Y-69.15
X80.85Y-69.9
X80.85Y-85.45
X80.85Y-86.15
X80.85Y-86.9
X80.85Y-87.65
X80.85Y-88.4
X80.85Y-89.15
X80.85Y-89.9
X81.0Y-35.934
X81.0Y-55.934
X81.0Y-75.934
X81.0Y-95.934
X81.051Y-23.047
X81.051Y-43.047
X81.051Y-63.047
X81.051Y-83.047
X81.1Y-24.277
X81.1Y-25.8
X81.1Y-26.5
X81.1Y-27.25
X81.1Y-28.0
X81.1Y-28.75
X81.1Y-29.5
X81.1Y-30.25
X81.1Y-44.277
X81.1Y-45.8
X81.1Y-46.5
X81.1Y-47.25
X81.1Y-48.0
X81.1Y-48.75
X81.1Y-49.5
X81.1Y-50.25
X81.1Y-64.277
X81.1Y-65.8
X81.1Y-66.5
X81.1Y-67.25
X81.1Y-68.0
X81.1Y-68.75
X81.1Y-69.5
X81.1Y-70.25
X81.1Y-84.277
X81.1Y-85.8
X81.1Y-86.5
X81.1Y-87.25
X81.1Y-88.0
X81.1Y-88.75
X81.1Y-89.5
X81.1Y-90.25
X81.2Y-22.229
X81.2Y-42.229
X81.2Y-62.229
X81.2Y-82.229
X81.25Y-19.359
X81.25Y-39.359
X81.25Y-59.359
X81.25Y-79.359
X81.4Y-25.45
X81.4Y-26.15
X81.4Y-26.9
X81.4Y-27.65
X81.4Y-28.4
X81.4Y-29.15
X81.4Y-29.9
X81.4Y-45.45
X81.4Y-46.15
X81.4Y-46.9
X81.4Y-47.65
X81.4Y-48.4
X81.4Y-49.15
X81.4Y-49.9
X81.4Y-65.45
X81.4Y-66.15
X81.4Y-66.9
X81.4Y-67.65
X81.4Y-68.4
X81.4Y-69.15
X81.4Y-69.9
X81.4Y-85.45
X81.4Y-86.15
X81.4Y-86.9
X81.4Y-87.65
X81.4Y-88.4
X81.4Y-89.15
X81.4Y-89.9
X81.5Y-24.277
X81.5Y-44.277
X81.5Y-64.277
X81.5Y-84.277
X81.62Y-33.669
X81.62Y-53.669
X81.62Y-73.669
X81.62Y-93.669
X81.65Y-25.8
X81.65Y-26.5
X81.65Y-27.25
X81.65Y-28.0
X81.65Y-28.75
X81.65Y-29.5
X81.65Y-30.25
X81.65Y-45.8
X81.65Y-46.5
X81.65Y-47.25
X81.65Y-48.0
X81.65Y-48.75
X81.65Y-49.5
X81.65Y-50.25
X81.65Y-65.8
X81.65Y-66.5
X81.65Y-67.25
X81.65Y-68.0
X81.65Y-68.75
X81.65Y-69.5
X81.65Y-70.25
X81.65Y-85.8
X81.65Y-86.5
X81.65Y-87.25
X81.65Y-88.0
X81.65Y-88.75
X81.65Y-89.5
X81.65Y-90.25
X81.88Y-19.769
X81.88Y-39.769
X81.88Y-59.769
X81.88Y-79.769
X81.95Y-25.45
X81.95Y-26.15
X81.95Y-26.9
X81.95Y-27.65
X81.95Y-28.4
X81.95Y-29.15
X81.95Y-29.9
X81.95Y-45.45
X81.95Y-46.15
X81.95Y-46.9
X81.95Y-47.65
X81.95Y-48.4
X81.95Y-49.15
X81.95Y-49.9
X81.95Y-65.45
X81.95Y-66.15
X81.95Y-66.9
X81.95Y-67.65
X81.95Y-68.4
X81.95Y-69.15
X81.95Y-69.9
X81.95Y-85.45
X81.95Y-86.15
X81.95Y-86.9
X81.95Y-87.65
X81.95Y-88.4
X81.95Y-89.15
X81.95Y-89.9
X82.09Y-33.579
X82.09Y-53.579
X82.09Y-73.579
X82.09Y-93.579
X82.16Y-33.059
X82.16Y-53.059
X82.16Y-73.059
X82.16Y-93.059
X82.2Y-25.8
X82.2Y-26.5
X82.2Y-27.25
X82.2Y-28.0
X82.2Y-28.75
X82.2Y-29.5
X82.2Y-30.25
X82.2Y-45.8
X82.2Y-46.5
X82.2Y-47.25
X82.2Y-48.0
X82.2Y-48.75
X82.2Y-49.5
X82.2Y-50.25
X82.2Y-65.8
X82.2Y-66.5
X82.2Y-67.25
X82.2Y-68.0
X82.2Y-68.75
X82.2Y-69.5
X82.2Y-70.25
X82.2Y-85.8
X82.2Y-86.5
X82.2Y-87.25
X82.2Y-88.0
X82.2Y-88.75
X82.2Y-89.5
X82.2Y-90.25
X82.462Y-20.58
X82.462Y-40.58
X82.462Y-60.58
X82.462Y-80.58
X82.5Y-25.45
X82.5Y-26.15
X82.5Y-26.9
X82.5Y-27.65
X82.5Y-28.4
X82.5Y-29.15
X82.5Y-29.9
X82.5Y-35.934
X82.5Y-45.45
X82.5Y-46.15
X82.5Y-46.9
X82.5Y-47.65
X82.5Y-48.4
X82.5Y-49.15
X82.5Y-49.9
X82.5Y-55.934
X82.5Y-65.45
X82.5Y-66.15
X82.5Y-66.9
X82.5Y-67.65
X82.5Y-68.4
X82.5Y-69.15
X82.5Y-69.9
X82.5Y-75.934
X82.5Y-85.45
X82.5Y-86.15
X82.5Y-86.9
X82.5Y-87.65
X82.5Y-88.4
X82.5Y-89.15
X82.5Y-89.9
X82.5Y-95.934
X82.75Y-25.8
X82.75Y-26.5
X82.75Y-27.25
X82.75Y-28.0
X82.75Y-28.75
X82.75Y-29.5
X82.75Y-30.25
X82.75Y-45.8
X82.75Y-46.5
X82.75Y-47.25
X82.75Y-48.0
X82.75Y-48.75
X82.75Y-49.5
X82.75Y-50.25
X82.75Y-65.8
X82.75Y-66.5
X82.75Y-67.25
X82.75Y-68.0
X82.75Y-68.75
X82.75Y-69.5
X82.75Y-70.25
X82.75Y-85.8
X82.75Y-86.5
X82.75Y-87.25
X82.75Y-88.0
X82.75Y-88.75
X82.75Y-89.5
X82.75Y-90.25
X82.86Y-32.789
X82.86Y-52.789
X82.86Y-72.789
X82.86Y-92.789
X82.91Y-33.499
X82.91Y-53.499
X82.91Y-73.499
X82.91Y-93.499
X83.05Y-25.45
X83.05Y-26.15
X83.05Y-26.9
X83.05Y-27.65
X83.05Y-28.4
X83.05Y-29.15
X83.05Y-29.9
X83.05Y-45.45
X83.05Y-46.15
X83.05Y-46.9
X83.05Y-47.65
X83.05Y-48.4
X83.05Y-49.15
X83.05Y-49.9
X83.05Y-65.45
X83.05Y-66.15
X83.05Y-66.9
X83.05Y-67.65
X83.05Y-68.4
X83.05Y-69.15
X83.05Y-69.9
X83.05Y-85.45
X83.05Y-86.15
X83.05Y-86.9
X83.05Y-87.65
X83.05Y-88.4
X83.05Y-89.15
X83.05Y-89.9
X83.3Y-25.8
X83.3Y-26.5
X83.3Y-27.25
X83.3Y-28.0
X83.3Y-28.75
X83.3Y-29.5
X83.3Y-30.25
X83.3Y-32.329
X83.3Y-45.8
X83.3Y-46.5
X83.3Y-47.25
X83.3Y-48.0
X83.3Y-48.75
X83.3Y-49.5
X83.3Y-50.25
X83.3Y-52.329
X83.3Y-65.8
X83.3Y-66.5
X83.3Y-67.25
X83.3Y-68.0
X83.3Y-68.75
X83.3Y-69.5
X83.3Y-70.25
X83.3Y-72.329
X83.3Y-85.8
X83.3Y-86.5
X83.3Y-87.25
X83.3Y-88.0
X83.3Y-88.75
X83.3Y-89.5
X83.3Y-90.25
X83.3Y-92.329
X83.55Y-25.45
X83.55Y-26.15
X83.55Y-26.9
X83.55Y-27.65
X83.55Y-28.4
X83.55Y-29.15
X83.55Y-29.9
X83.55Y-45.45
X83.55Y-46.15
X83.55Y-46.9
X83.55Y-47.65
X83.55Y-48.4
X83.55Y-49.15
X83.55Y-49.9
X83.55Y-65.45
X83.55Y-66.15
X83.55Y-66.9
X83.55Y-67.65
X83.55Y-68.4
X83.55Y-69.15
X83.55Y-69.9
X83.55Y-85.45
X83.55Y-86.15
X83.55Y-86.9
X83.55Y-87.65
X83.55Y-88.4
X83.55Y-89.15
X83.55Y-89.9
X83.57Y-33.149
X83.57Y-53.149
X83.57Y-73.149
X83.57Y-93.149
X83.61Y-32.739
X83.61Y-52.739
X83.61Y-72.739
X83.61Y-92.739
X83.65Y-33.589
X83.65Y-53.589
X83.65Y-73.589
X83.65Y-93.589
X83.87Y-19.829
X83.87Y-39.829
X83.87Y-59.829
X83.87Y-79.829
X84.0Y-35.934
X84.0Y-55.934
X84.0Y-75.934
X84.0Y-95.934
X84.036Y-20.554
X84.036Y-40.554
X84.036Y-60.554
X84.036Y-80.554
X84.28Y-31.049
X84.28Y-51.049
X84.28Y-71.049
X84.28Y-91.049
X84.34Y-31.859
X84.34Y-32.979
X84.34Y-51.859
X84.34Y-52.979
X84.34Y-71.859
X84.34Y-72.979
X84.34Y-91.859
X84.34Y-92.979
X84.37Y-33.569
X84.37Y-53.569
X84.37Y-73.569
X84.37Y-93.569
X84.45Y-23.249
X84.45Y-43.249
X84.45Y-63.249
X84.45Y-83.249
X84.47Y-31.499
X84.47Y-51.499
X84.47Y-71.499
X84.47Y-91.499
X84.67Y-25.057
X84.67Y-25.457
X84.67Y-27.057
X84.67Y-45.057
X84.67Y-45.457
X84.67Y-47.057
X84.67Y-65.057
X84.67Y-65.457
X84.67Y-67.057
X84.67Y-85.057
X84.67Y-85.457
X84.67Y-87.057
X84.72Y-31.839
X84.72Y-51.839
X84.72Y-71.839
X84.72Y-91.839
X84.727Y-21.539
X84.727Y-41.539
X84.727Y-61.539
X84.727Y-81.539
X84.75Y-32.239
X84.75Y-52.239
X84.75Y-72.239
X84.75Y-92.239
X84.78Y-31.069
X84.78Y-51.069
X84.78Y-71.069
X84.78Y-91.069
X84.96Y-33.619
X84.96Y-53.619
X84.96Y-73.619
X84.96Y-93.619
X85.04Y-23.419
X85.04Y-43.419
X85.04Y-63.419
X85.04Y-83.419
X85.45Y-27.059
X85.45Y-47.059
X85.45Y-67.059
X85.45Y-87.059
X85.5Y-35.934
X85.5Y-55.934
X85.5Y-75.934
X85.5Y-95.934
X85.54Y-23.049
X85.54Y-43.049
X85.54Y-63.049
X85.54Y-83.049
X85.62Y-19.799
X85.62Y-39.799
X85.62Y-59.799
X85.62Y-79.799
X85.85Y-27.059
X85.85Y-47.059
X85.85Y-67.059
X85.85Y-87.059
X85.911Y-26.217
X85.911Y-46.217
X85.911Y-66.217
X85.911Y-86.217
X86.0Y-23.629
X86.0Y-43.629
X86.0Y-63.629
X86.0Y-83.629
X86.092Y-25.128
X86.092Y-45.128
X86.092Y-65.128
X86.092Y-85.128
X86.35Y-27.05
X86.35Y-47.05
X86.35Y-67.05
X86.35Y-87.05
X86.401Y-32.029
X86.401Y-52.029
X86.401Y-72.029
X86.401Y-92.029
X86.703Y-25.435
X86.703Y-45.435
X86.703Y-65.435
X86.703Y-85.435
X86.738Y-23.92
X86.738Y-43.92
X86.738Y-63.92
X86.738Y-83.92
X86.78Y-31.429
X86.78Y-51.429
X86.78Y-71.429
X86.78Y-91.429
X86.85Y-26.95
X86.85Y-46.95
X86.85Y-66.95
X86.85Y-86.95
X87.0Y-35.934
X87.0Y-55.934
X87.0Y-75.934
X87.0Y-95.934
X87.05Y-28.45
X87.05Y-48.45
X87.05Y-68.45
X87.05Y-88.45
X87.1Y-29.95
X87.1Y-49.95
X87.1Y-69.95
X87.1Y-89.95
X87.53Y-19.819
X87.53Y-39.819
X87.53Y-59.819
X87.53Y-79.819
X87.6Y-26.95
X87.6Y-28.5
X87.6Y-46.95
X87.6Y-48.5
X87.6Y-66.95
X87.6Y-68.5
X87.6Y-86.95
X87.6Y-88.5
X87.74Y-32.509
X87.74Y-52.509
X87.74Y-72.509
X87.74Y-92.509
X87.8Y-30.2
X87.8Y-50.2
X87.8Y-70.2
X87.8Y-90.2
X87.85Y-26.55
X87.85Y-27.659
X87.85Y-28.1
X87.85Y-29.059
X87.85Y-29.75
X87.85Y-46.55
X87.85Y-47.659
X87.85Y-48.1
X87.85Y-49.059
X87.85Y-49.75
X87.85Y-66.55
X87.85Y-67.659
X87.85Y-68.1
X87.85Y-69.059
X87.85Y-69.75
X87.85Y-86.55
X87.85Y-87.659
X87.85Y-88.1
X87.85Y-89.059
X87.85Y-89.75
X87.9Y-27.25
X87.9Y-31.2
X87.9Y-47.25
X87.9Y-51.2
X87.9Y-67.25
X87.9Y-71.2
X87.9Y-87.25
X87.9Y-91.2
X87.94Y-32.059
X87.94Y-52.059
X87.94Y-72.059
X87.94Y-92.059
X87.95Y-26.159
X87.95Y-30.759
X87.95Y-46.159
X87.95Y-50.759
X87.95Y-66.159
X87.95Y-70.759
X87.95Y-86.159
X87.95Y-90.759
X88.1Y-26.9
X88.1Y-28.5
X88.1Y-31.6
X88.1Y-46.9
X88.1Y-48.5
X88.1Y-51.6
X88.1Y-66.9
X88.1Y-68.5
X88.1Y-71.6
X88.1Y-86.9
X88.1Y-88.5
X88.1Y-91.6
X88.5Y-19.784
X88.5Y-35.934
X88.5Y-39.784
X88.5Y-55.934
X88.5Y-59.784
X88.5Y-75.934
X88.5Y-79.784
X88.5Y-95.934
X88.75Y-29.95
X88.75Y-49.95
X88.75Y-69.95
X88.75Y-89.95
X89.75Y-22.559
X89.75Y-42.559
X89.75Y-62.559
X89.75Y-82.559
X89.9Y-22.15
X89.9Y-42.15
X89.9Y-62.15
X89.9Y-82.15
X90.0Y-19.784
X90.0Y-35.934
X90.0Y-39.784
X90.0Y-55.934
X90.0Y-59.784
X90.0Y-75.934
X90.0Y-79.784
X90.0Y-95.934
X90.35Y-22.259
X90.35Y-24.057
X90.35Y-24.457
X90.35Y-24.857
X90.35Y-28.857
X90.35Y-29.257
X90.35Y-29.657
X90.35Y-30.057
X90.35Y-30.457
X90.35Y-30.857
X90.35Y-31.257
X90.35Y-31.657
X90.35Y-42.259
X90.35Y-44.057
X90.35Y-44.457
X90.35Y-44.857
X90.35Y-48.857
X90.35Y-49.257
X90.35Y-49.657
X90.35Y-50.057
X90.35Y-50.457
X90.35Y-50.857
X90.35Y-51.257
X90.35Y-51.657
X90.35Y-62.259
X90.35Y-64.057
X90.35Y-64.457
X90.35Y-64.857
X90.35Y-68.857
X90.35Y-69.257
X90.35Y-69.657
X90.35Y-70.057
X90.35Y-70.457
X90.35Y-70.857
X90.35Y-71.257
X90.35Y-71.657
X90.35Y-82.259
X90.35Y-84.057
X90.35Y-84.457
X90.35Y-84.857
X90.35Y-88.857
X90.35Y-89.257
X90.35Y-89.657
X90.35Y-90.057
X90.35Y-90.457
X90.35Y-90.857
X90.35Y-91.257
X90.35Y-91.657
X91.15Y-28.05
X91.15Y-28.5
X91.15Y-48.05
X91.15Y-48.5
X91.15Y-68.05
X91.15Y-68.5
X91.15Y-88.05
X91.15Y-88.5
X91.25Y-27.45
X91.25Y-47.45
X91.25Y-67.45
X91.25Y-87.45
X91.359Y-27.026
X91.359Y-47.026
X91.359Y-67.026
X91.359Y-87.026
X91.5Y-22.08
X91.5Y-29.2
X91.5Y-35.934
X91.5Y-42.08
X91.5Y-49.2
X91.5Y-55.934
X91.5Y-62.08
X91.5Y-69.2
X91.5Y-75.934
X91.5Y-82.08
X91.5Y-89.2
X91.5Y-95.934
X91.683Y-25.493
X91.683Y-45.493
X91.683Y-65.493
X91.683Y-85.493
X91.85Y-28.6
X91.85Y-29.6
X91.85Y-48.6
X91.85Y-49.6
X91.85Y-68.6
X91.85Y-69.6
X91.85Y-88.6
X91.85Y-89.6
X91.9Y-27.45
X91.9Y-28.15
X91.9Y-47.45
X91.9Y-48.15
X91.9Y-67.45
X91.9Y-68.15
X91.9Y-87.45
X91.9Y-88.15
X91.95Y-29.2
X91.95Y-49.2
X91.95Y-69.2
X91.95Y-89.2
X92.75Y-24.057
X92.75Y-24.457
X92.75Y-24.857
X92.75Y-26.057
X92.75Y-27.657
X92.75Y-29.657
X92.75Y-31.657
X92.75Y-44.057
X92.75Y-44.457
X92.75Y-44.857
X92.75Y-46.057
X92.75Y-47.657
X92.75Y-49.657
X92.75Y-51.657
X92.75Y-64.057
X92.75Y-64.457
X92.75Y-64.857
X92.75Y-66.057
X92.75Y-67.657
X92.75Y-69.657
X92.75Y-71.657
X92.75Y-84.057
X92.75Y-84.457
X92.75Y-84.857
X92.75Y-86.057
X92.75Y-87.657
X92.75Y-89.657
X92.75Y-91.657
X92.95Y-33.359
X92.95Y-53.359
X92.95Y-73.359
X92.95Y-93.359
X93.0Y-35.934
X93.0Y-55.934
X93.0Y-75.934
X93.0Y-95.934
X93.434Y-29.105
X93.434Y-49.105
X93.434Y-69.105
X93.434Y-89.105
X93.45Y-27.3
X93.45Y-47.3
X93.45Y-67.3
X93.45Y-87.3
X93.459Y-31.423
X93.459Y-51.423
X93.459Y-71.423
X93.459Y-91.423
X93.5Y-28.4
X93.5Y-48.4
X93.5Y-68.4
X93.5Y-88.4
X93.511Y-33.34
X93.511Y-53.34
X93.511Y-73.34
X93.511Y-93.34
X93.55Y-29.9
X93.55Y-49.9
X93.55Y-69.9
X93.55Y-89.9
X96.285Y-33.017
X96.285Y-53.017
X96.285Y-73.017
X96.285Y-93.017
X96.305Y-30.432
X96.305Y-50.432
X96.305Y-70.432
X96.305Y-90.432
X96.379Y-28.205
X96.379Y-48.205
X96.379Y-68.205
X96.379Y-88.205
X96.41Y-22.179
X96.41Y-42.179
X96.41Y-62.179
X96.41Y-82.179
X96.45Y-27.3
X96.45Y-47.3
X96.45Y-67.3
X96.45Y-87.3
X96.458Y-26.162
X96.458Y-46.162
X96.458Y-66.162
X96.458Y-86.162
X96.992Y-35.115
X96.992Y-55.115
X96.992Y-75.115
X96.992Y-95.115
X97.0Y-33.716
X97.0Y-53.716
X97.0Y-73.716
X97.0Y-93.716
X97.15Y-27.257
X97.15Y-28.457
X97.15Y-29.257
X97.15Y-30.057
X97.15Y-30.457
X97.15Y-31.257
X97.15Y-31.657
X97.15Y-47.257
X97.15Y-48.457
X97.15Y-49.257
X97.15Y-50.057
X97.15Y-50.457
X97.15Y-51.257
X97.15Y-51.657
X97.15Y-67.257
X97.15Y-68.457
X97.15Y-69.257
X97.15Y-70.057
X97.15Y-70.457
X97.15Y-71.257
X97.15Y-71.657
X97.15Y-87.257
X97.15Y-88.457
X97.15Y-89.257
X97.15Y-90.057
X97.15Y-90.457
X97.15Y-91.257
X97.15Y-91.657
X97.4Y-19.884
X97.4Y-39.884
X97.4Y-59.884
X97.4Y-79.884
X97.56Y-29.349
X97.56Y-49.349
X97.56Y-69.349
X97.56Y-89.349
X97.707Y-23.713
X97.707Y-43.713
X97.707Y-63.713
X97.707Y-83.713
X97.82Y-26.449
X97.82Y-46.449
X97.82Y-66.449
X97.82Y-86.449
X97.972Y-27.296
X97.972Y-47.296
X97.972Y-67.296
X97.972Y-87.296
X98.249Y-31.207
X98.249Y-51.207
X98.249Y-71.207
X98.249Y-91.207
X98.26Y-26.519
X98.26Y-46.519
X98.26Y-66.519
X98.26Y-86.519
X98.326Y-25.737
X98.326Y-45.737
X98.326Y-65.737
X98.326Y-85.737
X98.355Y-23.116
X98.355Y-43.116
X98.355Y-63.116
X98.355Y-83.116
X98.39Y-26.159
X98.39Y-46.159
X98.39Y-66.159
X98.39Y-86.159
X98.442Y-23.956
X98.442Y-43.956
X98.442Y-63.956
X98.442Y-83.956
X98.445Y-28.457
X98.445Y-48.457
X98.445Y-68.457
X98.445Y-88.457
X98.45Y-28.057
X98.45Y-48.057
X98.45Y-68.057
X98.45Y-88.057
X98.457Y-27.656
X98.457Y-47.656
X98.457Y-67.656
X98.457Y-87.656
X98.47Y-35.083
X98.47Y-55.083
X98.47Y-75.083
X98.47Y-95.083
X98.5Y-35.934
X98.5Y-55.934
X98.5Y-75.934
X98.5Y-95.934
X98.693Y-30.038
X98.693Y-50.038
X98.693Y-70.038
X98.693Y-90.038
X98.71Y-27.219
X98.71Y-47.219
X98.71Y-67.219
X98.71Y-87.219
X98.763Y-26.088
X98.763Y-46.088
X98.763Y-66.088
X98.763Y-86.088
X98.79Y-26.499
X98.79Y-46.499
X98.79Y-66.499
X98.79Y-86.499
X98.898Y-23.96
X98.898Y-43.96
X98.898Y-63.96
X98.898Y-83.96
X99.107Y-24.857
X99.107Y-44.857
X99.107Y-64.857
X99.107Y-84.857
X99.4Y-19.884
X99.4Y-39.884
X99.4Y-59.884
X99.4Y-79.884
X99.55Y-26.457
X99.55Y-26.857
X99.55Y-27.257
X99.55Y-28.857
X99.55Y-29.257
X99.55Y-29.657
X99.55Y-30.057
X99.55Y-30.857
X99.55Y-46.457
X99.55Y-46.857
X99.55Y-47.257
X99.55Y-48.857
X99.55Y-49.257
X99.55Y-49.657
X99.55Y-50.057
X99.55Y-50.857
X99.55Y-66.457
X99.55Y-66.857
X99.55Y-67.257
X99.55Y-68.857
X99.55Y-69.257
X99.55Y-69.657
X99.55Y-70.057
X99.55Y-70.857
X99.55Y-86.457
X99.55Y-86.857
X99.55Y-87.257
X99.55Y-88.857
X99.55Y-89.257
X99.55Y-89.657
X99.55Y-90.057
X99.55Y-90.857
X100.0Y-35.934
X100.0Y-55.934
X100.0Y-75.934
X100.0Y-95.934
X100.35Y-20.059
X100.35Y-40.059
X100.35Y-60.059
X100.35Y-80.059
X100.95Y-25.459
X100.95Y-45.459
X100.95Y-65.459
X100.95Y-85.459
X101.175Y-24.709
X101.175Y-44.709
X101.175Y-64.709
X101.175Y-84.709
X101.4Y-19.884
X101.4Y-25.449
X101.4Y-39.884
X101.4Y-45.449
X101.4Y-59.884
X101.4Y-65.449
X101.4Y-79.884
X101.4Y-85.449
X101.5Y-35.934
X101.5Y-55.934
X101.5Y-75.934
X101.5Y-95.934
X101.68Y-29.857
X101.68Y-49.857
X101.68Y-69.857
X101.68Y-89.857
X101.95Y-26.259
X101.95Y-46.259
X101.95Y-66.259
X101.95Y-86.259
X101.96Y-26.766
X101.96Y-46.766
X101.96Y-66.766
X101.96Y-86.766
X101.98Y-28.871
X101.98Y-48.871
X101.98Y-68.871
X101.98Y-88.871
X102.095Y-24.758
X102.095Y-44.758
X102.095Y-64.758
X102.095Y-84.758
X102.11Y-25.199
X102.11Y-45.199
X102.11Y-65.199
X102.11Y-85.199
X102.343Y-28.504
X102.343Y-48.504
X102.343Y-68.504
X102.343Y-88.504
X102.4Y-19.4
X102.4Y-19.9
X102.4Y-20.5
X102.4Y-39.4
X102.4Y-39.9
X102.4Y-40.5
X102.4Y-59.4
X102.4Y-59.9
X102.4Y-60.5
X102.4Y-79.4
X102.4Y-79.9
X102.4Y-80.5
X102.76Y-25.949
X102.76Y-45.949
X102.76Y-65.949
X102.76Y-85.949
X102.825Y-23.209
X102.825Y-43.209
X102.825Y-63.209
X102.825Y-83.209
X103.0Y-35.934
X103.0Y-55.934
X103.0Y-75.934
X103.0Y-95.934
X103.4Y-20.409
X103.4Y-21.534
X103.4Y-40.409
X103.4Y-41.534
X103.4Y-60.409
X103.4Y-61.534
X103.4Y-80.409
X103.4Y-81.534
X103.415Y-24.704
X103.415Y-44.704
X103.415Y-64.704
X103.415Y-84.704
X103.61Y-25.391
X103.61Y-45.391
X103.61Y-65.391
X103.61Y-85.391
X103.63Y-25.769
X103.63Y-45.769
X103.63Y-65.769
X103.63Y-85.769
X103.636Y-26.219
X103.636Y-46.219
X103.636Y-66.219
X103.636Y-86.219
X103.661Y-30.954
X103.661Y-50.954
X103.661Y-70.954
X103.661Y-90.954
X103.677Y-31.859
X103.677Y-51.859
X103.677Y-71.859
X103.677Y-91.859
X103.694Y-25.026
X103.694Y-45.026
X103.694Y-65.026
X103.694Y-85.026
X103.695Y-32.379
X103.695Y-52.379
X103.695Y-72.379
X103.695Y-92.379
X103.74Y-27.25
X103.74Y-47.25
X103.74Y-67.25
X103.74Y-87.25
X103.78Y-30.099
X103.78Y-50.099
X103.78Y-70.099
X103.78Y-90.099
X104.29Y-28.671
X104.29Y-48.671
X104.29Y-68.671
X104.29Y-88.671
X104.395Y-21.525
X104.395Y-41.525
X104.395Y-61.525
X104.395Y-81.525
X104.5Y-35.934
X104.5Y-55.934
X104.5Y-75.934
X104.5Y-95.934
X104.7Y-19.35
X104.7Y-39.35
X104.7Y-59.35
X104.7Y-79.35
X104.75Y-28.461
X104.75Y-28.868
X104.75Y-48.461
X104.75Y-48.868
X104.75Y-68.461
X104.75Y-68.868
X104.75Y-88.461
X104.75Y-88.868
X104.913Y-21.002
X104.913Y-41.002
X104.913Y-61.002
X104.913Y-81.002
X105.25Y-19.35
X105.25Y-39.35
X105.25Y-59.35
X105.25Y-79.35
X105.399Y-21.14
X105.399Y-41.14
X105.399Y-61.14
X105.399Y-81.14
X105.516Y-31.875
X105.516Y-51.875
X105.516Y-71.875
X105.516Y-91.875
X105.53Y-25.057
X105.53Y-25.457
X105.53Y-25.857
X105.53Y-26.257
X105.53Y-26.657
X105.53Y-27.057
X105.53Y-27.457
X105.53Y-27.857
X105.53Y-28.257
X105.53Y-29.057
X105.53Y-29.457
X105.53Y-29.857
X105.53Y-45.057
X105.53Y-45.457
X105.53Y-45.857
X105.53Y-46.257
X105.53Y-46.657
X105.53Y-47.057
X105.53Y-47.457
X105.53Y-47.857
X105.53Y-48.257
X105.53Y-49.057
X105.53Y-49.457
X105.53Y-49.857
X105.53Y-65.057
X105.53Y-65.457
X105.53Y-65.857
X105.53Y-66.257
X105.53Y-66.657
X105.53Y-67.057
X105.53Y-67.457
X105.53Y-67.857
X105.53Y-68.257
X105.53Y-69.057
X105.53Y-69.457
X105.53Y-69.857
X105.53Y-85.057
X105.53Y-85.457
X105.53Y-85.857
X105.53Y-86.257
X105.53Y-86.657
X105.53Y-87.057
X105.53Y-87.457
X105.53Y-87.857
X105.53Y-88.257
X105.53Y-89.057
X105.53Y-89.457
X105.53Y-89.857
X105.55Y-19.7
X105.55Y-39.7
X105.55Y-59.7
X105.55Y-79.7
X105.916Y-31.867
X105.916Y-51.867
X105.916Y-71.867
X105.916Y-91.867
X106.0Y-19.7
X106.0Y-35.934
X106.0Y-39.7
X106.0Y-55.934
X106.0Y-59.7
X106.0Y-75.934
X106.0Y-79.7
X106.0Y-95.934
X106.1Y-22.109
X106.1Y-22.509
X106.1Y-42.109
X106.1Y-42.509
X106.1Y-62.109
X106.1Y-62.509
X106.1Y-82.109
X106.1Y-82.509
X106.2Y-19.35
X106.2Y-39.35
X106.2Y-59.35
X106.2Y-79.35
X106.5Y-22.109
X106.5Y-22.509
X106.5Y-42.109
X106.5Y-42.509
X106.5Y-62.109
X106.5Y-62.509
X106.5Y-82.109
X106.5Y-82.509
X106.65Y-25.45
X106.65Y-26.15
X106.65Y-26.9
X106.65Y-27.65
X106.65Y-28.4
X106.65Y-29.15
X106.65Y-29.9
X106.65Y-45.45
X106.65Y-46.15
X106.65Y-46.9
X106.65Y-47.65
X106.65Y-48.4
X106.65Y-49.15
X106.65Y-49.9
X106.65Y-65.45
X106.65Y-66.15
X106.65Y-66.9
X106.65Y-67.65
X106.65Y-68.4
X106.65Y-69.15
X106.65Y-69.9
X106.65Y-85.45
X106.65Y-86.15
X106.65Y-86.9
X106.65Y-87.65
X106.65Y-88.4
X106.65Y-89.15
X106.65Y-89.9
X106.85Y-20.259
X106.85Y-40.259
X106.85Y-60.259
X106.85Y-80.259
X106.9Y-22.109
X106.9Y-22.509
X106.9Y-25.8
X106.9Y-26.5
X106.9Y-27.25
X106.9Y-28.0
X106.9Y-28.75
X106.9Y-29.5
X106.9Y-30.25
X106.9Y-42.109
X106.9Y-42.509
X106.9Y-45.8
X106.9Y-46.5
X106.9Y-47.25
X106.9Y-48.0
X106.9Y-48.75
X106.9Y-49.5
X106.9Y-50.25
X106.9Y-62.109
X106.9Y-62.509
X106.9Y-65.8
X106.9Y-66.5
X106.9Y-67.25
X106.9Y-68.0
X106.9Y-68.75
X106.9Y-69.5
X106.9Y-70.25
X106.9Y-82.109
X106.9Y-82.509
X106.9Y-85.8
X106.9Y-86.5
X106.9Y-87.25
X106.9Y-88.0
X106.9Y-88.75
X106.9Y-89.5
X106.9Y-90.25
X107.1Y-24.277
X107.1Y-31.437
X107.1Y-44.277
X107.1Y-51.437
X107.1Y-64.277
X107.1Y-71.437
X107.1Y-84.277
X107.1Y-91.437
X107.19Y-21.209
X107.19Y-41.209
X107.19Y-61.209
X107.19Y-81.209
X107.2Y-25.45
X107.2Y-26.15
X107.2Y-26.9
X107.2Y-27.65
X107.2Y-28.4
X107.2Y-29.15
X107.2Y-29.9
X107.2Y-45.45
X107.2Y-46.15
X107.2Y-46.9
X107.2Y-47.65
X107.2Y-48.4
X107.2Y-49.15
X107.2Y-49.9
X107.2Y-65.45
X107.2Y-66.15
X107.2Y-66.9
X107.2Y-67.65
X107.2Y-68.4
X107.2Y-69.15
X107.2Y-69.9
X107.2Y-85.45
X107.2Y-86.15
X107.2Y-86.9
X107.2Y-87.65
X107.2Y-88.4
X107.2Y-89.15
X107.2Y-89.9
X107.45Y-25.8
X107.45Y-26.5
X107.45Y-27.25
X107.45Y-28.0
X107.45Y-28.75
X107.45Y-29.5
X107.45Y-30.25
X107.45Y-45.8
X107.45Y-46.5
X107.45Y-47.25
X107.45Y-48.0
X107.45Y-48.75
X107.45Y-49.5
X107.45Y-50.25
X107.45Y-65.8
X107.45Y-66.5
X107.45Y-67.25
X107.45Y-68.0
X107.45Y-68.75
X107.45Y-69.5
X107.45Y-70.25
X107.45Y-85.8
X107.45Y-86.5
X107.45Y-87.25
X107.45Y-88.0
X107.45Y-88.75
X107.45Y-89.5
X107.45Y-90.25
X107.5Y-24.277
X107.5Y-35.934
X107.5Y-44.277
X107.5Y-55.934
X107.5Y-64.277
X107.5Y-75.934
X107.5Y-84.277
X107.5Y-95.934
X107.75Y-25.45
X107.75Y-26.15
X107.75Y-26.9
X107.75Y-27.65
X107.75Y-28.4
X107.75Y-29.15
X107.75Y-29.9
X107.75Y-45.45
X107.75Y-46.15
X107.75Y-46.9
X107.75Y-47.65
X107.75Y-48.4
X107.75Y-49.15
X107.75Y-49.9
X107.75Y-65.45
X107.75Y-66.15
X107.75Y-66.9
X107.75Y-67.65
X107.75Y-68.4
X107.75Y-69.15
X107.75Y-69.9
X107.75Y-85.45
X107.75Y-86.15
X107.75Y-86.9
X107.75Y-87.65
X107.75Y-88.4
X107.75Y-89.15
X107.75Y-89.9
X107.9Y-24.277
X107.9Y-44.277
X107.9Y-64.277
X107.9Y-84.277
X107.95Y-19.35
X107.95Y-39.35
X107.95Y-59.35
X107.95Y-79.35
X108.0Y-25.8
X108.0Y-26.5
X108.0Y-27.25
X108.0Y-28.0
X108.0Y-28.75
X108.0Y-29.5
X108.0Y-30.25
X108.0Y-45.8
X108.0Y-46.5
X108.0Y-47.25
X108.0Y-48.0
X108.0Y-48.75
X108.0Y-49.5
X108.0Y-50.25
X108.0Y-65.8
X108.0Y-66.5
X108.0Y-67.25
X108.0Y-68.0
X108.0Y-68.75
X108.0Y-69.5
X108.0Y-70.25
X108.0Y-85.8
X108.0Y-86.5
X108.0Y-87.25
X108.0Y-88.0
X108.0Y-88.75
X108.0Y-89.5
X108.0Y-90.25
X108.18Y-22.209
X108.18Y-23.209
X108.18Y-42.209
X108.18Y-43.209
X108.18Y-62.209
X108.18Y-63.209
X108.18Y-82.209
X108.18Y-83.209
X108.21Y-21.209
X108.21Y-41.209
X108.21Y-61.209
X108.21Y-81.209
X108.24Y-32.029
X108.24Y-52.029
X108.24Y-72.029
X108.24Y-92.029
X108.3Y-24.277
X108.3Y-25.45
X108.3Y-26.15
X108.3Y-26.9
X108.3Y-27.65
X108.3Y-28.4
X108.3Y-29.15
X108.3Y-29.9
X108.3Y-31.437
X108.3Y-44.277
X108.3Y-45.45
X108.3Y-46.15
X108.3Y-46.9
X108.3Y-47.65
X108.3Y-48.4
X108.3Y-49.15
X108.3Y-49.9
X108.3Y-51.437
X108.3Y-64.277
X108.3Y-65.45
X108.3Y-66.15
X108.3Y-66.9
X108.3Y-67.65
X108.3Y-68.4
X108.3Y-69.15
X108.3Y-69.9
X108.3Y-71.437
X108.3Y-84.277
X108.3Y-85.45
X108.3Y-86.15
X108.3Y-86.9
X108.3Y-87.65
X108.3Y-88.4
X108.3Y-89.15
X108.3Y-89.9
X108.3Y-91.437
X108.34Y-19.869
X108.34Y-39.869
X108.34Y-59.869
X108.34Y-79.869
X108.55Y-25.8
X108.55Y-26.5
X108.55Y-27.25
X108.55Y-28.0
X108.55Y-28.75
X108.55Y-29.5
X108.55Y-30.25
X108.55Y-45.8
X108.55Y-46.5
X108.55Y-47.25
X108.55Y-48.0
X108.55Y-48.75
X108.55Y-49.5
X108.55Y-50.25
X108.55Y-65.8
X108.55Y-66.5
X108.55Y-67.25
X108.55Y-68.0
X108.55Y-68.75
X108.55Y-69.5
X108.55Y-70.25
X108.55Y-85.8
X108.55Y-86.5
X108.55Y-87.25
X108.55Y-88.0
X108.55Y-88.75
X108.55Y-89.5
X108.55Y-90.25
X108.6Y-19.4
X108.6Y-39.4
X108.6Y-59.4
X108.6Y-79.4
X108.7Y-24.277
X108.7Y-44.277
X108.7Y-64.277
X108.7Y-84.277
X108.85Y-25.45
X108.85Y-26.15
X108.85Y-26.9
X108.85Y-27.65
X108.85Y-28.4
X108.85Y-29.15
X108.85Y-29.9
X108.85Y-45.45
X108.85Y-46.15
X108.85Y-46.9
X108.85Y-47.65
X108.85Y-48.4
X108.85Y-49.15
X108.85Y-49.9
X108.85Y-65.45
X108.85Y-66.15
X108.85Y-66.9
X108.85Y-67.65
X108.85Y-68.4
X108.85Y-69.15
X108.85Y-69.9
X108.85Y-85.45
X108.85Y-86.15
X108.85Y-86.9
X108.85Y-87.65
X108.85Y-88.4
X108.85Y-89.15
X108.85Y-89.9
X109.0Y-35.934
X109.0Y-55.934
X109.0Y-75.934
X109.0Y-95.934
X109.051Y-23.047
X109.051Y-43.047
X109.051Y-63.047
X109.051Y-83.047
X109.1Y-24.277
X109.1Y-25.8
X109.1Y-26.5
X109.1Y-27.25
X109.1Y-28.0
X109.1Y-28.75
X109.1Y-29.5
X109.1Y-30.25
X109.1Y-44.277
X109.1Y-45.8
X109.1Y-46.5
X109.1Y-47.25
X109.1Y-48.0
X109.1Y-48.75
X109.1Y-49.5
X109.1Y-50.25
X109.1Y-64.277
X109.1Y-65.8
X109.1Y-66.5
X109.1Y-67.25
X109.1Y-68.0
X109.1Y-68.75
X109.1Y-69.5
X109.1Y-70.25
X109.1Y-84.277
X109.1Y-85.8
X109.1Y-86.5
X109.1Y-87.25
X109.1Y-88.0
X109.1Y-88.75
X109.1Y-89.5
X109.1Y-90.25
X109.2Y-22.229
X109.2Y-42.229
X109.2Y-62.229
X109.2Y-82.229
X109.25Y-19.359
X109.25Y-39.359
X109.25Y-59.359
X109.25Y-79.359
X109.4Y-25.45
X109.4Y-26.15
X109.4Y-26.9
X109.4Y-27.65
X109.4Y-28.4
X109.4Y-29.15
X109.4Y-29.9
X109.4Y-45.45
X109.4Y-46.15
X109.4Y-46.9
X109.4Y-47.65
X109.4Y-48.4
X109.4Y-49.15
X109.4Y-49.9
X109.4Y-65.45
X109.4Y-66.15
X109.4Y-66.9
X109.4Y-67.65
X109.4Y-68.4
X109.4Y-69.15
X109.4Y-69.9
X109.4Y-85.45
X109.4Y-86.15
X109.4Y-86.9
X109.4Y-87.65
X109.4Y-88.4
X109.4Y-89.15
X109.4Y-89.9
X109.5Y-24.277
X109.5Y-44.277
X109.5Y-64.277
X109.5Y-84.277
X109.62Y-33.669
X109.62Y-53.669
X109.62Y-73.669
X109.62Y-93.669
X109.65Y-25.8
X109.65Y-26.5
X109.65Y-27.25
X109.65Y-28.0
X109.65Y-28.75
X109.65Y-29.5
X109.65Y-30.25
X109.65Y-45.8
X109.65Y-46.5
X109.65Y-47.25
X109.65Y-48.0
X109.65Y-48.75
X109.65Y-49.5
X109.65Y-50.25
X109.65Y-65.8
X109.65Y-66.5
X109.65Y-67.25
X109.65Y-68.0
X109.65Y-68.75
X109.65Y-69.5
X109.65Y-70.25
X109.65Y-85.8
X109.65Y-86.5
X109.65Y-87.25
X109.65Y-88.0
X109.65Y-88.75
X109.65Y-89.5
X109.65Y-90.25
X109.88Y-19.769
X109.88Y-39.769
X109.88Y-59.769
X109.88Y-79.769
X109.95Y-25.45
X109.95Y-26.15
X109.95Y-26.9
X109.95Y-27.65
X109.95Y-28.4
X109.95Y-29.15
X109.95Y-29.9
X109.95Y-45.45
X109.95Y-46.15
X109.95Y-46.9
X109.95Y-47.65
X109.95Y-48.4
X109.95Y-49.15
X109.95Y-49.9
X109.95Y-65.45
X109.95Y-66.15
X109.95Y-66.9
X109.95Y-67.65
X109.95Y-68.4
X109.95Y-69.15
X109.95Y-69.9
X109.95Y-85.45
X109.95Y-86.15
X109.95Y-86.9
X109.95Y-87.65
X109.95Y-88.4
X109.95Y-89.15
X109.95Y-89.9
X110.09Y-33.579
X110.09Y-53.579
X110.09Y-73.579
X110.09Y-93.579
X110.16Y-33.059
X110.16Y-53.059
X110.16Y-73.059
X110.16Y-93.059
X110.2Y-25.8
X110.2Y-26.5
X110.2Y-27.25
X110.2Y-28.0
X110.2Y-28.75
X110.2Y-29.5
X110.2Y-30.25
X110.2Y-45.8
X110.2Y-46.5
X110.2Y-47.25
X110.2Y-48.0
X110.2Y-48.75
X110.2Y-49.5
X110.2Y-50.25
X110.2Y-65.8
X110.2Y-66.5
X110.2Y-67.25
X110.2Y-68.0
X110.2Y-68.75
X110.2Y-69.5
X110.2Y-70.25
X110.2Y-85.8
X110.2Y-86.5
X110.2Y-87.25
X110.2Y-88.0
X110.2Y-88.75
X110.2Y-89.5
X110.2Y-90.25
X110.462Y-20.58
X110.462Y-40.58
X110.462Y-60.58
X110.462Y-80.58
X110.5Y-25.45
X110.5Y-26.15
X110.5Y-26.9
X110.5Y-27.65
X110.5Y-28.4
X110.5Y-29.15
X110.5Y-29.9
X110.5Y-35.934
X110.5Y-45.45
X110.5Y-46.15
X110.5Y-46.9
X110.5Y-47.65
X110.5Y-48.4
X110.5Y-49.15
X110.5Y-49.9
X110.5Y-55.934
X110.5Y-65.45
X110.5Y-66.15
X110.5Y-66.9
X110.5Y-67.65
X110.5Y-68.4
X110.5Y-69.15
X110.5Y-69.9
X110.5Y-75.934
X110.5Y-85.45
X110.5Y-86.15
X110.5Y-86.9
X110.5Y-87.65
X110.5Y-88.4
X110.5Y-89.15
X110.5Y-89.9
X110.5Y-95.934
X110.75Y-25.8
X110.75Y-26.5
X110.75Y-27.25
X110.75Y-28.0
X110.75Y-28.75
X110.75Y-29.5
X110.75Y-30.25
X110.75Y-45.8
X110.75Y-46.5
X110.75Y-47.25
X110.75Y-48.0
X110.75Y-48.75
X110.75Y-49.5
X110.75Y-50.25
X110.75Y-65.8
X110.75Y-66.5
X110.75Y-67.25
X110.75Y-68.0
X110.75Y-68.75
X110.75Y-69.5
X110.75Y-70.25
X110.75Y-85.8
X110.75Y-86.5
X110.75Y-87.25
X110.75Y-88.0
X110.75Y-88.75
X110.75Y-89.5
X110.75Y-90.25
X110.86Y-32.789
X110.86Y-52.789
X110.86Y-72.789
X110.86Y-92.789
X110.91Y-33.499
X110.91Y-53.499
X110.91Y-73.499
X110.91Y-93.499
X111.05Y-25.45
X111.05Y-26.15
X111.05Y-26.9
X111.05Y-27.65
X111.05Y-28.4
X111.05Y-29.15
X111.05Y-29.9
X111.05Y-45.45
X111.05Y-46.15
X111.05Y-46.9
X111.05Y-47.65
X111.05Y-48.4
X111.05Y-49.15
X111.05Y-49.9
X111.05Y-65.45
X111.05Y-66.15
X111.05Y-66.9
X111.05Y-67.65
X111.05Y-68.4
X111.05Y-69.15
X111.05Y-69.9
X111.05Y-85.45
X111.05Y-86.15
X111.05Y-86.9
X111.05Y-87.65
X111.05Y-88.4
X111.05Y-89.15
X111.05Y-89.9
X111.3Y-25.8
X111.3Y-26.5
X111.3Y-27.25
X111.3Y-28.0
X111.3Y-28.75
X111.3Y-29.5
X111.3Y-30.25
X111.3Y-32.329
X111.3Y-45.8
X111.3Y-46.5
X111.3Y-47.25
X111.3Y-48.0
X111.3Y-48.75
X111.3Y-49.5
X111.3Y-50.25
X111.3Y-52.329
X111.3Y-65.8
X111.3Y-66.5
X111.3Y-67.25
X111.3Y-68.0
X111.3Y-68.75
X111.3Y-69.5
X111.3Y-70.25
X111.3Y-72.329
X111.3Y-85.8
X111.3Y-86.5
X111.3Y-87.25
X111.3Y-88.0
X111.3Y-88.75
X111.3Y-89.5
X111.3Y-90.25
X111.3Y-92.329
X111.55Y-25.45
X111.55Y-26.15
X111.55Y-26.9
X111.55Y-27.65
X111.55Y-28.4
X111.55Y-29.15
X111.55Y-29.9
X111.55Y-45.45
X111.55Y-46.15
X111.55Y-46.9
X111.55Y-47.65
X111.55Y-48.4
X111.55Y-49.15
X111.55Y-49.9
X111.55Y-65.45
X111.55Y-66.15
X111.55Y-66.9
X111.55Y-67.65
X111.55Y-68.4
X111.55Y-69.15
X111.55Y-69.9
X111.55Y-85.45
X111.55Y-86.15
X111.55Y-86.9
X111.55Y-87.65
X111.55Y-88.4
X111.55Y-89.15
X111.55Y-89.9
X111.57Y-33.149
X111.57Y-53.149
X111.57Y-73.149
X111.57Y-93.149
X111.61Y-32.739
X111.61Y-52.739
X111.61Y-72.739
X111.61Y-92.739
X111.65Y-33.589
X111.65Y-53.589
X111.65Y-73.589
X111.65Y-93.589
X111.87Y-19.829
X111.87Y-39.829
X111.87Y-59.829
X111.87Y-79.829
X112.0Y-35.934
X112.0Y-55.934
X112.0Y-75.934
X112.0Y-95.934
X112.036Y-20.554
X112.036Y-40.554
X112.036Y-60.554
X112.036Y-80.554
X112.28Y-31.049
X112.28Y-51.049
X112.28Y-71.049
X112.28Y-91.049
X112.34Y-31.859
X112.34Y-32.979
X112.34Y-51.859
X112.34Y-52.979
X112.34Y-71.859
X112.34Y-72.979
X112.34Y-91.859
X112.34Y-92.979
X112.37Y-33.569
X112.37Y-53.569
X112.37Y-73.569
X112.37Y-93.569
X112.45Y-23.249
X112.45Y-43.249
X112.45Y-63.249
X112.45Y-83.249
X112.47Y-31.499
X112.47Y-51.499
X112.47Y-71.499
X112.47Y-91.499
X112.67Y-25.057
X112.67Y-25.457
X112.67Y-27.057
X112.67Y-45.057
X112.67Y-45.457
X112.67Y-47.057
X112.67Y-65.057
X112.67Y-65.457
X112.67Y-67.057
X112.67Y-85.057
X112.67Y-85.457
X112.67Y-87.057
X112.72Y-31.839
X112.72Y-51.839
X112.72Y-71.839
X112.72Y-91.839
X112.727Y-21.539
X112.727Y-41.539
X112.727Y-61.539
X112.727Y-81.539
X112.75Y-32.239
X112.75Y-52.239
X112.75Y-72.239
X112.75Y-92.239
X112.78Y-31.069
X112.78Y-51.069
X112.78Y-71.069
X112.78Y-91.069
X112.96Y-33.619
X112.96Y-53.619
X112.96Y-73.619
X112.96Y-93.619
X113.04Y-23.419
X113.04Y-43.419
X113.04Y-63.419
X113.04Y-83.419
X113.45Y-27.059
X113.45Y-47.059
X113.45Y-67.059
X113.45Y-87.059
X113.5Y-35.934
X113.5Y-55.934
X113.5Y-75.934
X113.5Y-95.934
X113.54Y-23.049
X113.54Y-43.049
X113.54Y-63.049
X113.54Y-83.049
X113.62Y-19.799
X113.62Y-39.799
X113.62Y-59.799
X113.62Y-79.799
X113.85Y-27.059
X113.85Y-47.059
X113.85Y-67.059
X113.85Y-87.059
X113.911Y-26.217
X113.911Y-46.217
X113.911Y-66.217
X113.911Y-86.217
X114.0Y-23.629
X114.0Y-43.629
X114.0Y-63.629
X114.0Y-83.629
X114.092Y-25.128
X114.092Y-45.128
X114.092Y-65.128
X114.092Y-85.128
X114.35Y-27.05
X114.35Y-47.05
X114.35Y-67.05
X114.35Y-87.05
X114.401Y-32.029
X114.401Y-52.029
X114.401Y-72.029
X114.401Y-92.029
X114.703Y-25.435
X114.703Y-45.435
X114.703Y-65.435
X114.703Y-85.435
X114.738Y-23.92
X114.738Y-43.92
X114.738Y-63.92
X114.738Y-83.92
X114.78Y-31.429
X114.78Y-51.429
X114.78Y-71.429
X114.78Y-91.429
X114.85Y-26.95
X114.85Y-46.95
X114.85Y-66.95
X114.85Y-86.95
X115.0Y-35.934
X115.0Y-55.934
X115.0Y-75.934
X115.0Y-95.934
X115.05Y-28.45
X115.05Y-48.45
X115.05Y-68.45
X115.05Y-88.45
X115.1Y-29.95
X115.1Y-49.95
X115.1Y-69.95
X115.1Y-89.95
X115.53Y-19.819
X115.53Y-39.819
X115.53Y-59.819
X115.53Y-79.819
X115.6Y-26.95
X115.6Y-28.5
X115.6Y-46.95
X115.6Y-48.5
X115.6Y-66.95
X115.6Y-68.5
X115.6Y-86.95
X115.6Y-88.5
X115.74Y-32.509
X115.74Y-52.509
X115.74Y-72.509
X115.74Y-92.509
X115.8Y-30.2
X115.8Y-50.2
X115.8Y-70.2
X115.8Y-90.2
X115.85Y-26.55
X115.85Y-27.659
X115.85Y-28.1
X115.85Y-29.059
X115.85Y-29.75
X115.85Y-46.55
X115.85Y-47.659
X115.85Y-48.1
X115.85Y-49.059
X115.85Y-49.75
X115.85Y-66.55
X115.85Y-67.659
X115.85Y-68.1
X115.85Y-69.059
X115.85Y-69.75
X115.85Y-86.55
X115.85Y-87.659
X115.85Y-88.1
X115.85Y-89.059
X115.85Y-89.75
X115.9Y-27.25
X115.9Y-31.2
X115.9Y-47.25
X115.9Y-51.2
X115.9Y-67.25
X115.9Y-71.2
X115.9Y-87.25
X115.9Y-91.2
X115.94Y-32.059
X115.94Y-52.059
X115.94Y-72.059
X115.94Y-92.059
X115.95Y-26.159
X115.95Y-30.759
X115.95Y-46.159
X115.95Y-50.759
X115.95Y-66.159
X115.95Y-70.759
X115.95Y-86.159
X115.95Y-90.759
X116.1Y-26.9
X116.1Y-28.5
X116.1Y-31.6
X116.1Y-46.9
X116.1Y-48.5
X116.1Y-51.6
X116.1Y-66.9
X116.1Y-68.5
X116.1Y-71.6
X116.1Y-86.9
X116.1Y-88.5
X116.1Y-91.6
X116.5Y-19.784
X116.5Y-35.934
X116.5Y-39.784
X116.5Y-55.934
X116.5Y-59.784
X116.5Y-75.934
X116.5Y-79.784
X116.5Y-95.934
X116.75Y-29.95
X116.75Y-49.95
X116.75Y-69.95
X116.75Y-89.95
X117.75Y-22.559
X117.75Y-42.559
X117.75Y-62.559
X117.75Y-82.559
X117.9Y-22.15
X117.9Y-42.15
X117.9Y-62.15
X117.9Y-82.15
X118.0Y-19.784
X118.0Y-35.934
X118.0Y-39.784
X118.0Y-55.934
X118.0Y-59.784
X118.0Y-75.934
X118.0Y-79.784
X118.0Y-95.934
X118.35Y-22.259
X118.35Y-24.057
X118.35Y-24.457
X118.35Y-24.857
X118.35Y-28.857
X118.35Y-29.257
X118.35Y-29.657
X118.35Y-30.057
X118.35Y-30.457
X118.35Y-30.857
X118.35Y-31.257
X118.35Y-31.657
X118.35Y-42.259
X118.35Y-44.057
X118.35Y-44.457
X118.35Y-44.857
X118.35Y-48.857
X118.35Y-49.257
X118.35Y-49.657
X118.35Y-50.057
X118.35Y-50.457
X118.35Y-50.857
X118.35Y-51.257
X118.35Y-51.657
X118.35Y-62.259
X118.35Y-64.057
X118.35Y-64.457
X118.35Y-64.857
X118.35Y-68.857
X118.35Y-69.257
X118.35Y-69.657
X118.35Y-70.057
X118.35Y-70.457
X118.35Y-70.857
X118.35Y-71.257
X118.35Y-71.657
X118.35Y-82.259
X118.35Y-84.057
X118.35Y-84.457
X118.35Y-84.857
X118.35Y-88.857
X118.35Y-89.257
X118.35Y-89.657
X118.35Y-90.057
X118.35Y-90.457
X118.35Y-90.857
X118.35Y-91.257
X118.35Y-91.657
X119.15Y-28.05
X119.15Y-28.5
X119.15Y-48.05
X119.15Y-48.5
X119.15Y-68.05
X119.15Y-68.5
X119.15Y-88.05
X119.15Y-88.5
X119.25Y-27.45
X119.25Y-47.45
X119.25Y-67.45
X119.25Y-87.45
X119.359Y-27.026
X119.359Y-47.026
X119.359Y-67.026
X119.359Y-87.026
X119.5Y-22.08
X119.5Y-29.2
X119.5Y-35.934
X119.5Y-42.08
X119.5Y-49.2
X119.5Y-55.934
X119.5Y-62.08
X119.5Y-69.2
X119.5Y-75.934
X119.5Y-82.08
X119.5Y-89.2
X119.5Y-95.934
X119.683Y-25.493
X119.683Y-45.493
X119.683Y-65.493
X119.683Y-85.493
X119.85Y-28.6
X119.85Y-29.6
X119.85Y-48.6
X119.85Y-49.6
X119.85Y-68.6
X119.85Y-69.6
X119.85Y-88.6
X119.85Y-89.6
X119.9Y-27.45
X119.9Y-28.15
X119.9Y-47.45
X119.9Y-48.15
X119.9Y-67.45
X119.9Y-68.15
X119.9Y-87.45
X119.9Y-88.15
X119.95Y-29.2
X119.95Y-49.2
X119.95Y-69.2
X119.95Y-89.2
X120.75Y-24.057
X120.75Y-24.457
X120.75Y-24.857
X120.75Y-26.057
X120.75Y-27.657
X120.75Y-29.657
X120.75Y-31.657
X120.75Y-44.057
X120.75Y-44.457
X120.75Y-44.857
X120.75Y-46.057
X120.75Y-47.657
X120.75Y-49.657
X120.75Y-51.657
X120.75Y-64.057
X120.75Y-64.457
X120.75Y-64.857
X120.75Y-66.057
X120.75Y-67.657
X120.75Y-69.657
X120.75Y-71.657
X120.75Y-84.057
X120.75Y-84.457
X120.75Y-84.857
X120.75Y-86.057
X120.75Y-87.657
X120.75Y-89.657
X120.75Y-91.657
X120.95Y-33.359
X120.95Y-53.359
X120.95Y-73.359
X120.95Y-93.359
X121.0Y-35.934
X121.0Y-55.934
X121.0Y-75.934
X121.0Y-95.934
X121.434Y-29.105
X121.434Y-49.105
X121.434Y-69.105
X121.434Y-89.105
X121.45Y-27.3
X121.45Y-47.3
X121.45Y-67.3
X121.45Y-87.3
X121.459Y-31.423
X121.459Y-51.423
X121.459Y-71.423
X121.459Y-91.423
X121.5Y-28.4
X121.5Y-48.4
X121.5Y-68.4
X121.5Y-88.4
X121.511Y-33.34
X121.511Y-53.34
X121.511Y-73.34
X121.511Y-93.34
X121.55Y-29.9
X121.55Y-49.9
X121.55Y-69.9
X121.55Y-89.9
X124.285Y-33.017
X124.285Y-53.017
X124.285Y-73.017
X124.285Y-93.017
X124.305Y-30.432
X124.305Y-50.432
X124.305Y-70.432
X124.305Y-90.432
X124.379Y-28.205
X124.379Y-48.205
X124.379Y-68.205
X124.379Y-88.205
X124.41Y-22.179
X124.41Y-42.179
X124.41Y-62.179
X124.41Y-82.179
X124.45Y-27.3
X124.45Y-47.3
X124.45Y-67.3
X124.45Y-87.3
X124.458Y-26.162
X124.458Y-46.162
X124.458Y-66.162
X124.458Y-86.162
X124.992Y-35.115
X124.992Y-55.115
X124.992Y-75.115
X124.992Y-95.115
X125.0Y-33.716
X125.0Y-53.716
X125.0Y-73.716
X125.0Y-93.716
X125.15Y-27.257
X125.15Y-28.457
X125.15Y-29.257
X125.15Y-30.057
X125.15Y-30.457
X125.15Y-31.257
X125.15Y-31.657
X125.15Y-47.257
X125.15Y-48.457
X125.15Y-49.257
X125.15Y-50.057
X125.15Y-50.457
X125.15Y-51.257
X125.15Y-51.657
X125.15Y-67.257
X125.15Y-68.457
X125.15Y-69.257
X125.15Y-70.057
X125.15Y-70.457
X125.15Y-71.257
X125.15Y-71.657
X125.15Y-87.257
X125.15Y-88.457
X125.15Y-89.257
X125.15Y-90.057
X125.15Y-90.457
X125.15Y-91.257
X125.15Y-91.657
X125.4Y-19.884
X125.4Y-39.884
X125.4Y-59.884
X125.4Y-79.884
X125.56Y-29.349
X125.56Y-49.349
X125.56Y-69.349
X125.56Y-89.349
X125.707Y-23.713
X125.707Y-43.713
X125.707Y-63.713
X125.707Y-83.713
X125.82Y-26.449
X125.82Y-46.449
X125.82Y-66.449
X125.82Y-86.449
X125.972Y-27.296
X125.972Y-47.296
X125.972Y-67.296
X125.972Y-87.296
X126.249Y-31.207
X126.249Y-51.207
X126.249Y-71.207
X126.249Y-91.207
X126.26Y-26.519
X126.26Y-46.519
X126.26Y-66.519
X126.26Y-86.519
X126.326Y-25.737
X126.326Y-45.737
X126.326Y-65.737
X126.326Y-85.737
X126.355Y-23.116
X126.355Y-43.116
X126.355Y-63.116
X126.355Y-83.116
X126.39Y-26.159
X126.39Y-46.159
X126.39Y-66.159
X126.39Y-86.159
X126.442Y-23.956
X126.442Y-43.956
X126.442Y-63.956
X126.442Y-83.956
X126.445Y-28.457
X126.445Y-48.457
X126.445Y-68.457
X126.445Y-88.457
X126.45Y-28.057
X126.45Y-48.057
X126.45Y-68.057
X126.45Y-88.057
X126.457Y-27.656
X126.457Y-47.656
X126.457Y-67.656
X126.457Y-87.656
X126.47Y-35.083
X126.47Y-55.083
X126.47Y-75.083
X126.47Y-95.083
X126.5Y-35.934
X126.5Y-55.934
X126.5Y-75.934
X126.5Y-95.934
X126.693Y-30.038
X126.693Y-50.038
X126.693Y-70.038
X126.693Y-90.038
X126.71Y-27.219
X126.71Y-47.219
X126.71Y-67.219
X126.71Y-87.219
X126.763Y-26.088
X126.763Y-46.088
X126.763Y-66.088
X126.763Y-86.088
X126.79Y-26.499
X126.79Y-46.499
X126.79Y-66.499
X126.79Y-86.499
X126.898Y-23.96
X126.898Y-43.96
X126.898Y-63.96
X126.898Y-83.96
X127.107Y-24.857
X127.107Y-44.857
X127.107Y-64.857
X127.107Y-84.857
X127.4Y-19.884
X127.4Y-39.884
X127.4Y-59.884
X127.4Y-79.884
X127.55Y-26.457
X127.55Y-26.857
X127.55Y-27.257
X127.55Y-28.857
X127.55Y-29.257
X127.55Y-29.657
X127.55Y-30.057
X127.55Y-30.857
X127.55Y-46.457
X127.55Y-46.857
X127.55Y-47.257
X127.55Y-48.857
X127.55Y-49.257
X127.55Y-49.657
X127.55Y-50.057
X127.55Y-50.857
X127.55Y-66.457
X127.55Y-66.857
X127.55Y-67.257
X127.55Y-68.857
X127.55Y-69.257
X127.55Y-69.657
X127.55Y-70.057
X127.55Y-70.857
X127.55Y-86.457
X127.55Y-86.857
X127.55Y-87.257
X127.55Y-88.857
X127.55Y-89.257
X127.55Y-89.657
X127.55Y-90.057
X127.55Y-90.857
X128.0Y-35.934
X128.0Y-55.934
X128.0Y-75.934
X128.0Y-95.934
X128.35Y-20.059
X128.35Y-40.059
X128.35Y-60.059
X128.35Y-80.059
X128.95Y-25.459
X128.95Y-45.459
X128.95Y-65.459
X128.95Y-85.459
X129.175Y-24.709
X129.175Y-44.709
X129.175Y-64.709
X129.175Y-84.709
X129.4Y-19.884
X129.4Y-25.449
X129.4Y-39.884
X129.4Y-45.449
X129.4Y-59.884
X129.4Y-65.449
X129.4Y-79.884
X129.4Y-85.449
X129.5Y-35.934
X129.5Y-55.934
X129.5Y-75.934
X129.5Y-95.934
X129.68Y-29.857
X129.68Y-49.857
X129.68Y-69.857
X129.68Y-89.857
X129.95Y-26.259
X129.95Y-46.259
X129.95Y-66.259
X129.95Y-86.259
X129.96Y-26.766
X129.96Y-46.766
X129.96Y-66.766
X129.96Y-86.766
X129.98Y-28.871
X129.98Y-48.871
X129.98Y-68.871
X129.98Y-88.871
X130.095Y-24.758
X130.095Y-44.758
X130.095Y-64.758
X130.095Y-84.758
X130.11Y-25.199
X130.11Y-45.199
X130.11Y-65.199
X130.11Y-85.199
X130.343Y-28.504
X130.343Y-48.504
X130.343Y-68.504
X130.343Y-88.504
X130.4Y-19.4
X130.4Y-19.9
X130.4Y-20.5
X130.4Y-39.4
X130.4Y-39.9
X130.4Y-40.5
X130.4Y-59.4
X130.4Y-59.9
X130.4Y-60.5
X130.4Y-79.4
X130.4Y-79.9
X130.4Y-80.5
X130.76Y-25.949
X130.76Y-45.949
X130.76Y-65.949
X130.76Y-85.949
X130.825Y-23.209
X130.825Y-43.209
X130.825Y-63.209
X130.825Y-83.209
X131.0Y-35.934
X131.0Y-55.934
X131.0Y-75.934
X131.0Y-95.934
X131.4Y-20.409
X131.4Y-21.534
X131.4Y-40.409
X131.4Y-41.534
X131.4Y-60.409
X131.4Y-61.534
X131.4Y-80.409
X131.4Y-81.534
X131.415Y-24.704
X131.415Y-44.704
X131.415Y-64.704
X131.415Y-84.704
X131.61Y-25.391
X131.61Y-45.391
X131.61Y-65.391
X131.61Y-85.391
X131.63Y-25.769
X131.63Y-45.769
X131.63Y-65.769
X131.63Y-85.769
X131.636Y-26.219
X131.636Y-46.219
X131.636Y-66.219
X131.636Y-86.219
X131.661Y-30.954
X131.661Y-50.954
X131.661Y-70.954
X131.661Y-90.954
X131.677Y-31.859
X131.677Y-51.859
X131.677Y-71.859
X131.677Y-91.859
X131.694Y-25.026
X131.694Y-45.026
X131.694Y-65.026
X131.694Y-85.026
X131.695Y-32.379
X131.695Y-52.379
X131.695Y-72.379
X131.695Y-92.379
X131.74Y-27.25
X131.74Y-47.25
X131.74Y-67.25
X131.74Y-87.25
X131.78Y-30.099
X131.78Y-50.099
X131.78Y-70.099
X131.78Y-90.099
X132.29Y-28.671
X132.29Y-48.671
X132.29Y-68.671
X132.29Y-88.671
X132.395Y-21.525
X132.395Y-41.525
X132.395Y-61.525
X132.395Y-81.525
X132.5Y-35.934
X132.5Y-55.934
X132.5Y-75.934
X132.5Y-95.934
X132.7Y-19.35
X132.7Y-39.35
X132.7Y-59.35
X132.7Y-79.35
X132.75Y-28.461
X132.75Y-28.868
X132.75Y-48.461
X132.75Y-48.868
X132.75Y-68.461
X132.75Y-68.868
X132.75Y-88.461
X132.75Y-88.868
X132.913Y-21.002
X132.913Y-41.002
X132.913Y-61.002
X132.913Y-81.002
X133.25Y-19.35
X133.25Y-39.35
X133.25Y-59.35
X133.25Y-79.35
X133.399Y-21.14
X133.399Y-41.14
X133.399Y-61.14
X133.399Y-81.14
X133.516Y-31.875
X133.516Y-51.875
X133.516Y-71.875
X133.516Y-91.875
X133.53Y-25.057
X133.53Y-25.457
X133.53Y-25.857
X133.53Y-26.257
X133.53Y-26.657
X133.53Y-27.057
X133.53Y-27.457
X133.53Y-27.857
X133.53Y-28.257
X133.53Y-29.057
X133.53Y-29.457
X133.53Y-29.857
X133.53Y-45.057
X133.53Y-45.457
X133.53Y-45.857
X133.53Y-46.257
X133.53Y-46.657
X133.53Y-47.057
X133.53Y-47.457
X133.53Y-47.857
X133.53Y-48.257
X133.53Y-49.057
X133.53Y-49.457
X133.53Y-49.857
X133.53Y-65.057
X133.53Y-65.457
X133.53Y-65.857
X133.53Y-66.257
X133.53Y-66.657
X133.53Y-67.057
X133.53Y-67.457
X133.53Y-67.857
X133.53Y-68.257
X133.53Y-69.057
X133.53Y-69.457
X133.53Y-69.857
X133.53Y-85.057
X133.53Y-85.457
X133.53Y-85.857
X133.53Y-86.257
X133.53Y-86.657
X133.53Y-87.057
X133.53Y-87.457
X133.53Y-87.857
X133.53Y-88.257
X133.53Y-89.057
X133.53Y-89.457
X133.53Y-89.857
X133.55Y-19.7
X133.55Y-39.7
X133.55Y-59.7
X133.55Y-79.7
X133.916Y-31.867
X133.916Y-51.867
X133.916Y-71.867
X133.916Y-91.867
X134.0Y-19.7
X134.0Y-35.934
X134.0Y-39.7
X134.0Y-55.934
X134.0Y-59.7
X134.0Y-75.934
X134.0Y-79.7
X134.0Y-95.934
X134.1Y-22.109
X134.1Y-22.509
X134.1Y-42.109
X134.1Y-42.509
X134.1Y-62.109
X134.1Y-62.509
X134.1Y-82.109
X134.1Y-82.509
X134.2Y-19.35
X134.2Y-39.35
X134.2Y-59.35
X134.2Y-79.35
X134.5Y-22.109
X134.5Y-22.509
X134.5Y-42.109
X134.5Y-42.509
X134.5Y-62.109
X134.5Y-62.509
X134.5Y-82.109
X134.5Y-82.509
X134.65Y-25.45
X134.65Y-26.15
X134.65Y-26.9
X134.65Y-27.65
X134.65Y-28.4
X134.65Y-29.15
X134.65Y-29.9
X134.65Y-45.45
X134.65Y-46.15
X134.65Y-46.9
X134.65Y-47.65
X134.65Y-48.4
X134.65Y-49.15
X134.65Y-49.9
X134.65Y-65.45
X134.65Y-66.15
X134.65Y-66.9
X134.65Y-67.65
X134.65Y-68.4
X134.65Y-69.15
X134.65Y-69.9
X134.65Y-85.45
X134.65Y-86.15
X134.65Y-86.9
X134.65Y-87.65
X134.65Y-88.4
X134.65Y-89.15
X134.65Y-89.9
X134.85Y-20.259
X134.85Y-40.259
X134.85Y-60.259
X134.85Y-80.259
X134.9Y-22.109
X134.9Y-22.509
X134.9Y-25.8
X134.9Y-26.5
X134.9Y-27.25
X134.9Y-28.0
X134.9Y-28.75
X134.9Y-29.5
X134.9Y-30.25
X134.9Y-42.109
X134.9Y-42.509
X134.9Y-45.8
X134.9Y-46.5
X134.9Y-47.25
X134.9Y-48.0
X134.9Y-48.75
X134.9Y-49.5
X134.9Y-50.25
X134.9Y-62.109
X134.9Y-62.509
X134.9Y-65.8
X134.9Y-66.5
X134.9Y-67.25
X134.9Y-68.0
X134.9Y-68.75
X134.9Y-69.5
X134.9Y-70.25
X134.9Y-82.109
X134.9Y-82.509
X134.9Y-85.8
X134.9Y-86.5
X134.9Y-87.25
X134.9Y-88.0
X134.9Y-88.75
X134.9Y-89.5
X134.9Y-90.25
X135.1Y-24.277
X135.1Y-31.437
X135.1Y-44.277
X135.1Y-51.437
X135.1Y-64.277
X135.1Y-71.437
X135.1Y-84.277
X135.1Y-91.437
X135.19Y-21.209
X135.19Y-41.209
X135.19Y-61.209
X135.19Y-81.209
X135.2Y-25.45
X135.2Y-26.15
X135.2Y-26.9
X135.2Y-27.65
X135.2Y-28.4
X135.2Y-29.15
X135.2Y-29.9
X135.2Y-45.45
X135.2Y-46.15
X135.2Y-46.9
X135.2Y-47.65
X135.2Y-48.4
X135.2Y-49.15
X135.2Y-49.9
X135.2Y-65.45
X135.2Y-66.15
X135.2Y-66.9
X135.2Y-67.65
X135.2Y-68.4
X135.2Y-69.15
X135.2Y-69.9
X135.2Y-85.45
X135.2Y-86.15
X135.2Y-86.9
X135.2Y-87.65
X135.2Y-88.4
X135.2Y-89.15
X135.2Y-89.9
X135.45Y-25.8
X135.45Y-26.5
X135.45Y-27.25
X135.45Y-28.0
X135.45Y-28.75
X135.45Y-29.5
X135.45Y-30.25
X135.45Y-45.8
X135.45Y-46.5
X135.45Y-47.25
X135.45Y-48.0
X135.45Y-48.75
X135.45Y-49.5
X135.45Y-50.25
X135.45Y-65.8
X135.45Y-66.5
X135.45Y-67.25
X135.45Y-68.0
X135.45Y-68.75
X135.45Y-69.5
X135.45Y-70.25
X135.45Y-85.8
X135.45Y-86.5
X135.45Y-87.25
X135.45Y-88.0
X135.45Y-88.75
X135.45Y-89.5
X135.45Y-90.25
X135.5Y-24.277
X135.5Y-35.934
X135.5Y-44.277
X135.5Y-55.934
X135.5Y-64.277
X135.5Y-75.934
X135.5Y-84.277
X135.5Y-95.934
X135.75Y-25.45
X135.75Y-26.15
X135.75Y-26.9
X135.75Y-27.65
X135.75Y-28.4
X135.75Y-29.15
X135.75Y-29.9
X135.75Y-45.45
X135.75Y-46.15
X135.75Y-46.9
X135.75Y-47.65
X135.75Y-48.4
X135.75Y-49.15
X135.75Y-49.9
X135.75Y-65.45
X135.75Y-66.15
X135.75Y-66.9
X135.75Y-67.65
X135.75Y-68.4
X135.75Y-69.15
X135.75Y-69.9
X135.75Y-85.45
X135.75Y-86.15
X135.75Y-86.9
X135.75Y-87.65
X135.75Y-88.4
X135.75Y-89.15
X135.75Y-89.9
X135.9Y-24.277
X135.9Y-44.277
X135.9Y-64.277
X135.9Y-84.277
X135.95Y-19.35
X135.95Y-39.35
X135.95Y-59.35
X135.95Y-79.35
X136.0Y-25.8
X136.0Y-26.5
X136.0Y-27.25
X136.0Y-28.0
X136.0Y-28.75
X136.0Y-29.5
X136.0Y-30.25
X136.0Y-45.8
X136.0Y-46.5
X136.0Y-47.25
X136.0Y-48.0
X136.0Y-48.75
X136.0Y-49.5
X136.0Y-50.25
X136.0Y-65.8
X136.0Y-66.5
X136.0Y-67.25
X136.0Y-68.0
X136.0Y-68.75
X136.0Y-69.5
X136.0Y-70.25
X136.0Y-85.8
X136.0Y-86.5
X136.0Y-87.25
X136.0Y-88.0
X136.0Y-88.75
X136.0Y-89.5
X136.0Y-90.25
X136.18Y-22.209
X136.18Y-23.209
X136.18Y-42.209
X136.18Y-43.209
X136.18Y-62.209
X136.18Y-63.209
X136.18Y-82.209
X136.18Y-83.209
X136.21Y-21.209
X136.21Y-41.209
X136.21Y-61.209
X136.21Y-81.209
X136.24Y-32.029
X136.24Y-52.029
X136.24Y-72.029
X136.24Y-92.029
X136.3Y-24.277
X136.3Y-25.45
X136.3Y-26.15
X136.3Y-26.9
X136.3Y-27.65
X136.3Y-28.4
X136.3Y-29.15
X136.3Y-29.9
X136.3Y-31.437
X136.3Y-44.277
X136.3Y-45.45
X136.3Y-46.15
X136.3Y-46.9
X136.3Y-47.65
X136.3Y-48.4
X136.3Y-49.15
X136.3Y-49.9
X136.3Y-51.437
X136.3Y-64.277
X136.3Y-65.45
X136.3Y-66.15
X136.3Y-66.9
X136.3Y-67.65
X136.3Y-68.4
X136.3Y-69.15
X136.3Y-69.9
X136.3Y-71.437
X136.3Y-84.277
X136.3Y-85.45
X136.3Y-86.15
X136.3Y-86.9
X136.3Y-87.65
X136.3Y-88.4
X136.3Y-89.15
X136.3Y-89.9
X136.3Y-91.437
X136.34Y-19.869
X136.34Y-39.869
X136.34Y-59.869
X136.34Y-79.869
X136.55Y-25.8
X136.55Y-26.5
X136.55Y-27.25
X136.55Y-28.0
X136.55Y-28.75
X136.55Y-29.5
X136.55Y-30.25
X136.55Y-45.8
X136.55Y-46.5
X136.55Y-47.25
X136.55Y-48.0
X136.55Y-48.75
X136.55Y-49.5
X136.55Y-50.25
X136.55Y-65.8
X136.55Y-66.5
X136.55Y-67.25
X136.55Y-68.0
X136.55Y-68.75
X136.55Y-69.5
X136.55Y-70.25
X136.55Y-85.8
X136.55Y-86.5
X136.55Y-87.25
X136.55Y-88.0
X136.55Y-88.75
X136.55Y-89.5
X136.55Y-90.25
X136.6Y-19.4
X136.6Y-39.4
X136.6Y-59.4
X136.6Y-79.4
X136.7Y-24.277
X136.7Y-44.277
X136.7Y-64.277
X136.7Y-84.277
X136.85Y-25.45
X136.85Y-26.15
X136.85Y-26.9
X136.85Y-27.65
X136.85Y-28.4
X136.85Y-29.15
X136.85Y-29.9
X136.85Y-45.45
X136.85Y-46.15
X136.85Y-46.9
X136.85Y-47.65
X136.85Y-48.4
X136.85Y-49.15
X136.85Y-49.9
X136.85Y-65.45
X136.85Y-66.15
X136.85Y-66.9
X136.85Y-67.65
X136.85Y-68.4
X136.85Y-69.15
X136.85Y-69.9
X136.85Y-85.45
X136.85Y-86.15
X136.85Y-86.9
X136.85Y-87.65
X136.85Y-88.4
X136.85Y-89.15
X136.85Y-89.9
X137.0Y-35.934
X137.0Y-55.934
X137.0Y-75.934
X137.0Y-95.934
X137.051Y-23.047
X137.051Y-43.047
X137.051Y-63.047
X137.051Y-83.047
X137.1Y-24.277
X137.1Y-25.8
X137.1Y-26.5
X137.1Y-27.25
X137.1Y-28.0
X137.1Y-28.75
X137.1Y-29.5
X137.1Y-30.25
X137.1Y-44.277
X137.1Y-45.8
X137.1Y-46.5
X137.1Y-47.25
X137.1Y-48.0
X137.1Y-48.75
X137.1Y-49.5
X137.1Y-50.25
X137.1Y-64.277
X137.1Y-65.8
X137.1Y-66.5
X137.1Y-67.25
X137.1Y-68.0
X137.1Y-68.75
X137.1Y-69.5
X137.1Y-70.25
X137.1Y-84.277
X137.1Y-85.8
X137.1Y-86.5
X137.1Y-87.25
X137.1Y-88.0
X137.1Y-88.75
X137.1Y-89.5
X137.1Y-90.25
X137.2Y-22.229
X137.2Y-42.229
X137.2Y-62.229
X137.2Y-82.229
X137.25Y-19.359
X137.25Y-39.359
X137.25Y-59.359
X137.25Y-79.359
X137.4Y-25.45
X137.4Y-26.15
X137.4Y-26.9
X137.4Y-27.65
X137.4Y-28.4
X137.4Y-29.15
X137.4Y-29.9
X137.4Y-45.45
X137.4Y-46.15
X137.4Y-46.9
X137.4Y-47.65
X137.4Y-48.4
X137.4Y-49.15
X137.4Y-49.9
X137.4Y-65.45
X137.4Y-66.15
X137.4Y-66.9
X137.4Y-67.65
X137.4Y-68.4
X137.4Y-69.15
X137.4Y-69.9
X137.4Y-85.45
X137.4Y-86.15
X137.4Y-86.9
X137.4Y-87.65
X137.4Y-88.4
X137.4Y-89.15
X137.4Y-89.9
X137.5Y-24.277
X137.5Y-44.277
X137.5Y-64.277
X137.5Y-84.277
X137.62Y-33.669
X137.62Y-53.669
X137.62Y-73.669
X137.62Y-93.669
X137.65Y-25.8
X137.65Y-26.5
X137.65Y-27.25
X137.65Y-28.0
X137.65Y-28.75
X137.65Y-29.5
X137.65Y-30.25
X137.65Y-45.8
X137.65Y-46.5
X137.65Y-47.25
X137.65Y-48.0
X137.65Y-48.75
X137.65Y-49.5
X137.65Y-50.25
X137.65Y-65.8
X137.65Y-66.5
X137.65Y-67.25
X137.65Y-68.0
X137.65Y-68.75
X137.65Y-69.5
X137.65Y-70.25
X137.65Y-85.8
X137.65Y-86.5
X137.65Y-87.25
X137.65Y-88.0
X137.65Y-88.75
X137.65Y-89.5
X137.65Y-90.25
X137.88Y-19.769
X137.88Y-39.769
X137.88Y-59.769
X137.88Y-79.769
X137.95Y-25.45
X137.95Y-26.15
X137.95Y-26.9
X137.95Y-27.65
X137.95Y-28.4
X137.95Y-29.15
X137.95Y-29.9
X137.95Y-45.45
X137.95Y-46.15
X137.95Y-46.9
X137.95Y-47.65
X137.95Y-48.4
X137.95Y-49.15
X137.95Y-49.9
X137.95Y-65.45
X137.95Y-66.15
X137.95Y-66.9
X137.95Y-67.65
X137.95Y-68.4
X137.95Y-69.15
X137.95Y-69.9
X137.95Y-85.45
X137.95Y-86.15
X137.95Y-86.9
X137.95Y-87.65
X137.95Y-88.4
X137.95Y-89.15
X137.95Y-89.9
X138.09Y-33.579
X138.09Y-53.579
X138.09Y-73.579
X138.09Y-93.579
X138.16Y-33.059
X138.16Y-53.059
X138.16Y-73.059
X138.16Y-93.059
X138.2Y-25.8
X138.2Y-26.5
X138.2Y-27.25
X138.2Y-28.0
X138.2Y-28.75
X138.2Y-29.5
X138.2Y-30.25
X138.2Y-45.8
X138.2Y-46.5
X138.2Y-47.25
X138.2Y-48.0
X138.2Y-48.75
X138.2Y-49.5
X138.2Y-50.25
X138.2Y-65.8
X138.2Y-66.5
X138.2Y-67.25
X138.2Y-68.0
X138.2Y-68.75
X138.2Y-69.5
X138.2Y-70.25
X138.2Y-85.8
X138.2Y-86.5
X138.2Y-87.25
X138.2Y-88.0
X138.2Y-88.75
X138.2Y-89.5
X138.2Y-90.25
X138.462Y-20.58
X138.462Y-40.58
X138.462Y-60.58
X138.462Y-80.58
X138.5Y-25.45
X138.5Y-26.15
X138.5Y-26.9
X138.5Y-27.65
X138.5Y-28.4
X138.5Y-29.15
X138.5Y-29.9
X138.5Y-35.934
X138.5Y-45.45
X138.5Y-46.15
X138.5Y-46.9
X138.5Y-47.65
X138.5Y-48.4
X138.5Y-49.15
X138.5Y-49.9
X138.5Y-55.934
X138.5Y-65.45
X138.5Y-66.15
X138.5Y-66.9
X138.5Y-67.65
X138.5Y-68.4
X138.5Y-69.15
X138.5Y-69.9
X138.5Y-75.934
X138.5Y-85.45
X138.5Y-86.15
X138.5Y-86.9
X138.5Y-87.65
X138.5Y-88.4
X138.5Y-89.15
X138.5Y-89.9
X138.5Y-95.934
X138.75Y-25.8
X138.75Y-26.5
X138.75Y-27.25
X138.75Y-28.0
X138.75Y-28.75
X138.75Y-29.5
X138.75Y-30.25
X138.75Y-45.8
X138.75Y-46.5
X138.75Y-47.25
X138.75Y-48.0
X138.75Y-48.75
X138.75Y-49.5
X138.75Y-50.25
X138.75Y-65.8
X138.75Y-66.5
X138.75Y-67.25
X138.75Y-68.0
X138.75Y-68.75
X138.75Y-69.5
X138.75Y-70.25
X138.75Y-85.8
X138.75Y-86.5
X138.75Y-87.25
X138.75Y-88.0
X138.75Y-88.75
X138.75Y-89.5
X138.75Y-90.25
X138.86Y-32.789
X138.86Y-52.789
X138.86Y-72.789
X138.86Y-92.789
X138.91Y-33.499
X138.91Y-53.499
X138.91Y-73.499
X138.91Y-93.499
X139.05Y-25.45
X139.05Y-26.15
X139.05Y-26.9
X139.05Y-27.65
X139.05Y-28.4
X139.05Y-29.15
X139.05Y-29.9
X139.05Y-45.45
X139.05Y-46.15
X139.05Y-46.9
X139.05Y-47.65
X139.05Y-48.4
X139.05Y-49.15
X139.05Y-49.9
X139.05Y-65.45
X139.05Y-66.15
X139.05Y-66.9
X139.05Y-67.65
X139.05Y-68.4
X139.05Y-69.15
X139.05Y-69.9
X139.05Y-85.45
X139.05Y-86.15
X139.05Y-86.9
X139.05Y-87.65
X139.05Y-88.4
X139.05Y-89.15
X139.05Y-89.9
X139.3Y-25.8
X139.3Y-26.5
X139.3Y-27.25
X139.3Y-28.0
X139.3Y-28.75
X139.3Y-29.5
X139.3Y-30.25
X139.3Y-32.329
X139.3Y-45.8
X139.3Y-46.5
X139.3Y-47.25
X139.3Y-48.0
X139.3Y-48.75
X139.3Y-49.5
X139.3Y-50.25
X139.3Y-52.329
X139.3Y-65.8
X139.3Y-66.5
X139.3Y-67.25
X139.3Y-68.0
X139.3Y-68.75
X139.3Y-69.5
X139.3Y-70.25
X139.3Y-72.329
X139.3Y-85.8
X139.3Y-86.5
X139.3Y-87.25
X139.3Y-88.0
X139.3Y-88.75
X139.3Y-89.5
X139.3Y-90.25
X139.3Y-92.329
X139.55Y-25.45
X139.55Y-26.15
X139.55Y-26.9
X139.55Y-27.65
X139.55Y-28.4
X139.55Y-29.15
X139.55Y-29.9
X139.55Y-45.45
X139.55Y-46.15
X139.55Y-46.9
X139.55Y-47.65
X139.55Y-48.4
X139.55Y-49.15
X139.55Y-49.9
X139.55Y-65.45
X139.55Y-66.15
X139.55Y-66.9
X139.55Y-67.65
X139.55Y-68.4
X139.55Y-69.15
X139.55Y-69.9
X139.55Y-85.45
X139.55Y-86.15
X139.55Y-86.9
X139.55Y-87.65
X139.55Y-88.4
X139.55Y-89.15
X139.55Y-89.9
X139.57Y-33.149
X139.57Y-53.149
X139.57Y-73.149
X139.57Y-93.149
X139.61Y-32.739
X139.61Y-52.739
X139.61Y-72.739
X139.61Y-92.739
X139.65Y-33.589
X139.65Y-53.589
X139.65Y-73.589
X139.65Y-93.589
X139.87Y-19.829
X139.87Y-39.829
X139.87Y-59.829
X139.87Y-79.829
X140.0Y-35.934
X140.0Y-55.934
X140.0Y-75.934
X140.0Y-95.934
X140.036Y-20.554
X140.036Y-40.554
X140.036Y-60.554
X140.036Y-80.554
X140.28Y-31.049
X140.28Y-51.049
X140.28Y-71.049
X140.28Y-91.049
X140.34Y-31.859
X140.34Y-32.979
X140.34Y-51.859
X140.34Y-52.979
X140.34Y-71.859
X140.34Y-72.979
X140.34Y-91.859
X140.34Y-92.979
X140.37Y-33.569
X140.37Y-53.569
X140.37Y-73.569
X140.37Y-93.569
X140.45Y-23.249
X140.45Y-43.249
X140.45Y-63.249
X140.45Y-83.249
X140.47Y-31.499
X140.47Y-51.499
X140.47Y-71.499
X140.47Y-91.499
X140.67Y-25.057
X140.67Y-25.457
X140.67Y-27.057
X140.67Y-45.057
X140.67Y-45.457
X140.67Y-47.057
X140.67Y-65.057
X140.67Y-65.457
X140.67Y-67.057
X140.67Y-85.057
X140.67Y-85.457
X140.67Y-87.057
X140.72Y-31.839
X140.72Y-51.839
X140.72Y-71.839
X140.72Y-91.839
X140.727Y-21.539
X140.727Y-41.539
X140.727Y-61.539
X140.727Y-81.539
X140.75Y-32.239
X140.75Y-52.239
X140.75Y-72.239
X140.75Y-92.239
X140.78Y-31.069
X140.78Y-51.069
X140.78Y-71.069
X140.78Y-91.069
X140.96Y-33.619
X140.96Y-53.619
X140.96Y-73.619
X140.96Y-93.619
X141.04Y-23.419
X141.04Y-43.419
X141.04Y-63.419
X141.04Y-83.419
X141.45Y-27.059
X141.45Y-47.059
X141.45Y-67.059
X141.45Y-87.059
X141.5Y-35.934
X141.5Y-55.934
X141.5Y-75.934
X141.5Y-95.934
X141.54Y-23.049
X141.54Y-43.049
X141.54Y-63.049
X141.54Y-83.049
X141.62Y-19.799
X141.62Y-39.799
X141.62Y-59.799
X141.62Y-79.799
X141.85Y-27.059
X141.85Y-47.059
X141.85Y-67.059
X141.85Y-87.059
X141.911Y-26.217
X141.911Y-46.217
X141.911Y-66.217
X141.911Y-86.217
X142.0Y-23.629
X142.0Y-43.629
X142.0Y-63.629
X142.0Y-83.629
X142.092Y-25.128
X142.092Y-45.128
X142.092Y-65.128
X142.092Y-85.128
X142.35Y-27.05
X142.35Y-47.05
X142.35Y-67.05
X142.35Y-87.05
X142.401Y-32.029
X142.401Y-52.029
X142.401Y-72.029
X142.401Y-92.029
X142.703Y-25.435
X142.703Y-45.435
X142.703Y-65.435
X142.703Y-85.435
X142.738Y-23.92
X142.738Y-43.92
X142.738Y-63.92
X142.738Y-83.92
X142.78Y-31.429
X142.78Y-51.429
X142.78Y-71.429
X142.78Y-91.429
X142.85Y-26.95
X142.85Y-46.95
X142.85Y-66.95
X142.85Y-86.95
X143.0Y-35.934
X143.0Y-55.934
X143.0Y-75.934
X143.0Y-95.934
X143.05Y-28.45
X143.05Y-48.45
X143.05Y-68.45
X143.05Y-88.45
X143.1Y-29.95
X143.1Y-49.95
X143.1Y-69.95
X143.1Y-89.95
X143.53Y-19.819
X143.53Y-39.819
X143.53Y-59.819
X143.53Y-79.819
X143.6Y-26.95
X143.6Y-28.5
X143.6Y-46.95
X143.6Y-48.5
X143.6Y-66.95
X143.6Y-68.5
X143.6Y-86.95
X143.6Y-88.5
X143.74Y-32.509
X143.74Y-52.509
X143.74Y-72.509
X143.74Y-92.509
X143.8Y-30.2
X143.8Y-50.2
X143.8Y-70.2
X143.8Y-90.2
X143.85Y-26.55
X143.85Y-27.659
X143.85Y-28.1
X143.85Y-29.059
X143.85Y-29.75
X143.85Y-46.55
X143.85Y-47.659
X143.85Y-48.1
X143.85Y-49.059
X143.85Y-49.75
X143.85Y-66.55
X143.85Y-67.659
X143.85Y-68.1
X143.85Y-69.059
X143.85Y-69.75
X143.85Y-86.55
X143.85Y-87.659
X143.85Y-88.1
X143.85Y-89.059
X143.85Y-89.75
X143.9Y-27.25
X143.9Y-31.2
X143.9Y-47.25
X143.9Y-51.2
X143.9Y-67.25
X143.9Y-71.2
X143.9Y-87.25
X143.9Y-91.2
X143.94Y-32.059
X143.94Y-52.059
X143.94Y-72.059
X143.94Y-92.059
X143.95Y-26.159
X143.95Y-30.759
X143.95Y-46.159
X143.95Y-50.759
X143.95Y-66.159
X143.95Y-70.759
X143.95Y-86.159
X143.95Y-90.759
X144.1Y-26.9
X144.1Y-28.5
X144.1Y-31.6
X144.1Y-46.9
X144.1Y-48.5
X144.1Y-51.6
X144.1Y-66.9
X144.1Y-68.5
X144.1Y-71.6
X144.1Y-86.9
X144.1Y-88.5
X144.1Y-91.6
X144.5Y-19.784
X144.5Y-35.934
X144.5Y-39.784
X144.5Y-55.934
X144.5Y-59.784
X144.5Y-75.934
X144.5Y-79.784
X144.5Y-95.934
X144.75Y-29.95
X144.75Y-49.95
X144.75Y-69.95
X144.75Y-89.95
X145.75Y-22.559
X145.75Y-42.559
X145.75Y-62.559
X145.75Y-82.559
X145.9Y-22.15
X145.9Y-42.15
X145.9Y-62.15
X145.9Y-82.15
X146.0Y-19.784
X146.0Y-35.934
X146.0Y-39.784
X146.0Y-55.934
X146.0Y-59.784
X146.0Y-75.934
X146.0Y-79.784
X146.0Y-95.934
X146.35Y-22.259
X146.35Y-24.057
X146.35Y-24.457
X146.35Y-24.857
X146.35Y-28.857
X146.35Y-29.257
X146.35Y-29.657
X146.35Y-30.057
X146.35Y-30.457
X146.35Y-30.857
X146.35Y-31.257
X146.35Y-31.657
X146.35Y-42.259
X146.35Y-44.057
X146.35Y-44.457
X146.35Y-44.857
X146.35Y-48.857
X146.35Y-49.257
X146.35Y-49.657
X146.35Y-50.057
X146.35Y-50.457
X146.35Y-50.857
X146.35Y-51.257
X146.35Y-51.657
X146.35Y-62.259
X146.35Y-64.057
X146.35Y-64.457
X146.35Y-64.857
X146.35Y-68.857
X146.35Y-69.257
X146.35Y-69.657
X146.35Y-70.057
X146.35Y-70.457
X146.35Y-70.857
X146.35Y-71.257
X146.35Y-71.657
X146.35Y-82.259
X146.35Y-84.057
X146.35Y-84.457
X146.35Y-84.857
X146.35Y-88.857
X146.35Y-89.257
X146.35Y-89.657
X146.35Y-90.057
X146.35Y-90.457
X146.35Y-90.857
X146.35Y-91.257
X146.35Y-91.657
X147.15Y-28.05
X147.15Y-28.5
X147.15Y-48.05
X147.15Y-48.5
X147.15Y-68.05
X147.15Y-68.5
X147.15Y-88.05
X147.15Y-88.5
X147.25Y-27.45
X147.25Y-47.45
X147.25Y-67.45
X147.25Y-87.45
X147.359Y-27.026
X147.359Y-47.026
X147.359Y-67.026
X147.359Y-87.026
X147.5Y-22.08
X147.5Y-29.2
X147.5Y-35.934
X147.5Y-42.08
X147.5Y-49.2
X147.5Y-55.934
X147.5Y-62.08
X147.5Y-69.2
X147.5Y-75.934
X147.5Y-82.08
X147.5Y-89.2
X147.5Y-95.934
X147.683Y-25.493
X147.683Y-45.493
X147.683Y-65.493
X147.683Y-85.493
X147.85Y-28.6
X147.85Y-29.6
X147.85Y-48.6
X147.85Y-49.6
X147.85Y-68.6
X147.85Y-69.6
X147.85Y-88.6
X147.85Y-89.6
X147.9Y-27.45
X147.9Y-28.15
X147.9Y-47.45
X147.9Y-48.15
X147.9Y-67.45
X147.9Y-68.15
X147.9Y-87.45
X147.9Y-88.15
X147.95Y-29.2
X147.95Y-49.2
X147.95Y-69.2
X147.95Y-89.2
X148.75Y-24.057
X148.75Y-24.457
X148.75Y-24.857
X148.75Y-26.057
X148.75Y-27.657
X148.75Y-29.657
X148.75Y-31.657
X148.75Y-44.057
X148.75Y-44.457
X148.75Y-44.857
X148.75Y-46.057
X148.75Y-47.657
X148.75Y-49.657
X148.75Y-51.657
X148.75Y-64.057
X148.75Y-64.457
X148.75Y-64.857
X148.75Y-66.057
X148.75Y-67.657
X148.75Y-69.657
X148.75Y-71.657
X148.75Y-84.057
X148.75Y-84.457
X148.75Y-84.857
X148.75Y-86.057
X148.75Y-87.657
X148.75Y-89.657
X148.75Y-91.657
X148.95Y-33.359
X148.95Y-53.359
X148.95Y-73.359
X148.95Y-93.359
X149.0Y-35.934
X149.0Y-55.934
X149.0Y-75.934
X149.0Y-95.934
X149.434Y-29.105
X149.434Y-49.105
X149.434Y-69.105
X149.434Y-89.105
X149.45Y-27.3
X149.45Y-47.3
X149.45Y-67.3
X149.45Y-87.3
X149.459Y-31.423
X149.459Y-51.423
X149.459Y-71.423
X149.459Y-91.423
X149.5Y-28.4
X149.5Y-48.4
X149.5Y-68.4
X149.5Y-88.4
X149.511Y-33.34
X149.511Y-53.34
X149.511Y-73.34
X149.511Y-93.34
X149.55Y-29.9
X149.55Y-49.9
X149.55Y-69.9
X149.55Y-89.9
M30
