%TF.GenerationSoftware,KiCad,Pcbnew,9.0.2*%
%TF.CreationDate,2025-07-16T13:59:47+02:00*%
%TF.ProjectId,ILM139C_panel4x4,494c4d31-3339-4435-9f70-616e656c3478,V0.1.0*%
%TF.SameCoordinates,Original*%
%TF.FileFunction,Profile,NP*%
%FSLAX46Y46*%
G04 Gerber Fmt 4.6, Leading zero omitted, Abs format (unit mm)*
G04 Created by KiCad (PCBNEW 9.0.2) date 2025-07-16 13:59:47*
%MOMM*%
%LPD*%
G01*
G04 APERTURE LIST*
%TA.AperFunction,Profile*%
%ADD10C,0.050000*%
%TD*%
%ADD11C,0.150000*%
G04 APERTURE END LIST*
D10*
X50950000Y-96858501D02*
X39950000Y-96858501D01*
X149950000Y-89858501D02*
X149950000Y-96858501D01*
X37950000Y-49858501D02*
X39950000Y-49858501D01*
X149950000Y-89858501D02*
X151950000Y-89858501D01*
X37950000Y-29858501D02*
X39950000Y-29858501D01*
X121950000Y-58858501D02*
X121950000Y-65858501D01*
X149950000Y-96858501D02*
X138950000Y-96858501D01*
X121950000Y-29858501D02*
X123950000Y-29858501D01*
X65950000Y-25858501D02*
X67950000Y-25858501D01*
X67950000Y-38858501D02*
X78950000Y-38858501D01*
X65950000Y-89858501D02*
X67950000Y-89858501D01*
X82950000Y-98858501D02*
X82950000Y-96858501D01*
X138950000Y-16858501D02*
X151950000Y-16858501D01*
X123950000Y-78858501D02*
X134950000Y-78858501D01*
X138950000Y-58858501D02*
X149950000Y-58858501D01*
X65950000Y-18858501D02*
X65950000Y-25858501D01*
X95950000Y-56858501D02*
X95950000Y-49858501D01*
X149950000Y-45858501D02*
X151950000Y-45858501D01*
X149950000Y-69858501D02*
X149950000Y-76858501D01*
X67950000Y-78858501D02*
X78950000Y-78858501D01*
X34950000Y-101858501D02*
X34950000Y-13858501D01*
X78950000Y-36858501D02*
X67950000Y-36858501D01*
X138950000Y-38858501D02*
X138950000Y-36858501D01*
X149950000Y-76858501D02*
X138950000Y-76858501D01*
X95950000Y-25858501D02*
X95950000Y-18858501D01*
X54950000Y-38858501D02*
X54950000Y-36858501D01*
X110950000Y-98858501D02*
X110950000Y-96858501D01*
X95950000Y-58858501D02*
X106950000Y-58858501D01*
X67950000Y-85858501D02*
X67950000Y-78858501D01*
X110950000Y-38858501D02*
X121950000Y-38858501D01*
X78950000Y-38858501D02*
X78950000Y-36858501D01*
X78950000Y-76858501D02*
X67950000Y-76858501D01*
X93950000Y-29858501D02*
X95950000Y-29858501D01*
X50950000Y-38858501D02*
X50950000Y-36858501D01*
X37950000Y-65858501D02*
X37950000Y-49858501D01*
X54950000Y-58858501D02*
X65950000Y-58858501D01*
X65950000Y-96858501D02*
X54950000Y-96858501D01*
X121950000Y-65858501D02*
X123950000Y-65858501D01*
X138950000Y-78858501D02*
X138950000Y-76858501D01*
X54950000Y-38858501D02*
X65950000Y-38858501D01*
X106950000Y-96858501D02*
X95950000Y-96858501D01*
X54950000Y-18858501D02*
X65950000Y-18858501D01*
X82950000Y-18858501D02*
X93950000Y-18858501D01*
X123950000Y-45858501D02*
X123950000Y-38858501D01*
X93950000Y-96858501D02*
X82950000Y-96858501D01*
X95950000Y-38858501D02*
X106950000Y-38858501D01*
X110950000Y-58858501D02*
X121950000Y-58858501D01*
X67950000Y-58858501D02*
X78950000Y-58858501D01*
X37950000Y-89858501D02*
X39950000Y-89858501D01*
X65950000Y-38858501D02*
X65950000Y-45858501D01*
X39950000Y-36858501D02*
X39950000Y-29858501D01*
X95950000Y-45858501D02*
X95950000Y-38858501D01*
X123950000Y-38858501D02*
X134950000Y-38858501D01*
X50950000Y-58858501D02*
X50950000Y-56858501D01*
X67950000Y-36858501D02*
X67950000Y-29858501D01*
X134950000Y-76858501D02*
X123950000Y-76858501D01*
X39950000Y-45858501D02*
X39950000Y-38858501D01*
X65950000Y-29858501D02*
X65950000Y-36858501D01*
X106950000Y-98858501D02*
X82950000Y-98858501D01*
X149950000Y-29858501D02*
X149950000Y-36858501D01*
X54950000Y-16858501D02*
X78950000Y-16858501D01*
X95950000Y-96858501D02*
X95950000Y-89858501D01*
X151950000Y-16858501D02*
X151950000Y-25858501D01*
X138950000Y-38858501D02*
X149950000Y-38858501D01*
X110950000Y-18858501D02*
X110950000Y-16858501D01*
X106950000Y-18858501D02*
X106950000Y-16858501D01*
X36950000Y-100358501D02*
G75*
G02*
X35950000Y-100358501I-500000J0D01*
G01*
X35950000Y-100358501D02*
G75*
G02*
X36950000Y-100358501I500000J0D01*
G01*
X93950000Y-45858501D02*
X95950000Y-45858501D01*
X82950000Y-16858501D02*
X106950000Y-16858501D01*
X138950000Y-58858501D02*
X138950000Y-56858501D01*
X50950000Y-78858501D02*
X50950000Y-76858501D01*
X110950000Y-78858501D02*
X121950000Y-78858501D01*
X95950000Y-78858501D02*
X106950000Y-78858501D01*
X93950000Y-76858501D02*
X82950000Y-76858501D01*
X149950000Y-78858501D02*
X149950000Y-85858501D01*
X123950000Y-58858501D02*
X134950000Y-58858501D01*
X36950000Y-15358501D02*
G75*
G02*
X35950000Y-15358501I-500000J0D01*
G01*
X35950000Y-15358501D02*
G75*
G02*
X36950000Y-15358501I500000J0D01*
G01*
X37950000Y-45858501D02*
X39950000Y-45858501D01*
X151950000Y-29858501D02*
X151950000Y-45858501D01*
X54950000Y-78858501D02*
X65950000Y-78858501D01*
X123950000Y-76858501D02*
X123950000Y-69858501D01*
X106950000Y-56858501D02*
X95950000Y-56858501D01*
X82950000Y-38858501D02*
X82950000Y-36858501D01*
X134950000Y-38858501D02*
X134950000Y-36858501D01*
X149950000Y-38858501D02*
X149950000Y-45858501D01*
X93950000Y-89858501D02*
X93950000Y-96858501D01*
X78950000Y-96858501D02*
X67950000Y-96858501D01*
X149950000Y-56858501D02*
X138950000Y-56858501D01*
X138950000Y-78858501D02*
X149950000Y-78858501D01*
X78950000Y-98858501D02*
X54950000Y-98858501D01*
X95950000Y-18858501D02*
X106950000Y-18858501D01*
X82950000Y-18858501D02*
X82950000Y-16858501D01*
X106950000Y-78858501D02*
X106950000Y-76858501D01*
X110950000Y-58858501D02*
X110950000Y-56858501D01*
X106950000Y-36858501D02*
X95950000Y-36858501D01*
X154950000Y-13858501D02*
X154950000Y-101858501D01*
X121950000Y-36858501D02*
X110950000Y-36858501D01*
X93950000Y-69858501D02*
X95950000Y-69858501D01*
X37950000Y-85858501D02*
X39950000Y-85858501D01*
X121950000Y-38858501D02*
X121950000Y-45858501D01*
X95950000Y-65858501D02*
X95950000Y-58858501D01*
X82950000Y-78858501D02*
X82950000Y-76858501D01*
X65950000Y-49858501D02*
X65950000Y-56858501D01*
X121950000Y-85858501D02*
X123950000Y-85858501D01*
X67950000Y-18858501D02*
X78950000Y-18858501D01*
X93950000Y-18858501D02*
X93950000Y-25858501D01*
X82950000Y-38858501D02*
X93950000Y-38858501D01*
X149950000Y-49858501D02*
X149950000Y-56858501D01*
X149950000Y-29858501D02*
X151950000Y-29858501D01*
X65950000Y-65858501D02*
X67950000Y-65858501D01*
X34950000Y-13858501D02*
X154950000Y-13858501D01*
X110950000Y-98858501D02*
X134950000Y-98858501D01*
X149950000Y-58858501D02*
X149950000Y-65858501D01*
X82950000Y-78858501D02*
X93950000Y-78858501D01*
X123950000Y-25858501D02*
X123950000Y-18858501D01*
X134950000Y-18858501D02*
X134950000Y-16858501D01*
X65950000Y-76858501D02*
X54950000Y-76858501D01*
X134950000Y-58858501D02*
X134950000Y-56858501D01*
X65950000Y-89858501D02*
X65950000Y-96858501D01*
X110950000Y-16858501D02*
X134950000Y-16858501D01*
X65950000Y-58858501D02*
X65950000Y-65858501D01*
X78950000Y-56858501D02*
X67950000Y-56858501D01*
X93950000Y-25858501D02*
X95950000Y-25858501D01*
X110950000Y-78858501D02*
X110950000Y-76858501D01*
D11*
X78854759Y-15680701D02*
X78759521Y-15728320D01*
X78759521Y-15728320D02*
X78569045Y-15728320D01*
X78569045Y-15728320D02*
X78473807Y-15680701D01*
X78473807Y-15680701D02*
X78426188Y-15585462D01*
X78426188Y-15585462D02*
X78426188Y-15204510D01*
X78426188Y-15204510D02*
X78473807Y-15109272D01*
X78473807Y-15109272D02*
X78569045Y-15061653D01*
X78569045Y-15061653D02*
X78759521Y-15061653D01*
X78759521Y-15061653D02*
X78854759Y-15109272D01*
X78854759Y-15109272D02*
X78902378Y-15204510D01*
X78902378Y-15204510D02*
X78902378Y-15299748D01*
X78902378Y-15299748D02*
X78426188Y-15394986D01*
X79759521Y-15728320D02*
X79759521Y-14728320D01*
X79759521Y-15680701D02*
X79664283Y-15728320D01*
X79664283Y-15728320D02*
X79473807Y-15728320D01*
X79473807Y-15728320D02*
X79378569Y-15680701D01*
X79378569Y-15680701D02*
X79330950Y-15633081D01*
X79330950Y-15633081D02*
X79283331Y-15537843D01*
X79283331Y-15537843D02*
X79283331Y-15252129D01*
X79283331Y-15252129D02*
X79330950Y-15156891D01*
X79330950Y-15156891D02*
X79378569Y-15109272D01*
X79378569Y-15109272D02*
X79473807Y-15061653D01*
X79473807Y-15061653D02*
X79664283Y-15061653D01*
X79664283Y-15061653D02*
X79759521Y-15109272D01*
X80235712Y-15728320D02*
X80235712Y-15061653D01*
X80235712Y-15252129D02*
X80283331Y-15156891D01*
X80283331Y-15156891D02*
X80330950Y-15109272D01*
X80330950Y-15109272D02*
X80426188Y-15061653D01*
X80426188Y-15061653D02*
X80521426Y-15061653D01*
X80711903Y-15061653D02*
X81092855Y-15061653D01*
X80854760Y-14728320D02*
X80854760Y-15585462D01*
X80854760Y-15585462D02*
X80902379Y-15680701D01*
X80902379Y-15680701D02*
X80997617Y-15728320D01*
X80997617Y-15728320D02*
X81092855Y-15728320D01*
X81807141Y-15680701D02*
X81711903Y-15728320D01*
X81711903Y-15728320D02*
X81521427Y-15728320D01*
X81521427Y-15728320D02*
X81426189Y-15680701D01*
X81426189Y-15680701D02*
X81378570Y-15585462D01*
X81378570Y-15585462D02*
X81378570Y-15204510D01*
X81378570Y-15204510D02*
X81426189Y-15109272D01*
X81426189Y-15109272D02*
X81521427Y-15061653D01*
X81521427Y-15061653D02*
X81711903Y-15061653D01*
X81711903Y-15061653D02*
X81807141Y-15109272D01*
X81807141Y-15109272D02*
X81854760Y-15204510D01*
X81854760Y-15204510D02*
X81854760Y-15299748D01*
X81854760Y-15299748D02*
X81378570Y-15394986D01*
X82711903Y-15680701D02*
X82616665Y-15728320D01*
X82616665Y-15728320D02*
X82426189Y-15728320D01*
X82426189Y-15728320D02*
X82330951Y-15680701D01*
X82330951Y-15680701D02*
X82283332Y-15633081D01*
X82283332Y-15633081D02*
X82235713Y-15537843D01*
X82235713Y-15537843D02*
X82235713Y-15252129D01*
X82235713Y-15252129D02*
X82283332Y-15156891D01*
X82283332Y-15156891D02*
X82330951Y-15109272D01*
X82330951Y-15109272D02*
X82426189Y-15061653D01*
X82426189Y-15061653D02*
X82616665Y-15061653D01*
X82616665Y-15061653D02*
X82711903Y-15109272D01*
X83140475Y-15728320D02*
X83140475Y-14728320D01*
X83569046Y-15728320D02*
X83569046Y-15204510D01*
X83569046Y-15204510D02*
X83521427Y-15109272D01*
X83521427Y-15109272D02*
X83426189Y-15061653D01*
X83426189Y-15061653D02*
X83283332Y-15061653D01*
X83283332Y-15061653D02*
X83188094Y-15109272D01*
X83188094Y-15109272D02*
X83140475Y-15156891D01*
X85330951Y-15728320D02*
X84759523Y-15728320D01*
X85045237Y-15728320D02*
X85045237Y-14728320D01*
X85045237Y-14728320D02*
X84949999Y-14871177D01*
X84949999Y-14871177D02*
X84854761Y-14966415D01*
X84854761Y-14966415D02*
X84759523Y-15014034D01*
X86188094Y-14728320D02*
X85997618Y-14728320D01*
X85997618Y-14728320D02*
X85902380Y-14775939D01*
X85902380Y-14775939D02*
X85854761Y-14823558D01*
X85854761Y-14823558D02*
X85759523Y-14966415D01*
X85759523Y-14966415D02*
X85711904Y-15156891D01*
X85711904Y-15156891D02*
X85711904Y-15537843D01*
X85711904Y-15537843D02*
X85759523Y-15633081D01*
X85759523Y-15633081D02*
X85807142Y-15680701D01*
X85807142Y-15680701D02*
X85902380Y-15728320D01*
X85902380Y-15728320D02*
X86092856Y-15728320D01*
X86092856Y-15728320D02*
X86188094Y-15680701D01*
X86188094Y-15680701D02*
X86235713Y-15633081D01*
X86235713Y-15633081D02*
X86283332Y-15537843D01*
X86283332Y-15537843D02*
X86283332Y-15299748D01*
X86283332Y-15299748D02*
X86235713Y-15204510D01*
X86235713Y-15204510D02*
X86188094Y-15156891D01*
X86188094Y-15156891D02*
X86092856Y-15109272D01*
X86092856Y-15109272D02*
X85902380Y-15109272D01*
X85902380Y-15109272D02*
X85807142Y-15156891D01*
X85807142Y-15156891D02*
X85759523Y-15204510D01*
X85759523Y-15204510D02*
X85711904Y-15299748D01*
X86902380Y-14728320D02*
X86997618Y-14728320D01*
X86997618Y-14728320D02*
X87092856Y-14775939D01*
X87092856Y-14775939D02*
X87140475Y-14823558D01*
X87140475Y-14823558D02*
X87188094Y-14918796D01*
X87188094Y-14918796D02*
X87235713Y-15109272D01*
X87235713Y-15109272D02*
X87235713Y-15347367D01*
X87235713Y-15347367D02*
X87188094Y-15537843D01*
X87188094Y-15537843D02*
X87140475Y-15633081D01*
X87140475Y-15633081D02*
X87092856Y-15680701D01*
X87092856Y-15680701D02*
X86997618Y-15728320D01*
X86997618Y-15728320D02*
X86902380Y-15728320D01*
X86902380Y-15728320D02*
X86807142Y-15680701D01*
X86807142Y-15680701D02*
X86759523Y-15633081D01*
X86759523Y-15633081D02*
X86711904Y-15537843D01*
X86711904Y-15537843D02*
X86664285Y-15347367D01*
X86664285Y-15347367D02*
X86664285Y-15109272D01*
X86664285Y-15109272D02*
X86711904Y-14918796D01*
X86711904Y-14918796D02*
X86759523Y-14823558D01*
X86759523Y-14823558D02*
X86807142Y-14775939D01*
X86807142Y-14775939D02*
X86902380Y-14728320D01*
X87569047Y-14728320D02*
X88235713Y-14728320D01*
X88235713Y-14728320D02*
X87807142Y-15728320D01*
X88569047Y-14823558D02*
X88616666Y-14775939D01*
X88616666Y-14775939D02*
X88711904Y-14728320D01*
X88711904Y-14728320D02*
X88949999Y-14728320D01*
X88949999Y-14728320D02*
X89045237Y-14775939D01*
X89045237Y-14775939D02*
X89092856Y-14823558D01*
X89092856Y-14823558D02*
X89140475Y-14918796D01*
X89140475Y-14918796D02*
X89140475Y-15014034D01*
X89140475Y-15014034D02*
X89092856Y-15156891D01*
X89092856Y-15156891D02*
X88521428Y-15728320D01*
X88521428Y-15728320D02*
X89140475Y-15728320D01*
X89759523Y-14728320D02*
X89854761Y-14728320D01*
X89854761Y-14728320D02*
X89949999Y-14775939D01*
X89949999Y-14775939D02*
X89997618Y-14823558D01*
X89997618Y-14823558D02*
X90045237Y-14918796D01*
X90045237Y-14918796D02*
X90092856Y-15109272D01*
X90092856Y-15109272D02*
X90092856Y-15347367D01*
X90092856Y-15347367D02*
X90045237Y-15537843D01*
X90045237Y-15537843D02*
X89997618Y-15633081D01*
X89997618Y-15633081D02*
X89949999Y-15680701D01*
X89949999Y-15680701D02*
X89854761Y-15728320D01*
X89854761Y-15728320D02*
X89759523Y-15728320D01*
X89759523Y-15728320D02*
X89664285Y-15680701D01*
X89664285Y-15680701D02*
X89616666Y-15633081D01*
X89616666Y-15633081D02*
X89569047Y-15537843D01*
X89569047Y-15537843D02*
X89521428Y-15347367D01*
X89521428Y-15347367D02*
X89521428Y-15109272D01*
X89521428Y-15109272D02*
X89569047Y-14918796D01*
X89569047Y-14918796D02*
X89616666Y-14823558D01*
X89616666Y-14823558D02*
X89664285Y-14775939D01*
X89664285Y-14775939D02*
X89759523Y-14728320D01*
X90473809Y-14823558D02*
X90521428Y-14775939D01*
X90521428Y-14775939D02*
X90616666Y-14728320D01*
X90616666Y-14728320D02*
X90854761Y-14728320D01*
X90854761Y-14728320D02*
X90949999Y-14775939D01*
X90949999Y-14775939D02*
X90997618Y-14823558D01*
X90997618Y-14823558D02*
X91045237Y-14918796D01*
X91045237Y-14918796D02*
X91045237Y-15014034D01*
X91045237Y-15014034D02*
X90997618Y-15156891D01*
X90997618Y-15156891D02*
X90426190Y-15728320D01*
X90426190Y-15728320D02*
X91045237Y-15728320D01*
X91949999Y-14728320D02*
X91473809Y-14728320D01*
X91473809Y-14728320D02*
X91426190Y-15204510D01*
X91426190Y-15204510D02*
X91473809Y-15156891D01*
X91473809Y-15156891D02*
X91569047Y-15109272D01*
X91569047Y-15109272D02*
X91807142Y-15109272D01*
X91807142Y-15109272D02*
X91902380Y-15156891D01*
X91902380Y-15156891D02*
X91949999Y-15204510D01*
X91949999Y-15204510D02*
X91997618Y-15299748D01*
X91997618Y-15299748D02*
X91997618Y-15537843D01*
X91997618Y-15537843D02*
X91949999Y-15633081D01*
X91949999Y-15633081D02*
X91902380Y-15680701D01*
X91902380Y-15680701D02*
X91807142Y-15728320D01*
X91807142Y-15728320D02*
X91569047Y-15728320D01*
X91569047Y-15728320D02*
X91473809Y-15680701D01*
X91473809Y-15680701D02*
X91426190Y-15633081D01*
X93188095Y-15728320D02*
X93188095Y-14728320D01*
X94140475Y-15728320D02*
X93664285Y-15728320D01*
X93664285Y-15728320D02*
X93664285Y-14728320D01*
X94473809Y-15728320D02*
X94473809Y-14728320D01*
X94473809Y-14728320D02*
X94807142Y-15442605D01*
X94807142Y-15442605D02*
X95140475Y-14728320D01*
X95140475Y-14728320D02*
X95140475Y-15728320D01*
X96140475Y-15728320D02*
X95569047Y-15728320D01*
X95854761Y-15728320D02*
X95854761Y-14728320D01*
X95854761Y-14728320D02*
X95759523Y-14871177D01*
X95759523Y-14871177D02*
X95664285Y-14966415D01*
X95664285Y-14966415D02*
X95569047Y-15014034D01*
X96473809Y-14728320D02*
X97092856Y-14728320D01*
X97092856Y-14728320D02*
X96759523Y-15109272D01*
X96759523Y-15109272D02*
X96902380Y-15109272D01*
X96902380Y-15109272D02*
X96997618Y-15156891D01*
X96997618Y-15156891D02*
X97045237Y-15204510D01*
X97045237Y-15204510D02*
X97092856Y-15299748D01*
X97092856Y-15299748D02*
X97092856Y-15537843D01*
X97092856Y-15537843D02*
X97045237Y-15633081D01*
X97045237Y-15633081D02*
X96997618Y-15680701D01*
X96997618Y-15680701D02*
X96902380Y-15728320D01*
X96902380Y-15728320D02*
X96616666Y-15728320D01*
X96616666Y-15728320D02*
X96521428Y-15680701D01*
X96521428Y-15680701D02*
X96473809Y-15633081D01*
X97569047Y-15728320D02*
X97759523Y-15728320D01*
X97759523Y-15728320D02*
X97854761Y-15680701D01*
X97854761Y-15680701D02*
X97902380Y-15633081D01*
X97902380Y-15633081D02*
X97997618Y-15490224D01*
X97997618Y-15490224D02*
X98045237Y-15299748D01*
X98045237Y-15299748D02*
X98045237Y-14918796D01*
X98045237Y-14918796D02*
X97997618Y-14823558D01*
X97997618Y-14823558D02*
X97949999Y-14775939D01*
X97949999Y-14775939D02*
X97854761Y-14728320D01*
X97854761Y-14728320D02*
X97664285Y-14728320D01*
X97664285Y-14728320D02*
X97569047Y-14775939D01*
X97569047Y-14775939D02*
X97521428Y-14823558D01*
X97521428Y-14823558D02*
X97473809Y-14918796D01*
X97473809Y-14918796D02*
X97473809Y-15156891D01*
X97473809Y-15156891D02*
X97521428Y-15252129D01*
X97521428Y-15252129D02*
X97569047Y-15299748D01*
X97569047Y-15299748D02*
X97664285Y-15347367D01*
X97664285Y-15347367D02*
X97854761Y-15347367D01*
X97854761Y-15347367D02*
X97949999Y-15299748D01*
X97949999Y-15299748D02*
X97997618Y-15252129D01*
X97997618Y-15252129D02*
X98045237Y-15156891D01*
X99045237Y-15633081D02*
X98997618Y-15680701D01*
X98997618Y-15680701D02*
X98854761Y-15728320D01*
X98854761Y-15728320D02*
X98759523Y-15728320D01*
X98759523Y-15728320D02*
X98616666Y-15680701D01*
X98616666Y-15680701D02*
X98521428Y-15585462D01*
X98521428Y-15585462D02*
X98473809Y-15490224D01*
X98473809Y-15490224D02*
X98426190Y-15299748D01*
X98426190Y-15299748D02*
X98426190Y-15156891D01*
X98426190Y-15156891D02*
X98473809Y-14966415D01*
X98473809Y-14966415D02*
X98521428Y-14871177D01*
X98521428Y-14871177D02*
X98616666Y-14775939D01*
X98616666Y-14775939D02*
X98759523Y-14728320D01*
X98759523Y-14728320D02*
X98854761Y-14728320D01*
X98854761Y-14728320D02*
X98997618Y-14775939D01*
X98997618Y-14775939D02*
X99045237Y-14823558D01*
X100235714Y-15728320D02*
X100235714Y-14728320D01*
X100235714Y-14728320D02*
X100473809Y-14728320D01*
X100473809Y-14728320D02*
X100616666Y-14775939D01*
X100616666Y-14775939D02*
X100711904Y-14871177D01*
X100711904Y-14871177D02*
X100759523Y-14966415D01*
X100759523Y-14966415D02*
X100807142Y-15156891D01*
X100807142Y-15156891D02*
X100807142Y-15299748D01*
X100807142Y-15299748D02*
X100759523Y-15490224D01*
X100759523Y-15490224D02*
X100711904Y-15585462D01*
X100711904Y-15585462D02*
X100616666Y-15680701D01*
X100616666Y-15680701D02*
X100473809Y-15728320D01*
X100473809Y-15728320D02*
X100235714Y-15728320D01*
X101235714Y-15728320D02*
X101235714Y-15061653D01*
X101235714Y-15252129D02*
X101283333Y-15156891D01*
X101283333Y-15156891D02*
X101330952Y-15109272D01*
X101330952Y-15109272D02*
X101426190Y-15061653D01*
X101426190Y-15061653D02*
X101521428Y-15061653D01*
X101854762Y-15728320D02*
X101854762Y-15061653D01*
X101854762Y-14728320D02*
X101807143Y-14775939D01*
X101807143Y-14775939D02*
X101854762Y-14823558D01*
X101854762Y-14823558D02*
X101902381Y-14775939D01*
X101902381Y-14775939D02*
X101854762Y-14728320D01*
X101854762Y-14728320D02*
X101854762Y-14823558D01*
X102235714Y-15061653D02*
X102473809Y-15728320D01*
X102473809Y-15728320D02*
X102711904Y-15061653D01*
X103473809Y-15680701D02*
X103378571Y-15728320D01*
X103378571Y-15728320D02*
X103188095Y-15728320D01*
X103188095Y-15728320D02*
X103092857Y-15680701D01*
X103092857Y-15680701D02*
X103045238Y-15585462D01*
X103045238Y-15585462D02*
X103045238Y-15204510D01*
X103045238Y-15204510D02*
X103092857Y-15109272D01*
X103092857Y-15109272D02*
X103188095Y-15061653D01*
X103188095Y-15061653D02*
X103378571Y-15061653D01*
X103378571Y-15061653D02*
X103473809Y-15109272D01*
X103473809Y-15109272D02*
X103521428Y-15204510D01*
X103521428Y-15204510D02*
X103521428Y-15299748D01*
X103521428Y-15299748D02*
X103045238Y-15394986D01*
X103950000Y-15728320D02*
X103950000Y-15061653D01*
X103950000Y-15252129D02*
X103997619Y-15156891D01*
X103997619Y-15156891D02*
X104045238Y-15109272D01*
X104045238Y-15109272D02*
X104140476Y-15061653D01*
X104140476Y-15061653D02*
X104235714Y-15061653D01*
X105759524Y-15061653D02*
X105759524Y-15728320D01*
X105521429Y-14680701D02*
X105283334Y-15394986D01*
X105283334Y-15394986D02*
X105902381Y-15394986D01*
X106188096Y-15728320D02*
X106711905Y-15061653D01*
X106188096Y-15061653D02*
X106711905Y-15728320D01*
X107521429Y-15061653D02*
X107521429Y-15728320D01*
X107283334Y-14680701D02*
X107045239Y-15394986D01*
X107045239Y-15394986D02*
X107664286Y-15394986D01*
X108807144Y-15061653D02*
X108807144Y-16061653D01*
X108807144Y-15109272D02*
X108902382Y-15061653D01*
X108902382Y-15061653D02*
X109092858Y-15061653D01*
X109092858Y-15061653D02*
X109188096Y-15109272D01*
X109188096Y-15109272D02*
X109235715Y-15156891D01*
X109235715Y-15156891D02*
X109283334Y-15252129D01*
X109283334Y-15252129D02*
X109283334Y-15537843D01*
X109283334Y-15537843D02*
X109235715Y-15633081D01*
X109235715Y-15633081D02*
X109188096Y-15680701D01*
X109188096Y-15680701D02*
X109092858Y-15728320D01*
X109092858Y-15728320D02*
X108902382Y-15728320D01*
X108902382Y-15728320D02*
X108807144Y-15680701D01*
X110140477Y-15728320D02*
X110140477Y-15204510D01*
X110140477Y-15204510D02*
X110092858Y-15109272D01*
X110092858Y-15109272D02*
X109997620Y-15061653D01*
X109997620Y-15061653D02*
X109807144Y-15061653D01*
X109807144Y-15061653D02*
X109711906Y-15109272D01*
X110140477Y-15680701D02*
X110045239Y-15728320D01*
X110045239Y-15728320D02*
X109807144Y-15728320D01*
X109807144Y-15728320D02*
X109711906Y-15680701D01*
X109711906Y-15680701D02*
X109664287Y-15585462D01*
X109664287Y-15585462D02*
X109664287Y-15490224D01*
X109664287Y-15490224D02*
X109711906Y-15394986D01*
X109711906Y-15394986D02*
X109807144Y-15347367D01*
X109807144Y-15347367D02*
X110045239Y-15347367D01*
X110045239Y-15347367D02*
X110140477Y-15299748D01*
X110616668Y-15061653D02*
X110616668Y-15728320D01*
X110616668Y-15156891D02*
X110664287Y-15109272D01*
X110664287Y-15109272D02*
X110759525Y-15061653D01*
X110759525Y-15061653D02*
X110902382Y-15061653D01*
X110902382Y-15061653D02*
X110997620Y-15109272D01*
X110997620Y-15109272D02*
X111045239Y-15204510D01*
X111045239Y-15204510D02*
X111045239Y-15728320D01*
X111902382Y-15680701D02*
X111807144Y-15728320D01*
X111807144Y-15728320D02*
X111616668Y-15728320D01*
X111616668Y-15728320D02*
X111521430Y-15680701D01*
X111521430Y-15680701D02*
X111473811Y-15585462D01*
X111473811Y-15585462D02*
X111473811Y-15204510D01*
X111473811Y-15204510D02*
X111521430Y-15109272D01*
X111521430Y-15109272D02*
X111616668Y-15061653D01*
X111616668Y-15061653D02*
X111807144Y-15061653D01*
X111807144Y-15061653D02*
X111902382Y-15109272D01*
X111902382Y-15109272D02*
X111950001Y-15204510D01*
X111950001Y-15204510D02*
X111950001Y-15299748D01*
X111950001Y-15299748D02*
X111473811Y-15394986D01*
X112521430Y-15728320D02*
X112426192Y-15680701D01*
X112426192Y-15680701D02*
X112378573Y-15585462D01*
X112378573Y-15585462D02*
X112378573Y-14728320D01*
D10*
X151950000Y-69858501D02*
X151950000Y-85858501D01*
X121950000Y-56858501D02*
X110950000Y-56858501D01*
X123950000Y-96858501D02*
X123950000Y-89858501D01*
X95950000Y-36858501D02*
X95950000Y-29858501D01*
X39950000Y-96858501D02*
X39950000Y-89858501D01*
X39950000Y-85858501D02*
X39950000Y-78858501D01*
X67950000Y-25858501D02*
X67950000Y-18858501D01*
X93950000Y-29858501D02*
X93950000Y-36858501D01*
X50950000Y-98858501D02*
X37950000Y-98858501D01*
X39950000Y-78858501D02*
X50950000Y-78858501D01*
X39950000Y-38858501D02*
X50950000Y-38858501D01*
X93950000Y-56858501D02*
X82950000Y-56858501D01*
X93950000Y-65858501D02*
X95950000Y-65858501D01*
X93950000Y-49858501D02*
X95950000Y-49858501D01*
X95950000Y-76858501D02*
X95950000Y-69858501D01*
X50950000Y-98858501D02*
X50950000Y-96858501D01*
X54950000Y-98858501D02*
X54950000Y-96858501D01*
X106950000Y-98858501D02*
X106950000Y-96858501D01*
X39950000Y-25858501D02*
X39950000Y-18858501D01*
X138950000Y-98858501D02*
X151950000Y-98858501D01*
X149950000Y-65858501D02*
X151950000Y-65858501D01*
X67950000Y-65858501D02*
X67950000Y-58858501D01*
X39950000Y-56858501D02*
X39950000Y-49858501D01*
X149950000Y-36858501D02*
X138950000Y-36858501D01*
X54950000Y-58858501D02*
X54950000Y-56858501D01*
X93950000Y-36858501D02*
X82950000Y-36858501D01*
X65950000Y-69858501D02*
X67950000Y-69858501D01*
X123950000Y-18858501D02*
X134950000Y-18858501D01*
X149950000Y-85858501D02*
X151950000Y-85858501D01*
X37950000Y-69858501D02*
X39950000Y-69858501D01*
X93950000Y-69858501D02*
X93950000Y-76858501D01*
X93950000Y-89858501D02*
X95950000Y-89858501D01*
X121950000Y-49858501D02*
X121950000Y-56858501D01*
X65950000Y-69858501D02*
X65950000Y-76858501D01*
X65950000Y-56858501D02*
X54950000Y-56858501D01*
X95950000Y-85858501D02*
X95950000Y-78858501D01*
X121950000Y-76858501D02*
X110950000Y-76858501D01*
X106950000Y-58858501D02*
X106950000Y-56858501D01*
X67950000Y-76858501D02*
X67950000Y-69858501D01*
X65950000Y-49858501D02*
X67950000Y-49858501D01*
X123950000Y-56858501D02*
X123950000Y-49858501D01*
X82950000Y-58858501D02*
X93950000Y-58858501D01*
X134950000Y-98858501D02*
X134950000Y-96858501D01*
X138950000Y-98858501D02*
X138950000Y-96858501D01*
X39950000Y-18858501D02*
X50950000Y-18858501D01*
X106950000Y-76858501D02*
X95950000Y-76858501D01*
X37950000Y-25858501D02*
X39950000Y-25858501D01*
X149950000Y-18858501D02*
X149950000Y-25858501D01*
X151950000Y-49858501D02*
X151950000Y-65858501D01*
X82950000Y-58858501D02*
X82950000Y-56858501D01*
X65950000Y-85858501D02*
X67950000Y-85858501D01*
X93950000Y-78858501D02*
X93950000Y-85858501D01*
X121950000Y-89858501D02*
X121950000Y-96858501D01*
X65950000Y-78858501D02*
X65950000Y-85858501D01*
X37950000Y-25858501D02*
X37950000Y-16858501D01*
X39950000Y-65858501D02*
X39950000Y-58858501D01*
X138950000Y-18858501D02*
X149950000Y-18858501D01*
X121950000Y-25858501D02*
X123950000Y-25858501D01*
X67950000Y-45858501D02*
X67950000Y-38858501D01*
X151950000Y-89858501D02*
X151950000Y-98858501D01*
X93950000Y-85858501D02*
X95950000Y-85858501D01*
X65950000Y-29858501D02*
X67950000Y-29858501D01*
X121950000Y-96858501D02*
X110950000Y-96858501D01*
X50950000Y-18858501D02*
X50950000Y-16858501D01*
X134950000Y-56858501D02*
X123950000Y-56858501D01*
X78950000Y-58858501D02*
X78950000Y-56858501D01*
X123950000Y-65858501D02*
X123950000Y-58858501D01*
X123950000Y-36858501D02*
X123950000Y-29858501D01*
X93950000Y-38858501D02*
X93950000Y-45858501D01*
X50950000Y-56858501D02*
X39950000Y-56858501D01*
X65950000Y-36858501D02*
X54950000Y-36858501D01*
X37950000Y-65858501D02*
X39950000Y-65858501D01*
X149950000Y-25858501D02*
X151950000Y-25858501D01*
X78950000Y-18858501D02*
X78950000Y-16858501D01*
X50950000Y-76858501D02*
X39950000Y-76858501D01*
X121950000Y-18858501D02*
X121950000Y-25858501D01*
X37950000Y-45858501D02*
X37950000Y-29858501D01*
X121950000Y-69858501D02*
X121950000Y-76858501D01*
X54950000Y-18858501D02*
X54950000Y-16858501D01*
X50950000Y-36858501D02*
X39950000Y-36858501D01*
X134950000Y-36858501D02*
X123950000Y-36858501D01*
X37950000Y-16858501D02*
X50950000Y-16858501D01*
X65950000Y-45858501D02*
X67950000Y-45858501D01*
X67950000Y-96858501D02*
X67950000Y-89858501D01*
X39950000Y-58858501D02*
X50950000Y-58858501D01*
X78950000Y-98858501D02*
X78950000Y-96858501D01*
X78950000Y-78858501D02*
X78950000Y-76858501D01*
X121950000Y-69858501D02*
X123950000Y-69858501D01*
X134950000Y-78858501D02*
X134950000Y-76858501D01*
X110950000Y-18858501D02*
X121950000Y-18858501D01*
X154950000Y-101858501D02*
X34950000Y-101858501D01*
X121950000Y-78858501D02*
X121950000Y-85858501D01*
X93950000Y-49858501D02*
X93950000Y-56858501D01*
X39950000Y-76858501D02*
X39950000Y-69858501D01*
X153950000Y-15358501D02*
G75*
G02*
X152950000Y-15358501I-500000J0D01*
G01*
X152950000Y-15358501D02*
G75*
G02*
X153950000Y-15358501I500000J0D01*
G01*
X121950000Y-45858501D02*
X123950000Y-45858501D01*
X37950000Y-85858501D02*
X37950000Y-69858501D01*
X149950000Y-69858501D02*
X151950000Y-69858501D01*
X149950000Y-49858501D02*
X151950000Y-49858501D01*
X138950000Y-18858501D02*
X138950000Y-16858501D01*
X121950000Y-89858501D02*
X123950000Y-89858501D01*
X123950000Y-85858501D02*
X123950000Y-78858501D01*
X134950000Y-96858501D02*
X123950000Y-96858501D01*
X37950000Y-98858501D02*
X37950000Y-89858501D01*
X106950000Y-38858501D02*
X106950000Y-36858501D01*
X110950000Y-38858501D02*
X110950000Y-36858501D01*
X121950000Y-29858501D02*
X121950000Y-36858501D01*
X121950000Y-49858501D02*
X123950000Y-49858501D01*
X54950000Y-78858501D02*
X54950000Y-76858501D01*
X67950000Y-56858501D02*
X67950000Y-49858501D01*
X93950000Y-58858501D02*
X93950000Y-65858501D01*
X153950000Y-100358501D02*
G75*
G02*
X152950000Y-100358501I-500000J0D01*
G01*
X152950000Y-100358501D02*
G75*
G02*
X153950000Y-100358501I500000J0D01*
G01*
M02*
