%TF.GenerationSoftware,KiCad,Pcbnew,9.0.2*%
%TF.CreationDate,2025-07-16T13:59:47+02:00*%
%TF.ProjectId,ILM139C_panel4x4,494c4d31-3339-4435-9f70-616e656c3478,V0.1.0*%
%TF.SameCoordinates,Original*%
%TF.FileFunction,Soldermask,Bot*%
%TF.FilePolarity,Negative*%
%FSLAX46Y46*%
G04 Gerber Fmt 4.6, Leading zero omitted, Abs format (unit mm)*
G04 Created by KiCad (PCBNEW 9.0.2) date 2025-07-16 13:59:47*
%MOMM*%
%LPD*%
G01*
G04 APERTURE LIST*
G04 Aperture macros list*
%AMRoundRect*
0 Rectangle with rounded corners*
0 $1 Rounding radius*
0 $2 $3 $4 $5 $6 $7 $8 $9 X,Y pos of 4 corners*
0 Add a 4 corners polygon primitive as box body*
4,1,4,$2,$3,$4,$5,$6,$7,$8,$9,$2,$3,0*
0 Add four circle primitives for the rounded corners*
1,1,$1+$1,$2,$3*
1,1,$1+$1,$4,$5*
1,1,$1+$1,$6,$7*
1,1,$1+$1,$8,$9*
0 Add four rect primitives between the rounded corners*
20,1,$1+$1,$2,$3,$4,$5,0*
20,1,$1+$1,$4,$5,$6,$7,0*
20,1,$1+$1,$6,$7,$8,$9,0*
20,1,$1+$1,$8,$9,$2,$3,0*%
%AMFreePoly0*
4,1,23,0.499999,-0.750000,0.000000,-0.750000,0.000000,-0.745722,-0.065263,-0.745722,-0.191342,-0.711940,-0.304381,-0.646677,-0.396677,-0.554382,-0.461940,-0.441342,-0.495722,-0.315263,-0.495722,-0.250000,-0.500000,-0.250000,-0.500000,0.250000,-0.495722,0.250000,-0.495722,0.315263,-0.461940,0.441342,-0.396677,0.554382,-0.304381,0.646677,-0.191342,0.711940,-0.065263,0.745722,0.000000,0.745722,
0.000000,0.750000,0.499999,0.750000,0.499999,-0.750000,0.499999,-0.750000,$1*%
%AMFreePoly1*
4,1,23,0.000000,0.745722,0.065263,0.745722,0.191342,0.711940,0.304381,0.646677,0.396677,0.554382,0.461940,0.441342,0.495722,0.315263,0.495722,0.250000,0.500000,0.250000,0.500000,-0.250000,0.495722,-0.250000,0.495722,-0.315263,0.461940,-0.441342,0.396677,-0.554382,0.304381,-0.646677,0.191342,-0.711940,0.065263,-0.745722,0.000000,-0.745722,0.000000,-0.750000,-0.499999,-0.750000,
-0.499999,0.750000,0.000000,0.750000,0.000000,0.745722,0.000000,0.745722,$1*%
G04 Aperture macros list end*
%ADD10C,0.000000*%
%ADD11C,1.000000*%
%ADD12RoundRect,0.250000X0.250000X0.475000X-0.250000X0.475000X-0.250000X-0.475000X0.250000X-0.475000X0*%
%ADD13FreePoly0,45.000000*%
%ADD14FreePoly1,45.000000*%
%ADD15R,2.200000X3.200000*%
%ADD16R,1.750000X0.700000*%
%ADD17R,2.550000X1.200000*%
%ADD18RoundRect,0.225000X0.225000X0.250000X-0.225000X0.250000X-0.225000X-0.250000X0.225000X-0.250000X0*%
%ADD19R,3.200000X2.200000*%
G04 APERTURE END LIST*
D10*
%TO.C,JP1*%
G36*
X132986396Y-94482765D02*
G01*
X132774264Y-94694897D01*
X131713604Y-93634237D01*
X131925736Y-93422105D01*
X132986396Y-94482765D01*
G37*
G36*
X104986396Y-94482765D02*
G01*
X104774264Y-94694897D01*
X103713604Y-93634237D01*
X103925736Y-93422105D01*
X104986396Y-94482765D01*
G37*
G36*
X76986396Y-94482765D02*
G01*
X76774264Y-94694897D01*
X75713604Y-93634237D01*
X75925736Y-93422105D01*
X76986396Y-94482765D01*
G37*
G36*
X48986396Y-94482765D02*
G01*
X48774264Y-94694897D01*
X47713604Y-93634237D01*
X47925736Y-93422105D01*
X48986396Y-94482765D01*
G37*
G36*
X132986396Y-74482765D02*
G01*
X132774264Y-74694897D01*
X131713604Y-73634237D01*
X131925736Y-73422105D01*
X132986396Y-74482765D01*
G37*
G36*
X104986396Y-74482765D02*
G01*
X104774264Y-74694897D01*
X103713604Y-73634237D01*
X103925736Y-73422105D01*
X104986396Y-74482765D01*
G37*
G36*
X76986396Y-74482765D02*
G01*
X76774264Y-74694897D01*
X75713604Y-73634237D01*
X75925736Y-73422105D01*
X76986396Y-74482765D01*
G37*
G36*
X48986396Y-74482765D02*
G01*
X48774264Y-74694897D01*
X47713604Y-73634237D01*
X47925736Y-73422105D01*
X48986396Y-74482765D01*
G37*
G36*
X132986396Y-54482765D02*
G01*
X132774264Y-54694897D01*
X131713604Y-53634237D01*
X131925736Y-53422105D01*
X132986396Y-54482765D01*
G37*
G36*
X104986396Y-54482765D02*
G01*
X104774264Y-54694897D01*
X103713604Y-53634237D01*
X103925736Y-53422105D01*
X104986396Y-54482765D01*
G37*
G36*
X76986396Y-54482765D02*
G01*
X76774264Y-54694897D01*
X75713604Y-53634237D01*
X75925736Y-53422105D01*
X76986396Y-54482765D01*
G37*
G36*
X48986396Y-54482765D02*
G01*
X48774264Y-54694897D01*
X47713604Y-53634237D01*
X47925736Y-53422105D01*
X48986396Y-54482765D01*
G37*
G36*
X132986396Y-34482765D02*
G01*
X132774264Y-34694897D01*
X131713604Y-33634237D01*
X131925736Y-33422105D01*
X132986396Y-34482765D01*
G37*
G36*
X104986396Y-34482765D02*
G01*
X104774264Y-34694897D01*
X103713604Y-33634237D01*
X103925736Y-33422105D01*
X104986396Y-34482765D01*
G37*
G36*
X76986396Y-34482765D02*
G01*
X76774264Y-34694897D01*
X75713604Y-33634237D01*
X75925736Y-33422105D01*
X76986396Y-34482765D01*
G37*
G36*
X48986396Y-34482765D02*
G01*
X48774264Y-34694897D01*
X47713604Y-33634237D01*
X47925736Y-33422105D01*
X48986396Y-34482765D01*
G37*
%TD*%
D11*
%TO.C,TP3*%
X142700000Y-79858501D03*
%TD*%
D12*
%TO.C,C9*%
X132550000Y-86958501D03*
X130650000Y-86958501D03*
%TD*%
D13*
%TO.C,JP1*%
X131890381Y-94518120D03*
D14*
X132809619Y-93598882D03*
%TD*%
D15*
%TO.C,U7*%
X139150000Y-89458501D03*
%TD*%
D16*
%TO.C,CN2*%
X144580000Y-93258501D03*
X144580000Y-92258501D03*
D17*
X148320000Y-90908501D03*
X148320000Y-94608501D03*
%TD*%
D11*
%TO.C,TP1*%
X140700000Y-79858501D03*
%TD*%
D15*
%TO.C,U7*%
X111150000Y-89458501D03*
%TD*%
D13*
%TO.C,JP1*%
X103890381Y-94518120D03*
D14*
X104809619Y-93598882D03*
%TD*%
D15*
%TO.C,U6*%
X79350000Y-86658501D03*
%TD*%
D13*
%TO.C,JP1*%
X75890381Y-94518120D03*
D14*
X76809619Y-93598882D03*
%TD*%
D15*
%TO.C,U6*%
X135350000Y-86658501D03*
%TD*%
D12*
%TO.C,C10*%
X132550000Y-88958501D03*
X130650000Y-88958501D03*
%TD*%
%TO.C,C9*%
X104550000Y-86958501D03*
X102650000Y-86958501D03*
%TD*%
D11*
%TO.C,TP2*%
X110700000Y-79858501D03*
%TD*%
D18*
%TO.C,C11*%
X104575000Y-90858501D03*
X103025000Y-90858501D03*
%TD*%
D16*
%TO.C,CN1*%
X129320000Y-82458501D03*
X129320000Y-83458501D03*
D17*
X125580000Y-84808501D03*
X125580000Y-81108501D03*
%TD*%
D16*
%TO.C,CN1*%
X101320000Y-82458501D03*
X101320000Y-83458501D03*
D17*
X97580000Y-84808501D03*
X97580000Y-81108501D03*
%TD*%
D12*
%TO.C,C8*%
X104550000Y-84958501D03*
X102650000Y-84958501D03*
%TD*%
%TO.C,C10*%
X76550000Y-88958501D03*
X74650000Y-88958501D03*
%TD*%
D11*
%TO.C,TP1*%
X84700000Y-79858501D03*
%TD*%
D15*
%TO.C,U7*%
X83150000Y-89458501D03*
%TD*%
D11*
%TO.C,TP1*%
X112700000Y-79858501D03*
%TD*%
D19*
%TO.C,U5*%
X107850000Y-89958501D03*
%TD*%
D16*
%TO.C,U3*%
X101340000Y-93458501D03*
X101340000Y-92458501D03*
X101340000Y-91458501D03*
X101340000Y-90458501D03*
D17*
X97560000Y-89348501D03*
X97560000Y-94568501D03*
%TD*%
D12*
%TO.C,C8*%
X76550000Y-84958501D03*
X74650000Y-84958501D03*
%TD*%
D11*
%TO.C,TP3*%
X114700000Y-79858501D03*
%TD*%
D19*
%TO.C,U4*%
X82650000Y-86158501D03*
%TD*%
D16*
%TO.C,CN1*%
X73320000Y-82458501D03*
X73320000Y-83458501D03*
D17*
X69580000Y-84808501D03*
X69580000Y-81108501D03*
%TD*%
D16*
%TO.C,U3*%
X73340000Y-93458501D03*
X73340000Y-92458501D03*
X73340000Y-91458501D03*
X73340000Y-90458501D03*
D17*
X69560000Y-89348501D03*
X69560000Y-94568501D03*
%TD*%
D19*
%TO.C,U4*%
X110650000Y-86158501D03*
%TD*%
%TO.C,U5*%
X79850000Y-89958501D03*
%TD*%
%TO.C,U5*%
X135850000Y-89958501D03*
%TD*%
D12*
%TO.C,C8*%
X132550000Y-84958501D03*
X130650000Y-84958501D03*
%TD*%
D11*
%TO.C,TP2*%
X138700000Y-79858501D03*
%TD*%
D15*
%TO.C,U6*%
X107350000Y-86658501D03*
%TD*%
D12*
%TO.C,C10*%
X104550000Y-88958501D03*
X102650000Y-88958501D03*
%TD*%
D18*
%TO.C,C11*%
X132575000Y-90858501D03*
X131025000Y-90858501D03*
%TD*%
D16*
%TO.C,U2*%
X144560000Y-82258501D03*
X144560000Y-83258501D03*
X144560000Y-84258501D03*
X144560000Y-85258501D03*
D17*
X148340000Y-86368501D03*
X148340000Y-81148501D03*
%TD*%
D11*
%TO.C,TP3*%
X86700000Y-79858501D03*
%TD*%
D16*
%TO.C,U3*%
X129340000Y-93458501D03*
X129340000Y-92458501D03*
X129340000Y-91458501D03*
X129340000Y-90458501D03*
D17*
X125560000Y-89348501D03*
X125560000Y-94568501D03*
%TD*%
D11*
%TO.C,TP2*%
X82700000Y-79858501D03*
%TD*%
D16*
%TO.C,CN2*%
X88580000Y-93258501D03*
X88580000Y-92258501D03*
D17*
X92320000Y-90908501D03*
X92320000Y-94608501D03*
%TD*%
D16*
%TO.C,U2*%
X88560000Y-82258501D03*
X88560000Y-83258501D03*
X88560000Y-84258501D03*
X88560000Y-85258501D03*
D17*
X92340000Y-86368501D03*
X92340000Y-81148501D03*
%TD*%
D18*
%TO.C,C11*%
X76575000Y-90858501D03*
X75025000Y-90858501D03*
%TD*%
D12*
%TO.C,C9*%
X76550000Y-86958501D03*
X74650000Y-86958501D03*
%TD*%
D16*
%TO.C,CN2*%
X116580000Y-93258501D03*
X116580000Y-92258501D03*
D17*
X120320000Y-90908501D03*
X120320000Y-94608501D03*
%TD*%
D16*
%TO.C,U2*%
X116560000Y-82258501D03*
X116560000Y-83258501D03*
X116560000Y-84258501D03*
X116560000Y-85258501D03*
D17*
X120340000Y-86368501D03*
X120340000Y-81148501D03*
%TD*%
D19*
%TO.C,U4*%
X138650000Y-86158501D03*
%TD*%
D16*
%TO.C,U3*%
X45340000Y-93458501D03*
X45340000Y-92458501D03*
X45340000Y-91458501D03*
X45340000Y-90458501D03*
D17*
X41560000Y-89348501D03*
X41560000Y-94568501D03*
%TD*%
D19*
%TO.C,U4*%
X54650000Y-86158501D03*
%TD*%
D16*
%TO.C,CN1*%
X45320000Y-82458501D03*
X45320000Y-83458501D03*
D17*
X41580000Y-84808501D03*
X41580000Y-81108501D03*
%TD*%
D16*
%TO.C,CN2*%
X60580000Y-93258501D03*
X60580000Y-92258501D03*
D17*
X64320000Y-90908501D03*
X64320000Y-94608501D03*
%TD*%
D18*
%TO.C,C11*%
X48575000Y-90858501D03*
X47025000Y-90858501D03*
%TD*%
D16*
%TO.C,U2*%
X60560000Y-82258501D03*
X60560000Y-83258501D03*
X60560000Y-84258501D03*
X60560000Y-85258501D03*
D17*
X64340000Y-86368501D03*
X64340000Y-81148501D03*
%TD*%
D11*
%TO.C,TP2*%
X54700000Y-79858501D03*
%TD*%
D15*
%TO.C,U6*%
X51350000Y-86658501D03*
%TD*%
D12*
%TO.C,C9*%
X48550000Y-86958501D03*
X46650000Y-86958501D03*
%TD*%
D11*
%TO.C,TP1*%
X56700000Y-79858501D03*
%TD*%
%TO.C,TP3*%
X58700000Y-79858501D03*
%TD*%
D12*
%TO.C,C8*%
X48550000Y-84958501D03*
X46650000Y-84958501D03*
%TD*%
%TO.C,C10*%
X48550000Y-88958501D03*
X46650000Y-88958501D03*
%TD*%
D15*
%TO.C,U7*%
X55150000Y-89458501D03*
%TD*%
D13*
%TO.C,JP1*%
X47890381Y-94518120D03*
D14*
X48809619Y-93598882D03*
%TD*%
D19*
%TO.C,U5*%
X51850000Y-89958501D03*
%TD*%
D11*
%TO.C,TP3*%
X142700000Y-59858501D03*
%TD*%
D12*
%TO.C,C9*%
X132550000Y-66958501D03*
X130650000Y-66958501D03*
%TD*%
D13*
%TO.C,JP1*%
X131890381Y-74518120D03*
D14*
X132809619Y-73598882D03*
%TD*%
D15*
%TO.C,U7*%
X139150000Y-69458501D03*
%TD*%
D16*
%TO.C,CN2*%
X144580000Y-73258501D03*
X144580000Y-72258501D03*
D17*
X148320000Y-70908501D03*
X148320000Y-74608501D03*
%TD*%
D11*
%TO.C,TP1*%
X140700000Y-59858501D03*
%TD*%
D15*
%TO.C,U7*%
X111150000Y-69458501D03*
%TD*%
D13*
%TO.C,JP1*%
X103890381Y-74518120D03*
D14*
X104809619Y-73598882D03*
%TD*%
D15*
%TO.C,U6*%
X79350000Y-66658501D03*
%TD*%
D13*
%TO.C,JP1*%
X75890381Y-74518120D03*
D14*
X76809619Y-73598882D03*
%TD*%
D15*
%TO.C,U6*%
X135350000Y-66658501D03*
%TD*%
D12*
%TO.C,C10*%
X132550000Y-68958501D03*
X130650000Y-68958501D03*
%TD*%
%TO.C,C9*%
X104550000Y-66958501D03*
X102650000Y-66958501D03*
%TD*%
D11*
%TO.C,TP2*%
X110700000Y-59858501D03*
%TD*%
D18*
%TO.C,C11*%
X104575000Y-70858501D03*
X103025000Y-70858501D03*
%TD*%
D16*
%TO.C,CN1*%
X129320000Y-62458501D03*
X129320000Y-63458501D03*
D17*
X125580000Y-64808501D03*
X125580000Y-61108501D03*
%TD*%
D16*
%TO.C,CN1*%
X101320000Y-62458501D03*
X101320000Y-63458501D03*
D17*
X97580000Y-64808501D03*
X97580000Y-61108501D03*
%TD*%
D12*
%TO.C,C8*%
X104550000Y-64958501D03*
X102650000Y-64958501D03*
%TD*%
%TO.C,C10*%
X76550000Y-68958501D03*
X74650000Y-68958501D03*
%TD*%
D11*
%TO.C,TP1*%
X84700000Y-59858501D03*
%TD*%
D15*
%TO.C,U7*%
X83150000Y-69458501D03*
%TD*%
D11*
%TO.C,TP1*%
X112700000Y-59858501D03*
%TD*%
D19*
%TO.C,U5*%
X107850000Y-69958501D03*
%TD*%
D16*
%TO.C,U3*%
X101340000Y-73458501D03*
X101340000Y-72458501D03*
X101340000Y-71458501D03*
X101340000Y-70458501D03*
D17*
X97560000Y-69348501D03*
X97560000Y-74568501D03*
%TD*%
D12*
%TO.C,C8*%
X76550000Y-64958501D03*
X74650000Y-64958501D03*
%TD*%
D11*
%TO.C,TP3*%
X114700000Y-59858501D03*
%TD*%
D19*
%TO.C,U4*%
X82650000Y-66158501D03*
%TD*%
D16*
%TO.C,CN1*%
X73320000Y-62458501D03*
X73320000Y-63458501D03*
D17*
X69580000Y-64808501D03*
X69580000Y-61108501D03*
%TD*%
D16*
%TO.C,U3*%
X73340000Y-73458501D03*
X73340000Y-72458501D03*
X73340000Y-71458501D03*
X73340000Y-70458501D03*
D17*
X69560000Y-69348501D03*
X69560000Y-74568501D03*
%TD*%
D19*
%TO.C,U4*%
X110650000Y-66158501D03*
%TD*%
%TO.C,U5*%
X79850000Y-69958501D03*
%TD*%
%TO.C,U5*%
X135850000Y-69958501D03*
%TD*%
D12*
%TO.C,C8*%
X132550000Y-64958501D03*
X130650000Y-64958501D03*
%TD*%
D11*
%TO.C,TP2*%
X138700000Y-59858501D03*
%TD*%
D15*
%TO.C,U6*%
X107350000Y-66658501D03*
%TD*%
D12*
%TO.C,C10*%
X104550000Y-68958501D03*
X102650000Y-68958501D03*
%TD*%
D18*
%TO.C,C11*%
X132575000Y-70858501D03*
X131025000Y-70858501D03*
%TD*%
D16*
%TO.C,U2*%
X144560000Y-62258501D03*
X144560000Y-63258501D03*
X144560000Y-64258501D03*
X144560000Y-65258501D03*
D17*
X148340000Y-66368501D03*
X148340000Y-61148501D03*
%TD*%
D11*
%TO.C,TP3*%
X86700000Y-59858501D03*
%TD*%
D16*
%TO.C,U3*%
X129340000Y-73458501D03*
X129340000Y-72458501D03*
X129340000Y-71458501D03*
X129340000Y-70458501D03*
D17*
X125560000Y-69348501D03*
X125560000Y-74568501D03*
%TD*%
D11*
%TO.C,TP2*%
X82700000Y-59858501D03*
%TD*%
D16*
%TO.C,CN2*%
X88580000Y-73258501D03*
X88580000Y-72258501D03*
D17*
X92320000Y-70908501D03*
X92320000Y-74608501D03*
%TD*%
D16*
%TO.C,U2*%
X88560000Y-62258501D03*
X88560000Y-63258501D03*
X88560000Y-64258501D03*
X88560000Y-65258501D03*
D17*
X92340000Y-66368501D03*
X92340000Y-61148501D03*
%TD*%
D18*
%TO.C,C11*%
X76575000Y-70858501D03*
X75025000Y-70858501D03*
%TD*%
D12*
%TO.C,C9*%
X76550000Y-66958501D03*
X74650000Y-66958501D03*
%TD*%
D16*
%TO.C,CN2*%
X116580000Y-73258501D03*
X116580000Y-72258501D03*
D17*
X120320000Y-70908501D03*
X120320000Y-74608501D03*
%TD*%
D16*
%TO.C,U2*%
X116560000Y-62258501D03*
X116560000Y-63258501D03*
X116560000Y-64258501D03*
X116560000Y-65258501D03*
D17*
X120340000Y-66368501D03*
X120340000Y-61148501D03*
%TD*%
D19*
%TO.C,U4*%
X138650000Y-66158501D03*
%TD*%
D16*
%TO.C,U3*%
X45340000Y-73458501D03*
X45340000Y-72458501D03*
X45340000Y-71458501D03*
X45340000Y-70458501D03*
D17*
X41560000Y-69348501D03*
X41560000Y-74568501D03*
%TD*%
D19*
%TO.C,U4*%
X54650000Y-66158501D03*
%TD*%
D16*
%TO.C,CN1*%
X45320000Y-62458501D03*
X45320000Y-63458501D03*
D17*
X41580000Y-64808501D03*
X41580000Y-61108501D03*
%TD*%
D16*
%TO.C,CN2*%
X60580000Y-73258501D03*
X60580000Y-72258501D03*
D17*
X64320000Y-70908501D03*
X64320000Y-74608501D03*
%TD*%
D18*
%TO.C,C11*%
X48575000Y-70858501D03*
X47025000Y-70858501D03*
%TD*%
D16*
%TO.C,U2*%
X60560000Y-62258501D03*
X60560000Y-63258501D03*
X60560000Y-64258501D03*
X60560000Y-65258501D03*
D17*
X64340000Y-66368501D03*
X64340000Y-61148501D03*
%TD*%
D11*
%TO.C,TP2*%
X54700000Y-59858501D03*
%TD*%
D15*
%TO.C,U6*%
X51350000Y-66658501D03*
%TD*%
D12*
%TO.C,C9*%
X48550000Y-66958501D03*
X46650000Y-66958501D03*
%TD*%
D11*
%TO.C,TP1*%
X56700000Y-59858501D03*
%TD*%
%TO.C,TP3*%
X58700000Y-59858501D03*
%TD*%
D12*
%TO.C,C8*%
X48550000Y-64958501D03*
X46650000Y-64958501D03*
%TD*%
%TO.C,C10*%
X48550000Y-68958501D03*
X46650000Y-68958501D03*
%TD*%
D15*
%TO.C,U7*%
X55150000Y-69458501D03*
%TD*%
D13*
%TO.C,JP1*%
X47890381Y-74518120D03*
D14*
X48809619Y-73598882D03*
%TD*%
D19*
%TO.C,U5*%
X51850000Y-69958501D03*
%TD*%
D11*
%TO.C,TP3*%
X142700000Y-39858501D03*
%TD*%
D12*
%TO.C,C9*%
X132550000Y-46958501D03*
X130650000Y-46958501D03*
%TD*%
D13*
%TO.C,JP1*%
X131890381Y-54518120D03*
D14*
X132809619Y-53598882D03*
%TD*%
D15*
%TO.C,U7*%
X139150000Y-49458501D03*
%TD*%
D16*
%TO.C,CN2*%
X144580000Y-53258501D03*
X144580000Y-52258501D03*
D17*
X148320000Y-50908501D03*
X148320000Y-54608501D03*
%TD*%
D11*
%TO.C,TP1*%
X140700000Y-39858501D03*
%TD*%
D15*
%TO.C,U7*%
X111150000Y-49458501D03*
%TD*%
D13*
%TO.C,JP1*%
X103890381Y-54518120D03*
D14*
X104809619Y-53598882D03*
%TD*%
D15*
%TO.C,U6*%
X79350000Y-46658501D03*
%TD*%
D13*
%TO.C,JP1*%
X75890381Y-54518120D03*
D14*
X76809619Y-53598882D03*
%TD*%
D15*
%TO.C,U6*%
X135350000Y-46658501D03*
%TD*%
D12*
%TO.C,C10*%
X132550000Y-48958501D03*
X130650000Y-48958501D03*
%TD*%
%TO.C,C9*%
X104550000Y-46958501D03*
X102650000Y-46958501D03*
%TD*%
D11*
%TO.C,TP2*%
X110700000Y-39858501D03*
%TD*%
D18*
%TO.C,C11*%
X104575000Y-50858501D03*
X103025000Y-50858501D03*
%TD*%
D16*
%TO.C,CN1*%
X129320000Y-42458501D03*
X129320000Y-43458501D03*
D17*
X125580000Y-44808501D03*
X125580000Y-41108501D03*
%TD*%
D16*
%TO.C,CN1*%
X101320000Y-42458501D03*
X101320000Y-43458501D03*
D17*
X97580000Y-44808501D03*
X97580000Y-41108501D03*
%TD*%
D12*
%TO.C,C8*%
X104550000Y-44958501D03*
X102650000Y-44958501D03*
%TD*%
%TO.C,C10*%
X76550000Y-48958501D03*
X74650000Y-48958501D03*
%TD*%
D11*
%TO.C,TP1*%
X84700000Y-39858501D03*
%TD*%
D15*
%TO.C,U7*%
X83150000Y-49458501D03*
%TD*%
D11*
%TO.C,TP1*%
X112700000Y-39858501D03*
%TD*%
D19*
%TO.C,U5*%
X107850000Y-49958501D03*
%TD*%
D16*
%TO.C,U3*%
X101340000Y-53458501D03*
X101340000Y-52458501D03*
X101340000Y-51458501D03*
X101340000Y-50458501D03*
D17*
X97560000Y-49348501D03*
X97560000Y-54568501D03*
%TD*%
D12*
%TO.C,C8*%
X76550000Y-44958501D03*
X74650000Y-44958501D03*
%TD*%
D11*
%TO.C,TP3*%
X114700000Y-39858501D03*
%TD*%
D19*
%TO.C,U4*%
X82650000Y-46158501D03*
%TD*%
D16*
%TO.C,CN1*%
X73320000Y-42458501D03*
X73320000Y-43458501D03*
D17*
X69580000Y-44808501D03*
X69580000Y-41108501D03*
%TD*%
D16*
%TO.C,U3*%
X73340000Y-53458501D03*
X73340000Y-52458501D03*
X73340000Y-51458501D03*
X73340000Y-50458501D03*
D17*
X69560000Y-49348501D03*
X69560000Y-54568501D03*
%TD*%
D19*
%TO.C,U4*%
X110650000Y-46158501D03*
%TD*%
%TO.C,U5*%
X79850000Y-49958501D03*
%TD*%
%TO.C,U5*%
X135850000Y-49958501D03*
%TD*%
D12*
%TO.C,C8*%
X132550000Y-44958501D03*
X130650000Y-44958501D03*
%TD*%
D11*
%TO.C,TP2*%
X138700000Y-39858501D03*
%TD*%
D15*
%TO.C,U6*%
X107350000Y-46658501D03*
%TD*%
D12*
%TO.C,C10*%
X104550000Y-48958501D03*
X102650000Y-48958501D03*
%TD*%
D18*
%TO.C,C11*%
X132575000Y-50858501D03*
X131025000Y-50858501D03*
%TD*%
D16*
%TO.C,U2*%
X144560000Y-42258501D03*
X144560000Y-43258501D03*
X144560000Y-44258501D03*
X144560000Y-45258501D03*
D17*
X148340000Y-46368501D03*
X148340000Y-41148501D03*
%TD*%
D11*
%TO.C,TP3*%
X86700000Y-39858501D03*
%TD*%
D16*
%TO.C,U3*%
X129340000Y-53458501D03*
X129340000Y-52458501D03*
X129340000Y-51458501D03*
X129340000Y-50458501D03*
D17*
X125560000Y-49348501D03*
X125560000Y-54568501D03*
%TD*%
D11*
%TO.C,TP2*%
X82700000Y-39858501D03*
%TD*%
D16*
%TO.C,CN2*%
X88580000Y-53258501D03*
X88580000Y-52258501D03*
D17*
X92320000Y-50908501D03*
X92320000Y-54608501D03*
%TD*%
D16*
%TO.C,U2*%
X88560000Y-42258501D03*
X88560000Y-43258501D03*
X88560000Y-44258501D03*
X88560000Y-45258501D03*
D17*
X92340000Y-46368501D03*
X92340000Y-41148501D03*
%TD*%
D18*
%TO.C,C11*%
X76575000Y-50858501D03*
X75025000Y-50858501D03*
%TD*%
D12*
%TO.C,C9*%
X76550000Y-46958501D03*
X74650000Y-46958501D03*
%TD*%
D16*
%TO.C,CN2*%
X116580000Y-53258501D03*
X116580000Y-52258501D03*
D17*
X120320000Y-50908501D03*
X120320000Y-54608501D03*
%TD*%
D16*
%TO.C,U2*%
X116560000Y-42258501D03*
X116560000Y-43258501D03*
X116560000Y-44258501D03*
X116560000Y-45258501D03*
D17*
X120340000Y-46368501D03*
X120340000Y-41148501D03*
%TD*%
D19*
%TO.C,U4*%
X138650000Y-46158501D03*
%TD*%
D16*
%TO.C,U3*%
X45340000Y-53458501D03*
X45340000Y-52458501D03*
X45340000Y-51458501D03*
X45340000Y-50458501D03*
D17*
X41560000Y-49348501D03*
X41560000Y-54568501D03*
%TD*%
D19*
%TO.C,U4*%
X54650000Y-46158501D03*
%TD*%
D16*
%TO.C,CN1*%
X45320000Y-42458501D03*
X45320000Y-43458501D03*
D17*
X41580000Y-44808501D03*
X41580000Y-41108501D03*
%TD*%
D16*
%TO.C,CN2*%
X60580000Y-53258501D03*
X60580000Y-52258501D03*
D17*
X64320000Y-50908501D03*
X64320000Y-54608501D03*
%TD*%
D18*
%TO.C,C11*%
X48575000Y-50858501D03*
X47025000Y-50858501D03*
%TD*%
D16*
%TO.C,U2*%
X60560000Y-42258501D03*
X60560000Y-43258501D03*
X60560000Y-44258501D03*
X60560000Y-45258501D03*
D17*
X64340000Y-46368501D03*
X64340000Y-41148501D03*
%TD*%
D11*
%TO.C,TP2*%
X54700000Y-39858501D03*
%TD*%
D15*
%TO.C,U6*%
X51350000Y-46658501D03*
%TD*%
D12*
%TO.C,C9*%
X48550000Y-46958501D03*
X46650000Y-46958501D03*
%TD*%
D11*
%TO.C,TP1*%
X56700000Y-39858501D03*
%TD*%
%TO.C,TP3*%
X58700000Y-39858501D03*
%TD*%
D12*
%TO.C,C8*%
X48550000Y-44958501D03*
X46650000Y-44958501D03*
%TD*%
%TO.C,C10*%
X48550000Y-48958501D03*
X46650000Y-48958501D03*
%TD*%
D15*
%TO.C,U7*%
X55150000Y-49458501D03*
%TD*%
D13*
%TO.C,JP1*%
X47890381Y-54518120D03*
D14*
X48809619Y-53598882D03*
%TD*%
D19*
%TO.C,U5*%
X51850000Y-49958501D03*
%TD*%
D16*
%TO.C,U3*%
X129340000Y-33458501D03*
X129340000Y-32458501D03*
X129340000Y-31458501D03*
X129340000Y-30458501D03*
D17*
X125560000Y-29348501D03*
X125560000Y-34568501D03*
%TD*%
D19*
%TO.C,U4*%
X138650000Y-26158501D03*
%TD*%
D16*
%TO.C,CN1*%
X129320000Y-22458501D03*
X129320000Y-23458501D03*
D17*
X125580000Y-24808501D03*
X125580000Y-21108501D03*
%TD*%
D16*
%TO.C,CN2*%
X144580000Y-33258501D03*
X144580000Y-32258501D03*
D17*
X148320000Y-30908501D03*
X148320000Y-34608501D03*
%TD*%
D18*
%TO.C,C11*%
X132575000Y-30858501D03*
X131025000Y-30858501D03*
%TD*%
D16*
%TO.C,U2*%
X144560000Y-22258501D03*
X144560000Y-23258501D03*
X144560000Y-24258501D03*
X144560000Y-25258501D03*
D17*
X148340000Y-26368501D03*
X148340000Y-21148501D03*
%TD*%
D11*
%TO.C,TP2*%
X138700000Y-19858501D03*
%TD*%
D15*
%TO.C,U6*%
X135350000Y-26658501D03*
%TD*%
D12*
%TO.C,C9*%
X132550000Y-26958501D03*
X130650000Y-26958501D03*
%TD*%
D11*
%TO.C,TP1*%
X140700000Y-19858501D03*
%TD*%
%TO.C,TP3*%
X142700000Y-19858501D03*
%TD*%
D12*
%TO.C,C8*%
X132550000Y-24958501D03*
X130650000Y-24958501D03*
%TD*%
%TO.C,C10*%
X132550000Y-28958501D03*
X130650000Y-28958501D03*
%TD*%
D15*
%TO.C,U7*%
X139150000Y-29458501D03*
%TD*%
D13*
%TO.C,JP1*%
X131890381Y-34518120D03*
D14*
X132809619Y-33598882D03*
%TD*%
D19*
%TO.C,U5*%
X135850000Y-29958501D03*
%TD*%
D16*
%TO.C,U3*%
X101340000Y-33458501D03*
X101340000Y-32458501D03*
X101340000Y-31458501D03*
X101340000Y-30458501D03*
D17*
X97560000Y-29348501D03*
X97560000Y-34568501D03*
%TD*%
D19*
%TO.C,U4*%
X110650000Y-26158501D03*
%TD*%
D16*
%TO.C,CN1*%
X101320000Y-22458501D03*
X101320000Y-23458501D03*
D17*
X97580000Y-24808501D03*
X97580000Y-21108501D03*
%TD*%
D16*
%TO.C,CN2*%
X116580000Y-33258501D03*
X116580000Y-32258501D03*
D17*
X120320000Y-30908501D03*
X120320000Y-34608501D03*
%TD*%
D18*
%TO.C,C11*%
X104575000Y-30858501D03*
X103025000Y-30858501D03*
%TD*%
D16*
%TO.C,U2*%
X116560000Y-22258501D03*
X116560000Y-23258501D03*
X116560000Y-24258501D03*
X116560000Y-25258501D03*
D17*
X120340000Y-26368501D03*
X120340000Y-21148501D03*
%TD*%
D11*
%TO.C,TP2*%
X110700000Y-19858501D03*
%TD*%
D15*
%TO.C,U6*%
X107350000Y-26658501D03*
%TD*%
D12*
%TO.C,C9*%
X104550000Y-26958501D03*
X102650000Y-26958501D03*
%TD*%
D11*
%TO.C,TP1*%
X112700000Y-19858501D03*
%TD*%
%TO.C,TP3*%
X114700000Y-19858501D03*
%TD*%
D12*
%TO.C,C8*%
X104550000Y-24958501D03*
X102650000Y-24958501D03*
%TD*%
%TO.C,C10*%
X104550000Y-28958501D03*
X102650000Y-28958501D03*
%TD*%
D15*
%TO.C,U7*%
X111150000Y-29458501D03*
%TD*%
D13*
%TO.C,JP1*%
X103890381Y-34518120D03*
D14*
X104809619Y-33598882D03*
%TD*%
D19*
%TO.C,U5*%
X107850000Y-29958501D03*
%TD*%
D16*
%TO.C,U3*%
X73340000Y-33458501D03*
X73340000Y-32458501D03*
X73340000Y-31458501D03*
X73340000Y-30458501D03*
D17*
X69560000Y-29348501D03*
X69560000Y-34568501D03*
%TD*%
D19*
%TO.C,U4*%
X82650000Y-26158501D03*
%TD*%
D16*
%TO.C,CN1*%
X73320000Y-22458501D03*
X73320000Y-23458501D03*
D17*
X69580000Y-24808501D03*
X69580000Y-21108501D03*
%TD*%
D16*
%TO.C,CN2*%
X88580000Y-33258501D03*
X88580000Y-32258501D03*
D17*
X92320000Y-30908501D03*
X92320000Y-34608501D03*
%TD*%
D18*
%TO.C,C11*%
X76575000Y-30858501D03*
X75025000Y-30858501D03*
%TD*%
D16*
%TO.C,U2*%
X88560000Y-22258501D03*
X88560000Y-23258501D03*
X88560000Y-24258501D03*
X88560000Y-25258501D03*
D17*
X92340000Y-26368501D03*
X92340000Y-21148501D03*
%TD*%
D11*
%TO.C,TP2*%
X82700000Y-19858501D03*
%TD*%
D15*
%TO.C,U6*%
X79350000Y-26658501D03*
%TD*%
D12*
%TO.C,C9*%
X76550000Y-26958501D03*
X74650000Y-26958501D03*
%TD*%
D11*
%TO.C,TP1*%
X84700000Y-19858501D03*
%TD*%
%TO.C,TP3*%
X86700000Y-19858501D03*
%TD*%
D12*
%TO.C,C8*%
X76550000Y-24958501D03*
X74650000Y-24958501D03*
%TD*%
%TO.C,C10*%
X76550000Y-28958501D03*
X74650000Y-28958501D03*
%TD*%
D15*
%TO.C,U7*%
X83150000Y-29458501D03*
%TD*%
D13*
%TO.C,JP1*%
X75890381Y-34518120D03*
D14*
X76809619Y-33598882D03*
%TD*%
D19*
%TO.C,U5*%
X79850000Y-29958501D03*
%TD*%
%TO.C,U5*%
X51850000Y-29958501D03*
%TD*%
D13*
%TO.C,JP1*%
X47890381Y-34518120D03*
D14*
X48809619Y-33598882D03*
%TD*%
D15*
%TO.C,U7*%
X55150000Y-29458501D03*
%TD*%
D12*
%TO.C,C10*%
X48550000Y-28958501D03*
X46650000Y-28958501D03*
%TD*%
%TO.C,C8*%
X48550000Y-24958501D03*
X46650000Y-24958501D03*
%TD*%
D11*
%TO.C,TP3*%
X58700000Y-19858501D03*
%TD*%
%TO.C,TP1*%
X56700000Y-19858501D03*
%TD*%
D12*
%TO.C,C9*%
X48550000Y-26958501D03*
X46650000Y-26958501D03*
%TD*%
D15*
%TO.C,U6*%
X51350000Y-26658501D03*
%TD*%
D11*
%TO.C,TP2*%
X54700000Y-19858501D03*
%TD*%
D16*
%TO.C,U2*%
X60560000Y-22258501D03*
X60560000Y-23258501D03*
X60560000Y-24258501D03*
X60560000Y-25258501D03*
D17*
X64340000Y-26368501D03*
X64340000Y-21148501D03*
%TD*%
D18*
%TO.C,C11*%
X48575000Y-30858501D03*
X47025000Y-30858501D03*
%TD*%
D16*
%TO.C,CN2*%
X60580000Y-33258501D03*
X60580000Y-32258501D03*
D17*
X64320000Y-30908501D03*
X64320000Y-34608501D03*
%TD*%
D16*
%TO.C,CN1*%
X45320000Y-22458501D03*
X45320000Y-23458501D03*
D17*
X41580000Y-24808501D03*
X41580000Y-21108501D03*
%TD*%
D19*
%TO.C,U4*%
X54650000Y-26158501D03*
%TD*%
D16*
%TO.C,U3*%
X45340000Y-33458501D03*
X45340000Y-32458501D03*
X45340000Y-31458501D03*
X45340000Y-30458501D03*
D17*
X41560000Y-29348501D03*
X41560000Y-34568501D03*
%TD*%
M02*
