G04 #@! TF.GenerationSoftware,KiCad,Pcbnew,9.0.1-9.0.1-0~ubuntu24.04.1*
G04 #@! TF.CreationDate,2025-05-10T10:51:42+02:00*
G04 #@! TF.ProjectId,ILM139C,494c4d31-3339-4432-9e6b-696361645f70,v0.1.0*
G04 #@! TF.SameCoordinates,Original*
G04 #@! TF.FileFunction,Legend,Top*
G04 #@! TF.FilePolarity,Positive*
%FSLAX46Y46*%
G04 Gerber Fmt 4.6, Leading zero omitted, Abs format (unit mm)*
G04 Created by KiCad (PCBNEW 9.0.1-9.0.1-0~ubuntu24.04.1) date 2025-05-10 10:51:42*
%MOMM*%
%LPD*%
G01*
G04 APERTURE LIST*
%ADD10C,0.150000*%
G04 APERTURE END LIST*
D10*
X98500000Y-57980000D02*
X98500000Y-58020000D01*
X98990000Y-58500000D02*
X99020000Y-58500000D01*
X99000000Y-58000000D02*
X99000000Y-57490000D01*
X99510000Y-58000000D02*
X99000000Y-58000000D01*
X102500000Y-51980000D02*
X102500000Y-52020000D01*
X102990000Y-52500000D02*
X103020000Y-52500000D01*
X103000000Y-52000000D02*
X103000000Y-51490000D01*
X103510000Y-52000000D02*
X103000000Y-52000000D01*
X100500000Y-61980000D02*
X100500000Y-62020000D01*
X100990000Y-62500000D02*
X101020000Y-62500000D01*
X101000000Y-62000000D02*
X101000000Y-61490000D01*
X101510000Y-62000000D02*
X101000000Y-62000000D01*
X92500000Y-61980000D02*
X92500000Y-62020000D01*
X92990000Y-62500000D02*
X93020000Y-62500000D01*
X93000000Y-62000000D02*
X93000000Y-61490000D01*
X93510000Y-62000000D02*
X93000000Y-62000000D01*
X94500000Y-61980000D02*
X94500000Y-62020000D01*
X94990000Y-62500000D02*
X95020000Y-62500000D01*
X95000000Y-62000000D02*
X95000000Y-61490000D01*
X95510000Y-62000000D02*
X95000000Y-62000000D01*
X108500000Y-65980000D02*
X108500000Y-66020000D01*
X108990000Y-66500000D02*
X109020000Y-66500000D01*
X109000000Y-66000000D02*
X109000000Y-65490000D01*
X109510000Y-66000000D02*
X109000000Y-66000000D01*
X96500000Y-67980000D02*
X96500000Y-68020000D01*
X96990000Y-68500000D02*
X97020000Y-68500000D01*
X97000000Y-68000000D02*
X97000000Y-67490000D01*
X97510000Y-68000000D02*
X97000000Y-68000000D01*
X108500000Y-67980000D02*
X108500000Y-68020000D01*
X108990000Y-68500000D02*
X109020000Y-68500000D01*
X109000000Y-68000000D02*
X109000000Y-67490000D01*
X109510000Y-68000000D02*
X109000000Y-68000000D01*
X106500000Y-51980000D02*
X106500000Y-52020000D01*
X106990000Y-52500000D02*
X107020000Y-52500000D01*
X107000000Y-52000000D02*
X107000000Y-51490000D01*
X107510000Y-52000000D02*
X107000000Y-52000000D01*
X98500000Y-53980000D02*
X98500000Y-54020000D01*
X98990000Y-54500000D02*
X99020000Y-54500000D01*
X99000000Y-54000000D02*
X99000000Y-53490000D01*
X99510000Y-54000000D02*
X99000000Y-54000000D01*
X100500000Y-57980000D02*
X100500000Y-58020000D01*
X100990000Y-58500000D02*
X101020000Y-58500000D01*
X101000000Y-58000000D02*
X101000000Y-57490000D01*
X101510000Y-58000000D02*
X101000000Y-58000000D01*
X104500000Y-55980000D02*
X104500000Y-56020000D01*
X104990000Y-56500000D02*
X105020000Y-56500000D01*
X105000000Y-56000000D02*
X105000000Y-55490000D01*
X105510000Y-56000000D02*
X105000000Y-56000000D01*
X102500000Y-63980000D02*
X102500000Y-64020000D01*
X102990000Y-64500000D02*
X103020000Y-64500000D01*
X103000000Y-64000000D02*
X103000000Y-63490000D01*
X103510000Y-64000000D02*
X103000000Y-64000000D01*
X108500000Y-63980000D02*
X108500000Y-64020000D01*
X108990000Y-64500000D02*
X109020000Y-64500000D01*
X109000000Y-64000000D02*
X109000000Y-63490000D01*
X109510000Y-64000000D02*
X109000000Y-64000000D01*
X90500000Y-51980000D02*
X90500000Y-52020000D01*
X90990000Y-52500000D02*
X91020000Y-52500000D01*
X91000000Y-52000000D02*
X91000000Y-51490000D01*
X91510000Y-52000000D02*
X91000000Y-52000000D01*
X106500000Y-57980000D02*
X106500000Y-58020000D01*
X106990000Y-58500000D02*
X107020000Y-58500000D01*
X107000000Y-58000000D02*
X107000000Y-57490000D01*
X107510000Y-58000000D02*
X107000000Y-58000000D01*
X104500000Y-67980000D02*
X104500000Y-68020000D01*
X104990000Y-68500000D02*
X105020000Y-68500000D01*
X105000000Y-68000000D02*
X105000000Y-67490000D01*
X105510000Y-68000000D02*
X105000000Y-68000000D01*
X92500000Y-65980000D02*
X92500000Y-66020000D01*
X92990000Y-66500000D02*
X93020000Y-66500000D01*
X93000000Y-66000000D02*
X93000000Y-65490000D01*
X93510000Y-66000000D02*
X93000000Y-66000000D01*
X110500000Y-61980000D02*
X110500000Y-62020000D01*
X110990000Y-62500000D02*
X111020000Y-62500000D01*
X111000000Y-62000000D02*
X111000000Y-61490000D01*
X111510000Y-62000000D02*
X111000000Y-62000000D01*
X96500000Y-57980000D02*
X96500000Y-58020000D01*
X96990000Y-58500000D02*
X97020000Y-58500000D01*
X97000000Y-58000000D02*
X97000000Y-57490000D01*
X97510000Y-58000000D02*
X97000000Y-58000000D01*
X112500000Y-57980000D02*
X112500000Y-58020000D01*
X112990000Y-58500000D02*
X113020000Y-58500000D01*
X113000000Y-58000000D02*
X113000000Y-57490000D01*
X113510000Y-58000000D02*
X113000000Y-58000000D01*
X112500000Y-65980000D02*
X112500000Y-66020000D01*
X112990000Y-66500000D02*
X113020000Y-66500000D01*
X113000000Y-66000000D02*
X113000000Y-65490000D01*
X113510000Y-66000000D02*
X113000000Y-66000000D01*
X98500000Y-65980000D02*
X98500000Y-66020000D01*
X98990000Y-66500000D02*
X99020000Y-66500000D01*
X99000000Y-66000000D02*
X99000000Y-65490000D01*
X99510000Y-66000000D02*
X99000000Y-66000000D01*
X102500000Y-65980000D02*
X102500000Y-66020000D01*
X102990000Y-66500000D02*
X103020000Y-66500000D01*
X103000000Y-66000000D02*
X103000000Y-65490000D01*
X103510000Y-66000000D02*
X103000000Y-66000000D01*
X94500000Y-51980000D02*
X94500000Y-52020000D01*
X94990000Y-52500000D02*
X95020000Y-52500000D01*
X95000000Y-52000000D02*
X95000000Y-51490000D01*
X95510000Y-52000000D02*
X95000000Y-52000000D01*
X102500000Y-67980000D02*
X102500000Y-68020000D01*
X102990000Y-68500000D02*
X103020000Y-68500000D01*
X103000000Y-68000000D02*
X103000000Y-67490000D01*
X103510000Y-68000000D02*
X103000000Y-68000000D01*
X112500000Y-55980000D02*
X112500000Y-56020000D01*
X112990000Y-56500000D02*
X113020000Y-56500000D01*
X113000000Y-56000000D02*
X113000000Y-55490000D01*
X113510000Y-56000000D02*
X113000000Y-56000000D01*
X102500000Y-59980000D02*
X102500000Y-60020000D01*
X102990000Y-60500000D02*
X103020000Y-60500000D01*
X103000000Y-60000000D02*
X103000000Y-59490000D01*
X103510000Y-60000000D02*
X103000000Y-60000000D01*
X100500000Y-51980000D02*
X100500000Y-52020000D01*
X100990000Y-52500000D02*
X101020000Y-52500000D01*
X101000000Y-52000000D02*
X101000000Y-51490000D01*
X101510000Y-52000000D02*
X101000000Y-52000000D01*
X108500000Y-57980000D02*
X108500000Y-58020000D01*
X108990000Y-58500000D02*
X109020000Y-58500000D01*
X109000000Y-58000000D02*
X109000000Y-57490000D01*
X109510000Y-58000000D02*
X109000000Y-58000000D01*
X96500000Y-53980000D02*
X96500000Y-54020000D01*
X96990000Y-54500000D02*
X97020000Y-54500000D01*
X97000000Y-54000000D02*
X97000000Y-53490000D01*
X97510000Y-54000000D02*
X97000000Y-54000000D01*
X114500000Y-55980000D02*
X114500000Y-56020000D01*
X114990000Y-56500000D02*
X115020000Y-56500000D01*
X115000000Y-56000000D02*
X115000000Y-55490000D01*
X115510000Y-56000000D02*
X115000000Y-56000000D01*
X90500000Y-55980000D02*
X90500000Y-56020000D01*
X90990000Y-56500000D02*
X91020000Y-56500000D01*
X91000000Y-56000000D02*
X91000000Y-55490000D01*
X91510000Y-56000000D02*
X91000000Y-56000000D01*
X106500000Y-59980000D02*
X106500000Y-60020000D01*
X106990000Y-60500000D02*
X107020000Y-60500000D01*
X107000000Y-60000000D02*
X107000000Y-59490000D01*
X107510000Y-60000000D02*
X107000000Y-60000000D01*
X112500000Y-59980000D02*
X112500000Y-60020000D01*
X112990000Y-60500000D02*
X113020000Y-60500000D01*
X113000000Y-60000000D02*
X113000000Y-59490000D01*
X113510000Y-60000000D02*
X113000000Y-60000000D01*
X114500000Y-67980000D02*
X114500000Y-68020000D01*
X114990000Y-68500000D02*
X115020000Y-68500000D01*
X115000000Y-68000000D02*
X115000000Y-67490000D01*
X115510000Y-68000000D02*
X115000000Y-68000000D01*
X104500000Y-59980000D02*
X104500000Y-60020000D01*
X104990000Y-60500000D02*
X105020000Y-60500000D01*
X105000000Y-60000000D02*
X105000000Y-59490000D01*
X105510000Y-60000000D02*
X105000000Y-60000000D01*
X100500000Y-59980000D02*
X100500000Y-60020000D01*
X100990000Y-60500000D02*
X101020000Y-60500000D01*
X101000000Y-60000000D02*
X101000000Y-59490000D01*
X101510000Y-60000000D02*
X101000000Y-60000000D01*
X102500000Y-61980000D02*
X102500000Y-62020000D01*
X102990000Y-62500000D02*
X103020000Y-62500000D01*
X103000000Y-62000000D02*
X103000000Y-61490000D01*
X103510000Y-62000000D02*
X103000000Y-62000000D01*
X106500000Y-63980000D02*
X106500000Y-64020000D01*
X106990000Y-64500000D02*
X107020000Y-64500000D01*
X107000000Y-64000000D02*
X107000000Y-63490000D01*
X107510000Y-64000000D02*
X107000000Y-64000000D01*
X114500000Y-61980000D02*
X114500000Y-62020000D01*
X114990000Y-62500000D02*
X115020000Y-62500000D01*
X115000000Y-62000000D02*
X115000000Y-61490000D01*
X115510000Y-62000000D02*
X115000000Y-62000000D01*
X112500000Y-61980000D02*
X112500000Y-62020000D01*
X112990000Y-62500000D02*
X113020000Y-62500000D01*
X113000000Y-62000000D02*
X113000000Y-61490000D01*
X113510000Y-62000000D02*
X113000000Y-62000000D01*
X102500000Y-55980000D02*
X102500000Y-56020000D01*
X102990000Y-56500000D02*
X103020000Y-56500000D01*
X103000000Y-56000000D02*
X103000000Y-55490000D01*
X103510000Y-56000000D02*
X103000000Y-56000000D01*
X110500000Y-55980000D02*
X110500000Y-56020000D01*
X110990000Y-56500000D02*
X111020000Y-56500000D01*
X111000000Y-56000000D02*
X111000000Y-55490000D01*
X111510000Y-56000000D02*
X111000000Y-56000000D01*
X106500000Y-55980000D02*
X106500000Y-56020000D01*
X106990000Y-56500000D02*
X107020000Y-56500000D01*
X107000000Y-56000000D02*
X107000000Y-55490000D01*
X107510000Y-56000000D02*
X107000000Y-56000000D01*
X114500000Y-53980000D02*
X114500000Y-54020000D01*
X114990000Y-54500000D02*
X115020000Y-54500000D01*
X115000000Y-54000000D02*
X115000000Y-53490000D01*
X115510000Y-54000000D02*
X115000000Y-54000000D01*
X92500000Y-63980000D02*
X92500000Y-64020000D01*
X92990000Y-64500000D02*
X93020000Y-64500000D01*
X93000000Y-64000000D02*
X93000000Y-63490000D01*
X93510000Y-64000000D02*
X93000000Y-64000000D01*
X110500000Y-53980000D02*
X110500000Y-54020000D01*
X110990000Y-54500000D02*
X111020000Y-54500000D01*
X111000000Y-54000000D02*
X111000000Y-53490000D01*
X111510000Y-54000000D02*
X111000000Y-54000000D01*
X108500000Y-55980000D02*
X108500000Y-56020000D01*
X108990000Y-56500000D02*
X109020000Y-56500000D01*
X109000000Y-56000000D02*
X109000000Y-55490000D01*
X109510000Y-56000000D02*
X109000000Y-56000000D01*
X110500000Y-59980000D02*
X110500000Y-60020000D01*
X110990000Y-60500000D02*
X111020000Y-60500000D01*
X111000000Y-60000000D02*
X111000000Y-59490000D01*
X111510000Y-60000000D02*
X111000000Y-60000000D01*
X100500000Y-63980000D02*
X100500000Y-64020000D01*
X100990000Y-64500000D02*
X101020000Y-64500000D01*
X101000000Y-64000000D02*
X101000000Y-63490000D01*
X101510000Y-64000000D02*
X101000000Y-64000000D01*
X90500000Y-53980000D02*
X90500000Y-54020000D01*
X90990000Y-54500000D02*
X91020000Y-54500000D01*
X91000000Y-54000000D02*
X91000000Y-53490000D01*
X91510000Y-54000000D02*
X91000000Y-54000000D01*
X98500000Y-61980000D02*
X98500000Y-62020000D01*
X98990000Y-62500000D02*
X99020000Y-62500000D01*
X99000000Y-62000000D02*
X99000000Y-61490000D01*
X99510000Y-62000000D02*
X99000000Y-62000000D01*
X90500000Y-65980000D02*
X90500000Y-66020000D01*
X90990000Y-66500000D02*
X91020000Y-66500000D01*
X91000000Y-66000000D02*
X91000000Y-65490000D01*
X91510000Y-66000000D02*
X91000000Y-66000000D01*
X94500000Y-53980000D02*
X94500000Y-54020000D01*
X94990000Y-54500000D02*
X95020000Y-54500000D01*
X95000000Y-54000000D02*
X95000000Y-53490000D01*
X95510000Y-54000000D02*
X95000000Y-54000000D01*
X104500000Y-63980000D02*
X104500000Y-64020000D01*
X104990000Y-64500000D02*
X105020000Y-64500000D01*
X105000000Y-64000000D02*
X105000000Y-63490000D01*
X105510000Y-64000000D02*
X105000000Y-64000000D01*
X108500000Y-61980000D02*
X108500000Y-62020000D01*
X108990000Y-62500000D02*
X109020000Y-62500000D01*
X109000000Y-62000000D02*
X109000000Y-61490000D01*
X109510000Y-62000000D02*
X109000000Y-62000000D01*
X104500000Y-61980000D02*
X104500000Y-62020000D01*
X104990000Y-62500000D02*
X105020000Y-62500000D01*
X105000000Y-62000000D02*
X105000000Y-61490000D01*
X105510000Y-62000000D02*
X105000000Y-62000000D01*
X98500000Y-55980000D02*
X98500000Y-56020000D01*
X98990000Y-56500000D02*
X99020000Y-56500000D01*
X99000000Y-56000000D02*
X99000000Y-55490000D01*
X99510000Y-56000000D02*
X99000000Y-56000000D01*
X94500000Y-63980000D02*
X94500000Y-64020000D01*
X94990000Y-64500000D02*
X95020000Y-64500000D01*
X95000000Y-64000000D02*
X95000000Y-63490000D01*
X95510000Y-64000000D02*
X95000000Y-64000000D01*
X114500000Y-65980000D02*
X114500000Y-66020000D01*
X114990000Y-66500000D02*
X115020000Y-66500000D01*
X115000000Y-66000000D02*
X115000000Y-65490000D01*
X115510000Y-66000000D02*
X115000000Y-66000000D01*
X114500000Y-63980000D02*
X114500000Y-64020000D01*
X114990000Y-64500000D02*
X115020000Y-64500000D01*
X115000000Y-64000000D02*
X115000000Y-63490000D01*
X115510000Y-64000000D02*
X115000000Y-64000000D01*
X106500000Y-61980000D02*
X106500000Y-62020000D01*
X106990000Y-62500000D02*
X107020000Y-62500000D01*
X107000000Y-62000000D02*
X107000000Y-61490000D01*
X107510000Y-62000000D02*
X107000000Y-62000000D01*
X106500000Y-53980000D02*
X106500000Y-54020000D01*
X106990000Y-54500000D02*
X107020000Y-54500000D01*
X107000000Y-54000000D02*
X107000000Y-53490000D01*
X107510000Y-54000000D02*
X107000000Y-54000000D01*
X100500000Y-53980000D02*
X100500000Y-54020000D01*
X100990000Y-54500000D02*
X101020000Y-54500000D01*
X101000000Y-54000000D02*
X101000000Y-53490000D01*
X101510000Y-54000000D02*
X101000000Y-54000000D01*
X98500000Y-51980000D02*
X98500000Y-52020000D01*
X98990000Y-52500000D02*
X99020000Y-52500000D01*
X99000000Y-52000000D02*
X99000000Y-51490000D01*
X99510000Y-52000000D02*
X99000000Y-52000000D01*
X100500000Y-65980000D02*
X100500000Y-66020000D01*
X100990000Y-66500000D02*
X101020000Y-66500000D01*
X101000000Y-66000000D02*
X101000000Y-65490000D01*
X101510000Y-66000000D02*
X101000000Y-66000000D01*
X110500000Y-63980000D02*
X110500000Y-64020000D01*
X110990000Y-64500000D02*
X111020000Y-64500000D01*
X111000000Y-64000000D02*
X111000000Y-63490000D01*
X111510000Y-64000000D02*
X111000000Y-64000000D01*
X98500000Y-67980000D02*
X98500000Y-68020000D01*
X98990000Y-68500000D02*
X99020000Y-68500000D01*
X99000000Y-68000000D02*
X99000000Y-67490000D01*
X99510000Y-68000000D02*
X99000000Y-68000000D01*
X100500000Y-67980000D02*
X100500000Y-68020000D01*
X100990000Y-68500000D02*
X101020000Y-68500000D01*
X101000000Y-68000000D02*
X101000000Y-67490000D01*
X101510000Y-68000000D02*
X101000000Y-68000000D01*
X114500000Y-59980000D02*
X114500000Y-60020000D01*
X114990000Y-60500000D02*
X115020000Y-60500000D01*
X115000000Y-60000000D02*
X115000000Y-59490000D01*
X115510000Y-60000000D02*
X115000000Y-60000000D01*
X90500000Y-63980000D02*
X90500000Y-64020000D01*
X90990000Y-64500000D02*
X91020000Y-64500000D01*
X91000000Y-64000000D02*
X91000000Y-63490000D01*
X91510000Y-64000000D02*
X91000000Y-64000000D01*
X100500000Y-55980000D02*
X100500000Y-56020000D01*
X100990000Y-56500000D02*
X101020000Y-56500000D01*
X101000000Y-56000000D02*
X101000000Y-55490000D01*
X101510000Y-56000000D02*
X101000000Y-56000000D01*
X114500000Y-51980000D02*
X114500000Y-52020000D01*
X114990000Y-52500000D02*
X115020000Y-52500000D01*
X115000000Y-52000000D02*
X115000000Y-51490000D01*
X115510000Y-52000000D02*
X115000000Y-52000000D01*
X110500000Y-65980000D02*
X110500000Y-66020000D01*
X110990000Y-66500000D02*
X111020000Y-66500000D01*
X111000000Y-66000000D02*
X111000000Y-65490000D01*
X111510000Y-66000000D02*
X111000000Y-66000000D01*
X92500000Y-51980000D02*
X92500000Y-52020000D01*
X92990000Y-52500000D02*
X93020000Y-52500000D01*
X93000000Y-52000000D02*
X93000000Y-51490000D01*
X93510000Y-52000000D02*
X93000000Y-52000000D01*
X94500000Y-59980000D02*
X94500000Y-60020000D01*
X94990000Y-60500000D02*
X95020000Y-60500000D01*
X95000000Y-60000000D02*
X95000000Y-59490000D01*
X95510000Y-60000000D02*
X95000000Y-60000000D01*
X106500000Y-67980000D02*
X106500000Y-68020000D01*
X106990000Y-68500000D02*
X107020000Y-68500000D01*
X107000000Y-68000000D02*
X107000000Y-67490000D01*
X107510000Y-68000000D02*
X107000000Y-68000000D01*
X110500000Y-57980000D02*
X110500000Y-58020000D01*
X110990000Y-58500000D02*
X111020000Y-58500000D01*
X111000000Y-58000000D02*
X111000000Y-57490000D01*
X111510000Y-58000000D02*
X111000000Y-58000000D01*
X94500000Y-67980000D02*
X94500000Y-68020000D01*
X94990000Y-68500000D02*
X95020000Y-68500000D01*
X95000000Y-68000000D02*
X95000000Y-67490000D01*
X95510000Y-68000000D02*
X95000000Y-68000000D01*
X104500000Y-65980000D02*
X104500000Y-66020000D01*
X104990000Y-66500000D02*
X105020000Y-66500000D01*
X105000000Y-66000000D02*
X105000000Y-65490000D01*
X105510000Y-66000000D02*
X105000000Y-66000000D01*
X94500000Y-55980000D02*
X94500000Y-56020000D01*
X94990000Y-56500000D02*
X95020000Y-56500000D01*
X95000000Y-56000000D02*
X95000000Y-55490000D01*
X95510000Y-56000000D02*
X95000000Y-56000000D01*
X112500000Y-53980000D02*
X112500000Y-54020000D01*
X112990000Y-54500000D02*
X113020000Y-54500000D01*
X113000000Y-54000000D02*
X113000000Y-53490000D01*
X113510000Y-54000000D02*
X113000000Y-54000000D01*
X110500000Y-67980000D02*
X110500000Y-68020000D01*
X110990000Y-68500000D02*
X111020000Y-68500000D01*
X111000000Y-68000000D02*
X111000000Y-67490000D01*
X111510000Y-68000000D02*
X111000000Y-68000000D01*
X90500000Y-59980000D02*
X90500000Y-60020000D01*
X90990000Y-60500000D02*
X91020000Y-60500000D01*
X91000000Y-60000000D02*
X91000000Y-59490000D01*
X91510000Y-60000000D02*
X91000000Y-60000000D01*
X104500000Y-51980000D02*
X104500000Y-52020000D01*
X104990000Y-52500000D02*
X105020000Y-52500000D01*
X105000000Y-52000000D02*
X105000000Y-51490000D01*
X105510000Y-52000000D02*
X105000000Y-52000000D01*
X104500000Y-57980000D02*
X104500000Y-58020000D01*
X104990000Y-58500000D02*
X105020000Y-58500000D01*
X105000000Y-58000000D02*
X105000000Y-57490000D01*
X105510000Y-58000000D02*
X105000000Y-58000000D01*
X90500000Y-67980000D02*
X90500000Y-68020000D01*
X90990000Y-68500000D02*
X91020000Y-68500000D01*
X91000000Y-68000000D02*
X91000000Y-67490000D01*
X91510000Y-68000000D02*
X91000000Y-68000000D01*
X110500000Y-51980000D02*
X110500000Y-52020000D01*
X110990000Y-52500000D02*
X111020000Y-52500000D01*
X111000000Y-52000000D02*
X111000000Y-51490000D01*
X111510000Y-52000000D02*
X111000000Y-52000000D01*
X108500000Y-53980000D02*
X108500000Y-54020000D01*
X108990000Y-54500000D02*
X109020000Y-54500000D01*
X109000000Y-54000000D02*
X109000000Y-53490000D01*
X109510000Y-54000000D02*
X109000000Y-54000000D01*
X98500000Y-59980000D02*
X98500000Y-60020000D01*
X98990000Y-60500000D02*
X99020000Y-60500000D01*
X99000000Y-60000000D02*
X99000000Y-59490000D01*
X99510000Y-60000000D02*
X99000000Y-60000000D01*
X96500000Y-51980000D02*
X96500000Y-52020000D01*
X96990000Y-52500000D02*
X97020000Y-52500000D01*
X97000000Y-52000000D02*
X97000000Y-51490000D01*
X97510000Y-52000000D02*
X97000000Y-52000000D01*
X108500000Y-51980000D02*
X108500000Y-52020000D01*
X108990000Y-52500000D02*
X109020000Y-52500000D01*
X109000000Y-52000000D02*
X109000000Y-51490000D01*
X109510000Y-52000000D02*
X109000000Y-52000000D01*
X94500000Y-65980000D02*
X94500000Y-66020000D01*
X94990000Y-66500000D02*
X95020000Y-66500000D01*
X95000000Y-66000000D02*
X95000000Y-65490000D01*
X95510000Y-66000000D02*
X95000000Y-66000000D01*
X94500000Y-57980000D02*
X94500000Y-58020000D01*
X94990000Y-58500000D02*
X95020000Y-58500000D01*
X95000000Y-58000000D02*
X95000000Y-57490000D01*
X95510000Y-58000000D02*
X95000000Y-58000000D01*
X96500000Y-55980000D02*
X96500000Y-56020000D01*
X96990000Y-56500000D02*
X97020000Y-56500000D01*
X97000000Y-56000000D02*
X97000000Y-55490000D01*
X97510000Y-56000000D02*
X97000000Y-56000000D01*
X102500000Y-57980000D02*
X102500000Y-58020000D01*
X102990000Y-58500000D02*
X103020000Y-58500000D01*
X103000000Y-58000000D02*
X103000000Y-57490000D01*
X103510000Y-58000000D02*
X103000000Y-58000000D01*
X92500000Y-53980000D02*
X92500000Y-54020000D01*
X92990000Y-54500000D02*
X93020000Y-54500000D01*
X93000000Y-54000000D02*
X93000000Y-53490000D01*
X93510000Y-54000000D02*
X93000000Y-54000000D01*
X90500000Y-61980000D02*
X90500000Y-62020000D01*
X90990000Y-62500000D02*
X91020000Y-62500000D01*
X91000000Y-62000000D02*
X91000000Y-61490000D01*
X91510000Y-62000000D02*
X91000000Y-62000000D01*
X102500000Y-53980000D02*
X102500000Y-54020000D01*
X102990000Y-54500000D02*
X103020000Y-54500000D01*
X103000000Y-54000000D02*
X103000000Y-53490000D01*
X103510000Y-54000000D02*
X103000000Y-54000000D01*
X114500000Y-57980000D02*
X114500000Y-58020000D01*
X114990000Y-58500000D02*
X115020000Y-58500000D01*
X115000000Y-58000000D02*
X115000000Y-57490000D01*
X115510000Y-58000000D02*
X115000000Y-58000000D01*
X108500000Y-59980000D02*
X108500000Y-60020000D01*
X108990000Y-60500000D02*
X109020000Y-60500000D01*
X109000000Y-60000000D02*
X109000000Y-59490000D01*
X109510000Y-60000000D02*
X109000000Y-60000000D01*
X112500000Y-63980000D02*
X112500000Y-64020000D01*
X112990000Y-64500000D02*
X113020000Y-64500000D01*
X113000000Y-64000000D02*
X113000000Y-63490000D01*
X113510000Y-64000000D02*
X113000000Y-64000000D01*
X98500000Y-63980000D02*
X98500000Y-64020000D01*
X98990000Y-64500000D02*
X99020000Y-64500000D01*
X99000000Y-64000000D02*
X99000000Y-63490000D01*
X99510000Y-64000000D02*
X99000000Y-64000000D01*
X92500000Y-59980000D02*
X92500000Y-60020000D01*
X92990000Y-60500000D02*
X93020000Y-60500000D01*
X93000000Y-60000000D02*
X93000000Y-59490000D01*
X93510000Y-60000000D02*
X93000000Y-60000000D01*
X96500000Y-59980000D02*
X96500000Y-60020000D01*
X96990000Y-60500000D02*
X97020000Y-60500000D01*
X97000000Y-60000000D02*
X97000000Y-59490000D01*
X97510000Y-60000000D02*
X97000000Y-60000000D01*
X106500000Y-65980000D02*
X106500000Y-66020000D01*
X106990000Y-66500000D02*
X107020000Y-66500000D01*
X107000000Y-66000000D02*
X107000000Y-65490000D01*
X107510000Y-66000000D02*
X107000000Y-66000000D01*
X96500000Y-65980000D02*
X96500000Y-66020000D01*
X96990000Y-66500000D02*
X97020000Y-66500000D01*
X97000000Y-66000000D02*
X97000000Y-65490000D01*
X97510000Y-66000000D02*
X97000000Y-66000000D01*
X96500000Y-63980000D02*
X96500000Y-64020000D01*
X96990000Y-64500000D02*
X97020000Y-64500000D01*
X97000000Y-64000000D02*
X97000000Y-63490000D01*
X97510000Y-64000000D02*
X97000000Y-64000000D01*
X104500000Y-53980000D02*
X104500000Y-54020000D01*
X104990000Y-54500000D02*
X105020000Y-54500000D01*
X105000000Y-54000000D02*
X105000000Y-53490000D01*
X105510000Y-54000000D02*
X105000000Y-54000000D01*
X112500000Y-51980000D02*
X112500000Y-52020000D01*
X112990000Y-52500000D02*
X113020000Y-52500000D01*
X113000000Y-52000000D02*
X113000000Y-51490000D01*
X113510000Y-52000000D02*
X113000000Y-52000000D01*
X92500000Y-55980000D02*
X92500000Y-56020000D01*
X92990000Y-56500000D02*
X93020000Y-56500000D01*
X93000000Y-56000000D02*
X93000000Y-55490000D01*
X93510000Y-56000000D02*
X93000000Y-56000000D01*
X96500000Y-61980000D02*
X96500000Y-62020000D01*
X96990000Y-62500000D02*
X97020000Y-62500000D01*
X97000000Y-62000000D02*
X97000000Y-61490000D01*
X97510000Y-62000000D02*
X97000000Y-62000000D01*
X112500000Y-67980000D02*
X112500000Y-68020000D01*
X112990000Y-68500000D02*
X113020000Y-68500000D01*
X113000000Y-68000000D02*
X113000000Y-67490000D01*
X113510000Y-68000000D02*
X113000000Y-68000000D01*
X90500000Y-57980000D02*
X90500000Y-58020000D01*
X90990000Y-58500000D02*
X91020000Y-58500000D01*
X91000000Y-58000000D02*
X91000000Y-57490000D01*
X91510000Y-58000000D02*
X91000000Y-58000000D01*
X92500000Y-67980000D02*
X92500000Y-68020000D01*
X92990000Y-68500000D02*
X93020000Y-68500000D01*
X93000000Y-68000000D02*
X93000000Y-67490000D01*
X93510000Y-68000000D02*
X93000000Y-68000000D01*
X92500000Y-57980000D02*
X92500000Y-58020000D01*
X92990000Y-58500000D02*
X93020000Y-58500000D01*
X93000000Y-58000000D02*
X93000000Y-57490000D01*
X93510000Y-58000000D02*
X93000000Y-58000000D01*
M02*
