G04 #@! TF.GenerationSoftware,KiCad,Pcbnew,9.0.1-9.0.1-0~ubuntu24.04.1*
G04 #@! TF.CreationDate,2025-05-10T10:51:42+02:00*
G04 #@! TF.ProjectId,ILM139C,494c4d31-3339-4432-9e6b-696361645f70,v0.1.0*
G04 #@! TF.SameCoordinates,Original*
G04 #@! TF.FileFunction,Copper,L3,Inr*
G04 #@! TF.FilePolarity,Positive*
%FSLAX46Y46*%
G04 Gerber Fmt 4.6, Leading zero omitted, Abs format (unit mm)*
G04 Created by KiCad (PCBNEW 9.0.1-9.0.1-0~ubuntu24.04.1) date 2025-05-10 10:51:42*
%MOMM*%
%LPD*%
G01*
G04 APERTURE LIST*
G04 #@! TA.AperFunction,ViaPad*
%ADD10C,0.250000*%
G04 #@! TD*
G04 APERTURE END LIST*
D10*
X100009500Y-68409500D03*
X106009500Y-68409500D03*
X102009500Y-51609500D03*
X98009500Y-68409500D03*
X110009500Y-51609500D03*
X112009500Y-51609500D03*
X108009500Y-51609500D03*
X98009500Y-51609500D03*
X100009500Y-51609500D03*
X94009500Y-68409500D03*
X96009500Y-68409500D03*
X94009500Y-51609500D03*
X92009500Y-51609500D03*
X104009500Y-51609500D03*
X108009500Y-68409500D03*
X114009500Y-68409500D03*
X106009500Y-51609500D03*
X114009500Y-51609500D03*
X104009500Y-68409500D03*
X112009500Y-68409500D03*
X102009500Y-68409500D03*
X110009500Y-68409500D03*
X96009500Y-51609500D03*
X92009500Y-68409500D03*
X113420000Y-51580000D03*
X103420000Y-51580000D03*
X97420000Y-51580000D03*
X107420000Y-51580000D03*
X105420000Y-51580000D03*
X109420000Y-51580000D03*
X93420000Y-51580000D03*
X115420000Y-51580000D03*
X101420000Y-51580000D03*
X91420000Y-51580000D03*
X111420000Y-51580000D03*
X95420000Y-51580000D03*
X99420000Y-51580000D03*
X105420000Y-55580000D03*
X107420000Y-55580000D03*
X93420250Y-54897002D03*
X101420000Y-55580000D03*
X103420000Y-55580000D03*
X109420000Y-55580000D03*
X111420000Y-55580000D03*
X115420000Y-55580000D03*
X113420250Y-54897002D03*
X99420000Y-55580000D03*
X97420000Y-55580000D03*
X91420250Y-54897002D03*
X95420000Y-55580000D03*
X99420000Y-59580000D03*
X111420000Y-59580000D03*
X101420000Y-59580000D03*
X103420000Y-59580000D03*
X115420000Y-59580000D03*
X91530000Y-59000000D03*
X109420000Y-59580000D03*
X95420000Y-59580000D03*
X97420000Y-59580000D03*
X93270000Y-59000000D03*
X105420000Y-59580000D03*
X107420000Y-59580000D03*
X113420000Y-59580000D03*
X107420000Y-53580000D03*
X113420000Y-53580000D03*
X103420000Y-53580000D03*
X111420000Y-53580000D03*
X93420000Y-53580000D03*
X97420000Y-53580000D03*
X99420000Y-53580000D03*
X115420000Y-53580000D03*
X91420000Y-53580000D03*
X101420000Y-53580000D03*
X95420000Y-53580000D03*
X105420000Y-53580000D03*
X109420000Y-53580000D03*
X99420000Y-63580000D03*
X91530000Y-63000000D03*
X107420000Y-63580000D03*
X93270000Y-63000000D03*
X95420000Y-63580000D03*
X111420000Y-63580000D03*
X103420000Y-63580000D03*
X115420000Y-63580000D03*
X109420000Y-63580000D03*
X113420000Y-63580000D03*
X101420000Y-63580000D03*
X97420000Y-63580000D03*
X105420000Y-63580000D03*
X97420000Y-67580000D03*
X99420000Y-67580000D03*
X111420000Y-67580000D03*
X107420000Y-67580000D03*
X95420000Y-67580000D03*
X109420000Y-67580000D03*
X93420000Y-67580000D03*
X115420000Y-67580000D03*
X91420000Y-67580000D03*
X113420000Y-67580000D03*
X105420000Y-67580000D03*
X101420000Y-67580000D03*
X103420000Y-67580000D03*
X101420000Y-57580000D03*
X107420000Y-57580000D03*
X103420000Y-57580000D03*
X113420000Y-57580000D03*
X115420000Y-57580000D03*
X97420000Y-57580000D03*
X111420000Y-57580000D03*
X105420000Y-57580000D03*
X91530000Y-57000000D03*
X99420000Y-57580000D03*
X93270000Y-57000000D03*
X109420000Y-57580000D03*
X95420000Y-57580000D03*
X99420000Y-65580000D03*
X113420000Y-65580000D03*
X97420000Y-65580000D03*
X109420000Y-65580000D03*
X107420000Y-65580000D03*
X95420000Y-65580000D03*
X101420000Y-65580000D03*
X111420000Y-65580000D03*
X93420000Y-65580000D03*
X103420000Y-65580000D03*
X91420000Y-65580000D03*
X115420000Y-65580000D03*
X105420000Y-65580000D03*
X91530000Y-61000000D03*
X105420000Y-61580000D03*
X103420000Y-61580000D03*
X109420000Y-61580000D03*
X95420000Y-61580000D03*
X101420000Y-61580000D03*
X107420000Y-61580000D03*
X111420000Y-61580000D03*
X99420000Y-61580000D03*
X97420000Y-61580000D03*
X93270000Y-61000000D03*
X115420000Y-61580000D03*
X113420000Y-61580000D03*
X90580000Y-59580000D03*
X90580000Y-58420000D03*
X91420000Y-54420000D03*
X93420000Y-52420000D03*
X92580000Y-54420000D03*
X92580000Y-57580000D03*
X95420000Y-66420000D03*
X94580000Y-62420000D03*
X94580000Y-63580000D03*
X101420000Y-64420000D03*
X100580000Y-64420000D03*
X100580000Y-57580000D03*
X99420000Y-58420000D03*
X98580000Y-58420000D03*
X98580000Y-59580000D03*
X97420000Y-60420000D03*
X96580000Y-62420000D03*
X96580000Y-63580000D03*
X107420000Y-58420000D03*
X106580000Y-60420000D03*
X106580000Y-61580000D03*
X105420000Y-62420000D03*
X104580000Y-62420000D03*
X104580000Y-61580000D03*
X103420000Y-62420000D03*
X102580000Y-62420000D03*
X102580000Y-63580000D03*
X113420000Y-56420000D03*
X112580000Y-54420000D03*
X112580000Y-53580000D03*
X111420000Y-56420000D03*
X110580000Y-56420000D03*
X110580000Y-57580000D03*
X109420000Y-58420000D03*
X108580000Y-58420000D03*
X108580000Y-59580000D03*
X115420000Y-56420000D03*
X114580000Y-52420000D03*
X114580000Y-53580000D03*
G04 #@! TA.AperFunction,Conductor*
G36*
X115986613Y-51013387D02*
G01*
X115999500Y-51044500D01*
X115999500Y-68955500D01*
X115986613Y-68986613D01*
X115955500Y-68999500D01*
X90044500Y-68999500D01*
X90013387Y-68986613D01*
X90000500Y-68955500D01*
X90000500Y-67535145D01*
X91194500Y-67535145D01*
X91194500Y-67624855D01*
X91228830Y-67707736D01*
X91292264Y-67771170D01*
X91375145Y-67805500D01*
X91375146Y-67805500D01*
X91464854Y-67805500D01*
X91464855Y-67805500D01*
X91547736Y-67771170D01*
X91611170Y-67707736D01*
X91645500Y-67624855D01*
X91645500Y-67535145D01*
X93194500Y-67535145D01*
X93194500Y-67624855D01*
X93228830Y-67707736D01*
X93292264Y-67771170D01*
X93375145Y-67805500D01*
X93375146Y-67805500D01*
X93464854Y-67805500D01*
X93464855Y-67805500D01*
X93547736Y-67771170D01*
X93611170Y-67707736D01*
X93645500Y-67624855D01*
X93645500Y-67535145D01*
X95194500Y-67535145D01*
X95194500Y-67624855D01*
X95228830Y-67707736D01*
X95292264Y-67771170D01*
X95375145Y-67805500D01*
X95375146Y-67805500D01*
X95464854Y-67805500D01*
X95464855Y-67805500D01*
X95547736Y-67771170D01*
X95611170Y-67707736D01*
X95645500Y-67624855D01*
X95645500Y-67535145D01*
X97194500Y-67535145D01*
X97194500Y-67624855D01*
X97228830Y-67707736D01*
X97292264Y-67771170D01*
X97375145Y-67805500D01*
X97375146Y-67805500D01*
X97464854Y-67805500D01*
X97464855Y-67805500D01*
X97547736Y-67771170D01*
X97611170Y-67707736D01*
X97645500Y-67624855D01*
X97645500Y-67535145D01*
X99194500Y-67535145D01*
X99194500Y-67624855D01*
X99228830Y-67707736D01*
X99292264Y-67771170D01*
X99375145Y-67805500D01*
X99375146Y-67805500D01*
X99464854Y-67805500D01*
X99464855Y-67805500D01*
X99547736Y-67771170D01*
X99611170Y-67707736D01*
X99645500Y-67624855D01*
X99645500Y-67535145D01*
X101194500Y-67535145D01*
X101194500Y-67624855D01*
X101228830Y-67707736D01*
X101292264Y-67771170D01*
X101375145Y-67805500D01*
X101375146Y-67805500D01*
X101464854Y-67805500D01*
X101464855Y-67805500D01*
X101547736Y-67771170D01*
X101611170Y-67707736D01*
X101645500Y-67624855D01*
X101645500Y-67535145D01*
X103194500Y-67535145D01*
X103194500Y-67624855D01*
X103228830Y-67707736D01*
X103292264Y-67771170D01*
X103375145Y-67805500D01*
X103375146Y-67805500D01*
X103464854Y-67805500D01*
X103464855Y-67805500D01*
X103547736Y-67771170D01*
X103611170Y-67707736D01*
X103645500Y-67624855D01*
X103645500Y-67535145D01*
X105194500Y-67535145D01*
X105194500Y-67624855D01*
X105228830Y-67707736D01*
X105292264Y-67771170D01*
X105375145Y-67805500D01*
X105375146Y-67805500D01*
X105464854Y-67805500D01*
X105464855Y-67805500D01*
X105547736Y-67771170D01*
X105611170Y-67707736D01*
X105645500Y-67624855D01*
X105645500Y-67535145D01*
X107194500Y-67535145D01*
X107194500Y-67624855D01*
X107228830Y-67707736D01*
X107292264Y-67771170D01*
X107375145Y-67805500D01*
X107375146Y-67805500D01*
X107464854Y-67805500D01*
X107464855Y-67805500D01*
X107547736Y-67771170D01*
X107611170Y-67707736D01*
X107645500Y-67624855D01*
X107645500Y-67535145D01*
X109194500Y-67535145D01*
X109194500Y-67624855D01*
X109228830Y-67707736D01*
X109292264Y-67771170D01*
X109375145Y-67805500D01*
X109375146Y-67805500D01*
X109464854Y-67805500D01*
X109464855Y-67805500D01*
X109547736Y-67771170D01*
X109611170Y-67707736D01*
X109645500Y-67624855D01*
X109645500Y-67535145D01*
X111194500Y-67535145D01*
X111194500Y-67624855D01*
X111228830Y-67707736D01*
X111292264Y-67771170D01*
X111375145Y-67805500D01*
X111375146Y-67805500D01*
X111464854Y-67805500D01*
X111464855Y-67805500D01*
X111547736Y-67771170D01*
X111611170Y-67707736D01*
X111645500Y-67624855D01*
X111645500Y-67535145D01*
X113194500Y-67535145D01*
X113194500Y-67624855D01*
X113228830Y-67707736D01*
X113292264Y-67771170D01*
X113375145Y-67805500D01*
X113375146Y-67805500D01*
X113464854Y-67805500D01*
X113464855Y-67805500D01*
X113547736Y-67771170D01*
X113611170Y-67707736D01*
X113645500Y-67624855D01*
X113645500Y-67535145D01*
X115194500Y-67535145D01*
X115194500Y-67624855D01*
X115228830Y-67707736D01*
X115292264Y-67771170D01*
X115375145Y-67805500D01*
X115375146Y-67805500D01*
X115464854Y-67805500D01*
X115464855Y-67805500D01*
X115547736Y-67771170D01*
X115611170Y-67707736D01*
X115645500Y-67624855D01*
X115645500Y-67535145D01*
X115611170Y-67452264D01*
X115547736Y-67388830D01*
X115464855Y-67354500D01*
X115375145Y-67354500D01*
X115292264Y-67388830D01*
X115228830Y-67452264D01*
X115194500Y-67535145D01*
X113645500Y-67535145D01*
X113611170Y-67452264D01*
X113547736Y-67388830D01*
X113464855Y-67354500D01*
X113375145Y-67354500D01*
X113292264Y-67388830D01*
X113228830Y-67452264D01*
X113194500Y-67535145D01*
X111645500Y-67535145D01*
X111611170Y-67452264D01*
X111547736Y-67388830D01*
X111464855Y-67354500D01*
X111375145Y-67354500D01*
X111292264Y-67388830D01*
X111228830Y-67452264D01*
X111194500Y-67535145D01*
X109645500Y-67535145D01*
X109611170Y-67452264D01*
X109547736Y-67388830D01*
X109464855Y-67354500D01*
X109375145Y-67354500D01*
X109292264Y-67388830D01*
X109228830Y-67452264D01*
X109194500Y-67535145D01*
X107645500Y-67535145D01*
X107611170Y-67452264D01*
X107547736Y-67388830D01*
X107464855Y-67354500D01*
X107375145Y-67354500D01*
X107292264Y-67388830D01*
X107228830Y-67452264D01*
X107194500Y-67535145D01*
X105645500Y-67535145D01*
X105611170Y-67452264D01*
X105547736Y-67388830D01*
X105464855Y-67354500D01*
X105375145Y-67354500D01*
X105292264Y-67388830D01*
X105228830Y-67452264D01*
X105194500Y-67535145D01*
X103645500Y-67535145D01*
X103611170Y-67452264D01*
X103547736Y-67388830D01*
X103464855Y-67354500D01*
X103375145Y-67354500D01*
X103292264Y-67388830D01*
X103228830Y-67452264D01*
X103194500Y-67535145D01*
X101645500Y-67535145D01*
X101611170Y-67452264D01*
X101547736Y-67388830D01*
X101464855Y-67354500D01*
X101375145Y-67354500D01*
X101292264Y-67388830D01*
X101228830Y-67452264D01*
X101194500Y-67535145D01*
X99645500Y-67535145D01*
X99611170Y-67452264D01*
X99547736Y-67388830D01*
X99464855Y-67354500D01*
X99375145Y-67354500D01*
X99292264Y-67388830D01*
X99228830Y-67452264D01*
X99194500Y-67535145D01*
X97645500Y-67535145D01*
X97611170Y-67452264D01*
X97547736Y-67388830D01*
X97464855Y-67354500D01*
X97375145Y-67354500D01*
X97292264Y-67388830D01*
X97228830Y-67452264D01*
X97194500Y-67535145D01*
X95645500Y-67535145D01*
X95611170Y-67452264D01*
X95547736Y-67388830D01*
X95464855Y-67354500D01*
X95375145Y-67354500D01*
X95292264Y-67388830D01*
X95228830Y-67452264D01*
X95194500Y-67535145D01*
X93645500Y-67535145D01*
X93611170Y-67452264D01*
X93547736Y-67388830D01*
X93464855Y-67354500D01*
X93375145Y-67354500D01*
X93292264Y-67388830D01*
X93228830Y-67452264D01*
X93194500Y-67535145D01*
X91645500Y-67535145D01*
X91611170Y-67452264D01*
X91547736Y-67388830D01*
X91464855Y-67354500D01*
X91375145Y-67354500D01*
X91292264Y-67388830D01*
X91228830Y-67452264D01*
X91194500Y-67535145D01*
X90000500Y-67535145D01*
X90000500Y-66375145D01*
X95194500Y-66375145D01*
X95194500Y-66464855D01*
X95228830Y-66547736D01*
X95292264Y-66611170D01*
X95375145Y-66645500D01*
X95375146Y-66645500D01*
X95464854Y-66645500D01*
X95464855Y-66645500D01*
X95547736Y-66611170D01*
X95611170Y-66547736D01*
X95645500Y-66464855D01*
X95645500Y-66375145D01*
X95611170Y-66292264D01*
X95547736Y-66228830D01*
X95464855Y-66194500D01*
X95375145Y-66194500D01*
X95292264Y-66228830D01*
X95228830Y-66292264D01*
X95194500Y-66375145D01*
X90000500Y-66375145D01*
X90000500Y-65535145D01*
X91194500Y-65535145D01*
X91194500Y-65624855D01*
X91228830Y-65707736D01*
X91292264Y-65771170D01*
X91375145Y-65805500D01*
X91375146Y-65805500D01*
X91464854Y-65805500D01*
X91464855Y-65805500D01*
X91547736Y-65771170D01*
X91611170Y-65707736D01*
X91645500Y-65624855D01*
X91645500Y-65535145D01*
X93194500Y-65535145D01*
X93194500Y-65624855D01*
X93228830Y-65707736D01*
X93292264Y-65771170D01*
X93375145Y-65805500D01*
X93375146Y-65805500D01*
X93464854Y-65805500D01*
X93464855Y-65805500D01*
X93547736Y-65771170D01*
X93611170Y-65707736D01*
X93645500Y-65624855D01*
X93645500Y-65535145D01*
X95194500Y-65535145D01*
X95194500Y-65624855D01*
X95228830Y-65707736D01*
X95292264Y-65771170D01*
X95375145Y-65805500D01*
X95375146Y-65805500D01*
X95464854Y-65805500D01*
X95464855Y-65805500D01*
X95547736Y-65771170D01*
X95611170Y-65707736D01*
X95645500Y-65624855D01*
X95645500Y-65535145D01*
X97194500Y-65535145D01*
X97194500Y-65624855D01*
X97228830Y-65707736D01*
X97292264Y-65771170D01*
X97375145Y-65805500D01*
X97375146Y-65805500D01*
X97464854Y-65805500D01*
X97464855Y-65805500D01*
X97547736Y-65771170D01*
X97611170Y-65707736D01*
X97645500Y-65624855D01*
X97645500Y-65535145D01*
X99194500Y-65535145D01*
X99194500Y-65624855D01*
X99228830Y-65707736D01*
X99292264Y-65771170D01*
X99375145Y-65805500D01*
X99375146Y-65805500D01*
X99464854Y-65805500D01*
X99464855Y-65805500D01*
X99547736Y-65771170D01*
X99611170Y-65707736D01*
X99645500Y-65624855D01*
X99645500Y-65535145D01*
X101194500Y-65535145D01*
X101194500Y-65624855D01*
X101228830Y-65707736D01*
X101292264Y-65771170D01*
X101375145Y-65805500D01*
X101375146Y-65805500D01*
X101464854Y-65805500D01*
X101464855Y-65805500D01*
X101547736Y-65771170D01*
X101611170Y-65707736D01*
X101645500Y-65624855D01*
X101645500Y-65535145D01*
X103194500Y-65535145D01*
X103194500Y-65624855D01*
X103228830Y-65707736D01*
X103292264Y-65771170D01*
X103375145Y-65805500D01*
X103375146Y-65805500D01*
X103464854Y-65805500D01*
X103464855Y-65805500D01*
X103547736Y-65771170D01*
X103611170Y-65707736D01*
X103645500Y-65624855D01*
X103645500Y-65535145D01*
X105194500Y-65535145D01*
X105194500Y-65624855D01*
X105228830Y-65707736D01*
X105292264Y-65771170D01*
X105375145Y-65805500D01*
X105375146Y-65805500D01*
X105464854Y-65805500D01*
X105464855Y-65805500D01*
X105547736Y-65771170D01*
X105611170Y-65707736D01*
X105645500Y-65624855D01*
X105645500Y-65535145D01*
X107194500Y-65535145D01*
X107194500Y-65624855D01*
X107228830Y-65707736D01*
X107292264Y-65771170D01*
X107375145Y-65805500D01*
X107375146Y-65805500D01*
X107464854Y-65805500D01*
X107464855Y-65805500D01*
X107547736Y-65771170D01*
X107611170Y-65707736D01*
X107645500Y-65624855D01*
X107645500Y-65535145D01*
X109194500Y-65535145D01*
X109194500Y-65624855D01*
X109228830Y-65707736D01*
X109292264Y-65771170D01*
X109375145Y-65805500D01*
X109375146Y-65805500D01*
X109464854Y-65805500D01*
X109464855Y-65805500D01*
X109547736Y-65771170D01*
X109611170Y-65707736D01*
X109645500Y-65624855D01*
X109645500Y-65535145D01*
X111194500Y-65535145D01*
X111194500Y-65624855D01*
X111228830Y-65707736D01*
X111292264Y-65771170D01*
X111375145Y-65805500D01*
X111375146Y-65805500D01*
X111464854Y-65805500D01*
X111464855Y-65805500D01*
X111547736Y-65771170D01*
X111611170Y-65707736D01*
X111645500Y-65624855D01*
X111645500Y-65535145D01*
X113194500Y-65535145D01*
X113194500Y-65624855D01*
X113228830Y-65707736D01*
X113292264Y-65771170D01*
X113375145Y-65805500D01*
X113375146Y-65805500D01*
X113464854Y-65805500D01*
X113464855Y-65805500D01*
X113547736Y-65771170D01*
X113611170Y-65707736D01*
X113645500Y-65624855D01*
X113645500Y-65535145D01*
X115194500Y-65535145D01*
X115194500Y-65624855D01*
X115228830Y-65707736D01*
X115292264Y-65771170D01*
X115375145Y-65805500D01*
X115375146Y-65805500D01*
X115464854Y-65805500D01*
X115464855Y-65805500D01*
X115547736Y-65771170D01*
X115611170Y-65707736D01*
X115645500Y-65624855D01*
X115645500Y-65535145D01*
X115611170Y-65452264D01*
X115547736Y-65388830D01*
X115464855Y-65354500D01*
X115375145Y-65354500D01*
X115292264Y-65388830D01*
X115228830Y-65452264D01*
X115194500Y-65535145D01*
X113645500Y-65535145D01*
X113611170Y-65452264D01*
X113547736Y-65388830D01*
X113464855Y-65354500D01*
X113375145Y-65354500D01*
X113292264Y-65388830D01*
X113228830Y-65452264D01*
X113194500Y-65535145D01*
X111645500Y-65535145D01*
X111611170Y-65452264D01*
X111547736Y-65388830D01*
X111464855Y-65354500D01*
X111375145Y-65354500D01*
X111292264Y-65388830D01*
X111228830Y-65452264D01*
X111194500Y-65535145D01*
X109645500Y-65535145D01*
X109611170Y-65452264D01*
X109547736Y-65388830D01*
X109464855Y-65354500D01*
X109375145Y-65354500D01*
X109292264Y-65388830D01*
X109228830Y-65452264D01*
X109194500Y-65535145D01*
X107645500Y-65535145D01*
X107611170Y-65452264D01*
X107547736Y-65388830D01*
X107464855Y-65354500D01*
X107375145Y-65354500D01*
X107292264Y-65388830D01*
X107228830Y-65452264D01*
X107194500Y-65535145D01*
X105645500Y-65535145D01*
X105611170Y-65452264D01*
X105547736Y-65388830D01*
X105464855Y-65354500D01*
X105375145Y-65354500D01*
X105292264Y-65388830D01*
X105228830Y-65452264D01*
X105194500Y-65535145D01*
X103645500Y-65535145D01*
X103611170Y-65452264D01*
X103547736Y-65388830D01*
X103464855Y-65354500D01*
X103375145Y-65354500D01*
X103292264Y-65388830D01*
X103228830Y-65452264D01*
X103194500Y-65535145D01*
X101645500Y-65535145D01*
X101611170Y-65452264D01*
X101547736Y-65388830D01*
X101464855Y-65354500D01*
X101375145Y-65354500D01*
X101292264Y-65388830D01*
X101228830Y-65452264D01*
X101194500Y-65535145D01*
X99645500Y-65535145D01*
X99611170Y-65452264D01*
X99547736Y-65388830D01*
X99464855Y-65354500D01*
X99375145Y-65354500D01*
X99292264Y-65388830D01*
X99228830Y-65452264D01*
X99194500Y-65535145D01*
X97645500Y-65535145D01*
X97611170Y-65452264D01*
X97547736Y-65388830D01*
X97464855Y-65354500D01*
X97375145Y-65354500D01*
X97292264Y-65388830D01*
X97228830Y-65452264D01*
X97194500Y-65535145D01*
X95645500Y-65535145D01*
X95611170Y-65452264D01*
X95547736Y-65388830D01*
X95464855Y-65354500D01*
X95375145Y-65354500D01*
X95292264Y-65388830D01*
X95228830Y-65452264D01*
X95194500Y-65535145D01*
X93645500Y-65535145D01*
X93611170Y-65452264D01*
X93547736Y-65388830D01*
X93464855Y-65354500D01*
X93375145Y-65354500D01*
X93292264Y-65388830D01*
X93228830Y-65452264D01*
X93194500Y-65535145D01*
X91645500Y-65535145D01*
X91611170Y-65452264D01*
X91547736Y-65388830D01*
X91464855Y-65354500D01*
X91375145Y-65354500D01*
X91292264Y-65388830D01*
X91228830Y-65452264D01*
X91194500Y-65535145D01*
X90000500Y-65535145D01*
X90000500Y-64375145D01*
X100354500Y-64375145D01*
X100354500Y-64464855D01*
X100388830Y-64547736D01*
X100452264Y-64611170D01*
X100535145Y-64645500D01*
X100535146Y-64645500D01*
X100624854Y-64645500D01*
X100624855Y-64645500D01*
X100707736Y-64611170D01*
X100771170Y-64547736D01*
X100805500Y-64464855D01*
X100805500Y-64375145D01*
X101194500Y-64375145D01*
X101194500Y-64464855D01*
X101228830Y-64547736D01*
X101292264Y-64611170D01*
X101375145Y-64645500D01*
X101375146Y-64645500D01*
X101464854Y-64645500D01*
X101464855Y-64645500D01*
X101547736Y-64611170D01*
X101611170Y-64547736D01*
X101645500Y-64464855D01*
X101645500Y-64375145D01*
X101611170Y-64292264D01*
X101547736Y-64228830D01*
X101464855Y-64194500D01*
X101375145Y-64194500D01*
X101292264Y-64228830D01*
X101228830Y-64292264D01*
X101194500Y-64375145D01*
X100805500Y-64375145D01*
X100771170Y-64292264D01*
X100707736Y-64228830D01*
X100624855Y-64194500D01*
X100535145Y-64194500D01*
X100452264Y-64228830D01*
X100388830Y-64292264D01*
X100354500Y-64375145D01*
X90000500Y-64375145D01*
X90000500Y-63535145D01*
X94354500Y-63535145D01*
X94354500Y-63624855D01*
X94388830Y-63707736D01*
X94452264Y-63771170D01*
X94535145Y-63805500D01*
X94535146Y-63805500D01*
X94624854Y-63805500D01*
X94624855Y-63805500D01*
X94707736Y-63771170D01*
X94771170Y-63707736D01*
X94805500Y-63624855D01*
X94805500Y-63535145D01*
X95194500Y-63535145D01*
X95194500Y-63624855D01*
X95228830Y-63707736D01*
X95292264Y-63771170D01*
X95375145Y-63805500D01*
X95375146Y-63805500D01*
X95464854Y-63805500D01*
X95464855Y-63805500D01*
X95547736Y-63771170D01*
X95611170Y-63707736D01*
X95645500Y-63624855D01*
X95645500Y-63535145D01*
X96354500Y-63535145D01*
X96354500Y-63624855D01*
X96388830Y-63707736D01*
X96452264Y-63771170D01*
X96535145Y-63805500D01*
X96535146Y-63805500D01*
X96624854Y-63805500D01*
X96624855Y-63805500D01*
X96707736Y-63771170D01*
X96771170Y-63707736D01*
X96805500Y-63624855D01*
X96805500Y-63535145D01*
X97194500Y-63535145D01*
X97194500Y-63624855D01*
X97228830Y-63707736D01*
X97292264Y-63771170D01*
X97375145Y-63805500D01*
X97375146Y-63805500D01*
X97464854Y-63805500D01*
X97464855Y-63805500D01*
X97547736Y-63771170D01*
X97611170Y-63707736D01*
X97645500Y-63624855D01*
X97645500Y-63535145D01*
X99194500Y-63535145D01*
X99194500Y-63624855D01*
X99228830Y-63707736D01*
X99292264Y-63771170D01*
X99375145Y-63805500D01*
X99375146Y-63805500D01*
X99464854Y-63805500D01*
X99464855Y-63805500D01*
X99547736Y-63771170D01*
X99611170Y-63707736D01*
X99645500Y-63624855D01*
X99645500Y-63535145D01*
X101194500Y-63535145D01*
X101194500Y-63624855D01*
X101228830Y-63707736D01*
X101292264Y-63771170D01*
X101375145Y-63805500D01*
X101375146Y-63805500D01*
X101464854Y-63805500D01*
X101464855Y-63805500D01*
X101547736Y-63771170D01*
X101611170Y-63707736D01*
X101645500Y-63624855D01*
X101645500Y-63535145D01*
X102354500Y-63535145D01*
X102354500Y-63624855D01*
X102388830Y-63707736D01*
X102452264Y-63771170D01*
X102535145Y-63805500D01*
X102535146Y-63805500D01*
X102624854Y-63805500D01*
X102624855Y-63805500D01*
X102707736Y-63771170D01*
X102771170Y-63707736D01*
X102805500Y-63624855D01*
X102805500Y-63535145D01*
X103194500Y-63535145D01*
X103194500Y-63624855D01*
X103228830Y-63707736D01*
X103292264Y-63771170D01*
X103375145Y-63805500D01*
X103375146Y-63805500D01*
X103464854Y-63805500D01*
X103464855Y-63805500D01*
X103547736Y-63771170D01*
X103611170Y-63707736D01*
X103645500Y-63624855D01*
X103645500Y-63535145D01*
X105194500Y-63535145D01*
X105194500Y-63624855D01*
X105228830Y-63707736D01*
X105292264Y-63771170D01*
X105375145Y-63805500D01*
X105375146Y-63805500D01*
X105464854Y-63805500D01*
X105464855Y-63805500D01*
X105547736Y-63771170D01*
X105611170Y-63707736D01*
X105645500Y-63624855D01*
X105645500Y-63535145D01*
X107194500Y-63535145D01*
X107194500Y-63624855D01*
X107228830Y-63707736D01*
X107292264Y-63771170D01*
X107375145Y-63805500D01*
X107375146Y-63805500D01*
X107464854Y-63805500D01*
X107464855Y-63805500D01*
X107547736Y-63771170D01*
X107611170Y-63707736D01*
X107645500Y-63624855D01*
X107645500Y-63535145D01*
X109194500Y-63535145D01*
X109194500Y-63624855D01*
X109228830Y-63707736D01*
X109292264Y-63771170D01*
X109375145Y-63805500D01*
X109375146Y-63805500D01*
X109464854Y-63805500D01*
X109464855Y-63805500D01*
X109547736Y-63771170D01*
X109611170Y-63707736D01*
X109645500Y-63624855D01*
X109645500Y-63535145D01*
X111194500Y-63535145D01*
X111194500Y-63624855D01*
X111228830Y-63707736D01*
X111292264Y-63771170D01*
X111375145Y-63805500D01*
X111375146Y-63805500D01*
X111464854Y-63805500D01*
X111464855Y-63805500D01*
X111547736Y-63771170D01*
X111611170Y-63707736D01*
X111645500Y-63624855D01*
X111645500Y-63535145D01*
X113194500Y-63535145D01*
X113194500Y-63624855D01*
X113228830Y-63707736D01*
X113292264Y-63771170D01*
X113375145Y-63805500D01*
X113375146Y-63805500D01*
X113464854Y-63805500D01*
X113464855Y-63805500D01*
X113547736Y-63771170D01*
X113611170Y-63707736D01*
X113645500Y-63624855D01*
X113645500Y-63535145D01*
X115194500Y-63535145D01*
X115194500Y-63624855D01*
X115228830Y-63707736D01*
X115292264Y-63771170D01*
X115375145Y-63805500D01*
X115375146Y-63805500D01*
X115464854Y-63805500D01*
X115464855Y-63805500D01*
X115547736Y-63771170D01*
X115611170Y-63707736D01*
X115645500Y-63624855D01*
X115645500Y-63535145D01*
X115611170Y-63452264D01*
X115547736Y-63388830D01*
X115464855Y-63354500D01*
X115375145Y-63354500D01*
X115292264Y-63388830D01*
X115228830Y-63452264D01*
X115194500Y-63535145D01*
X113645500Y-63535145D01*
X113611170Y-63452264D01*
X113547736Y-63388830D01*
X113464855Y-63354500D01*
X113375145Y-63354500D01*
X113292264Y-63388830D01*
X113228830Y-63452264D01*
X113194500Y-63535145D01*
X111645500Y-63535145D01*
X111611170Y-63452264D01*
X111547736Y-63388830D01*
X111464855Y-63354500D01*
X111375145Y-63354500D01*
X111292264Y-63388830D01*
X111228830Y-63452264D01*
X111194500Y-63535145D01*
X109645500Y-63535145D01*
X109611170Y-63452264D01*
X109547736Y-63388830D01*
X109464855Y-63354500D01*
X109375145Y-63354500D01*
X109292264Y-63388830D01*
X109228830Y-63452264D01*
X109194500Y-63535145D01*
X107645500Y-63535145D01*
X107611170Y-63452264D01*
X107547736Y-63388830D01*
X107464855Y-63354500D01*
X107375145Y-63354500D01*
X107292264Y-63388830D01*
X107228830Y-63452264D01*
X107194500Y-63535145D01*
X105645500Y-63535145D01*
X105611170Y-63452264D01*
X105547736Y-63388830D01*
X105464855Y-63354500D01*
X105375145Y-63354500D01*
X105292264Y-63388830D01*
X105228830Y-63452264D01*
X105194500Y-63535145D01*
X103645500Y-63535145D01*
X103611170Y-63452264D01*
X103547736Y-63388830D01*
X103464855Y-63354500D01*
X103375145Y-63354500D01*
X103292264Y-63388830D01*
X103228830Y-63452264D01*
X103194500Y-63535145D01*
X102805500Y-63535145D01*
X102771170Y-63452264D01*
X102707736Y-63388830D01*
X102624855Y-63354500D01*
X102535145Y-63354500D01*
X102452264Y-63388830D01*
X102388830Y-63452264D01*
X102354500Y-63535145D01*
X101645500Y-63535145D01*
X101611170Y-63452264D01*
X101547736Y-63388830D01*
X101464855Y-63354500D01*
X101375145Y-63354500D01*
X101292264Y-63388830D01*
X101228830Y-63452264D01*
X101194500Y-63535145D01*
X99645500Y-63535145D01*
X99611170Y-63452264D01*
X99547736Y-63388830D01*
X99464855Y-63354500D01*
X99375145Y-63354500D01*
X99292264Y-63388830D01*
X99228830Y-63452264D01*
X99194500Y-63535145D01*
X97645500Y-63535145D01*
X97611170Y-63452264D01*
X97547736Y-63388830D01*
X97464855Y-63354500D01*
X97375145Y-63354500D01*
X97292264Y-63388830D01*
X97228830Y-63452264D01*
X97194500Y-63535145D01*
X96805500Y-63535145D01*
X96771170Y-63452264D01*
X96707736Y-63388830D01*
X96624855Y-63354500D01*
X96535145Y-63354500D01*
X96452264Y-63388830D01*
X96388830Y-63452264D01*
X96354500Y-63535145D01*
X95645500Y-63535145D01*
X95611170Y-63452264D01*
X95547736Y-63388830D01*
X95464855Y-63354500D01*
X95375145Y-63354500D01*
X95292264Y-63388830D01*
X95228830Y-63452264D01*
X95194500Y-63535145D01*
X94805500Y-63535145D01*
X94771170Y-63452264D01*
X94707736Y-63388830D01*
X94624855Y-63354500D01*
X94535145Y-63354500D01*
X94452264Y-63388830D01*
X94388830Y-63452264D01*
X94354500Y-63535145D01*
X90000500Y-63535145D01*
X90000500Y-62955145D01*
X91304500Y-62955145D01*
X91304500Y-63044855D01*
X91338830Y-63127736D01*
X91402264Y-63191170D01*
X91485145Y-63225500D01*
X91485146Y-63225500D01*
X91574854Y-63225500D01*
X91574855Y-63225500D01*
X91657736Y-63191170D01*
X91721170Y-63127736D01*
X91755500Y-63044855D01*
X91755500Y-62955145D01*
X93044500Y-62955145D01*
X93044500Y-63044855D01*
X93078830Y-63127736D01*
X93142264Y-63191170D01*
X93225145Y-63225500D01*
X93225146Y-63225500D01*
X93314854Y-63225500D01*
X93314855Y-63225500D01*
X93397736Y-63191170D01*
X93461170Y-63127736D01*
X93495500Y-63044855D01*
X93495500Y-62955145D01*
X93461170Y-62872264D01*
X93397736Y-62808830D01*
X93314855Y-62774500D01*
X93225145Y-62774500D01*
X93142264Y-62808830D01*
X93078830Y-62872264D01*
X93044500Y-62955145D01*
X91755500Y-62955145D01*
X91721170Y-62872264D01*
X91657736Y-62808830D01*
X91574855Y-62774500D01*
X91485145Y-62774500D01*
X91402264Y-62808830D01*
X91338830Y-62872264D01*
X91304500Y-62955145D01*
X90000500Y-62955145D01*
X90000500Y-62375145D01*
X94354500Y-62375145D01*
X94354500Y-62464855D01*
X94388830Y-62547736D01*
X94452264Y-62611170D01*
X94535145Y-62645500D01*
X94535146Y-62645500D01*
X94624854Y-62645500D01*
X94624855Y-62645500D01*
X94707736Y-62611170D01*
X94771170Y-62547736D01*
X94805500Y-62464855D01*
X94805500Y-62375145D01*
X96354500Y-62375145D01*
X96354500Y-62464855D01*
X96388830Y-62547736D01*
X96452264Y-62611170D01*
X96535145Y-62645500D01*
X96535146Y-62645500D01*
X96624854Y-62645500D01*
X96624855Y-62645500D01*
X96707736Y-62611170D01*
X96771170Y-62547736D01*
X96805500Y-62464855D01*
X96805500Y-62375145D01*
X102354500Y-62375145D01*
X102354500Y-62464855D01*
X102388830Y-62547736D01*
X102452264Y-62611170D01*
X102535145Y-62645500D01*
X102535146Y-62645500D01*
X102624854Y-62645500D01*
X102624855Y-62645500D01*
X102707736Y-62611170D01*
X102771170Y-62547736D01*
X102805500Y-62464855D01*
X102805500Y-62375145D01*
X103194500Y-62375145D01*
X103194500Y-62464855D01*
X103228830Y-62547736D01*
X103292264Y-62611170D01*
X103375145Y-62645500D01*
X103375146Y-62645500D01*
X103464854Y-62645500D01*
X103464855Y-62645500D01*
X103547736Y-62611170D01*
X103611170Y-62547736D01*
X103645500Y-62464855D01*
X103645500Y-62375145D01*
X104354500Y-62375145D01*
X104354500Y-62464855D01*
X104388830Y-62547736D01*
X104452264Y-62611170D01*
X104535145Y-62645500D01*
X104535146Y-62645500D01*
X104624854Y-62645500D01*
X104624855Y-62645500D01*
X104707736Y-62611170D01*
X104771170Y-62547736D01*
X104805500Y-62464855D01*
X104805500Y-62375145D01*
X105194500Y-62375145D01*
X105194500Y-62464855D01*
X105228830Y-62547736D01*
X105292264Y-62611170D01*
X105375145Y-62645500D01*
X105375146Y-62645500D01*
X105464854Y-62645500D01*
X105464855Y-62645500D01*
X105547736Y-62611170D01*
X105611170Y-62547736D01*
X105645500Y-62464855D01*
X105645500Y-62375145D01*
X105611170Y-62292264D01*
X105547736Y-62228830D01*
X105464855Y-62194500D01*
X105375145Y-62194500D01*
X105292264Y-62228830D01*
X105228830Y-62292264D01*
X105194500Y-62375145D01*
X104805500Y-62375145D01*
X104771170Y-62292264D01*
X104707736Y-62228830D01*
X104624855Y-62194500D01*
X104535145Y-62194500D01*
X104452264Y-62228830D01*
X104388830Y-62292264D01*
X104354500Y-62375145D01*
X103645500Y-62375145D01*
X103611170Y-62292264D01*
X103547736Y-62228830D01*
X103464855Y-62194500D01*
X103375145Y-62194500D01*
X103292264Y-62228830D01*
X103228830Y-62292264D01*
X103194500Y-62375145D01*
X102805500Y-62375145D01*
X102771170Y-62292264D01*
X102707736Y-62228830D01*
X102624855Y-62194500D01*
X102535145Y-62194500D01*
X102452264Y-62228830D01*
X102388830Y-62292264D01*
X102354500Y-62375145D01*
X96805500Y-62375145D01*
X96771170Y-62292264D01*
X96707736Y-62228830D01*
X96624855Y-62194500D01*
X96535145Y-62194500D01*
X96452264Y-62228830D01*
X96388830Y-62292264D01*
X96354500Y-62375145D01*
X94805500Y-62375145D01*
X94771170Y-62292264D01*
X94707736Y-62228830D01*
X94624855Y-62194500D01*
X94535145Y-62194500D01*
X94452264Y-62228830D01*
X94388830Y-62292264D01*
X94354500Y-62375145D01*
X90000500Y-62375145D01*
X90000500Y-61535145D01*
X95194500Y-61535145D01*
X95194500Y-61624855D01*
X95228830Y-61707736D01*
X95292264Y-61771170D01*
X95375145Y-61805500D01*
X95375146Y-61805500D01*
X95464854Y-61805500D01*
X95464855Y-61805500D01*
X95547736Y-61771170D01*
X95611170Y-61707736D01*
X95645500Y-61624855D01*
X95645500Y-61535145D01*
X97194500Y-61535145D01*
X97194500Y-61624855D01*
X97228830Y-61707736D01*
X97292264Y-61771170D01*
X97375145Y-61805500D01*
X97375146Y-61805500D01*
X97464854Y-61805500D01*
X97464855Y-61805500D01*
X97547736Y-61771170D01*
X97611170Y-61707736D01*
X97645500Y-61624855D01*
X97645500Y-61535145D01*
X99194500Y-61535145D01*
X99194500Y-61624855D01*
X99228830Y-61707736D01*
X99292264Y-61771170D01*
X99375145Y-61805500D01*
X99375146Y-61805500D01*
X99464854Y-61805500D01*
X99464855Y-61805500D01*
X99547736Y-61771170D01*
X99611170Y-61707736D01*
X99645500Y-61624855D01*
X99645500Y-61535145D01*
X101194500Y-61535145D01*
X101194500Y-61624855D01*
X101228830Y-61707736D01*
X101292264Y-61771170D01*
X101375145Y-61805500D01*
X101375146Y-61805500D01*
X101464854Y-61805500D01*
X101464855Y-61805500D01*
X101547736Y-61771170D01*
X101611170Y-61707736D01*
X101645500Y-61624855D01*
X101645500Y-61535145D01*
X103194500Y-61535145D01*
X103194500Y-61624855D01*
X103228830Y-61707736D01*
X103292264Y-61771170D01*
X103375145Y-61805500D01*
X103375146Y-61805500D01*
X103464854Y-61805500D01*
X103464855Y-61805500D01*
X103547736Y-61771170D01*
X103611170Y-61707736D01*
X103645500Y-61624855D01*
X103645500Y-61535145D01*
X104354500Y-61535145D01*
X104354500Y-61624855D01*
X104388830Y-61707736D01*
X104452264Y-61771170D01*
X104535145Y-61805500D01*
X104535146Y-61805500D01*
X104624854Y-61805500D01*
X104624855Y-61805500D01*
X104707736Y-61771170D01*
X104771170Y-61707736D01*
X104805500Y-61624855D01*
X104805500Y-61535145D01*
X105194500Y-61535145D01*
X105194500Y-61624855D01*
X105228830Y-61707736D01*
X105292264Y-61771170D01*
X105375145Y-61805500D01*
X105375146Y-61805500D01*
X105464854Y-61805500D01*
X105464855Y-61805500D01*
X105547736Y-61771170D01*
X105611170Y-61707736D01*
X105645500Y-61624855D01*
X105645500Y-61535145D01*
X106354500Y-61535145D01*
X106354500Y-61624855D01*
X106388830Y-61707736D01*
X106452264Y-61771170D01*
X106535145Y-61805500D01*
X106535146Y-61805500D01*
X106624854Y-61805500D01*
X106624855Y-61805500D01*
X106707736Y-61771170D01*
X106771170Y-61707736D01*
X106805500Y-61624855D01*
X106805500Y-61535145D01*
X107194500Y-61535145D01*
X107194500Y-61624855D01*
X107228830Y-61707736D01*
X107292264Y-61771170D01*
X107375145Y-61805500D01*
X107375146Y-61805500D01*
X107464854Y-61805500D01*
X107464855Y-61805500D01*
X107547736Y-61771170D01*
X107611170Y-61707736D01*
X107645500Y-61624855D01*
X107645500Y-61535145D01*
X109194500Y-61535145D01*
X109194500Y-61624855D01*
X109228830Y-61707736D01*
X109292264Y-61771170D01*
X109375145Y-61805500D01*
X109375146Y-61805500D01*
X109464854Y-61805500D01*
X109464855Y-61805500D01*
X109547736Y-61771170D01*
X109611170Y-61707736D01*
X109645500Y-61624855D01*
X109645500Y-61535145D01*
X111194500Y-61535145D01*
X111194500Y-61624855D01*
X111228830Y-61707736D01*
X111292264Y-61771170D01*
X111375145Y-61805500D01*
X111375146Y-61805500D01*
X111464854Y-61805500D01*
X111464855Y-61805500D01*
X111547736Y-61771170D01*
X111611170Y-61707736D01*
X111645500Y-61624855D01*
X111645500Y-61535145D01*
X113194500Y-61535145D01*
X113194500Y-61624855D01*
X113228830Y-61707736D01*
X113292264Y-61771170D01*
X113375145Y-61805500D01*
X113375146Y-61805500D01*
X113464854Y-61805500D01*
X113464855Y-61805500D01*
X113547736Y-61771170D01*
X113611170Y-61707736D01*
X113645500Y-61624855D01*
X113645500Y-61535145D01*
X115194500Y-61535145D01*
X115194500Y-61624855D01*
X115228830Y-61707736D01*
X115292264Y-61771170D01*
X115375145Y-61805500D01*
X115375146Y-61805500D01*
X115464854Y-61805500D01*
X115464855Y-61805500D01*
X115547736Y-61771170D01*
X115611170Y-61707736D01*
X115645500Y-61624855D01*
X115645500Y-61535145D01*
X115611170Y-61452264D01*
X115547736Y-61388830D01*
X115464855Y-61354500D01*
X115375145Y-61354500D01*
X115292264Y-61388830D01*
X115228830Y-61452264D01*
X115194500Y-61535145D01*
X113645500Y-61535145D01*
X113611170Y-61452264D01*
X113547736Y-61388830D01*
X113464855Y-61354500D01*
X113375145Y-61354500D01*
X113292264Y-61388830D01*
X113228830Y-61452264D01*
X113194500Y-61535145D01*
X111645500Y-61535145D01*
X111611170Y-61452264D01*
X111547736Y-61388830D01*
X111464855Y-61354500D01*
X111375145Y-61354500D01*
X111292264Y-61388830D01*
X111228830Y-61452264D01*
X111194500Y-61535145D01*
X109645500Y-61535145D01*
X109611170Y-61452264D01*
X109547736Y-61388830D01*
X109464855Y-61354500D01*
X109375145Y-61354500D01*
X109292264Y-61388830D01*
X109228830Y-61452264D01*
X109194500Y-61535145D01*
X107645500Y-61535145D01*
X107611170Y-61452264D01*
X107547736Y-61388830D01*
X107464855Y-61354500D01*
X107375145Y-61354500D01*
X107292264Y-61388830D01*
X107228830Y-61452264D01*
X107194500Y-61535145D01*
X106805500Y-61535145D01*
X106771170Y-61452264D01*
X106707736Y-61388830D01*
X106624855Y-61354500D01*
X106535145Y-61354500D01*
X106452264Y-61388830D01*
X106388830Y-61452264D01*
X106354500Y-61535145D01*
X105645500Y-61535145D01*
X105611170Y-61452264D01*
X105547736Y-61388830D01*
X105464855Y-61354500D01*
X105375145Y-61354500D01*
X105292264Y-61388830D01*
X105228830Y-61452264D01*
X105194500Y-61535145D01*
X104805500Y-61535145D01*
X104771170Y-61452264D01*
X104707736Y-61388830D01*
X104624855Y-61354500D01*
X104535145Y-61354500D01*
X104452264Y-61388830D01*
X104388830Y-61452264D01*
X104354500Y-61535145D01*
X103645500Y-61535145D01*
X103611170Y-61452264D01*
X103547736Y-61388830D01*
X103464855Y-61354500D01*
X103375145Y-61354500D01*
X103292264Y-61388830D01*
X103228830Y-61452264D01*
X103194500Y-61535145D01*
X101645500Y-61535145D01*
X101611170Y-61452264D01*
X101547736Y-61388830D01*
X101464855Y-61354500D01*
X101375145Y-61354500D01*
X101292264Y-61388830D01*
X101228830Y-61452264D01*
X101194500Y-61535145D01*
X99645500Y-61535145D01*
X99611170Y-61452264D01*
X99547736Y-61388830D01*
X99464855Y-61354500D01*
X99375145Y-61354500D01*
X99292264Y-61388830D01*
X99228830Y-61452264D01*
X99194500Y-61535145D01*
X97645500Y-61535145D01*
X97611170Y-61452264D01*
X97547736Y-61388830D01*
X97464855Y-61354500D01*
X97375145Y-61354500D01*
X97292264Y-61388830D01*
X97228830Y-61452264D01*
X97194500Y-61535145D01*
X95645500Y-61535145D01*
X95611170Y-61452264D01*
X95547736Y-61388830D01*
X95464855Y-61354500D01*
X95375145Y-61354500D01*
X95292264Y-61388830D01*
X95228830Y-61452264D01*
X95194500Y-61535145D01*
X90000500Y-61535145D01*
X90000500Y-60955145D01*
X91304500Y-60955145D01*
X91304500Y-61044855D01*
X91338830Y-61127736D01*
X91402264Y-61191170D01*
X91485145Y-61225500D01*
X91485146Y-61225500D01*
X91574854Y-61225500D01*
X91574855Y-61225500D01*
X91657736Y-61191170D01*
X91721170Y-61127736D01*
X91755500Y-61044855D01*
X91755500Y-60955145D01*
X93044500Y-60955145D01*
X93044500Y-61044855D01*
X93078830Y-61127736D01*
X93142264Y-61191170D01*
X93225145Y-61225500D01*
X93225146Y-61225500D01*
X93314854Y-61225500D01*
X93314855Y-61225500D01*
X93397736Y-61191170D01*
X93461170Y-61127736D01*
X93495500Y-61044855D01*
X93495500Y-60955145D01*
X93461170Y-60872264D01*
X93397736Y-60808830D01*
X93314855Y-60774500D01*
X93225145Y-60774500D01*
X93142264Y-60808830D01*
X93078830Y-60872264D01*
X93044500Y-60955145D01*
X91755500Y-60955145D01*
X91721170Y-60872264D01*
X91657736Y-60808830D01*
X91574855Y-60774500D01*
X91485145Y-60774500D01*
X91402264Y-60808830D01*
X91338830Y-60872264D01*
X91304500Y-60955145D01*
X90000500Y-60955145D01*
X90000500Y-60375145D01*
X97194500Y-60375145D01*
X97194500Y-60464855D01*
X97228830Y-60547736D01*
X97292264Y-60611170D01*
X97375145Y-60645500D01*
X97375146Y-60645500D01*
X97464854Y-60645500D01*
X97464855Y-60645500D01*
X97547736Y-60611170D01*
X97611170Y-60547736D01*
X97645500Y-60464855D01*
X97645500Y-60375145D01*
X106354500Y-60375145D01*
X106354500Y-60464855D01*
X106388830Y-60547736D01*
X106452264Y-60611170D01*
X106535145Y-60645500D01*
X106535146Y-60645500D01*
X106624854Y-60645500D01*
X106624855Y-60645500D01*
X106707736Y-60611170D01*
X106771170Y-60547736D01*
X106805500Y-60464855D01*
X106805500Y-60375145D01*
X106771170Y-60292264D01*
X106707736Y-60228830D01*
X106624855Y-60194500D01*
X106535145Y-60194500D01*
X106452264Y-60228830D01*
X106388830Y-60292264D01*
X106354500Y-60375145D01*
X97645500Y-60375145D01*
X97611170Y-60292264D01*
X97547736Y-60228830D01*
X97464855Y-60194500D01*
X97375145Y-60194500D01*
X97292264Y-60228830D01*
X97228830Y-60292264D01*
X97194500Y-60375145D01*
X90000500Y-60375145D01*
X90000500Y-59535145D01*
X90354500Y-59535145D01*
X90354500Y-59624855D01*
X90388830Y-59707736D01*
X90452264Y-59771170D01*
X90535145Y-59805500D01*
X90535146Y-59805500D01*
X90624854Y-59805500D01*
X90624855Y-59805500D01*
X90707736Y-59771170D01*
X90771170Y-59707736D01*
X90805500Y-59624855D01*
X90805500Y-59535145D01*
X95194500Y-59535145D01*
X95194500Y-59624855D01*
X95228830Y-59707736D01*
X95292264Y-59771170D01*
X95375145Y-59805500D01*
X95375146Y-59805500D01*
X95464854Y-59805500D01*
X95464855Y-59805500D01*
X95547736Y-59771170D01*
X95611170Y-59707736D01*
X95645500Y-59624855D01*
X95645500Y-59535145D01*
X97194500Y-59535145D01*
X97194500Y-59624855D01*
X97228830Y-59707736D01*
X97292264Y-59771170D01*
X97375145Y-59805500D01*
X97375146Y-59805500D01*
X97464854Y-59805500D01*
X97464855Y-59805500D01*
X97547736Y-59771170D01*
X97611170Y-59707736D01*
X97645500Y-59624855D01*
X97645500Y-59535145D01*
X98354500Y-59535145D01*
X98354500Y-59624855D01*
X98388830Y-59707736D01*
X98452264Y-59771170D01*
X98535145Y-59805500D01*
X98535146Y-59805500D01*
X98624854Y-59805500D01*
X98624855Y-59805500D01*
X98707736Y-59771170D01*
X98771170Y-59707736D01*
X98805500Y-59624855D01*
X98805500Y-59535145D01*
X99194500Y-59535145D01*
X99194500Y-59624855D01*
X99228830Y-59707736D01*
X99292264Y-59771170D01*
X99375145Y-59805500D01*
X99375146Y-59805500D01*
X99464854Y-59805500D01*
X99464855Y-59805500D01*
X99547736Y-59771170D01*
X99611170Y-59707736D01*
X99645500Y-59624855D01*
X99645500Y-59535145D01*
X101194500Y-59535145D01*
X101194500Y-59624855D01*
X101228830Y-59707736D01*
X101292264Y-59771170D01*
X101375145Y-59805500D01*
X101375146Y-59805500D01*
X101464854Y-59805500D01*
X101464855Y-59805500D01*
X101547736Y-59771170D01*
X101611170Y-59707736D01*
X101645500Y-59624855D01*
X101645500Y-59535145D01*
X103194500Y-59535145D01*
X103194500Y-59624855D01*
X103228830Y-59707736D01*
X103292264Y-59771170D01*
X103375145Y-59805500D01*
X103375146Y-59805500D01*
X103464854Y-59805500D01*
X103464855Y-59805500D01*
X103547736Y-59771170D01*
X103611170Y-59707736D01*
X103645500Y-59624855D01*
X103645500Y-59535145D01*
X105194500Y-59535145D01*
X105194500Y-59624855D01*
X105228830Y-59707736D01*
X105292264Y-59771170D01*
X105375145Y-59805500D01*
X105375146Y-59805500D01*
X105464854Y-59805500D01*
X105464855Y-59805500D01*
X105547736Y-59771170D01*
X105611170Y-59707736D01*
X105645500Y-59624855D01*
X105645500Y-59535145D01*
X107194500Y-59535145D01*
X107194500Y-59624855D01*
X107228830Y-59707736D01*
X107292264Y-59771170D01*
X107375145Y-59805500D01*
X107375146Y-59805500D01*
X107464854Y-59805500D01*
X107464855Y-59805500D01*
X107547736Y-59771170D01*
X107611170Y-59707736D01*
X107645500Y-59624855D01*
X107645500Y-59535145D01*
X108354500Y-59535145D01*
X108354500Y-59624855D01*
X108388830Y-59707736D01*
X108452264Y-59771170D01*
X108535145Y-59805500D01*
X108535146Y-59805500D01*
X108624854Y-59805500D01*
X108624855Y-59805500D01*
X108707736Y-59771170D01*
X108771170Y-59707736D01*
X108805500Y-59624855D01*
X108805500Y-59535145D01*
X109194500Y-59535145D01*
X109194500Y-59624855D01*
X109228830Y-59707736D01*
X109292264Y-59771170D01*
X109375145Y-59805500D01*
X109375146Y-59805500D01*
X109464854Y-59805500D01*
X109464855Y-59805500D01*
X109547736Y-59771170D01*
X109611170Y-59707736D01*
X109645500Y-59624855D01*
X109645500Y-59535145D01*
X111194500Y-59535145D01*
X111194500Y-59624855D01*
X111228830Y-59707736D01*
X111292264Y-59771170D01*
X111375145Y-59805500D01*
X111375146Y-59805500D01*
X111464854Y-59805500D01*
X111464855Y-59805500D01*
X111547736Y-59771170D01*
X111611170Y-59707736D01*
X111645500Y-59624855D01*
X111645500Y-59535145D01*
X113194500Y-59535145D01*
X113194500Y-59624855D01*
X113228830Y-59707736D01*
X113292264Y-59771170D01*
X113375145Y-59805500D01*
X113375146Y-59805500D01*
X113464854Y-59805500D01*
X113464855Y-59805500D01*
X113547736Y-59771170D01*
X113611170Y-59707736D01*
X113645500Y-59624855D01*
X113645500Y-59535145D01*
X115194500Y-59535145D01*
X115194500Y-59624855D01*
X115228830Y-59707736D01*
X115292264Y-59771170D01*
X115375145Y-59805500D01*
X115375146Y-59805500D01*
X115464854Y-59805500D01*
X115464855Y-59805500D01*
X115547736Y-59771170D01*
X115611170Y-59707736D01*
X115645500Y-59624855D01*
X115645500Y-59535145D01*
X115611170Y-59452264D01*
X115547736Y-59388830D01*
X115464855Y-59354500D01*
X115375145Y-59354500D01*
X115292264Y-59388830D01*
X115228830Y-59452264D01*
X115194500Y-59535145D01*
X113645500Y-59535145D01*
X113611170Y-59452264D01*
X113547736Y-59388830D01*
X113464855Y-59354500D01*
X113375145Y-59354500D01*
X113292264Y-59388830D01*
X113228830Y-59452264D01*
X113194500Y-59535145D01*
X111645500Y-59535145D01*
X111611170Y-59452264D01*
X111547736Y-59388830D01*
X111464855Y-59354500D01*
X111375145Y-59354500D01*
X111292264Y-59388830D01*
X111228830Y-59452264D01*
X111194500Y-59535145D01*
X109645500Y-59535145D01*
X109611170Y-59452264D01*
X109547736Y-59388830D01*
X109464855Y-59354500D01*
X109375145Y-59354500D01*
X109292264Y-59388830D01*
X109228830Y-59452264D01*
X109194500Y-59535145D01*
X108805500Y-59535145D01*
X108771170Y-59452264D01*
X108707736Y-59388830D01*
X108624855Y-59354500D01*
X108535145Y-59354500D01*
X108452264Y-59388830D01*
X108388830Y-59452264D01*
X108354500Y-59535145D01*
X107645500Y-59535145D01*
X107611170Y-59452264D01*
X107547736Y-59388830D01*
X107464855Y-59354500D01*
X107375145Y-59354500D01*
X107292264Y-59388830D01*
X107228830Y-59452264D01*
X107194500Y-59535145D01*
X105645500Y-59535145D01*
X105611170Y-59452264D01*
X105547736Y-59388830D01*
X105464855Y-59354500D01*
X105375145Y-59354500D01*
X105292264Y-59388830D01*
X105228830Y-59452264D01*
X105194500Y-59535145D01*
X103645500Y-59535145D01*
X103611170Y-59452264D01*
X103547736Y-59388830D01*
X103464855Y-59354500D01*
X103375145Y-59354500D01*
X103292264Y-59388830D01*
X103228830Y-59452264D01*
X103194500Y-59535145D01*
X101645500Y-59535145D01*
X101611170Y-59452264D01*
X101547736Y-59388830D01*
X101464855Y-59354500D01*
X101375145Y-59354500D01*
X101292264Y-59388830D01*
X101228830Y-59452264D01*
X101194500Y-59535145D01*
X99645500Y-59535145D01*
X99611170Y-59452264D01*
X99547736Y-59388830D01*
X99464855Y-59354500D01*
X99375145Y-59354500D01*
X99292264Y-59388830D01*
X99228830Y-59452264D01*
X99194500Y-59535145D01*
X98805500Y-59535145D01*
X98771170Y-59452264D01*
X98707736Y-59388830D01*
X98624855Y-59354500D01*
X98535145Y-59354500D01*
X98452264Y-59388830D01*
X98388830Y-59452264D01*
X98354500Y-59535145D01*
X97645500Y-59535145D01*
X97611170Y-59452264D01*
X97547736Y-59388830D01*
X97464855Y-59354500D01*
X97375145Y-59354500D01*
X97292264Y-59388830D01*
X97228830Y-59452264D01*
X97194500Y-59535145D01*
X95645500Y-59535145D01*
X95611170Y-59452264D01*
X95547736Y-59388830D01*
X95464855Y-59354500D01*
X95375145Y-59354500D01*
X95292264Y-59388830D01*
X95228830Y-59452264D01*
X95194500Y-59535145D01*
X90805500Y-59535145D01*
X90771170Y-59452264D01*
X90707736Y-59388830D01*
X90624855Y-59354500D01*
X90535145Y-59354500D01*
X90452264Y-59388830D01*
X90388830Y-59452264D01*
X90354500Y-59535145D01*
X90000500Y-59535145D01*
X90000500Y-58955145D01*
X91304500Y-58955145D01*
X91304500Y-59044855D01*
X91338830Y-59127736D01*
X91402264Y-59191170D01*
X91485145Y-59225500D01*
X91485146Y-59225500D01*
X91574854Y-59225500D01*
X91574855Y-59225500D01*
X91657736Y-59191170D01*
X91721170Y-59127736D01*
X91755500Y-59044855D01*
X91755500Y-58955145D01*
X93044500Y-58955145D01*
X93044500Y-59044855D01*
X93078830Y-59127736D01*
X93142264Y-59191170D01*
X93225145Y-59225500D01*
X93225146Y-59225500D01*
X93314854Y-59225500D01*
X93314855Y-59225500D01*
X93397736Y-59191170D01*
X93461170Y-59127736D01*
X93495500Y-59044855D01*
X93495500Y-58955145D01*
X93461170Y-58872264D01*
X93397736Y-58808830D01*
X93314855Y-58774500D01*
X93225145Y-58774500D01*
X93142264Y-58808830D01*
X93078830Y-58872264D01*
X93044500Y-58955145D01*
X91755500Y-58955145D01*
X91721170Y-58872264D01*
X91657736Y-58808830D01*
X91574855Y-58774500D01*
X91485145Y-58774500D01*
X91402264Y-58808830D01*
X91338830Y-58872264D01*
X91304500Y-58955145D01*
X90000500Y-58955145D01*
X90000500Y-58375145D01*
X90354500Y-58375145D01*
X90354500Y-58464855D01*
X90388830Y-58547736D01*
X90452264Y-58611170D01*
X90535145Y-58645500D01*
X90535146Y-58645500D01*
X90624854Y-58645500D01*
X90624855Y-58645500D01*
X90707736Y-58611170D01*
X90771170Y-58547736D01*
X90805500Y-58464855D01*
X90805500Y-58375145D01*
X98354500Y-58375145D01*
X98354500Y-58464855D01*
X98388830Y-58547736D01*
X98452264Y-58611170D01*
X98535145Y-58645500D01*
X98535146Y-58645500D01*
X98624854Y-58645500D01*
X98624855Y-58645500D01*
X98707736Y-58611170D01*
X98771170Y-58547736D01*
X98805500Y-58464855D01*
X98805500Y-58375145D01*
X99194500Y-58375145D01*
X99194500Y-58464855D01*
X99228830Y-58547736D01*
X99292264Y-58611170D01*
X99375145Y-58645500D01*
X99375146Y-58645500D01*
X99464854Y-58645500D01*
X99464855Y-58645500D01*
X99547736Y-58611170D01*
X99611170Y-58547736D01*
X99645500Y-58464855D01*
X99645500Y-58375145D01*
X107194500Y-58375145D01*
X107194500Y-58464855D01*
X107228830Y-58547736D01*
X107292264Y-58611170D01*
X107375145Y-58645500D01*
X107375146Y-58645500D01*
X107464854Y-58645500D01*
X107464855Y-58645500D01*
X107547736Y-58611170D01*
X107611170Y-58547736D01*
X107645500Y-58464855D01*
X107645500Y-58375145D01*
X108354500Y-58375145D01*
X108354500Y-58464855D01*
X108388830Y-58547736D01*
X108452264Y-58611170D01*
X108535145Y-58645500D01*
X108535146Y-58645500D01*
X108624854Y-58645500D01*
X108624855Y-58645500D01*
X108707736Y-58611170D01*
X108771170Y-58547736D01*
X108805500Y-58464855D01*
X108805500Y-58375145D01*
X109194500Y-58375145D01*
X109194500Y-58464855D01*
X109228830Y-58547736D01*
X109292264Y-58611170D01*
X109375145Y-58645500D01*
X109375146Y-58645500D01*
X109464854Y-58645500D01*
X109464855Y-58645500D01*
X109547736Y-58611170D01*
X109611170Y-58547736D01*
X109645500Y-58464855D01*
X109645500Y-58375145D01*
X109611170Y-58292264D01*
X109547736Y-58228830D01*
X109464855Y-58194500D01*
X109375145Y-58194500D01*
X109292264Y-58228830D01*
X109228830Y-58292264D01*
X109194500Y-58375145D01*
X108805500Y-58375145D01*
X108771170Y-58292264D01*
X108707736Y-58228830D01*
X108624855Y-58194500D01*
X108535145Y-58194500D01*
X108452264Y-58228830D01*
X108388830Y-58292264D01*
X108354500Y-58375145D01*
X107645500Y-58375145D01*
X107611170Y-58292264D01*
X107547736Y-58228830D01*
X107464855Y-58194500D01*
X107375145Y-58194500D01*
X107292264Y-58228830D01*
X107228830Y-58292264D01*
X107194500Y-58375145D01*
X99645500Y-58375145D01*
X99611170Y-58292264D01*
X99547736Y-58228830D01*
X99464855Y-58194500D01*
X99375145Y-58194500D01*
X99292264Y-58228830D01*
X99228830Y-58292264D01*
X99194500Y-58375145D01*
X98805500Y-58375145D01*
X98771170Y-58292264D01*
X98707736Y-58228830D01*
X98624855Y-58194500D01*
X98535145Y-58194500D01*
X98452264Y-58228830D01*
X98388830Y-58292264D01*
X98354500Y-58375145D01*
X90805500Y-58375145D01*
X90771170Y-58292264D01*
X90707736Y-58228830D01*
X90624855Y-58194500D01*
X90535145Y-58194500D01*
X90452264Y-58228830D01*
X90388830Y-58292264D01*
X90354500Y-58375145D01*
X90000500Y-58375145D01*
X90000500Y-57535145D01*
X92354500Y-57535145D01*
X92354500Y-57624855D01*
X92388830Y-57707736D01*
X92452264Y-57771170D01*
X92535145Y-57805500D01*
X92535146Y-57805500D01*
X92624854Y-57805500D01*
X92624855Y-57805500D01*
X92707736Y-57771170D01*
X92771170Y-57707736D01*
X92805500Y-57624855D01*
X92805500Y-57535145D01*
X95194500Y-57535145D01*
X95194500Y-57624855D01*
X95228830Y-57707736D01*
X95292264Y-57771170D01*
X95375145Y-57805500D01*
X95375146Y-57805500D01*
X95464854Y-57805500D01*
X95464855Y-57805500D01*
X95547736Y-57771170D01*
X95611170Y-57707736D01*
X95645500Y-57624855D01*
X95645500Y-57535145D01*
X97194500Y-57535145D01*
X97194500Y-57624855D01*
X97228830Y-57707736D01*
X97292264Y-57771170D01*
X97375145Y-57805500D01*
X97375146Y-57805500D01*
X97464854Y-57805500D01*
X97464855Y-57805500D01*
X97547736Y-57771170D01*
X97611170Y-57707736D01*
X97645500Y-57624855D01*
X97645500Y-57535145D01*
X99194500Y-57535145D01*
X99194500Y-57624855D01*
X99228830Y-57707736D01*
X99292264Y-57771170D01*
X99375145Y-57805500D01*
X99375146Y-57805500D01*
X99464854Y-57805500D01*
X99464855Y-57805500D01*
X99547736Y-57771170D01*
X99611170Y-57707736D01*
X99645500Y-57624855D01*
X99645500Y-57535145D01*
X100354500Y-57535145D01*
X100354500Y-57624855D01*
X100388830Y-57707736D01*
X100452264Y-57771170D01*
X100535145Y-57805500D01*
X100535146Y-57805500D01*
X100624854Y-57805500D01*
X100624855Y-57805500D01*
X100707736Y-57771170D01*
X100771170Y-57707736D01*
X100805500Y-57624855D01*
X100805500Y-57535145D01*
X101194500Y-57535145D01*
X101194500Y-57624855D01*
X101228830Y-57707736D01*
X101292264Y-57771170D01*
X101375145Y-57805500D01*
X101375146Y-57805500D01*
X101464854Y-57805500D01*
X101464855Y-57805500D01*
X101547736Y-57771170D01*
X101611170Y-57707736D01*
X101645500Y-57624855D01*
X101645500Y-57535145D01*
X103194500Y-57535145D01*
X103194500Y-57624855D01*
X103228830Y-57707736D01*
X103292264Y-57771170D01*
X103375145Y-57805500D01*
X103375146Y-57805500D01*
X103464854Y-57805500D01*
X103464855Y-57805500D01*
X103547736Y-57771170D01*
X103611170Y-57707736D01*
X103645500Y-57624855D01*
X103645500Y-57535145D01*
X105194500Y-57535145D01*
X105194500Y-57624855D01*
X105228830Y-57707736D01*
X105292264Y-57771170D01*
X105375145Y-57805500D01*
X105375146Y-57805500D01*
X105464854Y-57805500D01*
X105464855Y-57805500D01*
X105547736Y-57771170D01*
X105611170Y-57707736D01*
X105645500Y-57624855D01*
X105645500Y-57535145D01*
X107194500Y-57535145D01*
X107194500Y-57624855D01*
X107228830Y-57707736D01*
X107292264Y-57771170D01*
X107375145Y-57805500D01*
X107375146Y-57805500D01*
X107464854Y-57805500D01*
X107464855Y-57805500D01*
X107547736Y-57771170D01*
X107611170Y-57707736D01*
X107645500Y-57624855D01*
X107645500Y-57535145D01*
X109194500Y-57535145D01*
X109194500Y-57624855D01*
X109228830Y-57707736D01*
X109292264Y-57771170D01*
X109375145Y-57805500D01*
X109375146Y-57805500D01*
X109464854Y-57805500D01*
X109464855Y-57805500D01*
X109547736Y-57771170D01*
X109611170Y-57707736D01*
X109645500Y-57624855D01*
X109645500Y-57535145D01*
X110354500Y-57535145D01*
X110354500Y-57624855D01*
X110388830Y-57707736D01*
X110452264Y-57771170D01*
X110535145Y-57805500D01*
X110535146Y-57805500D01*
X110624854Y-57805500D01*
X110624855Y-57805500D01*
X110707736Y-57771170D01*
X110771170Y-57707736D01*
X110805500Y-57624855D01*
X110805500Y-57535145D01*
X111194500Y-57535145D01*
X111194500Y-57624855D01*
X111228830Y-57707736D01*
X111292264Y-57771170D01*
X111375145Y-57805500D01*
X111375146Y-57805500D01*
X111464854Y-57805500D01*
X111464855Y-57805500D01*
X111547736Y-57771170D01*
X111611170Y-57707736D01*
X111645500Y-57624855D01*
X111645500Y-57535145D01*
X113194500Y-57535145D01*
X113194500Y-57624855D01*
X113228830Y-57707736D01*
X113292264Y-57771170D01*
X113375145Y-57805500D01*
X113375146Y-57805500D01*
X113464854Y-57805500D01*
X113464855Y-57805500D01*
X113547736Y-57771170D01*
X113611170Y-57707736D01*
X113645500Y-57624855D01*
X113645500Y-57535145D01*
X115194500Y-57535145D01*
X115194500Y-57624855D01*
X115228830Y-57707736D01*
X115292264Y-57771170D01*
X115375145Y-57805500D01*
X115375146Y-57805500D01*
X115464854Y-57805500D01*
X115464855Y-57805500D01*
X115547736Y-57771170D01*
X115611170Y-57707736D01*
X115645500Y-57624855D01*
X115645500Y-57535145D01*
X115611170Y-57452264D01*
X115547736Y-57388830D01*
X115464855Y-57354500D01*
X115375145Y-57354500D01*
X115292264Y-57388830D01*
X115228830Y-57452264D01*
X115194500Y-57535145D01*
X113645500Y-57535145D01*
X113611170Y-57452264D01*
X113547736Y-57388830D01*
X113464855Y-57354500D01*
X113375145Y-57354500D01*
X113292264Y-57388830D01*
X113228830Y-57452264D01*
X113194500Y-57535145D01*
X111645500Y-57535145D01*
X111611170Y-57452264D01*
X111547736Y-57388830D01*
X111464855Y-57354500D01*
X111375145Y-57354500D01*
X111292264Y-57388830D01*
X111228830Y-57452264D01*
X111194500Y-57535145D01*
X110805500Y-57535145D01*
X110771170Y-57452264D01*
X110707736Y-57388830D01*
X110624855Y-57354500D01*
X110535145Y-57354500D01*
X110452264Y-57388830D01*
X110388830Y-57452264D01*
X110354500Y-57535145D01*
X109645500Y-57535145D01*
X109611170Y-57452264D01*
X109547736Y-57388830D01*
X109464855Y-57354500D01*
X109375145Y-57354500D01*
X109292264Y-57388830D01*
X109228830Y-57452264D01*
X109194500Y-57535145D01*
X107645500Y-57535145D01*
X107611170Y-57452264D01*
X107547736Y-57388830D01*
X107464855Y-57354500D01*
X107375145Y-57354500D01*
X107292264Y-57388830D01*
X107228830Y-57452264D01*
X107194500Y-57535145D01*
X105645500Y-57535145D01*
X105611170Y-57452264D01*
X105547736Y-57388830D01*
X105464855Y-57354500D01*
X105375145Y-57354500D01*
X105292264Y-57388830D01*
X105228830Y-57452264D01*
X105194500Y-57535145D01*
X103645500Y-57535145D01*
X103611170Y-57452264D01*
X103547736Y-57388830D01*
X103464855Y-57354500D01*
X103375145Y-57354500D01*
X103292264Y-57388830D01*
X103228830Y-57452264D01*
X103194500Y-57535145D01*
X101645500Y-57535145D01*
X101611170Y-57452264D01*
X101547736Y-57388830D01*
X101464855Y-57354500D01*
X101375145Y-57354500D01*
X101292264Y-57388830D01*
X101228830Y-57452264D01*
X101194500Y-57535145D01*
X100805500Y-57535145D01*
X100771170Y-57452264D01*
X100707736Y-57388830D01*
X100624855Y-57354500D01*
X100535145Y-57354500D01*
X100452264Y-57388830D01*
X100388830Y-57452264D01*
X100354500Y-57535145D01*
X99645500Y-57535145D01*
X99611170Y-57452264D01*
X99547736Y-57388830D01*
X99464855Y-57354500D01*
X99375145Y-57354500D01*
X99292264Y-57388830D01*
X99228830Y-57452264D01*
X99194500Y-57535145D01*
X97645500Y-57535145D01*
X97611170Y-57452264D01*
X97547736Y-57388830D01*
X97464855Y-57354500D01*
X97375145Y-57354500D01*
X97292264Y-57388830D01*
X97228830Y-57452264D01*
X97194500Y-57535145D01*
X95645500Y-57535145D01*
X95611170Y-57452264D01*
X95547736Y-57388830D01*
X95464855Y-57354500D01*
X95375145Y-57354500D01*
X95292264Y-57388830D01*
X95228830Y-57452264D01*
X95194500Y-57535145D01*
X92805500Y-57535145D01*
X92771170Y-57452264D01*
X92707736Y-57388830D01*
X92624855Y-57354500D01*
X92535145Y-57354500D01*
X92452264Y-57388830D01*
X92388830Y-57452264D01*
X92354500Y-57535145D01*
X90000500Y-57535145D01*
X90000500Y-56955145D01*
X91304500Y-56955145D01*
X91304500Y-57044855D01*
X91338830Y-57127736D01*
X91402264Y-57191170D01*
X91485145Y-57225500D01*
X91485146Y-57225500D01*
X91574854Y-57225500D01*
X91574855Y-57225500D01*
X91657736Y-57191170D01*
X91721170Y-57127736D01*
X91755500Y-57044855D01*
X91755500Y-56955145D01*
X93044500Y-56955145D01*
X93044500Y-57044855D01*
X93078830Y-57127736D01*
X93142264Y-57191170D01*
X93225145Y-57225500D01*
X93225146Y-57225500D01*
X93314854Y-57225500D01*
X93314855Y-57225500D01*
X93397736Y-57191170D01*
X93461170Y-57127736D01*
X93495500Y-57044855D01*
X93495500Y-56955145D01*
X93461170Y-56872264D01*
X93397736Y-56808830D01*
X93314855Y-56774500D01*
X93225145Y-56774500D01*
X93142264Y-56808830D01*
X93078830Y-56872264D01*
X93044500Y-56955145D01*
X91755500Y-56955145D01*
X91721170Y-56872264D01*
X91657736Y-56808830D01*
X91574855Y-56774500D01*
X91485145Y-56774500D01*
X91402264Y-56808830D01*
X91338830Y-56872264D01*
X91304500Y-56955145D01*
X90000500Y-56955145D01*
X90000500Y-56375145D01*
X110354500Y-56375145D01*
X110354500Y-56464855D01*
X110388830Y-56547736D01*
X110452264Y-56611170D01*
X110535145Y-56645500D01*
X110535146Y-56645500D01*
X110624854Y-56645500D01*
X110624855Y-56645500D01*
X110707736Y-56611170D01*
X110771170Y-56547736D01*
X110805500Y-56464855D01*
X110805500Y-56375145D01*
X111194500Y-56375145D01*
X111194500Y-56464855D01*
X111228830Y-56547736D01*
X111292264Y-56611170D01*
X111375145Y-56645500D01*
X111375146Y-56645500D01*
X111464854Y-56645500D01*
X111464855Y-56645500D01*
X111547736Y-56611170D01*
X111611170Y-56547736D01*
X111645500Y-56464855D01*
X111645500Y-56375145D01*
X113194500Y-56375145D01*
X113194500Y-56464855D01*
X113228830Y-56547736D01*
X113292264Y-56611170D01*
X113375145Y-56645500D01*
X113375146Y-56645500D01*
X113464854Y-56645500D01*
X113464855Y-56645500D01*
X113547736Y-56611170D01*
X113611170Y-56547736D01*
X113645500Y-56464855D01*
X113645500Y-56375145D01*
X115194500Y-56375145D01*
X115194500Y-56464855D01*
X115228830Y-56547736D01*
X115292264Y-56611170D01*
X115375145Y-56645500D01*
X115375146Y-56645500D01*
X115464854Y-56645500D01*
X115464855Y-56645500D01*
X115547736Y-56611170D01*
X115611170Y-56547736D01*
X115645500Y-56464855D01*
X115645500Y-56375145D01*
X115611170Y-56292264D01*
X115547736Y-56228830D01*
X115464855Y-56194500D01*
X115375145Y-56194500D01*
X115292264Y-56228830D01*
X115228830Y-56292264D01*
X115194500Y-56375145D01*
X113645500Y-56375145D01*
X113611170Y-56292264D01*
X113547736Y-56228830D01*
X113464855Y-56194500D01*
X113375145Y-56194500D01*
X113292264Y-56228830D01*
X113228830Y-56292264D01*
X113194500Y-56375145D01*
X111645500Y-56375145D01*
X111611170Y-56292264D01*
X111547736Y-56228830D01*
X111464855Y-56194500D01*
X111375145Y-56194500D01*
X111292264Y-56228830D01*
X111228830Y-56292264D01*
X111194500Y-56375145D01*
X110805500Y-56375145D01*
X110771170Y-56292264D01*
X110707736Y-56228830D01*
X110624855Y-56194500D01*
X110535145Y-56194500D01*
X110452264Y-56228830D01*
X110388830Y-56292264D01*
X110354500Y-56375145D01*
X90000500Y-56375145D01*
X90000500Y-55535145D01*
X95194500Y-55535145D01*
X95194500Y-55624855D01*
X95228830Y-55707736D01*
X95292264Y-55771170D01*
X95375145Y-55805500D01*
X95375146Y-55805500D01*
X95464854Y-55805500D01*
X95464855Y-55805500D01*
X95547736Y-55771170D01*
X95611170Y-55707736D01*
X95645500Y-55624855D01*
X95645500Y-55535145D01*
X97194500Y-55535145D01*
X97194500Y-55624855D01*
X97228830Y-55707736D01*
X97292264Y-55771170D01*
X97375145Y-55805500D01*
X97375146Y-55805500D01*
X97464854Y-55805500D01*
X97464855Y-55805500D01*
X97547736Y-55771170D01*
X97611170Y-55707736D01*
X97645500Y-55624855D01*
X97645500Y-55535145D01*
X99194500Y-55535145D01*
X99194500Y-55624855D01*
X99228830Y-55707736D01*
X99292264Y-55771170D01*
X99375145Y-55805500D01*
X99375146Y-55805500D01*
X99464854Y-55805500D01*
X99464855Y-55805500D01*
X99547736Y-55771170D01*
X99611170Y-55707736D01*
X99645500Y-55624855D01*
X99645500Y-55535145D01*
X101194500Y-55535145D01*
X101194500Y-55624855D01*
X101228830Y-55707736D01*
X101292264Y-55771170D01*
X101375145Y-55805500D01*
X101375146Y-55805500D01*
X101464854Y-55805500D01*
X101464855Y-55805500D01*
X101547736Y-55771170D01*
X101611170Y-55707736D01*
X101645500Y-55624855D01*
X101645500Y-55535145D01*
X103194500Y-55535145D01*
X103194500Y-55624855D01*
X103228830Y-55707736D01*
X103292264Y-55771170D01*
X103375145Y-55805500D01*
X103375146Y-55805500D01*
X103464854Y-55805500D01*
X103464855Y-55805500D01*
X103547736Y-55771170D01*
X103611170Y-55707736D01*
X103645500Y-55624855D01*
X103645500Y-55535145D01*
X105194500Y-55535145D01*
X105194500Y-55624855D01*
X105228830Y-55707736D01*
X105292264Y-55771170D01*
X105375145Y-55805500D01*
X105375146Y-55805500D01*
X105464854Y-55805500D01*
X105464855Y-55805500D01*
X105547736Y-55771170D01*
X105611170Y-55707736D01*
X105645500Y-55624855D01*
X105645500Y-55535145D01*
X107194500Y-55535145D01*
X107194500Y-55624855D01*
X107228830Y-55707736D01*
X107292264Y-55771170D01*
X107375145Y-55805500D01*
X107375146Y-55805500D01*
X107464854Y-55805500D01*
X107464855Y-55805500D01*
X107547736Y-55771170D01*
X107611170Y-55707736D01*
X107645500Y-55624855D01*
X107645500Y-55535145D01*
X109194500Y-55535145D01*
X109194500Y-55624855D01*
X109228830Y-55707736D01*
X109292264Y-55771170D01*
X109375145Y-55805500D01*
X109375146Y-55805500D01*
X109464854Y-55805500D01*
X109464855Y-55805500D01*
X109547736Y-55771170D01*
X109611170Y-55707736D01*
X109645500Y-55624855D01*
X109645500Y-55535145D01*
X111194500Y-55535145D01*
X111194500Y-55624855D01*
X111228830Y-55707736D01*
X111292264Y-55771170D01*
X111375145Y-55805500D01*
X111375146Y-55805500D01*
X111464854Y-55805500D01*
X111464855Y-55805500D01*
X111547736Y-55771170D01*
X111611170Y-55707736D01*
X111645500Y-55624855D01*
X111645500Y-55535145D01*
X115194500Y-55535145D01*
X115194500Y-55624855D01*
X115228830Y-55707736D01*
X115292264Y-55771170D01*
X115375145Y-55805500D01*
X115375146Y-55805500D01*
X115464854Y-55805500D01*
X115464855Y-55805500D01*
X115547736Y-55771170D01*
X115611170Y-55707736D01*
X115645500Y-55624855D01*
X115645500Y-55535145D01*
X115611170Y-55452264D01*
X115547736Y-55388830D01*
X115464855Y-55354500D01*
X115375145Y-55354500D01*
X115292264Y-55388830D01*
X115228830Y-55452264D01*
X115194500Y-55535145D01*
X111645500Y-55535145D01*
X111611170Y-55452264D01*
X111547736Y-55388830D01*
X111464855Y-55354500D01*
X111375145Y-55354500D01*
X111292264Y-55388830D01*
X111228830Y-55452264D01*
X111194500Y-55535145D01*
X109645500Y-55535145D01*
X109611170Y-55452264D01*
X109547736Y-55388830D01*
X109464855Y-55354500D01*
X109375145Y-55354500D01*
X109292264Y-55388830D01*
X109228830Y-55452264D01*
X109194500Y-55535145D01*
X107645500Y-55535145D01*
X107611170Y-55452264D01*
X107547736Y-55388830D01*
X107464855Y-55354500D01*
X107375145Y-55354500D01*
X107292264Y-55388830D01*
X107228830Y-55452264D01*
X107194500Y-55535145D01*
X105645500Y-55535145D01*
X105611170Y-55452264D01*
X105547736Y-55388830D01*
X105464855Y-55354500D01*
X105375145Y-55354500D01*
X105292264Y-55388830D01*
X105228830Y-55452264D01*
X105194500Y-55535145D01*
X103645500Y-55535145D01*
X103611170Y-55452264D01*
X103547736Y-55388830D01*
X103464855Y-55354500D01*
X103375145Y-55354500D01*
X103292264Y-55388830D01*
X103228830Y-55452264D01*
X103194500Y-55535145D01*
X101645500Y-55535145D01*
X101611170Y-55452264D01*
X101547736Y-55388830D01*
X101464855Y-55354500D01*
X101375145Y-55354500D01*
X101292264Y-55388830D01*
X101228830Y-55452264D01*
X101194500Y-55535145D01*
X99645500Y-55535145D01*
X99611170Y-55452264D01*
X99547736Y-55388830D01*
X99464855Y-55354500D01*
X99375145Y-55354500D01*
X99292264Y-55388830D01*
X99228830Y-55452264D01*
X99194500Y-55535145D01*
X97645500Y-55535145D01*
X97611170Y-55452264D01*
X97547736Y-55388830D01*
X97464855Y-55354500D01*
X97375145Y-55354500D01*
X97292264Y-55388830D01*
X97228830Y-55452264D01*
X97194500Y-55535145D01*
X95645500Y-55535145D01*
X95611170Y-55452264D01*
X95547736Y-55388830D01*
X95464855Y-55354500D01*
X95375145Y-55354500D01*
X95292264Y-55388830D01*
X95228830Y-55452264D01*
X95194500Y-55535145D01*
X90000500Y-55535145D01*
X90000500Y-54375145D01*
X91194500Y-54375145D01*
X91194500Y-54464855D01*
X91228830Y-54547736D01*
X91292264Y-54611170D01*
X91308517Y-54617902D01*
X91332329Y-54641713D01*
X91332330Y-54675389D01*
X91308519Y-54699202D01*
X91292515Y-54705831D01*
X91292514Y-54705832D01*
X91229080Y-54769266D01*
X91194750Y-54852147D01*
X91194750Y-54941857D01*
X91229080Y-55024738D01*
X91292514Y-55088172D01*
X91375395Y-55122502D01*
X91375396Y-55122502D01*
X91465104Y-55122502D01*
X91465105Y-55122502D01*
X91547986Y-55088172D01*
X91611420Y-55024738D01*
X91645750Y-54941857D01*
X91645750Y-54852147D01*
X93194750Y-54852147D01*
X93194750Y-54941857D01*
X93229080Y-55024738D01*
X93292514Y-55088172D01*
X93375395Y-55122502D01*
X93375396Y-55122502D01*
X93465104Y-55122502D01*
X93465105Y-55122502D01*
X93547986Y-55088172D01*
X93611420Y-55024738D01*
X93645750Y-54941857D01*
X93645750Y-54852147D01*
X113194750Y-54852147D01*
X113194750Y-54941857D01*
X113229080Y-55024738D01*
X113292514Y-55088172D01*
X113375395Y-55122502D01*
X113375396Y-55122502D01*
X113465104Y-55122502D01*
X113465105Y-55122502D01*
X113547986Y-55088172D01*
X113611420Y-55024738D01*
X113645750Y-54941857D01*
X113645750Y-54852147D01*
X113611420Y-54769266D01*
X113547986Y-54705832D01*
X113465105Y-54671502D01*
X113375395Y-54671502D01*
X113292514Y-54705832D01*
X113229080Y-54769266D01*
X113194750Y-54852147D01*
X93645750Y-54852147D01*
X93611420Y-54769266D01*
X93547986Y-54705832D01*
X93465105Y-54671502D01*
X93375395Y-54671502D01*
X93292514Y-54705832D01*
X93229080Y-54769266D01*
X93194750Y-54852147D01*
X91645750Y-54852147D01*
X91611420Y-54769266D01*
X91547986Y-54705832D01*
X91531731Y-54699099D01*
X91507919Y-54675287D01*
X91507919Y-54641611D01*
X91531730Y-54617799D01*
X91547736Y-54611170D01*
X91611170Y-54547736D01*
X91645500Y-54464855D01*
X91645500Y-54375145D01*
X92354500Y-54375145D01*
X92354500Y-54464855D01*
X92388830Y-54547736D01*
X92452264Y-54611170D01*
X92535145Y-54645500D01*
X92535146Y-54645500D01*
X92624854Y-54645500D01*
X92624855Y-54645500D01*
X92707736Y-54611170D01*
X92771170Y-54547736D01*
X92805500Y-54464855D01*
X92805500Y-54375145D01*
X112354500Y-54375145D01*
X112354500Y-54464855D01*
X112388830Y-54547736D01*
X112452264Y-54611170D01*
X112535145Y-54645500D01*
X112535146Y-54645500D01*
X112624854Y-54645500D01*
X112624855Y-54645500D01*
X112707736Y-54611170D01*
X112771170Y-54547736D01*
X112805500Y-54464855D01*
X112805500Y-54375145D01*
X112771170Y-54292264D01*
X112707736Y-54228830D01*
X112624855Y-54194500D01*
X112535145Y-54194500D01*
X112452264Y-54228830D01*
X112388830Y-54292264D01*
X112354500Y-54375145D01*
X92805500Y-54375145D01*
X92771170Y-54292264D01*
X92707736Y-54228830D01*
X92624855Y-54194500D01*
X92535145Y-54194500D01*
X92452264Y-54228830D01*
X92388830Y-54292264D01*
X92354500Y-54375145D01*
X91645500Y-54375145D01*
X91611170Y-54292264D01*
X91547736Y-54228830D01*
X91464855Y-54194500D01*
X91375145Y-54194500D01*
X91292264Y-54228830D01*
X91228830Y-54292264D01*
X91194500Y-54375145D01*
X90000500Y-54375145D01*
X90000500Y-53535145D01*
X91194500Y-53535145D01*
X91194500Y-53624855D01*
X91228830Y-53707736D01*
X91292264Y-53771170D01*
X91375145Y-53805500D01*
X91375146Y-53805500D01*
X91464854Y-53805500D01*
X91464855Y-53805500D01*
X91547736Y-53771170D01*
X91611170Y-53707736D01*
X91645500Y-53624855D01*
X91645500Y-53535145D01*
X93194500Y-53535145D01*
X93194500Y-53624855D01*
X93228830Y-53707736D01*
X93292264Y-53771170D01*
X93375145Y-53805500D01*
X93375146Y-53805500D01*
X93464854Y-53805500D01*
X93464855Y-53805500D01*
X93547736Y-53771170D01*
X93611170Y-53707736D01*
X93645500Y-53624855D01*
X93645500Y-53535145D01*
X95194500Y-53535145D01*
X95194500Y-53624855D01*
X95228830Y-53707736D01*
X95292264Y-53771170D01*
X95375145Y-53805500D01*
X95375146Y-53805500D01*
X95464854Y-53805500D01*
X95464855Y-53805500D01*
X95547736Y-53771170D01*
X95611170Y-53707736D01*
X95645500Y-53624855D01*
X95645500Y-53535145D01*
X97194500Y-53535145D01*
X97194500Y-53624855D01*
X97228830Y-53707736D01*
X97292264Y-53771170D01*
X97375145Y-53805500D01*
X97375146Y-53805500D01*
X97464854Y-53805500D01*
X97464855Y-53805500D01*
X97547736Y-53771170D01*
X97611170Y-53707736D01*
X97645500Y-53624855D01*
X97645500Y-53535145D01*
X99194500Y-53535145D01*
X99194500Y-53624855D01*
X99228830Y-53707736D01*
X99292264Y-53771170D01*
X99375145Y-53805500D01*
X99375146Y-53805500D01*
X99464854Y-53805500D01*
X99464855Y-53805500D01*
X99547736Y-53771170D01*
X99611170Y-53707736D01*
X99645500Y-53624855D01*
X99645500Y-53535145D01*
X101194500Y-53535145D01*
X101194500Y-53624855D01*
X101228830Y-53707736D01*
X101292264Y-53771170D01*
X101375145Y-53805500D01*
X101375146Y-53805500D01*
X101464854Y-53805500D01*
X101464855Y-53805500D01*
X101547736Y-53771170D01*
X101611170Y-53707736D01*
X101645500Y-53624855D01*
X101645500Y-53535145D01*
X103194500Y-53535145D01*
X103194500Y-53624855D01*
X103228830Y-53707736D01*
X103292264Y-53771170D01*
X103375145Y-53805500D01*
X103375146Y-53805500D01*
X103464854Y-53805500D01*
X103464855Y-53805500D01*
X103547736Y-53771170D01*
X103611170Y-53707736D01*
X103645500Y-53624855D01*
X103645500Y-53535145D01*
X105194500Y-53535145D01*
X105194500Y-53624855D01*
X105228830Y-53707736D01*
X105292264Y-53771170D01*
X105375145Y-53805500D01*
X105375146Y-53805500D01*
X105464854Y-53805500D01*
X105464855Y-53805500D01*
X105547736Y-53771170D01*
X105611170Y-53707736D01*
X105645500Y-53624855D01*
X105645500Y-53535145D01*
X107194500Y-53535145D01*
X107194500Y-53624855D01*
X107228830Y-53707736D01*
X107292264Y-53771170D01*
X107375145Y-53805500D01*
X107375146Y-53805500D01*
X107464854Y-53805500D01*
X107464855Y-53805500D01*
X107547736Y-53771170D01*
X107611170Y-53707736D01*
X107645500Y-53624855D01*
X107645500Y-53535145D01*
X109194500Y-53535145D01*
X109194500Y-53624855D01*
X109228830Y-53707736D01*
X109292264Y-53771170D01*
X109375145Y-53805500D01*
X109375146Y-53805500D01*
X109464854Y-53805500D01*
X109464855Y-53805500D01*
X109547736Y-53771170D01*
X109611170Y-53707736D01*
X109645500Y-53624855D01*
X109645500Y-53535145D01*
X111194500Y-53535145D01*
X111194500Y-53624855D01*
X111228830Y-53707736D01*
X111292264Y-53771170D01*
X111375145Y-53805500D01*
X111375146Y-53805500D01*
X111464854Y-53805500D01*
X111464855Y-53805500D01*
X111547736Y-53771170D01*
X111611170Y-53707736D01*
X111645500Y-53624855D01*
X111645500Y-53535145D01*
X112354500Y-53535145D01*
X112354500Y-53624855D01*
X112388830Y-53707736D01*
X112452264Y-53771170D01*
X112535145Y-53805500D01*
X112535146Y-53805500D01*
X112624854Y-53805500D01*
X112624855Y-53805500D01*
X112707736Y-53771170D01*
X112771170Y-53707736D01*
X112805500Y-53624855D01*
X112805500Y-53535145D01*
X113194500Y-53535145D01*
X113194500Y-53624855D01*
X113228830Y-53707736D01*
X113292264Y-53771170D01*
X113375145Y-53805500D01*
X113375146Y-53805500D01*
X113464854Y-53805500D01*
X113464855Y-53805500D01*
X113547736Y-53771170D01*
X113611170Y-53707736D01*
X113645500Y-53624855D01*
X113645500Y-53535145D01*
X114354500Y-53535145D01*
X114354500Y-53624855D01*
X114388830Y-53707736D01*
X114452264Y-53771170D01*
X114535145Y-53805500D01*
X114535146Y-53805500D01*
X114624854Y-53805500D01*
X114624855Y-53805500D01*
X114707736Y-53771170D01*
X114771170Y-53707736D01*
X114805500Y-53624855D01*
X114805500Y-53535145D01*
X115194500Y-53535145D01*
X115194500Y-53624855D01*
X115228830Y-53707736D01*
X115292264Y-53771170D01*
X115375145Y-53805500D01*
X115375146Y-53805500D01*
X115464854Y-53805500D01*
X115464855Y-53805500D01*
X115547736Y-53771170D01*
X115611170Y-53707736D01*
X115645500Y-53624855D01*
X115645500Y-53535145D01*
X115611170Y-53452264D01*
X115547736Y-53388830D01*
X115464855Y-53354500D01*
X115375145Y-53354500D01*
X115292264Y-53388830D01*
X115228830Y-53452264D01*
X115194500Y-53535145D01*
X114805500Y-53535145D01*
X114771170Y-53452264D01*
X114707736Y-53388830D01*
X114624855Y-53354500D01*
X114535145Y-53354500D01*
X114452264Y-53388830D01*
X114388830Y-53452264D01*
X114354500Y-53535145D01*
X113645500Y-53535145D01*
X113611170Y-53452264D01*
X113547736Y-53388830D01*
X113464855Y-53354500D01*
X113375145Y-53354500D01*
X113292264Y-53388830D01*
X113228830Y-53452264D01*
X113194500Y-53535145D01*
X112805500Y-53535145D01*
X112771170Y-53452264D01*
X112707736Y-53388830D01*
X112624855Y-53354500D01*
X112535145Y-53354500D01*
X112452264Y-53388830D01*
X112388830Y-53452264D01*
X112354500Y-53535145D01*
X111645500Y-53535145D01*
X111611170Y-53452264D01*
X111547736Y-53388830D01*
X111464855Y-53354500D01*
X111375145Y-53354500D01*
X111292264Y-53388830D01*
X111228830Y-53452264D01*
X111194500Y-53535145D01*
X109645500Y-53535145D01*
X109611170Y-53452264D01*
X109547736Y-53388830D01*
X109464855Y-53354500D01*
X109375145Y-53354500D01*
X109292264Y-53388830D01*
X109228830Y-53452264D01*
X109194500Y-53535145D01*
X107645500Y-53535145D01*
X107611170Y-53452264D01*
X107547736Y-53388830D01*
X107464855Y-53354500D01*
X107375145Y-53354500D01*
X107292264Y-53388830D01*
X107228830Y-53452264D01*
X107194500Y-53535145D01*
X105645500Y-53535145D01*
X105611170Y-53452264D01*
X105547736Y-53388830D01*
X105464855Y-53354500D01*
X105375145Y-53354500D01*
X105292264Y-53388830D01*
X105228830Y-53452264D01*
X105194500Y-53535145D01*
X103645500Y-53535145D01*
X103611170Y-53452264D01*
X103547736Y-53388830D01*
X103464855Y-53354500D01*
X103375145Y-53354500D01*
X103292264Y-53388830D01*
X103228830Y-53452264D01*
X103194500Y-53535145D01*
X101645500Y-53535145D01*
X101611170Y-53452264D01*
X101547736Y-53388830D01*
X101464855Y-53354500D01*
X101375145Y-53354500D01*
X101292264Y-53388830D01*
X101228830Y-53452264D01*
X101194500Y-53535145D01*
X99645500Y-53535145D01*
X99611170Y-53452264D01*
X99547736Y-53388830D01*
X99464855Y-53354500D01*
X99375145Y-53354500D01*
X99292264Y-53388830D01*
X99228830Y-53452264D01*
X99194500Y-53535145D01*
X97645500Y-53535145D01*
X97611170Y-53452264D01*
X97547736Y-53388830D01*
X97464855Y-53354500D01*
X97375145Y-53354500D01*
X97292264Y-53388830D01*
X97228830Y-53452264D01*
X97194500Y-53535145D01*
X95645500Y-53535145D01*
X95611170Y-53452264D01*
X95547736Y-53388830D01*
X95464855Y-53354500D01*
X95375145Y-53354500D01*
X95292264Y-53388830D01*
X95228830Y-53452264D01*
X95194500Y-53535145D01*
X93645500Y-53535145D01*
X93611170Y-53452264D01*
X93547736Y-53388830D01*
X93464855Y-53354500D01*
X93375145Y-53354500D01*
X93292264Y-53388830D01*
X93228830Y-53452264D01*
X93194500Y-53535145D01*
X91645500Y-53535145D01*
X91611170Y-53452264D01*
X91547736Y-53388830D01*
X91464855Y-53354500D01*
X91375145Y-53354500D01*
X91292264Y-53388830D01*
X91228830Y-53452264D01*
X91194500Y-53535145D01*
X90000500Y-53535145D01*
X90000500Y-52375145D01*
X93194500Y-52375145D01*
X93194500Y-52464855D01*
X93228830Y-52547736D01*
X93292264Y-52611170D01*
X93375145Y-52645500D01*
X93375146Y-52645500D01*
X93464854Y-52645500D01*
X93464855Y-52645500D01*
X93547736Y-52611170D01*
X93611170Y-52547736D01*
X93645500Y-52464855D01*
X93645500Y-52375145D01*
X114354500Y-52375145D01*
X114354500Y-52464855D01*
X114388830Y-52547736D01*
X114452264Y-52611170D01*
X114535145Y-52645500D01*
X114535146Y-52645500D01*
X114624854Y-52645500D01*
X114624855Y-52645500D01*
X114707736Y-52611170D01*
X114771170Y-52547736D01*
X114805500Y-52464855D01*
X114805500Y-52375145D01*
X114771170Y-52292264D01*
X114707736Y-52228830D01*
X114624855Y-52194500D01*
X114535145Y-52194500D01*
X114452264Y-52228830D01*
X114388830Y-52292264D01*
X114354500Y-52375145D01*
X93645500Y-52375145D01*
X93611170Y-52292264D01*
X93547736Y-52228830D01*
X93464855Y-52194500D01*
X93375145Y-52194500D01*
X93292264Y-52228830D01*
X93228830Y-52292264D01*
X93194500Y-52375145D01*
X90000500Y-52375145D01*
X90000500Y-51535145D01*
X91194500Y-51535145D01*
X91194500Y-51624855D01*
X91228830Y-51707736D01*
X91292264Y-51771170D01*
X91375145Y-51805500D01*
X91375146Y-51805500D01*
X91464854Y-51805500D01*
X91464855Y-51805500D01*
X91547736Y-51771170D01*
X91611170Y-51707736D01*
X91645500Y-51624855D01*
X91645500Y-51535145D01*
X93194500Y-51535145D01*
X93194500Y-51624855D01*
X93228830Y-51707736D01*
X93292264Y-51771170D01*
X93375145Y-51805500D01*
X93375146Y-51805500D01*
X93464854Y-51805500D01*
X93464855Y-51805500D01*
X93547736Y-51771170D01*
X93611170Y-51707736D01*
X93645500Y-51624855D01*
X93645500Y-51535145D01*
X95194500Y-51535145D01*
X95194500Y-51624855D01*
X95228830Y-51707736D01*
X95292264Y-51771170D01*
X95375145Y-51805500D01*
X95375146Y-51805500D01*
X95464854Y-51805500D01*
X95464855Y-51805500D01*
X95547736Y-51771170D01*
X95611170Y-51707736D01*
X95645500Y-51624855D01*
X95645500Y-51535145D01*
X97194500Y-51535145D01*
X97194500Y-51624855D01*
X97228830Y-51707736D01*
X97292264Y-51771170D01*
X97375145Y-51805500D01*
X97375146Y-51805500D01*
X97464854Y-51805500D01*
X97464855Y-51805500D01*
X97547736Y-51771170D01*
X97611170Y-51707736D01*
X97645500Y-51624855D01*
X97645500Y-51535145D01*
X99194500Y-51535145D01*
X99194500Y-51624855D01*
X99228830Y-51707736D01*
X99292264Y-51771170D01*
X99375145Y-51805500D01*
X99375146Y-51805500D01*
X99464854Y-51805500D01*
X99464855Y-51805500D01*
X99547736Y-51771170D01*
X99611170Y-51707736D01*
X99645500Y-51624855D01*
X99645500Y-51535145D01*
X101194500Y-51535145D01*
X101194500Y-51624855D01*
X101228830Y-51707736D01*
X101292264Y-51771170D01*
X101375145Y-51805500D01*
X101375146Y-51805500D01*
X101464854Y-51805500D01*
X101464855Y-51805500D01*
X101547736Y-51771170D01*
X101611170Y-51707736D01*
X101645500Y-51624855D01*
X101645500Y-51535145D01*
X103194500Y-51535145D01*
X103194500Y-51624855D01*
X103228830Y-51707736D01*
X103292264Y-51771170D01*
X103375145Y-51805500D01*
X103375146Y-51805500D01*
X103464854Y-51805500D01*
X103464855Y-51805500D01*
X103547736Y-51771170D01*
X103611170Y-51707736D01*
X103645500Y-51624855D01*
X103645500Y-51535145D01*
X105194500Y-51535145D01*
X105194500Y-51624855D01*
X105228830Y-51707736D01*
X105292264Y-51771170D01*
X105375145Y-51805500D01*
X105375146Y-51805500D01*
X105464854Y-51805500D01*
X105464855Y-51805500D01*
X105547736Y-51771170D01*
X105611170Y-51707736D01*
X105645500Y-51624855D01*
X105645500Y-51535145D01*
X107194500Y-51535145D01*
X107194500Y-51624855D01*
X107228830Y-51707736D01*
X107292264Y-51771170D01*
X107375145Y-51805500D01*
X107375146Y-51805500D01*
X107464854Y-51805500D01*
X107464855Y-51805500D01*
X107547736Y-51771170D01*
X107611170Y-51707736D01*
X107645500Y-51624855D01*
X107645500Y-51535145D01*
X109194500Y-51535145D01*
X109194500Y-51624855D01*
X109228830Y-51707736D01*
X109292264Y-51771170D01*
X109375145Y-51805500D01*
X109375146Y-51805500D01*
X109464854Y-51805500D01*
X109464855Y-51805500D01*
X109547736Y-51771170D01*
X109611170Y-51707736D01*
X109645500Y-51624855D01*
X109645500Y-51535145D01*
X111194500Y-51535145D01*
X111194500Y-51624855D01*
X111228830Y-51707736D01*
X111292264Y-51771170D01*
X111375145Y-51805500D01*
X111375146Y-51805500D01*
X111464854Y-51805500D01*
X111464855Y-51805500D01*
X111547736Y-51771170D01*
X111611170Y-51707736D01*
X111645500Y-51624855D01*
X111645500Y-51535145D01*
X113194500Y-51535145D01*
X113194500Y-51624855D01*
X113228830Y-51707736D01*
X113292264Y-51771170D01*
X113375145Y-51805500D01*
X113375146Y-51805500D01*
X113464854Y-51805500D01*
X113464855Y-51805500D01*
X113547736Y-51771170D01*
X113611170Y-51707736D01*
X113645500Y-51624855D01*
X113645500Y-51535145D01*
X115194500Y-51535145D01*
X115194500Y-51624855D01*
X115228830Y-51707736D01*
X115292264Y-51771170D01*
X115375145Y-51805500D01*
X115375146Y-51805500D01*
X115464854Y-51805500D01*
X115464855Y-51805500D01*
X115547736Y-51771170D01*
X115611170Y-51707736D01*
X115645500Y-51624855D01*
X115645500Y-51535145D01*
X115611170Y-51452264D01*
X115547736Y-51388830D01*
X115464855Y-51354500D01*
X115375145Y-51354500D01*
X115292264Y-51388830D01*
X115228830Y-51452264D01*
X115194500Y-51535145D01*
X113645500Y-51535145D01*
X113611170Y-51452264D01*
X113547736Y-51388830D01*
X113464855Y-51354500D01*
X113375145Y-51354500D01*
X113292264Y-51388830D01*
X113228830Y-51452264D01*
X113194500Y-51535145D01*
X111645500Y-51535145D01*
X111611170Y-51452264D01*
X111547736Y-51388830D01*
X111464855Y-51354500D01*
X111375145Y-51354500D01*
X111292264Y-51388830D01*
X111228830Y-51452264D01*
X111194500Y-51535145D01*
X109645500Y-51535145D01*
X109611170Y-51452264D01*
X109547736Y-51388830D01*
X109464855Y-51354500D01*
X109375145Y-51354500D01*
X109292264Y-51388830D01*
X109228830Y-51452264D01*
X109194500Y-51535145D01*
X107645500Y-51535145D01*
X107611170Y-51452264D01*
X107547736Y-51388830D01*
X107464855Y-51354500D01*
X107375145Y-51354500D01*
X107292264Y-51388830D01*
X107228830Y-51452264D01*
X107194500Y-51535145D01*
X105645500Y-51535145D01*
X105611170Y-51452264D01*
X105547736Y-51388830D01*
X105464855Y-51354500D01*
X105375145Y-51354500D01*
X105292264Y-51388830D01*
X105228830Y-51452264D01*
X105194500Y-51535145D01*
X103645500Y-51535145D01*
X103611170Y-51452264D01*
X103547736Y-51388830D01*
X103464855Y-51354500D01*
X103375145Y-51354500D01*
X103292264Y-51388830D01*
X103228830Y-51452264D01*
X103194500Y-51535145D01*
X101645500Y-51535145D01*
X101611170Y-51452264D01*
X101547736Y-51388830D01*
X101464855Y-51354500D01*
X101375145Y-51354500D01*
X101292264Y-51388830D01*
X101228830Y-51452264D01*
X101194500Y-51535145D01*
X99645500Y-51535145D01*
X99611170Y-51452264D01*
X99547736Y-51388830D01*
X99464855Y-51354500D01*
X99375145Y-51354500D01*
X99292264Y-51388830D01*
X99228830Y-51452264D01*
X99194500Y-51535145D01*
X97645500Y-51535145D01*
X97611170Y-51452264D01*
X97547736Y-51388830D01*
X97464855Y-51354500D01*
X97375145Y-51354500D01*
X97292264Y-51388830D01*
X97228830Y-51452264D01*
X97194500Y-51535145D01*
X95645500Y-51535145D01*
X95611170Y-51452264D01*
X95547736Y-51388830D01*
X95464855Y-51354500D01*
X95375145Y-51354500D01*
X95292264Y-51388830D01*
X95228830Y-51452264D01*
X95194500Y-51535145D01*
X93645500Y-51535145D01*
X93611170Y-51452264D01*
X93547736Y-51388830D01*
X93464855Y-51354500D01*
X93375145Y-51354500D01*
X93292264Y-51388830D01*
X93228830Y-51452264D01*
X93194500Y-51535145D01*
X91645500Y-51535145D01*
X91611170Y-51452264D01*
X91547736Y-51388830D01*
X91464855Y-51354500D01*
X91375145Y-51354500D01*
X91292264Y-51388830D01*
X91228830Y-51452264D01*
X91194500Y-51535145D01*
X90000500Y-51535145D01*
X90000500Y-51044500D01*
X90013387Y-51013387D01*
X90044500Y-51000500D01*
X115955500Y-51000500D01*
X115986613Y-51013387D01*
G37*
G04 #@! TD.AperFunction*
M02*
