G04 #@! TF.GenerationSoftware,KiCad,Pcbnew,9.0.1-9.0.1-0~ubuntu24.04.1*
G04 #@! TF.CreationDate,2025-05-10T10:51:42+02:00*
G04 #@! TF.ProjectId,ILM139C,494c4d31-3339-4432-9e6b-696361645f70,v0.1.0*
G04 #@! TF.SameCoordinates,Original*
G04 #@! TF.FileFunction,Legend,Bot*
G04 #@! TF.FilePolarity,Positive*
%FSLAX46Y46*%
G04 Gerber Fmt 4.6, Leading zero omitted, Abs format (unit mm)*
G04 Created by KiCad (PCBNEW 9.0.1-9.0.1-0~ubuntu24.04.1) date 2025-05-10 10:51:42*
%MOMM*%
%LPD*%
G01*
G04 APERTURE LIST*
%ADD10C,0.300000*%
%ADD11C,0.250000*%
%ADD12C,0.200000*%
%ADD13C,0.100000*%
G04 APERTURE END LIST*
D10*
X92150000Y-53000000D02*
G75*
G02*
X91850000Y-53000000I-150000J0D01*
G01*
X91850000Y-53000000D02*
G75*
G02*
X92150000Y-53000000I150000J0D01*
G01*
X93150000Y-53000000D02*
G75*
G02*
X92850000Y-53000000I-150000J0D01*
G01*
X92850000Y-53000000D02*
G75*
G02*
X93150000Y-53000000I150000J0D01*
G01*
D11*
X115400000Y-68400000D02*
X90600000Y-68400000D01*
X90600000Y-51600000D02*
X115400000Y-51600000D01*
X90600000Y-68400000D02*
X90600000Y-51600000D01*
X115400000Y-51600000D02*
X115400000Y-68400000D01*
X90600000Y-52900000D02*
X91900000Y-51600000D01*
D10*
X92150000Y-54000000D02*
G75*
G02*
X91850000Y-54000000I-150000J0D01*
G01*
X91850000Y-54000000D02*
G75*
G02*
X92150000Y-54000000I150000J0D01*
G01*
D12*
G36*
X107652991Y-66095041D02*
G01*
X107862979Y-66095041D01*
X107862979Y-67115000D01*
X107652991Y-67115000D01*
X107652991Y-66095041D01*
G37*
G36*
X107240343Y-66095041D02*
G01*
X107450331Y-66095041D01*
X107450331Y-67115000D01*
X106751735Y-67115000D01*
X106751735Y-66940061D01*
X107240343Y-66940061D01*
X107240343Y-66095041D01*
G37*
G36*
X106420725Y-66320355D02*
G01*
X106237360Y-67115000D01*
X106027311Y-67115000D01*
X105846754Y-66320355D01*
X105846754Y-67115000D01*
X105636766Y-67115000D01*
X105636766Y-66095041D01*
X105953122Y-66095041D01*
X106132335Y-66906538D01*
X106317105Y-66095041D01*
X106630713Y-66095041D01*
X106630713Y-67115000D01*
X106420725Y-67115000D01*
X106420725Y-66320355D01*
G37*
G36*
X105224423Y-66430448D02*
G01*
X105224423Y-67115000D01*
X105028418Y-67115000D01*
X105028418Y-66122458D01*
X105158600Y-66122458D01*
X105168434Y-66152265D01*
X105181593Y-66179375D01*
X105197379Y-66202900D01*
X105216222Y-66223908D01*
X105262857Y-66258233D01*
X105323568Y-66283038D01*
X105401646Y-66297459D01*
X105462377Y-66300266D01*
X105462377Y-66430448D01*
X105224423Y-66430448D01*
G37*
G36*
X104476124Y-66671332D02*
G01*
X104403500Y-66672554D01*
X104361330Y-66681102D01*
X104338412Y-66689415D01*
X104317801Y-66700944D01*
X104284092Y-66732882D01*
X104262026Y-66775121D01*
X104255976Y-66799501D01*
X104253589Y-66825612D01*
X104253558Y-66828991D01*
X104255471Y-66855245D01*
X104261046Y-66879585D01*
X104270046Y-66901804D01*
X104282222Y-66921650D01*
X104315149Y-66953335D01*
X104335405Y-66964701D01*
X104357855Y-66972773D01*
X104400531Y-66978285D01*
X104429705Y-66976336D01*
X104455761Y-66970514D01*
X104476978Y-66961756D01*
X104495513Y-66949768D01*
X104523656Y-66917558D01*
X104541920Y-66872251D01*
X104548909Y-66823435D01*
X104739357Y-66823435D01*
X104737129Y-66864727D01*
X104731123Y-66903657D01*
X104721712Y-66939309D01*
X104708906Y-66972497D01*
X104693137Y-67002578D01*
X104674297Y-67030088D01*
X104652709Y-67054706D01*
X104628303Y-67076609D01*
X104571302Y-67111954D01*
X104503216Y-67135470D01*
X104423821Y-67145894D01*
X104404744Y-67146263D01*
X104360095Y-67144330D01*
X104317955Y-67138617D01*
X104279237Y-67129480D01*
X104243185Y-67116958D01*
X104210602Y-67101539D01*
X104180817Y-67083106D01*
X104154406Y-67062178D01*
X104130923Y-67038558D01*
X104110684Y-67012645D01*
X104093534Y-66984305D01*
X104068959Y-66920813D01*
X104058012Y-66848211D01*
X104057553Y-66828991D01*
X104059524Y-66791020D01*
X104065501Y-66756017D01*
X104074594Y-66726367D01*
X104087220Y-66698938D01*
X104122001Y-66651633D01*
X104172181Y-66610324D01*
X104219914Y-66583405D01*
X104184236Y-66558619D01*
X104154612Y-66532776D01*
X104133550Y-66509073D01*
X104116785Y-66484019D01*
X104104795Y-66458955D01*
X104096369Y-66432253D01*
X104089732Y-66372745D01*
X104091665Y-66337753D01*
X104097380Y-66304763D01*
X104106564Y-66274380D01*
X104119161Y-66246133D01*
X104153872Y-66196709D01*
X104201061Y-66156628D01*
X104260824Y-66126620D01*
X104333379Y-66108108D01*
X104404744Y-66102857D01*
X104447639Y-66104792D01*
X104488242Y-66110519D01*
X104525534Y-66119680D01*
X104560230Y-66132251D01*
X104591283Y-66147639D01*
X104619511Y-66166049D01*
X104644058Y-66186736D01*
X104665600Y-66210092D01*
X104683592Y-66235417D01*
X104698393Y-66263121D01*
X104702904Y-66273644D01*
X104716773Y-66316667D01*
X104724232Y-66363174D01*
X104726717Y-66435516D01*
X104544757Y-66435516D01*
X104541152Y-66379733D01*
X104533071Y-66341416D01*
X104529308Y-66330858D01*
X104507102Y-66297680D01*
X104472750Y-66274017D01*
X104427309Y-66262005D01*
X104408958Y-66261065D01*
X104382800Y-66262999D01*
X104359518Y-66268720D01*
X104340389Y-66277420D01*
X104323974Y-66289246D01*
X104300139Y-66320860D01*
X104287424Y-66364412D01*
X104285737Y-66390881D01*
X104287693Y-66421227D01*
X104293566Y-66448080D01*
X104302254Y-66469361D01*
X104314158Y-66487820D01*
X104345923Y-66515325D01*
X104390916Y-66532992D01*
X104453960Y-66540139D01*
X104459333Y-66540174D01*
X104476124Y-66540174D01*
X104476124Y-66671332D01*
G37*
G36*
X103667873Y-66104787D02*
G01*
X103705408Y-66110479D01*
X103740788Y-66119737D01*
X103774062Y-66132434D01*
X103805036Y-66148394D01*
X103833647Y-66167494D01*
X103883322Y-66214628D01*
X103922092Y-66272962D01*
X103948754Y-66341667D01*
X103957131Y-66379707D01*
X103961928Y-66419828D01*
X103963092Y-66452613D01*
X103961164Y-66496580D01*
X103955481Y-66538286D01*
X103946306Y-66577178D01*
X103933750Y-66613498D01*
X103918221Y-66646588D01*
X103899700Y-66676845D01*
X103878740Y-66703635D01*
X103855165Y-66727371D01*
X103829586Y-66747567D01*
X103801741Y-66764510D01*
X103772149Y-66777900D01*
X103740598Y-66787825D01*
X103707386Y-66794117D01*
X103672478Y-66796693D01*
X103666276Y-66796751D01*
X103603683Y-66789382D01*
X103575059Y-66780433D01*
X103549923Y-66768452D01*
X103537438Y-66760359D01*
X103517110Y-66743652D01*
X103492696Y-66717696D01*
X103475918Y-66698782D01*
X103475889Y-66698749D01*
X103477848Y-66758850D01*
X103483750Y-66811618D01*
X103492203Y-66851939D01*
X103503740Y-66886726D01*
X103516598Y-66913036D01*
X103531926Y-66935056D01*
X103548193Y-66951531D01*
X103566571Y-66964447D01*
X103608478Y-66979496D01*
X103639654Y-66982192D01*
X103665920Y-66980276D01*
X103689481Y-66974680D01*
X103709402Y-66966016D01*
X103726365Y-66954349D01*
X103739734Y-66940422D01*
X103749943Y-66924068D01*
X103756738Y-66905699D01*
X103760063Y-66885316D01*
X103760065Y-66885289D01*
X103949048Y-66885289D01*
X103946232Y-66917651D01*
X103939726Y-66948582D01*
X103915967Y-67006257D01*
X103878559Y-67056888D01*
X103828451Y-67098603D01*
X103767071Y-67129243D01*
X103732758Y-67139743D01*
X103696423Y-67146711D01*
X103645271Y-67150170D01*
X103604123Y-67148224D01*
X103565290Y-67142415D01*
X103530148Y-67133216D01*
X103497258Y-67120519D01*
X103467376Y-67104789D01*
X103439737Y-67085803D01*
X103391619Y-67038493D01*
X103362499Y-66996175D01*
X103330242Y-66926142D01*
X103302765Y-66828600D01*
X103284642Y-66705884D01*
X103279884Y-66597998D01*
X103281845Y-66526578D01*
X103287753Y-66461089D01*
X103289132Y-66452613D01*
X103480041Y-66452613D01*
X103481962Y-66485419D01*
X103487592Y-66515619D01*
X103496464Y-66542317D01*
X103508488Y-66566078D01*
X103522936Y-66586039D01*
X103539992Y-66602840D01*
X103558878Y-66615925D01*
X103579913Y-66625654D01*
X103602632Y-66631783D01*
X103627151Y-66634279D01*
X103631288Y-66634330D01*
X103656277Y-66632398D01*
X103679267Y-66626694D01*
X103699597Y-66617654D01*
X103717808Y-66605295D01*
X103747506Y-66570999D01*
X103767817Y-66523097D01*
X103776694Y-66460402D01*
X103776857Y-66449804D01*
X103774930Y-66413786D01*
X103769260Y-66381009D01*
X103760514Y-66352983D01*
X103748653Y-66328335D01*
X103734709Y-66308330D01*
X103718230Y-66291705D01*
X103700218Y-66279134D01*
X103680105Y-66269969D01*
X103634691Y-66262471D01*
X103634097Y-66262470D01*
X103608052Y-66264400D01*
X103584079Y-66270096D01*
X103562843Y-66279120D01*
X103543783Y-66291446D01*
X103512592Y-66325503D01*
X103490905Y-66372744D01*
X103480541Y-66434189D01*
X103480041Y-66452613D01*
X103289132Y-66452613D01*
X103296604Y-66406673D01*
X103308793Y-66357313D01*
X103322869Y-66316701D01*
X103339778Y-66280411D01*
X103348455Y-66265279D01*
X103370098Y-66232558D01*
X103394087Y-66203407D01*
X103419685Y-66178420D01*
X103447324Y-66156922D01*
X103476520Y-66139158D01*
X103507514Y-66124874D01*
X103574596Y-66106893D01*
X103628480Y-66102857D01*
X103667873Y-66104787D01*
G37*
G36*
X102269818Y-66441317D02*
G01*
X102276107Y-66388139D01*
X102286460Y-66342015D01*
X102298226Y-66308846D01*
X102313578Y-66277784D01*
X102338389Y-66240427D01*
X102390682Y-66184173D01*
X102453708Y-66139170D01*
X102527104Y-66106020D01*
X102610520Y-66085697D01*
X102695411Y-66079410D01*
X102743043Y-66081349D01*
X102788526Y-66087108D01*
X102831014Y-66096393D01*
X102871288Y-66109190D01*
X102908802Y-66125187D01*
X102944022Y-66144446D01*
X102976721Y-66166766D01*
X103007014Y-66192158D01*
X103060311Y-66252110D01*
X103103571Y-66324481D01*
X103135987Y-66409661D01*
X103156316Y-66508023D01*
X103163014Y-66614241D01*
X103161076Y-66672379D01*
X103155325Y-66727694D01*
X103146112Y-66778923D01*
X103133437Y-66827254D01*
X103117817Y-66871523D01*
X103099067Y-66912845D01*
X103077810Y-66950274D01*
X103053721Y-66984714D01*
X103027412Y-67015515D01*
X102998525Y-67043274D01*
X102967515Y-67067638D01*
X102934129Y-67088872D01*
X102860724Y-67121560D01*
X102778160Y-67140934D01*
X102701028Y-67146263D01*
X102651315Y-67144327D01*
X102604030Y-67138591D01*
X102560109Y-67129372D01*
X102518757Y-67116700D01*
X102480805Y-67101014D01*
X102445544Y-67082199D01*
X102413602Y-67060740D01*
X102384471Y-67036440D01*
X102358533Y-67009712D01*
X102335544Y-66980384D01*
X102315672Y-66948670D01*
X102298925Y-66914552D01*
X102275124Y-66839118D01*
X102265604Y-66766282D01*
X102469975Y-66766282D01*
X102475748Y-66801577D01*
X102485036Y-66833786D01*
X102497085Y-66861548D01*
X102512167Y-66886338D01*
X102529568Y-66907417D01*
X102549660Y-66925567D01*
X102597165Y-66952605D01*
X102655498Y-66967424D01*
X102695411Y-66969919D01*
X102728733Y-66967979D01*
X102759995Y-66962217D01*
X102788328Y-66953042D01*
X102814609Y-66940419D01*
X102860466Y-66905472D01*
X102898152Y-66856965D01*
X102927251Y-66793492D01*
X102946299Y-66713262D01*
X102953026Y-66617049D01*
X102951090Y-66564332D01*
X102945353Y-66515316D01*
X102936391Y-66471956D01*
X102924132Y-66432239D01*
X102909467Y-66397888D01*
X102891975Y-66367060D01*
X102872695Y-66340994D01*
X102850978Y-66318333D01*
X102827720Y-66299737D01*
X102802313Y-66284495D01*
X102775184Y-66272818D01*
X102746084Y-66264571D01*
X102688389Y-66258623D01*
X102651627Y-66260585D01*
X102618326Y-66266503D01*
X102590909Y-66275385D01*
X102566226Y-66287630D01*
X102545146Y-66302496D01*
X102526438Y-66320493D01*
X102495652Y-66366509D01*
X102472757Y-66429735D01*
X102469975Y-66441317D01*
X102269818Y-66441317D01*
G37*
G36*
X101912002Y-66320355D02*
G01*
X101728637Y-67115000D01*
X101518588Y-67115000D01*
X101338031Y-66320355D01*
X101338031Y-67115000D01*
X101128043Y-67115000D01*
X101128043Y-66095041D01*
X101444399Y-66095041D01*
X101623612Y-66906538D01*
X101808382Y-66095041D01*
X102121990Y-66095041D01*
X102121990Y-67115000D01*
X101912002Y-67115000D01*
X101912002Y-66320355D01*
G37*
D13*
G36*
X114044660Y-53330448D02*
G01*
X114044660Y-54015000D01*
X113848655Y-54015000D01*
X113848655Y-53022458D01*
X113978837Y-53022458D01*
X113988671Y-53052265D01*
X114001830Y-53079375D01*
X114017616Y-53102900D01*
X114036459Y-53123908D01*
X114083094Y-53158233D01*
X114143805Y-53183038D01*
X114221883Y-53197459D01*
X114282614Y-53200266D01*
X114282614Y-53330448D01*
X114044660Y-53330448D01*
G37*
G36*
X113296361Y-53571332D02*
G01*
X113223737Y-53572554D01*
X113181567Y-53581102D01*
X113158648Y-53589415D01*
X113138037Y-53600944D01*
X113104329Y-53632882D01*
X113082263Y-53675121D01*
X113076213Y-53699501D01*
X113073825Y-53725612D01*
X113073795Y-53728991D01*
X113075708Y-53755245D01*
X113081283Y-53779585D01*
X113090283Y-53801804D01*
X113102459Y-53821650D01*
X113135386Y-53853335D01*
X113155642Y-53864701D01*
X113178092Y-53872773D01*
X113220768Y-53878285D01*
X113249941Y-53876336D01*
X113275998Y-53870514D01*
X113297215Y-53861756D01*
X113315749Y-53849768D01*
X113343893Y-53817558D01*
X113362157Y-53772251D01*
X113369146Y-53723435D01*
X113559594Y-53723435D01*
X113557366Y-53764727D01*
X113551359Y-53803657D01*
X113541949Y-53839309D01*
X113529143Y-53872497D01*
X113513373Y-53902578D01*
X113494534Y-53930088D01*
X113472946Y-53954706D01*
X113448540Y-53976609D01*
X113391539Y-54011954D01*
X113323453Y-54035470D01*
X113244058Y-54045894D01*
X113224981Y-54046263D01*
X113180332Y-54044330D01*
X113138192Y-54038617D01*
X113099474Y-54029480D01*
X113063422Y-54016958D01*
X113030839Y-54001539D01*
X113001054Y-53983106D01*
X112974643Y-53962178D01*
X112951160Y-53938558D01*
X112930921Y-53912645D01*
X112913771Y-53884305D01*
X112889196Y-53820813D01*
X112878249Y-53748211D01*
X112877790Y-53728991D01*
X112879761Y-53691020D01*
X112885738Y-53656017D01*
X112894831Y-53626367D01*
X112907457Y-53598938D01*
X112942238Y-53551633D01*
X112992418Y-53510324D01*
X113040150Y-53483405D01*
X113004473Y-53458619D01*
X112974849Y-53432776D01*
X112953787Y-53409073D01*
X112937022Y-53384019D01*
X112925032Y-53358955D01*
X112916606Y-53332253D01*
X112909969Y-53272745D01*
X112911902Y-53237753D01*
X112917617Y-53204763D01*
X112926800Y-53174380D01*
X112939398Y-53146133D01*
X112974109Y-53096709D01*
X113021298Y-53056628D01*
X113081061Y-53026620D01*
X113153616Y-53008108D01*
X113224981Y-53002857D01*
X113267876Y-53004792D01*
X113308479Y-53010519D01*
X113345771Y-53019680D01*
X113380467Y-53032251D01*
X113411519Y-53047639D01*
X113439748Y-53066049D01*
X113464295Y-53086736D01*
X113485837Y-53110092D01*
X113503828Y-53135417D01*
X113518630Y-53163121D01*
X113523141Y-53173644D01*
X113537009Y-53216667D01*
X113544469Y-53263174D01*
X113546954Y-53335516D01*
X113364993Y-53335516D01*
X113361389Y-53279733D01*
X113353307Y-53241416D01*
X113349545Y-53230858D01*
X113327339Y-53197680D01*
X113292987Y-53174017D01*
X113247546Y-53162005D01*
X113229194Y-53161065D01*
X113203037Y-53162999D01*
X113179755Y-53168720D01*
X113160626Y-53177420D01*
X113144211Y-53189246D01*
X113120376Y-53220860D01*
X113107661Y-53264412D01*
X113105974Y-53290881D01*
X113107930Y-53321227D01*
X113113803Y-53348080D01*
X113122491Y-53369361D01*
X113134394Y-53387820D01*
X113166160Y-53415325D01*
X113211153Y-53432992D01*
X113274197Y-53440139D01*
X113279570Y-53440174D01*
X113296361Y-53440174D01*
X113296361Y-53571332D01*
G37*
G36*
X112325496Y-53635141D02*
G01*
X112079116Y-53260778D01*
X112314322Y-53260778D01*
X112436077Y-53488473D01*
X112559297Y-53260778D01*
X112794503Y-53260778D01*
X112548123Y-53635141D01*
X112800121Y-54015000D01*
X112564915Y-54015000D01*
X112436077Y-53780343D01*
X112308704Y-54015000D01*
X112073498Y-54015000D01*
X112325496Y-53635141D01*
G37*
G36*
X111710441Y-53004787D02*
G01*
X111747975Y-53010479D01*
X111783356Y-53019737D01*
X111816629Y-53032434D01*
X111847604Y-53048394D01*
X111876215Y-53067494D01*
X111925890Y-53114628D01*
X111964660Y-53172962D01*
X111991322Y-53241667D01*
X111999699Y-53279707D01*
X112004495Y-53319828D01*
X112005660Y-53352613D01*
X112003732Y-53396580D01*
X111998049Y-53438286D01*
X111988874Y-53477178D01*
X111976317Y-53513498D01*
X111960789Y-53546588D01*
X111942268Y-53576845D01*
X111921307Y-53603635D01*
X111897733Y-53627371D01*
X111872153Y-53647567D01*
X111844309Y-53664510D01*
X111814717Y-53677900D01*
X111783165Y-53687825D01*
X111749954Y-53694117D01*
X111715046Y-53696693D01*
X111708844Y-53696751D01*
X111646251Y-53689382D01*
X111617627Y-53680433D01*
X111592490Y-53668452D01*
X111580006Y-53660359D01*
X111559678Y-53643652D01*
X111535264Y-53617696D01*
X111518486Y-53598782D01*
X111518456Y-53598749D01*
X111520416Y-53658850D01*
X111526318Y-53711618D01*
X111534770Y-53751939D01*
X111546307Y-53786726D01*
X111559165Y-53813036D01*
X111574493Y-53835056D01*
X111590761Y-53851531D01*
X111609138Y-53864447D01*
X111651046Y-53879496D01*
X111682221Y-53882192D01*
X111708487Y-53880276D01*
X111732049Y-53874680D01*
X111751969Y-53866016D01*
X111768932Y-53854349D01*
X111782301Y-53840422D01*
X111792511Y-53824068D01*
X111799305Y-53805699D01*
X111802631Y-53785316D01*
X111802633Y-53785289D01*
X111991616Y-53785289D01*
X111988800Y-53817651D01*
X111982294Y-53848582D01*
X111958534Y-53906257D01*
X111921127Y-53956888D01*
X111871019Y-53998603D01*
X111809638Y-54029243D01*
X111775326Y-54039743D01*
X111738991Y-54046711D01*
X111687839Y-54050170D01*
X111646690Y-54048224D01*
X111607857Y-54042415D01*
X111572716Y-54033216D01*
X111539826Y-54020519D01*
X111509943Y-54004789D01*
X111482305Y-53985803D01*
X111434186Y-53938493D01*
X111405067Y-53896175D01*
X111372810Y-53826142D01*
X111345333Y-53728600D01*
X111327210Y-53605884D01*
X111322452Y-53497998D01*
X111324412Y-53426578D01*
X111330321Y-53361089D01*
X111331700Y-53352613D01*
X111522609Y-53352613D01*
X111524530Y-53385419D01*
X111530160Y-53415619D01*
X111539031Y-53442317D01*
X111551056Y-53466078D01*
X111565504Y-53486039D01*
X111582560Y-53502840D01*
X111601446Y-53515925D01*
X111622481Y-53525654D01*
X111645200Y-53531783D01*
X111669719Y-53534279D01*
X111673856Y-53534330D01*
X111698845Y-53532398D01*
X111721834Y-53526694D01*
X111742164Y-53517654D01*
X111760376Y-53505295D01*
X111790074Y-53470999D01*
X111810385Y-53423097D01*
X111819262Y-53360402D01*
X111819425Y-53349804D01*
X111817498Y-53313786D01*
X111811828Y-53281009D01*
X111803082Y-53252983D01*
X111791221Y-53228335D01*
X111777277Y-53208330D01*
X111760798Y-53191705D01*
X111742786Y-53179134D01*
X111722673Y-53169969D01*
X111677259Y-53162471D01*
X111676665Y-53162470D01*
X111650619Y-53164400D01*
X111626647Y-53170096D01*
X111605410Y-53179120D01*
X111586350Y-53191446D01*
X111555160Y-53225503D01*
X111533472Y-53272744D01*
X111523108Y-53334189D01*
X111522609Y-53352613D01*
X111331700Y-53352613D01*
X111339171Y-53306673D01*
X111351361Y-53257313D01*
X111365437Y-53216701D01*
X111382346Y-53180411D01*
X111391023Y-53165279D01*
X111412665Y-53132558D01*
X111436654Y-53103407D01*
X111462253Y-53078420D01*
X111489891Y-53056922D01*
X111519088Y-53039158D01*
X111550082Y-53024874D01*
X111617164Y-53006893D01*
X111671047Y-53002857D01*
X111710441Y-53004787D01*
G37*
G36*
X110766311Y-54015000D02*
G01*
X110556323Y-54015000D01*
X110556323Y-53611632D01*
X110315560Y-53611632D01*
X110281749Y-53613613D01*
X110253331Y-53619660D01*
X110233593Y-53627947D01*
X110217387Y-53639276D01*
X110196446Y-53668371D01*
X110186265Y-53710375D01*
X110185318Y-53731678D01*
X110185318Y-53773504D01*
X110186722Y-53840488D01*
X110184219Y-53918971D01*
X110174510Y-53971367D01*
X110155948Y-54015000D01*
X109930512Y-54015000D01*
X109930512Y-53977264D01*
X109949873Y-53963920D01*
X109963410Y-53948100D01*
X109974077Y-53915385D01*
X109975330Y-53893550D01*
X109978929Y-53760913D01*
X109986491Y-53670039D01*
X109992997Y-53637001D01*
X110001979Y-53610489D01*
X110013934Y-53589198D01*
X110029356Y-53571823D01*
X110068527Y-53545681D01*
X110116747Y-53523461D01*
X110081651Y-53507655D01*
X110050550Y-53489182D01*
X110025113Y-53469493D01*
X110003161Y-53447421D01*
X109985307Y-53423879D01*
X109970688Y-53398078D01*
X109951148Y-53339583D01*
X109947389Y-53300528D01*
X110154543Y-53300528D01*
X110156498Y-53332449D01*
X110162365Y-53360709D01*
X110170846Y-53382240D01*
X110182412Y-53400020D01*
X110192340Y-53410010D01*
X110210189Y-53421948D01*
X110231453Y-53430048D01*
X110286583Y-53436437D01*
X110302921Y-53436632D01*
X110556323Y-53436632D01*
X110556323Y-53170041D01*
X110302921Y-53170041D01*
X110252547Y-53172383D01*
X110218218Y-53180962D01*
X110192340Y-53196725D01*
X110169445Y-53225963D01*
X110156727Y-53268330D01*
X110154543Y-53300528D01*
X109947389Y-53300528D01*
X109944556Y-53271097D01*
X109946485Y-53234391D01*
X109952175Y-53199040D01*
X109961497Y-53165347D01*
X109974297Y-53133731D01*
X109990107Y-53105051D01*
X110008987Y-53079059D01*
X110021553Y-53065078D01*
X110042913Y-53045852D01*
X110066678Y-53029787D01*
X110121519Y-53006994D01*
X110190018Y-52995927D01*
X110218962Y-52995041D01*
X110766311Y-52995041D01*
X110766311Y-54015000D01*
G37*
G36*
X108888388Y-53467896D02*
G01*
X109297190Y-53467896D01*
X109297190Y-53642896D01*
X109064793Y-53642896D01*
X109070611Y-53681368D01*
X109080307Y-53713811D01*
X109106824Y-53759950D01*
X109115168Y-53770207D01*
X109160413Y-53813003D01*
X109216503Y-53845077D01*
X109247555Y-53856154D01*
X109279761Y-53863481D01*
X109323751Y-53867110D01*
X109357213Y-53865181D01*
X109389206Y-53859494D01*
X109448473Y-53837345D01*
X109500923Y-53801344D01*
X109545498Y-53751859D01*
X109580629Y-53689295D01*
X109604365Y-53614460D01*
X109611331Y-53572746D01*
X109614667Y-53528758D01*
X109614950Y-53511310D01*
X109613012Y-53461350D01*
X109607263Y-53414709D01*
X109598246Y-53373179D01*
X109585892Y-53334947D01*
X109571007Y-53301532D01*
X109553214Y-53271355D01*
X109533408Y-53245462D01*
X109511042Y-53222756D01*
X109486823Y-53203767D01*
X109460294Y-53187985D01*
X109400936Y-53166471D01*
X109332241Y-53158634D01*
X109329369Y-53158623D01*
X109291982Y-53160569D01*
X109256811Y-53166377D01*
X109225269Y-53175541D01*
X109196019Y-53188178D01*
X109148751Y-53220233D01*
X109126728Y-53242044D01*
X109109163Y-53267426D01*
X109085798Y-53322388D01*
X108888388Y-53322388D01*
X108895137Y-53282181D01*
X108905464Y-53244081D01*
X108919127Y-53208462D01*
X108936084Y-53175084D01*
X108979370Y-53115453D01*
X109034865Y-53065466D01*
X109102404Y-53025772D01*
X109181895Y-52997445D01*
X109273081Y-52981915D01*
X109330773Y-52979410D01*
X109378232Y-52981345D01*
X109423897Y-52987073D01*
X109467466Y-52996427D01*
X109509051Y-53009314D01*
X109548468Y-53025581D01*
X109585702Y-53045141D01*
X109653282Y-53093749D01*
X109711104Y-53154495D01*
X109758305Y-53226833D01*
X109793834Y-53310213D01*
X109816484Y-53403989D01*
X109822587Y-53454633D01*
X109824968Y-53507355D01*
X109824999Y-53514118D01*
X109823068Y-53565693D01*
X109817370Y-53615513D01*
X109808000Y-53663611D01*
X109795114Y-53709623D01*
X109778842Y-53753424D01*
X109759334Y-53794816D01*
X109736807Y-53833525D01*
X109711348Y-53869524D01*
X109683305Y-53902433D01*
X109652648Y-53932362D01*
X109619862Y-53958899D01*
X109584785Y-53982215D01*
X109547998Y-54001946D01*
X109509232Y-54018240D01*
X109469093Y-54030827D01*
X109427271Y-54039774D01*
X109347565Y-54046263D01*
X109301837Y-54044283D01*
X109259401Y-54038240D01*
X109223424Y-54029085D01*
X109189723Y-54016323D01*
X109159313Y-54000572D01*
X109130615Y-53981286D01*
X109077021Y-53931044D01*
X109039575Y-53882498D01*
X109014357Y-54016892D01*
X108888388Y-54016892D01*
X108888388Y-53467896D01*
G37*
G36*
X108680599Y-54015000D02*
G01*
X108221422Y-54015000D01*
X108164508Y-54013010D01*
X108113780Y-54006899D01*
X108074320Y-53998110D01*
X108038566Y-53985930D01*
X108008214Y-53971413D01*
X107980348Y-53953723D01*
X107963807Y-53940811D01*
X107921327Y-53895229D01*
X107887784Y-53836853D01*
X107875787Y-53804362D01*
X107867605Y-53770809D01*
X107863057Y-53721481D01*
X107863813Y-53708963D01*
X108064618Y-53708963D01*
X108066567Y-53736127D01*
X108072389Y-53760195D01*
X108081106Y-53779526D01*
X108093026Y-53796217D01*
X108125243Y-53821026D01*
X108171270Y-53836045D01*
X108220018Y-53840061D01*
X108470611Y-53840061D01*
X108470611Y-53576461D01*
X108220018Y-53576461D01*
X108185130Y-53578413D01*
X108154578Y-53584257D01*
X108130994Y-53592756D01*
X108110936Y-53604338D01*
X108095551Y-53617782D01*
X108083233Y-53633846D01*
X108068004Y-53673258D01*
X108064618Y-53708963D01*
X107863813Y-53708963D01*
X107865024Y-53688906D01*
X107870979Y-53657788D01*
X107880459Y-53629379D01*
X107893716Y-53602178D01*
X107931820Y-53551189D01*
X107988409Y-53502489D01*
X108032439Y-53474307D01*
X107990861Y-53445352D01*
X107957269Y-53416461D01*
X107935187Y-53392115D01*
X107917987Y-53366938D01*
X107906246Y-53342693D01*
X107898212Y-53317100D01*
X107894723Y-53285080D01*
X108094050Y-53285080D01*
X108096000Y-53309916D01*
X108101833Y-53331804D01*
X108110561Y-53349249D01*
X108122506Y-53364201D01*
X108155348Y-53386314D01*
X108203580Y-53399092D01*
X108242427Y-53401461D01*
X108470611Y-53401461D01*
X108470611Y-53170041D01*
X108242427Y-53170041D01*
X108206961Y-53171989D01*
X108176264Y-53177807D01*
X108153049Y-53186179D01*
X108133639Y-53197543D01*
X108119219Y-53210555D01*
X108108033Y-53226034D01*
X108095535Y-53263617D01*
X108094050Y-53285080D01*
X107894723Y-53285080D01*
X107892427Y-53264014D01*
X107899987Y-53205664D01*
X107923020Y-53147023D01*
X107940259Y-53119029D01*
X107960867Y-53093028D01*
X107984812Y-53069291D01*
X108012416Y-53048152D01*
X108042020Y-53030758D01*
X108105435Y-53007579D01*
X108184119Y-52996241D01*
X108225635Y-52995041D01*
X108680599Y-52995041D01*
X108680599Y-54015000D01*
G37*
G36*
X107074397Y-52995041D02*
G01*
X107284385Y-52995041D01*
X107284385Y-54015000D01*
X106585789Y-54015000D01*
X106585789Y-53840061D01*
X107074397Y-53840061D01*
X107074397Y-52995041D01*
G37*
G36*
X106220951Y-53576461D02*
G01*
X105732343Y-53576461D01*
X105732343Y-53401461D01*
X106220951Y-53401461D01*
X106220951Y-53170041D01*
X105693142Y-53170041D01*
X105693142Y-52995041D01*
X106430939Y-52995041D01*
X106430939Y-54015000D01*
X105667985Y-54015000D01*
X105667985Y-53840061D01*
X106220951Y-53840061D01*
X106220951Y-53576461D01*
G37*
G36*
X105500740Y-54015000D02*
G01*
X105101769Y-54015000D01*
X105042413Y-54013022D01*
X104988797Y-54006997D01*
X104945724Y-53998156D01*
X104906537Y-53985926D01*
X104873340Y-53971435D01*
X104843009Y-53953851D01*
X104791108Y-53910272D01*
X104778331Y-53896053D01*
X104731416Y-53828045D01*
X104694366Y-53746680D01*
X104668697Y-53652172D01*
X104656146Y-53545338D01*
X104655204Y-53505753D01*
X104865159Y-53505753D01*
X104867114Y-53564124D01*
X104872983Y-53616861D01*
X104881704Y-53659859D01*
X104893659Y-53698237D01*
X104907456Y-53729349D01*
X104923974Y-53756598D01*
X104941925Y-53778630D01*
X104962272Y-53797282D01*
X105008705Y-53823896D01*
X105065139Y-53837914D01*
X105101769Y-53840061D01*
X105290752Y-53840061D01*
X105290752Y-53170041D01*
X105101769Y-53170041D01*
X105066744Y-53171997D01*
X105034537Y-53177872D01*
X105007066Y-53186881D01*
X104982034Y-53199310D01*
X104960177Y-53214563D01*
X104940589Y-53233022D01*
X104907969Y-53280035D01*
X104883650Y-53343400D01*
X104868738Y-53427670D01*
X104865159Y-53505753D01*
X104655204Y-53505753D01*
X104655171Y-53504349D01*
X104657113Y-53447221D01*
X104662886Y-53392197D01*
X104672220Y-53340371D01*
X104685112Y-53290990D01*
X104701048Y-53245364D01*
X104720233Y-53202452D01*
X104741903Y-53163568D01*
X104766512Y-53127597D01*
X104778331Y-53112644D01*
X104803145Y-53086455D01*
X104830285Y-53063800D01*
X104858556Y-53045413D01*
X104889452Y-53030039D01*
X104961025Y-53007762D01*
X105052449Y-52996315D01*
X105101769Y-52995041D01*
X105500740Y-52995041D01*
X105500740Y-54015000D01*
G37*
G36*
X104125531Y-53260778D02*
G01*
X104125531Y-54015000D01*
X103929526Y-54015000D01*
X103929526Y-53562479D01*
X103927597Y-53531356D01*
X103921907Y-53503554D01*
X103913263Y-53480556D01*
X103901550Y-53460695D01*
X103887609Y-53444743D01*
X103871087Y-53431828D01*
X103831045Y-53415524D01*
X103795131Y-53411781D01*
X103770566Y-53413700D01*
X103748813Y-53419319D01*
X103730912Y-53427911D01*
X103715926Y-53439486D01*
X103704358Y-53453371D01*
X103695857Y-53469723D01*
X103688702Y-53509966D01*
X103688702Y-54015000D01*
X103492698Y-54015000D01*
X103492698Y-53560464D01*
X103490768Y-53530329D01*
X103485079Y-53503197D01*
X103476362Y-53480436D01*
X103464534Y-53460667D01*
X103450411Y-53444680D01*
X103433660Y-53431698D01*
X103393220Y-53415377D01*
X103358303Y-53411781D01*
X103333759Y-53413700D01*
X103312021Y-53419319D01*
X103294128Y-53427913D01*
X103279147Y-53439490D01*
X103267583Y-53453379D01*
X103259084Y-53469736D01*
X103251935Y-53509966D01*
X103251935Y-54015000D01*
X103055930Y-54015000D01*
X103055930Y-53479131D01*
X103057867Y-53442819D01*
X103063608Y-53409237D01*
X103072587Y-53379698D01*
X103084875Y-53352845D01*
X103099870Y-53329449D01*
X103117809Y-53308742D01*
X103161730Y-53275960D01*
X103217140Y-53254437D01*
X103285189Y-53245318D01*
X103296754Y-53245146D01*
X103335348Y-53247130D01*
X103370746Y-53253201D01*
X103400244Y-53262329D01*
X103427741Y-53275058D01*
X103476738Y-53310795D01*
X103517916Y-53357192D01*
X103549114Y-53312782D01*
X103591892Y-53278584D01*
X103645706Y-53255580D01*
X103709814Y-53245449D01*
X103723751Y-53245146D01*
X103762764Y-53248569D01*
X103798089Y-53256342D01*
X103825595Y-53266677D01*
X103851706Y-53280864D01*
X103901327Y-53321596D01*
X103930930Y-53354628D01*
X103930930Y-53260778D01*
X104125531Y-53260778D01*
G37*
G36*
X102637347Y-53247101D02*
G01*
X102683864Y-53252969D01*
X102722774Y-53261825D01*
X102757994Y-53273999D01*
X102787571Y-53288373D01*
X102813949Y-53305650D01*
X102836268Y-53324968D01*
X102855658Y-53346967D01*
X102885560Y-53398711D01*
X102904364Y-53463170D01*
X102909812Y-53507035D01*
X102720829Y-53507035D01*
X102714765Y-53475192D01*
X102704809Y-53449985D01*
X102694392Y-53435220D01*
X102681009Y-53423569D01*
X102645742Y-53409074D01*
X102582221Y-53403354D01*
X102548704Y-53405308D01*
X102521045Y-53411170D01*
X102502265Y-53419154D01*
X102487655Y-53429919D01*
X102478129Y-53441885D01*
X102471928Y-53456070D01*
X102468832Y-53479009D01*
X102470735Y-53495482D01*
X102476242Y-53510362D01*
X102497235Y-53534453D01*
X102502415Y-53537871D01*
X102537784Y-53552037D01*
X102625635Y-53567302D01*
X102704037Y-53581285D01*
X102747056Y-53590516D01*
X102785395Y-53602960D01*
X102816212Y-53617101D01*
X102843200Y-53633965D01*
X102864986Y-53652226D01*
X102883456Y-53672923D01*
X102909982Y-53720351D01*
X102924249Y-53778550D01*
X102926665Y-53819422D01*
X102924737Y-53852905D01*
X102919059Y-53884294D01*
X102909958Y-53912993D01*
X102897524Y-53939340D01*
X102882113Y-53962906D01*
X102863742Y-53983865D01*
X102842655Y-54001990D01*
X102818920Y-54017226D01*
X102763797Y-54038496D01*
X102698904Y-54046257D01*
X102697015Y-54046263D01*
X102663110Y-54044302D01*
X102630096Y-54038390D01*
X102567901Y-54015224D01*
X102507906Y-53975852D01*
X102467427Y-53938490D01*
X102464879Y-53975807D01*
X102454861Y-54001478D01*
X102445018Y-54015000D01*
X102232221Y-54015000D01*
X102232221Y-53990270D01*
X102255266Y-53965219D01*
X102269390Y-53941457D01*
X102276959Y-53903313D01*
X102277040Y-53897885D01*
X102277040Y-53710307D01*
X102468832Y-53710307D01*
X102470770Y-53745266D01*
X102476521Y-53776692D01*
X102485217Y-53802663D01*
X102497058Y-53825379D01*
X102511050Y-53843748D01*
X102527712Y-53859053D01*
X102567815Y-53879850D01*
X102618647Y-53888047D01*
X102624231Y-53888115D01*
X102649705Y-53886197D01*
X102672134Y-53880585D01*
X102690320Y-53872081D01*
X102705380Y-53860649D01*
X102716666Y-53847161D01*
X102724745Y-53831324D01*
X102730660Y-53797074D01*
X102728646Y-53773330D01*
X102722364Y-53753131D01*
X102713523Y-53738636D01*
X102701200Y-53726173D01*
X102664300Y-53706127D01*
X102618614Y-53693515D01*
X102551447Y-53680875D01*
X102499125Y-53669526D01*
X102468832Y-53657123D01*
X102468832Y-53710307D01*
X102277040Y-53710307D01*
X102277040Y-53477604D01*
X102278991Y-53442617D01*
X102284833Y-53410454D01*
X102293825Y-53382884D01*
X102306204Y-53357808D01*
X102321390Y-53335928D01*
X102339721Y-53316394D01*
X102386148Y-53284183D01*
X102448116Y-53260774D01*
X102529536Y-53247376D01*
X102586435Y-53245146D01*
X102637347Y-53247101D01*
G37*
G36*
X101770663Y-53272501D02*
G01*
X101879901Y-53272501D01*
X101879901Y-53069535D01*
X102075845Y-53069535D01*
X102075845Y-53272501D01*
X102172504Y-53272501D01*
X102172504Y-53402744D01*
X102075845Y-53402744D01*
X102075845Y-53868454D01*
X102073888Y-53902916D01*
X102068004Y-53933644D01*
X102059294Y-53958209D01*
X102047348Y-53979740D01*
X102033095Y-53997281D01*
X102015937Y-54012132D01*
X101972716Y-54033837D01*
X101914026Y-54045109D01*
X101884053Y-54046263D01*
X101835728Y-54044127D01*
X101792971Y-54036990D01*
X101770663Y-54030875D01*
X101770663Y-53893672D01*
X101815482Y-53897885D01*
X101842657Y-53895616D01*
X101861307Y-53887549D01*
X101874535Y-53867052D01*
X101879779Y-53825887D01*
X101879901Y-53815148D01*
X101879901Y-53402744D01*
X101770663Y-53402744D01*
X101770663Y-53272501D01*
G37*
G36*
X101637856Y-53260778D02*
G01*
X101637856Y-54015000D01*
X101441851Y-54015000D01*
X101441851Y-53614197D01*
X101439898Y-53578818D01*
X101434036Y-53547484D01*
X101425407Y-53522703D01*
X101413607Y-53501181D01*
X101399659Y-53483950D01*
X101382923Y-53469563D01*
X101341206Y-53449324D01*
X101285025Y-53440106D01*
X101269660Y-53439747D01*
X101208050Y-53445364D01*
X101208050Y-53246550D01*
X101231864Y-53245146D01*
X101259703Y-53247082D01*
X101286560Y-53252818D01*
X101337025Y-53275440D01*
X101382588Y-53313050D01*
X101421887Y-53366148D01*
X101441851Y-53406163D01*
X101441851Y-53260778D01*
X101637856Y-53260778D01*
G37*
G36*
X100898900Y-53260778D02*
G01*
X101094904Y-53260778D01*
X101094904Y-54015000D01*
X100898900Y-54015000D01*
X100898900Y-53260778D01*
G37*
G36*
X100898900Y-52995041D02*
G01*
X101094904Y-52995041D01*
X101094904Y-53170041D01*
X100898900Y-53170041D01*
X100898900Y-52995041D01*
G37*
G36*
X100302886Y-53635141D02*
G01*
X100056506Y-53260778D01*
X100291712Y-53260778D01*
X100413467Y-53488473D01*
X100536687Y-53260778D01*
X100771893Y-53260778D01*
X100525513Y-53635141D01*
X100777511Y-54015000D01*
X100542305Y-54015000D01*
X100413467Y-53780343D01*
X100286094Y-54015000D01*
X100050888Y-54015000D01*
X100302886Y-53635141D01*
G37*
D12*
G36*
X114103366Y-66676461D02*
G01*
X113614758Y-66676461D01*
X113614758Y-66501461D01*
X114103366Y-66501461D01*
X114103366Y-66270041D01*
X113575557Y-66270041D01*
X113575557Y-66095041D01*
X114313354Y-66095041D01*
X114313354Y-67115000D01*
X113550400Y-67115000D01*
X113550400Y-66940061D01*
X114103366Y-66940061D01*
X114103366Y-66676461D01*
G37*
G36*
X113383155Y-67115000D02*
G01*
X112984184Y-67115000D01*
X112924827Y-67113022D01*
X112871211Y-67106997D01*
X112828139Y-67098156D01*
X112788951Y-67085926D01*
X112755755Y-67071435D01*
X112725423Y-67053851D01*
X112673522Y-67010272D01*
X112660745Y-66996053D01*
X112613831Y-66928045D01*
X112576781Y-66846680D01*
X112551112Y-66752172D01*
X112538561Y-66645338D01*
X112537619Y-66605753D01*
X112747574Y-66605753D01*
X112749529Y-66664124D01*
X112755398Y-66716861D01*
X112764119Y-66759859D01*
X112776074Y-66798237D01*
X112789870Y-66829349D01*
X112806389Y-66856598D01*
X112824340Y-66878630D01*
X112844687Y-66897282D01*
X112891119Y-66923896D01*
X112947553Y-66937914D01*
X112984184Y-66940061D01*
X113173167Y-66940061D01*
X113173167Y-66270041D01*
X112984184Y-66270041D01*
X112949159Y-66271997D01*
X112916952Y-66277872D01*
X112889480Y-66286881D01*
X112864448Y-66299310D01*
X112842592Y-66314563D01*
X112823003Y-66333022D01*
X112790383Y-66380035D01*
X112766064Y-66443400D01*
X112751153Y-66527670D01*
X112747574Y-66605753D01*
X112537619Y-66605753D01*
X112537586Y-66604349D01*
X112539527Y-66547221D01*
X112545300Y-66492197D01*
X112554635Y-66440371D01*
X112567526Y-66390990D01*
X112583462Y-66345364D01*
X112602647Y-66302452D01*
X112624318Y-66263568D01*
X112648926Y-66227597D01*
X112660745Y-66212644D01*
X112685559Y-66186455D01*
X112712700Y-66163800D01*
X112740970Y-66145413D01*
X112771866Y-66130039D01*
X112843440Y-66107762D01*
X112934863Y-66096315D01*
X112984184Y-66095041D01*
X113383155Y-66095041D01*
X113383155Y-67115000D01*
G37*
G36*
X112392567Y-66360778D02*
G01*
X112392567Y-67115000D01*
X112196562Y-67115000D01*
X112196562Y-66714197D01*
X112194608Y-66678818D01*
X112188746Y-66647484D01*
X112180118Y-66622703D01*
X112168317Y-66601181D01*
X112154370Y-66583950D01*
X112137633Y-66569563D01*
X112095916Y-66549324D01*
X112039735Y-66540106D01*
X112024371Y-66539747D01*
X111962760Y-66545364D01*
X111962760Y-66346550D01*
X111986574Y-66345146D01*
X112014414Y-66347082D01*
X112041271Y-66352818D01*
X112091735Y-66375440D01*
X112137298Y-66413050D01*
X112176598Y-66466148D01*
X112196562Y-66506163D01*
X112196562Y-66360778D01*
X112392567Y-66360778D01*
G37*
G36*
X111397582Y-66270041D02*
G01*
X111099423Y-66270041D01*
X111099423Y-66095041D01*
X111917026Y-66095041D01*
X111917026Y-66270041D01*
X111607570Y-66270041D01*
X111607570Y-67115000D01*
X111397582Y-67115000D01*
X111397582Y-66270041D01*
G37*
G36*
X110842459Y-66347084D02*
G01*
X110881178Y-66352835D01*
X110916847Y-66362049D01*
X110950293Y-66374726D01*
X110981035Y-66390537D01*
X111009473Y-66409545D01*
X111059107Y-66456763D01*
X111099125Y-66516537D01*
X111128812Y-66589455D01*
X111146811Y-66676188D01*
X111151569Y-66756512D01*
X111149632Y-66806057D01*
X111143889Y-66852724D01*
X111134774Y-66895154D01*
X111122265Y-66934659D01*
X111106973Y-66970089D01*
X111088659Y-67002570D01*
X111067985Y-67031296D01*
X111044601Y-67057040D01*
X111019021Y-67079375D01*
X110990968Y-67098651D01*
X110927956Y-67127611D01*
X110855253Y-67143480D01*
X110805782Y-67146263D01*
X110764445Y-67144332D01*
X110724639Y-67138632D01*
X110686505Y-67129283D01*
X110650327Y-67116431D01*
X110616434Y-67100281D01*
X110584899Y-67080929D01*
X110556177Y-67058728D01*
X110530179Y-67033654D01*
X110507379Y-67006207D01*
X110487628Y-66976221D01*
X110471322Y-66944278D01*
X110458359Y-66910113D01*
X110455782Y-66901653D01*
X110648978Y-66901653D01*
X110659904Y-66923929D01*
X110673817Y-66943482D01*
X110709477Y-66973672D01*
X110755041Y-66991709D01*
X110798760Y-66996481D01*
X110825665Y-66994552D01*
X110850572Y-66988868D01*
X110872859Y-66979818D01*
X110892944Y-66967462D01*
X110925822Y-66933557D01*
X110927598Y-66930963D01*
X110938407Y-66910555D01*
X110946196Y-66886097D01*
X110954754Y-66815787D01*
X110955564Y-66798461D01*
X110448760Y-66798461D01*
X110447356Y-66764877D01*
X110454156Y-66668279D01*
X110651787Y-66668279D01*
X110952755Y-66668279D01*
X110946423Y-66627702D01*
X110936741Y-66592625D01*
X110925357Y-66566119D01*
X110911322Y-66543855D01*
X110896151Y-66527176D01*
X110878743Y-66513994D01*
X110838456Y-66498280D01*
X110804378Y-66494989D01*
X110777692Y-66496934D01*
X110753398Y-66502730D01*
X110732672Y-66511700D01*
X110714168Y-66524015D01*
X110684236Y-66558084D01*
X110662852Y-66606827D01*
X110651787Y-66668279D01*
X110454156Y-66668279D01*
X110454694Y-66660644D01*
X110463614Y-66612440D01*
X110475518Y-66569248D01*
X110476787Y-66565453D01*
X110491534Y-66530777D01*
X110509365Y-66498713D01*
X110530077Y-66469424D01*
X110553542Y-66442952D01*
X110608142Y-66398862D01*
X110672106Y-66367268D01*
X110744398Y-66349174D01*
X110801569Y-66345146D01*
X110842459Y-66347084D01*
G37*
G36*
X109673900Y-66640680D02*
G01*
X109678928Y-66599891D01*
X109687578Y-66561762D01*
X109699358Y-66527346D01*
X109714368Y-66495620D01*
X109732085Y-66467271D01*
X109752715Y-66441662D01*
X109801801Y-66399366D01*
X109861539Y-66368666D01*
X109932342Y-66350205D01*
X110000086Y-66345146D01*
X110043882Y-66347089D01*
X110085074Y-66352871D01*
X110122259Y-66362014D01*
X110156918Y-66374599D01*
X110188188Y-66390102D01*
X110216965Y-66408753D01*
X110266360Y-66454696D01*
X110305683Y-66512748D01*
X110334712Y-66583967D01*
X110352367Y-66669795D01*
X110357108Y-66751322D01*
X110355167Y-66802665D01*
X110349395Y-66850804D01*
X110340320Y-66893927D01*
X110327853Y-66933934D01*
X110312721Y-66969412D01*
X110294573Y-67001864D01*
X110274147Y-67030384D01*
X110250996Y-67055928D01*
X110225620Y-67078090D01*
X110197715Y-67097250D01*
X110134477Y-67126338D01*
X110060417Y-67142838D01*
X110002895Y-67146263D01*
X109962190Y-67144329D01*
X109923553Y-67138607D01*
X109887664Y-67129390D01*
X109854047Y-67116733D01*
X109823232Y-67100984D01*
X109794886Y-67082107D01*
X109769335Y-67060403D01*
X109746463Y-67035839D01*
X109709285Y-66978619D01*
X109684178Y-66910809D01*
X109673900Y-66852194D01*
X109861539Y-66852194D01*
X109873297Y-66892185D01*
X109887599Y-66924562D01*
X109901209Y-66945305D01*
X109917000Y-66961680D01*
X109933454Y-66972968D01*
X109952095Y-66981007D01*
X109998338Y-66988072D01*
X110002895Y-66988115D01*
X110027598Y-66986179D01*
X110050435Y-66980442D01*
X110070805Y-66971309D01*
X110089277Y-66958774D01*
X110120650Y-66923316D01*
X110144345Y-66872310D01*
X110158475Y-66803273D01*
X110161103Y-66751322D01*
X110159191Y-66705279D01*
X110153621Y-66662041D01*
X110144751Y-66622832D01*
X110132786Y-66588017D01*
X110123306Y-66567834D01*
X110111566Y-66549902D01*
X110097052Y-66534795D01*
X110060265Y-66513229D01*
X110012573Y-66503655D01*
X110001490Y-66503354D01*
X109972195Y-66505362D01*
X109946877Y-66511599D01*
X109928373Y-66520370D01*
X109912220Y-66532562D01*
X109886647Y-66566951D01*
X109865987Y-66622483D01*
X109861539Y-66640680D01*
X109673900Y-66640680D01*
G37*
G36*
X109537124Y-66095041D02*
G01*
X109537124Y-67115000D01*
X109341119Y-67115000D01*
X109341119Y-66660464D01*
X109339204Y-66634752D01*
X109333620Y-66610837D01*
X109324574Y-66588891D01*
X109312317Y-66569215D01*
X109278982Y-66537504D01*
X109258360Y-66525988D01*
X109235459Y-66517720D01*
X109189932Y-66511781D01*
X109164622Y-66513734D01*
X109142056Y-66519592D01*
X109123604Y-66528463D01*
X109107382Y-66540655D01*
X109091930Y-66558065D01*
X109080014Y-66578312D01*
X109073101Y-66600387D01*
X109069521Y-66652098D01*
X109069521Y-67115000D01*
X108873577Y-67115000D01*
X108873577Y-66607158D01*
X108875537Y-66563861D01*
X108881444Y-66524648D01*
X108890268Y-66492486D01*
X108902412Y-66463585D01*
X108916857Y-66439376D01*
X108934276Y-66417948D01*
X108950574Y-66402604D01*
X108998601Y-66372052D01*
X109059399Y-66351567D01*
X109119957Y-66345146D01*
X109156619Y-66347119D01*
X109190685Y-66353111D01*
X109219935Y-66362297D01*
X109247225Y-66375085D01*
X109295213Y-66410671D01*
X109338174Y-66462500D01*
X109341119Y-66466962D01*
X109341119Y-66095041D01*
X109537124Y-66095041D01*
G37*
G36*
X95054221Y-67115000D02*
G01*
X94793797Y-66360778D01*
X95001037Y-66360778D01*
X95153628Y-66912461D01*
X95317393Y-66360778D01*
X95524633Y-66360778D01*
X95259996Y-67115000D01*
X95054221Y-67115000D01*
G37*
G36*
X94422114Y-66104799D02*
G01*
X94458395Y-66110575D01*
X94492501Y-66119940D01*
X94524832Y-66132882D01*
X94554920Y-66149137D01*
X94582974Y-66168755D01*
X94608741Y-66191568D01*
X94632196Y-66217582D01*
X94641939Y-66230291D01*
X94675412Y-66288323D01*
X94701240Y-66365848D01*
X94718741Y-66470348D01*
X94725920Y-66612590D01*
X94725959Y-66625293D01*
X94723991Y-66710609D01*
X94718032Y-66786849D01*
X94709408Y-66846630D01*
X94697564Y-66899611D01*
X94684241Y-66941212D01*
X94668271Y-66977578D01*
X94655922Y-66999289D01*
X94635401Y-67028821D01*
X94612333Y-67055201D01*
X94587065Y-67078200D01*
X94559567Y-67097969D01*
X94498377Y-67127583D01*
X94429223Y-67143581D01*
X94384324Y-67146263D01*
X94345589Y-67144316D01*
X94308694Y-67138507D01*
X94274668Y-67129201D01*
X94242527Y-67116328D01*
X94212765Y-67100192D01*
X94184975Y-67080671D01*
X94135480Y-67031504D01*
X94126770Y-67020294D01*
X94093415Y-66961191D01*
X94067237Y-66881573D01*
X94049554Y-66775295D01*
X94042751Y-66630849D01*
X94042844Y-66626697D01*
X94238756Y-66626697D01*
X94246000Y-66788347D01*
X94253779Y-66847096D01*
X94263873Y-66887506D01*
X94263913Y-66887609D01*
X94275562Y-66912643D01*
X94289846Y-66933823D01*
X94305510Y-66950064D01*
X94323282Y-66962723D01*
X94342350Y-66971456D01*
X94363201Y-66976670D01*
X94384324Y-66978285D01*
X94407763Y-66976341D01*
X94429273Y-66970553D01*
X94448048Y-66961439D01*
X94464928Y-66948896D01*
X94493061Y-66913244D01*
X94499118Y-66901531D01*
X94513477Y-66853032D01*
X94525853Y-66752297D01*
X94529954Y-66623888D01*
X94522721Y-66456244D01*
X94515003Y-66396298D01*
X94505009Y-66355336D01*
X94504736Y-66354610D01*
X94494004Y-66329790D01*
X94480533Y-66308568D01*
X94465298Y-66291797D01*
X94447906Y-66278543D01*
X94429098Y-66269146D01*
X94408560Y-66263290D01*
X94384324Y-66261065D01*
X94361945Y-66263005D01*
X94341084Y-66268763D01*
X94305220Y-66290748D01*
X94276509Y-66327002D01*
X94269530Y-66340628D01*
X94255494Y-66388461D01*
X94243118Y-66490001D01*
X94238756Y-66626697D01*
X94042844Y-66626697D01*
X94044718Y-66543115D01*
X94050675Y-66465230D01*
X94059253Y-66404704D01*
X94071021Y-66351220D01*
X94084289Y-66309159D01*
X94100190Y-66272343D01*
X94112726Y-66249891D01*
X94133254Y-66220350D01*
X94156329Y-66193958D01*
X94181605Y-66170948D01*
X94209112Y-66151169D01*
X94270310Y-66121541D01*
X94339456Y-66105538D01*
X94384324Y-66102857D01*
X94422114Y-66104799D01*
G37*
G36*
X93689270Y-66910629D02*
G01*
X93899258Y-66910629D01*
X93899258Y-67115000D01*
X93689270Y-67115000D01*
X93689270Y-66910629D01*
G37*
G36*
X93266852Y-66430448D02*
G01*
X93266852Y-67115000D01*
X93070847Y-67115000D01*
X93070847Y-66122458D01*
X93201029Y-66122458D01*
X93210863Y-66152265D01*
X93224022Y-66179375D01*
X93239808Y-66202900D01*
X93258651Y-66223908D01*
X93305286Y-66258233D01*
X93365997Y-66283038D01*
X93444075Y-66297459D01*
X93504806Y-66300266D01*
X93504806Y-66430448D01*
X93266852Y-66430448D01*
G37*
G36*
X92522766Y-66910629D02*
G01*
X92732754Y-66910629D01*
X92732754Y-67115000D01*
X92522766Y-67115000D01*
X92522766Y-66910629D01*
G37*
G36*
X92089106Y-66104799D02*
G01*
X92125388Y-66110575D01*
X92159493Y-66119940D01*
X92191825Y-66132882D01*
X92221913Y-66149137D01*
X92249966Y-66168755D01*
X92275734Y-66191568D01*
X92299188Y-66217582D01*
X92308932Y-66230291D01*
X92342404Y-66288323D01*
X92368232Y-66365848D01*
X92385733Y-66470348D01*
X92392912Y-66612590D01*
X92392951Y-66625293D01*
X92390983Y-66710609D01*
X92385024Y-66786849D01*
X92376400Y-66846630D01*
X92364557Y-66899611D01*
X92351233Y-66941212D01*
X92335263Y-66977578D01*
X92322915Y-66999289D01*
X92302393Y-67028821D01*
X92279326Y-67055201D01*
X92254058Y-67078200D01*
X92226559Y-67097969D01*
X92165369Y-67127583D01*
X92096215Y-67143581D01*
X92051317Y-67146263D01*
X92012581Y-67144316D01*
X91975686Y-67138507D01*
X91941660Y-67129201D01*
X91909520Y-67116328D01*
X91879757Y-67100192D01*
X91851967Y-67080671D01*
X91802473Y-67031504D01*
X91793763Y-67020294D01*
X91760407Y-66961191D01*
X91734229Y-66881573D01*
X91716546Y-66775295D01*
X91709743Y-66630849D01*
X91709836Y-66626697D01*
X91905748Y-66626697D01*
X91912992Y-66788347D01*
X91920771Y-66847096D01*
X91930866Y-66887506D01*
X91930905Y-66887609D01*
X91942554Y-66912643D01*
X91956838Y-66933823D01*
X91972503Y-66950064D01*
X91990274Y-66962723D01*
X92009342Y-66971456D01*
X92030193Y-66976670D01*
X92051317Y-66978285D01*
X92074755Y-66976341D01*
X92096265Y-66970553D01*
X92115040Y-66961439D01*
X92131921Y-66948896D01*
X92160053Y-66913244D01*
X92166111Y-66901531D01*
X92180469Y-66853032D01*
X92192845Y-66752297D01*
X92196946Y-66623888D01*
X92189714Y-66456244D01*
X92181996Y-66396298D01*
X92172001Y-66355336D01*
X92171728Y-66354610D01*
X92160996Y-66329790D01*
X92147525Y-66308568D01*
X92132290Y-66291797D01*
X92114898Y-66278543D01*
X92096090Y-66269146D01*
X92075552Y-66263290D01*
X92051317Y-66261065D01*
X92028937Y-66263005D01*
X92008077Y-66268763D01*
X91972212Y-66290748D01*
X91943502Y-66327002D01*
X91936522Y-66340628D01*
X91922486Y-66388461D01*
X91910110Y-66490001D01*
X91905748Y-66626697D01*
X91709836Y-66626697D01*
X91711711Y-66543115D01*
X91717668Y-66465230D01*
X91726246Y-66404704D01*
X91738014Y-66351220D01*
X91751281Y-66309159D01*
X91767182Y-66272343D01*
X91779719Y-66249891D01*
X91800246Y-66220350D01*
X91823322Y-66193958D01*
X91848597Y-66170948D01*
X91876104Y-66151169D01*
X91937302Y-66121541D01*
X92006448Y-66105538D01*
X92051317Y-66102857D01*
X92089106Y-66104799D01*
G37*
D13*
X91700000Y-55760000D02*
X91700000Y-55790000D01*
X91700000Y-55760000D02*
X91700000Y-55940000D01*
X91700000Y-64050000D02*
X91700000Y-64230000D01*
X91700000Y-64890000D02*
X93100000Y-64890000D01*
X93100000Y-55090000D02*
X91700000Y-55090000D01*
X93100000Y-55940000D02*
X93100000Y-55760000D01*
X93100000Y-64230000D02*
X93100000Y-64050000D01*
X93700000Y-55800000D02*
G75*
G02*
X93500000Y-55800000I-100000J0D01*
G01*
X93500000Y-55800000D02*
G75*
G02*
X93700000Y-55800000I100000J0D01*
G01*
X112900000Y-55760000D02*
X112900000Y-55790000D01*
X112900000Y-55760000D02*
X112900000Y-55940000D01*
X112900000Y-64050000D02*
X112900000Y-64230000D01*
X112900000Y-64890000D02*
X114300000Y-64890000D01*
X114300000Y-55090000D02*
X112900000Y-55090000D01*
X114300000Y-55940000D02*
X114300000Y-55760000D01*
X114300000Y-64230000D02*
X114300000Y-64050000D01*
X114900000Y-55800000D02*
G75*
G02*
X114700000Y-55800000I-100000J0D01*
G01*
X114700000Y-55800000D02*
G75*
G02*
X114900000Y-55800000I100000J0D01*
G01*
M02*
