M48
; DRILL file {KiCad 9.0.1-9.0.1-0~ubuntu24.04.1} date 2025-05-10T10:51:44+0200
; FORMAT={-:-/ absolute / metric / decimal}
; #@! TF.CreationDate,2025-05-10T10:51:44+02:00
; #@! TF.GenerationSoftware,Kicad,Pcbnew,9.0.1-9.0.1-0~ubuntu24.04.1
; #@! TF.FileFunction,Plated,1,4,PTH
FMAT,2
METRIC
; #@! TA.AperFunction,Plated,PTH,ViaDrill
T1C0.150
%
G90
G05
T1
X90.58Y-58.42
X90.58Y-59.58
X91.42Y-51.58
X91.42Y-53.58
X91.42Y-54.42
X91.42Y-65.58
X91.42Y-67.58
X91.42Y-54.897
X91.53Y-57.0
X91.53Y-59.0
X91.53Y-61.0
X91.53Y-63.0
X92.01Y-51.609
X92.01Y-68.409
X92.58Y-54.42
X92.58Y-57.58
X93.27Y-57.0
X93.27Y-59.0
X93.27Y-61.0
X93.27Y-63.0
X93.42Y-51.58
X93.42Y-52.42
X93.42Y-53.58
X93.42Y-65.58
X93.42Y-67.58
X93.42Y-54.897
X94.01Y-51.609
X94.01Y-68.409
X94.58Y-62.42
X94.58Y-63.58
X95.42Y-51.58
X95.42Y-53.58
X95.42Y-55.58
X95.42Y-57.58
X95.42Y-59.58
X95.42Y-61.58
X95.42Y-63.58
X95.42Y-65.58
X95.42Y-66.42
X95.42Y-67.58
X96.01Y-51.609
X96.01Y-68.409
X96.58Y-62.42
X96.58Y-63.58
X97.42Y-51.58
X97.42Y-53.58
X97.42Y-55.58
X97.42Y-57.58
X97.42Y-59.58
X97.42Y-60.42
X97.42Y-61.58
X97.42Y-63.58
X97.42Y-65.58
X97.42Y-67.58
X98.009Y-51.609
X98.009Y-68.409
X98.58Y-58.42
X98.58Y-59.58
X99.42Y-51.58
X99.42Y-53.58
X99.42Y-55.58
X99.42Y-57.58
X99.42Y-58.42
X99.42Y-59.58
X99.42Y-61.58
X99.42Y-63.58
X99.42Y-65.58
X99.42Y-67.58
X100.009Y-51.609
X100.009Y-68.409
X100.58Y-57.58
X100.58Y-64.42
X101.42Y-51.58
X101.42Y-53.58
X101.42Y-55.58
X101.42Y-57.58
X101.42Y-59.58
X101.42Y-61.58
X101.42Y-63.58
X101.42Y-64.42
X101.42Y-65.58
X101.42Y-67.58
X102.009Y-51.609
X102.009Y-68.409
X102.58Y-62.42
X102.58Y-63.58
X103.42Y-51.58
X103.42Y-53.58
X103.42Y-55.58
X103.42Y-57.58
X103.42Y-59.58
X103.42Y-61.58
X103.42Y-62.42
X103.42Y-63.58
X103.42Y-65.58
X103.42Y-67.58
X104.009Y-51.609
X104.009Y-68.409
X104.58Y-61.58
X104.58Y-62.42
X105.42Y-51.58
X105.42Y-53.58
X105.42Y-55.58
X105.42Y-57.58
X105.42Y-59.58
X105.42Y-61.58
X105.42Y-62.42
X105.42Y-63.58
X105.42Y-65.58
X105.42Y-67.58
X106.009Y-51.609
X106.009Y-68.409
X106.58Y-60.42
X106.58Y-61.58
X107.42Y-51.58
X107.42Y-53.58
X107.42Y-55.58
X107.42Y-57.58
X107.42Y-58.42
X107.42Y-59.58
X107.42Y-61.58
X107.42Y-63.58
X107.42Y-65.58
X107.42Y-67.58
X108.009Y-51.609
X108.009Y-68.409
X108.58Y-58.42
X108.58Y-59.58
X109.42Y-51.58
X109.42Y-53.58
X109.42Y-55.58
X109.42Y-57.58
X109.42Y-58.42
X109.42Y-59.58
X109.42Y-61.58
X109.42Y-63.58
X109.42Y-65.58
X109.42Y-67.58
X110.009Y-51.609
X110.009Y-68.409
X110.58Y-56.42
X110.58Y-57.58
X111.42Y-51.58
X111.42Y-53.58
X111.42Y-55.58
X111.42Y-56.42
X111.42Y-57.58
X111.42Y-59.58
X111.42Y-61.58
X111.42Y-63.58
X111.42Y-65.58
X111.42Y-67.58
X112.009Y-51.609
X112.009Y-68.409
X112.58Y-53.58
X112.58Y-54.42
X113.42Y-51.58
X113.42Y-53.58
X113.42Y-56.42
X113.42Y-57.58
X113.42Y-59.58
X113.42Y-61.58
X113.42Y-63.58
X113.42Y-65.58
X113.42Y-67.58
X113.42Y-54.897
X114.009Y-51.609
X114.009Y-68.409
X114.58Y-52.42
X114.58Y-53.58
X115.42Y-51.58
X115.42Y-53.58
X115.42Y-55.58
X115.42Y-56.42
X115.42Y-57.58
X115.42Y-59.58
X115.42Y-61.58
X115.42Y-63.58
X115.42Y-65.58
X115.42Y-67.58
M30
