G04 #@! TF.GenerationSoftware,KiCad,Pcbnew,9.0.1-9.0.1-0~ubuntu24.04.1*
G04 #@! TF.CreationDate,2025-05-10T10:51:42+02:00*
G04 #@! TF.ProjectId,ILM139C,494c4d31-3339-4432-9e6b-696361645f70,v0.1.0*
G04 #@! TF.SameCoordinates,Original*
G04 #@! TF.FileFunction,Copper,L2,Inr*
G04 #@! TF.FilePolarity,Positive*
%FSLAX46Y46*%
G04 Gerber Fmt 4.6, Leading zero omitted, Abs format (unit mm)*
G04 Created by KiCad (PCBNEW 9.0.1-9.0.1-0~ubuntu24.04.1) date 2025-05-10 10:51:42*
%MOMM*%
%LPD*%
G01*
G04 APERTURE LIST*
G04 #@! TA.AperFunction,ViaPad*
%ADD10C,0.250000*%
G04 #@! TD*
G04 #@! TA.AperFunction,Conductor*
%ADD11C,0.203200*%
G04 #@! TD*
G04 APERTURE END LIST*
D10*
X100009500Y-68409500D03*
X106009500Y-68409500D03*
X102009500Y-51609500D03*
X98009500Y-68409500D03*
X110009500Y-51609500D03*
X112009500Y-51609500D03*
X108009500Y-51609500D03*
X98009500Y-51609500D03*
X100009500Y-51609500D03*
X94009500Y-68409500D03*
X96009500Y-68409500D03*
X94009500Y-51609500D03*
X92009500Y-51609500D03*
X104009500Y-51609500D03*
X108009500Y-68409500D03*
X114009500Y-68409500D03*
X106009500Y-51609500D03*
X114009500Y-51609500D03*
X104009500Y-68409500D03*
X112009500Y-68409500D03*
X102009500Y-68409500D03*
X110009500Y-68409500D03*
X96009500Y-51609500D03*
X92009500Y-68409500D03*
X113420000Y-51580000D03*
X103420000Y-51580000D03*
X97420000Y-51580000D03*
X107420000Y-51580000D03*
X105420000Y-51580000D03*
X109420000Y-51580000D03*
X93420000Y-51580000D03*
X115420000Y-51580000D03*
X101420000Y-51580000D03*
X91420000Y-51580000D03*
X111420000Y-51580000D03*
X95420000Y-51580000D03*
X99420000Y-51580000D03*
X105420000Y-55580000D03*
X107420000Y-55580000D03*
X93420250Y-54897002D03*
X101420000Y-55580000D03*
X103420000Y-55580000D03*
X109420000Y-55580000D03*
X111420000Y-55580000D03*
X115420000Y-55580000D03*
X113420250Y-54897002D03*
X99420000Y-55580000D03*
X97420000Y-55580000D03*
X91420250Y-54897002D03*
X95420000Y-55580000D03*
X99420000Y-59580000D03*
X111420000Y-59580000D03*
X101420000Y-59580000D03*
X103420000Y-59580000D03*
X115420000Y-59580000D03*
X91530000Y-59000000D03*
X109420000Y-59580000D03*
X95420000Y-59580000D03*
X97420000Y-59580000D03*
X93270000Y-59000000D03*
X105420000Y-59580000D03*
X107420000Y-59580000D03*
X113420000Y-59580000D03*
X107420000Y-53580000D03*
X113420000Y-53580000D03*
X103420000Y-53580000D03*
X111420000Y-53580000D03*
X93420000Y-53580000D03*
X97420000Y-53580000D03*
X99420000Y-53580000D03*
X115420000Y-53580000D03*
X91420000Y-53580000D03*
X101420000Y-53580000D03*
X95420000Y-53580000D03*
X105420000Y-53580000D03*
X109420000Y-53580000D03*
X99420000Y-63580000D03*
X91530000Y-63000000D03*
X107420000Y-63580000D03*
X93270000Y-63000000D03*
X95420000Y-63580000D03*
X111420000Y-63580000D03*
X103420000Y-63580000D03*
X115420000Y-63580000D03*
X109420000Y-63580000D03*
X113420000Y-63580000D03*
X101420000Y-63580000D03*
X97420000Y-63580000D03*
X105420000Y-63580000D03*
X97420000Y-67580000D03*
X99420000Y-67580000D03*
X111420000Y-67580000D03*
X107420000Y-67580000D03*
X95420000Y-67580000D03*
X109420000Y-67580000D03*
X93420000Y-67580000D03*
X115420000Y-67580000D03*
X91420000Y-67580000D03*
X113420000Y-67580000D03*
X105420000Y-67580000D03*
X101420000Y-67580000D03*
X103420000Y-67580000D03*
X101420000Y-57580000D03*
X107420000Y-57580000D03*
X103420000Y-57580000D03*
X113420000Y-57580000D03*
X115420000Y-57580000D03*
X97420000Y-57580000D03*
X111420000Y-57580000D03*
X105420000Y-57580000D03*
X91530000Y-57000000D03*
X99420000Y-57580000D03*
X93270000Y-57000000D03*
X109420000Y-57580000D03*
X95420000Y-57580000D03*
X99420000Y-65580000D03*
X113420000Y-65580000D03*
X97420000Y-65580000D03*
X109420000Y-65580000D03*
X107420000Y-65580000D03*
X95420000Y-65580000D03*
X101420000Y-65580000D03*
X111420000Y-65580000D03*
X93420000Y-65580000D03*
X103420000Y-65580000D03*
X91420000Y-65580000D03*
X115420000Y-65580000D03*
X105420000Y-65580000D03*
X91530000Y-61000000D03*
X105420000Y-61580000D03*
X103420000Y-61580000D03*
X109420000Y-61580000D03*
X95420000Y-61580000D03*
X101420000Y-61580000D03*
X107420000Y-61580000D03*
X111420000Y-61580000D03*
X99420000Y-61580000D03*
X97420000Y-61580000D03*
X93270000Y-61000000D03*
X115420000Y-61580000D03*
X113420000Y-61580000D03*
X90580000Y-59580000D03*
X90580000Y-58420000D03*
X91420000Y-54420000D03*
X93420000Y-52420000D03*
X92580000Y-54420000D03*
X92580000Y-57580000D03*
X95420000Y-66420000D03*
X94580000Y-62420000D03*
X94580000Y-63580000D03*
X101420000Y-64420000D03*
X100580000Y-64420000D03*
X100580000Y-57580000D03*
X99420000Y-58420000D03*
X98580000Y-58420000D03*
X98580000Y-59580000D03*
X97420000Y-60420000D03*
X96580000Y-62420000D03*
X96580000Y-63580000D03*
X107420000Y-58420000D03*
X106580000Y-60420000D03*
X106580000Y-61580000D03*
X105420000Y-62420000D03*
X104580000Y-62420000D03*
X104580000Y-61580000D03*
X103420000Y-62420000D03*
X102580000Y-62420000D03*
X102580000Y-63580000D03*
X113420000Y-56420000D03*
X112580000Y-54420000D03*
X112580000Y-53580000D03*
X111420000Y-56420000D03*
X110580000Y-56420000D03*
X110580000Y-57580000D03*
X109420000Y-58420000D03*
X108580000Y-58420000D03*
X108580000Y-59580000D03*
X115420000Y-56420000D03*
X114580000Y-52420000D03*
X114580000Y-53580000D03*
D11*
X107420000Y-51580000D02*
X106990500Y-52009500D01*
X93420000Y-51580000D02*
X93012900Y-51987100D01*
X115420000Y-51580000D02*
X115012900Y-51987100D01*
X103012900Y-51987100D02*
X101827100Y-51987100D01*
X97012900Y-51987100D02*
X95827100Y-51987100D01*
X93827100Y-51987100D02*
X93420000Y-51580000D01*
X99827100Y-51987100D02*
X99420000Y-51580000D01*
X103827100Y-51987100D02*
X103420000Y-51580000D01*
X101827100Y-51987100D02*
X101420000Y-51580000D01*
X107827100Y-51987100D02*
X107420000Y-51580000D01*
X111827100Y-51987100D02*
X111420000Y-51580000D01*
X93012900Y-51987100D02*
X91827100Y-51987100D01*
X113420000Y-51580000D02*
X113012900Y-51987100D01*
X113827100Y-51987100D02*
X113420000Y-51580000D01*
X103420000Y-51580000D02*
X103012900Y-51987100D01*
X109012900Y-51987100D02*
X107827100Y-51987100D01*
X113012900Y-51987100D02*
X111827100Y-51987100D01*
X111012900Y-51987100D02*
X109827100Y-51987100D01*
X99420000Y-51580000D02*
X99012900Y-51987100D01*
X95420000Y-51580000D02*
X95012900Y-51987100D01*
X106990500Y-52009500D02*
X105849500Y-52009500D01*
X109827100Y-51987100D02*
X109420000Y-51580000D01*
X91827100Y-51987100D02*
X91420000Y-51580000D01*
X99012900Y-51987100D02*
X97827100Y-51987100D01*
X115012900Y-51987100D02*
X113827100Y-51987100D01*
X97420000Y-51580000D02*
X97012900Y-51987100D01*
X95827100Y-51987100D02*
X95420000Y-51580000D01*
X111420000Y-51580000D02*
X111012900Y-51987100D01*
X105849500Y-52009500D02*
X105420000Y-51580000D01*
X101012900Y-51987100D02*
X99827100Y-51987100D01*
X105420000Y-51580000D02*
X105012900Y-51987100D01*
X95012900Y-51987100D02*
X93827100Y-51987100D01*
X101420000Y-51580000D02*
X101012900Y-51987100D01*
X97827100Y-51987100D02*
X97420000Y-51580000D01*
X109420000Y-51580000D02*
X109012900Y-51987100D01*
X105012900Y-51987100D02*
X103827100Y-51987100D01*
X112102998Y-54897002D02*
X111420000Y-55580000D01*
X113420250Y-54897002D02*
X112102998Y-54897002D01*
X95420000Y-55580000D02*
X94103248Y-55580000D01*
X111420000Y-55580000D02*
X95420000Y-55580000D01*
X93420250Y-54897002D02*
X91420250Y-54897002D01*
X115420000Y-55580000D02*
X114737002Y-54897002D01*
X94103248Y-55580000D02*
X93420250Y-54897002D01*
X114737002Y-54897002D02*
X113420250Y-54897002D01*
X93850000Y-59580000D02*
X93270000Y-59000000D01*
X95420000Y-59580000D02*
X93850000Y-59580000D01*
X93270000Y-59000000D02*
X91530000Y-59000000D01*
X99042400Y-59957600D02*
X97797600Y-59957600D01*
X99420000Y-59580000D02*
X99042400Y-59957600D01*
X97420000Y-59580000D02*
X95420000Y-59580000D01*
X107797600Y-59202400D02*
X107420000Y-59580000D01*
X97797600Y-59957600D02*
X97420000Y-59580000D01*
X107420000Y-59580000D02*
X99420000Y-59580000D01*
X109420000Y-59580000D02*
X109042400Y-59202400D01*
X115420000Y-59580000D02*
X109420000Y-59580000D01*
X109042400Y-59202400D02*
X107797600Y-59202400D01*
X105420000Y-53580000D02*
X109420000Y-53580000D01*
X109420000Y-53580000D02*
X111420000Y-53580000D01*
X115042400Y-53957600D02*
X115420000Y-53580000D01*
X111797600Y-53202400D02*
X113042400Y-53202400D01*
X91420000Y-53580000D02*
X93420000Y-53580000D01*
X93420000Y-53580000D02*
X105420000Y-53580000D01*
X113420000Y-53580000D02*
X113797600Y-53957600D01*
X111420000Y-53580000D02*
X111797600Y-53202400D01*
X113042400Y-53202400D02*
X113420000Y-53580000D01*
X113797600Y-53957600D02*
X115042400Y-53957600D01*
X103042400Y-63957600D02*
X101797600Y-63957600D01*
X95797600Y-63957600D02*
X95420000Y-63580000D01*
X97042400Y-63957600D02*
X95797600Y-63957600D01*
X97420000Y-63580000D02*
X97042400Y-63957600D01*
X101420000Y-63580000D02*
X97420000Y-63580000D01*
X101797600Y-63957600D02*
X101420000Y-63580000D01*
X95420000Y-63580000D02*
X94840000Y-63000000D01*
X94840000Y-63000000D02*
X93270000Y-63000000D01*
X93270000Y-63000000D02*
X91530000Y-63000000D01*
X103420000Y-63580000D02*
X103042400Y-63957600D01*
X115420000Y-63580000D02*
X103420000Y-63580000D01*
X91420000Y-67580000D02*
X115420000Y-67580000D01*
X101420000Y-57580000D02*
X109420000Y-57580000D01*
X95420000Y-57580000D02*
X99420000Y-57580000D01*
X109420000Y-57580000D02*
X109797600Y-57202400D01*
X101042400Y-57202400D02*
X101420000Y-57580000D01*
X99420000Y-57580000D02*
X99797600Y-57202400D01*
X95420000Y-57580000D02*
X93850000Y-57580000D01*
X91530000Y-57000000D02*
X93270000Y-57000000D01*
X111042400Y-57202400D02*
X111420000Y-57580000D01*
X111420000Y-57580000D02*
X115420000Y-57580000D01*
X93850000Y-57580000D02*
X93270000Y-57000000D01*
X109797600Y-57202400D02*
X111042400Y-57202400D01*
X99797600Y-57202400D02*
X101042400Y-57202400D01*
X91420000Y-65580000D02*
X115420000Y-65580000D01*
X95420000Y-61580000D02*
X103420000Y-61580000D01*
X93850000Y-61580000D02*
X93270000Y-61000000D01*
X105797600Y-61957600D02*
X107042400Y-61957600D01*
X107420000Y-61580000D02*
X115420000Y-61580000D01*
X105042400Y-61202400D02*
X105420000Y-61580000D01*
X105420000Y-61580000D02*
X105797600Y-61957600D01*
X103797600Y-61202400D02*
X105042400Y-61202400D01*
X107042400Y-61957600D02*
X107420000Y-61580000D01*
X103420000Y-61580000D02*
X103797600Y-61202400D01*
X95420000Y-61580000D02*
X93850000Y-61580000D01*
X93270000Y-61000000D02*
X91530000Y-61000000D01*
G04 #@! TA.AperFunction,Conductor*
G36*
X115986613Y-51013387D02*
G01*
X115999500Y-51044500D01*
X115999500Y-68955500D01*
X115986613Y-68986613D01*
X115955500Y-68999500D01*
X90044500Y-68999500D01*
X90013387Y-68986613D01*
X90000500Y-68955500D01*
X90000500Y-67535145D01*
X91194500Y-67535145D01*
X91194500Y-67624855D01*
X91228830Y-67707736D01*
X91292264Y-67771170D01*
X91375145Y-67805500D01*
X91375146Y-67805500D01*
X91464854Y-67805500D01*
X91464855Y-67805500D01*
X91513263Y-67785449D01*
X91530101Y-67782100D01*
X93309899Y-67782100D01*
X93326737Y-67785449D01*
X93375145Y-67805500D01*
X93375146Y-67805500D01*
X93464854Y-67805500D01*
X93464855Y-67805500D01*
X93513263Y-67785449D01*
X93530101Y-67782100D01*
X95309899Y-67782100D01*
X95326737Y-67785449D01*
X95375145Y-67805500D01*
X95375146Y-67805500D01*
X95464854Y-67805500D01*
X95464855Y-67805500D01*
X95513263Y-67785449D01*
X95530101Y-67782100D01*
X97309899Y-67782100D01*
X97326737Y-67785449D01*
X97375145Y-67805500D01*
X97375146Y-67805500D01*
X97464854Y-67805500D01*
X97464855Y-67805500D01*
X97513263Y-67785449D01*
X97530101Y-67782100D01*
X99309899Y-67782100D01*
X99326737Y-67785449D01*
X99375145Y-67805500D01*
X99375146Y-67805500D01*
X99464854Y-67805500D01*
X99464855Y-67805500D01*
X99513263Y-67785449D01*
X99530101Y-67782100D01*
X101309899Y-67782100D01*
X101326737Y-67785449D01*
X101375145Y-67805500D01*
X101375146Y-67805500D01*
X101464854Y-67805500D01*
X101464855Y-67805500D01*
X101513263Y-67785449D01*
X101530101Y-67782100D01*
X103309899Y-67782100D01*
X103326737Y-67785449D01*
X103375145Y-67805500D01*
X103375146Y-67805500D01*
X103464854Y-67805500D01*
X103464855Y-67805500D01*
X103513263Y-67785449D01*
X103530101Y-67782100D01*
X105309899Y-67782100D01*
X105326737Y-67785449D01*
X105375145Y-67805500D01*
X105375146Y-67805500D01*
X105464854Y-67805500D01*
X105464855Y-67805500D01*
X105513263Y-67785449D01*
X105530101Y-67782100D01*
X107309899Y-67782100D01*
X107326737Y-67785449D01*
X107375145Y-67805500D01*
X107375146Y-67805500D01*
X107464854Y-67805500D01*
X107464855Y-67805500D01*
X107513263Y-67785449D01*
X107530101Y-67782100D01*
X109309899Y-67782100D01*
X109326737Y-67785449D01*
X109375145Y-67805500D01*
X109375146Y-67805500D01*
X109464854Y-67805500D01*
X109464855Y-67805500D01*
X109513263Y-67785449D01*
X109530101Y-67782100D01*
X111309899Y-67782100D01*
X111326737Y-67785449D01*
X111375145Y-67805500D01*
X111375146Y-67805500D01*
X111464854Y-67805500D01*
X111464855Y-67805500D01*
X111513263Y-67785449D01*
X111530101Y-67782100D01*
X113309899Y-67782100D01*
X113326737Y-67785449D01*
X113375145Y-67805500D01*
X113375146Y-67805500D01*
X113464854Y-67805500D01*
X113464855Y-67805500D01*
X113513263Y-67785449D01*
X113530101Y-67782100D01*
X115309899Y-67782100D01*
X115326737Y-67785449D01*
X115375145Y-67805500D01*
X115375146Y-67805500D01*
X115464854Y-67805500D01*
X115464855Y-67805500D01*
X115547736Y-67771170D01*
X115611170Y-67707736D01*
X115645500Y-67624855D01*
X115645500Y-67535145D01*
X115611170Y-67452264D01*
X115547736Y-67388830D01*
X115464855Y-67354500D01*
X115375145Y-67354500D01*
X115336690Y-67370428D01*
X115326737Y-67374551D01*
X115309899Y-67377900D01*
X113530101Y-67377900D01*
X113513263Y-67374551D01*
X113503309Y-67370428D01*
X113464855Y-67354500D01*
X113375145Y-67354500D01*
X113336690Y-67370428D01*
X113326737Y-67374551D01*
X113309899Y-67377900D01*
X111530101Y-67377900D01*
X111513263Y-67374551D01*
X111503309Y-67370428D01*
X111464855Y-67354500D01*
X111375145Y-67354500D01*
X111336690Y-67370428D01*
X111326737Y-67374551D01*
X111309899Y-67377900D01*
X109530101Y-67377900D01*
X109513263Y-67374551D01*
X109503309Y-67370428D01*
X109464855Y-67354500D01*
X109375145Y-67354500D01*
X109336690Y-67370428D01*
X109326737Y-67374551D01*
X109309899Y-67377900D01*
X107530101Y-67377900D01*
X107513263Y-67374551D01*
X107503309Y-67370428D01*
X107464855Y-67354500D01*
X107375145Y-67354500D01*
X107336690Y-67370428D01*
X107326737Y-67374551D01*
X107309899Y-67377900D01*
X105530101Y-67377900D01*
X105513263Y-67374551D01*
X105503309Y-67370428D01*
X105464855Y-67354500D01*
X105375145Y-67354500D01*
X105336690Y-67370428D01*
X105326737Y-67374551D01*
X105309899Y-67377900D01*
X103530101Y-67377900D01*
X103513263Y-67374551D01*
X103503309Y-67370428D01*
X103464855Y-67354500D01*
X103375145Y-67354500D01*
X103336690Y-67370428D01*
X103326737Y-67374551D01*
X103309899Y-67377900D01*
X101530101Y-67377900D01*
X101513263Y-67374551D01*
X101503309Y-67370428D01*
X101464855Y-67354500D01*
X101375145Y-67354500D01*
X101336690Y-67370428D01*
X101326737Y-67374551D01*
X101309899Y-67377900D01*
X99530101Y-67377900D01*
X99513263Y-67374551D01*
X99503309Y-67370428D01*
X99464855Y-67354500D01*
X99375145Y-67354500D01*
X99336690Y-67370428D01*
X99326737Y-67374551D01*
X99309899Y-67377900D01*
X97530101Y-67377900D01*
X97513263Y-67374551D01*
X97503309Y-67370428D01*
X97464855Y-67354500D01*
X97375145Y-67354500D01*
X97336690Y-67370428D01*
X97326737Y-67374551D01*
X97309899Y-67377900D01*
X95530101Y-67377900D01*
X95513263Y-67374551D01*
X95503309Y-67370428D01*
X95464855Y-67354500D01*
X95375145Y-67354500D01*
X95336690Y-67370428D01*
X95326737Y-67374551D01*
X95309899Y-67377900D01*
X93530101Y-67377900D01*
X93513263Y-67374551D01*
X93503309Y-67370428D01*
X93464855Y-67354500D01*
X93375145Y-67354500D01*
X93336690Y-67370428D01*
X93326737Y-67374551D01*
X93309899Y-67377900D01*
X91530101Y-67377900D01*
X91513263Y-67374551D01*
X91503309Y-67370428D01*
X91464855Y-67354500D01*
X91375145Y-67354500D01*
X91292264Y-67388830D01*
X91228830Y-67452264D01*
X91194500Y-67535145D01*
X90000500Y-67535145D01*
X90000500Y-66375145D01*
X95194500Y-66375145D01*
X95194500Y-66464855D01*
X95228830Y-66547736D01*
X95292264Y-66611170D01*
X95375145Y-66645500D01*
X95375146Y-66645500D01*
X95464854Y-66645500D01*
X95464855Y-66645500D01*
X95547736Y-66611170D01*
X95611170Y-66547736D01*
X95645500Y-66464855D01*
X95645500Y-66375145D01*
X95611170Y-66292264D01*
X95547736Y-66228830D01*
X95464855Y-66194500D01*
X95375145Y-66194500D01*
X95292264Y-66228830D01*
X95228830Y-66292264D01*
X95194500Y-66375145D01*
X90000500Y-66375145D01*
X90000500Y-65535145D01*
X91194500Y-65535145D01*
X91194500Y-65624855D01*
X91228830Y-65707736D01*
X91292264Y-65771170D01*
X91375145Y-65805500D01*
X91375146Y-65805500D01*
X91464854Y-65805500D01*
X91464855Y-65805500D01*
X91513263Y-65785449D01*
X91530101Y-65782100D01*
X93309899Y-65782100D01*
X93326737Y-65785449D01*
X93375145Y-65805500D01*
X93375146Y-65805500D01*
X93464854Y-65805500D01*
X93464855Y-65805500D01*
X93513263Y-65785449D01*
X93530101Y-65782100D01*
X95309899Y-65782100D01*
X95326737Y-65785449D01*
X95375145Y-65805500D01*
X95375146Y-65805500D01*
X95464854Y-65805500D01*
X95464855Y-65805500D01*
X95513263Y-65785449D01*
X95530101Y-65782100D01*
X97309899Y-65782100D01*
X97326737Y-65785449D01*
X97375145Y-65805500D01*
X97375146Y-65805500D01*
X97464854Y-65805500D01*
X97464855Y-65805500D01*
X97513263Y-65785449D01*
X97530101Y-65782100D01*
X99309899Y-65782100D01*
X99326737Y-65785449D01*
X99375145Y-65805500D01*
X99375146Y-65805500D01*
X99464854Y-65805500D01*
X99464855Y-65805500D01*
X99513263Y-65785449D01*
X99530101Y-65782100D01*
X101309899Y-65782100D01*
X101326737Y-65785449D01*
X101375145Y-65805500D01*
X101375146Y-65805500D01*
X101464854Y-65805500D01*
X101464855Y-65805500D01*
X101513263Y-65785449D01*
X101530101Y-65782100D01*
X103309899Y-65782100D01*
X103326737Y-65785449D01*
X103375145Y-65805500D01*
X103375146Y-65805500D01*
X103464854Y-65805500D01*
X103464855Y-65805500D01*
X103513263Y-65785449D01*
X103530101Y-65782100D01*
X105309899Y-65782100D01*
X105326737Y-65785449D01*
X105375145Y-65805500D01*
X105375146Y-65805500D01*
X105464854Y-65805500D01*
X105464855Y-65805500D01*
X105513263Y-65785449D01*
X105530101Y-65782100D01*
X107309899Y-65782100D01*
X107326737Y-65785449D01*
X107375145Y-65805500D01*
X107375146Y-65805500D01*
X107464854Y-65805500D01*
X107464855Y-65805500D01*
X107513263Y-65785449D01*
X107530101Y-65782100D01*
X109309899Y-65782100D01*
X109326737Y-65785449D01*
X109375145Y-65805500D01*
X109375146Y-65805500D01*
X109464854Y-65805500D01*
X109464855Y-65805500D01*
X109513263Y-65785449D01*
X109530101Y-65782100D01*
X111309899Y-65782100D01*
X111326737Y-65785449D01*
X111375145Y-65805500D01*
X111375146Y-65805500D01*
X111464854Y-65805500D01*
X111464855Y-65805500D01*
X111513263Y-65785449D01*
X111530101Y-65782100D01*
X113309899Y-65782100D01*
X113326737Y-65785449D01*
X113375145Y-65805500D01*
X113375146Y-65805500D01*
X113464854Y-65805500D01*
X113464855Y-65805500D01*
X113513263Y-65785449D01*
X113530101Y-65782100D01*
X115309899Y-65782100D01*
X115326737Y-65785449D01*
X115375145Y-65805500D01*
X115375146Y-65805500D01*
X115464854Y-65805500D01*
X115464855Y-65805500D01*
X115547736Y-65771170D01*
X115611170Y-65707736D01*
X115645500Y-65624855D01*
X115645500Y-65535145D01*
X115611170Y-65452264D01*
X115547736Y-65388830D01*
X115464855Y-65354500D01*
X115375145Y-65354500D01*
X115336690Y-65370428D01*
X115326737Y-65374551D01*
X115309899Y-65377900D01*
X113530101Y-65377900D01*
X113513263Y-65374551D01*
X113503309Y-65370428D01*
X113464855Y-65354500D01*
X113375145Y-65354500D01*
X113336690Y-65370428D01*
X113326737Y-65374551D01*
X113309899Y-65377900D01*
X111530101Y-65377900D01*
X111513263Y-65374551D01*
X111503309Y-65370428D01*
X111464855Y-65354500D01*
X111375145Y-65354500D01*
X111336690Y-65370428D01*
X111326737Y-65374551D01*
X111309899Y-65377900D01*
X109530101Y-65377900D01*
X109513263Y-65374551D01*
X109503309Y-65370428D01*
X109464855Y-65354500D01*
X109375145Y-65354500D01*
X109336690Y-65370428D01*
X109326737Y-65374551D01*
X109309899Y-65377900D01*
X107530101Y-65377900D01*
X107513263Y-65374551D01*
X107503309Y-65370428D01*
X107464855Y-65354500D01*
X107375145Y-65354500D01*
X107336690Y-65370428D01*
X107326737Y-65374551D01*
X107309899Y-65377900D01*
X105530101Y-65377900D01*
X105513263Y-65374551D01*
X105503309Y-65370428D01*
X105464855Y-65354500D01*
X105375145Y-65354500D01*
X105336690Y-65370428D01*
X105326737Y-65374551D01*
X105309899Y-65377900D01*
X103530101Y-65377900D01*
X103513263Y-65374551D01*
X103503309Y-65370428D01*
X103464855Y-65354500D01*
X103375145Y-65354500D01*
X103336690Y-65370428D01*
X103326737Y-65374551D01*
X103309899Y-65377900D01*
X101530101Y-65377900D01*
X101513263Y-65374551D01*
X101503309Y-65370428D01*
X101464855Y-65354500D01*
X101375145Y-65354500D01*
X101336690Y-65370428D01*
X101326737Y-65374551D01*
X101309899Y-65377900D01*
X99530101Y-65377900D01*
X99513263Y-65374551D01*
X99503309Y-65370428D01*
X99464855Y-65354500D01*
X99375145Y-65354500D01*
X99336690Y-65370428D01*
X99326737Y-65374551D01*
X99309899Y-65377900D01*
X97530101Y-65377900D01*
X97513263Y-65374551D01*
X97503309Y-65370428D01*
X97464855Y-65354500D01*
X97375145Y-65354500D01*
X97336690Y-65370428D01*
X97326737Y-65374551D01*
X97309899Y-65377900D01*
X95530101Y-65377900D01*
X95513263Y-65374551D01*
X95503309Y-65370428D01*
X95464855Y-65354500D01*
X95375145Y-65354500D01*
X95336690Y-65370428D01*
X95326737Y-65374551D01*
X95309899Y-65377900D01*
X93530101Y-65377900D01*
X93513263Y-65374551D01*
X93503309Y-65370428D01*
X93464855Y-65354500D01*
X93375145Y-65354500D01*
X93336690Y-65370428D01*
X93326737Y-65374551D01*
X93309899Y-65377900D01*
X91530101Y-65377900D01*
X91513263Y-65374551D01*
X91503309Y-65370428D01*
X91464855Y-65354500D01*
X91375145Y-65354500D01*
X91292264Y-65388830D01*
X91228830Y-65452264D01*
X91194500Y-65535145D01*
X90000500Y-65535145D01*
X90000500Y-64375145D01*
X100354500Y-64375145D01*
X100354500Y-64464855D01*
X100388830Y-64547736D01*
X100452264Y-64611170D01*
X100535145Y-64645500D01*
X100535146Y-64645500D01*
X100624854Y-64645500D01*
X100624855Y-64645500D01*
X100707736Y-64611170D01*
X100771170Y-64547736D01*
X100805500Y-64464855D01*
X100805500Y-64375145D01*
X101194500Y-64375145D01*
X101194500Y-64464855D01*
X101228830Y-64547736D01*
X101292264Y-64611170D01*
X101375145Y-64645500D01*
X101375146Y-64645500D01*
X101464854Y-64645500D01*
X101464855Y-64645500D01*
X101547736Y-64611170D01*
X101611170Y-64547736D01*
X101645500Y-64464855D01*
X101645500Y-64375145D01*
X101611170Y-64292264D01*
X101547736Y-64228830D01*
X101464855Y-64194500D01*
X101375145Y-64194500D01*
X101292264Y-64228830D01*
X101228830Y-64292264D01*
X101194500Y-64375145D01*
X100805500Y-64375145D01*
X100771170Y-64292264D01*
X100707736Y-64228830D01*
X100624855Y-64194500D01*
X100535145Y-64194500D01*
X100452264Y-64228830D01*
X100388830Y-64292264D01*
X100354500Y-64375145D01*
X90000500Y-64375145D01*
X90000500Y-63535145D01*
X94354500Y-63535145D01*
X94354500Y-63624855D01*
X94388830Y-63707736D01*
X94452264Y-63771170D01*
X94535145Y-63805500D01*
X94535146Y-63805500D01*
X94624854Y-63805500D01*
X94624855Y-63805500D01*
X94707736Y-63771170D01*
X94771170Y-63707736D01*
X94805500Y-63624855D01*
X94805500Y-63535145D01*
X94771170Y-63452264D01*
X94707736Y-63388830D01*
X94624855Y-63354500D01*
X94535145Y-63354500D01*
X94452264Y-63388830D01*
X94388830Y-63452264D01*
X94354500Y-63535145D01*
X90000500Y-63535145D01*
X90000500Y-62955145D01*
X91304500Y-62955145D01*
X91304500Y-63044855D01*
X91338830Y-63127736D01*
X91402264Y-63191170D01*
X91485145Y-63225500D01*
X91485146Y-63225500D01*
X91574854Y-63225500D01*
X91574855Y-63225500D01*
X91623263Y-63205449D01*
X91640101Y-63202100D01*
X93159899Y-63202100D01*
X93176737Y-63205449D01*
X93225145Y-63225500D01*
X93225146Y-63225500D01*
X93314854Y-63225500D01*
X93314855Y-63225500D01*
X93363263Y-63205449D01*
X93380101Y-63202100D01*
X94738061Y-63202100D01*
X94769174Y-63214987D01*
X95199240Y-63645052D01*
X95208777Y-63659326D01*
X95228829Y-63707734D01*
X95228830Y-63707736D01*
X95292264Y-63771170D01*
X95340670Y-63791219D01*
X95354944Y-63800757D01*
X95683119Y-64128932D01*
X95757400Y-64159700D01*
X95757401Y-64159700D01*
X97082599Y-64159700D01*
X97082600Y-64159700D01*
X97156881Y-64128932D01*
X97485057Y-63800754D01*
X97499326Y-63791220D01*
X97513266Y-63785447D01*
X97530099Y-63782100D01*
X99309899Y-63782100D01*
X99326737Y-63785449D01*
X99375145Y-63805500D01*
X99375146Y-63805500D01*
X99464854Y-63805500D01*
X99464855Y-63805500D01*
X99513263Y-63785449D01*
X99530101Y-63782100D01*
X101309900Y-63782100D01*
X101326737Y-63785449D01*
X101340668Y-63791219D01*
X101354944Y-63800757D01*
X101683119Y-64128932D01*
X101757400Y-64159700D01*
X101757401Y-64159700D01*
X103082599Y-64159700D01*
X103082600Y-64159700D01*
X103156881Y-64128932D01*
X103485057Y-63800754D01*
X103499326Y-63791220D01*
X103513266Y-63785447D01*
X103530099Y-63782100D01*
X105309899Y-63782100D01*
X105326737Y-63785449D01*
X105375145Y-63805500D01*
X105375146Y-63805500D01*
X105464854Y-63805500D01*
X105464855Y-63805500D01*
X105513263Y-63785449D01*
X105530101Y-63782100D01*
X107309899Y-63782100D01*
X107326737Y-63785449D01*
X107375145Y-63805500D01*
X107375146Y-63805500D01*
X107464854Y-63805500D01*
X107464855Y-63805500D01*
X107513263Y-63785449D01*
X107530101Y-63782100D01*
X109309899Y-63782100D01*
X109326737Y-63785449D01*
X109375145Y-63805500D01*
X109375146Y-63805500D01*
X109464854Y-63805500D01*
X109464855Y-63805500D01*
X109513263Y-63785449D01*
X109530101Y-63782100D01*
X111309899Y-63782100D01*
X111326737Y-63785449D01*
X111375145Y-63805500D01*
X111375146Y-63805500D01*
X111464854Y-63805500D01*
X111464855Y-63805500D01*
X111513263Y-63785449D01*
X111530101Y-63782100D01*
X113309899Y-63782100D01*
X113326737Y-63785449D01*
X113375145Y-63805500D01*
X113375146Y-63805500D01*
X113464854Y-63805500D01*
X113464855Y-63805500D01*
X113513263Y-63785449D01*
X113530101Y-63782100D01*
X115309899Y-63782100D01*
X115326737Y-63785449D01*
X115375145Y-63805500D01*
X115375146Y-63805500D01*
X115464854Y-63805500D01*
X115464855Y-63805500D01*
X115547736Y-63771170D01*
X115611170Y-63707736D01*
X115645500Y-63624855D01*
X115645500Y-63535145D01*
X115611170Y-63452264D01*
X115547736Y-63388830D01*
X115464855Y-63354500D01*
X115375145Y-63354500D01*
X115363702Y-63359240D01*
X115326737Y-63374551D01*
X115309899Y-63377900D01*
X113530101Y-63377900D01*
X113513263Y-63374551D01*
X113476298Y-63359240D01*
X113464855Y-63354500D01*
X113375145Y-63354500D01*
X113363702Y-63359240D01*
X113326737Y-63374551D01*
X113309899Y-63377900D01*
X111530101Y-63377900D01*
X111513263Y-63374551D01*
X111476298Y-63359240D01*
X111464855Y-63354500D01*
X111375145Y-63354500D01*
X111363702Y-63359240D01*
X111326737Y-63374551D01*
X111309899Y-63377900D01*
X109530101Y-63377900D01*
X109513263Y-63374551D01*
X109476298Y-63359240D01*
X109464855Y-63354500D01*
X109375145Y-63354500D01*
X109363702Y-63359240D01*
X109326737Y-63374551D01*
X109309899Y-63377900D01*
X107530101Y-63377900D01*
X107513263Y-63374551D01*
X107476298Y-63359240D01*
X107464855Y-63354500D01*
X107375145Y-63354500D01*
X107363702Y-63359240D01*
X107326737Y-63374551D01*
X107309899Y-63377900D01*
X105530101Y-63377900D01*
X105513263Y-63374551D01*
X105476298Y-63359240D01*
X105464855Y-63354500D01*
X105375145Y-63354500D01*
X105363702Y-63359240D01*
X105326737Y-63374551D01*
X105309899Y-63377900D01*
X103530101Y-63377900D01*
X103513263Y-63374551D01*
X103476298Y-63359240D01*
X103464855Y-63354500D01*
X103375145Y-63354500D01*
X103348760Y-63365429D01*
X103292264Y-63388830D01*
X103228828Y-63452266D01*
X103208778Y-63500670D01*
X103199241Y-63514944D01*
X102971574Y-63742613D01*
X102940461Y-63755500D01*
X102817236Y-63755500D01*
X102786123Y-63742613D01*
X102773236Y-63711500D01*
X102776585Y-63694662D01*
X102805500Y-63624855D01*
X102805500Y-63535145D01*
X102771170Y-63452264D01*
X102707736Y-63388830D01*
X102624855Y-63354500D01*
X102535145Y-63354500D01*
X102452264Y-63388830D01*
X102388830Y-63452264D01*
X102354500Y-63535145D01*
X102354500Y-63624855D01*
X102383415Y-63694662D01*
X102383415Y-63728338D01*
X102359602Y-63752151D01*
X102342764Y-63755500D01*
X101899539Y-63755500D01*
X101868426Y-63742613D01*
X101640757Y-63514944D01*
X101631219Y-63500669D01*
X101611170Y-63452264D01*
X101547736Y-63388830D01*
X101464855Y-63354500D01*
X101375145Y-63354500D01*
X101363702Y-63359240D01*
X101326737Y-63374551D01*
X101309899Y-63377900D01*
X99530101Y-63377900D01*
X99513263Y-63374551D01*
X99476298Y-63359240D01*
X99464855Y-63354500D01*
X99375145Y-63354500D01*
X99363702Y-63359240D01*
X99326737Y-63374551D01*
X99309899Y-63377900D01*
X97530101Y-63377900D01*
X97513263Y-63374551D01*
X97476298Y-63359240D01*
X97464855Y-63354500D01*
X97375145Y-63354500D01*
X97348760Y-63365429D01*
X97292264Y-63388830D01*
X97228828Y-63452266D01*
X97208778Y-63500670D01*
X97199241Y-63514944D01*
X96971574Y-63742613D01*
X96940461Y-63755500D01*
X96817236Y-63755500D01*
X96786123Y-63742613D01*
X96773236Y-63711500D01*
X96776585Y-63694662D01*
X96805500Y-63624855D01*
X96805500Y-63535145D01*
X96771170Y-63452264D01*
X96707736Y-63388830D01*
X96624855Y-63354500D01*
X96535145Y-63354500D01*
X96452264Y-63388830D01*
X96388830Y-63452264D01*
X96354500Y-63535145D01*
X96354500Y-63624855D01*
X96383415Y-63694662D01*
X96383415Y-63728338D01*
X96359602Y-63752151D01*
X96342764Y-63755500D01*
X95899539Y-63755500D01*
X95868426Y-63742613D01*
X95640757Y-63514944D01*
X95631219Y-63500669D01*
X95611170Y-63452264D01*
X95547736Y-63388830D01*
X95547734Y-63388829D01*
X95499326Y-63368777D01*
X95485052Y-63359240D01*
X95253547Y-63127735D01*
X94954481Y-62828668D01*
X94880200Y-62797900D01*
X94880199Y-62797900D01*
X93380101Y-62797900D01*
X93363263Y-62794551D01*
X93353309Y-62790428D01*
X93314855Y-62774500D01*
X93225145Y-62774500D01*
X93186690Y-62790428D01*
X93176737Y-62794551D01*
X93159899Y-62797900D01*
X91640101Y-62797900D01*
X91623263Y-62794551D01*
X91613309Y-62790428D01*
X91574855Y-62774500D01*
X91485145Y-62774500D01*
X91402264Y-62808830D01*
X91338830Y-62872264D01*
X91304500Y-62955145D01*
X90000500Y-62955145D01*
X90000500Y-62375145D01*
X94354500Y-62375145D01*
X94354500Y-62464855D01*
X94388830Y-62547736D01*
X94452264Y-62611170D01*
X94535145Y-62645500D01*
X94535146Y-62645500D01*
X94624854Y-62645500D01*
X94624855Y-62645500D01*
X94707736Y-62611170D01*
X94771170Y-62547736D01*
X94805500Y-62464855D01*
X94805500Y-62375145D01*
X96354500Y-62375145D01*
X96354500Y-62464855D01*
X96388830Y-62547736D01*
X96452264Y-62611170D01*
X96535145Y-62645500D01*
X96535146Y-62645500D01*
X96624854Y-62645500D01*
X96624855Y-62645500D01*
X96707736Y-62611170D01*
X96771170Y-62547736D01*
X96805500Y-62464855D01*
X96805500Y-62375145D01*
X102354500Y-62375145D01*
X102354500Y-62464855D01*
X102388830Y-62547736D01*
X102452264Y-62611170D01*
X102535145Y-62645500D01*
X102535146Y-62645500D01*
X102624854Y-62645500D01*
X102624855Y-62645500D01*
X102707736Y-62611170D01*
X102771170Y-62547736D01*
X102805500Y-62464855D01*
X102805500Y-62375145D01*
X103194500Y-62375145D01*
X103194500Y-62464855D01*
X103228830Y-62547736D01*
X103292264Y-62611170D01*
X103375145Y-62645500D01*
X103375146Y-62645500D01*
X103464854Y-62645500D01*
X103464855Y-62645500D01*
X103547736Y-62611170D01*
X103611170Y-62547736D01*
X103645500Y-62464855D01*
X103645500Y-62375145D01*
X104354500Y-62375145D01*
X104354500Y-62464855D01*
X104388830Y-62547736D01*
X104452264Y-62611170D01*
X104535145Y-62645500D01*
X104535146Y-62645500D01*
X104624854Y-62645500D01*
X104624855Y-62645500D01*
X104707736Y-62611170D01*
X104771170Y-62547736D01*
X104805500Y-62464855D01*
X104805500Y-62375145D01*
X105194500Y-62375145D01*
X105194500Y-62464855D01*
X105228830Y-62547736D01*
X105292264Y-62611170D01*
X105375145Y-62645500D01*
X105375146Y-62645500D01*
X105464854Y-62645500D01*
X105464855Y-62645500D01*
X105547736Y-62611170D01*
X105611170Y-62547736D01*
X105645500Y-62464855D01*
X105645500Y-62375145D01*
X105611170Y-62292264D01*
X105547736Y-62228830D01*
X105464855Y-62194500D01*
X105375145Y-62194500D01*
X105292264Y-62228830D01*
X105228830Y-62292264D01*
X105194500Y-62375145D01*
X104805500Y-62375145D01*
X104771170Y-62292264D01*
X104707736Y-62228830D01*
X104624855Y-62194500D01*
X104535145Y-62194500D01*
X104452264Y-62228830D01*
X104388830Y-62292264D01*
X104354500Y-62375145D01*
X103645500Y-62375145D01*
X103611170Y-62292264D01*
X103547736Y-62228830D01*
X103464855Y-62194500D01*
X103375145Y-62194500D01*
X103292264Y-62228830D01*
X103228830Y-62292264D01*
X103194500Y-62375145D01*
X102805500Y-62375145D01*
X102771170Y-62292264D01*
X102707736Y-62228830D01*
X102624855Y-62194500D01*
X102535145Y-62194500D01*
X102452264Y-62228830D01*
X102388830Y-62292264D01*
X102354500Y-62375145D01*
X96805500Y-62375145D01*
X96771170Y-62292264D01*
X96707736Y-62228830D01*
X96624855Y-62194500D01*
X96535145Y-62194500D01*
X96452264Y-62228830D01*
X96388830Y-62292264D01*
X96354500Y-62375145D01*
X94805500Y-62375145D01*
X94771170Y-62292264D01*
X94707736Y-62228830D01*
X94624855Y-62194500D01*
X94535145Y-62194500D01*
X94452264Y-62228830D01*
X94388830Y-62292264D01*
X94354500Y-62375145D01*
X90000500Y-62375145D01*
X90000500Y-60955145D01*
X91304500Y-60955145D01*
X91304500Y-61044855D01*
X91338830Y-61127736D01*
X91402264Y-61191170D01*
X91485145Y-61225500D01*
X91485146Y-61225500D01*
X91574854Y-61225500D01*
X91574855Y-61225500D01*
X91623263Y-61205449D01*
X91640101Y-61202100D01*
X93159901Y-61202100D01*
X93176738Y-61205449D01*
X93190669Y-61211219D01*
X93204945Y-61220757D01*
X93678668Y-61694480D01*
X93678667Y-61694480D01*
X93712526Y-61728338D01*
X93735520Y-61751332D01*
X93809800Y-61782100D01*
X95309899Y-61782100D01*
X95326737Y-61785449D01*
X95375145Y-61805500D01*
X95375146Y-61805500D01*
X95464854Y-61805500D01*
X95464855Y-61805500D01*
X95513263Y-61785449D01*
X95530101Y-61782100D01*
X97309899Y-61782100D01*
X97326737Y-61785449D01*
X97375145Y-61805500D01*
X97375146Y-61805500D01*
X97464854Y-61805500D01*
X97464855Y-61805500D01*
X97513263Y-61785449D01*
X97530101Y-61782100D01*
X99309899Y-61782100D01*
X99326737Y-61785449D01*
X99375145Y-61805500D01*
X99375146Y-61805500D01*
X99464854Y-61805500D01*
X99464855Y-61805500D01*
X99513263Y-61785449D01*
X99530101Y-61782100D01*
X101309899Y-61782100D01*
X101326737Y-61785449D01*
X101375145Y-61805500D01*
X101375146Y-61805500D01*
X101464854Y-61805500D01*
X101464855Y-61805500D01*
X101513263Y-61785449D01*
X101530101Y-61782100D01*
X103309899Y-61782100D01*
X103326737Y-61785449D01*
X103375145Y-61805500D01*
X103375146Y-61805500D01*
X103464854Y-61805500D01*
X103464855Y-61805500D01*
X103547736Y-61771170D01*
X103611170Y-61707736D01*
X103631220Y-61659328D01*
X103640754Y-61645057D01*
X103868426Y-61417387D01*
X103899539Y-61404500D01*
X104342764Y-61404500D01*
X104373877Y-61417387D01*
X104386764Y-61448500D01*
X104383415Y-61465336D01*
X104354500Y-61535145D01*
X104354500Y-61624855D01*
X104388830Y-61707736D01*
X104452264Y-61771170D01*
X104535145Y-61805500D01*
X104535146Y-61805500D01*
X104624854Y-61805500D01*
X104624855Y-61805500D01*
X104707736Y-61771170D01*
X104771170Y-61707736D01*
X104805500Y-61624855D01*
X104805500Y-61535145D01*
X104776585Y-61465337D01*
X104776585Y-61431662D01*
X104800398Y-61407849D01*
X104817236Y-61404500D01*
X104940461Y-61404500D01*
X104971574Y-61417387D01*
X105199241Y-61645054D01*
X105208778Y-61659327D01*
X105228830Y-61707736D01*
X105292264Y-61771170D01*
X105340670Y-61791219D01*
X105354944Y-61800757D01*
X105683119Y-62128932D01*
X105757400Y-62159700D01*
X105757401Y-62159700D01*
X107082599Y-62159700D01*
X107082600Y-62159700D01*
X107156881Y-62128932D01*
X107485057Y-61800754D01*
X107499326Y-61791220D01*
X107513266Y-61785447D01*
X107530099Y-61782100D01*
X109309899Y-61782100D01*
X109326737Y-61785449D01*
X109375145Y-61805500D01*
X109375146Y-61805500D01*
X109464854Y-61805500D01*
X109464855Y-61805500D01*
X109513263Y-61785449D01*
X109530101Y-61782100D01*
X111309899Y-61782100D01*
X111326737Y-61785449D01*
X111375145Y-61805500D01*
X111375146Y-61805500D01*
X111464854Y-61805500D01*
X111464855Y-61805500D01*
X111513263Y-61785449D01*
X111530101Y-61782100D01*
X113309899Y-61782100D01*
X113326737Y-61785449D01*
X113375145Y-61805500D01*
X113375146Y-61805500D01*
X113464854Y-61805500D01*
X113464855Y-61805500D01*
X113513263Y-61785449D01*
X113530101Y-61782100D01*
X115309899Y-61782100D01*
X115326737Y-61785449D01*
X115375145Y-61805500D01*
X115375146Y-61805500D01*
X115464854Y-61805500D01*
X115464855Y-61805500D01*
X115547736Y-61771170D01*
X115611170Y-61707736D01*
X115645500Y-61624855D01*
X115645500Y-61535145D01*
X115611170Y-61452264D01*
X115547736Y-61388830D01*
X115464855Y-61354500D01*
X115375145Y-61354500D01*
X115340672Y-61368779D01*
X115326737Y-61374551D01*
X115309899Y-61377900D01*
X113530101Y-61377900D01*
X113513263Y-61374551D01*
X113499328Y-61368779D01*
X113464855Y-61354500D01*
X113375145Y-61354500D01*
X113340672Y-61368779D01*
X113326737Y-61374551D01*
X113309899Y-61377900D01*
X111530101Y-61377900D01*
X111513263Y-61374551D01*
X111499328Y-61368779D01*
X111464855Y-61354500D01*
X111375145Y-61354500D01*
X111340672Y-61368779D01*
X111326737Y-61374551D01*
X111309899Y-61377900D01*
X109530101Y-61377900D01*
X109513263Y-61374551D01*
X109499328Y-61368779D01*
X109464855Y-61354500D01*
X109375145Y-61354500D01*
X109340672Y-61368779D01*
X109326737Y-61374551D01*
X109309899Y-61377900D01*
X107530101Y-61377900D01*
X107513263Y-61374551D01*
X107499328Y-61368779D01*
X107464855Y-61354500D01*
X107375145Y-61354500D01*
X107326737Y-61374551D01*
X107292264Y-61388830D01*
X107228828Y-61452266D01*
X107208778Y-61500670D01*
X107199241Y-61514944D01*
X106971574Y-61742613D01*
X106940461Y-61755500D01*
X106817236Y-61755500D01*
X106786123Y-61742613D01*
X106773236Y-61711500D01*
X106776585Y-61694662D01*
X106805500Y-61624855D01*
X106805500Y-61535145D01*
X106771170Y-61452264D01*
X106707736Y-61388830D01*
X106624855Y-61354500D01*
X106535145Y-61354500D01*
X106452264Y-61388830D01*
X106388830Y-61452264D01*
X106354500Y-61535145D01*
X106354500Y-61624855D01*
X106383415Y-61694662D01*
X106383415Y-61728338D01*
X106359602Y-61752151D01*
X106342764Y-61755500D01*
X105899539Y-61755500D01*
X105868426Y-61742613D01*
X105640757Y-61514944D01*
X105631219Y-61500669D01*
X105611170Y-61452264D01*
X105547736Y-61388830D01*
X105499327Y-61368778D01*
X105485054Y-61359241D01*
X105327913Y-61202100D01*
X105156881Y-61031068D01*
X105082600Y-61000300D01*
X103837800Y-61000300D01*
X103757400Y-61000300D01*
X103683119Y-61031068D01*
X103354943Y-61359242D01*
X103340670Y-61368779D01*
X103326737Y-61374550D01*
X103309900Y-61377900D01*
X101530101Y-61377900D01*
X101513263Y-61374551D01*
X101499328Y-61368779D01*
X101464855Y-61354500D01*
X101375145Y-61354500D01*
X101340672Y-61368779D01*
X101326737Y-61374551D01*
X101309899Y-61377900D01*
X99530101Y-61377900D01*
X99513263Y-61374551D01*
X99499328Y-61368779D01*
X99464855Y-61354500D01*
X99375145Y-61354500D01*
X99340672Y-61368779D01*
X99326737Y-61374551D01*
X99309899Y-61377900D01*
X97530101Y-61377900D01*
X97513263Y-61374551D01*
X97499328Y-61368779D01*
X97464855Y-61354500D01*
X97375145Y-61354500D01*
X97340672Y-61368779D01*
X97326737Y-61374551D01*
X97309899Y-61377900D01*
X95530101Y-61377900D01*
X95513263Y-61374551D01*
X95499328Y-61368779D01*
X95464855Y-61354500D01*
X95375145Y-61354500D01*
X95340672Y-61368779D01*
X95326737Y-61374551D01*
X95309899Y-61377900D01*
X93951938Y-61377900D01*
X93920825Y-61365013D01*
X93490757Y-60934945D01*
X93481219Y-60920669D01*
X93461172Y-60872268D01*
X93461171Y-60872266D01*
X93461170Y-60872264D01*
X93397736Y-60808830D01*
X93314855Y-60774500D01*
X93225145Y-60774500D01*
X93186690Y-60790428D01*
X93176737Y-60794551D01*
X93159899Y-60797900D01*
X91640101Y-60797900D01*
X91623263Y-60794551D01*
X91613309Y-60790428D01*
X91574855Y-60774500D01*
X91485145Y-60774500D01*
X91402264Y-60808830D01*
X91338830Y-60872264D01*
X91304500Y-60955145D01*
X90000500Y-60955145D01*
X90000500Y-60375145D01*
X97194500Y-60375145D01*
X97194500Y-60464855D01*
X97228830Y-60547736D01*
X97292264Y-60611170D01*
X97375145Y-60645500D01*
X97375146Y-60645500D01*
X97464854Y-60645500D01*
X97464855Y-60645500D01*
X97547736Y-60611170D01*
X97611170Y-60547736D01*
X97645500Y-60464855D01*
X97645500Y-60375145D01*
X106354500Y-60375145D01*
X106354500Y-60464855D01*
X106388830Y-60547736D01*
X106452264Y-60611170D01*
X106535145Y-60645500D01*
X106535146Y-60645500D01*
X106624854Y-60645500D01*
X106624855Y-60645500D01*
X106707736Y-60611170D01*
X106771170Y-60547736D01*
X106805500Y-60464855D01*
X106805500Y-60375145D01*
X106771170Y-60292264D01*
X106707736Y-60228830D01*
X106624855Y-60194500D01*
X106535145Y-60194500D01*
X106452264Y-60228830D01*
X106388830Y-60292264D01*
X106354500Y-60375145D01*
X97645500Y-60375145D01*
X97611170Y-60292264D01*
X97547736Y-60228830D01*
X97464855Y-60194500D01*
X97375145Y-60194500D01*
X97292264Y-60228830D01*
X97228830Y-60292264D01*
X97194500Y-60375145D01*
X90000500Y-60375145D01*
X90000500Y-59535145D01*
X90354500Y-59535145D01*
X90354500Y-59624855D01*
X90388830Y-59707736D01*
X90452264Y-59771170D01*
X90535145Y-59805500D01*
X90535146Y-59805500D01*
X90624854Y-59805500D01*
X90624855Y-59805500D01*
X90707736Y-59771170D01*
X90771170Y-59707736D01*
X90805500Y-59624855D01*
X90805500Y-59535145D01*
X90771170Y-59452264D01*
X90707736Y-59388830D01*
X90624855Y-59354500D01*
X90535145Y-59354500D01*
X90452264Y-59388830D01*
X90388830Y-59452264D01*
X90354500Y-59535145D01*
X90000500Y-59535145D01*
X90000500Y-58955145D01*
X91304500Y-58955145D01*
X91304500Y-59044855D01*
X91338830Y-59127736D01*
X91402264Y-59191170D01*
X91485145Y-59225500D01*
X91485146Y-59225500D01*
X91574854Y-59225500D01*
X91574855Y-59225500D01*
X91623263Y-59205449D01*
X91640101Y-59202100D01*
X93159901Y-59202100D01*
X93176738Y-59205449D01*
X93190669Y-59211219D01*
X93204945Y-59220757D01*
X93678668Y-59694480D01*
X93678667Y-59694480D01*
X93712526Y-59728338D01*
X93735520Y-59751332D01*
X93809800Y-59782100D01*
X95309899Y-59782100D01*
X95326737Y-59785449D01*
X95375145Y-59805500D01*
X95375146Y-59805500D01*
X95464854Y-59805500D01*
X95464855Y-59805500D01*
X95513263Y-59785449D01*
X95530101Y-59782100D01*
X97309900Y-59782100D01*
X97326737Y-59785449D01*
X97340668Y-59791219D01*
X97354944Y-59800757D01*
X97683119Y-60128932D01*
X97757400Y-60159700D01*
X97757401Y-60159700D01*
X99082599Y-60159700D01*
X99082600Y-60159700D01*
X99156881Y-60128932D01*
X99485057Y-59800754D01*
X99499326Y-59791220D01*
X99513266Y-59785447D01*
X99530099Y-59782100D01*
X101309899Y-59782100D01*
X101326737Y-59785449D01*
X101375145Y-59805500D01*
X101375146Y-59805500D01*
X101464854Y-59805500D01*
X101464855Y-59805500D01*
X101513263Y-59785449D01*
X101530101Y-59782100D01*
X103309899Y-59782100D01*
X103326737Y-59785449D01*
X103375145Y-59805500D01*
X103375146Y-59805500D01*
X103464854Y-59805500D01*
X103464855Y-59805500D01*
X103513263Y-59785449D01*
X103530101Y-59782100D01*
X105309899Y-59782100D01*
X105326737Y-59785449D01*
X105375145Y-59805500D01*
X105375146Y-59805500D01*
X105464854Y-59805500D01*
X105464855Y-59805500D01*
X105513263Y-59785449D01*
X105530101Y-59782100D01*
X107309899Y-59782100D01*
X107326737Y-59785449D01*
X107375145Y-59805500D01*
X107375146Y-59805500D01*
X107464854Y-59805500D01*
X107464855Y-59805500D01*
X107547736Y-59771170D01*
X107611170Y-59707736D01*
X107631220Y-59659328D01*
X107640754Y-59645057D01*
X107868426Y-59417387D01*
X107899539Y-59404500D01*
X108342764Y-59404500D01*
X108373877Y-59417387D01*
X108386764Y-59448500D01*
X108383415Y-59465336D01*
X108354500Y-59535145D01*
X108354500Y-59624855D01*
X108388830Y-59707736D01*
X108452264Y-59771170D01*
X108535145Y-59805500D01*
X108535146Y-59805500D01*
X108624854Y-59805500D01*
X108624855Y-59805500D01*
X108707736Y-59771170D01*
X108771170Y-59707736D01*
X108805500Y-59624855D01*
X108805500Y-59535145D01*
X108776585Y-59465337D01*
X108776585Y-59431662D01*
X108800398Y-59407849D01*
X108817236Y-59404500D01*
X108940461Y-59404500D01*
X108971574Y-59417387D01*
X109199241Y-59645054D01*
X109208778Y-59659327D01*
X109228830Y-59707736D01*
X109292264Y-59771170D01*
X109375145Y-59805500D01*
X109375146Y-59805500D01*
X109464854Y-59805500D01*
X109464855Y-59805500D01*
X109513263Y-59785449D01*
X109530101Y-59782100D01*
X111309899Y-59782100D01*
X111326737Y-59785449D01*
X111375145Y-59805500D01*
X111375146Y-59805500D01*
X111464854Y-59805500D01*
X111464855Y-59805500D01*
X111513263Y-59785449D01*
X111530101Y-59782100D01*
X113309899Y-59782100D01*
X113326737Y-59785449D01*
X113375145Y-59805500D01*
X113375146Y-59805500D01*
X113464854Y-59805500D01*
X113464855Y-59805500D01*
X113513263Y-59785449D01*
X113530101Y-59782100D01*
X115309899Y-59782100D01*
X115326737Y-59785449D01*
X115375145Y-59805500D01*
X115375146Y-59805500D01*
X115464854Y-59805500D01*
X115464855Y-59805500D01*
X115547736Y-59771170D01*
X115611170Y-59707736D01*
X115645500Y-59624855D01*
X115645500Y-59535145D01*
X115611170Y-59452264D01*
X115547736Y-59388830D01*
X115464855Y-59354500D01*
X115375145Y-59354500D01*
X115340675Y-59368778D01*
X115326737Y-59374551D01*
X115309899Y-59377900D01*
X113530101Y-59377900D01*
X113513263Y-59374551D01*
X113499325Y-59368778D01*
X113464855Y-59354500D01*
X113375145Y-59354500D01*
X113340675Y-59368778D01*
X113326737Y-59374551D01*
X113309899Y-59377900D01*
X111530101Y-59377900D01*
X111513263Y-59374551D01*
X111499325Y-59368778D01*
X111464855Y-59354500D01*
X111375145Y-59354500D01*
X111340675Y-59368778D01*
X111326737Y-59374551D01*
X111309899Y-59377900D01*
X109530101Y-59377900D01*
X109513262Y-59374550D01*
X109499328Y-59368778D01*
X109485054Y-59359241D01*
X109327913Y-59202100D01*
X109156881Y-59031068D01*
X109082600Y-59000300D01*
X107837800Y-59000300D01*
X107757400Y-59000300D01*
X107683119Y-59031068D01*
X107354943Y-59359242D01*
X107340672Y-59368778D01*
X107340670Y-59368779D01*
X107326737Y-59374550D01*
X107309900Y-59377900D01*
X105530101Y-59377900D01*
X105513263Y-59374551D01*
X105499325Y-59368778D01*
X105464855Y-59354500D01*
X105375145Y-59354500D01*
X105340675Y-59368778D01*
X105326737Y-59374551D01*
X105309899Y-59377900D01*
X103530101Y-59377900D01*
X103513263Y-59374551D01*
X103499325Y-59368778D01*
X103464855Y-59354500D01*
X103375145Y-59354500D01*
X103340675Y-59368778D01*
X103326737Y-59374551D01*
X103309899Y-59377900D01*
X101530101Y-59377900D01*
X101513263Y-59374551D01*
X101499325Y-59368778D01*
X101464855Y-59354500D01*
X101375145Y-59354500D01*
X101340675Y-59368778D01*
X101326737Y-59374551D01*
X101309899Y-59377900D01*
X99530101Y-59377900D01*
X99513263Y-59374551D01*
X99499325Y-59368778D01*
X99464855Y-59354500D01*
X99375145Y-59354500D01*
X99326737Y-59374551D01*
X99292264Y-59388830D01*
X99228828Y-59452266D01*
X99208778Y-59500670D01*
X99199241Y-59514944D01*
X98971574Y-59742613D01*
X98940461Y-59755500D01*
X98817236Y-59755500D01*
X98786123Y-59742613D01*
X98773236Y-59711500D01*
X98776585Y-59694662D01*
X98805500Y-59624855D01*
X98805500Y-59535145D01*
X98771170Y-59452264D01*
X98707736Y-59388830D01*
X98624855Y-59354500D01*
X98535145Y-59354500D01*
X98452264Y-59388830D01*
X98388830Y-59452264D01*
X98354500Y-59535145D01*
X98354500Y-59624855D01*
X98383415Y-59694662D01*
X98383415Y-59728338D01*
X98359602Y-59752151D01*
X98342764Y-59755500D01*
X97899539Y-59755500D01*
X97868426Y-59742613D01*
X97640757Y-59514944D01*
X97631219Y-59500669D01*
X97611170Y-59452264D01*
X97547736Y-59388830D01*
X97464855Y-59354500D01*
X97375145Y-59354500D01*
X97340675Y-59368778D01*
X97326737Y-59374551D01*
X97309899Y-59377900D01*
X95530101Y-59377900D01*
X95513263Y-59374551D01*
X95499325Y-59368778D01*
X95464855Y-59354500D01*
X95375145Y-59354500D01*
X95340675Y-59368778D01*
X95326737Y-59374551D01*
X95309899Y-59377900D01*
X93951938Y-59377900D01*
X93920825Y-59365013D01*
X93490757Y-58934945D01*
X93481219Y-58920669D01*
X93461172Y-58872268D01*
X93461171Y-58872266D01*
X93461170Y-58872264D01*
X93397736Y-58808830D01*
X93314855Y-58774500D01*
X93225145Y-58774500D01*
X93186690Y-58790428D01*
X93176737Y-58794551D01*
X93159899Y-58797900D01*
X91640101Y-58797900D01*
X91623263Y-58794551D01*
X91613309Y-58790428D01*
X91574855Y-58774500D01*
X91485145Y-58774500D01*
X91402264Y-58808830D01*
X91338830Y-58872264D01*
X91304500Y-58955145D01*
X90000500Y-58955145D01*
X90000500Y-58375145D01*
X90354500Y-58375145D01*
X90354500Y-58464855D01*
X90388830Y-58547736D01*
X90452264Y-58611170D01*
X90535145Y-58645500D01*
X90535146Y-58645500D01*
X90624854Y-58645500D01*
X90624855Y-58645500D01*
X90707736Y-58611170D01*
X90771170Y-58547736D01*
X90805500Y-58464855D01*
X90805500Y-58375145D01*
X98354500Y-58375145D01*
X98354500Y-58464855D01*
X98388830Y-58547736D01*
X98452264Y-58611170D01*
X98535145Y-58645500D01*
X98535146Y-58645500D01*
X98624854Y-58645500D01*
X98624855Y-58645500D01*
X98707736Y-58611170D01*
X98771170Y-58547736D01*
X98805500Y-58464855D01*
X98805500Y-58375145D01*
X99194500Y-58375145D01*
X99194500Y-58464855D01*
X99228830Y-58547736D01*
X99292264Y-58611170D01*
X99375145Y-58645500D01*
X99375146Y-58645500D01*
X99464854Y-58645500D01*
X99464855Y-58645500D01*
X99547736Y-58611170D01*
X99611170Y-58547736D01*
X99645500Y-58464855D01*
X99645500Y-58375145D01*
X107194500Y-58375145D01*
X107194500Y-58464855D01*
X107228830Y-58547736D01*
X107292264Y-58611170D01*
X107375145Y-58645500D01*
X107375146Y-58645500D01*
X107464854Y-58645500D01*
X107464855Y-58645500D01*
X107547736Y-58611170D01*
X107611170Y-58547736D01*
X107645500Y-58464855D01*
X107645500Y-58375145D01*
X108354500Y-58375145D01*
X108354500Y-58464855D01*
X108388830Y-58547736D01*
X108452264Y-58611170D01*
X108535145Y-58645500D01*
X108535146Y-58645500D01*
X108624854Y-58645500D01*
X108624855Y-58645500D01*
X108707736Y-58611170D01*
X108771170Y-58547736D01*
X108805500Y-58464855D01*
X108805500Y-58375145D01*
X109194500Y-58375145D01*
X109194500Y-58464855D01*
X109228830Y-58547736D01*
X109292264Y-58611170D01*
X109375145Y-58645500D01*
X109375146Y-58645500D01*
X109464854Y-58645500D01*
X109464855Y-58645500D01*
X109547736Y-58611170D01*
X109611170Y-58547736D01*
X109645500Y-58464855D01*
X109645500Y-58375145D01*
X109611170Y-58292264D01*
X109547736Y-58228830D01*
X109464855Y-58194500D01*
X109375145Y-58194500D01*
X109292264Y-58228830D01*
X109228830Y-58292264D01*
X109194500Y-58375145D01*
X108805500Y-58375145D01*
X108771170Y-58292264D01*
X108707736Y-58228830D01*
X108624855Y-58194500D01*
X108535145Y-58194500D01*
X108452264Y-58228830D01*
X108388830Y-58292264D01*
X108354500Y-58375145D01*
X107645500Y-58375145D01*
X107611170Y-58292264D01*
X107547736Y-58228830D01*
X107464855Y-58194500D01*
X107375145Y-58194500D01*
X107292264Y-58228830D01*
X107228830Y-58292264D01*
X107194500Y-58375145D01*
X99645500Y-58375145D01*
X99611170Y-58292264D01*
X99547736Y-58228830D01*
X99464855Y-58194500D01*
X99375145Y-58194500D01*
X99292264Y-58228830D01*
X99228830Y-58292264D01*
X99194500Y-58375145D01*
X98805500Y-58375145D01*
X98771170Y-58292264D01*
X98707736Y-58228830D01*
X98624855Y-58194500D01*
X98535145Y-58194500D01*
X98452264Y-58228830D01*
X98388830Y-58292264D01*
X98354500Y-58375145D01*
X90805500Y-58375145D01*
X90771170Y-58292264D01*
X90707736Y-58228830D01*
X90624855Y-58194500D01*
X90535145Y-58194500D01*
X90452264Y-58228830D01*
X90388830Y-58292264D01*
X90354500Y-58375145D01*
X90000500Y-58375145D01*
X90000500Y-57535145D01*
X92354500Y-57535145D01*
X92354500Y-57624855D01*
X92388830Y-57707736D01*
X92452264Y-57771170D01*
X92535145Y-57805500D01*
X92535146Y-57805500D01*
X92624854Y-57805500D01*
X92624855Y-57805500D01*
X92707736Y-57771170D01*
X92771170Y-57707736D01*
X92805500Y-57624855D01*
X92805500Y-57535145D01*
X92771170Y-57452264D01*
X92707736Y-57388830D01*
X92624855Y-57354500D01*
X92535145Y-57354500D01*
X92452264Y-57388830D01*
X92388830Y-57452264D01*
X92354500Y-57535145D01*
X90000500Y-57535145D01*
X90000500Y-56955145D01*
X91304500Y-56955145D01*
X91304500Y-57044855D01*
X91338830Y-57127736D01*
X91402264Y-57191170D01*
X91485145Y-57225500D01*
X91485146Y-57225500D01*
X91574854Y-57225500D01*
X91574855Y-57225500D01*
X91623263Y-57205449D01*
X91640101Y-57202100D01*
X93159901Y-57202100D01*
X93176738Y-57205449D01*
X93190669Y-57211219D01*
X93204945Y-57220757D01*
X93735520Y-57751332D01*
X93809800Y-57782100D01*
X93890201Y-57782100D01*
X95309899Y-57782100D01*
X95326737Y-57785449D01*
X95375145Y-57805500D01*
X95375146Y-57805500D01*
X95464854Y-57805500D01*
X95464855Y-57805500D01*
X95513263Y-57785449D01*
X95530101Y-57782100D01*
X97309899Y-57782100D01*
X97326737Y-57785449D01*
X97375145Y-57805500D01*
X97375146Y-57805500D01*
X97464854Y-57805500D01*
X97464855Y-57805500D01*
X97513263Y-57785449D01*
X97530101Y-57782100D01*
X99309899Y-57782100D01*
X99326737Y-57785449D01*
X99375145Y-57805500D01*
X99375146Y-57805500D01*
X99464854Y-57805500D01*
X99464855Y-57805500D01*
X99547736Y-57771170D01*
X99611170Y-57707736D01*
X99631220Y-57659328D01*
X99640754Y-57645057D01*
X99868426Y-57417387D01*
X99899539Y-57404500D01*
X100342764Y-57404500D01*
X100373877Y-57417387D01*
X100386764Y-57448500D01*
X100383415Y-57465336D01*
X100354500Y-57535145D01*
X100354500Y-57624855D01*
X100388830Y-57707736D01*
X100452264Y-57771170D01*
X100535145Y-57805500D01*
X100535146Y-57805500D01*
X100624854Y-57805500D01*
X100624855Y-57805500D01*
X100707736Y-57771170D01*
X100771170Y-57707736D01*
X100805500Y-57624855D01*
X100805500Y-57535145D01*
X100776585Y-57465337D01*
X100776585Y-57431662D01*
X100800398Y-57407849D01*
X100817236Y-57404500D01*
X100940461Y-57404500D01*
X100971574Y-57417387D01*
X101199241Y-57645054D01*
X101208778Y-57659327D01*
X101228830Y-57707736D01*
X101292264Y-57771170D01*
X101375145Y-57805500D01*
X101375146Y-57805500D01*
X101464854Y-57805500D01*
X101464855Y-57805500D01*
X101513263Y-57785449D01*
X101530101Y-57782100D01*
X103309899Y-57782100D01*
X103326737Y-57785449D01*
X103375145Y-57805500D01*
X103375146Y-57805500D01*
X103464854Y-57805500D01*
X103464855Y-57805500D01*
X103513263Y-57785449D01*
X103530101Y-57782100D01*
X105309899Y-57782100D01*
X105326737Y-57785449D01*
X105375145Y-57805500D01*
X105375146Y-57805500D01*
X105464854Y-57805500D01*
X105464855Y-57805500D01*
X105513263Y-57785449D01*
X105530101Y-57782100D01*
X107309899Y-57782100D01*
X107326737Y-57785449D01*
X107375145Y-57805500D01*
X107375146Y-57805500D01*
X107464854Y-57805500D01*
X107464855Y-57805500D01*
X107513263Y-57785449D01*
X107530101Y-57782100D01*
X109309899Y-57782100D01*
X109326737Y-57785449D01*
X109375145Y-57805500D01*
X109375146Y-57805500D01*
X109464854Y-57805500D01*
X109464855Y-57805500D01*
X109547736Y-57771170D01*
X109611170Y-57707736D01*
X109631220Y-57659328D01*
X109640754Y-57645057D01*
X109868426Y-57417387D01*
X109899539Y-57404500D01*
X110342764Y-57404500D01*
X110373877Y-57417387D01*
X110386764Y-57448500D01*
X110383415Y-57465336D01*
X110354500Y-57535145D01*
X110354500Y-57624855D01*
X110388830Y-57707736D01*
X110452264Y-57771170D01*
X110535145Y-57805500D01*
X110535146Y-57805500D01*
X110624854Y-57805500D01*
X110624855Y-57805500D01*
X110707736Y-57771170D01*
X110771170Y-57707736D01*
X110805500Y-57624855D01*
X110805500Y-57535145D01*
X110776585Y-57465337D01*
X110776585Y-57431662D01*
X110800398Y-57407849D01*
X110817236Y-57404500D01*
X110940461Y-57404500D01*
X110971574Y-57417387D01*
X111199241Y-57645054D01*
X111208778Y-57659327D01*
X111228830Y-57707736D01*
X111292264Y-57771170D01*
X111375145Y-57805500D01*
X111375146Y-57805500D01*
X111464854Y-57805500D01*
X111464855Y-57805500D01*
X111513263Y-57785449D01*
X111530101Y-57782100D01*
X113309899Y-57782100D01*
X113326737Y-57785449D01*
X113375145Y-57805500D01*
X113375146Y-57805500D01*
X113464854Y-57805500D01*
X113464855Y-57805500D01*
X113513263Y-57785449D01*
X113530101Y-57782100D01*
X115309899Y-57782100D01*
X115326737Y-57785449D01*
X115375145Y-57805500D01*
X115375146Y-57805500D01*
X115464854Y-57805500D01*
X115464855Y-57805500D01*
X115547736Y-57771170D01*
X115611170Y-57707736D01*
X115645500Y-57624855D01*
X115645500Y-57535145D01*
X115611170Y-57452264D01*
X115547736Y-57388830D01*
X115464855Y-57354500D01*
X115375145Y-57354500D01*
X115340675Y-57368778D01*
X115326737Y-57374551D01*
X115309899Y-57377900D01*
X113530101Y-57377900D01*
X113513263Y-57374551D01*
X113499325Y-57368778D01*
X113464855Y-57354500D01*
X113375145Y-57354500D01*
X113340675Y-57368778D01*
X113326737Y-57374551D01*
X113309899Y-57377900D01*
X111530101Y-57377900D01*
X111513262Y-57374550D01*
X111499328Y-57368778D01*
X111485054Y-57359241D01*
X111327913Y-57202100D01*
X111156881Y-57031068D01*
X111082600Y-57000300D01*
X109837800Y-57000300D01*
X109757400Y-57000300D01*
X109683119Y-57031068D01*
X109354943Y-57359242D01*
X109340672Y-57368778D01*
X109340670Y-57368779D01*
X109326737Y-57374550D01*
X109309900Y-57377900D01*
X107530101Y-57377900D01*
X107513263Y-57374551D01*
X107499325Y-57368778D01*
X107464855Y-57354500D01*
X107375145Y-57354500D01*
X107340675Y-57368778D01*
X107326737Y-57374551D01*
X107309899Y-57377900D01*
X105530101Y-57377900D01*
X105513263Y-57374551D01*
X105499325Y-57368778D01*
X105464855Y-57354500D01*
X105375145Y-57354500D01*
X105340675Y-57368778D01*
X105326737Y-57374551D01*
X105309899Y-57377900D01*
X103530101Y-57377900D01*
X103513263Y-57374551D01*
X103499325Y-57368778D01*
X103464855Y-57354500D01*
X103375145Y-57354500D01*
X103340675Y-57368778D01*
X103326737Y-57374551D01*
X103309899Y-57377900D01*
X101530101Y-57377900D01*
X101513262Y-57374550D01*
X101499328Y-57368778D01*
X101485054Y-57359241D01*
X101327913Y-57202100D01*
X101156881Y-57031068D01*
X101082600Y-57000300D01*
X99837800Y-57000300D01*
X99757400Y-57000300D01*
X99683119Y-57031068D01*
X99354943Y-57359242D01*
X99340672Y-57368778D01*
X99340670Y-57368779D01*
X99326737Y-57374550D01*
X99309900Y-57377900D01*
X97530101Y-57377900D01*
X97513263Y-57374551D01*
X97499325Y-57368778D01*
X97464855Y-57354500D01*
X97375145Y-57354500D01*
X97340675Y-57368778D01*
X97326737Y-57374551D01*
X97309899Y-57377900D01*
X95530101Y-57377900D01*
X95513263Y-57374551D01*
X95499325Y-57368778D01*
X95464855Y-57354500D01*
X95375145Y-57354500D01*
X95340675Y-57368778D01*
X95326737Y-57374551D01*
X95309899Y-57377900D01*
X93951938Y-57377900D01*
X93920825Y-57365013D01*
X93490757Y-56934945D01*
X93481219Y-56920669D01*
X93461172Y-56872268D01*
X93461171Y-56872266D01*
X93461170Y-56872264D01*
X93397736Y-56808830D01*
X93314855Y-56774500D01*
X93225145Y-56774500D01*
X93186690Y-56790428D01*
X93176737Y-56794551D01*
X93159899Y-56797900D01*
X91640101Y-56797900D01*
X91623263Y-56794551D01*
X91613309Y-56790428D01*
X91574855Y-56774500D01*
X91485145Y-56774500D01*
X91402264Y-56808830D01*
X91338830Y-56872264D01*
X91304500Y-56955145D01*
X90000500Y-56955145D01*
X90000500Y-56375145D01*
X110354500Y-56375145D01*
X110354500Y-56464855D01*
X110388830Y-56547736D01*
X110452264Y-56611170D01*
X110535145Y-56645500D01*
X110535146Y-56645500D01*
X110624854Y-56645500D01*
X110624855Y-56645500D01*
X110707736Y-56611170D01*
X110771170Y-56547736D01*
X110805500Y-56464855D01*
X110805500Y-56375145D01*
X111194500Y-56375145D01*
X111194500Y-56464855D01*
X111228830Y-56547736D01*
X111292264Y-56611170D01*
X111375145Y-56645500D01*
X111375146Y-56645500D01*
X111464854Y-56645500D01*
X111464855Y-56645500D01*
X111547736Y-56611170D01*
X111611170Y-56547736D01*
X111645500Y-56464855D01*
X111645500Y-56375145D01*
X113194500Y-56375145D01*
X113194500Y-56464855D01*
X113228830Y-56547736D01*
X113292264Y-56611170D01*
X113375145Y-56645500D01*
X113375146Y-56645500D01*
X113464854Y-56645500D01*
X113464855Y-56645500D01*
X113547736Y-56611170D01*
X113611170Y-56547736D01*
X113645500Y-56464855D01*
X113645500Y-56375145D01*
X115194500Y-56375145D01*
X115194500Y-56464855D01*
X115228830Y-56547736D01*
X115292264Y-56611170D01*
X115375145Y-56645500D01*
X115375146Y-56645500D01*
X115464854Y-56645500D01*
X115464855Y-56645500D01*
X115547736Y-56611170D01*
X115611170Y-56547736D01*
X115645500Y-56464855D01*
X115645500Y-56375145D01*
X115611170Y-56292264D01*
X115547736Y-56228830D01*
X115464855Y-56194500D01*
X115375145Y-56194500D01*
X115292264Y-56228830D01*
X115228830Y-56292264D01*
X115194500Y-56375145D01*
X113645500Y-56375145D01*
X113611170Y-56292264D01*
X113547736Y-56228830D01*
X113464855Y-56194500D01*
X113375145Y-56194500D01*
X113292264Y-56228830D01*
X113228830Y-56292264D01*
X113194500Y-56375145D01*
X111645500Y-56375145D01*
X111611170Y-56292264D01*
X111547736Y-56228830D01*
X111464855Y-56194500D01*
X111375145Y-56194500D01*
X111292264Y-56228830D01*
X111228830Y-56292264D01*
X111194500Y-56375145D01*
X110805500Y-56375145D01*
X110771170Y-56292264D01*
X110707736Y-56228830D01*
X110624855Y-56194500D01*
X110535145Y-56194500D01*
X110452264Y-56228830D01*
X110388830Y-56292264D01*
X110354500Y-56375145D01*
X90000500Y-56375145D01*
X90000500Y-54375145D01*
X91194500Y-54375145D01*
X91194500Y-54464855D01*
X91228830Y-54547736D01*
X91292264Y-54611170D01*
X91308517Y-54617902D01*
X91332329Y-54641713D01*
X91332330Y-54675389D01*
X91308519Y-54699202D01*
X91292515Y-54705831D01*
X91292514Y-54705832D01*
X91229080Y-54769266D01*
X91194750Y-54852147D01*
X91194750Y-54941857D01*
X91229080Y-55024738D01*
X91292514Y-55088172D01*
X91375395Y-55122502D01*
X91375396Y-55122502D01*
X91465104Y-55122502D01*
X91465105Y-55122502D01*
X91513513Y-55102451D01*
X91530351Y-55099102D01*
X93310150Y-55099102D01*
X93326987Y-55102451D01*
X93340918Y-55108221D01*
X93355194Y-55117759D01*
X93988767Y-55751332D01*
X94063048Y-55782100D01*
X94143448Y-55782100D01*
X95309899Y-55782100D01*
X95326737Y-55785449D01*
X95375145Y-55805500D01*
X95375146Y-55805500D01*
X95464854Y-55805500D01*
X95464855Y-55805500D01*
X95513263Y-55785449D01*
X95530101Y-55782100D01*
X97309899Y-55782100D01*
X97326737Y-55785449D01*
X97375145Y-55805500D01*
X97375146Y-55805500D01*
X97464854Y-55805500D01*
X97464855Y-55805500D01*
X97513263Y-55785449D01*
X97530101Y-55782100D01*
X99309899Y-55782100D01*
X99326737Y-55785449D01*
X99375145Y-55805500D01*
X99375146Y-55805500D01*
X99464854Y-55805500D01*
X99464855Y-55805500D01*
X99513263Y-55785449D01*
X99530101Y-55782100D01*
X101309899Y-55782100D01*
X101326737Y-55785449D01*
X101375145Y-55805500D01*
X101375146Y-55805500D01*
X101464854Y-55805500D01*
X101464855Y-55805500D01*
X101513263Y-55785449D01*
X101530101Y-55782100D01*
X103309899Y-55782100D01*
X103326737Y-55785449D01*
X103375145Y-55805500D01*
X103375146Y-55805500D01*
X103464854Y-55805500D01*
X103464855Y-55805500D01*
X103513263Y-55785449D01*
X103530101Y-55782100D01*
X105309899Y-55782100D01*
X105326737Y-55785449D01*
X105375145Y-55805500D01*
X105375146Y-55805500D01*
X105464854Y-55805500D01*
X105464855Y-55805500D01*
X105513263Y-55785449D01*
X105530101Y-55782100D01*
X107309899Y-55782100D01*
X107326737Y-55785449D01*
X107375145Y-55805500D01*
X107375146Y-55805500D01*
X107464854Y-55805500D01*
X107464855Y-55805500D01*
X107513263Y-55785449D01*
X107530101Y-55782100D01*
X109309899Y-55782100D01*
X109326737Y-55785449D01*
X109375145Y-55805500D01*
X109375146Y-55805500D01*
X109464854Y-55805500D01*
X109464855Y-55805500D01*
X109513263Y-55785449D01*
X109530101Y-55782100D01*
X111309899Y-55782100D01*
X111326737Y-55785449D01*
X111375145Y-55805500D01*
X111375146Y-55805500D01*
X111464854Y-55805500D01*
X111464855Y-55805500D01*
X111547736Y-55771170D01*
X111611170Y-55707736D01*
X111631220Y-55659328D01*
X111640754Y-55645057D01*
X112173824Y-55111989D01*
X112204937Y-55099102D01*
X113310149Y-55099102D01*
X113326987Y-55102451D01*
X113375395Y-55122502D01*
X113375396Y-55122502D01*
X113465104Y-55122502D01*
X113465105Y-55122502D01*
X113513513Y-55102451D01*
X113530351Y-55099102D01*
X114635063Y-55099102D01*
X114666176Y-55111989D01*
X115199241Y-55645054D01*
X115208778Y-55659327D01*
X115228830Y-55707736D01*
X115292264Y-55771170D01*
X115375145Y-55805500D01*
X115375146Y-55805500D01*
X115464854Y-55805500D01*
X115464855Y-55805500D01*
X115547736Y-55771170D01*
X115611170Y-55707736D01*
X115645500Y-55624855D01*
X115645500Y-55535145D01*
X115611170Y-55452264D01*
X115547736Y-55388830D01*
X115499327Y-55368778D01*
X115485054Y-55359241D01*
X115213984Y-55088171D01*
X114851483Y-54725670D01*
X114777202Y-54694902D01*
X114777201Y-54694902D01*
X113530351Y-54694902D01*
X113513513Y-54691553D01*
X113503559Y-54687430D01*
X113465105Y-54671502D01*
X113375395Y-54671502D01*
X113336940Y-54687430D01*
X113326987Y-54691553D01*
X113310149Y-54694902D01*
X112726791Y-54694902D01*
X112695678Y-54682015D01*
X112682791Y-54650902D01*
X112695678Y-54619789D01*
X112704392Y-54613967D01*
X112704133Y-54613578D01*
X112707731Y-54611173D01*
X112707732Y-54611171D01*
X112707736Y-54611170D01*
X112771170Y-54547736D01*
X112805500Y-54464855D01*
X112805500Y-54375145D01*
X112771170Y-54292264D01*
X112707736Y-54228830D01*
X112624855Y-54194500D01*
X112535145Y-54194500D01*
X112452264Y-54228830D01*
X112388830Y-54292264D01*
X112354500Y-54375145D01*
X112354500Y-54464855D01*
X112388830Y-54547736D01*
X112452264Y-54611170D01*
X112452265Y-54611170D01*
X112452268Y-54611173D01*
X112455867Y-54613578D01*
X112454867Y-54615073D01*
X112473858Y-54634060D01*
X112473861Y-54667736D01*
X112450051Y-54691551D01*
X112433209Y-54694902D01*
X112143198Y-54694902D01*
X112062798Y-54694902D01*
X111988517Y-54725670D01*
X111354943Y-55359242D01*
X111340670Y-55368779D01*
X111326737Y-55374550D01*
X111309900Y-55377900D01*
X109530101Y-55377900D01*
X109513263Y-55374551D01*
X109499328Y-55368779D01*
X109464855Y-55354500D01*
X109375145Y-55354500D01*
X109340672Y-55368779D01*
X109326737Y-55374551D01*
X109309899Y-55377900D01*
X107530101Y-55377900D01*
X107513263Y-55374551D01*
X107499328Y-55368779D01*
X107464855Y-55354500D01*
X107375145Y-55354500D01*
X107340672Y-55368779D01*
X107326737Y-55374551D01*
X107309899Y-55377900D01*
X105530101Y-55377900D01*
X105513263Y-55374551D01*
X105499328Y-55368779D01*
X105464855Y-55354500D01*
X105375145Y-55354500D01*
X105340672Y-55368779D01*
X105326737Y-55374551D01*
X105309899Y-55377900D01*
X103530101Y-55377900D01*
X103513263Y-55374551D01*
X103499328Y-55368779D01*
X103464855Y-55354500D01*
X103375145Y-55354500D01*
X103340672Y-55368779D01*
X103326737Y-55374551D01*
X103309899Y-55377900D01*
X101530101Y-55377900D01*
X101513263Y-55374551D01*
X101499328Y-55368779D01*
X101464855Y-55354500D01*
X101375145Y-55354500D01*
X101340672Y-55368779D01*
X101326737Y-55374551D01*
X101309899Y-55377900D01*
X99530101Y-55377900D01*
X99513263Y-55374551D01*
X99499328Y-55368779D01*
X99464855Y-55354500D01*
X99375145Y-55354500D01*
X99340672Y-55368779D01*
X99326737Y-55374551D01*
X99309899Y-55377900D01*
X97530101Y-55377900D01*
X97513263Y-55374551D01*
X97499328Y-55368779D01*
X97464855Y-55354500D01*
X97375145Y-55354500D01*
X97340672Y-55368779D01*
X97326737Y-55374551D01*
X97309899Y-55377900D01*
X95530101Y-55377900D01*
X95513263Y-55374551D01*
X95499328Y-55368779D01*
X95464855Y-55354500D01*
X95375145Y-55354500D01*
X95340672Y-55368779D01*
X95326737Y-55374551D01*
X95309899Y-55377900D01*
X94205187Y-55377900D01*
X94174074Y-55365013D01*
X93641007Y-54831946D01*
X93631469Y-54817671D01*
X93611420Y-54769266D01*
X93547986Y-54705832D01*
X93465105Y-54671502D01*
X93375395Y-54671502D01*
X93336940Y-54687430D01*
X93326987Y-54691553D01*
X93310149Y-54694902D01*
X92726791Y-54694902D01*
X92695678Y-54682015D01*
X92682791Y-54650902D01*
X92695678Y-54619789D01*
X92704392Y-54613967D01*
X92704133Y-54613578D01*
X92707731Y-54611173D01*
X92707732Y-54611171D01*
X92707736Y-54611170D01*
X92771170Y-54547736D01*
X92805500Y-54464855D01*
X92805500Y-54375145D01*
X92771170Y-54292264D01*
X92707736Y-54228830D01*
X92624855Y-54194500D01*
X92535145Y-54194500D01*
X92452264Y-54228830D01*
X92388830Y-54292264D01*
X92354500Y-54375145D01*
X92354500Y-54464855D01*
X92388830Y-54547736D01*
X92452264Y-54611170D01*
X92452265Y-54611170D01*
X92452268Y-54611173D01*
X92455867Y-54613578D01*
X92454867Y-54615073D01*
X92473858Y-54634060D01*
X92473861Y-54667736D01*
X92450051Y-54691551D01*
X92433209Y-54694902D01*
X91566791Y-54694902D01*
X91535678Y-54682015D01*
X91522791Y-54650902D01*
X91535678Y-54619789D01*
X91544392Y-54613967D01*
X91544133Y-54613578D01*
X91547731Y-54611173D01*
X91547732Y-54611171D01*
X91547736Y-54611170D01*
X91611170Y-54547736D01*
X91645500Y-54464855D01*
X91645500Y-54375145D01*
X91611170Y-54292264D01*
X91547736Y-54228830D01*
X91464855Y-54194500D01*
X91375145Y-54194500D01*
X91292264Y-54228830D01*
X91228830Y-54292264D01*
X91194500Y-54375145D01*
X90000500Y-54375145D01*
X90000500Y-53535145D01*
X91194500Y-53535145D01*
X91194500Y-53624855D01*
X91228830Y-53707736D01*
X91292264Y-53771170D01*
X91375145Y-53805500D01*
X91375146Y-53805500D01*
X91464854Y-53805500D01*
X91464855Y-53805500D01*
X91513263Y-53785449D01*
X91530101Y-53782100D01*
X93309899Y-53782100D01*
X93326737Y-53785449D01*
X93375145Y-53805500D01*
X93375146Y-53805500D01*
X93464854Y-53805500D01*
X93464855Y-53805500D01*
X93513263Y-53785449D01*
X93530101Y-53782100D01*
X95309899Y-53782100D01*
X95326737Y-53785449D01*
X95375145Y-53805500D01*
X95375146Y-53805500D01*
X95464854Y-53805500D01*
X95464855Y-53805500D01*
X95513263Y-53785449D01*
X95530101Y-53782100D01*
X97309899Y-53782100D01*
X97326737Y-53785449D01*
X97375145Y-53805500D01*
X97375146Y-53805500D01*
X97464854Y-53805500D01*
X97464855Y-53805500D01*
X97513263Y-53785449D01*
X97530101Y-53782100D01*
X99309899Y-53782100D01*
X99326737Y-53785449D01*
X99375145Y-53805500D01*
X99375146Y-53805500D01*
X99464854Y-53805500D01*
X99464855Y-53805500D01*
X99513263Y-53785449D01*
X99530101Y-53782100D01*
X101309899Y-53782100D01*
X101326737Y-53785449D01*
X101375145Y-53805500D01*
X101375146Y-53805500D01*
X101464854Y-53805500D01*
X101464855Y-53805500D01*
X101513263Y-53785449D01*
X101530101Y-53782100D01*
X103309899Y-53782100D01*
X103326737Y-53785449D01*
X103375145Y-53805500D01*
X103375146Y-53805500D01*
X103464854Y-53805500D01*
X103464855Y-53805500D01*
X103513263Y-53785449D01*
X103530101Y-53782100D01*
X105309899Y-53782100D01*
X105326737Y-53785449D01*
X105375145Y-53805500D01*
X105375146Y-53805500D01*
X105464854Y-53805500D01*
X105464855Y-53805500D01*
X105513263Y-53785449D01*
X105530101Y-53782100D01*
X107309899Y-53782100D01*
X107326737Y-53785449D01*
X107375145Y-53805500D01*
X107375146Y-53805500D01*
X107464854Y-53805500D01*
X107464855Y-53805500D01*
X107513263Y-53785449D01*
X107530101Y-53782100D01*
X109309899Y-53782100D01*
X109326737Y-53785449D01*
X109375145Y-53805500D01*
X109375146Y-53805500D01*
X109464854Y-53805500D01*
X109464855Y-53805500D01*
X109513263Y-53785449D01*
X109530101Y-53782100D01*
X111309899Y-53782100D01*
X111326737Y-53785449D01*
X111375145Y-53805500D01*
X111375146Y-53805500D01*
X111464854Y-53805500D01*
X111464855Y-53805500D01*
X111547736Y-53771170D01*
X111611170Y-53707736D01*
X111631220Y-53659328D01*
X111640754Y-53645057D01*
X111868426Y-53417387D01*
X111899539Y-53404500D01*
X112342764Y-53404500D01*
X112373877Y-53417387D01*
X112386764Y-53448500D01*
X112383415Y-53465336D01*
X112354500Y-53535145D01*
X112354500Y-53624855D01*
X112388830Y-53707736D01*
X112452264Y-53771170D01*
X112535145Y-53805500D01*
X112535146Y-53805500D01*
X112624854Y-53805500D01*
X112624855Y-53805500D01*
X112707736Y-53771170D01*
X112771170Y-53707736D01*
X112805500Y-53624855D01*
X112805500Y-53535145D01*
X112776585Y-53465337D01*
X112776585Y-53431662D01*
X112800398Y-53407849D01*
X112817236Y-53404500D01*
X112940461Y-53404500D01*
X112971574Y-53417387D01*
X113199241Y-53645054D01*
X113208778Y-53659327D01*
X113228830Y-53707736D01*
X113292264Y-53771170D01*
X113340670Y-53791219D01*
X113354944Y-53800757D01*
X113683119Y-54128932D01*
X113757400Y-54159700D01*
X113757401Y-54159700D01*
X115082599Y-54159700D01*
X115082600Y-54159700D01*
X115156881Y-54128932D01*
X115485057Y-53800754D01*
X115499328Y-53791220D01*
X115547736Y-53771170D01*
X115611170Y-53707736D01*
X115645500Y-53624855D01*
X115645500Y-53535145D01*
X115611170Y-53452264D01*
X115547736Y-53388830D01*
X115464855Y-53354500D01*
X115375145Y-53354500D01*
X115326737Y-53374551D01*
X115292264Y-53388830D01*
X115228828Y-53452266D01*
X115208778Y-53500670D01*
X115199241Y-53514944D01*
X114971574Y-53742613D01*
X114940461Y-53755500D01*
X114817236Y-53755500D01*
X114786123Y-53742613D01*
X114773236Y-53711500D01*
X114776585Y-53694662D01*
X114791220Y-53659330D01*
X114805500Y-53624855D01*
X114805500Y-53535145D01*
X114771170Y-53452264D01*
X114707736Y-53388830D01*
X114624855Y-53354500D01*
X114535145Y-53354500D01*
X114452264Y-53388830D01*
X114388830Y-53452264D01*
X114354500Y-53535145D01*
X114354500Y-53624855D01*
X114368780Y-53659330D01*
X114383415Y-53694662D01*
X114383415Y-53728338D01*
X114359602Y-53752151D01*
X114342764Y-53755500D01*
X113899539Y-53755500D01*
X113868426Y-53742613D01*
X113640757Y-53514944D01*
X113631219Y-53500669D01*
X113611170Y-53452264D01*
X113547736Y-53388830D01*
X113499327Y-53368778D01*
X113485054Y-53359241D01*
X113480313Y-53354500D01*
X113156881Y-53031068D01*
X113082600Y-53000300D01*
X111837800Y-53000300D01*
X111757400Y-53000300D01*
X111683119Y-53031068D01*
X111354943Y-53359242D01*
X111340670Y-53368779D01*
X111326737Y-53374550D01*
X111309900Y-53377900D01*
X109530101Y-53377900D01*
X109513263Y-53374551D01*
X109499328Y-53368779D01*
X109464855Y-53354500D01*
X109375145Y-53354500D01*
X109340672Y-53368779D01*
X109326737Y-53374551D01*
X109309899Y-53377900D01*
X107530101Y-53377900D01*
X107513263Y-53374551D01*
X107499328Y-53368779D01*
X107464855Y-53354500D01*
X107375145Y-53354500D01*
X107340672Y-53368779D01*
X107326737Y-53374551D01*
X107309899Y-53377900D01*
X105530101Y-53377900D01*
X105513263Y-53374551D01*
X105499328Y-53368779D01*
X105464855Y-53354500D01*
X105375145Y-53354500D01*
X105340672Y-53368779D01*
X105326737Y-53374551D01*
X105309899Y-53377900D01*
X103530101Y-53377900D01*
X103513263Y-53374551D01*
X103499328Y-53368779D01*
X103464855Y-53354500D01*
X103375145Y-53354500D01*
X103340672Y-53368779D01*
X103326737Y-53374551D01*
X103309899Y-53377900D01*
X101530101Y-53377900D01*
X101513263Y-53374551D01*
X101499328Y-53368779D01*
X101464855Y-53354500D01*
X101375145Y-53354500D01*
X101340672Y-53368779D01*
X101326737Y-53374551D01*
X101309899Y-53377900D01*
X99530101Y-53377900D01*
X99513263Y-53374551D01*
X99499328Y-53368779D01*
X99464855Y-53354500D01*
X99375145Y-53354500D01*
X99340672Y-53368779D01*
X99326737Y-53374551D01*
X99309899Y-53377900D01*
X97530101Y-53377900D01*
X97513263Y-53374551D01*
X97499328Y-53368779D01*
X97464855Y-53354500D01*
X97375145Y-53354500D01*
X97340672Y-53368779D01*
X97326737Y-53374551D01*
X97309899Y-53377900D01*
X95530101Y-53377900D01*
X95513263Y-53374551D01*
X95499328Y-53368779D01*
X95464855Y-53354500D01*
X95375145Y-53354500D01*
X95340672Y-53368779D01*
X95326737Y-53374551D01*
X95309899Y-53377900D01*
X93530101Y-53377900D01*
X93513263Y-53374551D01*
X93499328Y-53368779D01*
X93464855Y-53354500D01*
X93375145Y-53354500D01*
X93340672Y-53368779D01*
X93326737Y-53374551D01*
X93309899Y-53377900D01*
X91530101Y-53377900D01*
X91513263Y-53374551D01*
X91499328Y-53368779D01*
X91464855Y-53354500D01*
X91375145Y-53354500D01*
X91292264Y-53388830D01*
X91228830Y-53452264D01*
X91194500Y-53535145D01*
X90000500Y-53535145D01*
X90000500Y-52375145D01*
X93194500Y-52375145D01*
X93194500Y-52464855D01*
X93228830Y-52547736D01*
X93292264Y-52611170D01*
X93375145Y-52645500D01*
X93375146Y-52645500D01*
X93464854Y-52645500D01*
X93464855Y-52645500D01*
X93547736Y-52611170D01*
X93611170Y-52547736D01*
X93645500Y-52464855D01*
X93645500Y-52375145D01*
X93611170Y-52292264D01*
X93547736Y-52228830D01*
X93464855Y-52194500D01*
X93375145Y-52194500D01*
X93292264Y-52228830D01*
X93228830Y-52292264D01*
X93194500Y-52375145D01*
X90000500Y-52375145D01*
X90000500Y-51535145D01*
X91194500Y-51535145D01*
X91194500Y-51624855D01*
X91228830Y-51707736D01*
X91292264Y-51771170D01*
X91340670Y-51791219D01*
X91354944Y-51800757D01*
X91712619Y-52158432D01*
X91712621Y-52158433D01*
X91712624Y-52158435D01*
X91743385Y-52171175D01*
X91743386Y-52171176D01*
X91743387Y-52171176D01*
X91786900Y-52189200D01*
X91786902Y-52189200D01*
X93053099Y-52189200D01*
X93053100Y-52189200D01*
X93127381Y-52158432D01*
X93388888Y-51896924D01*
X93420000Y-51884038D01*
X93451111Y-51896924D01*
X93712619Y-52158432D01*
X93712621Y-52158433D01*
X93712624Y-52158435D01*
X93743385Y-52171175D01*
X93743386Y-52171176D01*
X93743387Y-52171176D01*
X93786900Y-52189200D01*
X93786902Y-52189200D01*
X95053099Y-52189200D01*
X95053100Y-52189200D01*
X95127381Y-52158432D01*
X95388888Y-51896924D01*
X95420000Y-51884038D01*
X95451111Y-51896924D01*
X95712619Y-52158432D01*
X95712621Y-52158433D01*
X95712624Y-52158435D01*
X95743385Y-52171175D01*
X95743386Y-52171176D01*
X95743387Y-52171176D01*
X95786900Y-52189200D01*
X95786902Y-52189200D01*
X97053099Y-52189200D01*
X97053100Y-52189200D01*
X97127381Y-52158432D01*
X97388888Y-51896924D01*
X97420000Y-51884038D01*
X97451111Y-51896924D01*
X97712619Y-52158432D01*
X97712621Y-52158433D01*
X97712624Y-52158435D01*
X97743385Y-52171175D01*
X97743386Y-52171176D01*
X97743387Y-52171176D01*
X97786900Y-52189200D01*
X97786902Y-52189200D01*
X99053099Y-52189200D01*
X99053100Y-52189200D01*
X99127381Y-52158432D01*
X99388888Y-51896924D01*
X99420000Y-51884038D01*
X99451111Y-51896924D01*
X99712619Y-52158432D01*
X99712621Y-52158433D01*
X99712624Y-52158435D01*
X99743385Y-52171175D01*
X99743386Y-52171176D01*
X99743387Y-52171176D01*
X99786900Y-52189200D01*
X99786902Y-52189200D01*
X101053099Y-52189200D01*
X101053100Y-52189200D01*
X101127381Y-52158432D01*
X101388888Y-51896924D01*
X101420000Y-51884038D01*
X101451111Y-51896924D01*
X101712619Y-52158432D01*
X101712621Y-52158433D01*
X101712624Y-52158435D01*
X101743385Y-52171175D01*
X101743386Y-52171176D01*
X101743387Y-52171176D01*
X101786900Y-52189200D01*
X101786902Y-52189200D01*
X103053099Y-52189200D01*
X103053100Y-52189200D01*
X103127381Y-52158432D01*
X103388888Y-51896924D01*
X103420000Y-51884038D01*
X103451111Y-51896924D01*
X103712619Y-52158432D01*
X103712621Y-52158433D01*
X103712624Y-52158435D01*
X103743385Y-52171175D01*
X103743386Y-52171176D01*
X103743387Y-52171176D01*
X103786900Y-52189200D01*
X103786902Y-52189200D01*
X105053099Y-52189200D01*
X105053100Y-52189200D01*
X105127381Y-52158432D01*
X105388888Y-51896923D01*
X105420000Y-51884037D01*
X105451111Y-51896923D01*
X105735020Y-52180832D01*
X105809300Y-52211600D01*
X105809301Y-52211600D01*
X107030699Y-52211600D01*
X107030700Y-52211600D01*
X107104981Y-52180832D01*
X107388888Y-51896923D01*
X107419999Y-51884037D01*
X107451110Y-51896923D01*
X107712619Y-52158432D01*
X107712621Y-52158433D01*
X107712624Y-52158435D01*
X107743385Y-52171175D01*
X107743386Y-52171176D01*
X107743387Y-52171176D01*
X107786900Y-52189200D01*
X107786902Y-52189200D01*
X109053099Y-52189200D01*
X109053100Y-52189200D01*
X109127381Y-52158432D01*
X109388888Y-51896924D01*
X109420000Y-51884038D01*
X109451111Y-51896924D01*
X109712619Y-52158432D01*
X109712621Y-52158433D01*
X109712624Y-52158435D01*
X109743385Y-52171175D01*
X109743386Y-52171176D01*
X109743387Y-52171176D01*
X109786900Y-52189200D01*
X109786902Y-52189200D01*
X111053099Y-52189200D01*
X111053100Y-52189200D01*
X111127381Y-52158432D01*
X111388888Y-51896924D01*
X111420000Y-51884038D01*
X111451111Y-51896924D01*
X111712619Y-52158432D01*
X111712621Y-52158433D01*
X111712624Y-52158435D01*
X111743385Y-52171175D01*
X111743386Y-52171176D01*
X111743387Y-52171176D01*
X111786900Y-52189200D01*
X111786902Y-52189200D01*
X113053099Y-52189200D01*
X113053100Y-52189200D01*
X113127381Y-52158432D01*
X113388888Y-51896924D01*
X113420000Y-51884038D01*
X113451111Y-51896924D01*
X113712619Y-52158432D01*
X113712621Y-52158433D01*
X113712624Y-52158435D01*
X113743385Y-52171175D01*
X113743386Y-52171176D01*
X113743387Y-52171176D01*
X113786900Y-52189200D01*
X113786902Y-52189200D01*
X114385669Y-52189200D01*
X114416782Y-52202087D01*
X114429669Y-52233200D01*
X114416782Y-52264311D01*
X114388830Y-52292264D01*
X114354500Y-52375145D01*
X114354500Y-52464855D01*
X114388830Y-52547736D01*
X114452264Y-52611170D01*
X114535145Y-52645500D01*
X114535146Y-52645500D01*
X114624854Y-52645500D01*
X114624855Y-52645500D01*
X114707736Y-52611170D01*
X114771170Y-52547736D01*
X114805500Y-52464855D01*
X114805500Y-52375145D01*
X114771170Y-52292264D01*
X114743217Y-52264311D01*
X114730331Y-52233200D01*
X114743218Y-52202087D01*
X114774331Y-52189200D01*
X115053099Y-52189200D01*
X115053100Y-52189200D01*
X115127381Y-52158432D01*
X115485057Y-51800754D01*
X115499328Y-51791220D01*
X115547736Y-51771170D01*
X115611170Y-51707736D01*
X115645500Y-51624855D01*
X115645500Y-51535145D01*
X115611170Y-51452264D01*
X115547736Y-51388830D01*
X115464855Y-51354500D01*
X115375145Y-51354500D01*
X115292264Y-51388830D01*
X115228828Y-51452266D01*
X115208778Y-51500670D01*
X115199241Y-51514944D01*
X114942074Y-51772113D01*
X114910961Y-51785000D01*
X113929039Y-51785000D01*
X113897926Y-51772113D01*
X113640757Y-51514944D01*
X113631219Y-51500669D01*
X113611170Y-51452264D01*
X113547736Y-51388830D01*
X113464855Y-51354500D01*
X113375145Y-51354500D01*
X113292264Y-51388830D01*
X113228828Y-51452266D01*
X113208778Y-51500670D01*
X113199241Y-51514944D01*
X112942074Y-51772113D01*
X112910961Y-51785000D01*
X111929039Y-51785000D01*
X111897926Y-51772113D01*
X111640757Y-51514944D01*
X111631219Y-51500669D01*
X111611170Y-51452264D01*
X111547736Y-51388830D01*
X111464855Y-51354500D01*
X111375145Y-51354500D01*
X111292264Y-51388830D01*
X111228828Y-51452266D01*
X111208778Y-51500670D01*
X111199241Y-51514944D01*
X110942074Y-51772113D01*
X110910961Y-51785000D01*
X109929039Y-51785000D01*
X109897926Y-51772113D01*
X109640757Y-51514944D01*
X109631219Y-51500669D01*
X109611170Y-51452264D01*
X109547736Y-51388830D01*
X109464855Y-51354500D01*
X109375145Y-51354500D01*
X109292264Y-51388830D01*
X109228828Y-51452266D01*
X109208778Y-51500670D01*
X109199241Y-51514944D01*
X108942074Y-51772113D01*
X108910961Y-51785000D01*
X107929039Y-51785000D01*
X107897926Y-51772113D01*
X107640757Y-51514944D01*
X107631219Y-51500669D01*
X107611170Y-51452264D01*
X107547736Y-51388830D01*
X107464855Y-51354500D01*
X107375145Y-51354500D01*
X107292264Y-51388830D01*
X107228828Y-51452266D01*
X107208777Y-51500672D01*
X107199240Y-51514946D01*
X106919674Y-51794513D01*
X106888561Y-51807400D01*
X105951438Y-51807400D01*
X105920325Y-51794513D01*
X105640757Y-51514945D01*
X105631219Y-51500669D01*
X105611172Y-51452268D01*
X105611171Y-51452266D01*
X105611170Y-51452264D01*
X105547736Y-51388830D01*
X105464855Y-51354500D01*
X105375145Y-51354500D01*
X105292264Y-51388830D01*
X105228828Y-51452266D01*
X105208778Y-51500670D01*
X105199241Y-51514944D01*
X104942074Y-51772113D01*
X104910961Y-51785000D01*
X103929039Y-51785000D01*
X103897926Y-51772113D01*
X103640757Y-51514944D01*
X103631219Y-51500669D01*
X103611170Y-51452264D01*
X103547736Y-51388830D01*
X103464855Y-51354500D01*
X103375145Y-51354500D01*
X103292264Y-51388830D01*
X103228828Y-51452266D01*
X103208778Y-51500670D01*
X103199241Y-51514944D01*
X102942074Y-51772113D01*
X102910961Y-51785000D01*
X101929039Y-51785000D01*
X101897926Y-51772113D01*
X101640757Y-51514944D01*
X101631219Y-51500669D01*
X101611170Y-51452264D01*
X101547736Y-51388830D01*
X101464855Y-51354500D01*
X101375145Y-51354500D01*
X101292264Y-51388830D01*
X101228828Y-51452266D01*
X101208778Y-51500670D01*
X101199241Y-51514944D01*
X100942074Y-51772113D01*
X100910961Y-51785000D01*
X99929039Y-51785000D01*
X99897926Y-51772113D01*
X99640757Y-51514944D01*
X99631219Y-51500669D01*
X99611170Y-51452264D01*
X99547736Y-51388830D01*
X99464855Y-51354500D01*
X99375145Y-51354500D01*
X99292264Y-51388830D01*
X99228828Y-51452266D01*
X99208778Y-51500670D01*
X99199241Y-51514944D01*
X98942074Y-51772113D01*
X98910961Y-51785000D01*
X97929039Y-51785000D01*
X97897926Y-51772113D01*
X97640757Y-51514944D01*
X97631219Y-51500669D01*
X97611170Y-51452264D01*
X97547736Y-51388830D01*
X97464855Y-51354500D01*
X97375145Y-51354500D01*
X97292264Y-51388830D01*
X97228828Y-51452266D01*
X97208778Y-51500670D01*
X97199241Y-51514944D01*
X96942074Y-51772113D01*
X96910961Y-51785000D01*
X95929039Y-51785000D01*
X95897926Y-51772113D01*
X95640757Y-51514944D01*
X95631219Y-51500669D01*
X95611170Y-51452264D01*
X95547736Y-51388830D01*
X95464855Y-51354500D01*
X95375145Y-51354500D01*
X95292264Y-51388830D01*
X95228828Y-51452266D01*
X95208778Y-51500670D01*
X95199241Y-51514944D01*
X94942074Y-51772113D01*
X94910961Y-51785000D01*
X93929039Y-51785000D01*
X93897926Y-51772113D01*
X93640757Y-51514944D01*
X93631219Y-51500669D01*
X93611170Y-51452264D01*
X93547736Y-51388830D01*
X93464855Y-51354500D01*
X93375145Y-51354500D01*
X93292264Y-51388830D01*
X93228828Y-51452266D01*
X93208778Y-51500670D01*
X93199241Y-51514944D01*
X92942074Y-51772113D01*
X92910961Y-51785000D01*
X91929039Y-51785000D01*
X91897926Y-51772113D01*
X91640757Y-51514944D01*
X91631219Y-51500669D01*
X91611170Y-51452264D01*
X91547736Y-51388830D01*
X91464855Y-51354500D01*
X91375145Y-51354500D01*
X91292264Y-51388830D01*
X91228830Y-51452264D01*
X91194500Y-51535145D01*
X90000500Y-51535145D01*
X90000500Y-51044500D01*
X90013387Y-51013387D01*
X90044500Y-51000500D01*
X115955500Y-51000500D01*
X115986613Y-51013387D01*
G37*
G04 #@! TD.AperFunction*
M02*
