G04 #@! TF.GenerationSoftware,KiCad,Pcbnew,9.0.1-9.0.1-0~ubuntu24.04.1*
G04 #@! TF.CreationDate,2025-05-10T10:51:42+02:00*
G04 #@! TF.ProjectId,ILM139C,494c4d31-3339-4432-9e6b-696361645f70,v0.1.0*
G04 #@! TF.SameCoordinates,Original*
G04 #@! TF.FileFunction,Paste,Bot*
G04 #@! TF.FilePolarity,Positive*
%FSLAX46Y46*%
G04 Gerber Fmt 4.6, Leading zero omitted, Abs format (unit mm)*
G04 Created by KiCad (PCBNEW 9.0.1-9.0.1-0~ubuntu24.04.1) date 2025-05-10 10:51:42*
%MOMM*%
%LPD*%
G01*
G04 APERTURE LIST*
%ADD10R,0.650000X0.200000*%
%ADD11R,0.530000X0.450000*%
G04 APERTURE END LIST*
D10*
X93270000Y-56200000D03*
X93270000Y-56600000D03*
X93270000Y-57000000D03*
X93270000Y-57400000D03*
X93270000Y-57800000D03*
X93270000Y-58200000D03*
X93270000Y-58600000D03*
X93270000Y-59000000D03*
X93270000Y-59400000D03*
X93270000Y-59800000D03*
X93270000Y-60200000D03*
X93270000Y-60600000D03*
X93270000Y-61000000D03*
X93270000Y-61400000D03*
X93270000Y-61800000D03*
X93270000Y-62200000D03*
X93270000Y-62600000D03*
X93270000Y-63000000D03*
X93270000Y-63400000D03*
X93270000Y-63800000D03*
X91530000Y-63800000D03*
X91530000Y-63400000D03*
X91530000Y-63000000D03*
X91530000Y-62600000D03*
X91530000Y-62200000D03*
X91530000Y-61800000D03*
X91530000Y-61400000D03*
X91530000Y-61000000D03*
X91530000Y-60600000D03*
X91530000Y-60200000D03*
X91530000Y-59800000D03*
X91530000Y-59400000D03*
X91530000Y-59000000D03*
X91530000Y-58600000D03*
X91530000Y-58200000D03*
X91530000Y-57800000D03*
X91530000Y-57400000D03*
X91530000Y-57000000D03*
X91530000Y-56600000D03*
X91530000Y-56200000D03*
D11*
X91830000Y-55390000D03*
X92970000Y-55390000D03*
X92970000Y-64610000D03*
X91830000Y-64610000D03*
D10*
X114470000Y-56200000D03*
X114470000Y-56600000D03*
X114470000Y-57000000D03*
X114470000Y-57400000D03*
X114470000Y-57800000D03*
X114470000Y-58200000D03*
X114470000Y-58600000D03*
X114470000Y-59000000D03*
X114470000Y-59400000D03*
X114470000Y-59800000D03*
X114470000Y-60200000D03*
X114470000Y-60600000D03*
X114470000Y-61000000D03*
X114470000Y-61400000D03*
X114470000Y-61800000D03*
X114470000Y-62200000D03*
X114470000Y-62600000D03*
X114470000Y-63000000D03*
X114470000Y-63400000D03*
X114470000Y-63800000D03*
X112730000Y-63800000D03*
X112730000Y-63400000D03*
X112730000Y-63000000D03*
X112730000Y-62600000D03*
X112730000Y-62200000D03*
X112730000Y-61800000D03*
X112730000Y-61400000D03*
X112730000Y-61000000D03*
X112730000Y-60600000D03*
X112730000Y-60200000D03*
X112730000Y-59800000D03*
X112730000Y-59400000D03*
X112730000Y-59000000D03*
X112730000Y-58600000D03*
X112730000Y-58200000D03*
X112730000Y-57800000D03*
X112730000Y-57400000D03*
X112730000Y-57000000D03*
X112730000Y-56600000D03*
X112730000Y-56200000D03*
D11*
X113030000Y-55390000D03*
X114170000Y-55390000D03*
X114170000Y-64610000D03*
X113030000Y-64610000D03*
M02*
