%TF.GenerationSoftware,KiCad,Pcbnew,9.0.1-9.0.1-0~ubuntu24.04.1*%
%TF.CreationDate,2025-04-28T13:39:04+02:00*%
%TF.ProjectId,ILM139C,494c4d31-3339-4432-9e6b-696361645f70,V0.1.0*%
%TF.SameCoordinates,Original*%
%TF.FileFunction,Copper,L4,Bot*%
%TF.FilePolarity,Positive*%
%FSLAX46Y46*%
G04 Gerber Fmt 4.6, Leading zero omitted, Abs format (unit mm)*
G04 Created by KiCad (PCBNEW 9.0.1-9.0.1-0~ubuntu24.04.1) date 2025-04-28 13:39:04*
%MOMM*%
%LPD*%
G01*
G04 APERTURE LIST*
G04 Aperture macros list*
%AMRoundRect*
0 Rectangle with rounded corners*
0 $1 Rounding radius*
0 $2 $3 $4 $5 $6 $7 $8 $9 X,Y pos of 4 corners*
0 Add a 4 corners polygon primitive as box body*
4,1,4,$2,$3,$4,$5,$6,$7,$8,$9,$2,$3,0*
0 Add four circle primitives for the rounded corners*
1,1,$1+$1,$2,$3*
1,1,$1+$1,$4,$5*
1,1,$1+$1,$6,$7*
1,1,$1+$1,$8,$9*
0 Add four rect primitives between the rounded corners*
20,1,$1+$1,$2,$3,$4,$5,0*
20,1,$1+$1,$4,$5,$6,$7,0*
20,1,$1+$1,$6,$7,$8,$9,0*
20,1,$1+$1,$8,$9,$2,$3,0*%
G04 Aperture macros list end*
%TA.AperFunction,SMDPad,CuDef*%
%ADD10R,1.750000X0.700000*%
%TD*%
%TA.AperFunction,SMDPad,CuDef*%
%ADD11R,2.550000X1.200000*%
%TD*%
%TA.AperFunction,SMDPad,CuDef*%
%ADD12RoundRect,0.200000X-0.053033X0.335876X-0.335876X0.053033X0.053033X-0.335876X0.335876X-0.053033X0*%
%TD*%
%TA.AperFunction,SMDPad,CuDef*%
%ADD13C,1.000000*%
%TD*%
%TA.AperFunction,ViaPad*%
%ADD14C,0.250000*%
%TD*%
%TA.AperFunction,Conductor*%
%ADD15C,0.254000*%
%TD*%
%TA.AperFunction,Conductor*%
%ADD16C,0.508000*%
%TD*%
G04 APERTURE END LIST*
D10*
%TO.P,U3,1,1*%
%TO.N,SCL*%
X95340000Y-66458501D03*
%TO.P,U3,2,2*%
%TO.N,SDA*%
X95340000Y-65458501D03*
%TO.P,U3,3,3*%
%TO.N,3V3*%
X95340000Y-64458501D03*
%TO.P,U3,4,4*%
%TO.N,GND*%
X95340000Y-63458501D03*
D11*
%TO.P,U3,5,5*%
X91560000Y-62348501D03*
%TO.P,U3,6,6*%
X91560000Y-67568501D03*
%TD*%
D10*
%TO.P,U2,1,1*%
%TO.N,SCL*%
X110560000Y-55258501D03*
%TO.P,U2,2,2*%
%TO.N,SDA*%
X110560000Y-56258501D03*
%TO.P,U2,3,3*%
%TO.N,3V3*%
X110560000Y-57258501D03*
%TO.P,U2,4,4*%
%TO.N,GND*%
X110560000Y-58258501D03*
D11*
%TO.P,U2,5,5*%
X114340000Y-59368501D03*
%TO.P,U2,6,6*%
X114340000Y-54148501D03*
%TD*%
D12*
%TO.P,R46,1*%
%TO.N,VCC*%
X100333363Y-65575138D03*
%TO.P,R46,2*%
%TO.N,3V3*%
X99166637Y-66741864D03*
%TD*%
D13*
%TO.P,TP3,1,1*%
%TO.N,INTB*%
X108700000Y-56958501D03*
%TD*%
%TO.P,TP1,1,1*%
%TO.N,SDB*%
X106700000Y-56958501D03*
%TD*%
%TO.P,TP2,1,1*%
%TO.N,GND*%
X104700000Y-56958501D03*
%TD*%
D10*
%TO.P,CN2,1,1*%
%TO.N,VCC*%
X110580000Y-66258501D03*
%TO.P,CN2,2,2*%
%TO.N,GND*%
X110580000Y-65258501D03*
D11*
%TO.P,CN2,3,3*%
X114320000Y-63908501D03*
%TO.P,CN2,4,4*%
X114320000Y-67608501D03*
%TD*%
D10*
%TO.P,CN1,1,1*%
%TO.N,VCC*%
X95320000Y-55458501D03*
%TO.P,CN1,2,2*%
%TO.N,GND*%
X95320000Y-56458501D03*
D11*
%TO.P,CN1,3,3*%
X91580000Y-57808501D03*
%TO.P,CN1,4,4*%
X91580000Y-54108501D03*
%TD*%
D14*
%TO.N,SCL*%
X102300000Y-57276501D03*
X100982000Y-52433501D03*
X93400000Y-52883501D03*
%TO.N,GND*%
X103100000Y-60856501D03*
X104600000Y-60856501D03*
X107850000Y-60058501D03*
X106324000Y-64069501D03*
X103100000Y-58508501D03*
X99050000Y-53958501D03*
X111750000Y-55558501D03*
X103100000Y-63008501D03*
X107798000Y-56838501D03*
X107850000Y-57358501D03*
X102210000Y-54208501D03*
X97572000Y-63993501D03*
X103750000Y-67158501D03*
X112350000Y-55258501D03*
X109950000Y-63758501D03*
X104600000Y-62008501D03*
X98200000Y-60228501D03*
X91400000Y-52883501D03*
X103100000Y-62008501D03*
X95950000Y-62058501D03*
X103100000Y-59508501D03*
X91150000Y-60256501D03*
X98435000Y-57491501D03*
X90305000Y-63431501D03*
X101600000Y-63008501D03*
X105250000Y-67158501D03*
X92050000Y-59403501D03*
X92693000Y-63037501D03*
X100850000Y-53258501D03*
X102180000Y-55208501D03*
X101600000Y-60856501D03*
X106036000Y-53553501D03*
X104462000Y-53579501D03*
X90992000Y-68114501D03*
X105500000Y-60856501D03*
X98550000Y-64058501D03*
X100700000Y-60856501D03*
X101600000Y-59508501D03*
X98112000Y-64786501D03*
X105500000Y-59508501D03*
X97654000Y-57927501D03*
X114750000Y-62656501D03*
X100700000Y-62008501D03*
X104600000Y-59508501D03*
X91972000Y-60295501D03*
X93550000Y-59456501D03*
X94350000Y-53058501D03*
X107911000Y-59216501D03*
X91560000Y-62348501D03*
X103200000Y-55228501D03*
X95950000Y-59258501D03*
X105500000Y-58508501D03*
X107020000Y-64914501D03*
X103250000Y-52358501D03*
X109864000Y-65180501D03*
X105250000Y-65558501D03*
X101500000Y-57276501D03*
X115459000Y-64422501D03*
X100700000Y-59508501D03*
X101600000Y-58508501D03*
X99372000Y-64781501D03*
X91707000Y-56712501D03*
X115511000Y-66339501D03*
X107450000Y-60058501D03*
X100700000Y-58508501D03*
X114950000Y-66358501D03*
X108401000Y-65076501D03*
X109850000Y-60658501D03*
X100700000Y-63008501D03*
X90285000Y-66016501D03*
X99220000Y-55208501D03*
X102300000Y-64436501D03*
X114750000Y-59056501D03*
X102180000Y-56208501D03*
X115434000Y-62104501D03*
X105500000Y-62008501D03*
X91150000Y-63056501D03*
X105500000Y-63008501D03*
X99220000Y-56208501D03*
X109950000Y-59158501D03*
X114750000Y-60656501D03*
X91150000Y-61456501D03*
X114750000Y-64656501D03*
X106750000Y-67158501D03*
X109850000Y-62058501D03*
X113359000Y-60025501D03*
X92470000Y-68082501D03*
X98200000Y-63188501D03*
X101600000Y-62008501D03*
X97565000Y-59044501D03*
X106670000Y-60056501D03*
X90379000Y-61204501D03*
X92710000Y-60218501D03*
X91150000Y-62256501D03*
X92249000Y-64206501D03*
X104600000Y-58508501D03*
X104600000Y-63008501D03*
%TO.N,SDA*%
X101799000Y-52835501D03*
X102700000Y-57276501D03*
X95400000Y-52883501D03*
%TO.N,VCC*%
X100500000Y-55508501D03*
X98665000Y-61536501D03*
X100100000Y-55508501D03*
X98650000Y-61958501D03*
X100900000Y-55508501D03*
X100900000Y-55108501D03*
X97400000Y-53408501D03*
X98119000Y-61648501D03*
X100500000Y-55108501D03*
X100100000Y-55108501D03*
%TO.N,SW1*%
X99530000Y-58056501D03*
X92763000Y-59087501D03*
%TO.N,INTB*%
X103500000Y-57276501D03*
X108700000Y-56958501D03*
%TO.N,SW3*%
X99530000Y-58856501D03*
X92442000Y-56956499D03*
%TO.N,Net-(U1-ISET)*%
X101100000Y-57276501D03*
X101190000Y-54208501D03*
%TO.N,SW5*%
X93550000Y-59856501D03*
X99530000Y-59656501D03*
%TO.N,CS2*%
X99530000Y-62456501D03*
X96825000Y-57708501D03*
%TO.N,SW2*%
X92897998Y-56960197D03*
X99530000Y-58456501D03*
%TO.N,SW7*%
X93550000Y-63856501D03*
X99530000Y-60456501D03*
%TO.N,SW9*%
X91150000Y-64256501D03*
X99530000Y-61256501D03*
%TO.N,CS1*%
X99530000Y-62056501D03*
X96825000Y-56208501D03*
%TO.N,SW4*%
X93107002Y-57856501D03*
X99530000Y-59256501D03*
%TO.N,CS32*%
X106670000Y-58456501D03*
X113683000Y-58492501D03*
%TO.N,SDB*%
X106700000Y-56958501D03*
X103200000Y-56188501D03*
X101900000Y-57276501D03*
%TO.N,CS3*%
X96825000Y-59208501D03*
X99530000Y-62856501D03*
%TO.N,CS33*%
X113500000Y-55079501D03*
X106670000Y-58056501D03*
%TO.N,CS8*%
X91000000Y-66716499D03*
X101100000Y-64436501D03*
%TO.N,SW8*%
X99530000Y-60856501D03*
X91150000Y-64656501D03*
%TO.N,CS21*%
X110500000Y-67283501D03*
X106670000Y-63256501D03*
%TO.N,SW6*%
X93550000Y-61856501D03*
X99530000Y-60056501D03*
%TO.N,S1*%
X92355000Y-56115501D03*
X90458000Y-59161501D03*
%TO.N,S2*%
X92326000Y-58736501D03*
X95175000Y-57708501D03*
%TO.N,S9*%
X91150000Y-63456501D03*
X92500000Y-68933501D03*
%TO.N,S18*%
X106000000Y-68933501D03*
X112350000Y-64256501D03*
%TO.N,S17*%
X104500000Y-68933501D03*
X112350000Y-64656501D03*
%TO.N,S16*%
X93550000Y-60256501D03*
X103000000Y-68933501D03*
%TO.N,S15*%
X101500000Y-68933501D03*
X92457000Y-60655501D03*
%TO.N,S14*%
X92450000Y-61056501D03*
X100000000Y-68933501D03*
%TO.N,S13*%
X92445000Y-61456501D03*
X98500000Y-68933501D03*
%TO.N,S12*%
X97000000Y-68933501D03*
X93550000Y-62256501D03*
%TO.N,S11*%
X95500000Y-68933501D03*
X93550000Y-62656501D03*
%TO.N,S10*%
X93550000Y-63056501D03*
X94000000Y-68933501D03*
%TO.N,S24*%
X115000000Y-68933501D03*
X112350000Y-61856501D03*
%TO.N,S23*%
X112350000Y-62256501D03*
X113500000Y-68933501D03*
%TO.N,S22*%
X112350000Y-62656501D03*
X112000000Y-68933501D03*
%TO.N,S21*%
X112350000Y-63056501D03*
X110500000Y-68933501D03*
%TO.N,S20*%
X109000000Y-68933501D03*
X112350000Y-63456501D03*
%TO.N,S19*%
X107500000Y-68933501D03*
X112350000Y-63856501D03*
%TO.N,S36*%
X112350000Y-57056501D03*
X109000000Y-52783501D03*
%TO.N,S35*%
X112350000Y-57456501D03*
X110500000Y-52783501D03*
%TO.N,S34*%
X112350000Y-57856501D03*
X112000000Y-52783501D03*
%TO.N,S39*%
X104500000Y-52783501D03*
X114750000Y-57856501D03*
%TO.N,S38*%
X106000000Y-52783501D03*
X114750000Y-57456501D03*
%TO.N,S37*%
X107500000Y-52783501D03*
X114750000Y-57056501D03*
%TO.N,Net-(U1-ADDR)*%
X103100000Y-57276501D03*
X97400000Y-54533501D03*
%TD*%
D15*
%TO.N,SCL*%
X105500000Y-55558501D02*
X109150000Y-55558501D01*
X93862000Y-54070501D02*
X93400000Y-53608501D01*
X94300000Y-66458501D02*
X93147000Y-65305501D01*
X102374000Y-52432501D02*
X105500000Y-55558501D01*
X100984000Y-52431501D02*
X100985000Y-52432501D01*
X100982000Y-52433501D02*
X93850000Y-52433501D01*
X93862000Y-58558501D02*
X93862000Y-54070501D01*
X93850000Y-52433501D02*
X93400000Y-52883501D01*
X109450000Y-55258501D02*
X110560000Y-55258501D01*
X93400000Y-53608501D02*
X93400000Y-52883501D01*
X93147000Y-65305501D02*
X93147000Y-59273501D01*
X93147000Y-59273501D02*
X93862000Y-58558501D01*
X100984000Y-52431501D02*
X100982000Y-52433501D01*
X95340000Y-66458501D02*
X94300000Y-66458501D01*
X100985000Y-52432501D02*
X102374000Y-52432501D01*
X109150000Y-55558501D02*
X109450000Y-55258501D01*
%TO.N,SDA*%
X105352954Y-55913501D02*
X109155000Y-55913501D01*
X101942000Y-52835501D02*
X102274954Y-52835501D01*
X109155000Y-55913501D02*
X109500000Y-56258501D01*
X94217000Y-65325501D02*
X94217000Y-54066501D01*
X101942000Y-52835501D02*
X95448000Y-52835501D01*
X109500000Y-56258501D02*
X110560000Y-56258501D01*
X94350000Y-65458501D02*
X94217000Y-65325501D01*
X94217000Y-54066501D02*
X95400000Y-52883501D01*
X102274954Y-52835501D02*
X105352954Y-55913501D01*
X95448000Y-52835501D02*
X95400000Y-52883501D01*
X95340000Y-65458501D02*
X94350000Y-65458501D01*
D16*
%TO.N,VCC*%
X100900000Y-55936967D02*
X100564233Y-56272734D01*
X98950000Y-57886967D02*
X98950000Y-60658501D01*
X95320000Y-55458501D02*
X98220466Y-55458501D01*
X98650000Y-61551501D02*
X98650000Y-61958501D01*
X110580000Y-66258501D02*
X101734000Y-66258501D01*
X98950000Y-62258501D02*
X98950000Y-61358501D01*
X98220466Y-55458501D02*
X99000466Y-54678501D01*
X100100000Y-56736967D02*
X98950000Y-57886967D01*
X98950000Y-61358501D02*
X98772000Y-61536501D01*
X101734000Y-66258501D02*
X98950000Y-63474501D01*
X100100000Y-55108501D02*
X100100000Y-55508501D01*
X98119000Y-61648501D02*
X98129000Y-61658501D01*
X98119000Y-61727501D02*
X98350000Y-61958501D01*
X98129000Y-61658501D02*
X98543000Y-61658501D01*
X100100000Y-55108501D02*
X100900000Y-55108501D01*
X98543000Y-61658501D02*
X98665000Y-61536501D01*
X98119000Y-61727501D02*
X98950000Y-62558501D01*
X100470000Y-54678501D02*
X100900000Y-55108501D01*
X98950000Y-60758501D02*
X98950000Y-60658501D01*
X98772000Y-61536501D02*
X98665000Y-61536501D01*
X98119000Y-61648501D02*
X98119000Y-61589501D01*
X98950000Y-62258501D02*
X98650000Y-61958501D01*
X100100000Y-55508501D02*
X100100000Y-55958501D01*
X99670000Y-54678501D02*
X100470000Y-54678501D01*
X98950000Y-63474501D02*
X98950000Y-62558501D01*
X100100000Y-55958501D02*
X100100000Y-56736967D01*
X98950000Y-62558501D02*
X98950000Y-62258501D01*
X100564233Y-56272734D02*
X100100000Y-56736967D01*
X98119000Y-61589501D02*
X98950000Y-60758501D01*
X100500000Y-56208501D02*
X100564233Y-56272734D01*
X100900000Y-55508501D02*
X100900000Y-55936967D01*
X99670000Y-54678501D02*
X100100000Y-55108501D01*
X98350000Y-61958501D02*
X98650000Y-61958501D01*
X100900000Y-55508501D02*
X100550000Y-55508501D01*
X98119000Y-61648501D02*
X98119000Y-61727501D01*
X100550000Y-55508501D02*
X100100000Y-55958501D01*
X98665000Y-61536501D02*
X98650000Y-61551501D01*
X99000466Y-54678501D02*
X99670000Y-54678501D01*
X100900000Y-55508501D02*
X100900000Y-55108501D01*
X98950000Y-60658501D02*
X98950000Y-61358501D01*
X100500000Y-55508501D02*
X100500000Y-56208501D01*
%TO.N,3V3*%
X111495000Y-57258501D02*
X110560000Y-57258501D01*
X95340000Y-64458501D02*
X96830000Y-64458501D01*
X111810000Y-66963501D02*
X111810000Y-57573501D01*
X110960000Y-67813501D02*
X111810000Y-66963501D01*
X100185000Y-67813501D02*
X110960000Y-67813501D01*
X96830000Y-64458501D02*
X100185000Y-67813501D01*
X111810000Y-57573501D02*
X111495000Y-57258501D01*
%TD*%
%TA.AperFunction,Conductor*%
%TO.N,GND*%
G36*
X97069652Y-55827353D02*
G01*
X97673948Y-56431649D01*
X97688300Y-56466297D01*
X97688300Y-57467628D01*
X97688300Y-57728098D01*
X97688433Y-57728765D01*
X97696331Y-57768473D01*
X97696331Y-57768474D01*
X97710680Y-57803114D01*
X97710683Y-57803120D01*
X97733548Y-57837341D01*
X97733551Y-57837345D01*
X97748837Y-57852631D01*
X97759458Y-57868525D01*
X97770270Y-57894626D01*
X97774000Y-57913377D01*
X97774000Y-57941623D01*
X97770271Y-57960372D01*
X97765758Y-57971269D01*
X97765756Y-57971273D01*
X97759460Y-57986471D01*
X97748840Y-58002365D01*
X97733555Y-58017649D01*
X97733552Y-58017654D01*
X97723546Y-58032627D01*
X97723547Y-58032628D01*
X97710681Y-58051882D01*
X97696331Y-58086526D01*
X97696331Y-58086527D01*
X97696331Y-58086529D01*
X97688300Y-58126903D01*
X97688300Y-60204628D01*
X97688300Y-62032628D01*
X97688300Y-62984628D01*
X97688300Y-63164628D01*
X97688300Y-63782005D01*
X97694195Y-63811642D01*
X97696331Y-63822380D01*
X97696331Y-63822381D01*
X97710680Y-63857021D01*
X97710683Y-63857027D01*
X97733548Y-63891248D01*
X97733551Y-63891252D01*
X97733552Y-63891253D01*
X97876927Y-64034628D01*
X98254927Y-64412628D01*
X98599927Y-64757628D01*
X100413048Y-66570749D01*
X100447274Y-66593618D01*
X100481922Y-66607970D01*
X100522296Y-66616001D01*
X100522298Y-66616001D01*
X102077703Y-66616001D01*
X102077704Y-66616001D01*
X102088050Y-66613942D01*
X102097610Y-66613001D01*
X109563213Y-66613001D01*
X109597861Y-66627353D01*
X109607174Y-66643801D01*
X109608486Y-66643258D01*
X109610332Y-66647717D01*
X109626321Y-66671646D01*
X109632543Y-66680958D01*
X109665787Y-66703170D01*
X109695101Y-66709001D01*
X111406500Y-66709000D01*
X111441148Y-66723352D01*
X111455500Y-66758000D01*
X111455500Y-66796366D01*
X111441148Y-66831014D01*
X110827513Y-67444649D01*
X110792865Y-67459001D01*
X110744719Y-67459001D01*
X110710071Y-67444649D01*
X110695719Y-67410001D01*
X110699449Y-67391250D01*
X110721648Y-67337655D01*
X110725500Y-67328356D01*
X110725500Y-67238646D01*
X110691170Y-67155765D01*
X110691169Y-67155764D01*
X110691168Y-67155762D01*
X110627739Y-67092333D01*
X110627736Y-67092331D01*
X110544858Y-67058002D01*
X110544856Y-67058001D01*
X110544855Y-67058001D01*
X110455145Y-67058001D01*
X110455143Y-67058001D01*
X110455141Y-67058002D01*
X110372263Y-67092331D01*
X110308830Y-67155764D01*
X110274501Y-67238642D01*
X110274500Y-67238644D01*
X110274500Y-67238646D01*
X110274500Y-67328356D01*
X110274500Y-67328358D01*
X110274501Y-67328359D01*
X110300551Y-67391250D01*
X110300551Y-67428753D01*
X110274032Y-67455271D01*
X110255281Y-67459001D01*
X100352135Y-67459001D01*
X100317487Y-67444649D01*
X99803501Y-66930663D01*
X99789149Y-66896015D01*
X99792458Y-66878314D01*
X99803013Y-66851069D01*
X99803013Y-66738724D01*
X99762429Y-66633966D01*
X99762429Y-66633965D01*
X99760417Y-66631425D01*
X99746723Y-66614136D01*
X99657916Y-66525329D01*
X99294371Y-66161785D01*
X99294363Y-66161778D01*
X99274539Y-66146074D01*
X99274537Y-66146073D01*
X99169777Y-66105488D01*
X99057431Y-66105488D01*
X99030185Y-66116043D01*
X98992692Y-66115175D01*
X98977837Y-66104999D01*
X97047670Y-64174832D01*
X97047664Y-64174827D01*
X97003636Y-64149408D01*
X96966832Y-64128160D01*
X96966829Y-64128159D01*
X96876673Y-64104001D01*
X96876671Y-64104001D01*
X96356787Y-64104001D01*
X96322139Y-64089649D01*
X96312825Y-64073200D01*
X96311514Y-64073744D01*
X96309667Y-64069284D01*
X96287457Y-64036044D01*
X96254212Y-64013831D01*
X96224904Y-64008001D01*
X94493500Y-64008001D01*
X94458852Y-63993649D01*
X94444500Y-63959001D01*
X94444500Y-59163644D01*
X96599500Y-59163644D01*
X96599500Y-59163646D01*
X96599500Y-59253356D01*
X96599500Y-59253358D01*
X96599501Y-59253359D01*
X96633830Y-59336237D01*
X96633832Y-59336240D01*
X96697261Y-59399669D01*
X96697263Y-59399670D01*
X96697264Y-59399671D01*
X96780145Y-59434001D01*
X96780147Y-59434001D01*
X96869853Y-59434001D01*
X96869855Y-59434001D01*
X96952736Y-59399671D01*
X96952737Y-59399669D01*
X96952739Y-59399669D01*
X97016168Y-59336240D01*
X97016168Y-59336238D01*
X97016170Y-59336237D01*
X97050500Y-59253356D01*
X97050500Y-59163646D01*
X97016170Y-59080765D01*
X97016169Y-59080764D01*
X97016168Y-59080762D01*
X96952739Y-59017333D01*
X96952736Y-59017331D01*
X96869858Y-58983002D01*
X96869856Y-58983001D01*
X96869855Y-58983001D01*
X96780145Y-58983001D01*
X96780143Y-58983001D01*
X96780141Y-58983002D01*
X96697263Y-59017331D01*
X96633830Y-59080764D01*
X96599501Y-59163642D01*
X96599500Y-59163644D01*
X94444500Y-59163644D01*
X94444500Y-57663644D01*
X94949500Y-57663644D01*
X94949500Y-57663646D01*
X94949500Y-57753356D01*
X94949500Y-57753358D01*
X94949501Y-57753359D01*
X94983830Y-57836237D01*
X94983832Y-57836240D01*
X95047261Y-57899669D01*
X95047263Y-57899670D01*
X95047264Y-57899671D01*
X95130145Y-57934001D01*
X95130147Y-57934001D01*
X95219853Y-57934001D01*
X95219855Y-57934001D01*
X95302736Y-57899671D01*
X95302737Y-57899669D01*
X95302739Y-57899669D01*
X95366168Y-57836240D01*
X95366168Y-57836238D01*
X95366170Y-57836237D01*
X95400500Y-57753356D01*
X95400500Y-57663646D01*
X95400499Y-57663644D01*
X96599500Y-57663644D01*
X96599500Y-57663646D01*
X96599500Y-57753356D01*
X96599500Y-57753358D01*
X96599501Y-57753359D01*
X96633830Y-57836237D01*
X96633832Y-57836240D01*
X96697261Y-57899669D01*
X96697263Y-57899670D01*
X96697264Y-57899671D01*
X96780145Y-57934001D01*
X96780147Y-57934001D01*
X96869853Y-57934001D01*
X96869855Y-57934001D01*
X96952736Y-57899671D01*
X96952737Y-57899669D01*
X96952739Y-57899669D01*
X97016168Y-57836240D01*
X97016168Y-57836238D01*
X97016170Y-57836237D01*
X97050500Y-57753356D01*
X97050500Y-57663646D01*
X97016170Y-57580765D01*
X97016169Y-57580764D01*
X97016168Y-57580762D01*
X96952739Y-57517333D01*
X96952736Y-57517331D01*
X96869858Y-57483002D01*
X96869856Y-57483001D01*
X96869855Y-57483001D01*
X96780145Y-57483001D01*
X96780143Y-57483001D01*
X96780141Y-57483002D01*
X96697263Y-57517331D01*
X96633830Y-57580764D01*
X96599501Y-57663642D01*
X96599500Y-57663644D01*
X95400499Y-57663644D01*
X95366170Y-57580765D01*
X95366169Y-57580764D01*
X95366168Y-57580762D01*
X95302739Y-57517333D01*
X95302736Y-57517331D01*
X95219858Y-57483002D01*
X95219856Y-57483001D01*
X95219855Y-57483001D01*
X95130145Y-57483001D01*
X95130143Y-57483001D01*
X95130141Y-57483002D01*
X95047263Y-57517331D01*
X94983830Y-57580764D01*
X94949501Y-57663642D01*
X94949500Y-57663644D01*
X94444500Y-57663644D01*
X94444500Y-56163644D01*
X96599500Y-56163644D01*
X96599500Y-56163646D01*
X96599500Y-56253356D01*
X96599500Y-56253358D01*
X96599501Y-56253359D01*
X96633830Y-56336237D01*
X96633832Y-56336240D01*
X96697261Y-56399669D01*
X96697263Y-56399670D01*
X96697264Y-56399671D01*
X96780145Y-56434001D01*
X96780147Y-56434001D01*
X96869853Y-56434001D01*
X96869855Y-56434001D01*
X96952736Y-56399671D01*
X96952737Y-56399669D01*
X96952739Y-56399669D01*
X97016168Y-56336240D01*
X97016168Y-56336238D01*
X97016170Y-56336237D01*
X97050500Y-56253356D01*
X97050500Y-56163646D01*
X97016170Y-56080765D01*
X97016169Y-56080764D01*
X97016168Y-56080762D01*
X96952739Y-56017333D01*
X96952736Y-56017331D01*
X96869858Y-55983002D01*
X96869856Y-55983001D01*
X96869855Y-55983001D01*
X96780145Y-55983001D01*
X96780143Y-55983001D01*
X96780141Y-55983002D01*
X96697263Y-56017331D01*
X96633830Y-56080764D01*
X96599501Y-56163642D01*
X96599500Y-56163644D01*
X94444500Y-56163644D01*
X94444500Y-55958000D01*
X94458852Y-55923352D01*
X94493500Y-55909000D01*
X96204895Y-55909000D01*
X96204898Y-55909000D01*
X96234213Y-55903170D01*
X96267457Y-55880958D01*
X96289669Y-55847714D01*
X96291515Y-55843258D01*
X96294381Y-55844445D01*
X96308306Y-55822128D01*
X96336787Y-55813001D01*
X97035004Y-55813001D01*
X97069652Y-55827353D01*
G37*
%TD.AperFunction*%
%TA.AperFunction,Conductor*%
G36*
X99404876Y-64665231D02*
G01*
X99430970Y-64676039D01*
X99446867Y-64686661D01*
X99466836Y-64706630D01*
X99477457Y-64722525D01*
X99488269Y-64748625D01*
X99492000Y-64767378D01*
X99492000Y-64795623D01*
X99488270Y-64814375D01*
X99477460Y-64840472D01*
X99466838Y-64856368D01*
X99446867Y-64876339D01*
X99430972Y-64886960D01*
X99404877Y-64897770D01*
X99386124Y-64901501D01*
X99357876Y-64901501D01*
X99339124Y-64897771D01*
X99313028Y-64886961D01*
X99297133Y-64876340D01*
X99277162Y-64856370D01*
X99277161Y-64856368D01*
X99266539Y-64840472D01*
X99255730Y-64814376D01*
X99252000Y-64795625D01*
X99252000Y-64767373D01*
X99255727Y-64748627D01*
X99266540Y-64722523D01*
X99277156Y-64706636D01*
X99297135Y-64686657D01*
X99313025Y-64676039D01*
X99339125Y-64665229D01*
X99357873Y-64661501D01*
X99386125Y-64661501D01*
X99404876Y-64665231D01*
G37*
%TD.AperFunction*%
%TA.AperFunction,Conductor*%
G36*
X98582876Y-63942231D02*
G01*
X98608970Y-63953039D01*
X98624867Y-63963661D01*
X98644836Y-63983630D01*
X98655457Y-63999525D01*
X98666269Y-64025625D01*
X98670000Y-64044378D01*
X98670000Y-64072623D01*
X98666270Y-64091375D01*
X98655460Y-64117472D01*
X98644838Y-64133368D01*
X98624867Y-64153339D01*
X98608972Y-64163960D01*
X98582877Y-64174770D01*
X98564124Y-64178501D01*
X98535876Y-64178501D01*
X98517124Y-64174771D01*
X98491028Y-64163961D01*
X98491027Y-64163960D01*
X98475133Y-64153340D01*
X98455162Y-64133370D01*
X98444539Y-64117472D01*
X98433730Y-64091376D01*
X98430000Y-64072625D01*
X98430000Y-64044373D01*
X98433727Y-64025627D01*
X98444539Y-63999525D01*
X98455156Y-63983636D01*
X98475135Y-63963657D01*
X98491025Y-63953039D01*
X98517125Y-63942229D01*
X98535873Y-63938501D01*
X98564125Y-63938501D01*
X98582876Y-63942231D01*
G37*
%TD.AperFunction*%
%TA.AperFunction,Conductor*%
G36*
X98232876Y-63072231D02*
G01*
X98258970Y-63083039D01*
X98274867Y-63093661D01*
X98294836Y-63113630D01*
X98305457Y-63129525D01*
X98316269Y-63155625D01*
X98320000Y-63174378D01*
X98320000Y-63202623D01*
X98316270Y-63221375D01*
X98305460Y-63247472D01*
X98294838Y-63263368D01*
X98274867Y-63283339D01*
X98258972Y-63293960D01*
X98232877Y-63304770D01*
X98214124Y-63308501D01*
X98185876Y-63308501D01*
X98167124Y-63304771D01*
X98141028Y-63293961D01*
X98125133Y-63283340D01*
X98105162Y-63263370D01*
X98105161Y-63263368D01*
X98094539Y-63247472D01*
X98083730Y-63221376D01*
X98080000Y-63202625D01*
X98080000Y-63174373D01*
X98083727Y-63155627D01*
X98094540Y-63129523D01*
X98105156Y-63113636D01*
X98125135Y-63093657D01*
X98141025Y-63083039D01*
X98167125Y-63072229D01*
X98185873Y-63068501D01*
X98214125Y-63068501D01*
X98232876Y-63072231D01*
G37*
%TD.AperFunction*%
%TA.AperFunction,Conductor*%
G36*
X100732876Y-62892231D02*
G01*
X100758970Y-62903039D01*
X100774867Y-62913661D01*
X100794836Y-62933630D01*
X100805457Y-62949525D01*
X100816269Y-62975625D01*
X100820000Y-62994378D01*
X100820000Y-63022623D01*
X100816270Y-63041375D01*
X100805460Y-63067472D01*
X100794838Y-63083368D01*
X100774867Y-63103339D01*
X100758972Y-63113960D01*
X100732877Y-63124770D01*
X100714124Y-63128501D01*
X100685876Y-63128501D01*
X100667124Y-63124771D01*
X100641028Y-63113961D01*
X100641027Y-63113960D01*
X100625133Y-63103340D01*
X100605162Y-63083370D01*
X100594539Y-63067472D01*
X100583730Y-63041376D01*
X100580000Y-63022625D01*
X100580000Y-62994373D01*
X100583727Y-62975627D01*
X100594539Y-62949525D01*
X100605156Y-62933636D01*
X100625135Y-62913657D01*
X100641025Y-62903039D01*
X100667125Y-62892229D01*
X100685873Y-62888501D01*
X100714125Y-62888501D01*
X100732876Y-62892231D01*
G37*
%TD.AperFunction*%
%TA.AperFunction,Conductor*%
G36*
X100732876Y-61892231D02*
G01*
X100758970Y-61903039D01*
X100774867Y-61913661D01*
X100794836Y-61933630D01*
X100805457Y-61949525D01*
X100816269Y-61975625D01*
X100820000Y-61994378D01*
X100820000Y-62022623D01*
X100816270Y-62041375D01*
X100805460Y-62067472D01*
X100794838Y-62083368D01*
X100774867Y-62103339D01*
X100758972Y-62113960D01*
X100732877Y-62124770D01*
X100714124Y-62128501D01*
X100685876Y-62128501D01*
X100667124Y-62124771D01*
X100641028Y-62113961D01*
X100625133Y-62103340D01*
X100605162Y-62083370D01*
X100605161Y-62083368D01*
X100594539Y-62067472D01*
X100583730Y-62041376D01*
X100580000Y-62022625D01*
X100580000Y-61994373D01*
X100583727Y-61975627D01*
X100594540Y-61949523D01*
X100605156Y-61933636D01*
X100625135Y-61913657D01*
X100641025Y-61903039D01*
X100667125Y-61892229D01*
X100685873Y-61888501D01*
X100714125Y-61888501D01*
X100732876Y-61892231D01*
G37*
%TD.AperFunction*%
%TA.AperFunction,Conductor*%
G36*
X100732876Y-60740231D02*
G01*
X100758970Y-60751039D01*
X100774867Y-60761661D01*
X100794836Y-60781630D01*
X100805457Y-60797525D01*
X100816269Y-60823625D01*
X100820000Y-60842378D01*
X100820000Y-60870623D01*
X100816270Y-60889375D01*
X100805460Y-60915472D01*
X100794838Y-60931368D01*
X100774867Y-60951339D01*
X100758972Y-60961960D01*
X100732877Y-60972770D01*
X100714124Y-60976501D01*
X100685876Y-60976501D01*
X100667124Y-60972771D01*
X100641028Y-60961961D01*
X100641027Y-60961960D01*
X100625133Y-60951340D01*
X100605162Y-60931370D01*
X100594539Y-60915472D01*
X100583730Y-60889376D01*
X100580000Y-60870625D01*
X100580000Y-60842373D01*
X100583727Y-60823627D01*
X100594539Y-60797525D01*
X100605156Y-60781636D01*
X100625135Y-60761657D01*
X100641025Y-60751039D01*
X100667125Y-60740229D01*
X100685873Y-60736501D01*
X100714125Y-60736501D01*
X100732876Y-60740231D01*
G37*
%TD.AperFunction*%
%TA.AperFunction,Conductor*%
G36*
X98232876Y-60112231D02*
G01*
X98258970Y-60123039D01*
X98274867Y-60133661D01*
X98294836Y-60153630D01*
X98305457Y-60169525D01*
X98316269Y-60195625D01*
X98320000Y-60214378D01*
X98320000Y-60242623D01*
X98316270Y-60261375D01*
X98305460Y-60287472D01*
X98294838Y-60303368D01*
X98274867Y-60323339D01*
X98258972Y-60333960D01*
X98232877Y-60344770D01*
X98214124Y-60348501D01*
X98185876Y-60348501D01*
X98167124Y-60344771D01*
X98141028Y-60333961D01*
X98125133Y-60323340D01*
X98105162Y-60303370D01*
X98105161Y-60303368D01*
X98094539Y-60287472D01*
X98083730Y-60261376D01*
X98080000Y-60242625D01*
X98080000Y-60214373D01*
X98083727Y-60195627D01*
X98094540Y-60169523D01*
X98105156Y-60153636D01*
X98125135Y-60133657D01*
X98141025Y-60123039D01*
X98167125Y-60112229D01*
X98185873Y-60108501D01*
X98214125Y-60108501D01*
X98232876Y-60112231D01*
G37*
%TD.AperFunction*%
%TA.AperFunction,Conductor*%
G36*
X100732876Y-59392231D02*
G01*
X100750838Y-59399671D01*
X100758970Y-59403039D01*
X100774867Y-59413661D01*
X100794836Y-59433630D01*
X100805457Y-59449525D01*
X100816269Y-59475625D01*
X100820000Y-59494378D01*
X100820000Y-59522623D01*
X100816270Y-59541375D01*
X100805460Y-59567472D01*
X100794838Y-59583368D01*
X100774867Y-59603339D01*
X100758972Y-59613960D01*
X100732877Y-59624770D01*
X100714124Y-59628501D01*
X100685876Y-59628501D01*
X100667124Y-59624771D01*
X100641028Y-59613961D01*
X100641027Y-59613960D01*
X100625133Y-59603340D01*
X100605162Y-59583370D01*
X100594539Y-59567472D01*
X100583730Y-59541376D01*
X100580000Y-59522625D01*
X100580000Y-59494373D01*
X100583727Y-59475627D01*
X100594539Y-59449525D01*
X100605156Y-59433636D01*
X100625135Y-59413657D01*
X100641025Y-59403039D01*
X100667125Y-59392229D01*
X100685873Y-59388501D01*
X100714125Y-59388501D01*
X100732876Y-59392231D01*
G37*
%TD.AperFunction*%
%TA.AperFunction,Conductor*%
G36*
X100732876Y-58392231D02*
G01*
X100758970Y-58403039D01*
X100774867Y-58413661D01*
X100794836Y-58433630D01*
X100805457Y-58449525D01*
X100816269Y-58475625D01*
X100820000Y-58494378D01*
X100820000Y-58522623D01*
X100816270Y-58541375D01*
X100805460Y-58567472D01*
X100794838Y-58583368D01*
X100774867Y-58603339D01*
X100758972Y-58613960D01*
X100732877Y-58624770D01*
X100714124Y-58628501D01*
X100685876Y-58628501D01*
X100667124Y-58624771D01*
X100641028Y-58613961D01*
X100625133Y-58603340D01*
X100605162Y-58583370D01*
X100605161Y-58583368D01*
X100594539Y-58567472D01*
X100583730Y-58541376D01*
X100580000Y-58522625D01*
X100580000Y-58494373D01*
X100583727Y-58475627D01*
X100594540Y-58449523D01*
X100605156Y-58433636D01*
X100625135Y-58413657D01*
X100641025Y-58403039D01*
X100667125Y-58392229D01*
X100685873Y-58388501D01*
X100714125Y-58388501D01*
X100732876Y-58392231D01*
G37*
%TD.AperFunction*%
%TA.AperFunction,Conductor*%
G36*
X98467876Y-57375231D02*
G01*
X98493970Y-57386039D01*
X98509867Y-57396661D01*
X98529836Y-57416630D01*
X98540457Y-57432525D01*
X98551269Y-57458625D01*
X98555000Y-57477378D01*
X98555000Y-57505623D01*
X98551270Y-57524375D01*
X98540460Y-57550472D01*
X98529838Y-57566368D01*
X98509867Y-57586339D01*
X98493972Y-57596960D01*
X98467877Y-57607770D01*
X98449124Y-57611501D01*
X98420876Y-57611501D01*
X98402124Y-57607771D01*
X98376028Y-57596961D01*
X98376027Y-57596960D01*
X98360133Y-57586340D01*
X98340162Y-57566370D01*
X98329539Y-57550472D01*
X98318730Y-57524376D01*
X98315000Y-57505625D01*
X98315000Y-57477373D01*
X98318727Y-57458627D01*
X98329539Y-57432525D01*
X98340156Y-57416636D01*
X98360135Y-57396657D01*
X98376025Y-57386039D01*
X98402125Y-57375229D01*
X98420873Y-57371501D01*
X98449125Y-57371501D01*
X98467876Y-57375231D01*
G37*
%TD.AperFunction*%
%TA.AperFunction,Conductor*%
G36*
X99252876Y-56092231D02*
G01*
X99278970Y-56103039D01*
X99294867Y-56113661D01*
X99314836Y-56133630D01*
X99325457Y-56149525D01*
X99336269Y-56175625D01*
X99340000Y-56194378D01*
X99340000Y-56222623D01*
X99336270Y-56241375D01*
X99325460Y-56267472D01*
X99314838Y-56283368D01*
X99294867Y-56303339D01*
X99278972Y-56313960D01*
X99252877Y-56324770D01*
X99234124Y-56328501D01*
X99205876Y-56328501D01*
X99187124Y-56324771D01*
X99161028Y-56313961D01*
X99145133Y-56303340D01*
X99125162Y-56283370D01*
X99125161Y-56283368D01*
X99114539Y-56267472D01*
X99103730Y-56241376D01*
X99100000Y-56222625D01*
X99100000Y-56194373D01*
X99103727Y-56175627D01*
X99114540Y-56149523D01*
X99125156Y-56133636D01*
X99145135Y-56113657D01*
X99161025Y-56103039D01*
X99187125Y-56092229D01*
X99205873Y-56088501D01*
X99234125Y-56088501D01*
X99252876Y-56092231D01*
G37*
%TD.AperFunction*%
%TA.AperFunction,Conductor*%
G36*
X99252876Y-55092231D02*
G01*
X99278970Y-55103039D01*
X99294867Y-55113661D01*
X99314836Y-55133630D01*
X99325457Y-55149525D01*
X99336269Y-55175625D01*
X99340000Y-55194378D01*
X99340000Y-55222623D01*
X99336270Y-55241375D01*
X99325460Y-55267472D01*
X99314838Y-55283368D01*
X99294867Y-55303339D01*
X99278972Y-55313960D01*
X99252877Y-55324770D01*
X99234124Y-55328501D01*
X99205876Y-55328501D01*
X99187124Y-55324771D01*
X99161028Y-55313961D01*
X99161027Y-55313960D01*
X99145133Y-55303340D01*
X99125162Y-55283370D01*
X99114539Y-55267472D01*
X99103730Y-55241376D01*
X99100000Y-55222625D01*
X99100000Y-55194373D01*
X99103727Y-55175627D01*
X99114539Y-55149525D01*
X99125156Y-55133636D01*
X99145135Y-55113657D01*
X99161025Y-55103039D01*
X99187125Y-55092229D01*
X99205873Y-55088501D01*
X99234125Y-55088501D01*
X99252876Y-55092231D01*
G37*
%TD.AperFunction*%
%TA.AperFunction,Conductor*%
G36*
X95217118Y-52675353D02*
G01*
X95231470Y-52710001D01*
X95217118Y-52744649D01*
X94088130Y-53873637D01*
X94072145Y-53889620D01*
X94037496Y-53903970D01*
X94002851Y-53889618D01*
X93641852Y-53528619D01*
X93627500Y-53493971D01*
X93627500Y-52998030D01*
X93641852Y-52963382D01*
X93929881Y-52675353D01*
X93964529Y-52661001D01*
X95182470Y-52661001D01*
X95217118Y-52675353D01*
G37*
%TD.AperFunction*%
%TA.AperFunction,Conductor*%
G36*
X115935148Y-51873353D02*
G01*
X115949500Y-51908001D01*
X115949500Y-69809001D01*
X115935148Y-69843649D01*
X115900500Y-69858001D01*
X89999500Y-69858001D01*
X89964852Y-69843649D01*
X89950500Y-69809001D01*
X89950500Y-68888644D01*
X92274500Y-68888644D01*
X92274500Y-68888646D01*
X92274500Y-68978356D01*
X92274500Y-68978358D01*
X92274501Y-68978359D01*
X92308830Y-69061237D01*
X92308832Y-69061240D01*
X92372261Y-69124669D01*
X92372263Y-69124670D01*
X92372264Y-69124671D01*
X92455145Y-69159001D01*
X92455147Y-69159001D01*
X92544853Y-69159001D01*
X92544855Y-69159001D01*
X92627736Y-69124671D01*
X92627737Y-69124669D01*
X92627739Y-69124669D01*
X92691168Y-69061240D01*
X92691168Y-69061238D01*
X92691170Y-69061237D01*
X92725500Y-68978356D01*
X92725500Y-68888646D01*
X92725499Y-68888644D01*
X93774500Y-68888644D01*
X93774500Y-68888646D01*
X93774500Y-68978356D01*
X93774500Y-68978358D01*
X93774501Y-68978359D01*
X93808830Y-69061237D01*
X93808832Y-69061240D01*
X93872261Y-69124669D01*
X93872263Y-69124670D01*
X93872264Y-69124671D01*
X93955145Y-69159001D01*
X93955147Y-69159001D01*
X94044853Y-69159001D01*
X94044855Y-69159001D01*
X94127736Y-69124671D01*
X94127737Y-69124669D01*
X94127739Y-69124669D01*
X94191168Y-69061240D01*
X94191168Y-69061238D01*
X94191170Y-69061237D01*
X94225500Y-68978356D01*
X94225500Y-68888646D01*
X94225499Y-68888644D01*
X95274500Y-68888644D01*
X95274500Y-68888646D01*
X95274500Y-68978356D01*
X95274500Y-68978358D01*
X95274501Y-68978359D01*
X95308830Y-69061237D01*
X95308832Y-69061240D01*
X95372261Y-69124669D01*
X95372263Y-69124670D01*
X95372264Y-69124671D01*
X95455145Y-69159001D01*
X95455147Y-69159001D01*
X95544853Y-69159001D01*
X95544855Y-69159001D01*
X95627736Y-69124671D01*
X95627737Y-69124669D01*
X95627739Y-69124669D01*
X95691168Y-69061240D01*
X95691168Y-69061238D01*
X95691170Y-69061237D01*
X95725500Y-68978356D01*
X95725500Y-68888646D01*
X95725499Y-68888644D01*
X96774500Y-68888644D01*
X96774500Y-68888646D01*
X96774500Y-68978356D01*
X96774500Y-68978358D01*
X96774501Y-68978359D01*
X96808830Y-69061237D01*
X96808832Y-69061240D01*
X96872261Y-69124669D01*
X96872263Y-69124670D01*
X96872264Y-69124671D01*
X96955145Y-69159001D01*
X96955147Y-69159001D01*
X97044853Y-69159001D01*
X97044855Y-69159001D01*
X97127736Y-69124671D01*
X97127737Y-69124669D01*
X97127739Y-69124669D01*
X97191168Y-69061240D01*
X97191168Y-69061238D01*
X97191170Y-69061237D01*
X97225500Y-68978356D01*
X97225500Y-68888646D01*
X97225499Y-68888644D01*
X98274500Y-68888644D01*
X98274500Y-68888646D01*
X98274500Y-68978356D01*
X98274500Y-68978358D01*
X98274501Y-68978359D01*
X98308830Y-69061237D01*
X98308832Y-69061240D01*
X98372261Y-69124669D01*
X98372263Y-69124670D01*
X98372264Y-69124671D01*
X98455145Y-69159001D01*
X98455147Y-69159001D01*
X98544853Y-69159001D01*
X98544855Y-69159001D01*
X98627736Y-69124671D01*
X98627737Y-69124669D01*
X98627739Y-69124669D01*
X98691168Y-69061240D01*
X98691168Y-69061238D01*
X98691170Y-69061237D01*
X98725500Y-68978356D01*
X98725500Y-68888646D01*
X98725499Y-68888644D01*
X99774500Y-68888644D01*
X99774500Y-68888646D01*
X99774500Y-68978356D01*
X99774500Y-68978358D01*
X99774501Y-68978359D01*
X99808830Y-69061237D01*
X99808832Y-69061240D01*
X99872261Y-69124669D01*
X99872263Y-69124670D01*
X99872264Y-69124671D01*
X99955145Y-69159001D01*
X99955147Y-69159001D01*
X100044853Y-69159001D01*
X100044855Y-69159001D01*
X100127736Y-69124671D01*
X100127737Y-69124669D01*
X100127739Y-69124669D01*
X100191168Y-69061240D01*
X100191168Y-69061238D01*
X100191170Y-69061237D01*
X100225500Y-68978356D01*
X100225500Y-68888646D01*
X100225499Y-68888644D01*
X101274500Y-68888644D01*
X101274500Y-68888646D01*
X101274500Y-68978356D01*
X101274500Y-68978358D01*
X101274501Y-68978359D01*
X101308830Y-69061237D01*
X101308832Y-69061240D01*
X101372261Y-69124669D01*
X101372263Y-69124670D01*
X101372264Y-69124671D01*
X101455145Y-69159001D01*
X101455147Y-69159001D01*
X101544853Y-69159001D01*
X101544855Y-69159001D01*
X101627736Y-69124671D01*
X101627737Y-69124669D01*
X101627739Y-69124669D01*
X101691168Y-69061240D01*
X101691168Y-69061238D01*
X101691170Y-69061237D01*
X101725500Y-68978356D01*
X101725500Y-68888646D01*
X101725499Y-68888644D01*
X102774500Y-68888644D01*
X102774500Y-68888646D01*
X102774500Y-68978356D01*
X102774500Y-68978358D01*
X102774501Y-68978359D01*
X102808830Y-69061237D01*
X102808832Y-69061240D01*
X102872261Y-69124669D01*
X102872263Y-69124670D01*
X102872264Y-69124671D01*
X102955145Y-69159001D01*
X102955147Y-69159001D01*
X103044853Y-69159001D01*
X103044855Y-69159001D01*
X103127736Y-69124671D01*
X103127737Y-69124669D01*
X103127739Y-69124669D01*
X103191168Y-69061240D01*
X103191168Y-69061238D01*
X103191170Y-69061237D01*
X103225500Y-68978356D01*
X103225500Y-68888646D01*
X103225499Y-68888644D01*
X104274500Y-68888644D01*
X104274500Y-68888646D01*
X104274500Y-68978356D01*
X104274500Y-68978358D01*
X104274501Y-68978359D01*
X104308830Y-69061237D01*
X104308832Y-69061240D01*
X104372261Y-69124669D01*
X104372263Y-69124670D01*
X104372264Y-69124671D01*
X104455145Y-69159001D01*
X104455147Y-69159001D01*
X104544853Y-69159001D01*
X104544855Y-69159001D01*
X104627736Y-69124671D01*
X104627737Y-69124669D01*
X104627739Y-69124669D01*
X104691168Y-69061240D01*
X104691168Y-69061238D01*
X104691170Y-69061237D01*
X104725500Y-68978356D01*
X104725500Y-68888646D01*
X104725499Y-68888644D01*
X105774500Y-68888644D01*
X105774500Y-68888646D01*
X105774500Y-68978356D01*
X105774500Y-68978358D01*
X105774501Y-68978359D01*
X105808830Y-69061237D01*
X105808832Y-69061240D01*
X105872261Y-69124669D01*
X105872263Y-69124670D01*
X105872264Y-69124671D01*
X105955145Y-69159001D01*
X105955147Y-69159001D01*
X106044853Y-69159001D01*
X106044855Y-69159001D01*
X106127736Y-69124671D01*
X106127737Y-69124669D01*
X106127739Y-69124669D01*
X106191168Y-69061240D01*
X106191168Y-69061238D01*
X106191170Y-69061237D01*
X106225500Y-68978356D01*
X106225500Y-68888646D01*
X106225499Y-68888644D01*
X107274500Y-68888644D01*
X107274500Y-68888646D01*
X107274500Y-68978356D01*
X107274500Y-68978358D01*
X107274501Y-68978359D01*
X107308830Y-69061237D01*
X107308832Y-69061240D01*
X107372261Y-69124669D01*
X107372263Y-69124670D01*
X107372264Y-69124671D01*
X107455145Y-69159001D01*
X107455147Y-69159001D01*
X107544853Y-69159001D01*
X107544855Y-69159001D01*
X107627736Y-69124671D01*
X107627737Y-69124669D01*
X107627739Y-69124669D01*
X107691168Y-69061240D01*
X107691168Y-69061238D01*
X107691170Y-69061237D01*
X107725500Y-68978356D01*
X107725500Y-68888646D01*
X107725499Y-68888644D01*
X108774500Y-68888644D01*
X108774500Y-68888646D01*
X108774500Y-68978356D01*
X108774500Y-68978358D01*
X108774501Y-68978359D01*
X108808830Y-69061237D01*
X108808832Y-69061240D01*
X108872261Y-69124669D01*
X108872263Y-69124670D01*
X108872264Y-69124671D01*
X108955145Y-69159001D01*
X108955147Y-69159001D01*
X109044853Y-69159001D01*
X109044855Y-69159001D01*
X109127736Y-69124671D01*
X109127737Y-69124669D01*
X109127739Y-69124669D01*
X109191168Y-69061240D01*
X109191168Y-69061238D01*
X109191170Y-69061237D01*
X109225500Y-68978356D01*
X109225500Y-68888646D01*
X109225499Y-68888644D01*
X110274500Y-68888644D01*
X110274500Y-68888646D01*
X110274500Y-68978356D01*
X110274500Y-68978358D01*
X110274501Y-68978359D01*
X110308830Y-69061237D01*
X110308832Y-69061240D01*
X110372261Y-69124669D01*
X110372263Y-69124670D01*
X110372264Y-69124671D01*
X110455145Y-69159001D01*
X110455147Y-69159001D01*
X110544853Y-69159001D01*
X110544855Y-69159001D01*
X110627736Y-69124671D01*
X110627737Y-69124669D01*
X110627739Y-69124669D01*
X110691168Y-69061240D01*
X110691168Y-69061238D01*
X110691170Y-69061237D01*
X110725500Y-68978356D01*
X110725500Y-68888646D01*
X110725499Y-68888644D01*
X111774500Y-68888644D01*
X111774500Y-68888646D01*
X111774500Y-68978356D01*
X111774500Y-68978358D01*
X111774501Y-68978359D01*
X111808830Y-69061237D01*
X111808832Y-69061240D01*
X111872261Y-69124669D01*
X111872263Y-69124670D01*
X111872264Y-69124671D01*
X111955145Y-69159001D01*
X111955147Y-69159001D01*
X112044853Y-69159001D01*
X112044855Y-69159001D01*
X112127736Y-69124671D01*
X112127737Y-69124669D01*
X112127739Y-69124669D01*
X112191168Y-69061240D01*
X112191168Y-69061238D01*
X112191170Y-69061237D01*
X112225500Y-68978356D01*
X112225500Y-68888646D01*
X112225499Y-68888644D01*
X113274500Y-68888644D01*
X113274500Y-68888646D01*
X113274500Y-68978356D01*
X113274500Y-68978358D01*
X113274501Y-68978359D01*
X113308830Y-69061237D01*
X113308832Y-69061240D01*
X113372261Y-69124669D01*
X113372263Y-69124670D01*
X113372264Y-69124671D01*
X113455145Y-69159001D01*
X113455147Y-69159001D01*
X113544853Y-69159001D01*
X113544855Y-69159001D01*
X113627736Y-69124671D01*
X113627737Y-69124669D01*
X113627739Y-69124669D01*
X113691168Y-69061240D01*
X113691168Y-69061238D01*
X113691170Y-69061237D01*
X113725500Y-68978356D01*
X113725500Y-68888646D01*
X113725499Y-68888644D01*
X114774500Y-68888644D01*
X114774500Y-68888646D01*
X114774500Y-68978356D01*
X114774500Y-68978358D01*
X114774501Y-68978359D01*
X114808830Y-69061237D01*
X114808832Y-69061240D01*
X114872261Y-69124669D01*
X114872263Y-69124670D01*
X114872264Y-69124671D01*
X114955145Y-69159001D01*
X114955147Y-69159001D01*
X115044853Y-69159001D01*
X115044855Y-69159001D01*
X115127736Y-69124671D01*
X115127737Y-69124669D01*
X115127739Y-69124669D01*
X115191168Y-69061240D01*
X115191168Y-69061238D01*
X115191170Y-69061237D01*
X115225500Y-68978356D01*
X115225500Y-68888646D01*
X115191170Y-68805765D01*
X115191169Y-68805764D01*
X115191168Y-68805762D01*
X115127739Y-68742333D01*
X115127736Y-68742331D01*
X115044858Y-68708002D01*
X115044856Y-68708001D01*
X115044855Y-68708001D01*
X114955145Y-68708001D01*
X114955143Y-68708001D01*
X114955141Y-68708002D01*
X114872263Y-68742331D01*
X114808830Y-68805764D01*
X114774501Y-68888642D01*
X114774500Y-68888644D01*
X113725499Y-68888644D01*
X113691170Y-68805765D01*
X113691169Y-68805764D01*
X113691168Y-68805762D01*
X113627739Y-68742333D01*
X113627736Y-68742331D01*
X113544858Y-68708002D01*
X113544856Y-68708001D01*
X113544855Y-68708001D01*
X113455145Y-68708001D01*
X113455143Y-68708001D01*
X113455141Y-68708002D01*
X113372263Y-68742331D01*
X113308830Y-68805764D01*
X113274501Y-68888642D01*
X113274500Y-68888644D01*
X112225499Y-68888644D01*
X112191170Y-68805765D01*
X112191169Y-68805764D01*
X112191168Y-68805762D01*
X112127739Y-68742333D01*
X112127736Y-68742331D01*
X112044858Y-68708002D01*
X112044856Y-68708001D01*
X112044855Y-68708001D01*
X111955145Y-68708001D01*
X111955143Y-68708001D01*
X111955141Y-68708002D01*
X111872263Y-68742331D01*
X111808830Y-68805764D01*
X111774501Y-68888642D01*
X111774500Y-68888644D01*
X110725499Y-68888644D01*
X110691170Y-68805765D01*
X110691169Y-68805764D01*
X110691168Y-68805762D01*
X110627739Y-68742333D01*
X110627736Y-68742331D01*
X110544858Y-68708002D01*
X110544856Y-68708001D01*
X110544855Y-68708001D01*
X110455145Y-68708001D01*
X110455143Y-68708001D01*
X110455141Y-68708002D01*
X110372263Y-68742331D01*
X110308830Y-68805764D01*
X110274501Y-68888642D01*
X110274500Y-68888644D01*
X109225499Y-68888644D01*
X109191170Y-68805765D01*
X109191169Y-68805764D01*
X109191168Y-68805762D01*
X109127739Y-68742333D01*
X109127736Y-68742331D01*
X109044858Y-68708002D01*
X109044856Y-68708001D01*
X109044855Y-68708001D01*
X108955145Y-68708001D01*
X108955143Y-68708001D01*
X108955141Y-68708002D01*
X108872263Y-68742331D01*
X108808830Y-68805764D01*
X108774501Y-68888642D01*
X108774500Y-68888644D01*
X107725499Y-68888644D01*
X107691170Y-68805765D01*
X107691169Y-68805764D01*
X107691168Y-68805762D01*
X107627739Y-68742333D01*
X107627736Y-68742331D01*
X107544858Y-68708002D01*
X107544856Y-68708001D01*
X107544855Y-68708001D01*
X107455145Y-68708001D01*
X107455143Y-68708001D01*
X107455141Y-68708002D01*
X107372263Y-68742331D01*
X107308830Y-68805764D01*
X107274501Y-68888642D01*
X107274500Y-68888644D01*
X106225499Y-68888644D01*
X106191170Y-68805765D01*
X106191169Y-68805764D01*
X106191168Y-68805762D01*
X106127739Y-68742333D01*
X106127736Y-68742331D01*
X106044858Y-68708002D01*
X106044856Y-68708001D01*
X106044855Y-68708001D01*
X105955145Y-68708001D01*
X105955143Y-68708001D01*
X105955141Y-68708002D01*
X105872263Y-68742331D01*
X105808830Y-68805764D01*
X105774501Y-68888642D01*
X105774500Y-68888644D01*
X104725499Y-68888644D01*
X104691170Y-68805765D01*
X104691169Y-68805764D01*
X104691168Y-68805762D01*
X104627739Y-68742333D01*
X104627736Y-68742331D01*
X104544858Y-68708002D01*
X104544856Y-68708001D01*
X104544855Y-68708001D01*
X104455145Y-68708001D01*
X104455143Y-68708001D01*
X104455141Y-68708002D01*
X104372263Y-68742331D01*
X104308830Y-68805764D01*
X104274501Y-68888642D01*
X104274500Y-68888644D01*
X103225499Y-68888644D01*
X103191170Y-68805765D01*
X103191169Y-68805764D01*
X103191168Y-68805762D01*
X103127739Y-68742333D01*
X103127736Y-68742331D01*
X103044858Y-68708002D01*
X103044856Y-68708001D01*
X103044855Y-68708001D01*
X102955145Y-68708001D01*
X102955143Y-68708001D01*
X102955141Y-68708002D01*
X102872263Y-68742331D01*
X102808830Y-68805764D01*
X102774501Y-68888642D01*
X102774500Y-68888644D01*
X101725499Y-68888644D01*
X101691170Y-68805765D01*
X101691169Y-68805764D01*
X101691168Y-68805762D01*
X101627739Y-68742333D01*
X101627736Y-68742331D01*
X101544858Y-68708002D01*
X101544856Y-68708001D01*
X101544855Y-68708001D01*
X101455145Y-68708001D01*
X101455143Y-68708001D01*
X101455141Y-68708002D01*
X101372263Y-68742331D01*
X101308830Y-68805764D01*
X101274501Y-68888642D01*
X101274500Y-68888644D01*
X100225499Y-68888644D01*
X100191170Y-68805765D01*
X100191169Y-68805764D01*
X100191168Y-68805762D01*
X100127739Y-68742333D01*
X100127736Y-68742331D01*
X100044858Y-68708002D01*
X100044856Y-68708001D01*
X100044855Y-68708001D01*
X99955145Y-68708001D01*
X99955143Y-68708001D01*
X99955141Y-68708002D01*
X99872263Y-68742331D01*
X99808830Y-68805764D01*
X99774501Y-68888642D01*
X99774500Y-68888644D01*
X98725499Y-68888644D01*
X98691170Y-68805765D01*
X98691169Y-68805764D01*
X98691168Y-68805762D01*
X98627739Y-68742333D01*
X98627736Y-68742331D01*
X98544858Y-68708002D01*
X98544856Y-68708001D01*
X98544855Y-68708001D01*
X98455145Y-68708001D01*
X98455143Y-68708001D01*
X98455141Y-68708002D01*
X98372263Y-68742331D01*
X98308830Y-68805764D01*
X98274501Y-68888642D01*
X98274500Y-68888644D01*
X97225499Y-68888644D01*
X97191170Y-68805765D01*
X97191169Y-68805764D01*
X97191168Y-68805762D01*
X97127739Y-68742333D01*
X97127736Y-68742331D01*
X97044858Y-68708002D01*
X97044856Y-68708001D01*
X97044855Y-68708001D01*
X96955145Y-68708001D01*
X96955143Y-68708001D01*
X96955141Y-68708002D01*
X96872263Y-68742331D01*
X96808830Y-68805764D01*
X96774501Y-68888642D01*
X96774500Y-68888644D01*
X95725499Y-68888644D01*
X95691170Y-68805765D01*
X95691169Y-68805764D01*
X95691168Y-68805762D01*
X95627739Y-68742333D01*
X95627736Y-68742331D01*
X95544858Y-68708002D01*
X95544856Y-68708001D01*
X95544855Y-68708001D01*
X95455145Y-68708001D01*
X95455143Y-68708001D01*
X95455141Y-68708002D01*
X95372263Y-68742331D01*
X95308830Y-68805764D01*
X95274501Y-68888642D01*
X95274500Y-68888644D01*
X94225499Y-68888644D01*
X94191170Y-68805765D01*
X94191169Y-68805764D01*
X94191168Y-68805762D01*
X94127739Y-68742333D01*
X94127736Y-68742331D01*
X94044858Y-68708002D01*
X94044856Y-68708001D01*
X94044855Y-68708001D01*
X93955145Y-68708001D01*
X93955143Y-68708001D01*
X93955141Y-68708002D01*
X93872263Y-68742331D01*
X93808830Y-68805764D01*
X93774501Y-68888642D01*
X93774500Y-68888644D01*
X92725499Y-68888644D01*
X92691170Y-68805765D01*
X92691169Y-68805764D01*
X92691168Y-68805762D01*
X92627739Y-68742333D01*
X92627736Y-68742331D01*
X92544858Y-68708002D01*
X92544856Y-68708001D01*
X92544855Y-68708001D01*
X92455145Y-68708001D01*
X92455143Y-68708001D01*
X92455141Y-68708002D01*
X92372263Y-68742331D01*
X92308830Y-68805764D01*
X92274501Y-68888642D01*
X92274500Y-68888644D01*
X89950500Y-68888644D01*
X89950500Y-66671642D01*
X90774500Y-66671642D01*
X90774500Y-66671644D01*
X90774500Y-66761354D01*
X90774500Y-66761356D01*
X90774501Y-66761357D01*
X90808830Y-66844235D01*
X90808832Y-66844238D01*
X90872261Y-66907667D01*
X90872263Y-66907668D01*
X90872264Y-66907669D01*
X90955145Y-66941999D01*
X90955147Y-66941999D01*
X91044853Y-66941999D01*
X91044855Y-66941999D01*
X91127736Y-66907669D01*
X91127737Y-66907667D01*
X91127739Y-66907667D01*
X91191168Y-66844238D01*
X91191168Y-66844236D01*
X91191170Y-66844235D01*
X91225500Y-66761354D01*
X91225500Y-66671644D01*
X91191170Y-66588763D01*
X91191169Y-66588762D01*
X91191168Y-66588760D01*
X91127739Y-66525331D01*
X91127736Y-66525329D01*
X91044858Y-66491000D01*
X91044856Y-66490999D01*
X91044855Y-66490999D01*
X90955145Y-66490999D01*
X90955143Y-66490999D01*
X90955141Y-66491000D01*
X90872263Y-66525329D01*
X90808830Y-66588762D01*
X90774501Y-66671640D01*
X90774500Y-66671642D01*
X89950500Y-66671642D01*
X89950500Y-64211644D01*
X90924500Y-64211644D01*
X90924500Y-64211646D01*
X90924500Y-64301356D01*
X90924500Y-64301358D01*
X90924501Y-64301359D01*
X90958830Y-64384237D01*
X90958832Y-64384240D01*
X90996445Y-64421853D01*
X91010797Y-64456501D01*
X90996445Y-64491149D01*
X90958830Y-64528764D01*
X90924501Y-64611642D01*
X90924500Y-64611644D01*
X90924500Y-64611646D01*
X90924500Y-64701356D01*
X90924500Y-64701358D01*
X90924501Y-64701359D01*
X90958830Y-64784237D01*
X90958832Y-64784240D01*
X91022261Y-64847669D01*
X91022263Y-64847670D01*
X91022264Y-64847671D01*
X91105145Y-64882001D01*
X91105147Y-64882001D01*
X91194853Y-64882001D01*
X91194855Y-64882001D01*
X91277736Y-64847671D01*
X91277737Y-64847669D01*
X91277739Y-64847669D01*
X91341168Y-64784240D01*
X91341168Y-64784238D01*
X91341170Y-64784237D01*
X91375500Y-64701356D01*
X91375500Y-64611646D01*
X91341170Y-64528765D01*
X91341169Y-64528764D01*
X91341168Y-64528762D01*
X91303555Y-64491149D01*
X91289203Y-64456501D01*
X91303555Y-64421853D01*
X91341168Y-64384240D01*
X91341168Y-64384238D01*
X91341170Y-64384237D01*
X91375500Y-64301356D01*
X91375500Y-64211646D01*
X91341170Y-64128765D01*
X91341169Y-64128764D01*
X91341168Y-64128762D01*
X91277739Y-64065333D01*
X91277736Y-64065331D01*
X91194858Y-64031002D01*
X91194856Y-64031001D01*
X91194855Y-64031001D01*
X91105145Y-64031001D01*
X91105143Y-64031001D01*
X91105141Y-64031002D01*
X91022263Y-64065331D01*
X90958830Y-64128764D01*
X90924501Y-64211642D01*
X90924500Y-64211644D01*
X89950500Y-64211644D01*
X89950500Y-63411644D01*
X90924500Y-63411644D01*
X90924500Y-63411646D01*
X90924500Y-63501356D01*
X90924500Y-63501358D01*
X90924501Y-63501359D01*
X90958830Y-63584237D01*
X90958832Y-63584240D01*
X91022261Y-63647669D01*
X91022263Y-63647670D01*
X91022264Y-63647671D01*
X91105145Y-63682001D01*
X91105147Y-63682001D01*
X91194853Y-63682001D01*
X91194855Y-63682001D01*
X91277736Y-63647671D01*
X91277737Y-63647669D01*
X91277739Y-63647669D01*
X91341168Y-63584240D01*
X91341168Y-63584238D01*
X91341170Y-63584237D01*
X91375500Y-63501356D01*
X91375500Y-63411646D01*
X91341170Y-63328765D01*
X91341169Y-63328764D01*
X91341168Y-63328762D01*
X91277739Y-63265333D01*
X91277736Y-63265331D01*
X91194858Y-63231002D01*
X91194856Y-63231001D01*
X91194855Y-63231001D01*
X91105145Y-63231001D01*
X91105143Y-63231001D01*
X91105141Y-63231002D01*
X91022263Y-63265331D01*
X90958830Y-63328764D01*
X90924501Y-63411642D01*
X90924500Y-63411644D01*
X89950500Y-63411644D01*
X89950500Y-61411644D01*
X92219500Y-61411644D01*
X92219500Y-61411646D01*
X92219500Y-61501356D01*
X92219500Y-61501358D01*
X92219501Y-61501359D01*
X92253830Y-61584237D01*
X92253832Y-61584240D01*
X92317261Y-61647669D01*
X92317263Y-61647670D01*
X92317264Y-61647671D01*
X92400145Y-61682001D01*
X92400147Y-61682001D01*
X92489853Y-61682001D01*
X92489855Y-61682001D01*
X92572736Y-61647671D01*
X92572737Y-61647669D01*
X92572739Y-61647669D01*
X92636168Y-61584240D01*
X92636168Y-61584238D01*
X92636170Y-61584237D01*
X92670500Y-61501356D01*
X92670500Y-61411646D01*
X92636170Y-61328765D01*
X92636169Y-61328764D01*
X92636168Y-61328762D01*
X92601054Y-61293648D01*
X92586702Y-61259000D01*
X92601053Y-61224353D01*
X92641170Y-61184237D01*
X92675500Y-61101356D01*
X92675500Y-61011646D01*
X92641170Y-60928765D01*
X92641169Y-60928764D01*
X92641168Y-60928762D01*
X92606554Y-60894148D01*
X92592202Y-60859500D01*
X92606553Y-60824853D01*
X92648170Y-60783237D01*
X92682500Y-60700356D01*
X92682500Y-60610646D01*
X92648170Y-60527765D01*
X92648169Y-60527764D01*
X92648168Y-60527762D01*
X92584739Y-60464333D01*
X92584736Y-60464331D01*
X92501858Y-60430002D01*
X92501856Y-60430001D01*
X92501855Y-60430001D01*
X92412145Y-60430001D01*
X92412143Y-60430001D01*
X92412141Y-60430002D01*
X92329263Y-60464331D01*
X92265830Y-60527764D01*
X92231501Y-60610642D01*
X92231500Y-60610644D01*
X92231500Y-60610646D01*
X92231500Y-60700356D01*
X92231500Y-60700358D01*
X92231501Y-60700359D01*
X92265830Y-60783237D01*
X92265832Y-60783240D01*
X92300445Y-60817853D01*
X92314797Y-60852501D01*
X92300445Y-60887149D01*
X92258830Y-60928764D01*
X92224501Y-61011642D01*
X92224500Y-61011644D01*
X92224500Y-61011646D01*
X92224500Y-61101356D01*
X92224500Y-61101358D01*
X92224501Y-61101359D01*
X92258830Y-61184237D01*
X92258832Y-61184240D01*
X92293945Y-61219353D01*
X92308297Y-61254001D01*
X92293945Y-61288649D01*
X92253830Y-61328764D01*
X92219501Y-61411642D01*
X92219500Y-61411644D01*
X89950500Y-61411644D01*
X89950500Y-59116644D01*
X90232500Y-59116644D01*
X90232500Y-59116646D01*
X90232500Y-59206356D01*
X90232500Y-59206358D01*
X90232501Y-59206359D01*
X90266830Y-59289237D01*
X90266832Y-59289240D01*
X90330261Y-59352669D01*
X90330263Y-59352670D01*
X90330264Y-59352671D01*
X90413145Y-59387001D01*
X90413147Y-59387001D01*
X90502853Y-59387001D01*
X90502855Y-59387001D01*
X90585736Y-59352671D01*
X90585737Y-59352669D01*
X90585739Y-59352669D01*
X90649168Y-59289240D01*
X90649168Y-59289238D01*
X90649170Y-59289237D01*
X90683500Y-59206356D01*
X90683500Y-59116646D01*
X90668638Y-59080765D01*
X90658617Y-59056571D01*
X90652848Y-59042644D01*
X92537500Y-59042644D01*
X92537500Y-59042646D01*
X92537500Y-59132356D01*
X92537500Y-59132358D01*
X92537501Y-59132359D01*
X92571830Y-59215237D01*
X92571832Y-59215240D01*
X92635261Y-59278669D01*
X92635263Y-59278670D01*
X92635264Y-59278671D01*
X92718145Y-59313001D01*
X92718147Y-59313001D01*
X92807853Y-59313001D01*
X92807855Y-59313001D01*
X92851751Y-59294819D01*
X92889251Y-59294819D01*
X92915770Y-59321337D01*
X92919500Y-59340089D01*
X92919500Y-65260248D01*
X92919500Y-65350754D01*
X92954135Y-65434369D01*
X92954136Y-65434370D01*
X92954136Y-65434371D01*
X94107135Y-66587369D01*
X94171129Y-66651364D01*
X94171130Y-66651364D01*
X94171132Y-66651366D01*
X94254747Y-66686001D01*
X94315501Y-66686001D01*
X94350149Y-66700353D01*
X94364501Y-66735001D01*
X94364501Y-66818399D01*
X94370331Y-66847714D01*
X94370331Y-66847715D01*
X94370332Y-66847716D01*
X94370332Y-66847717D01*
X94390776Y-66878314D01*
X94392543Y-66880958D01*
X94425787Y-66903170D01*
X94455101Y-66909001D01*
X96224898Y-66909000D01*
X96254213Y-66903170D01*
X96287457Y-66880958D01*
X96309669Y-66847714D01*
X96315500Y-66818400D01*
X96315499Y-66098603D01*
X96309669Y-66069288D01*
X96309667Y-66069285D01*
X96309667Y-66069284D01*
X96287457Y-66036044D01*
X96254212Y-66013831D01*
X96224901Y-66008001D01*
X94455105Y-66008001D01*
X94455104Y-66008001D01*
X94455102Y-66008002D01*
X94425787Y-66013832D01*
X94425786Y-66013832D01*
X94425784Y-66013833D01*
X94425783Y-66013833D01*
X94392543Y-66036043D01*
X94370330Y-66069287D01*
X94370330Y-66069288D01*
X94365350Y-66094324D01*
X94344514Y-66125507D01*
X94307732Y-66132822D01*
X94282644Y-66119412D01*
X93388852Y-65225620D01*
X93374500Y-65190972D01*
X93374500Y-64101219D01*
X93388852Y-64066571D01*
X93423500Y-64052219D01*
X93442246Y-64055947D01*
X93505145Y-64082001D01*
X93505147Y-64082001D01*
X93594853Y-64082001D01*
X93594855Y-64082001D01*
X93677736Y-64047671D01*
X93677737Y-64047669D01*
X93677739Y-64047669D01*
X93741168Y-63984240D01*
X93741168Y-63984238D01*
X93741170Y-63984237D01*
X93775500Y-63901356D01*
X93775500Y-63811646D01*
X93741170Y-63728765D01*
X93741169Y-63728764D01*
X93741168Y-63728762D01*
X93677739Y-63665333D01*
X93677736Y-63665331D01*
X93594858Y-63631002D01*
X93594856Y-63631001D01*
X93594855Y-63631001D01*
X93505145Y-63631001D01*
X93505143Y-63631001D01*
X93505141Y-63631002D01*
X93442251Y-63657052D01*
X93404748Y-63657052D01*
X93378230Y-63630533D01*
X93374500Y-63611782D01*
X93374500Y-63301219D01*
X93388852Y-63266571D01*
X93423500Y-63252219D01*
X93442246Y-63255947D01*
X93505145Y-63282001D01*
X93505147Y-63282001D01*
X93594853Y-63282001D01*
X93594855Y-63282001D01*
X93677736Y-63247671D01*
X93677737Y-63247669D01*
X93677739Y-63247669D01*
X93741168Y-63184240D01*
X93741168Y-63184238D01*
X93741170Y-63184237D01*
X93775500Y-63101356D01*
X93775500Y-63011646D01*
X93741170Y-62928765D01*
X93741169Y-62928764D01*
X93741168Y-62928762D01*
X93703555Y-62891149D01*
X93689203Y-62856501D01*
X93703555Y-62821853D01*
X93741168Y-62784240D01*
X93741168Y-62784238D01*
X93741170Y-62784237D01*
X93775500Y-62701356D01*
X93775500Y-62611646D01*
X93741170Y-62528765D01*
X93741169Y-62528764D01*
X93741168Y-62528762D01*
X93703555Y-62491149D01*
X93689203Y-62456501D01*
X93703555Y-62421853D01*
X93741168Y-62384240D01*
X93741168Y-62384238D01*
X93741170Y-62384237D01*
X93775500Y-62301356D01*
X93775500Y-62211646D01*
X93741170Y-62128765D01*
X93741169Y-62128764D01*
X93741168Y-62128762D01*
X93703555Y-62091149D01*
X93689203Y-62056501D01*
X93703555Y-62021853D01*
X93741168Y-61984240D01*
X93741168Y-61984238D01*
X93741170Y-61984237D01*
X93775500Y-61901356D01*
X93775500Y-61811646D01*
X93741170Y-61728765D01*
X93741169Y-61728764D01*
X93741168Y-61728762D01*
X93677739Y-61665333D01*
X93677736Y-61665331D01*
X93594858Y-61631002D01*
X93594856Y-61631001D01*
X93594855Y-61631001D01*
X93505145Y-61631001D01*
X93505143Y-61631001D01*
X93505141Y-61631002D01*
X93442251Y-61657052D01*
X93404748Y-61657052D01*
X93378230Y-61630533D01*
X93374500Y-61611782D01*
X93374500Y-60501219D01*
X93388852Y-60466571D01*
X93423500Y-60452219D01*
X93442246Y-60455947D01*
X93505145Y-60482001D01*
X93505147Y-60482001D01*
X93594853Y-60482001D01*
X93594855Y-60482001D01*
X93677736Y-60447671D01*
X93677737Y-60447669D01*
X93677739Y-60447669D01*
X93741168Y-60384240D01*
X93741168Y-60384238D01*
X93741170Y-60384237D01*
X93775500Y-60301356D01*
X93775500Y-60211646D01*
X93741170Y-60128765D01*
X93741169Y-60128764D01*
X93741168Y-60128762D01*
X93703555Y-60091149D01*
X93689203Y-60056501D01*
X93703555Y-60021853D01*
X93741168Y-59984240D01*
X93741168Y-59984238D01*
X93741170Y-59984237D01*
X93775500Y-59901356D01*
X93775500Y-59811646D01*
X93741170Y-59728765D01*
X93741169Y-59728764D01*
X93741168Y-59728762D01*
X93677739Y-59665333D01*
X93677736Y-59665331D01*
X93594858Y-59631002D01*
X93594856Y-59631001D01*
X93594855Y-59631001D01*
X93505145Y-59631001D01*
X93505143Y-59631001D01*
X93505141Y-59631002D01*
X93442251Y-59657052D01*
X93404748Y-59657052D01*
X93378230Y-59630533D01*
X93374500Y-59611782D01*
X93374500Y-59388030D01*
X93388852Y-59353382D01*
X93905852Y-58836382D01*
X93940500Y-58822030D01*
X93975148Y-58836382D01*
X93989500Y-58871030D01*
X93989500Y-65280248D01*
X93989500Y-65370754D01*
X94024135Y-65454369D01*
X94024136Y-65454370D01*
X94024136Y-65454371D01*
X94157135Y-65587369D01*
X94221129Y-65651364D01*
X94221130Y-65651364D01*
X94221132Y-65651366D01*
X94304747Y-65686001D01*
X94315501Y-65686001D01*
X94350149Y-65700353D01*
X94364501Y-65735001D01*
X94364501Y-65818399D01*
X94370331Y-65847714D01*
X94370331Y-65847715D01*
X94370332Y-65847716D01*
X94370332Y-65847717D01*
X94392542Y-65880957D01*
X94392543Y-65880958D01*
X94425787Y-65903170D01*
X94455101Y-65909001D01*
X96224898Y-65909000D01*
X96254213Y-65903170D01*
X96287457Y-65880958D01*
X96309669Y-65847714D01*
X96315500Y-65818400D01*
X96315499Y-65098603D01*
X96309669Y-65069288D01*
X96309667Y-65069285D01*
X96309667Y-65069284D01*
X96287457Y-65036044D01*
X96254212Y-65013831D01*
X96224904Y-65008001D01*
X94493500Y-65008001D01*
X94458852Y-64993649D01*
X94444500Y-64959001D01*
X94444500Y-64958000D01*
X94458852Y-64923352D01*
X94493497Y-64909000D01*
X96224898Y-64909000D01*
X96254213Y-64903170D01*
X96287457Y-64880958D01*
X96309669Y-64847714D01*
X96311515Y-64843258D01*
X96314381Y-64844445D01*
X96328306Y-64822128D01*
X96356787Y-64813001D01*
X96662865Y-64813001D01*
X96697513Y-64827353D01*
X98515909Y-66645749D01*
X98530261Y-66680397D01*
X98530261Y-66745004D01*
X98543093Y-66778128D01*
X98570844Y-66849761D01*
X98570844Y-66849762D01*
X98571880Y-66851070D01*
X98586551Y-66869592D01*
X98586553Y-66869594D01*
X98586554Y-66869595D01*
X99038902Y-67321942D01*
X99038909Y-67321948D01*
X99058737Y-67337655D01*
X99163497Y-67378240D01*
X99228104Y-67378240D01*
X99262752Y-67392592D01*
X99967332Y-68097172D01*
X99996919Y-68114254D01*
X100048166Y-68143842D01*
X100048168Y-68143842D01*
X100048169Y-68143843D01*
X100078222Y-68151896D01*
X100138327Y-68168002D01*
X100138329Y-68168002D01*
X100234669Y-68168002D01*
X100234685Y-68168001D01*
X111006673Y-68168001D01*
X111042735Y-68158337D01*
X111096832Y-68143842D01*
X111177668Y-68097172D01*
X112093671Y-67181169D01*
X112140342Y-67100332D01*
X112164501Y-67010172D01*
X112164501Y-66916829D01*
X112164501Y-66913833D01*
X112164500Y-66913815D01*
X112164500Y-64897077D01*
X112178852Y-64862429D01*
X112213500Y-64848077D01*
X112232246Y-64851805D01*
X112305145Y-64882001D01*
X112305147Y-64882001D01*
X112394853Y-64882001D01*
X112394855Y-64882001D01*
X112477736Y-64847671D01*
X112477737Y-64847669D01*
X112477739Y-64847669D01*
X112541168Y-64784240D01*
X112541168Y-64784238D01*
X112541170Y-64784237D01*
X112575500Y-64701356D01*
X112575500Y-64611646D01*
X112541170Y-64528765D01*
X112541169Y-64528764D01*
X112541168Y-64528762D01*
X112503555Y-64491149D01*
X112489203Y-64456501D01*
X112503555Y-64421853D01*
X112541168Y-64384240D01*
X112541168Y-64384238D01*
X112541170Y-64384237D01*
X112575500Y-64301356D01*
X112575500Y-64211646D01*
X112541170Y-64128765D01*
X112541169Y-64128764D01*
X112541168Y-64128762D01*
X112503555Y-64091149D01*
X112489203Y-64056501D01*
X112503555Y-64021853D01*
X112541168Y-63984240D01*
X112541168Y-63984238D01*
X112541170Y-63984237D01*
X112575500Y-63901356D01*
X112575500Y-63811646D01*
X112541170Y-63728765D01*
X112541169Y-63728764D01*
X112541168Y-63728762D01*
X112503555Y-63691149D01*
X112489203Y-63656501D01*
X112503555Y-63621853D01*
X112541168Y-63584240D01*
X112541168Y-63584238D01*
X112541170Y-63584237D01*
X112575500Y-63501356D01*
X112575500Y-63411646D01*
X112541170Y-63328765D01*
X112541169Y-63328764D01*
X112541168Y-63328762D01*
X112503555Y-63291149D01*
X112489203Y-63256501D01*
X112503555Y-63221853D01*
X112541168Y-63184240D01*
X112541168Y-63184238D01*
X112541170Y-63184237D01*
X112575500Y-63101356D01*
X112575500Y-63011646D01*
X112541170Y-62928765D01*
X112541169Y-62928764D01*
X112541168Y-62928762D01*
X112503555Y-62891149D01*
X112489203Y-62856501D01*
X112503555Y-62821853D01*
X112541168Y-62784240D01*
X112541168Y-62784238D01*
X112541170Y-62784237D01*
X112575500Y-62701356D01*
X112575500Y-62611646D01*
X112541170Y-62528765D01*
X112541169Y-62528764D01*
X112541168Y-62528762D01*
X112503555Y-62491149D01*
X112489203Y-62456501D01*
X112503555Y-62421853D01*
X112541168Y-62384240D01*
X112541168Y-62384238D01*
X112541170Y-62384237D01*
X112575500Y-62301356D01*
X112575500Y-62211646D01*
X112541170Y-62128765D01*
X112541169Y-62128764D01*
X112541168Y-62128762D01*
X112503555Y-62091149D01*
X112489203Y-62056501D01*
X112503555Y-62021853D01*
X112541168Y-61984240D01*
X112541168Y-61984238D01*
X112541170Y-61984237D01*
X112575500Y-61901356D01*
X112575500Y-61811646D01*
X112541170Y-61728765D01*
X112541169Y-61728764D01*
X112541168Y-61728762D01*
X112477739Y-61665333D01*
X112477736Y-61665331D01*
X112394858Y-61631002D01*
X112394856Y-61631001D01*
X112394855Y-61631001D01*
X112305145Y-61631001D01*
X112305143Y-61631001D01*
X112305141Y-61631002D01*
X112232251Y-61661194D01*
X112194748Y-61661194D01*
X112168230Y-61634675D01*
X112164500Y-61615924D01*
X112164500Y-58447644D01*
X113457500Y-58447644D01*
X113457500Y-58447646D01*
X113457500Y-58537356D01*
X113457500Y-58537358D01*
X113457501Y-58537359D01*
X113491830Y-58620237D01*
X113491832Y-58620240D01*
X113555261Y-58683669D01*
X113555263Y-58683670D01*
X113555264Y-58683671D01*
X113638145Y-58718001D01*
X113638147Y-58718001D01*
X113727853Y-58718001D01*
X113727855Y-58718001D01*
X113810736Y-58683671D01*
X113810737Y-58683669D01*
X113810739Y-58683669D01*
X113874168Y-58620240D01*
X113874168Y-58620238D01*
X113874170Y-58620237D01*
X113908500Y-58537356D01*
X113908500Y-58447646D01*
X113874170Y-58364765D01*
X113874169Y-58364764D01*
X113874168Y-58364762D01*
X113810739Y-58301333D01*
X113810736Y-58301331D01*
X113727858Y-58267002D01*
X113727856Y-58267001D01*
X113727855Y-58267001D01*
X113638145Y-58267001D01*
X113638143Y-58267001D01*
X113638141Y-58267002D01*
X113555263Y-58301331D01*
X113491830Y-58364764D01*
X113457501Y-58447642D01*
X113457500Y-58447644D01*
X112164500Y-58447644D01*
X112164500Y-58097077D01*
X112178852Y-58062429D01*
X112213500Y-58048077D01*
X112232246Y-58051805D01*
X112305145Y-58082001D01*
X112305147Y-58082001D01*
X112394853Y-58082001D01*
X112394855Y-58082001D01*
X112477736Y-58047671D01*
X112477737Y-58047669D01*
X112477739Y-58047669D01*
X112541168Y-57984240D01*
X112541168Y-57984238D01*
X112541170Y-57984237D01*
X112575500Y-57901356D01*
X112575500Y-57811646D01*
X112541170Y-57728765D01*
X112541169Y-57728764D01*
X112541168Y-57728762D01*
X112503555Y-57691149D01*
X112489203Y-57656501D01*
X112503555Y-57621853D01*
X112541168Y-57584240D01*
X112541168Y-57584238D01*
X112541170Y-57584237D01*
X112575500Y-57501356D01*
X112575500Y-57411646D01*
X112541170Y-57328765D01*
X112541169Y-57328764D01*
X112541168Y-57328762D01*
X112503555Y-57291149D01*
X112489203Y-57256501D01*
X112503555Y-57221853D01*
X112541168Y-57184240D01*
X112541168Y-57184238D01*
X112541170Y-57184237D01*
X112575500Y-57101356D01*
X112575500Y-57011646D01*
X112575499Y-57011644D01*
X114524500Y-57011644D01*
X114524500Y-57011646D01*
X114524500Y-57101356D01*
X114524500Y-57101358D01*
X114524501Y-57101359D01*
X114558830Y-57184237D01*
X114558832Y-57184240D01*
X114596445Y-57221853D01*
X114610797Y-57256501D01*
X114596445Y-57291149D01*
X114558830Y-57328764D01*
X114524501Y-57411642D01*
X114524500Y-57411644D01*
X114524500Y-57411646D01*
X114524500Y-57501356D01*
X114524500Y-57501358D01*
X114524501Y-57501359D01*
X114558830Y-57584237D01*
X114558832Y-57584240D01*
X114596445Y-57621853D01*
X114610797Y-57656501D01*
X114596445Y-57691149D01*
X114558830Y-57728764D01*
X114524501Y-57811642D01*
X114524500Y-57811644D01*
X114524500Y-57811646D01*
X114524500Y-57901356D01*
X114524500Y-57901358D01*
X114524501Y-57901359D01*
X114558830Y-57984237D01*
X114558832Y-57984240D01*
X114622261Y-58047669D01*
X114622263Y-58047670D01*
X114622264Y-58047671D01*
X114705145Y-58082001D01*
X114705147Y-58082001D01*
X114794853Y-58082001D01*
X114794855Y-58082001D01*
X114877736Y-58047671D01*
X114877737Y-58047669D01*
X114877739Y-58047669D01*
X114941168Y-57984240D01*
X114941168Y-57984238D01*
X114941170Y-57984237D01*
X114975500Y-57901356D01*
X114975500Y-57811646D01*
X114941170Y-57728765D01*
X114941169Y-57728764D01*
X114941168Y-57728762D01*
X114903555Y-57691149D01*
X114889203Y-57656501D01*
X114903555Y-57621853D01*
X114941168Y-57584240D01*
X114941168Y-57584238D01*
X114941170Y-57584237D01*
X114975500Y-57501356D01*
X114975500Y-57411646D01*
X114941170Y-57328765D01*
X114941169Y-57328764D01*
X114941168Y-57328762D01*
X114903555Y-57291149D01*
X114889203Y-57256501D01*
X114903555Y-57221853D01*
X114941168Y-57184240D01*
X114941168Y-57184238D01*
X114941170Y-57184237D01*
X114975500Y-57101356D01*
X114975500Y-57011646D01*
X114941170Y-56928765D01*
X114941169Y-56928764D01*
X114941168Y-56928762D01*
X114877739Y-56865333D01*
X114877736Y-56865331D01*
X114794858Y-56831002D01*
X114794856Y-56831001D01*
X114794855Y-56831001D01*
X114705145Y-56831001D01*
X114705143Y-56831001D01*
X114705141Y-56831002D01*
X114622263Y-56865331D01*
X114558830Y-56928764D01*
X114524501Y-57011642D01*
X114524500Y-57011644D01*
X112575499Y-57011644D01*
X112541170Y-56928765D01*
X112541169Y-56928764D01*
X112541168Y-56928762D01*
X112477739Y-56865333D01*
X112477736Y-56865331D01*
X112394858Y-56831002D01*
X112394856Y-56831001D01*
X112394855Y-56831001D01*
X112305145Y-56831001D01*
X112305143Y-56831001D01*
X112305141Y-56831002D01*
X112222263Y-56865331D01*
X112158830Y-56928764D01*
X112124501Y-57011642D01*
X112124500Y-57011644D01*
X112124500Y-57011646D01*
X112124500Y-57101356D01*
X112124500Y-57101358D01*
X112124501Y-57101359D01*
X112158830Y-57184237D01*
X112158832Y-57184240D01*
X112196445Y-57221853D01*
X112203284Y-57238365D01*
X112210761Y-57254612D01*
X112210398Y-57255538D01*
X112210797Y-57256501D01*
X112197756Y-57289787D01*
X112197108Y-57290486D01*
X112158830Y-57328765D01*
X112156526Y-57334326D01*
X112150569Y-57340762D01*
X112140880Y-57345220D01*
X112133335Y-57352757D01*
X112124513Y-57352751D01*
X112116499Y-57356440D01*
X112106494Y-57352741D01*
X112095832Y-57352735D01*
X112082663Y-57343930D01*
X112081324Y-57343435D01*
X112081057Y-57342856D01*
X112079962Y-57342124D01*
X111712670Y-56974832D01*
X111712664Y-56974827D01*
X111668636Y-56949408D01*
X111631832Y-56928160D01*
X111631829Y-56928159D01*
X111565717Y-56910443D01*
X111535964Y-56887612D01*
X111530342Y-56872673D01*
X111529669Y-56869288D01*
X111529668Y-56869286D01*
X111529667Y-56869284D01*
X111507457Y-56836044D01*
X111474212Y-56813831D01*
X111444901Y-56808001D01*
X109675105Y-56808001D01*
X109675104Y-56808001D01*
X109675102Y-56808002D01*
X109645787Y-56813832D01*
X109645786Y-56813832D01*
X109645784Y-56813833D01*
X109645783Y-56813833D01*
X109612543Y-56836043D01*
X109590330Y-56869287D01*
X109590330Y-56869288D01*
X109584500Y-56898596D01*
X109584500Y-57618395D01*
X109584501Y-57618399D01*
X109590331Y-57647714D01*
X109590331Y-57647715D01*
X109590332Y-57647716D01*
X109590332Y-57647717D01*
X109612542Y-57680957D01*
X109612543Y-57680958D01*
X109645787Y-57703170D01*
X109675101Y-57709001D01*
X111406500Y-57709000D01*
X111441148Y-57723352D01*
X111455500Y-57758000D01*
X111455500Y-65759001D01*
X111441148Y-65793649D01*
X111406500Y-65808001D01*
X109695105Y-65808001D01*
X109695104Y-65808001D01*
X109695102Y-65808002D01*
X109665787Y-65813832D01*
X109665786Y-65813832D01*
X109665784Y-65813833D01*
X109665783Y-65813833D01*
X109632543Y-65836043D01*
X109610330Y-65869287D01*
X109608485Y-65873744D01*
X109605618Y-65872556D01*
X109591694Y-65894874D01*
X109563213Y-65904001D01*
X103437997Y-65904001D01*
X103403349Y-65889649D01*
X101269852Y-63756152D01*
X101255500Y-63721504D01*
X101255500Y-63211644D01*
X106444500Y-63211644D01*
X106444500Y-63211646D01*
X106444500Y-63301356D01*
X106444500Y-63301358D01*
X106444501Y-63301359D01*
X106478830Y-63384237D01*
X106478832Y-63384240D01*
X106542261Y-63447669D01*
X106542263Y-63447670D01*
X106542264Y-63447671D01*
X106625145Y-63482001D01*
X106625147Y-63482001D01*
X106714853Y-63482001D01*
X106714855Y-63482001D01*
X106797736Y-63447671D01*
X106797737Y-63447669D01*
X106797739Y-63447669D01*
X106861168Y-63384240D01*
X106861168Y-63384238D01*
X106861170Y-63384237D01*
X106895500Y-63301356D01*
X106895500Y-63211646D01*
X106861170Y-63128765D01*
X106861169Y-63128764D01*
X106861168Y-63128762D01*
X106797739Y-63065333D01*
X106797736Y-63065331D01*
X106714858Y-63031002D01*
X106714856Y-63031001D01*
X106714855Y-63031001D01*
X106625145Y-63031001D01*
X106625143Y-63031001D01*
X106625141Y-63031002D01*
X106542263Y-63065331D01*
X106478830Y-63128764D01*
X106444501Y-63211642D01*
X106444500Y-63211644D01*
X101255500Y-63211644D01*
X101255500Y-58011644D01*
X106444500Y-58011644D01*
X106444500Y-58011646D01*
X106444500Y-58101356D01*
X106444500Y-58101358D01*
X106444501Y-58101359D01*
X106478830Y-58184237D01*
X106478832Y-58184240D01*
X106516445Y-58221853D01*
X106530797Y-58256501D01*
X106516445Y-58291149D01*
X106478830Y-58328764D01*
X106444501Y-58411642D01*
X106444500Y-58411644D01*
X106444500Y-58411646D01*
X106444500Y-58501356D01*
X106444500Y-58501358D01*
X106444501Y-58501359D01*
X106478830Y-58584237D01*
X106478832Y-58584240D01*
X106542261Y-58647669D01*
X106542263Y-58647670D01*
X106542264Y-58647671D01*
X106625145Y-58682001D01*
X106625147Y-58682001D01*
X106714853Y-58682001D01*
X106714855Y-58682001D01*
X106797736Y-58647671D01*
X106797737Y-58647669D01*
X106797739Y-58647669D01*
X106861168Y-58584240D01*
X106861168Y-58584238D01*
X106861170Y-58584237D01*
X106895500Y-58501356D01*
X106895500Y-58411646D01*
X106861170Y-58328765D01*
X106861169Y-58328764D01*
X106861168Y-58328762D01*
X106823555Y-58291149D01*
X106809203Y-58256501D01*
X106823555Y-58221853D01*
X106861168Y-58184240D01*
X106861168Y-58184238D01*
X106861170Y-58184237D01*
X106895500Y-58101356D01*
X106895500Y-58011646D01*
X106861170Y-57928765D01*
X106861169Y-57928764D01*
X106861168Y-57928762D01*
X106797739Y-57865333D01*
X106797736Y-57865331D01*
X106714858Y-57831002D01*
X106714856Y-57831001D01*
X106714855Y-57831001D01*
X106625145Y-57831001D01*
X106625143Y-57831001D01*
X106625141Y-57831002D01*
X106542263Y-57865331D01*
X106478830Y-57928764D01*
X106444501Y-58011642D01*
X106444500Y-58011644D01*
X101255500Y-58011644D01*
X101255500Y-57551001D01*
X101255395Y-57550472D01*
X101247469Y-57510627D01*
X101241637Y-57496547D01*
X101241637Y-57459045D01*
X101252259Y-57443147D01*
X101256388Y-57439018D01*
X101291170Y-57404237D01*
X101325500Y-57321356D01*
X101325500Y-57231646D01*
X101325499Y-57231644D01*
X101674500Y-57231644D01*
X101674500Y-57231646D01*
X101674500Y-57321356D01*
X101674500Y-57321358D01*
X101674501Y-57321359D01*
X101708830Y-57404237D01*
X101708832Y-57404240D01*
X101772261Y-57467669D01*
X101772263Y-57467670D01*
X101772264Y-57467671D01*
X101855145Y-57502001D01*
X101855147Y-57502001D01*
X101944853Y-57502001D01*
X101944855Y-57502001D01*
X102027736Y-57467671D01*
X102027737Y-57467669D01*
X102027739Y-57467669D01*
X102065352Y-57430056D01*
X102100000Y-57415704D01*
X102134648Y-57430056D01*
X102172261Y-57467669D01*
X102172263Y-57467670D01*
X102172264Y-57467671D01*
X102255145Y-57502001D01*
X102255147Y-57502001D01*
X102344853Y-57502001D01*
X102344855Y-57502001D01*
X102427736Y-57467671D01*
X102427737Y-57467669D01*
X102427739Y-57467669D01*
X102465352Y-57430056D01*
X102500000Y-57415704D01*
X102534648Y-57430056D01*
X102572261Y-57467669D01*
X102572263Y-57467670D01*
X102572264Y-57467671D01*
X102655145Y-57502001D01*
X102655147Y-57502001D01*
X102744853Y-57502001D01*
X102744855Y-57502001D01*
X102827736Y-57467671D01*
X102827737Y-57467669D01*
X102827739Y-57467669D01*
X102865352Y-57430056D01*
X102900000Y-57415704D01*
X102934648Y-57430056D01*
X102972261Y-57467669D01*
X102972263Y-57467670D01*
X102972264Y-57467671D01*
X103055145Y-57502001D01*
X103055147Y-57502001D01*
X103144853Y-57502001D01*
X103144855Y-57502001D01*
X103227736Y-57467671D01*
X103227737Y-57467669D01*
X103227739Y-57467669D01*
X103265352Y-57430056D01*
X103300000Y-57415704D01*
X103334648Y-57430056D01*
X103372261Y-57467669D01*
X103372263Y-57467670D01*
X103372264Y-57467671D01*
X103455145Y-57502001D01*
X103455147Y-57502001D01*
X103544853Y-57502001D01*
X103544855Y-57502001D01*
X103627736Y-57467671D01*
X103627737Y-57467669D01*
X103627739Y-57467669D01*
X103691168Y-57404240D01*
X103691168Y-57404238D01*
X103691170Y-57404237D01*
X103725500Y-57321356D01*
X103725500Y-57231646D01*
X103691170Y-57148765D01*
X103691169Y-57148764D01*
X103691168Y-57148762D01*
X103627739Y-57085333D01*
X103627736Y-57085331D01*
X103544858Y-57051002D01*
X103544856Y-57051001D01*
X103544855Y-57051001D01*
X103455145Y-57051001D01*
X103455143Y-57051001D01*
X103455141Y-57051002D01*
X103372263Y-57085331D01*
X103334648Y-57122946D01*
X103300000Y-57137298D01*
X103265352Y-57122946D01*
X103227739Y-57085333D01*
X103227736Y-57085331D01*
X103144858Y-57051002D01*
X103144856Y-57051001D01*
X103144855Y-57051001D01*
X103055145Y-57051001D01*
X103055143Y-57051001D01*
X103055141Y-57051002D01*
X102972263Y-57085331D01*
X102934648Y-57122946D01*
X102900000Y-57137298D01*
X102865352Y-57122946D01*
X102827739Y-57085333D01*
X102827736Y-57085331D01*
X102744858Y-57051002D01*
X102744856Y-57051001D01*
X102744855Y-57051001D01*
X102655145Y-57051001D01*
X102655143Y-57051001D01*
X102655141Y-57051002D01*
X102572263Y-57085331D01*
X102534648Y-57122946D01*
X102500000Y-57137298D01*
X102465352Y-57122946D01*
X102427739Y-57085333D01*
X102427736Y-57085331D01*
X102344858Y-57051002D01*
X102344856Y-57051001D01*
X102344855Y-57051001D01*
X102255145Y-57051001D01*
X102255143Y-57051001D01*
X102255141Y-57051002D01*
X102172263Y-57085331D01*
X102134648Y-57122946D01*
X102100000Y-57137298D01*
X102065352Y-57122946D01*
X102027739Y-57085333D01*
X102027736Y-57085331D01*
X101944858Y-57051002D01*
X101944856Y-57051001D01*
X101944855Y-57051001D01*
X101855145Y-57051001D01*
X101855143Y-57051001D01*
X101855141Y-57051002D01*
X101772263Y-57085331D01*
X101708830Y-57148764D01*
X101674501Y-57231642D01*
X101674500Y-57231644D01*
X101325499Y-57231644D01*
X101291170Y-57148765D01*
X101291169Y-57148764D01*
X101291168Y-57148762D01*
X101252259Y-57109853D01*
X101237907Y-57075205D01*
X101241636Y-57056456D01*
X101247469Y-57042375D01*
X101255500Y-57002001D01*
X101255500Y-56879440D01*
X106099500Y-56879440D01*
X106099500Y-57037561D01*
X106140422Y-57190283D01*
X106140423Y-57190287D01*
X106219475Y-57327210D01*
X106219478Y-57327214D01*
X106219480Y-57327217D01*
X106331284Y-57439021D01*
X106331287Y-57439022D01*
X106331290Y-57439025D01*
X106468213Y-57518077D01*
X106468215Y-57518077D01*
X106468216Y-57518078D01*
X106588665Y-57550352D01*
X106620939Y-57559000D01*
X106620940Y-57559001D01*
X106620943Y-57559001D01*
X106779060Y-57559001D01*
X106779060Y-57559000D01*
X106931784Y-57518078D01*
X106933075Y-57517333D01*
X107068709Y-57439025D01*
X107068708Y-57439025D01*
X107068716Y-57439021D01*
X107180520Y-57327217D01*
X107222438Y-57254612D01*
X107259576Y-57190287D01*
X107259576Y-57190286D01*
X107259577Y-57190285D01*
X107300499Y-57037561D01*
X107300500Y-57037561D01*
X107300500Y-56879441D01*
X107300499Y-56879440D01*
X108099500Y-56879440D01*
X108099500Y-57037561D01*
X108140422Y-57190283D01*
X108140423Y-57190287D01*
X108219475Y-57327210D01*
X108219478Y-57327214D01*
X108219480Y-57327217D01*
X108331284Y-57439021D01*
X108331287Y-57439022D01*
X108331290Y-57439025D01*
X108468213Y-57518077D01*
X108468215Y-57518077D01*
X108468216Y-57518078D01*
X108588665Y-57550352D01*
X108620939Y-57559000D01*
X108620940Y-57559001D01*
X108620943Y-57559001D01*
X108779060Y-57559001D01*
X108779060Y-57559000D01*
X108931784Y-57518078D01*
X108933075Y-57517333D01*
X109068709Y-57439025D01*
X109068708Y-57439025D01*
X109068716Y-57439021D01*
X109180520Y-57327217D01*
X109222438Y-57254612D01*
X109259576Y-57190287D01*
X109259576Y-57190286D01*
X109259577Y-57190285D01*
X109300499Y-57037561D01*
X109300500Y-57037561D01*
X109300500Y-56879441D01*
X109300499Y-56879440D01*
X109287910Y-56832458D01*
X109259577Y-56726717D01*
X109259576Y-56726716D01*
X109259576Y-56726714D01*
X109180524Y-56589791D01*
X109180521Y-56589788D01*
X109180520Y-56589785D01*
X109068716Y-56477981D01*
X109068713Y-56477979D01*
X109068709Y-56477976D01*
X108931786Y-56398924D01*
X108931782Y-56398923D01*
X108779060Y-56358001D01*
X108779057Y-56358001D01*
X108620943Y-56358001D01*
X108620940Y-56358001D01*
X108468217Y-56398923D01*
X108468213Y-56398924D01*
X108331290Y-56477976D01*
X108331281Y-56477983D01*
X108219482Y-56589782D01*
X108219475Y-56589791D01*
X108140423Y-56726714D01*
X108140422Y-56726718D01*
X108099500Y-56879440D01*
X107300499Y-56879440D01*
X107287910Y-56832458D01*
X107259577Y-56726717D01*
X107259576Y-56726716D01*
X107259576Y-56726714D01*
X107180524Y-56589791D01*
X107180521Y-56589788D01*
X107180520Y-56589785D01*
X107068716Y-56477981D01*
X107068713Y-56477979D01*
X107068709Y-56477976D01*
X106931786Y-56398924D01*
X106931782Y-56398923D01*
X106779060Y-56358001D01*
X106779057Y-56358001D01*
X106620943Y-56358001D01*
X106620940Y-56358001D01*
X106468217Y-56398923D01*
X106468213Y-56398924D01*
X106331290Y-56477976D01*
X106331281Y-56477983D01*
X106219482Y-56589782D01*
X106219475Y-56589791D01*
X106140423Y-56726714D01*
X106140422Y-56726718D01*
X106099500Y-56879440D01*
X101255500Y-56879440D01*
X101255500Y-56143644D01*
X102974500Y-56143644D01*
X102974500Y-56143646D01*
X102974500Y-56233356D01*
X102974500Y-56233358D01*
X102974501Y-56233359D01*
X103008830Y-56316237D01*
X103008832Y-56316240D01*
X103072261Y-56379669D01*
X103072263Y-56379670D01*
X103072264Y-56379671D01*
X103155145Y-56414001D01*
X103155147Y-56414001D01*
X103244853Y-56414001D01*
X103244855Y-56414001D01*
X103327736Y-56379671D01*
X103327737Y-56379669D01*
X103327739Y-56379669D01*
X103391168Y-56316240D01*
X103391168Y-56316238D01*
X103391170Y-56316237D01*
X103425500Y-56233356D01*
X103425500Y-56143646D01*
X103391170Y-56060765D01*
X103391169Y-56060764D01*
X103391168Y-56060762D01*
X103327739Y-55997333D01*
X103327736Y-55997331D01*
X103244858Y-55963002D01*
X103244856Y-55963001D01*
X103244855Y-55963001D01*
X103155145Y-55963001D01*
X103155143Y-55963001D01*
X103155141Y-55963002D01*
X103072263Y-55997331D01*
X103008830Y-56060764D01*
X102974501Y-56143642D01*
X102974500Y-56143644D01*
X101255500Y-56143644D01*
X101255500Y-55278797D01*
X101255439Y-55278493D01*
X101254500Y-55268943D01*
X101254500Y-55061828D01*
X101240076Y-55008001D01*
X101230341Y-54971669D01*
X101188157Y-54898603D01*
X101183673Y-54890836D01*
X101183668Y-54890830D01*
X100687670Y-54394832D01*
X100687664Y-54394827D01*
X100623877Y-54358001D01*
X100606832Y-54348160D01*
X100606829Y-54348159D01*
X100516673Y-54324001D01*
X100516671Y-54324001D01*
X99716671Y-54324001D01*
X99050150Y-54324001D01*
X99050134Y-54324000D01*
X99047137Y-54324000D01*
X98953795Y-54324000D01*
X98928917Y-54330666D01*
X98888327Y-54341543D01*
X98888323Y-54341544D01*
X98885388Y-54342331D01*
X98863634Y-54348160D01*
X98846589Y-54358001D01*
X98843665Y-54359688D01*
X98843665Y-54359689D01*
X98782801Y-54394827D01*
X98782795Y-54394832D01*
X98087979Y-55089649D01*
X98053331Y-55104001D01*
X96336787Y-55104001D01*
X96302139Y-55089649D01*
X96292825Y-55073200D01*
X96291514Y-55073744D01*
X96289667Y-55069284D01*
X96267457Y-55036044D01*
X96234212Y-55013831D01*
X96204904Y-55008001D01*
X96204899Y-55008001D01*
X94493500Y-55008001D01*
X94458852Y-54993649D01*
X94444500Y-54959001D01*
X94444500Y-54488644D01*
X97174500Y-54488644D01*
X97174500Y-54488646D01*
X97174500Y-54578356D01*
X97174500Y-54578358D01*
X97174501Y-54578359D01*
X97208830Y-54661237D01*
X97208832Y-54661240D01*
X97272261Y-54724669D01*
X97272263Y-54724670D01*
X97272264Y-54724671D01*
X97355145Y-54759001D01*
X97355147Y-54759001D01*
X97444853Y-54759001D01*
X97444855Y-54759001D01*
X97527736Y-54724671D01*
X97527737Y-54724669D01*
X97527739Y-54724669D01*
X97591168Y-54661240D01*
X97591168Y-54661238D01*
X97591170Y-54661237D01*
X97625500Y-54578356D01*
X97625500Y-54488646D01*
X97591170Y-54405765D01*
X97591169Y-54405764D01*
X97591168Y-54405762D01*
X97527739Y-54342333D01*
X97527736Y-54342331D01*
X97444858Y-54308002D01*
X97444856Y-54308001D01*
X97444855Y-54308001D01*
X97355145Y-54308001D01*
X97355143Y-54308001D01*
X97355141Y-54308002D01*
X97272263Y-54342331D01*
X97208830Y-54405764D01*
X97174501Y-54488642D01*
X97174500Y-54488644D01*
X94444500Y-54488644D01*
X94444500Y-54181030D01*
X94451702Y-54163644D01*
X100964500Y-54163644D01*
X100964500Y-54163646D01*
X100964500Y-54253356D01*
X100964500Y-54253358D01*
X100964501Y-54253359D01*
X100998830Y-54336237D01*
X100998832Y-54336240D01*
X101062261Y-54399669D01*
X101062263Y-54399670D01*
X101062264Y-54399671D01*
X101145145Y-54434001D01*
X101145147Y-54434001D01*
X101234853Y-54434001D01*
X101234855Y-54434001D01*
X101317736Y-54399671D01*
X101317737Y-54399669D01*
X101317739Y-54399669D01*
X101381168Y-54336240D01*
X101381168Y-54336238D01*
X101381170Y-54336237D01*
X101415500Y-54253356D01*
X101415500Y-54163646D01*
X101381170Y-54080765D01*
X101381169Y-54080764D01*
X101381168Y-54080762D01*
X101317739Y-54017333D01*
X101317736Y-54017331D01*
X101234858Y-53983002D01*
X101234856Y-53983001D01*
X101234855Y-53983001D01*
X101145145Y-53983001D01*
X101145143Y-53983001D01*
X101145141Y-53983002D01*
X101062263Y-54017331D01*
X100998830Y-54080764D01*
X100964501Y-54163642D01*
X100964500Y-54163644D01*
X94451702Y-54163644D01*
X94458852Y-54146382D01*
X94481062Y-54124172D01*
X95241591Y-53363644D01*
X97174500Y-53363644D01*
X97174500Y-53363646D01*
X97174500Y-53453356D01*
X97174500Y-53453358D01*
X97174501Y-53453359D01*
X97208830Y-53536237D01*
X97208832Y-53536240D01*
X97272261Y-53599669D01*
X97272263Y-53599670D01*
X97272264Y-53599671D01*
X97355145Y-53634001D01*
X97355147Y-53634001D01*
X97444853Y-53634001D01*
X97444855Y-53634001D01*
X97527736Y-53599671D01*
X97527737Y-53599669D01*
X97527739Y-53599669D01*
X97591168Y-53536240D01*
X97591168Y-53536238D01*
X97591170Y-53536237D01*
X97625500Y-53453356D01*
X97625500Y-53363646D01*
X97591170Y-53280765D01*
X97591169Y-53280764D01*
X97591168Y-53280762D01*
X97527739Y-53217333D01*
X97527736Y-53217331D01*
X97444858Y-53183002D01*
X97444856Y-53183001D01*
X97444855Y-53183001D01*
X97355145Y-53183001D01*
X97355143Y-53183001D01*
X97355141Y-53183002D01*
X97272263Y-53217331D01*
X97208830Y-53280764D01*
X97174501Y-53363642D01*
X97174500Y-53363644D01*
X95241591Y-53363644D01*
X95281063Y-53324172D01*
X95527882Y-53077353D01*
X95562530Y-53063001D01*
X101896747Y-53063001D01*
X102160425Y-53063001D01*
X102195073Y-53077353D01*
X105160089Y-56042369D01*
X105224083Y-56106364D01*
X105224084Y-56106364D01*
X105224086Y-56106366D01*
X105307701Y-56141001D01*
X109040471Y-56141001D01*
X109075119Y-56155353D01*
X109371128Y-56451364D01*
X109371130Y-56451365D01*
X109371132Y-56451367D01*
X109430255Y-56475855D01*
X109430256Y-56475856D01*
X109430257Y-56475856D01*
X109454747Y-56486001D01*
X109454748Y-56486001D01*
X109535501Y-56486001D01*
X109570149Y-56500353D01*
X109584501Y-56535001D01*
X109584501Y-56618399D01*
X109590331Y-56647714D01*
X109590331Y-56647715D01*
X109590332Y-56647716D01*
X109590332Y-56647717D01*
X109612542Y-56680957D01*
X109612543Y-56680958D01*
X109645787Y-56703170D01*
X109675101Y-56709001D01*
X111444898Y-56709000D01*
X111474213Y-56703170D01*
X111507457Y-56680958D01*
X111529669Y-56647714D01*
X111535500Y-56618400D01*
X111535499Y-55898603D01*
X111529669Y-55869288D01*
X111529667Y-55869285D01*
X111529667Y-55869284D01*
X111507457Y-55836044D01*
X111474212Y-55813831D01*
X111444901Y-55808001D01*
X109675105Y-55808001D01*
X109675104Y-55808001D01*
X109675102Y-55808002D01*
X109645787Y-55813832D01*
X109645786Y-55813832D01*
X109645784Y-55813833D01*
X109645783Y-55813833D01*
X109612543Y-55836043D01*
X109590330Y-55869287D01*
X109590330Y-55869288D01*
X109584500Y-55898596D01*
X109584500Y-55902971D01*
X109570148Y-55937619D01*
X109535500Y-55951971D01*
X109500852Y-55937619D01*
X109331381Y-55768148D01*
X109317029Y-55733500D01*
X109331381Y-55698852D01*
X109411837Y-55618396D01*
X109500854Y-55529379D01*
X109535501Y-55515028D01*
X109570149Y-55529380D01*
X109584501Y-55564028D01*
X109584501Y-55618399D01*
X109590331Y-55647714D01*
X109590331Y-55647715D01*
X109590332Y-55647716D01*
X109590332Y-55647717D01*
X109612542Y-55680957D01*
X109612543Y-55680958D01*
X109645787Y-55703170D01*
X109675101Y-55709001D01*
X111444898Y-55709000D01*
X111474213Y-55703170D01*
X111507457Y-55680958D01*
X111529669Y-55647714D01*
X111535500Y-55618400D01*
X111535499Y-55034644D01*
X113274500Y-55034644D01*
X113274500Y-55034646D01*
X113274500Y-55124356D01*
X113274500Y-55124358D01*
X113274501Y-55124359D01*
X113308830Y-55207237D01*
X113308832Y-55207240D01*
X113372261Y-55270669D01*
X113372263Y-55270670D01*
X113372264Y-55270671D01*
X113455145Y-55305001D01*
X113455147Y-55305001D01*
X113544853Y-55305001D01*
X113544855Y-55305001D01*
X113627736Y-55270671D01*
X113627737Y-55270669D01*
X113627739Y-55270669D01*
X113691168Y-55207240D01*
X113691168Y-55207238D01*
X113691170Y-55207237D01*
X113725500Y-55124356D01*
X113725500Y-55034646D01*
X113691170Y-54951765D01*
X113691169Y-54951764D01*
X113691168Y-54951762D01*
X113627739Y-54888333D01*
X113627736Y-54888331D01*
X113544858Y-54854002D01*
X113544856Y-54854001D01*
X113544855Y-54854001D01*
X113455145Y-54854001D01*
X113455143Y-54854001D01*
X113455141Y-54854002D01*
X113372263Y-54888331D01*
X113308830Y-54951764D01*
X113274501Y-55034642D01*
X113274500Y-55034644D01*
X111535499Y-55034644D01*
X111535499Y-54898603D01*
X111529669Y-54869288D01*
X111529667Y-54869285D01*
X111529667Y-54869284D01*
X111507457Y-54836044D01*
X111474212Y-54813831D01*
X111444901Y-54808001D01*
X109675105Y-54808001D01*
X109675104Y-54808001D01*
X109675102Y-54808002D01*
X109645787Y-54813832D01*
X109645786Y-54813832D01*
X109645784Y-54813833D01*
X109645783Y-54813833D01*
X109612543Y-54836043D01*
X109590330Y-54869287D01*
X109590330Y-54869288D01*
X109584500Y-54898596D01*
X109584500Y-54982001D01*
X109570148Y-55016649D01*
X109535500Y-55031001D01*
X109404745Y-55031001D01*
X109335475Y-55059694D01*
X109330321Y-55061830D01*
X109321130Y-55065637D01*
X109321129Y-55065637D01*
X109070119Y-55316649D01*
X109035471Y-55331001D01*
X105614530Y-55331001D01*
X105579882Y-55316649D01*
X103001877Y-52738644D01*
X104274500Y-52738644D01*
X104274500Y-52738646D01*
X104274500Y-52828356D01*
X104274500Y-52828358D01*
X104274501Y-52828359D01*
X104308830Y-52911237D01*
X104308832Y-52911240D01*
X104372261Y-52974669D01*
X104372263Y-52974670D01*
X104372264Y-52974671D01*
X104455145Y-53009001D01*
X104455147Y-53009001D01*
X104544853Y-53009001D01*
X104544855Y-53009001D01*
X104627736Y-52974671D01*
X104627737Y-52974669D01*
X104627739Y-52974669D01*
X104691168Y-52911240D01*
X104691168Y-52911238D01*
X104691170Y-52911237D01*
X104725500Y-52828356D01*
X104725500Y-52738646D01*
X104725499Y-52738644D01*
X105774500Y-52738644D01*
X105774500Y-52738646D01*
X105774500Y-52828356D01*
X105774500Y-52828358D01*
X105774501Y-52828359D01*
X105808830Y-52911237D01*
X105808832Y-52911240D01*
X105872261Y-52974669D01*
X105872263Y-52974670D01*
X105872264Y-52974671D01*
X105955145Y-53009001D01*
X105955147Y-53009001D01*
X106044853Y-53009001D01*
X106044855Y-53009001D01*
X106127736Y-52974671D01*
X106127737Y-52974669D01*
X106127739Y-52974669D01*
X106191168Y-52911240D01*
X106191168Y-52911238D01*
X106191170Y-52911237D01*
X106225500Y-52828356D01*
X106225500Y-52738646D01*
X106225499Y-52738644D01*
X107274500Y-52738644D01*
X107274500Y-52738646D01*
X107274500Y-52828356D01*
X107274500Y-52828358D01*
X107274501Y-52828359D01*
X107308830Y-52911237D01*
X107308832Y-52911240D01*
X107372261Y-52974669D01*
X107372263Y-52974670D01*
X107372264Y-52974671D01*
X107455145Y-53009001D01*
X107455147Y-53009001D01*
X107544853Y-53009001D01*
X107544855Y-53009001D01*
X107627736Y-52974671D01*
X107627737Y-52974669D01*
X107627739Y-52974669D01*
X107691168Y-52911240D01*
X107691168Y-52911238D01*
X107691170Y-52911237D01*
X107725500Y-52828356D01*
X107725500Y-52738646D01*
X107725499Y-52738644D01*
X108774500Y-52738644D01*
X108774500Y-52738646D01*
X108774500Y-52828356D01*
X108774500Y-52828358D01*
X108774501Y-52828359D01*
X108808830Y-52911237D01*
X108808832Y-52911240D01*
X108872261Y-52974669D01*
X108872263Y-52974670D01*
X108872264Y-52974671D01*
X108955145Y-53009001D01*
X108955147Y-53009001D01*
X109044853Y-53009001D01*
X109044855Y-53009001D01*
X109127736Y-52974671D01*
X109127737Y-52974669D01*
X109127739Y-52974669D01*
X109191168Y-52911240D01*
X109191168Y-52911238D01*
X109191170Y-52911237D01*
X109225500Y-52828356D01*
X109225500Y-52738646D01*
X109225499Y-52738644D01*
X110274500Y-52738644D01*
X110274500Y-52738646D01*
X110274500Y-52828356D01*
X110274500Y-52828358D01*
X110274501Y-52828359D01*
X110308830Y-52911237D01*
X110308832Y-52911240D01*
X110372261Y-52974669D01*
X110372263Y-52974670D01*
X110372264Y-52974671D01*
X110455145Y-53009001D01*
X110455147Y-53009001D01*
X110544853Y-53009001D01*
X110544855Y-53009001D01*
X110627736Y-52974671D01*
X110627737Y-52974669D01*
X110627739Y-52974669D01*
X110691168Y-52911240D01*
X110691168Y-52911238D01*
X110691170Y-52911237D01*
X110725500Y-52828356D01*
X110725500Y-52738646D01*
X110725499Y-52738644D01*
X111774500Y-52738644D01*
X111774500Y-52738646D01*
X111774500Y-52828356D01*
X111774500Y-52828358D01*
X111774501Y-52828359D01*
X111808830Y-52911237D01*
X111808832Y-52911240D01*
X111872261Y-52974669D01*
X111872263Y-52974670D01*
X111872264Y-52974671D01*
X111955145Y-53009001D01*
X111955147Y-53009001D01*
X112044853Y-53009001D01*
X112044855Y-53009001D01*
X112127736Y-52974671D01*
X112127737Y-52974669D01*
X112127739Y-52974669D01*
X112191168Y-52911240D01*
X112191168Y-52911238D01*
X112191170Y-52911237D01*
X112225500Y-52828356D01*
X112225500Y-52738646D01*
X112191170Y-52655765D01*
X112191169Y-52655764D01*
X112191168Y-52655762D01*
X112127739Y-52592333D01*
X112127736Y-52592331D01*
X112044858Y-52558002D01*
X112044856Y-52558001D01*
X112044855Y-52558001D01*
X111955145Y-52558001D01*
X111955143Y-52558001D01*
X111955141Y-52558002D01*
X111872263Y-52592331D01*
X111808830Y-52655764D01*
X111774501Y-52738642D01*
X111774500Y-52738644D01*
X110725499Y-52738644D01*
X110691170Y-52655765D01*
X110691169Y-52655764D01*
X110691168Y-52655762D01*
X110627739Y-52592333D01*
X110627736Y-52592331D01*
X110544858Y-52558002D01*
X110544856Y-52558001D01*
X110544855Y-52558001D01*
X110455145Y-52558001D01*
X110455143Y-52558001D01*
X110455141Y-52558002D01*
X110372263Y-52592331D01*
X110308830Y-52655764D01*
X110274501Y-52738642D01*
X110274500Y-52738644D01*
X109225499Y-52738644D01*
X109191170Y-52655765D01*
X109191169Y-52655764D01*
X109191168Y-52655762D01*
X109127739Y-52592333D01*
X109127736Y-52592331D01*
X109044858Y-52558002D01*
X109044856Y-52558001D01*
X109044855Y-52558001D01*
X108955145Y-52558001D01*
X108955143Y-52558001D01*
X108955141Y-52558002D01*
X108872263Y-52592331D01*
X108808830Y-52655764D01*
X108774501Y-52738642D01*
X108774500Y-52738644D01*
X107725499Y-52738644D01*
X107691170Y-52655765D01*
X107691169Y-52655764D01*
X107691168Y-52655762D01*
X107627739Y-52592333D01*
X107627736Y-52592331D01*
X107544858Y-52558002D01*
X107544856Y-52558001D01*
X107544855Y-52558001D01*
X107455145Y-52558001D01*
X107455143Y-52558001D01*
X107455141Y-52558002D01*
X107372263Y-52592331D01*
X107308830Y-52655764D01*
X107274501Y-52738642D01*
X107274500Y-52738644D01*
X106225499Y-52738644D01*
X106191170Y-52655765D01*
X106191169Y-52655764D01*
X106191168Y-52655762D01*
X106127739Y-52592333D01*
X106127736Y-52592331D01*
X106044858Y-52558002D01*
X106044856Y-52558001D01*
X106044855Y-52558001D01*
X105955145Y-52558001D01*
X105955143Y-52558001D01*
X105955141Y-52558002D01*
X105872263Y-52592331D01*
X105808830Y-52655764D01*
X105774501Y-52738642D01*
X105774500Y-52738644D01*
X104725499Y-52738644D01*
X104691170Y-52655765D01*
X104691169Y-52655764D01*
X104691168Y-52655762D01*
X104627739Y-52592333D01*
X104627736Y-52592331D01*
X104544858Y-52558002D01*
X104544856Y-52558001D01*
X104544855Y-52558001D01*
X104455145Y-52558001D01*
X104455143Y-52558001D01*
X104455141Y-52558002D01*
X104372263Y-52592331D01*
X104308830Y-52655764D01*
X104274501Y-52738642D01*
X104274500Y-52738644D01*
X103001877Y-52738644D01*
X102502871Y-52239638D01*
X102502869Y-52239637D01*
X102502868Y-52239636D01*
X102453889Y-52219347D01*
X102419254Y-52205001D01*
X102419253Y-52205001D01*
X101039107Y-52205001D01*
X101029549Y-52204060D01*
X101029253Y-52204001D01*
X100938747Y-52204001D01*
X100938746Y-52204001D01*
X100934011Y-52204943D01*
X100933838Y-52204075D01*
X100924171Y-52206001D01*
X93804745Y-52206001D01*
X93735475Y-52234694D01*
X93723542Y-52239638D01*
X93721130Y-52240637D01*
X93721129Y-52240637D01*
X93271132Y-52690636D01*
X93207136Y-52754630D01*
X93207136Y-52754631D01*
X93172500Y-52838246D01*
X93172500Y-52838248D01*
X93172500Y-53563248D01*
X93172500Y-53653754D01*
X93207135Y-53737369D01*
X93207136Y-53737370D01*
X93207136Y-53737371D01*
X93620148Y-54150382D01*
X93634500Y-54185030D01*
X93634500Y-58443971D01*
X93620148Y-58478619D01*
X93060160Y-59038607D01*
X93025512Y-59052959D01*
X92990864Y-59038607D01*
X92980242Y-59022710D01*
X92978014Y-59017331D01*
X92954170Y-58959765D01*
X92954169Y-58959764D01*
X92954168Y-58959762D01*
X92890739Y-58896333D01*
X92890736Y-58896331D01*
X92807858Y-58862002D01*
X92807856Y-58862001D01*
X92807855Y-58862001D01*
X92718145Y-58862001D01*
X92718143Y-58862001D01*
X92718141Y-58862002D01*
X92635263Y-58896331D01*
X92571830Y-58959764D01*
X92537501Y-59042642D01*
X92537500Y-59042644D01*
X90652848Y-59042644D01*
X90649169Y-59033763D01*
X90585739Y-58970333D01*
X90585736Y-58970331D01*
X90502858Y-58936002D01*
X90502856Y-58936001D01*
X90502855Y-58936001D01*
X90413145Y-58936001D01*
X90413143Y-58936001D01*
X90413141Y-58936002D01*
X90330263Y-58970331D01*
X90266830Y-59033764D01*
X90232501Y-59116642D01*
X90232500Y-59116644D01*
X89950500Y-59116644D01*
X89950500Y-58691644D01*
X92100500Y-58691644D01*
X92100500Y-58691646D01*
X92100500Y-58781356D01*
X92100500Y-58781358D01*
X92100501Y-58781359D01*
X92134830Y-58864237D01*
X92134832Y-58864240D01*
X92198261Y-58927669D01*
X92198263Y-58927670D01*
X92198264Y-58927671D01*
X92281145Y-58962001D01*
X92281147Y-58962001D01*
X92370853Y-58962001D01*
X92370855Y-58962001D01*
X92453736Y-58927671D01*
X92453737Y-58927669D01*
X92453739Y-58927669D01*
X92517168Y-58864240D01*
X92517168Y-58864238D01*
X92517170Y-58864237D01*
X92551500Y-58781356D01*
X92551500Y-58691646D01*
X92517170Y-58608765D01*
X92517169Y-58608764D01*
X92517168Y-58608762D01*
X92453739Y-58545333D01*
X92453736Y-58545331D01*
X92370858Y-58511002D01*
X92370856Y-58511001D01*
X92370855Y-58511001D01*
X92281145Y-58511001D01*
X92281143Y-58511001D01*
X92281141Y-58511002D01*
X92198263Y-58545331D01*
X92134830Y-58608764D01*
X92100501Y-58691642D01*
X92100500Y-58691644D01*
X89950500Y-58691644D01*
X89950500Y-57811644D01*
X92881502Y-57811644D01*
X92881502Y-57811646D01*
X92881502Y-57901356D01*
X92881502Y-57901358D01*
X92881503Y-57901359D01*
X92915832Y-57984237D01*
X92915834Y-57984240D01*
X92979263Y-58047669D01*
X92979265Y-58047670D01*
X92979266Y-58047671D01*
X93062147Y-58082001D01*
X93062149Y-58082001D01*
X93151855Y-58082001D01*
X93151857Y-58082001D01*
X93234738Y-58047671D01*
X93234739Y-58047669D01*
X93234741Y-58047669D01*
X93298170Y-57984240D01*
X93298170Y-57984238D01*
X93298172Y-57984237D01*
X93332502Y-57901356D01*
X93332502Y-57811646D01*
X93298172Y-57728765D01*
X93298171Y-57728764D01*
X93298170Y-57728762D01*
X93234741Y-57665333D01*
X93234738Y-57665331D01*
X93151860Y-57631002D01*
X93151858Y-57631001D01*
X93151857Y-57631001D01*
X93062147Y-57631001D01*
X93062145Y-57631001D01*
X93062143Y-57631002D01*
X92979265Y-57665331D01*
X92915832Y-57728764D01*
X92881503Y-57811642D01*
X92881502Y-57811644D01*
X89950500Y-57811644D01*
X89950500Y-56911642D01*
X92216500Y-56911642D01*
X92216500Y-56911644D01*
X92216500Y-57001354D01*
X92216500Y-57001356D01*
X92216501Y-57001357D01*
X92250830Y-57084235D01*
X92250832Y-57084238D01*
X92314261Y-57147667D01*
X92314263Y-57147668D01*
X92314264Y-57147669D01*
X92397145Y-57181999D01*
X92397147Y-57181999D01*
X92486853Y-57181999D01*
X92486855Y-57181999D01*
X92569736Y-57147669D01*
X92633170Y-57084235D01*
X92633624Y-57083781D01*
X92668272Y-57069429D01*
X92702920Y-57083781D01*
X92704045Y-57085151D01*
X92770259Y-57151365D01*
X92770261Y-57151366D01*
X92770262Y-57151367D01*
X92853143Y-57185697D01*
X92853145Y-57185697D01*
X92942851Y-57185697D01*
X92942853Y-57185697D01*
X93025734Y-57151367D01*
X93025735Y-57151365D01*
X93025737Y-57151365D01*
X93089166Y-57087936D01*
X93089166Y-57087934D01*
X93089168Y-57087933D01*
X93123498Y-57005052D01*
X93123498Y-56915342D01*
X93089168Y-56832461D01*
X93089167Y-56832460D01*
X93089166Y-56832458D01*
X93025737Y-56769029D01*
X93025734Y-56769027D01*
X92942856Y-56734698D01*
X92942854Y-56734697D01*
X92942853Y-56734697D01*
X92853143Y-56734697D01*
X92853141Y-56734697D01*
X92853139Y-56734698D01*
X92770261Y-56769027D01*
X92770258Y-56769029D01*
X92706373Y-56832914D01*
X92671725Y-56847266D01*
X92637077Y-56832914D01*
X92635953Y-56831545D01*
X92569739Y-56765331D01*
X92569736Y-56765329D01*
X92486858Y-56731000D01*
X92486856Y-56730999D01*
X92486855Y-56730999D01*
X92397145Y-56730999D01*
X92397143Y-56730999D01*
X92397141Y-56731000D01*
X92314263Y-56765329D01*
X92250830Y-56828762D01*
X92216501Y-56911640D01*
X92216500Y-56911642D01*
X89950500Y-56911642D01*
X89950500Y-56070644D01*
X92129500Y-56070644D01*
X92129500Y-56070646D01*
X92129500Y-56160356D01*
X92129500Y-56160358D01*
X92129501Y-56160359D01*
X92163830Y-56243237D01*
X92163832Y-56243240D01*
X92227261Y-56306669D01*
X92227263Y-56306670D01*
X92227264Y-56306671D01*
X92310145Y-56341001D01*
X92310147Y-56341001D01*
X92399853Y-56341001D01*
X92399855Y-56341001D01*
X92482736Y-56306671D01*
X92482737Y-56306669D01*
X92482739Y-56306669D01*
X92546168Y-56243240D01*
X92546168Y-56243238D01*
X92546170Y-56243237D01*
X92580500Y-56160356D01*
X92580500Y-56070646D01*
X92546170Y-55987765D01*
X92546169Y-55987764D01*
X92546168Y-55987762D01*
X92482739Y-55924333D01*
X92482736Y-55924331D01*
X92399858Y-55890002D01*
X92399856Y-55890001D01*
X92399855Y-55890001D01*
X92310145Y-55890001D01*
X92310143Y-55890001D01*
X92310141Y-55890002D01*
X92227263Y-55924331D01*
X92163830Y-55987764D01*
X92129501Y-56070642D01*
X92129500Y-56070644D01*
X89950500Y-56070644D01*
X89950500Y-51908001D01*
X89964852Y-51873353D01*
X89999500Y-51859001D01*
X115900500Y-51859001D01*
X115935148Y-51873353D01*
G37*
%TD.AperFunction*%
%TD*%
%TA.AperFunction,Conductor*%
%TO.N,VCC*%
G36*
X100584352Y-54692853D02*
G01*
X101135648Y-55244149D01*
X101150000Y-55278797D01*
X101150000Y-57002001D01*
X101135648Y-57036649D01*
X101101000Y-57051001D01*
X101055145Y-57051001D01*
X101055143Y-57051001D01*
X101055141Y-57051002D01*
X100972263Y-57085331D01*
X100908830Y-57148764D01*
X100874501Y-57231642D01*
X100874500Y-57231644D01*
X100874500Y-57231646D01*
X100874500Y-57321356D01*
X100874500Y-57321358D01*
X100874501Y-57321359D01*
X100908830Y-57404237D01*
X100908832Y-57404240D01*
X100972261Y-57467669D01*
X100972263Y-57467670D01*
X100972264Y-57467671D01*
X101055145Y-57502001D01*
X101055147Y-57502001D01*
X101101000Y-57502001D01*
X101135648Y-57516353D01*
X101150000Y-57551001D01*
X101150000Y-63785501D01*
X103339352Y-65974853D01*
X103353704Y-66009501D01*
X103339352Y-66044149D01*
X103304704Y-66058501D01*
X102550000Y-66058501D01*
X102112352Y-66496149D01*
X102077704Y-66510501D01*
X100522296Y-66510501D01*
X100487648Y-66496149D01*
X98728143Y-64736644D01*
X99146500Y-64736644D01*
X99146500Y-64736646D01*
X99146500Y-64826356D01*
X99146500Y-64826358D01*
X99146501Y-64826359D01*
X99180830Y-64909237D01*
X99180832Y-64909240D01*
X99244261Y-64972669D01*
X99244263Y-64972670D01*
X99244264Y-64972671D01*
X99327145Y-65007001D01*
X99327147Y-65007001D01*
X99416853Y-65007001D01*
X99416855Y-65007001D01*
X99499736Y-64972671D01*
X99499737Y-64972669D01*
X99499739Y-64972669D01*
X99563168Y-64909240D01*
X99563168Y-64909238D01*
X99563170Y-64909237D01*
X99597500Y-64826356D01*
X99597500Y-64736646D01*
X99563170Y-64653765D01*
X99563169Y-64653764D01*
X99563168Y-64653762D01*
X99499739Y-64590333D01*
X99499736Y-64590331D01*
X99416858Y-64556002D01*
X99416856Y-64556001D01*
X99416855Y-64556001D01*
X99327145Y-64556001D01*
X99327143Y-64556001D01*
X99327141Y-64556002D01*
X99244263Y-64590331D01*
X99180830Y-64653764D01*
X99146501Y-64736642D01*
X99146500Y-64736644D01*
X98728143Y-64736644D01*
X98383143Y-64391644D01*
X100874500Y-64391644D01*
X100874500Y-64391646D01*
X100874500Y-64481356D01*
X100874500Y-64481358D01*
X100874501Y-64481359D01*
X100908830Y-64564237D01*
X100908832Y-64564240D01*
X100972261Y-64627669D01*
X100972263Y-64627670D01*
X100972264Y-64627671D01*
X101055145Y-64662001D01*
X101055147Y-64662001D01*
X101144853Y-64662001D01*
X101144855Y-64662001D01*
X101227736Y-64627671D01*
X101227737Y-64627669D01*
X101227739Y-64627669D01*
X101291168Y-64564240D01*
X101291168Y-64564238D01*
X101291170Y-64564237D01*
X101325500Y-64481356D01*
X101325500Y-64391646D01*
X101291170Y-64308765D01*
X101291169Y-64308764D01*
X101291168Y-64308762D01*
X101227739Y-64245333D01*
X101227736Y-64245331D01*
X101144858Y-64211002D01*
X101144856Y-64211001D01*
X101144855Y-64211001D01*
X101055145Y-64211001D01*
X101055143Y-64211001D01*
X101055141Y-64211002D01*
X100972263Y-64245331D01*
X100908830Y-64308764D01*
X100874501Y-64391642D01*
X100874500Y-64391644D01*
X98383143Y-64391644D01*
X98005143Y-64013644D01*
X98324500Y-64013644D01*
X98324500Y-64013646D01*
X98324500Y-64103356D01*
X98324500Y-64103358D01*
X98324501Y-64103359D01*
X98358830Y-64186237D01*
X98358832Y-64186240D01*
X98422261Y-64249669D01*
X98422263Y-64249670D01*
X98422264Y-64249671D01*
X98505145Y-64284001D01*
X98505147Y-64284001D01*
X98594853Y-64284001D01*
X98594855Y-64284001D01*
X98677736Y-64249671D01*
X98677737Y-64249669D01*
X98677739Y-64249669D01*
X98741168Y-64186240D01*
X98741168Y-64186238D01*
X98741170Y-64186237D01*
X98775500Y-64103356D01*
X98775500Y-64013646D01*
X98741170Y-63930765D01*
X98741169Y-63930764D01*
X98741168Y-63930762D01*
X98677739Y-63867333D01*
X98677736Y-63867331D01*
X98594858Y-63833002D01*
X98594856Y-63833001D01*
X98594855Y-63833001D01*
X98505145Y-63833001D01*
X98505143Y-63833001D01*
X98505141Y-63833002D01*
X98422263Y-63867331D01*
X98358830Y-63930764D01*
X98324501Y-64013642D01*
X98324500Y-64013644D01*
X98005143Y-64013644D01*
X97808152Y-63816653D01*
X97793800Y-63782005D01*
X97793800Y-63143644D01*
X97974500Y-63143644D01*
X97974500Y-63143646D01*
X97974500Y-63233356D01*
X97974500Y-63233358D01*
X97974501Y-63233359D01*
X98008830Y-63316237D01*
X98008832Y-63316240D01*
X98072261Y-63379669D01*
X98072263Y-63379670D01*
X98072264Y-63379671D01*
X98155145Y-63414001D01*
X98155147Y-63414001D01*
X98244853Y-63414001D01*
X98244855Y-63414001D01*
X98327736Y-63379671D01*
X98327737Y-63379669D01*
X98327739Y-63379669D01*
X98391168Y-63316240D01*
X98391168Y-63316238D01*
X98391170Y-63316237D01*
X98425500Y-63233356D01*
X98425500Y-63143646D01*
X98391170Y-63060765D01*
X98391169Y-63060764D01*
X98391168Y-63060762D01*
X98327739Y-62997333D01*
X98327736Y-62997331D01*
X98244858Y-62963002D01*
X98244856Y-62963001D01*
X98244855Y-62963001D01*
X98155145Y-62963001D01*
X98155143Y-62963001D01*
X98155141Y-62963002D01*
X98072263Y-62997331D01*
X98008830Y-63060764D01*
X97974501Y-63143642D01*
X97974500Y-63143644D01*
X97793800Y-63143644D01*
X97793800Y-62011644D01*
X99304500Y-62011644D01*
X99304500Y-62011646D01*
X99304500Y-62101356D01*
X99304500Y-62101358D01*
X99304501Y-62101359D01*
X99338830Y-62184237D01*
X99338832Y-62184240D01*
X99376445Y-62221853D01*
X99390797Y-62256501D01*
X99376445Y-62291149D01*
X99338830Y-62328764D01*
X99304501Y-62411642D01*
X99304500Y-62411644D01*
X99304500Y-62411646D01*
X99304500Y-62501356D01*
X99304500Y-62501358D01*
X99304501Y-62501359D01*
X99338830Y-62584237D01*
X99338832Y-62584240D01*
X99376445Y-62621853D01*
X99390797Y-62656501D01*
X99376445Y-62691149D01*
X99338830Y-62728764D01*
X99304501Y-62811642D01*
X99304500Y-62811644D01*
X99304500Y-62811646D01*
X99304500Y-62901356D01*
X99304500Y-62901358D01*
X99304501Y-62901359D01*
X99338830Y-62984237D01*
X99338832Y-62984240D01*
X99402261Y-63047669D01*
X99402263Y-63047670D01*
X99402264Y-63047671D01*
X99485145Y-63082001D01*
X99485147Y-63082001D01*
X99574853Y-63082001D01*
X99574855Y-63082001D01*
X99657736Y-63047671D01*
X99657737Y-63047669D01*
X99657739Y-63047669D01*
X99721168Y-62984240D01*
X99721168Y-62984239D01*
X99721170Y-62984237D01*
X99729700Y-62963644D01*
X100474500Y-62963644D01*
X100474500Y-62963646D01*
X100474500Y-63053356D01*
X100474500Y-63053358D01*
X100474501Y-63053359D01*
X100508830Y-63136237D01*
X100508832Y-63136240D01*
X100572261Y-63199669D01*
X100572263Y-63199670D01*
X100572264Y-63199671D01*
X100655145Y-63234001D01*
X100655147Y-63234001D01*
X100744853Y-63234001D01*
X100744855Y-63234001D01*
X100827736Y-63199671D01*
X100827737Y-63199669D01*
X100827739Y-63199669D01*
X100891168Y-63136240D01*
X100891168Y-63136238D01*
X100891170Y-63136237D01*
X100925500Y-63053356D01*
X100925500Y-62963646D01*
X100891170Y-62880765D01*
X100891169Y-62880764D01*
X100891168Y-62880762D01*
X100827739Y-62817333D01*
X100827736Y-62817331D01*
X100744858Y-62783002D01*
X100744856Y-62783001D01*
X100744855Y-62783001D01*
X100655145Y-62783001D01*
X100655143Y-62783001D01*
X100655141Y-62783002D01*
X100572263Y-62817331D01*
X100508830Y-62880764D01*
X100474501Y-62963642D01*
X100474500Y-62963644D01*
X99729700Y-62963644D01*
X99755500Y-62901356D01*
X99755500Y-62811646D01*
X99721170Y-62728765D01*
X99721169Y-62728764D01*
X99721168Y-62728762D01*
X99683555Y-62691149D01*
X99669203Y-62656501D01*
X99683555Y-62621853D01*
X99721168Y-62584240D01*
X99721168Y-62584238D01*
X99721170Y-62584237D01*
X99755500Y-62501356D01*
X99755500Y-62411646D01*
X99721170Y-62328765D01*
X99721169Y-62328764D01*
X99721168Y-62328762D01*
X99683555Y-62291149D01*
X99669203Y-62256501D01*
X99683555Y-62221853D01*
X99721168Y-62184240D01*
X99721168Y-62184238D01*
X99721170Y-62184237D01*
X99755500Y-62101356D01*
X99755500Y-62011646D01*
X99735617Y-61963644D01*
X100474500Y-61963644D01*
X100474500Y-61963646D01*
X100474500Y-62053356D01*
X100474500Y-62053358D01*
X100474501Y-62053359D01*
X100508830Y-62136237D01*
X100508832Y-62136240D01*
X100572261Y-62199669D01*
X100572263Y-62199670D01*
X100572264Y-62199671D01*
X100655145Y-62234001D01*
X100655147Y-62234001D01*
X100744853Y-62234001D01*
X100744855Y-62234001D01*
X100827736Y-62199671D01*
X100827737Y-62199669D01*
X100827739Y-62199669D01*
X100891168Y-62136240D01*
X100891168Y-62136238D01*
X100891170Y-62136237D01*
X100925500Y-62053356D01*
X100925500Y-61963646D01*
X100891170Y-61880765D01*
X100891169Y-61880764D01*
X100891168Y-61880762D01*
X100827739Y-61817333D01*
X100827736Y-61817331D01*
X100744858Y-61783002D01*
X100744856Y-61783001D01*
X100744855Y-61783001D01*
X100655145Y-61783001D01*
X100655143Y-61783001D01*
X100655141Y-61783002D01*
X100572263Y-61817331D01*
X100508830Y-61880764D01*
X100474501Y-61963642D01*
X100474500Y-61963644D01*
X99735617Y-61963644D01*
X99721170Y-61928765D01*
X99721169Y-61928764D01*
X99721168Y-61928762D01*
X99657739Y-61865333D01*
X99657736Y-61865331D01*
X99574858Y-61831002D01*
X99574856Y-61831001D01*
X99574855Y-61831001D01*
X99485145Y-61831001D01*
X99485143Y-61831001D01*
X99485141Y-61831002D01*
X99402263Y-61865331D01*
X99338830Y-61928764D01*
X99304501Y-62011642D01*
X99304500Y-62011644D01*
X97793800Y-62011644D01*
X97793800Y-60183644D01*
X97974500Y-60183644D01*
X97974500Y-60183646D01*
X97974500Y-60273356D01*
X97974500Y-60273358D01*
X97974501Y-60273359D01*
X98008830Y-60356237D01*
X98008832Y-60356240D01*
X98072261Y-60419669D01*
X98072263Y-60419670D01*
X98072264Y-60419671D01*
X98155145Y-60454001D01*
X98155147Y-60454001D01*
X98244853Y-60454001D01*
X98244855Y-60454001D01*
X98327736Y-60419671D01*
X98327737Y-60419669D01*
X98327739Y-60419669D01*
X98391168Y-60356240D01*
X98391168Y-60356238D01*
X98391170Y-60356237D01*
X98425500Y-60273356D01*
X98425500Y-60183646D01*
X98391170Y-60100765D01*
X98391169Y-60100764D01*
X98391168Y-60100762D01*
X98327739Y-60037333D01*
X98327736Y-60037331D01*
X98244858Y-60003002D01*
X98244856Y-60003001D01*
X98244855Y-60003001D01*
X98155145Y-60003001D01*
X98155143Y-60003001D01*
X98155141Y-60003002D01*
X98072263Y-60037331D01*
X98008830Y-60100764D01*
X97974501Y-60183642D01*
X97974500Y-60183644D01*
X97793800Y-60183644D01*
X97793800Y-58126903D01*
X97808152Y-58092255D01*
X97845170Y-58055237D01*
X97863227Y-58011644D01*
X99304500Y-58011644D01*
X99304500Y-58011646D01*
X99304500Y-58101356D01*
X99304500Y-58101358D01*
X99304501Y-58101359D01*
X99338830Y-58184237D01*
X99338832Y-58184240D01*
X99376445Y-58221853D01*
X99390797Y-58256501D01*
X99376445Y-58291149D01*
X99338830Y-58328764D01*
X99304501Y-58411642D01*
X99304500Y-58411644D01*
X99304500Y-58411646D01*
X99304500Y-58501356D01*
X99304500Y-58501358D01*
X99304501Y-58501359D01*
X99338830Y-58584237D01*
X99338832Y-58584240D01*
X99376445Y-58621853D01*
X99390797Y-58656501D01*
X99376445Y-58691149D01*
X99338830Y-58728764D01*
X99304501Y-58811642D01*
X99304500Y-58811644D01*
X99304500Y-58811646D01*
X99304500Y-58901356D01*
X99304500Y-58901358D01*
X99304501Y-58901359D01*
X99338830Y-58984237D01*
X99338832Y-58984240D01*
X99376445Y-59021853D01*
X99390797Y-59056501D01*
X99376445Y-59091149D01*
X99338830Y-59128764D01*
X99304501Y-59211642D01*
X99304500Y-59211644D01*
X99304500Y-59211646D01*
X99304500Y-59301356D01*
X99304500Y-59301358D01*
X99304501Y-59301359D01*
X99338830Y-59384237D01*
X99338832Y-59384240D01*
X99376445Y-59421853D01*
X99390797Y-59456501D01*
X99376445Y-59491149D01*
X99338830Y-59528764D01*
X99304501Y-59611642D01*
X99304500Y-59611644D01*
X99304500Y-59611646D01*
X99304500Y-59701356D01*
X99304500Y-59701358D01*
X99304501Y-59701359D01*
X99338830Y-59784237D01*
X99338832Y-59784240D01*
X99376445Y-59821853D01*
X99390797Y-59856501D01*
X99376445Y-59891149D01*
X99338830Y-59928764D01*
X99304501Y-60011642D01*
X99304500Y-60011644D01*
X99304500Y-60011646D01*
X99304500Y-60101356D01*
X99304500Y-60101358D01*
X99304501Y-60101359D01*
X99338830Y-60184237D01*
X99338832Y-60184240D01*
X99376445Y-60221853D01*
X99390797Y-60256501D01*
X99376445Y-60291149D01*
X99338830Y-60328764D01*
X99304501Y-60411642D01*
X99304500Y-60411644D01*
X99304500Y-60411646D01*
X99304500Y-60501356D01*
X99304500Y-60501358D01*
X99304501Y-60501359D01*
X99338830Y-60584237D01*
X99338832Y-60584240D01*
X99376445Y-60621853D01*
X99390797Y-60656501D01*
X99376445Y-60691149D01*
X99338830Y-60728764D01*
X99304501Y-60811642D01*
X99304500Y-60811644D01*
X99304500Y-60811646D01*
X99304500Y-60901356D01*
X99304500Y-60901358D01*
X99304501Y-60901359D01*
X99338830Y-60984237D01*
X99338832Y-60984240D01*
X99376445Y-61021853D01*
X99390797Y-61056501D01*
X99376445Y-61091149D01*
X99338830Y-61128764D01*
X99304501Y-61211642D01*
X99304500Y-61211644D01*
X99304500Y-61211646D01*
X99304500Y-61301356D01*
X99304500Y-61301358D01*
X99304501Y-61301359D01*
X99338830Y-61384237D01*
X99338832Y-61384240D01*
X99402261Y-61447669D01*
X99402263Y-61447670D01*
X99402264Y-61447671D01*
X99485145Y-61482001D01*
X99485147Y-61482001D01*
X99574853Y-61482001D01*
X99574855Y-61482001D01*
X99657736Y-61447671D01*
X99657737Y-61447669D01*
X99657739Y-61447669D01*
X99721168Y-61384240D01*
X99721168Y-61384238D01*
X99721170Y-61384237D01*
X99755500Y-61301356D01*
X99755500Y-61211646D01*
X99721170Y-61128765D01*
X99721169Y-61128764D01*
X99721168Y-61128762D01*
X99683555Y-61091149D01*
X99669203Y-61056501D01*
X99683555Y-61021853D01*
X99721168Y-60984240D01*
X99721168Y-60984238D01*
X99721170Y-60984237D01*
X99755500Y-60901356D01*
X99755500Y-60811646D01*
X99755499Y-60811644D01*
X100474500Y-60811644D01*
X100474500Y-60811646D01*
X100474500Y-60901356D01*
X100474500Y-60901358D01*
X100474501Y-60901359D01*
X100508830Y-60984237D01*
X100508832Y-60984240D01*
X100572261Y-61047669D01*
X100572263Y-61047670D01*
X100572264Y-61047671D01*
X100655145Y-61082001D01*
X100655147Y-61082001D01*
X100744853Y-61082001D01*
X100744855Y-61082001D01*
X100827736Y-61047671D01*
X100827737Y-61047669D01*
X100827739Y-61047669D01*
X100891168Y-60984240D01*
X100891168Y-60984238D01*
X100891170Y-60984237D01*
X100925500Y-60901356D01*
X100925500Y-60811646D01*
X100891170Y-60728765D01*
X100891169Y-60728764D01*
X100891168Y-60728762D01*
X100827739Y-60665333D01*
X100827736Y-60665331D01*
X100744858Y-60631002D01*
X100744856Y-60631001D01*
X100744855Y-60631001D01*
X100655145Y-60631001D01*
X100655143Y-60631001D01*
X100655141Y-60631002D01*
X100572263Y-60665331D01*
X100508830Y-60728764D01*
X100474501Y-60811642D01*
X100474500Y-60811644D01*
X99755499Y-60811644D01*
X99721170Y-60728765D01*
X99721169Y-60728764D01*
X99721168Y-60728762D01*
X99683555Y-60691149D01*
X99669203Y-60656501D01*
X99683555Y-60621853D01*
X99721168Y-60584240D01*
X99721168Y-60584238D01*
X99721170Y-60584237D01*
X99755500Y-60501356D01*
X99755500Y-60411646D01*
X99721170Y-60328765D01*
X99721169Y-60328764D01*
X99721168Y-60328762D01*
X99683555Y-60291149D01*
X99669203Y-60256501D01*
X99683555Y-60221853D01*
X99721168Y-60184240D01*
X99721168Y-60184238D01*
X99721170Y-60184237D01*
X99755500Y-60101356D01*
X99755500Y-60011646D01*
X99721170Y-59928765D01*
X99721169Y-59928764D01*
X99721168Y-59928762D01*
X99683555Y-59891149D01*
X99669203Y-59856501D01*
X99683555Y-59821853D01*
X99721168Y-59784240D01*
X99721168Y-59784238D01*
X99721170Y-59784237D01*
X99755500Y-59701356D01*
X99755500Y-59611646D01*
X99721170Y-59528765D01*
X99721169Y-59528764D01*
X99721168Y-59528762D01*
X99683555Y-59491149D01*
X99672162Y-59463644D01*
X100474500Y-59463644D01*
X100474500Y-59463646D01*
X100474500Y-59553356D01*
X100474500Y-59553358D01*
X100474501Y-59553359D01*
X100508830Y-59636237D01*
X100508832Y-59636240D01*
X100572261Y-59699669D01*
X100572263Y-59699670D01*
X100572264Y-59699671D01*
X100655145Y-59734001D01*
X100655147Y-59734001D01*
X100744853Y-59734001D01*
X100744855Y-59734001D01*
X100827736Y-59699671D01*
X100827737Y-59699669D01*
X100827739Y-59699669D01*
X100891168Y-59636240D01*
X100891168Y-59636238D01*
X100891170Y-59636237D01*
X100925500Y-59553356D01*
X100925500Y-59463646D01*
X100891170Y-59380765D01*
X100891169Y-59380764D01*
X100891168Y-59380762D01*
X100827739Y-59317333D01*
X100827736Y-59317331D01*
X100744858Y-59283002D01*
X100744856Y-59283001D01*
X100744855Y-59283001D01*
X100655145Y-59283001D01*
X100655143Y-59283001D01*
X100655141Y-59283002D01*
X100572263Y-59317331D01*
X100508830Y-59380764D01*
X100474501Y-59463642D01*
X100474500Y-59463644D01*
X99672162Y-59463644D01*
X99669203Y-59456501D01*
X99683555Y-59421853D01*
X99721168Y-59384240D01*
X99721168Y-59384238D01*
X99721170Y-59384237D01*
X99755500Y-59301356D01*
X99755500Y-59211646D01*
X99721170Y-59128765D01*
X99721169Y-59128764D01*
X99721168Y-59128762D01*
X99683555Y-59091149D01*
X99669203Y-59056501D01*
X99683555Y-59021853D01*
X99721168Y-58984240D01*
X99721168Y-58984238D01*
X99721170Y-58984237D01*
X99755500Y-58901356D01*
X99755500Y-58811646D01*
X99721170Y-58728765D01*
X99721169Y-58728764D01*
X99721168Y-58728762D01*
X99683555Y-58691149D01*
X99669203Y-58656501D01*
X99683555Y-58621853D01*
X99721168Y-58584240D01*
X99721168Y-58584238D01*
X99721170Y-58584237D01*
X99755500Y-58501356D01*
X99755500Y-58463644D01*
X100474500Y-58463644D01*
X100474500Y-58463646D01*
X100474500Y-58553356D01*
X100474500Y-58553358D01*
X100474501Y-58553359D01*
X100508830Y-58636237D01*
X100508832Y-58636240D01*
X100572261Y-58699669D01*
X100572263Y-58699670D01*
X100572264Y-58699671D01*
X100655145Y-58734001D01*
X100655147Y-58734001D01*
X100744853Y-58734001D01*
X100744855Y-58734001D01*
X100827736Y-58699671D01*
X100827737Y-58699669D01*
X100827739Y-58699669D01*
X100891168Y-58636240D01*
X100891168Y-58636238D01*
X100891170Y-58636237D01*
X100925500Y-58553356D01*
X100925500Y-58463646D01*
X100891170Y-58380765D01*
X100891169Y-58380764D01*
X100891168Y-58380762D01*
X100827739Y-58317333D01*
X100827736Y-58317331D01*
X100744858Y-58283002D01*
X100744856Y-58283001D01*
X100744855Y-58283001D01*
X100655145Y-58283001D01*
X100655143Y-58283001D01*
X100655141Y-58283002D01*
X100572263Y-58317331D01*
X100508830Y-58380764D01*
X100474501Y-58463642D01*
X100474500Y-58463644D01*
X99755500Y-58463644D01*
X99755500Y-58411646D01*
X99721170Y-58328765D01*
X99721169Y-58328764D01*
X99721168Y-58328762D01*
X99683555Y-58291149D01*
X99669203Y-58256501D01*
X99683555Y-58221853D01*
X99721168Y-58184240D01*
X99721168Y-58184238D01*
X99721170Y-58184237D01*
X99755500Y-58101356D01*
X99755500Y-58011646D01*
X99721170Y-57928765D01*
X99721169Y-57928764D01*
X99721168Y-57928762D01*
X99657739Y-57865333D01*
X99657736Y-57865331D01*
X99574858Y-57831002D01*
X99574856Y-57831001D01*
X99574855Y-57831001D01*
X99485145Y-57831001D01*
X99485143Y-57831001D01*
X99485141Y-57831002D01*
X99402263Y-57865331D01*
X99338830Y-57928764D01*
X99304501Y-58011642D01*
X99304500Y-58011644D01*
X97863227Y-58011644D01*
X97879500Y-57972356D01*
X97879500Y-57882646D01*
X97845170Y-57799765D01*
X97845169Y-57799764D01*
X97845168Y-57799762D01*
X97808152Y-57762746D01*
X97793800Y-57728098D01*
X97793800Y-57446644D01*
X98209500Y-57446644D01*
X98209500Y-57446646D01*
X98209500Y-57536356D01*
X98209500Y-57536358D01*
X98209501Y-57536359D01*
X98243830Y-57619237D01*
X98243832Y-57619240D01*
X98307261Y-57682669D01*
X98307263Y-57682670D01*
X98307264Y-57682671D01*
X98390145Y-57717001D01*
X98390147Y-57717001D01*
X98479853Y-57717001D01*
X98479855Y-57717001D01*
X98562736Y-57682671D01*
X98562737Y-57682669D01*
X98562739Y-57682669D01*
X98626168Y-57619240D01*
X98626168Y-57619238D01*
X98626170Y-57619237D01*
X98660500Y-57536356D01*
X98660500Y-57446646D01*
X98626170Y-57363765D01*
X98626169Y-57363764D01*
X98626168Y-57363762D01*
X98562739Y-57300333D01*
X98562736Y-57300331D01*
X98479858Y-57266002D01*
X98479856Y-57266001D01*
X98479855Y-57266001D01*
X98390145Y-57266001D01*
X98390143Y-57266001D01*
X98390141Y-57266002D01*
X98307263Y-57300331D01*
X98243830Y-57363764D01*
X98209501Y-57446642D01*
X98209500Y-57446644D01*
X97793800Y-57446644D01*
X97793800Y-56402301D01*
X97555143Y-56163644D01*
X98994500Y-56163644D01*
X98994500Y-56163646D01*
X98994500Y-56253356D01*
X98994500Y-56253358D01*
X98994501Y-56253359D01*
X99028830Y-56336237D01*
X99028832Y-56336240D01*
X99092261Y-56399669D01*
X99092263Y-56399670D01*
X99092264Y-56399671D01*
X99175145Y-56434001D01*
X99175147Y-56434001D01*
X99264853Y-56434001D01*
X99264855Y-56434001D01*
X99347736Y-56399671D01*
X99347737Y-56399669D01*
X99347739Y-56399669D01*
X99411168Y-56336240D01*
X99411168Y-56336238D01*
X99411170Y-56336237D01*
X99445500Y-56253356D01*
X99445500Y-56163646D01*
X99411170Y-56080765D01*
X99411169Y-56080764D01*
X99411168Y-56080762D01*
X99347739Y-56017333D01*
X99347736Y-56017331D01*
X99264858Y-55983002D01*
X99264856Y-55983001D01*
X99264855Y-55983001D01*
X99175145Y-55983001D01*
X99175143Y-55983001D01*
X99175141Y-55983002D01*
X99092263Y-56017331D01*
X99028830Y-56080764D01*
X98994501Y-56163642D01*
X98994500Y-56163644D01*
X97555143Y-56163644D01*
X96984648Y-55593149D01*
X96970296Y-55558501D01*
X96984648Y-55523853D01*
X97035648Y-55472853D01*
X97070296Y-55458501D01*
X98349999Y-55458501D01*
X98350000Y-55458501D01*
X98644857Y-55163644D01*
X98994500Y-55163644D01*
X98994500Y-55163646D01*
X98994500Y-55253356D01*
X98994500Y-55253358D01*
X98994501Y-55253359D01*
X99028830Y-55336237D01*
X99028832Y-55336240D01*
X99092261Y-55399669D01*
X99092263Y-55399670D01*
X99092264Y-55399671D01*
X99175145Y-55434001D01*
X99175147Y-55434001D01*
X99264853Y-55434001D01*
X99264855Y-55434001D01*
X99347736Y-55399671D01*
X99347737Y-55399669D01*
X99347739Y-55399669D01*
X99411168Y-55336240D01*
X99411168Y-55336238D01*
X99411170Y-55336237D01*
X99445500Y-55253356D01*
X99445500Y-55163646D01*
X99411170Y-55080765D01*
X99411169Y-55080764D01*
X99411168Y-55080762D01*
X99347739Y-55017333D01*
X99347736Y-55017331D01*
X99264858Y-54983002D01*
X99264856Y-54983001D01*
X99264855Y-54983001D01*
X99175145Y-54983001D01*
X99175143Y-54983001D01*
X99175141Y-54983002D01*
X99092263Y-55017331D01*
X99028830Y-55080764D01*
X98994501Y-55163642D01*
X98994500Y-55163644D01*
X98644857Y-55163644D01*
X99115648Y-54692853D01*
X99150296Y-54678501D01*
X100549704Y-54678501D01*
X100584352Y-54692853D01*
G37*
%TD.AperFunction*%
%TD*%
M02*
