%TF.GenerationSoftware,KiCad,Pcbnew,9.0.1-9.0.1-0~ubuntu24.04.1*%
%TF.CreationDate,2025-04-28T13:39:04+02:00*%
%TF.ProjectId,ILM139C,494c4d31-3339-4432-9e6b-696361645f70,V0.1.0*%
%TF.SameCoordinates,Original*%
%TF.FileFunction,Copper,L1,Top*%
%TF.FilePolarity,Positive*%
%FSLAX46Y46*%
G04 Gerber Fmt 4.6, Leading zero omitted, Abs format (unit mm)*
G04 Created by KiCad (PCBNEW 9.0.1-9.0.1-0~ubuntu24.04.1) date 2025-04-28 13:39:04*
%MOMM*%
%LPD*%
G01*
G04 APERTURE LIST*
G04 Aperture macros list*
%AMRoundRect*
0 Rectangle with rounded corners*
0 $1 Rounding radius*
0 $2 $3 $4 $5 $6 $7 $8 $9 X,Y pos of 4 corners*
0 Add a 4 corners polygon primitive as box body*
4,1,4,$2,$3,$4,$5,$6,$7,$8,$9,$2,$3,0*
0 Add four circle primitives for the rounded corners*
1,1,$1+$1,$2,$3*
1,1,$1+$1,$4,$5*
1,1,$1+$1,$6,$7*
1,1,$1+$1,$8,$9*
0 Add four rect primitives between the rounded corners*
20,1,$1+$1,$2,$3,$4,$5,0*
20,1,$1+$1,$4,$5,$6,$7,0*
20,1,$1+$1,$6,$7,$8,$9,0*
20,1,$1+$1,$8,$9,$2,$3,0*%
G04 Aperture macros list end*
%TA.AperFunction,SMDPad,CuDef*%
%ADD10RoundRect,0.200000X0.275000X-0.200000X0.275000X0.200000X-0.275000X0.200000X-0.275000X-0.200000X0*%
%TD*%
%TA.AperFunction,SMDPad,CuDef*%
%ADD11R,0.800000X0.200000*%
%TD*%
%TA.AperFunction,SMDPad,CuDef*%
%ADD12R,1.200000X0.700000*%
%TD*%
%TA.AperFunction,SMDPad,CuDef*%
%ADD13RoundRect,0.135000X-0.185000X0.135000X-0.185000X-0.135000X0.185000X-0.135000X0.185000X0.135000X0*%
%TD*%
%TA.AperFunction,SMDPad,CuDef*%
%ADD14RoundRect,0.200000X-0.200000X-0.275000X0.200000X-0.275000X0.200000X0.275000X-0.200000X0.275000X0*%
%TD*%
%TA.AperFunction,SMDPad,CuDef*%
%ADD15RoundRect,0.200000X0.200000X0.275000X-0.200000X0.275000X-0.200000X-0.275000X0.200000X-0.275000X0*%
%TD*%
%TA.AperFunction,SMDPad,CuDef*%
%ADD16RoundRect,0.200000X-0.275000X0.200000X-0.275000X-0.200000X0.275000X-0.200000X0.275000X0.200000X0*%
%TD*%
%TA.AperFunction,SMDPad,CuDef*%
%ADD17RoundRect,0.140000X-0.170000X0.140000X-0.170000X-0.140000X0.170000X-0.140000X0.170000X0.140000X0*%
%TD*%
%TA.AperFunction,SMDPad,CuDef*%
%ADD18RoundRect,0.140000X0.140000X0.170000X-0.140000X0.170000X-0.140000X-0.170000X0.140000X-0.170000X0*%
%TD*%
%TA.AperFunction,SMDPad,CuDef*%
%ADD19R,0.200000X0.950000*%
%TD*%
%TA.AperFunction,SMDPad,CuDef*%
%ADD20R,0.950000X0.200000*%
%TD*%
%TA.AperFunction,SMDPad,CuDef*%
%ADD21R,5.300000X5.300000*%
%TD*%
%TA.AperFunction,SMDPad,CuDef*%
%ADD22RoundRect,0.140000X-0.140000X-0.170000X0.140000X-0.170000X0.140000X0.170000X-0.140000X0.170000X0*%
%TD*%
%TA.AperFunction,SMDPad,CuDef*%
%ADD23RoundRect,0.135000X0.135000X0.185000X-0.135000X0.185000X-0.135000X-0.185000X0.135000X-0.185000X0*%
%TD*%
%TA.AperFunction,SMDPad,CuDef*%
%ADD24RoundRect,0.140000X0.170000X-0.140000X0.170000X0.140000X-0.170000X0.140000X-0.170000X-0.140000X0*%
%TD*%
%TA.AperFunction,ViaPad*%
%ADD25C,0.250000*%
%TD*%
%TA.AperFunction,Conductor*%
%ADD26C,0.127000*%
%TD*%
%TA.AperFunction,Conductor*%
%ADD27C,0.203200*%
%TD*%
%TA.AperFunction,Conductor*%
%ADD28C,0.100000*%
%TD*%
%TA.AperFunction,Conductor*%
%ADD29C,0.254000*%
%TD*%
G04 APERTURE END LIST*
D10*
%TO.P,R28,1*%
%TO.N,CS36*%
X109000000Y-54433501D03*
%TO.P,R28,2*%
%TO.N,S36*%
X109000000Y-52783501D03*
%TD*%
D11*
%TO.P,CN6,1,1*%
%TO.N,SW3*%
X91150000Y-57056501D03*
%TO.P,CN6,2,2*%
%TO.N,S4*%
X93550000Y-57056501D03*
%TO.P,CN6,3,3*%
%TO.N,SW2*%
X91150000Y-57456501D03*
%TO.P,CN6,4,4*%
%TO.N,S5*%
X93550000Y-57456501D03*
%TO.P,CN6,5,5*%
%TO.N,SW4*%
X91150000Y-57856501D03*
%TO.P,CN6,6,6*%
X93550000Y-57856501D03*
%TO.P,CN6,7,7*%
%TO.N,SW1*%
X91150000Y-58256501D03*
%TO.P,CN6,8,8*%
%TO.N,S6*%
X93550000Y-58256501D03*
%TO.P,CN6,9,9*%
%TO.N,S3*%
X91150000Y-58656501D03*
%TO.P,CN6,10,10*%
%TO.N,GND*%
X93550000Y-58656501D03*
%TO.P,CN6,11,11*%
%TO.N,S2*%
X91150000Y-59056501D03*
%TO.P,CN6,12,12*%
%TO.N,GND*%
X93550000Y-59056501D03*
%TO.P,CN6,13,13*%
%TO.N,S1*%
X91150000Y-59456501D03*
%TO.P,CN6,14,14*%
%TO.N,GND*%
X93550000Y-59456501D03*
%TO.P,CN6,15,15*%
%TO.N,SW5*%
X91150000Y-59856501D03*
%TO.P,CN6,16,16*%
X93550000Y-59856501D03*
%TO.P,CN6,17,17*%
%TO.N,GND*%
X91150000Y-60256501D03*
%TO.P,CN6,18,18*%
%TO.N,S16*%
X93550000Y-60256501D03*
%TO.P,CN6,19,19*%
%TO.N,GND*%
X91150000Y-60656501D03*
%TO.P,CN6,20,20*%
%TO.N,S15*%
X93550000Y-60656501D03*
%TO.P,CN6,21,21*%
%TO.N,GND*%
X91150000Y-61056501D03*
%TO.P,CN6,22,22*%
%TO.N,S14*%
X93550000Y-61056501D03*
%TO.P,CN6,23,23*%
%TO.N,GND*%
X91150000Y-61456501D03*
%TO.P,CN6,24,24*%
%TO.N,S13*%
X93550000Y-61456501D03*
%TO.P,CN6,25,25*%
%TO.N,SW6*%
X91150000Y-61856501D03*
%TO.P,CN6,26,26*%
X93550000Y-61856501D03*
%TO.P,CN6,27,27*%
%TO.N,GND*%
X91150000Y-62256501D03*
%TO.P,CN6,28,28*%
%TO.N,S12*%
X93550000Y-62256501D03*
%TO.P,CN6,29,29*%
%TO.N,GND*%
X91150000Y-62656501D03*
%TO.P,CN6,30,30*%
%TO.N,S11*%
X93550000Y-62656501D03*
%TO.P,CN6,31,31*%
%TO.N,GND*%
X91150000Y-63056501D03*
%TO.P,CN6,32,32*%
%TO.N,S10*%
X93550000Y-63056501D03*
%TO.P,CN6,33,33*%
%TO.N,S9*%
X91150000Y-63456501D03*
%TO.P,CN6,34,34*%
X93550000Y-63456501D03*
%TO.P,CN6,35,35*%
%TO.N,SW7*%
X91150000Y-63856501D03*
%TO.P,CN6,36,36*%
X93550000Y-63856501D03*
%TO.P,CN6,37,37*%
%TO.N,SW9*%
X91150000Y-64256501D03*
%TO.P,CN6,38,38*%
%TO.N,S8*%
X93550000Y-64256501D03*
%TO.P,CN6,39,39*%
%TO.N,SW8*%
X91150000Y-64656501D03*
%TO.P,CN6,40,40*%
%TO.N,S7*%
X93550000Y-64656501D03*
D12*
%TO.P,CN6,41,41*%
%TO.N,unconnected-(CN6-Pad41)*%
X91350000Y-65606501D03*
%TO.P,CN6,42,42*%
%TO.N,unconnected-(CN6-Pad42)*%
X93350000Y-65606501D03*
%TO.P,CN6,43,43*%
%TO.N,unconnected-(CN6-Pad43)*%
X91350000Y-56106501D03*
%TO.P,CN6,44,44*%
%TO.N,unconnected-(CN6-Pad44)*%
X93350000Y-56106501D03*
%TD*%
D13*
%TO.P,R40,1*%
%TO.N,VCC*%
X103200000Y-53198501D03*
%TO.P,R40,2*%
%TO.N,SDB*%
X103200000Y-54218501D03*
%TD*%
D14*
%TO.P,R21,1*%
%TO.N,CS25*%
X109075000Y-65208501D03*
%TO.P,R21,2*%
%TO.N,S25*%
X110725000Y-65208501D03*
%TD*%
D15*
%TO.P,R6,1*%
%TO.N,CS4*%
X96825000Y-60708501D03*
%TO.P,R6,2*%
%TO.N,S4*%
X95175000Y-60708501D03*
%TD*%
D14*
%TO.P,R34,1*%
%TO.N,CS30*%
X109075000Y-57708501D03*
%TO.P,R34,2*%
%TO.N,S30*%
X110725000Y-57708501D03*
%TD*%
D16*
%TO.P,R17,1*%
%TO.N,CS11*%
X95500000Y-67283501D03*
%TO.P,R17,2*%
%TO.N,S11*%
X95500000Y-68933501D03*
%TD*%
%TO.P,R27,1*%
%TO.N,CS19*%
X107500000Y-67283501D03*
%TO.P,R27,2*%
%TO.N,S19*%
X107500000Y-68933501D03*
%TD*%
D14*
%TO.P,R20,1*%
%TO.N,CS26*%
X109075000Y-63708501D03*
%TO.P,R20,2*%
%TO.N,S26*%
X110725000Y-63708501D03*
%TD*%
D16*
%TO.P,R25,1*%
%TO.N,CS21*%
X110500000Y-67283501D03*
%TO.P,R25,2*%
%TO.N,S21*%
X110500000Y-68933501D03*
%TD*%
D14*
%TO.P,R33,1*%
%TO.N,CS31*%
X109075000Y-56208501D03*
%TO.P,R33,2*%
%TO.N,S31*%
X110725000Y-56208501D03*
%TD*%
D10*
%TO.P,R42,1*%
%TO.N,Net-(U1-ADDR)*%
X91400000Y-54533501D03*
%TO.P,R42,2*%
%TO.N,GND*%
X91400000Y-52883501D03*
%TD*%
D16*
%TO.P,R18,1*%
%TO.N,CS10*%
X94000000Y-67283501D03*
%TO.P,R18,2*%
%TO.N,S10*%
X94000000Y-68933501D03*
%TD*%
D17*
%TO.P,C6,1*%
%TO.N,VCC*%
X98200000Y-62228501D03*
%TO.P,C6,2*%
%TO.N,GND*%
X98200000Y-63188501D03*
%TD*%
D16*
%TO.P,R13,1*%
%TO.N,CS15*%
X101500000Y-67283501D03*
%TO.P,R13,2*%
%TO.N,S15*%
X101500000Y-68933501D03*
%TD*%
D10*
%TO.P,R43,1*%
%TO.N,Net-(U1-ADDR)*%
X93400000Y-54533501D03*
%TO.P,R43,2*%
%TO.N,SCL*%
X93400000Y-52883501D03*
%TD*%
%TO.P,R37,1*%
%TO.N,CS39*%
X104500000Y-54433501D03*
%TO.P,R37,2*%
%TO.N,S39*%
X104500000Y-52783501D03*
%TD*%
D18*
%TO.P,C3,1*%
%TO.N,VCC*%
X100180000Y-56208501D03*
%TO.P,C3,2*%
%TO.N,GND*%
X99220000Y-56208501D03*
%TD*%
D15*
%TO.P,R4,1*%
%TO.N,CS6*%
X96825000Y-63708501D03*
%TO.P,R4,2*%
%TO.N,S6*%
X95175000Y-63708501D03*
%TD*%
D10*
%TO.P,R38,1*%
%TO.N,CS38*%
X106000000Y-54433501D03*
%TO.P,R38,2*%
%TO.N,S38*%
X106000000Y-52783501D03*
%TD*%
D16*
%TO.P,R24,1*%
%TO.N,CS22*%
X112000000Y-67283501D03*
%TO.P,R24,2*%
%TO.N,S22*%
X112000000Y-68933501D03*
%TD*%
D15*
%TO.P,R1,1*%
%TO.N,CS1*%
X96825000Y-56208501D03*
%TO.P,R1,2*%
%TO.N,S1*%
X95175000Y-56208501D03*
%TD*%
%TO.P,R9,1*%
%TO.N,CS7*%
X96825000Y-65208501D03*
%TO.P,R9,2*%
%TO.N,S7*%
X95175000Y-65208501D03*
%TD*%
D16*
%TO.P,R22,1*%
%TO.N,CS24*%
X115000000Y-67283501D03*
%TO.P,R22,2*%
%TO.N,S24*%
X115000000Y-68933501D03*
%TD*%
D10*
%TO.P,R30,1*%
%TO.N,CS34*%
X112000000Y-54433501D03*
%TO.P,R30,2*%
%TO.N,S34*%
X112000000Y-52783501D03*
%TD*%
D15*
%TO.P,R2,1*%
%TO.N,CS2*%
X96825000Y-57708501D03*
%TO.P,R2,2*%
%TO.N,S2*%
X95175000Y-57708501D03*
%TD*%
D16*
%TO.P,R7,1*%
%TO.N,CS9*%
X92500000Y-67283501D03*
%TO.P,R7,2*%
%TO.N,S9*%
X92500000Y-68933501D03*
%TD*%
D19*
%TO.P,U1,1,CS34*%
%TO.N,CS34*%
X105900000Y-57276501D03*
%TO.P,U1,2,CS35*%
%TO.N,CS35*%
X105500000Y-57276501D03*
%TO.P,U1,3,CS36*%
%TO.N,CS36*%
X105100000Y-57276501D03*
%TO.P,U1,4,CS37*%
%TO.N,CS37*%
X104700000Y-57276501D03*
%TO.P,U1,5,CS38*%
%TO.N,CS38*%
X104300000Y-57276501D03*
%TO.P,U1,6,CS39*%
%TO.N,CS39*%
X103900000Y-57276501D03*
%TO.P,U1,7,INTB*%
%TO.N,INTB*%
X103500000Y-57276501D03*
%TO.P,U1,8,ADDR*%
%TO.N,Net-(U1-ADDR)*%
X103100000Y-57276501D03*
%TO.P,U1,9,SDA*%
%TO.N,SDA*%
X102700000Y-57276501D03*
%TO.P,U1,10,SCL*%
%TO.N,SCL*%
X102300000Y-57276501D03*
%TO.P,U1,11,SDB*%
%TO.N,SDB*%
X101900000Y-57276501D03*
%TO.P,U1,12,GND*%
%TO.N,GND*%
X101500000Y-57276501D03*
%TO.P,U1,13,ISET*%
%TO.N,Net-(U1-ISET)*%
X101100000Y-57276501D03*
%TO.P,U1,14,AVCC*%
%TO.N,VCC*%
X100700000Y-57276501D03*
%TO.P,U1,15,PVCC*%
X100300000Y-57276501D03*
D20*
%TO.P,U1,16,SW1*%
%TO.N,SW1*%
X99530000Y-58056501D03*
%TO.P,U1,17,SW2*%
%TO.N,SW2*%
X99530000Y-58456501D03*
%TO.P,U1,18,SW3*%
%TO.N,SW3*%
X99530000Y-58856501D03*
%TO.P,U1,19,SW4*%
%TO.N,SW4*%
X99530000Y-59256501D03*
%TO.P,U1,20,SW5*%
%TO.N,SW5*%
X99530000Y-59656501D03*
%TO.P,U1,21,SW6*%
%TO.N,SW6*%
X99530000Y-60056501D03*
%TO.P,U1,22,SW7*%
%TO.N,SW7*%
X99530000Y-60456501D03*
%TO.P,U1,23,SW8*%
%TO.N,SW8*%
X99530000Y-60856501D03*
%TO.P,U1,24,SW9*%
%TO.N,SW9*%
X99530000Y-61256501D03*
%TO.P,U1,25,PVCC*%
%TO.N,VCC*%
X99530000Y-61656501D03*
%TO.P,U1,26,CS1*%
%TO.N,CS1*%
X99530000Y-62056501D03*
%TO.P,U1,27,CS2*%
%TO.N,CS2*%
X99530000Y-62456501D03*
%TO.P,U1,28,CS3*%
%TO.N,CS3*%
X99530000Y-62856501D03*
%TO.P,U1,29,CS4*%
%TO.N,CS4*%
X99530000Y-63256501D03*
%TO.P,U1,30,CS5*%
%TO.N,CS5*%
X99530000Y-63656501D03*
D19*
%TO.P,U1,31,CS6*%
%TO.N,CS6*%
X100300000Y-64436501D03*
%TO.P,U1,32,CS7*%
%TO.N,CS7*%
X100700000Y-64436501D03*
%TO.P,U1,33,CS8*%
%TO.N,CS8*%
X101100000Y-64436501D03*
%TO.P,U1,34,CS9*%
%TO.N,CS9*%
X101500000Y-64436501D03*
%TO.P,U1,35,CS10*%
%TO.N,CS10*%
X101900000Y-64436501D03*
%TO.P,U1,36,GND*%
%TO.N,GND*%
X102300000Y-64436501D03*
%TO.P,U1,37,CS11*%
%TO.N,CS11*%
X102700000Y-64436501D03*
%TO.P,U1,38,CS12*%
%TO.N,CS12*%
X103100000Y-64436501D03*
%TO.P,U1,39,CS13*%
%TO.N,CS13*%
X103500000Y-64436501D03*
%TO.P,U1,40,CS14*%
%TO.N,CS14*%
X103900000Y-64436501D03*
%TO.P,U1,41,CS15*%
%TO.N,CS15*%
X104300000Y-64436501D03*
%TO.P,U1,42,CS16*%
%TO.N,CS16*%
X104700000Y-64436501D03*
%TO.P,U1,43,CS17*%
%TO.N,CS17*%
X105100000Y-64436501D03*
%TO.P,U1,44,CS18*%
%TO.N,CS18*%
X105500000Y-64436501D03*
%TO.P,U1,45,CS19*%
%TO.N,CS19*%
X105900000Y-64436501D03*
D20*
%TO.P,U1,46,CS20*%
%TO.N,CS20*%
X106670000Y-63656501D03*
%TO.P,U1,47,CS21*%
%TO.N,CS21*%
X106670000Y-63256501D03*
%TO.P,U1,48,CS22*%
%TO.N,CS22*%
X106670000Y-62856501D03*
%TO.P,U1,49,CS23*%
%TO.N,CS23*%
X106670000Y-62456501D03*
%TO.P,U1,50,CS24*%
%TO.N,CS24*%
X106670000Y-62056501D03*
%TO.P,U1,51,CS25*%
%TO.N,CS25*%
X106670000Y-61656501D03*
%TO.P,U1,52,CS26*%
%TO.N,CS26*%
X106670000Y-61256501D03*
%TO.P,U1,53,CS27*%
%TO.N,CS27*%
X106670000Y-60856501D03*
%TO.P,U1,54,CS28*%
%TO.N,CS28*%
X106670000Y-60456501D03*
%TO.P,U1,55,GND*%
%TO.N,GND*%
X106670000Y-60056501D03*
%TO.P,U1,56,CS29*%
%TO.N,CS29*%
X106670000Y-59656501D03*
%TO.P,U1,57,CS30*%
%TO.N,CS30*%
X106670000Y-59256501D03*
%TO.P,U1,58,CS31*%
%TO.N,CS31*%
X106670000Y-58856501D03*
%TO.P,U1,59,CS32*%
%TO.N,CS32*%
X106670000Y-58456501D03*
%TO.P,U1,60,CS33*%
%TO.N,CS33*%
X106670000Y-58056501D03*
D21*
%TO.P,U1,61,EP*%
%TO.N,GND*%
X103100000Y-60856501D03*
%TD*%
D14*
%TO.P,R35,1*%
%TO.N,CS29*%
X109075000Y-59208501D03*
%TO.P,R35,2*%
%TO.N,S29*%
X110725000Y-59208501D03*
%TD*%
D11*
%TO.P,CN5,1,1*%
%TO.N,S36*%
X112350000Y-57056501D03*
%TO.P,CN5,2,2*%
%TO.N,S37*%
X114750000Y-57056501D03*
%TO.P,CN5,3,3*%
%TO.N,S35*%
X112350000Y-57456501D03*
%TO.P,CN5,4,4*%
%TO.N,S38*%
X114750000Y-57456501D03*
%TO.P,CN5,5,5*%
%TO.N,S34*%
X112350000Y-57856501D03*
%TO.P,CN5,6,6*%
%TO.N,S39*%
X114750000Y-57856501D03*
%TO.P,CN5,7,7*%
%TO.N,S33*%
X112350000Y-58256501D03*
%TO.P,CN5,8,8*%
%TO.N,GND*%
X114750000Y-58256501D03*
%TO.P,CN5,9,9*%
%TO.N,S32*%
X112350000Y-58656501D03*
%TO.P,CN5,10,10*%
%TO.N,GND*%
X114750000Y-58656501D03*
%TO.P,CN5,11,11*%
%TO.N,S31*%
X112350000Y-59056501D03*
%TO.P,CN5,12,12*%
%TO.N,GND*%
X114750000Y-59056501D03*
%TO.P,CN5,13,13*%
%TO.N,S30*%
X112350000Y-59456501D03*
%TO.P,CN5,14,14*%
%TO.N,GND*%
X114750000Y-59456501D03*
%TO.P,CN5,15,15*%
%TO.N,S29*%
X112350000Y-59856501D03*
%TO.P,CN5,16,16*%
%TO.N,GND*%
X114750000Y-59856501D03*
%TO.P,CN5,17,17*%
%TO.N,S28*%
X112350000Y-60256501D03*
%TO.P,CN5,18,18*%
%TO.N,GND*%
X114750000Y-60256501D03*
%TO.P,CN5,19,19*%
%TO.N,S27*%
X112350000Y-60656501D03*
%TO.P,CN5,20,20*%
%TO.N,GND*%
X114750000Y-60656501D03*
%TO.P,CN5,21,21*%
%TO.N,S26*%
X112350000Y-61056501D03*
%TO.P,CN5,22,22*%
%TO.N,GND*%
X114750000Y-61056501D03*
%TO.P,CN5,23,23*%
%TO.N,S25*%
X112350000Y-61456501D03*
%TO.P,CN5,24,24*%
%TO.N,GND*%
X114750000Y-61456501D03*
%TO.P,CN5,25,25*%
%TO.N,S24*%
X112350000Y-61856501D03*
%TO.P,CN5,26,26*%
%TO.N,GND*%
X114750000Y-61856501D03*
%TO.P,CN5,27,27*%
%TO.N,S23*%
X112350000Y-62256501D03*
%TO.P,CN5,28,28*%
%TO.N,GND*%
X114750000Y-62256501D03*
%TO.P,CN5,29,29*%
%TO.N,S22*%
X112350000Y-62656501D03*
%TO.P,CN5,30,30*%
%TO.N,GND*%
X114750000Y-62656501D03*
%TO.P,CN5,31,31*%
%TO.N,S21*%
X112350000Y-63056501D03*
%TO.P,CN5,32,32*%
%TO.N,GND*%
X114750000Y-63056501D03*
%TO.P,CN5,33,33*%
%TO.N,S20*%
X112350000Y-63456501D03*
%TO.P,CN5,34,34*%
%TO.N,GND*%
X114750000Y-63456501D03*
%TO.P,CN5,35,35*%
%TO.N,S19*%
X112350000Y-63856501D03*
%TO.P,CN5,36,36*%
%TO.N,GND*%
X114750000Y-63856501D03*
%TO.P,CN5,37,37*%
%TO.N,S18*%
X112350000Y-64256501D03*
%TO.P,CN5,38,38*%
%TO.N,GND*%
X114750000Y-64256501D03*
%TO.P,CN5,39,39*%
%TO.N,S17*%
X112350000Y-64656501D03*
%TO.P,CN5,40,40*%
%TO.N,GND*%
X114750000Y-64656501D03*
D12*
%TO.P,CN5,41,41*%
%TO.N,unconnected-(CN5-Pad41)*%
X112550000Y-65606501D03*
%TO.P,CN5,42,42*%
%TO.N,unconnected-(CN5-Pad42)*%
X114550000Y-65606501D03*
%TO.P,CN5,43,43*%
%TO.N,unconnected-(CN5-Pad43)*%
X112550000Y-56106501D03*
%TO.P,CN5,44,44*%
%TO.N,unconnected-(CN5-Pad44)*%
X114550000Y-56106501D03*
%TD*%
D22*
%TO.P,C2,1*%
%TO.N,VCC*%
X101220000Y-56208501D03*
%TO.P,C2,2*%
%TO.N,GND*%
X102180000Y-56208501D03*
%TD*%
D16*
%TO.P,R14,1*%
%TO.N,CS14*%
X100000000Y-67283501D03*
%TO.P,R14,2*%
%TO.N,S14*%
X100000000Y-68933501D03*
%TD*%
D22*
%TO.P,C1,1*%
%TO.N,VCC*%
X101220000Y-55208501D03*
%TO.P,C1,2*%
%TO.N,GND*%
X102180000Y-55208501D03*
%TD*%
D14*
%TO.P,R19,1*%
%TO.N,CS27*%
X109075000Y-62208501D03*
%TO.P,R19,2*%
%TO.N,S27*%
X110725000Y-62208501D03*
%TD*%
D15*
%TO.P,R5,1*%
%TO.N,CS5*%
X96825000Y-62208501D03*
%TO.P,R5,2*%
%TO.N,S5*%
X95175000Y-62208501D03*
%TD*%
%TO.P,R3,1*%
%TO.N,CS3*%
X96825000Y-59208501D03*
%TO.P,R3,2*%
%TO.N,S3*%
X95175000Y-59208501D03*
%TD*%
D10*
%TO.P,R29,1*%
%TO.N,CS35*%
X110500000Y-54433501D03*
%TO.P,R29,2*%
%TO.N,S35*%
X110500000Y-52783501D03*
%TD*%
D23*
%TO.P,R41,1*%
%TO.N,GND*%
X102210000Y-54208501D03*
%TO.P,R41,2*%
%TO.N,Net-(U1-ISET)*%
X101190000Y-54208501D03*
%TD*%
D16*
%TO.P,R23,1*%
%TO.N,CS23*%
X113500000Y-67283501D03*
%TO.P,R23,2*%
%TO.N,S23*%
X113500000Y-68933501D03*
%TD*%
%TO.P,R10,1*%
%TO.N,CS18*%
X106000000Y-67283501D03*
%TO.P,R10,2*%
%TO.N,S18*%
X106000000Y-68933501D03*
%TD*%
%TO.P,R11,1*%
%TO.N,CS17*%
X104500000Y-67283501D03*
%TO.P,R11,2*%
%TO.N,S17*%
X104500000Y-68933501D03*
%TD*%
%TO.P,R12,1*%
%TO.N,CS16*%
X103000000Y-67283501D03*
%TO.P,R12,2*%
%TO.N,S16*%
X103000000Y-68933501D03*
%TD*%
D24*
%TO.P,C7,1*%
%TO.N,SDB*%
X103200000Y-56188501D03*
%TO.P,C7,2*%
%TO.N,GND*%
X103200000Y-55228501D03*
%TD*%
D10*
%TO.P,R39,1*%
%TO.N,CS37*%
X107500000Y-54433501D03*
%TO.P,R39,2*%
%TO.N,S37*%
X107500000Y-52783501D03*
%TD*%
D24*
%TO.P,C5,1*%
%TO.N,VCC*%
X98200000Y-61188501D03*
%TO.P,C5,2*%
%TO.N,GND*%
X98200000Y-60228501D03*
%TD*%
D10*
%TO.P,R44,1*%
%TO.N,Net-(U1-ADDR)*%
X95400000Y-54533501D03*
%TO.P,R44,2*%
%TO.N,SDA*%
X95400000Y-52883501D03*
%TD*%
D18*
%TO.P,C4,1*%
%TO.N,VCC*%
X100180000Y-55208501D03*
%TO.P,C4,2*%
%TO.N,GND*%
X99220000Y-55208501D03*
%TD*%
D16*
%TO.P,R16,1*%
%TO.N,CS12*%
X97000000Y-67283501D03*
%TO.P,R16,2*%
%TO.N,S12*%
X97000000Y-68933501D03*
%TD*%
D14*
%TO.P,R36,1*%
%TO.N,CS28*%
X109075000Y-60708501D03*
%TO.P,R36,2*%
%TO.N,S28*%
X110725000Y-60708501D03*
%TD*%
D10*
%TO.P,R32,1*%
%TO.N,CS32*%
X115000000Y-54433501D03*
%TO.P,R32,2*%
%TO.N,S32*%
X115000000Y-52783501D03*
%TD*%
D16*
%TO.P,R26,1*%
%TO.N,CS20*%
X109000000Y-67283501D03*
%TO.P,R26,2*%
%TO.N,S20*%
X109000000Y-68933501D03*
%TD*%
D10*
%TO.P,R31,1*%
%TO.N,CS33*%
X113500000Y-54433501D03*
%TO.P,R31,2*%
%TO.N,S33*%
X113500000Y-52783501D03*
%TD*%
D16*
%TO.P,R15,1*%
%TO.N,CS13*%
X98500000Y-67283501D03*
%TO.P,R15,2*%
%TO.N,S13*%
X98500000Y-68933501D03*
%TD*%
%TO.P,R8,1*%
%TO.N,CS8*%
X91000000Y-67283501D03*
%TO.P,R8,2*%
%TO.N,S8*%
X91000000Y-68933501D03*
%TD*%
D10*
%TO.P,R45,1*%
%TO.N,Net-(U1-ADDR)*%
X97400000Y-54533501D03*
%TO.P,R45,2*%
%TO.N,VCC*%
X97400000Y-52883501D03*
%TD*%
D25*
%TO.N,SCL*%
X102300000Y-57276501D03*
X100982000Y-52433501D03*
X93400000Y-52883501D03*
%TO.N,GND*%
X103100000Y-60856501D03*
X104600000Y-60856501D03*
X107850000Y-60058501D03*
X106324000Y-64069501D03*
X103100000Y-58508501D03*
X99050000Y-53958501D03*
X111750000Y-55558501D03*
X103100000Y-63008501D03*
X107798000Y-56838501D03*
X107850000Y-57358501D03*
X102210000Y-54208501D03*
X97572000Y-63993501D03*
X103750000Y-67158501D03*
X112350000Y-55258501D03*
X109950000Y-63758501D03*
X104600000Y-62008501D03*
X98200000Y-60228501D03*
X91400000Y-52883501D03*
X103100000Y-62008501D03*
X95950000Y-62058501D03*
X103100000Y-59508501D03*
X91150000Y-60256501D03*
X98435000Y-57491501D03*
X90305000Y-63431501D03*
X101600000Y-63008501D03*
X105250000Y-67158501D03*
X92050000Y-59403501D03*
X92693000Y-63037501D03*
X100850000Y-53258501D03*
X102180000Y-55208501D03*
X101600000Y-60856501D03*
X106036000Y-53553501D03*
X104462000Y-53579501D03*
X90992000Y-68114501D03*
X105500000Y-60856501D03*
X98550000Y-64058501D03*
X100700000Y-60856501D03*
X101600000Y-59508501D03*
X98112000Y-64786501D03*
X105500000Y-59508501D03*
X97654000Y-57927501D03*
X114750000Y-62656501D03*
X100700000Y-62008501D03*
X104600000Y-59508501D03*
X91972000Y-60295501D03*
X93550000Y-59456501D03*
X94350000Y-53058501D03*
X107911000Y-59216501D03*
X91560000Y-62348501D03*
X103200000Y-55228501D03*
X95950000Y-59258501D03*
X105500000Y-58508501D03*
X107020000Y-64914501D03*
X103250000Y-52358501D03*
X109864000Y-65180501D03*
X105250000Y-65558501D03*
X101500000Y-57276501D03*
X115459000Y-64422501D03*
X100700000Y-59508501D03*
X101600000Y-58508501D03*
X99372000Y-64781501D03*
X91707000Y-56712501D03*
X115511000Y-66339501D03*
X107450000Y-60058501D03*
X100700000Y-58508501D03*
X114950000Y-66358501D03*
X108401000Y-65076501D03*
X109850000Y-60658501D03*
X100700000Y-63008501D03*
X90285000Y-66016501D03*
X99220000Y-55208501D03*
X102300000Y-64436501D03*
X114750000Y-59056501D03*
X102180000Y-56208501D03*
X115434000Y-62104501D03*
X105500000Y-62008501D03*
X91150000Y-63056501D03*
X105500000Y-63008501D03*
X99220000Y-56208501D03*
X109950000Y-59158501D03*
X114750000Y-60656501D03*
X91150000Y-61456501D03*
X114750000Y-64656501D03*
X106750000Y-67158501D03*
X109850000Y-62058501D03*
X113359000Y-60025501D03*
X92470000Y-68082501D03*
X98200000Y-63188501D03*
X101600000Y-62008501D03*
X97565000Y-59044501D03*
X106670000Y-60056501D03*
X90379000Y-61204501D03*
X92710000Y-60218501D03*
X91150000Y-62256501D03*
X92249000Y-64206501D03*
X104600000Y-58508501D03*
X104600000Y-63008501D03*
%TO.N,SDA*%
X101799000Y-52835501D03*
X102700000Y-57276501D03*
X95400000Y-52883501D03*
%TO.N,VCC*%
X100500000Y-55508501D03*
X98665000Y-61536501D03*
X100100000Y-55508501D03*
X98650000Y-61958501D03*
X100900000Y-55508501D03*
X100900000Y-55108501D03*
X97400000Y-53408501D03*
X98119000Y-61648501D03*
X100500000Y-55108501D03*
X100100000Y-55108501D03*
%TO.N,SW1*%
X99530000Y-58056501D03*
X92763000Y-59087501D03*
%TO.N,INTB*%
X103500000Y-57276501D03*
X108700000Y-56958501D03*
%TO.N,SW3*%
X99530000Y-58856501D03*
X92442000Y-56956499D03*
%TO.N,Net-(U1-ISET)*%
X101100000Y-57276501D03*
X101190000Y-54208501D03*
%TO.N,SW5*%
X93550000Y-59856501D03*
X99530000Y-59656501D03*
%TO.N,CS2*%
X99530000Y-62456501D03*
X96825000Y-57708501D03*
%TO.N,SW2*%
X92897998Y-56960197D03*
X99530000Y-58456501D03*
%TO.N,SW7*%
X93550000Y-63856501D03*
X99530000Y-60456501D03*
%TO.N,SW9*%
X91150000Y-64256501D03*
X99530000Y-61256501D03*
%TO.N,CS1*%
X99530000Y-62056501D03*
X96825000Y-56208501D03*
%TO.N,SW4*%
X93107002Y-57856501D03*
X99530000Y-59256501D03*
%TO.N,CS32*%
X106670000Y-58456501D03*
X113683000Y-58492501D03*
%TO.N,SDB*%
X106700000Y-56958501D03*
X103200000Y-56188501D03*
X101900000Y-57276501D03*
%TO.N,CS3*%
X96825000Y-59208501D03*
X99530000Y-62856501D03*
%TO.N,CS33*%
X113500000Y-55079501D03*
X106670000Y-58056501D03*
%TO.N,CS8*%
X91000000Y-66716499D03*
X101100000Y-64436501D03*
%TO.N,SW8*%
X99530000Y-60856501D03*
X91150000Y-64656501D03*
%TO.N,CS21*%
X110500000Y-67283501D03*
X106670000Y-63256501D03*
%TO.N,SW6*%
X93550000Y-61856501D03*
X99530000Y-60056501D03*
%TO.N,S1*%
X92355000Y-56115501D03*
X90458000Y-59161501D03*
%TO.N,S2*%
X92326000Y-58736501D03*
X95175000Y-57708501D03*
%TO.N,S9*%
X91150000Y-63456501D03*
X92500000Y-68933501D03*
%TO.N,S18*%
X106000000Y-68933501D03*
X112350000Y-64256501D03*
%TO.N,S17*%
X104500000Y-68933501D03*
X112350000Y-64656501D03*
%TO.N,S16*%
X93550000Y-60256501D03*
X103000000Y-68933501D03*
%TO.N,S15*%
X101500000Y-68933501D03*
X92457000Y-60655501D03*
%TO.N,S14*%
X92450000Y-61056501D03*
X100000000Y-68933501D03*
%TO.N,S13*%
X92445000Y-61456501D03*
X98500000Y-68933501D03*
%TO.N,S12*%
X97000000Y-68933501D03*
X93550000Y-62256501D03*
%TO.N,S11*%
X95500000Y-68933501D03*
X93550000Y-62656501D03*
%TO.N,S10*%
X93550000Y-63056501D03*
X94000000Y-68933501D03*
%TO.N,S24*%
X115000000Y-68933501D03*
X112350000Y-61856501D03*
%TO.N,S23*%
X112350000Y-62256501D03*
X113500000Y-68933501D03*
%TO.N,S22*%
X112350000Y-62656501D03*
X112000000Y-68933501D03*
%TO.N,S21*%
X112350000Y-63056501D03*
X110500000Y-68933501D03*
%TO.N,S20*%
X109000000Y-68933501D03*
X112350000Y-63456501D03*
%TO.N,S19*%
X107500000Y-68933501D03*
X112350000Y-63856501D03*
%TO.N,S36*%
X112350000Y-57056501D03*
X109000000Y-52783501D03*
%TO.N,S35*%
X112350000Y-57456501D03*
X110500000Y-52783501D03*
%TO.N,S34*%
X112350000Y-57856501D03*
X112000000Y-52783501D03*
%TO.N,S39*%
X104500000Y-52783501D03*
X114750000Y-57856501D03*
%TO.N,S38*%
X106000000Y-52783501D03*
X114750000Y-57456501D03*
%TO.N,S37*%
X107500000Y-52783501D03*
X114750000Y-57056501D03*
%TO.N,Net-(U1-ADDR)*%
X103100000Y-57276501D03*
X97400000Y-54533501D03*
%TD*%
D26*
%TO.N,VCC*%
X100180000Y-55208501D02*
X100180000Y-54135501D01*
D27*
X97400000Y-52883501D02*
X97400000Y-53408501D01*
D26*
X100180000Y-54135501D02*
X100599000Y-53716501D01*
X102682000Y-53716501D02*
X103200000Y-53198501D01*
X100599000Y-53716501D02*
X102682000Y-53716501D01*
%TO.N,CS16*%
X103000000Y-66733501D02*
X103000000Y-67283501D01*
X104700000Y-64436501D02*
X104700000Y-65033501D01*
X104700000Y-65033501D02*
X103000000Y-66733501D01*
D28*
%TO.N,SW1*%
X92763000Y-58712467D02*
X92763000Y-59087501D01*
X91150000Y-58256501D02*
X92307034Y-58256501D01*
X92307034Y-58256501D02*
X92763000Y-58712467D01*
D26*
%TO.N,CS14*%
X103900000Y-64436501D02*
X103900000Y-65042501D01*
X103900000Y-65042501D02*
X102223500Y-66719001D01*
X100564500Y-66719001D02*
X100000000Y-67283501D01*
X102223500Y-66719001D02*
X100564500Y-66719001D01*
%TO.N,CS23*%
X112565500Y-66349001D02*
X113500000Y-67283501D01*
X107826500Y-65465121D02*
X108710380Y-66349001D01*
X107826500Y-62596501D02*
X107826500Y-65465121D01*
X108710380Y-66349001D02*
X112565500Y-66349001D01*
X106670000Y-62456501D02*
X107686500Y-62456501D01*
X107686500Y-62456501D02*
X107826500Y-62596501D01*
%TO.N,CS38*%
X104300000Y-57276501D02*
X104300000Y-56133501D01*
X104300000Y-56133501D02*
X106000000Y-54433501D01*
%TO.N,CS15*%
X104300000Y-64987479D02*
X102340478Y-66947001D01*
X104300000Y-64436501D02*
X104300000Y-64987479D01*
X102064000Y-66947001D02*
X101836500Y-66947001D01*
X101758000Y-67283501D02*
X101500000Y-67283501D01*
X102064000Y-66947001D02*
X102064000Y-66977501D01*
X101836500Y-66947001D02*
X101500000Y-67283501D01*
X102340478Y-66947001D02*
X102064000Y-66947001D01*
X102064000Y-66977501D02*
X101758000Y-67283501D01*
%TO.N,CS4*%
X99530000Y-63256501D02*
X99012508Y-63256501D01*
X98500008Y-62744001D02*
X97648940Y-62744001D01*
X97389500Y-61273001D02*
X96825000Y-60708501D01*
X97389500Y-62484561D02*
X97389500Y-61273001D01*
X97648940Y-62744001D02*
X97389500Y-62484561D01*
X99012508Y-63256501D02*
X98500008Y-62744001D01*
%TO.N,CS30*%
X107644000Y-58931501D02*
X107319000Y-59256501D01*
X109075000Y-57708501D02*
X107921000Y-57708501D01*
X107921000Y-57708501D02*
X107644000Y-57985501D01*
X107644000Y-57985501D02*
X107644000Y-58931501D01*
X107319000Y-59256501D02*
X106670000Y-59256501D01*
D28*
%TO.N,SW3*%
X91150000Y-57056501D02*
X92341998Y-57056501D01*
X92341998Y-57056501D02*
X92442000Y-56956499D01*
D26*
%TO.N,CS5*%
X97160000Y-62956620D02*
X97859881Y-63656501D01*
X97160000Y-62543501D02*
X97160000Y-62799501D01*
X97859881Y-63656501D02*
X99530000Y-63656501D01*
X96825000Y-62208501D02*
X97160000Y-62543501D01*
X96825000Y-62459501D02*
X96825000Y-62208501D01*
X97160000Y-62799501D02*
X97160000Y-62794501D01*
X97160000Y-62799501D02*
X97160000Y-62956620D01*
X97160000Y-62794501D02*
X96825000Y-62459501D01*
%TO.N,CS17*%
X105100000Y-65044501D02*
X104500000Y-65644501D01*
X105100000Y-64436501D02*
X105100000Y-65044501D01*
X104500000Y-65644501D02*
X104500000Y-67283501D01*
%TO.N,CS31*%
X106670000Y-58856501D02*
X107273000Y-58856501D01*
X107273000Y-58856501D02*
X107416000Y-58713501D01*
X107416000Y-58713501D02*
X107416000Y-56720501D01*
X107416000Y-56720501D02*
X107928000Y-56208501D01*
X107928000Y-56208501D02*
X109075000Y-56208501D01*
%TO.N,CS24*%
X108054500Y-62308001D02*
X108054500Y-65370681D01*
X108804820Y-66121001D02*
X113837500Y-66121001D01*
X108054500Y-65370681D02*
X108804820Y-66121001D01*
X107803000Y-62056501D02*
X108054500Y-62308001D01*
X106670000Y-62056501D02*
X107803000Y-62056501D01*
X113837500Y-66121001D02*
X115000000Y-67283501D01*
%TO.N,CS10*%
X94564500Y-66719001D02*
X94000000Y-67283501D01*
X96198060Y-66263001D02*
X95742060Y-66719001D01*
X99000500Y-65807001D02*
X98544500Y-66263001D01*
X98544500Y-66263001D02*
X96198060Y-66263001D01*
X101143500Y-65807001D02*
X99000500Y-65807001D01*
X101900000Y-64436501D02*
X101900000Y-65050501D01*
X95742060Y-66719001D02*
X94564500Y-66719001D01*
X101900000Y-65050501D02*
X101143500Y-65807001D01*
%TO.N,SW5*%
X91150000Y-59856501D02*
X93550000Y-59856501D01*
%TO.N,CS12*%
X97564500Y-66719001D02*
X97000000Y-67283501D01*
X103100000Y-64436501D02*
X103100000Y-65044501D01*
X98742059Y-66719001D02*
X97564500Y-66719001D01*
X99198059Y-66263001D02*
X98742059Y-66719001D01*
X101881500Y-66263001D02*
X99198059Y-66263001D01*
X103100000Y-65044501D02*
X101881500Y-66263001D01*
%TO.N,CS37*%
X104700000Y-57276501D02*
X104700000Y-56148501D01*
X104700000Y-56148501D02*
X105850500Y-54998001D01*
X105850500Y-54998001D02*
X106935500Y-54998001D01*
X106935500Y-54998001D02*
X107500000Y-54433501D01*
%TO.N,CS29*%
X108526000Y-59208501D02*
X109075000Y-59208501D01*
X108078000Y-59656501D02*
X108526000Y-59208501D01*
X106670000Y-59656501D02*
X108078000Y-59656501D01*
D28*
%TO.N,SW2*%
X91150000Y-57456501D02*
X92401694Y-57456501D01*
X92401694Y-57456501D02*
X92897998Y-56960197D01*
D26*
%TO.N,CS34*%
X112000000Y-54433501D02*
X111207500Y-55226001D01*
X111207500Y-55226001D02*
X108852380Y-55226001D01*
X108852380Y-55226001D02*
X108624381Y-55454001D01*
X106366500Y-55682001D02*
X105900000Y-56148501D01*
X108396380Y-55682001D02*
X106366500Y-55682001D01*
X105900000Y-56148501D02*
X105900000Y-57276501D01*
X108624381Y-55454001D02*
X108396380Y-55682001D01*
%TO.N,SW7*%
X91150000Y-63856501D02*
X93550000Y-63856501D01*
%TO.N,CS39*%
X104500000Y-55535501D02*
X104500000Y-54433501D01*
X103900000Y-56135501D02*
X104500000Y-55535501D01*
X103900000Y-57276501D02*
X103900000Y-56135501D01*
%TO.N,CS26*%
X108510500Y-63144001D02*
X109075000Y-63708501D01*
X107800560Y-61256501D02*
X108510500Y-61966441D01*
X106670000Y-61256501D02*
X107800560Y-61256501D01*
X108510500Y-61966441D02*
X108510500Y-63144001D01*
%TO.N,CS28*%
X108109000Y-60456501D02*
X108361000Y-60708501D01*
X108361000Y-60708501D02*
X109075000Y-60708501D01*
X106670000Y-60456501D02*
X108109000Y-60456501D01*
%TO.N,CS20*%
X107370500Y-65654001D02*
X109000000Y-67283501D01*
X107370500Y-63799001D02*
X107370500Y-65654001D01*
X107228000Y-63656501D02*
X107370500Y-63799001D01*
X106670000Y-63656501D02*
X107228000Y-63656501D01*
%TO.N,SW4*%
X91150000Y-57856501D02*
X93107002Y-57856501D01*
%TO.N,CS32*%
X115000000Y-54433501D02*
X114960440Y-54433501D01*
X113771002Y-58492501D02*
X113683000Y-58492501D01*
X113773000Y-55620941D02*
X113773000Y-58490503D01*
X114960440Y-54433501D02*
X113773000Y-55620941D01*
X113773000Y-58490503D02*
X113771002Y-58492501D01*
%TO.N,SDB*%
X103674500Y-55714001D02*
X103200000Y-56188501D01*
X103200000Y-54218501D02*
X103674500Y-54693001D01*
X103674500Y-54693001D02*
X103674500Y-55714001D01*
%TO.N,CS22*%
X111293500Y-66577001D02*
X112000000Y-67283501D01*
X106670000Y-62856501D02*
X107484000Y-62856501D01*
X107598500Y-62971001D02*
X107598500Y-65559561D01*
X107484000Y-62856501D02*
X107598500Y-62971001D01*
X108615940Y-66577001D02*
X111293500Y-66577001D01*
X107598500Y-65559561D02*
X108615940Y-66577001D01*
%TO.N,CS19*%
X107500000Y-66639501D02*
X107500000Y-67283501D01*
X105900000Y-65039501D02*
X107500000Y-66639501D01*
X105900000Y-64436501D02*
X105900000Y-65039501D01*
%TO.N,CS36*%
X106027500Y-55226001D02*
X108207500Y-55226001D01*
X108207500Y-55226001D02*
X109000000Y-54433501D01*
X105100000Y-57276501D02*
X105100000Y-56153501D01*
X105100000Y-56153501D02*
X106027500Y-55226001D01*
%TO.N,CS27*%
X107723000Y-60856501D02*
X109075000Y-62208501D01*
X106670000Y-60856501D02*
X107723000Y-60856501D01*
%TO.N,CS9*%
X100969500Y-65579001D02*
X98906059Y-65579001D01*
X98906059Y-65579001D02*
X98450059Y-66035001D01*
X96103619Y-66035001D02*
X95647619Y-66491001D01*
X93292500Y-66491001D02*
X92500000Y-67283501D01*
X101500000Y-65048501D02*
X100969500Y-65579001D01*
X95647619Y-66491001D02*
X93292500Y-66491001D01*
X101500000Y-64436501D02*
X101500000Y-65048501D01*
X98450059Y-66035001D02*
X96103619Y-66035001D01*
%TO.N,CS33*%
X113500000Y-54433501D02*
X113500000Y-55079501D01*
%TO.N,CS13*%
X99292500Y-66491001D02*
X98500000Y-67283501D01*
X103500000Y-65038501D02*
X102047500Y-66491001D01*
X103500000Y-64436501D02*
X103500000Y-65038501D01*
X102047500Y-66491001D02*
X99292500Y-66491001D01*
%TO.N,CS18*%
X105500000Y-64436501D02*
X105500000Y-65043501D01*
X105500000Y-65043501D02*
X106000000Y-65543501D01*
X106000000Y-65543501D02*
X106000000Y-67283501D01*
%TO.N,CS25*%
X108282500Y-62060881D02*
X108282500Y-64416001D01*
X108282500Y-64416001D02*
X109075000Y-65208501D01*
X106670000Y-61656501D02*
X107878120Y-61656501D01*
X107878120Y-61656501D02*
X108282500Y-62060881D01*
%TO.N,CS8*%
X91000000Y-67283501D02*
X91000000Y-66716499D01*
%TO.N,CS11*%
X101713500Y-66035001D02*
X99103618Y-66035001D01*
X99103618Y-66035001D02*
X98647618Y-66491001D01*
X98647618Y-66491001D02*
X96292500Y-66491001D01*
X96292500Y-66491001D02*
X95500000Y-67283501D01*
X102700000Y-64436501D02*
X102700000Y-65048501D01*
X102700000Y-65048501D02*
X101713500Y-66035001D01*
%TO.N,CS7*%
X100384500Y-65351001D02*
X98811619Y-65351001D01*
X98355619Y-65807001D02*
X97423500Y-65807001D01*
X100700000Y-64436501D02*
X100700000Y-65035501D01*
X100700000Y-65035501D02*
X100384500Y-65351001D01*
X97423500Y-65807001D02*
X96825000Y-65208501D01*
X98811619Y-65351001D02*
X98355619Y-65807001D01*
%TO.N,CS6*%
X100300000Y-64437501D02*
X97499000Y-64437501D01*
X96825000Y-63763501D02*
X96825000Y-63708501D01*
X100300000Y-64436501D02*
X100300000Y-64437501D01*
X97499000Y-64437501D02*
X96825000Y-63763501D01*
%TO.N,CS35*%
X105500000Y-57276501D02*
X105500000Y-56153501D01*
X108757940Y-54998001D02*
X109935500Y-54998001D01*
X106199500Y-55454001D02*
X108301940Y-55454001D01*
X108301940Y-55454001D02*
X108757940Y-54998001D01*
X109935500Y-54998001D02*
X110500000Y-54433501D01*
X105500000Y-56153501D02*
X106199500Y-55454001D01*
%TO.N,SW6*%
X91150000Y-61856501D02*
X93550000Y-61856501D01*
%TO.N,S1*%
X92355000Y-56390501D02*
X92355000Y-56115501D01*
X94762500Y-56621001D02*
X95064500Y-56621001D01*
X92585500Y-56621001D02*
X92355000Y-56390501D01*
X95064500Y-56319001D02*
X95175000Y-56208501D01*
X95064500Y-56621001D02*
X95064500Y-56319001D01*
X91150000Y-59456501D02*
X90753000Y-59456501D01*
X90753000Y-59456501D02*
X90458000Y-59161501D01*
X95175000Y-56208501D02*
X94762500Y-56621001D01*
X94762500Y-56621001D02*
X92585500Y-56621001D01*
%TO.N,S2*%
X92006000Y-59056501D02*
X92326000Y-58736501D01*
X91150000Y-59056501D02*
X92006000Y-59056501D01*
%TO.N,S3*%
X95175000Y-59208501D02*
X95739500Y-58644001D01*
X95739500Y-55776979D02*
X95531522Y-55569001D01*
X90495000Y-55682501D02*
X90495000Y-58517501D01*
X90495000Y-58517501D02*
X90634000Y-58656501D01*
X90608500Y-55569001D02*
X90495000Y-55682501D01*
X90634000Y-58656501D02*
X91150000Y-58656501D01*
X95739500Y-58643001D02*
X95739500Y-55776979D01*
X95739000Y-58643501D02*
X95739500Y-58643001D01*
X95531522Y-55569001D02*
X90608500Y-55569001D01*
X95739500Y-58644001D02*
X95739000Y-58643501D01*
%TO.N,S6*%
X94021000Y-58256501D02*
X93550000Y-58256501D01*
X94154500Y-62688001D02*
X94154500Y-58390001D01*
X95175000Y-63708501D02*
X94154500Y-62688001D01*
X94154500Y-58390001D02*
X94021000Y-58256501D01*
%TO.N,S5*%
X94382500Y-57751001D02*
X94088000Y-57456501D01*
X94382500Y-61416001D02*
X94382500Y-57751001D01*
X94088000Y-57456501D02*
X93550000Y-57456501D01*
X95175000Y-62208501D02*
X94382500Y-61416001D01*
%TO.N,S4*%
X93550000Y-57056501D02*
X94107000Y-57056501D01*
X94610500Y-57560001D02*
X94610500Y-60144001D01*
X94610500Y-60144001D02*
X95175000Y-60708501D01*
X94107000Y-57056501D02*
X94610500Y-57560001D01*
%TO.N,S9*%
X91150000Y-63456501D02*
X93550000Y-63456501D01*
%TO.N,S8*%
X91729000Y-68204501D02*
X91729000Y-66741501D01*
X91729000Y-66741501D02*
X92344000Y-66126501D01*
X91000000Y-68933501D02*
X91729000Y-68204501D01*
X92344000Y-64705501D02*
X92793000Y-64256501D01*
X92344000Y-66126501D02*
X92344000Y-64705501D01*
X92793000Y-64256501D02*
X93550000Y-64256501D01*
%TO.N,S7*%
X94623000Y-64656501D02*
X95175000Y-65208501D01*
X93550000Y-64656501D02*
X94623000Y-64656501D01*
%TO.N,S15*%
X92895000Y-60656501D02*
X92894000Y-60655501D01*
X92894000Y-60655501D02*
X92457000Y-60655501D01*
X93550000Y-60656501D02*
X92895000Y-60656501D01*
%TO.N,S14*%
X93550000Y-61056501D02*
X92450000Y-61056501D01*
%TO.N,S13*%
X93550000Y-61456501D02*
X92445000Y-61456501D01*
%TO.N,S27*%
X111289500Y-60843001D02*
X111289500Y-61140023D01*
X111476000Y-60656501D02*
X111289500Y-60843001D01*
X112350000Y-60656501D02*
X111773022Y-60656501D01*
X111159511Y-61270012D02*
X110725000Y-61704523D01*
X111773022Y-60656501D02*
X111476000Y-60656501D01*
X111289500Y-61140023D02*
X111159511Y-61270012D01*
X110725000Y-61704523D02*
X110725000Y-62208501D01*
%TO.N,S26*%
X111289500Y-61571001D02*
X111289500Y-63144001D01*
X111289500Y-63144001D02*
X110725000Y-63708501D01*
X112350000Y-61056501D02*
X111804000Y-61056501D01*
X111804000Y-61056501D02*
X111289500Y-61571001D01*
%TO.N,S25*%
X111526000Y-64407501D02*
X110725000Y-65208501D01*
X112350000Y-61456501D02*
X111822000Y-61456501D01*
X111526000Y-61752501D02*
X111526000Y-64407501D01*
X111822000Y-61456501D02*
X111526000Y-61752501D01*
%TO.N,S33*%
X112350000Y-58256501D02*
X113116560Y-58256501D01*
X112754000Y-53529501D02*
X113500000Y-52783501D01*
X113317000Y-55522501D02*
X112754000Y-54959501D01*
X113317000Y-58056061D02*
X113317000Y-55522501D01*
X112754000Y-54959501D02*
X112754000Y-53529501D01*
X113116560Y-58256501D02*
X113317000Y-58056061D01*
%TO.N,S32*%
X113039000Y-58656501D02*
X112350000Y-58656501D01*
X113545000Y-58150501D02*
X113039000Y-58656501D01*
X114265000Y-54806501D02*
X113545000Y-55526501D01*
X115000000Y-52783501D02*
X114265000Y-53518501D01*
X114265000Y-53518501D02*
X114265000Y-54806501D01*
X113545000Y-55526501D02*
X113545000Y-58150501D01*
%TO.N,S31*%
X112350000Y-59056501D02*
X111736000Y-59056501D01*
X111736000Y-59056501D02*
X111517500Y-58838001D01*
X111517500Y-57001001D02*
X110725000Y-56208501D01*
X111517500Y-58838001D02*
X111517500Y-57001001D01*
%TO.N,S30*%
X112350000Y-59456501D02*
X111551000Y-59456501D01*
X111289500Y-58273001D02*
X110725000Y-57708501D01*
X111551000Y-59456501D02*
X111289500Y-59195001D01*
X111289500Y-59195001D02*
X111289500Y-58273001D01*
%TO.N,S29*%
X112350000Y-59856501D02*
X111373000Y-59856501D01*
X111373000Y-59856501D02*
X110725000Y-59208501D01*
%TO.N,S28*%
X111177000Y-60256501D02*
X110725000Y-60708501D01*
X112350000Y-60256501D02*
X111177000Y-60256501D01*
D29*
%TO.N,Net-(U1-ADDR)*%
X91400000Y-54533501D02*
X93400000Y-54533501D01*
X95400000Y-54533501D02*
X97400000Y-54533501D01*
X93400000Y-54533501D02*
X95400000Y-54533501D01*
%TD*%
%TA.AperFunction,Conductor*%
%TO.N,VCC*%
G36*
X101204352Y-54912853D02*
G01*
X101485648Y-55194149D01*
X101500000Y-55228797D01*
X101500000Y-56088205D01*
X101485648Y-56122853D01*
X100800000Y-56808500D01*
X100800000Y-57702501D01*
X100785648Y-57737149D01*
X100751000Y-57751501D01*
X100219296Y-57751501D01*
X100184648Y-57737149D01*
X99914352Y-57466853D01*
X99900000Y-57432205D01*
X99900000Y-55228797D01*
X99914352Y-55194149D01*
X100195648Y-54912853D01*
X100230296Y-54898501D01*
X101169704Y-54898501D01*
X101204352Y-54912853D01*
G37*
%TD.AperFunction*%
%TD*%
%TA.AperFunction,Conductor*%
%TO.N,VCC*%
G36*
X98421352Y-60922853D02*
G01*
X99055000Y-61556501D01*
X99956000Y-61556501D01*
X99990648Y-61570853D01*
X100005000Y-61605501D01*
X100005000Y-61707501D01*
X99990648Y-61742149D01*
X99956000Y-61756501D01*
X99056000Y-61756501D01*
X98318352Y-62494149D01*
X98283704Y-62508501D01*
X98220296Y-62508501D01*
X98185648Y-62494149D01*
X97905352Y-62213853D01*
X97891000Y-62179205D01*
X97891000Y-61237797D01*
X97905352Y-61203149D01*
X98185648Y-60922853D01*
X98220296Y-60908501D01*
X98386704Y-60908501D01*
X98421352Y-60922853D01*
G37*
%TD.AperFunction*%
%TD*%
%TA.AperFunction,Conductor*%
%TO.N,GND*%
G36*
X108302148Y-64667580D02*
G01*
X108560148Y-64925580D01*
X108574500Y-64960228D01*
X108574500Y-65528359D01*
X108574501Y-65528374D01*
X108575389Y-65536026D01*
X108565123Y-65572096D01*
X108532358Y-65590343D01*
X108496288Y-65580077D01*
X108492067Y-65576317D01*
X108232852Y-65317102D01*
X108218500Y-65282454D01*
X108218500Y-64702228D01*
X108232852Y-64667580D01*
X108267500Y-64653228D01*
X108302148Y-64667580D01*
G37*
%TD.AperFunction*%
%TA.AperFunction,Conductor*%
G36*
X97409147Y-63437698D02*
G01*
X97718052Y-63746603D01*
X97718055Y-63746607D01*
X97718056Y-63746607D01*
X97720847Y-63749398D01*
X97720848Y-63749400D01*
X97766982Y-63795534D01*
X97781140Y-63801398D01*
X97781141Y-63801399D01*
X97781142Y-63801399D01*
X97827259Y-63820502D01*
X97827261Y-63820502D01*
X97898204Y-63820502D01*
X97898212Y-63820501D01*
X98955023Y-63820501D01*
X98982246Y-63828759D01*
X98982542Y-63828956D01*
X98982543Y-63828958D01*
X99015787Y-63851170D01*
X99045101Y-63857001D01*
X100014898Y-63857000D01*
X100044213Y-63851170D01*
X100044218Y-63851166D01*
X100045189Y-63850765D01*
X100046245Y-63850765D01*
X100048946Y-63850228D01*
X100049052Y-63850765D01*
X100082692Y-63850767D01*
X100109210Y-63877286D01*
X100109208Y-63914789D01*
X100105777Y-63921208D01*
X100105330Y-63922288D01*
X100099500Y-63951596D01*
X100099500Y-64224501D01*
X100085148Y-64259149D01*
X100050500Y-64273501D01*
X97587227Y-64273501D01*
X97552579Y-64259149D01*
X97339851Y-64046421D01*
X97325499Y-64011775D01*
X97325499Y-63472345D01*
X97339851Y-63437698D01*
X97374499Y-63423346D01*
X97409147Y-63437698D01*
G37*
%TD.AperFunction*%
%TA.AperFunction,Conductor*%
G36*
X97407649Y-62734641D02*
G01*
X97507111Y-62834103D01*
X97507114Y-62834107D01*
X97507115Y-62834107D01*
X97509906Y-62836898D01*
X97509907Y-62836900D01*
X97556041Y-62883034D01*
X97576263Y-62891410D01*
X97616319Y-62908002D01*
X97616321Y-62908002D01*
X97687263Y-62908002D01*
X97687271Y-62908001D01*
X98411781Y-62908001D01*
X98446429Y-62922353D01*
X98873474Y-63349398D01*
X98873475Y-63349400D01*
X98919609Y-63395534D01*
X98933537Y-63401303D01*
X98939586Y-63406581D01*
X98944624Y-63416735D01*
X98952639Y-63424750D01*
X98952639Y-63432885D01*
X98956256Y-63440175D01*
X98952639Y-63450917D01*
X98952639Y-63462253D01*
X98946885Y-63468006D01*
X98944289Y-63475718D01*
X98934134Y-63480756D01*
X98926120Y-63488771D01*
X98912540Y-63491472D01*
X98910695Y-63492388D01*
X98909670Y-63492043D01*
X98907369Y-63492501D01*
X97948108Y-63492501D01*
X97913460Y-63478149D01*
X97338352Y-62903041D01*
X97324000Y-62868393D01*
X97324000Y-62832832D01*
X97324001Y-62832823D01*
X97324001Y-62769289D01*
X97338353Y-62734641D01*
X97373001Y-62720289D01*
X97407649Y-62734641D01*
G37*
%TD.AperFunction*%
%TA.AperFunction,Conductor*%
G36*
X92943482Y-58025339D02*
G01*
X92956030Y-58026911D01*
X92961773Y-58030178D01*
X92979266Y-58047671D01*
X93028008Y-58067860D01*
X93030660Y-58069369D01*
X93040436Y-58081943D01*
X93051700Y-58093207D01*
X93051700Y-58096431D01*
X93053679Y-58098977D01*
X93054489Y-58121517D01*
X93049500Y-58146602D01*
X93049500Y-58366395D01*
X93049501Y-58366399D01*
X93055331Y-58395714D01*
X93055331Y-58395715D01*
X93055332Y-58395716D01*
X93055332Y-58395717D01*
X93077542Y-58428957D01*
X93077543Y-58428958D01*
X93110787Y-58451170D01*
X93140101Y-58457001D01*
X93941500Y-58457000D01*
X93976148Y-58471352D01*
X93990500Y-58506000D01*
X93990500Y-59607001D01*
X93976148Y-59641649D01*
X93941500Y-59656001D01*
X93664957Y-59656001D01*
X93646206Y-59652271D01*
X93620562Y-59641649D01*
X93594856Y-59631001D01*
X93594855Y-59631001D01*
X93505145Y-59631001D01*
X93453792Y-59652271D01*
X93435041Y-59656001D01*
X93140105Y-59656001D01*
X93140104Y-59656001D01*
X93140102Y-59656002D01*
X93125444Y-59658917D01*
X93110785Y-59661832D01*
X93087141Y-59677630D01*
X93077543Y-59684044D01*
X93077542Y-59684044D01*
X93077246Y-59684243D01*
X93050023Y-59692501D01*
X91671671Y-59692501D01*
X91637023Y-59678149D01*
X91622671Y-59643501D01*
X91630929Y-59616278D01*
X91644669Y-59595714D01*
X91644669Y-59595713D01*
X91645455Y-59591765D01*
X91650500Y-59566400D01*
X91650499Y-59346603D01*
X91644669Y-59317288D01*
X91644667Y-59317285D01*
X91644667Y-59317284D01*
X91630929Y-59296723D01*
X91623613Y-59259941D01*
X91644449Y-59228759D01*
X91671671Y-59220501D01*
X91967669Y-59220501D01*
X91967677Y-59220502D01*
X91973378Y-59220502D01*
X92038621Y-59220502D01*
X92038622Y-59220502D01*
X92081243Y-59202846D01*
X92098899Y-59195534D01*
X92145033Y-59149400D01*
X92145033Y-59149399D01*
X92151920Y-59142512D01*
X92151921Y-59142509D01*
X92318081Y-58976351D01*
X92352728Y-58962001D01*
X92370853Y-58962001D01*
X92370855Y-58962001D01*
X92453736Y-58927671D01*
X92453737Y-58927669D01*
X92453739Y-58927669D01*
X92517168Y-58864240D01*
X92517168Y-58864239D01*
X92517170Y-58864237D01*
X92518229Y-58861678D01*
X92544747Y-58835159D01*
X92582249Y-58835157D01*
X92608769Y-58861675D01*
X92612500Y-58880428D01*
X92612500Y-58898798D01*
X92598148Y-58933446D01*
X92571830Y-58959764D01*
X92537501Y-59042642D01*
X92537500Y-59042644D01*
X92537500Y-59042646D01*
X92537500Y-59132356D01*
X92537500Y-59132358D01*
X92537501Y-59132359D01*
X92571830Y-59215237D01*
X92571832Y-59215240D01*
X92635261Y-59278669D01*
X92635263Y-59278670D01*
X92635264Y-59278671D01*
X92718145Y-59313001D01*
X92718147Y-59313001D01*
X92807853Y-59313001D01*
X92807855Y-59313001D01*
X92890736Y-59278671D01*
X92890737Y-59278669D01*
X92890739Y-59278669D01*
X92954168Y-59215240D01*
X92954168Y-59215238D01*
X92954170Y-59215237D01*
X92988500Y-59132356D01*
X92988500Y-59042646D01*
X92954170Y-58959765D01*
X92954169Y-58959764D01*
X92954168Y-58959762D01*
X92927852Y-58933446D01*
X92913500Y-58898798D01*
X92913500Y-58682533D01*
X92913499Y-58682529D01*
X92911053Y-58676623D01*
X92892984Y-58633002D01*
X92890587Y-58627215D01*
X92890585Y-58627213D01*
X92890585Y-58627212D01*
X92890584Y-58627211D01*
X92392288Y-58128914D01*
X92392286Y-58128913D01*
X92359882Y-58115491D01*
X92358140Y-58114769D01*
X92331624Y-58088250D01*
X92331626Y-58050747D01*
X92358146Y-58024230D01*
X92376895Y-58020501D01*
X92931800Y-58020501D01*
X92943482Y-58025339D01*
G37*
%TD.AperFunction*%
%TA.AperFunction,Conductor*%
G36*
X92134147Y-56181324D02*
G01*
X92144769Y-56197220D01*
X92152727Y-56216432D01*
X92163830Y-56243237D01*
X92177658Y-56257065D01*
X92178599Y-56258122D01*
X92184328Y-56274596D01*
X92191000Y-56290701D01*
X92191000Y-56353922D01*
X92190999Y-56353936D01*
X92190999Y-56357879D01*
X92190999Y-56423123D01*
X92205032Y-56457001D01*
X92215967Y-56483400D01*
X92262101Y-56529534D01*
X92262102Y-56529534D01*
X92268993Y-56536425D01*
X92268992Y-56536425D01*
X92268994Y-56536426D01*
X92392257Y-56659689D01*
X92406609Y-56694337D01*
X92392257Y-56728985D01*
X92376361Y-56739607D01*
X92314262Y-56765329D01*
X92314261Y-56765331D01*
X92250830Y-56828762D01*
X92249903Y-56831001D01*
X92235084Y-56866779D01*
X92231367Y-56875752D01*
X92204849Y-56902271D01*
X92186097Y-56906001D01*
X91663320Y-56906001D01*
X91628672Y-56891649D01*
X91622579Y-56884226D01*
X91622459Y-56884046D01*
X91622456Y-56884043D01*
X91589212Y-56861831D01*
X91559901Y-56856001D01*
X90740105Y-56856001D01*
X90740104Y-56856001D01*
X90740102Y-56856002D01*
X90717556Y-56860485D01*
X90680776Y-56853168D01*
X90659941Y-56821985D01*
X90659000Y-56812427D01*
X90659000Y-56600575D01*
X90673352Y-56565927D01*
X90708000Y-56551575D01*
X90717556Y-56552516D01*
X90740101Y-56557001D01*
X91959898Y-56557000D01*
X91989213Y-56551170D01*
X92022457Y-56528958D01*
X92044669Y-56495714D01*
X92050500Y-56466400D01*
X92050499Y-56215970D01*
X92064851Y-56181324D01*
X92099499Y-56166972D01*
X92134147Y-56181324D01*
G37*
%TD.AperFunction*%
%TA.AperFunction,Conductor*%
G36*
X108560149Y-56386853D02*
G01*
X108574501Y-56421501D01*
X108574501Y-56528369D01*
X108577415Y-56553493D01*
X108622794Y-56656267D01*
X108634673Y-56668146D01*
X108649025Y-56702794D01*
X108634673Y-56737442D01*
X108618777Y-56748064D01*
X108572262Y-56767331D01*
X108572261Y-56767333D01*
X108508830Y-56830764D01*
X108474501Y-56913642D01*
X108474500Y-56913644D01*
X108474500Y-56913646D01*
X108474500Y-57003356D01*
X108474500Y-57003358D01*
X108474501Y-57003359D01*
X108508830Y-57086237D01*
X108508832Y-57086240D01*
X108572261Y-57149669D01*
X108572262Y-57149669D01*
X108572264Y-57149671D01*
X108612652Y-57166400D01*
X108618777Y-57168937D01*
X108645295Y-57195456D01*
X108645295Y-57232959D01*
X108634674Y-57248854D01*
X108622794Y-57260734D01*
X108577415Y-57363507D01*
X108574500Y-57388635D01*
X108574500Y-57495501D01*
X108560148Y-57530149D01*
X108525500Y-57544501D01*
X107959331Y-57544501D01*
X107959323Y-57544500D01*
X107953622Y-57544500D01*
X107888378Y-57544500D01*
X107888376Y-57544500D01*
X107845756Y-57562155D01*
X107828100Y-57569468D01*
X107813483Y-57584086D01*
X107781967Y-57615602D01*
X107663648Y-57733921D01*
X107629000Y-57748273D01*
X107594352Y-57733921D01*
X107580000Y-57699273D01*
X107580000Y-56808728D01*
X107594352Y-56774080D01*
X107981580Y-56386853D01*
X108016228Y-56372501D01*
X108525501Y-56372501D01*
X108560149Y-56386853D01*
G37*
%TD.AperFunction*%
%TA.AperFunction,Conductor*%
G36*
X115935148Y-51873353D02*
G01*
X115949500Y-51908001D01*
X115949500Y-69809001D01*
X115935148Y-69843649D01*
X115900500Y-69858001D01*
X89999500Y-69858001D01*
X89964852Y-69843649D01*
X89950500Y-69809001D01*
X89950500Y-65246596D01*
X90649500Y-65246596D01*
X90649500Y-65966395D01*
X90649501Y-65966399D01*
X90655331Y-65995714D01*
X90655331Y-65995715D01*
X90655332Y-65995716D01*
X90655332Y-65995717D01*
X90677542Y-66028957D01*
X90677543Y-66028958D01*
X90710787Y-66051170D01*
X90740101Y-66057001D01*
X91959898Y-66057000D01*
X91989213Y-66051170D01*
X92022457Y-66028958D01*
X92044669Y-65995714D01*
X92050500Y-65966400D01*
X92050499Y-65246603D01*
X92044669Y-65217288D01*
X92044667Y-65217285D01*
X92044667Y-65217284D01*
X92022457Y-65184044D01*
X91989212Y-65161831D01*
X91959901Y-65156001D01*
X90740105Y-65156001D01*
X90740104Y-65156001D01*
X90740102Y-65156002D01*
X90710787Y-65161832D01*
X90710786Y-65161832D01*
X90710784Y-65161833D01*
X90710783Y-65161833D01*
X90677543Y-65184043D01*
X90655330Y-65217287D01*
X90655330Y-65217288D01*
X90649500Y-65246596D01*
X89950500Y-65246596D01*
X89950500Y-59116644D01*
X90232500Y-59116644D01*
X90232500Y-59116646D01*
X90232500Y-59206356D01*
X90232500Y-59206358D01*
X90232501Y-59206359D01*
X90266830Y-59289237D01*
X90266832Y-59289240D01*
X90330261Y-59352669D01*
X90330263Y-59352670D01*
X90330264Y-59352671D01*
X90413145Y-59387001D01*
X90431273Y-59387001D01*
X90465921Y-59401353D01*
X90613966Y-59549398D01*
X90613967Y-59549400D01*
X90644939Y-59580372D01*
X90644940Y-59580374D01*
X90652551Y-59591765D01*
X90652649Y-59591700D01*
X90655330Y-59595713D01*
X90655331Y-59595714D01*
X90677543Y-59628958D01*
X90677544Y-59628959D01*
X90677757Y-59629277D01*
X90685073Y-59666060D01*
X90677757Y-59683722D01*
X90655331Y-59717284D01*
X90655330Y-59717288D01*
X90649500Y-59746596D01*
X90649500Y-59966395D01*
X90649501Y-59966399D01*
X90655331Y-59995714D01*
X90655331Y-59995715D01*
X90655332Y-59995716D01*
X90655332Y-59995717D01*
X90671892Y-60020501D01*
X90677543Y-60028958D01*
X90710787Y-60051170D01*
X90740101Y-60057001D01*
X91559898Y-60057000D01*
X91589213Y-60051170D01*
X91622457Y-60028958D01*
X91622457Y-60028956D01*
X91622754Y-60028759D01*
X91649977Y-60020501D01*
X93028329Y-60020501D01*
X93062977Y-60034853D01*
X93077329Y-60069501D01*
X93069071Y-60096724D01*
X93055330Y-60117287D01*
X93055330Y-60117288D01*
X93049500Y-60146596D01*
X93049500Y-60366395D01*
X93049501Y-60366399D01*
X93055331Y-60395714D01*
X93055331Y-60395715D01*
X93055332Y-60395716D01*
X93055332Y-60395717D01*
X93069071Y-60416279D01*
X93071858Y-60430295D01*
X93077329Y-60443501D01*
X93075407Y-60448138D01*
X93076387Y-60453061D01*
X93068446Y-60464943D01*
X93062977Y-60478149D01*
X93058339Y-60480069D01*
X93055551Y-60484243D01*
X93028329Y-60492501D01*
X92936479Y-60492501D01*
X92926919Y-60491559D01*
X92926622Y-60491500D01*
X92861378Y-60491500D01*
X92855677Y-60491500D01*
X92855669Y-60491501D01*
X92632202Y-60491501D01*
X92597554Y-60477149D01*
X92597553Y-60477148D01*
X92584738Y-60464332D01*
X92584736Y-60464331D01*
X92501858Y-60430002D01*
X92501856Y-60430001D01*
X92501855Y-60430001D01*
X92412145Y-60430001D01*
X92412143Y-60430001D01*
X92412141Y-60430002D01*
X92329263Y-60464331D01*
X92265830Y-60527764D01*
X92231501Y-60610642D01*
X92231500Y-60610644D01*
X92231500Y-60610646D01*
X92231500Y-60700356D01*
X92231500Y-60700358D01*
X92231501Y-60700359D01*
X92265830Y-60783237D01*
X92265832Y-60783240D01*
X92300445Y-60817853D01*
X92314797Y-60852501D01*
X92300445Y-60887149D01*
X92258830Y-60928764D01*
X92224501Y-61011642D01*
X92224500Y-61011644D01*
X92224500Y-61011646D01*
X92224500Y-61101356D01*
X92224500Y-61101358D01*
X92224501Y-61101359D01*
X92258830Y-61184237D01*
X92258832Y-61184240D01*
X92293945Y-61219353D01*
X92308297Y-61254001D01*
X92293945Y-61288649D01*
X92253830Y-61328764D01*
X92219501Y-61411642D01*
X92219500Y-61411644D01*
X92219500Y-61411646D01*
X92219500Y-61501356D01*
X92219500Y-61501358D01*
X92219501Y-61501359D01*
X92253830Y-61584237D01*
X92253832Y-61584240D01*
X92278445Y-61608853D01*
X92292797Y-61643501D01*
X92278445Y-61678149D01*
X92243797Y-61692501D01*
X91649977Y-61692501D01*
X91622754Y-61684243D01*
X91622457Y-61684044D01*
X91590499Y-61662691D01*
X91589212Y-61661831D01*
X91559901Y-61656001D01*
X90740105Y-61656001D01*
X90740104Y-61656001D01*
X90740102Y-61656002D01*
X90710787Y-61661832D01*
X90710786Y-61661832D01*
X90710784Y-61661833D01*
X90710783Y-61661833D01*
X90677543Y-61684043D01*
X90655330Y-61717287D01*
X90655330Y-61717288D01*
X90649500Y-61746596D01*
X90649500Y-61966395D01*
X90649501Y-61966399D01*
X90655331Y-61995714D01*
X90655331Y-61995715D01*
X90655332Y-61995716D01*
X90655332Y-61995717D01*
X90663005Y-62007200D01*
X90677543Y-62028958D01*
X90710787Y-62051170D01*
X90740101Y-62057001D01*
X91559898Y-62057000D01*
X91589213Y-62051170D01*
X91622457Y-62028958D01*
X91622457Y-62028956D01*
X91622754Y-62028759D01*
X91649977Y-62020501D01*
X93028329Y-62020501D01*
X93062977Y-62034853D01*
X93077329Y-62069501D01*
X93069071Y-62096724D01*
X93055330Y-62117287D01*
X93055330Y-62117288D01*
X93049500Y-62146596D01*
X93049500Y-62366395D01*
X93049501Y-62366399D01*
X93050515Y-62371496D01*
X93055331Y-62395715D01*
X93055745Y-62396334D01*
X93077543Y-62428958D01*
X93077544Y-62428959D01*
X93077757Y-62429277D01*
X93085073Y-62466060D01*
X93077757Y-62483722D01*
X93055331Y-62517284D01*
X93055330Y-62517288D01*
X93049500Y-62546596D01*
X93049500Y-62766395D01*
X93049501Y-62766399D01*
X93053002Y-62784001D01*
X93055331Y-62795715D01*
X93057299Y-62798660D01*
X93077543Y-62828958D01*
X93077544Y-62828959D01*
X93077757Y-62829277D01*
X93085073Y-62866060D01*
X93077757Y-62883722D01*
X93055331Y-62917284D01*
X93055330Y-62917288D01*
X93049500Y-62946596D01*
X93049500Y-63166395D01*
X93049501Y-63166399D01*
X93055331Y-63195714D01*
X93055331Y-63195715D01*
X93055332Y-63195716D01*
X93055332Y-63195717D01*
X93069071Y-63216279D01*
X93076387Y-63253061D01*
X93055551Y-63284243D01*
X93028329Y-63292501D01*
X91649977Y-63292501D01*
X91622754Y-63284243D01*
X91622457Y-63284044D01*
X91595541Y-63266060D01*
X91589212Y-63261831D01*
X91559904Y-63256001D01*
X91559899Y-63256001D01*
X91264957Y-63256001D01*
X91246206Y-63252271D01*
X91222099Y-63242286D01*
X91194856Y-63231001D01*
X91194855Y-63231001D01*
X91105145Y-63231001D01*
X91053792Y-63252271D01*
X91035041Y-63256001D01*
X90740105Y-63256001D01*
X90740104Y-63256001D01*
X90740102Y-63256002D01*
X90710787Y-63261832D01*
X90710786Y-63261832D01*
X90710784Y-63261833D01*
X90710783Y-63261833D01*
X90677543Y-63284043D01*
X90655330Y-63317287D01*
X90655330Y-63317288D01*
X90649500Y-63346596D01*
X90649500Y-63566395D01*
X90649501Y-63566399D01*
X90653873Y-63588385D01*
X90655331Y-63595715D01*
X90665136Y-63610389D01*
X90677543Y-63628958D01*
X90677544Y-63628959D01*
X90677757Y-63629277D01*
X90685073Y-63666060D01*
X90677757Y-63683722D01*
X90655331Y-63717284D01*
X90655330Y-63717288D01*
X90649500Y-63746596D01*
X90649500Y-63966395D01*
X90649501Y-63966399D01*
X90653873Y-63988385D01*
X90655331Y-63995715D01*
X90665136Y-64010389D01*
X90677543Y-64028958D01*
X90677544Y-64028959D01*
X90677757Y-64029277D01*
X90685073Y-64066060D01*
X90677757Y-64083722D01*
X90655331Y-64117284D01*
X90655330Y-64117288D01*
X90649500Y-64146596D01*
X90649500Y-64366395D01*
X90649501Y-64366399D01*
X90653873Y-64388385D01*
X90655331Y-64395715D01*
X90665136Y-64410389D01*
X90677543Y-64428958D01*
X90677544Y-64428959D01*
X90677757Y-64429277D01*
X90685073Y-64466060D01*
X90677757Y-64483722D01*
X90655331Y-64517284D01*
X90655330Y-64517288D01*
X90649500Y-64546596D01*
X90649500Y-64766395D01*
X90649501Y-64766399D01*
X90655331Y-64795714D01*
X90655331Y-64795715D01*
X90655332Y-64795716D01*
X90655332Y-64795717D01*
X90671892Y-64820501D01*
X90677543Y-64828958D01*
X90710787Y-64851170D01*
X90740101Y-64857001D01*
X91035040Y-64857000D01*
X91053791Y-64860730D01*
X91089574Y-64875551D01*
X91105145Y-64882001D01*
X91105147Y-64882001D01*
X91194853Y-64882001D01*
X91194855Y-64882001D01*
X91246207Y-64860729D01*
X91264959Y-64857000D01*
X91559895Y-64857000D01*
X91559898Y-64857000D01*
X91589213Y-64851170D01*
X91622457Y-64828958D01*
X91644669Y-64795714D01*
X91650500Y-64766400D01*
X91650499Y-64546603D01*
X91644669Y-64517288D01*
X91644666Y-64517284D01*
X91630929Y-64496724D01*
X91622457Y-64484044D01*
X91622454Y-64484042D01*
X91622242Y-64483724D01*
X91614925Y-64446942D01*
X91622242Y-64429277D01*
X91622453Y-64428960D01*
X91622457Y-64428958D01*
X91644669Y-64395714D01*
X91650500Y-64366400D01*
X91650499Y-64146603D01*
X91644669Y-64117288D01*
X91644667Y-64117285D01*
X91644667Y-64117284D01*
X91630929Y-64096723D01*
X91623613Y-64059941D01*
X91644449Y-64028759D01*
X91671671Y-64020501D01*
X92687861Y-64020501D01*
X92722509Y-64034853D01*
X92736861Y-64069501D01*
X92722509Y-64104149D01*
X92719968Y-64106516D01*
X92713959Y-64111727D01*
X92700101Y-64117468D01*
X92653967Y-64163602D01*
X92653966Y-64163603D01*
X92652745Y-64164823D01*
X92652738Y-64164830D01*
X92451174Y-64366395D01*
X92251102Y-64566467D01*
X92251101Y-64566468D01*
X92233725Y-64583844D01*
X92204967Y-64612601D01*
X92200296Y-64623879D01*
X92179999Y-64672877D01*
X92179999Y-64743823D01*
X92180000Y-64743832D01*
X92180000Y-66038273D01*
X92165648Y-66072921D01*
X91589967Y-66648601D01*
X91589967Y-66648603D01*
X91564999Y-66708877D01*
X91564999Y-66779823D01*
X91565000Y-66779832D01*
X91565000Y-66830233D01*
X91550648Y-66864881D01*
X91516000Y-66879233D01*
X91481352Y-66864881D01*
X91447766Y-66831295D01*
X91447767Y-66831295D01*
X91344993Y-66785916D01*
X91319865Y-66783001D01*
X91274500Y-66783001D01*
X91239852Y-66768649D01*
X91225500Y-66734001D01*
X91225500Y-66671646D01*
X91225500Y-66671644D01*
X91191170Y-66588763D01*
X91191169Y-66588762D01*
X91191168Y-66588760D01*
X91127739Y-66525331D01*
X91127736Y-66525329D01*
X91044858Y-66491000D01*
X91044856Y-66490999D01*
X91044855Y-66490999D01*
X90955145Y-66490999D01*
X90955143Y-66490999D01*
X90955141Y-66491000D01*
X90872263Y-66525329D01*
X90808830Y-66588762D01*
X90774501Y-66671640D01*
X90774500Y-66671646D01*
X90774500Y-66734001D01*
X90760148Y-66768649D01*
X90725501Y-66783001D01*
X90680140Y-66783001D01*
X90680133Y-66783002D01*
X90655007Y-66785916D01*
X90552233Y-66831295D01*
X90472794Y-66910734D01*
X90427415Y-67013507D01*
X90424500Y-67038635D01*
X90424500Y-67528359D01*
X90424501Y-67528369D01*
X90427415Y-67553493D01*
X90472794Y-67656267D01*
X90552233Y-67735706D01*
X90655006Y-67781085D01*
X90655009Y-67781086D01*
X90680135Y-67784001D01*
X91319864Y-67784000D01*
X91344991Y-67781086D01*
X91447765Y-67735707D01*
X91447766Y-67735706D01*
X91481352Y-67702121D01*
X91516000Y-67687769D01*
X91550648Y-67702121D01*
X91565000Y-67736769D01*
X91565000Y-68116273D01*
X91550648Y-68150921D01*
X91282920Y-68418649D01*
X91248272Y-68433001D01*
X90680141Y-68433001D01*
X90680131Y-68433002D01*
X90655007Y-68435916D01*
X90552233Y-68481295D01*
X90472794Y-68560734D01*
X90427415Y-68663507D01*
X90424500Y-68688635D01*
X90424500Y-69178359D01*
X90424501Y-69178369D01*
X90427415Y-69203493D01*
X90472794Y-69306267D01*
X90552233Y-69385706D01*
X90655006Y-69431085D01*
X90655009Y-69431086D01*
X90680135Y-69434001D01*
X91319864Y-69434000D01*
X91344991Y-69431086D01*
X91447765Y-69385707D01*
X91527206Y-69306266D01*
X91572585Y-69203492D01*
X91575500Y-69178366D01*
X91575499Y-68688637D01*
X91575499Y-68688635D01*
X91924500Y-68688635D01*
X91924500Y-69178359D01*
X91924501Y-69178369D01*
X91927415Y-69203493D01*
X91972794Y-69306267D01*
X92052233Y-69385706D01*
X92155006Y-69431085D01*
X92155009Y-69431086D01*
X92180135Y-69434001D01*
X92819864Y-69434000D01*
X92844991Y-69431086D01*
X92947765Y-69385707D01*
X93027206Y-69306266D01*
X93072585Y-69203492D01*
X93075500Y-69178366D01*
X93075499Y-68688637D01*
X93075499Y-68688635D01*
X93424500Y-68688635D01*
X93424500Y-69178359D01*
X93424501Y-69178369D01*
X93427415Y-69203493D01*
X93472794Y-69306267D01*
X93552233Y-69385706D01*
X93655006Y-69431085D01*
X93655009Y-69431086D01*
X93680135Y-69434001D01*
X94319864Y-69434000D01*
X94344991Y-69431086D01*
X94447765Y-69385707D01*
X94527206Y-69306266D01*
X94572585Y-69203492D01*
X94575500Y-69178366D01*
X94575499Y-68688637D01*
X94575499Y-68688635D01*
X94924500Y-68688635D01*
X94924500Y-69178359D01*
X94924501Y-69178369D01*
X94927415Y-69203493D01*
X94972794Y-69306267D01*
X95052233Y-69385706D01*
X95155006Y-69431085D01*
X95155009Y-69431086D01*
X95180135Y-69434001D01*
X95819864Y-69434000D01*
X95844991Y-69431086D01*
X95947765Y-69385707D01*
X96027206Y-69306266D01*
X96072585Y-69203492D01*
X96075500Y-69178366D01*
X96075499Y-68688637D01*
X96075499Y-68688635D01*
X96424500Y-68688635D01*
X96424500Y-69178359D01*
X96424501Y-69178369D01*
X96427415Y-69203493D01*
X96472794Y-69306267D01*
X96552233Y-69385706D01*
X96655006Y-69431085D01*
X96655009Y-69431086D01*
X96680135Y-69434001D01*
X97319864Y-69434000D01*
X97344991Y-69431086D01*
X97447765Y-69385707D01*
X97527206Y-69306266D01*
X97572585Y-69203492D01*
X97575500Y-69178366D01*
X97575499Y-68688637D01*
X97575499Y-68688635D01*
X97924500Y-68688635D01*
X97924500Y-69178359D01*
X97924501Y-69178369D01*
X97927415Y-69203493D01*
X97972794Y-69306267D01*
X98052233Y-69385706D01*
X98155006Y-69431085D01*
X98155009Y-69431086D01*
X98180135Y-69434001D01*
X98819864Y-69434000D01*
X98844991Y-69431086D01*
X98947765Y-69385707D01*
X99027206Y-69306266D01*
X99072585Y-69203492D01*
X99075500Y-69178366D01*
X99075499Y-68688637D01*
X99075499Y-68688635D01*
X99424500Y-68688635D01*
X99424500Y-69178359D01*
X99424501Y-69178369D01*
X99427415Y-69203493D01*
X99472794Y-69306267D01*
X99552233Y-69385706D01*
X99655006Y-69431085D01*
X99655009Y-69431086D01*
X99680135Y-69434001D01*
X100319864Y-69434000D01*
X100344991Y-69431086D01*
X100447765Y-69385707D01*
X100527206Y-69306266D01*
X100572585Y-69203492D01*
X100575500Y-69178366D01*
X100575499Y-68688637D01*
X100575499Y-68688635D01*
X100924500Y-68688635D01*
X100924500Y-69178359D01*
X100924501Y-69178369D01*
X100927415Y-69203493D01*
X100972794Y-69306267D01*
X101052233Y-69385706D01*
X101155006Y-69431085D01*
X101155009Y-69431086D01*
X101180135Y-69434001D01*
X101819864Y-69434000D01*
X101844991Y-69431086D01*
X101947765Y-69385707D01*
X102027206Y-69306266D01*
X102072585Y-69203492D01*
X102075500Y-69178366D01*
X102075499Y-68688637D01*
X102075499Y-68688635D01*
X102424500Y-68688635D01*
X102424500Y-69178359D01*
X102424501Y-69178369D01*
X102427415Y-69203493D01*
X102472794Y-69306267D01*
X102552233Y-69385706D01*
X102655006Y-69431085D01*
X102655009Y-69431086D01*
X102680135Y-69434001D01*
X103319864Y-69434000D01*
X103344991Y-69431086D01*
X103447765Y-69385707D01*
X103527206Y-69306266D01*
X103572585Y-69203492D01*
X103575500Y-69178366D01*
X103575499Y-68688637D01*
X103575499Y-68688635D01*
X103924500Y-68688635D01*
X103924500Y-69178359D01*
X103924501Y-69178369D01*
X103927415Y-69203493D01*
X103972794Y-69306267D01*
X104052233Y-69385706D01*
X104155006Y-69431085D01*
X104155009Y-69431086D01*
X104180135Y-69434001D01*
X104819864Y-69434000D01*
X104844991Y-69431086D01*
X104947765Y-69385707D01*
X105027206Y-69306266D01*
X105072585Y-69203492D01*
X105075500Y-69178366D01*
X105075499Y-68688637D01*
X105075499Y-68688635D01*
X105424500Y-68688635D01*
X105424500Y-69178359D01*
X105424501Y-69178369D01*
X105427415Y-69203493D01*
X105472794Y-69306267D01*
X105552233Y-69385706D01*
X105655006Y-69431085D01*
X105655009Y-69431086D01*
X105680135Y-69434001D01*
X106319864Y-69434000D01*
X106344991Y-69431086D01*
X106447765Y-69385707D01*
X106527206Y-69306266D01*
X106572585Y-69203492D01*
X106575500Y-69178366D01*
X106575499Y-68688637D01*
X106575499Y-68688635D01*
X106924500Y-68688635D01*
X106924500Y-69178359D01*
X106924501Y-69178369D01*
X106927415Y-69203493D01*
X106972794Y-69306267D01*
X107052233Y-69385706D01*
X107155006Y-69431085D01*
X107155009Y-69431086D01*
X107180135Y-69434001D01*
X107819864Y-69434000D01*
X107844991Y-69431086D01*
X107947765Y-69385707D01*
X108027206Y-69306266D01*
X108072585Y-69203492D01*
X108075500Y-69178366D01*
X108075499Y-68688637D01*
X108075499Y-68688635D01*
X108424500Y-68688635D01*
X108424500Y-69178359D01*
X108424501Y-69178369D01*
X108427415Y-69203493D01*
X108472794Y-69306267D01*
X108552233Y-69385706D01*
X108655006Y-69431085D01*
X108655009Y-69431086D01*
X108680135Y-69434001D01*
X109319864Y-69434000D01*
X109344991Y-69431086D01*
X109447765Y-69385707D01*
X109527206Y-69306266D01*
X109572585Y-69203492D01*
X109575500Y-69178366D01*
X109575499Y-68688637D01*
X109575499Y-68688635D01*
X109924500Y-68688635D01*
X109924500Y-69178359D01*
X109924501Y-69178369D01*
X109927415Y-69203493D01*
X109972794Y-69306267D01*
X110052233Y-69385706D01*
X110155006Y-69431085D01*
X110155009Y-69431086D01*
X110180135Y-69434001D01*
X110819864Y-69434000D01*
X110844991Y-69431086D01*
X110947765Y-69385707D01*
X111027206Y-69306266D01*
X111072585Y-69203492D01*
X111075500Y-69178366D01*
X111075499Y-68688637D01*
X111075499Y-68688635D01*
X111424500Y-68688635D01*
X111424500Y-69178359D01*
X111424501Y-69178369D01*
X111427415Y-69203493D01*
X111472794Y-69306267D01*
X111552233Y-69385706D01*
X111655006Y-69431085D01*
X111655009Y-69431086D01*
X111680135Y-69434001D01*
X112319864Y-69434000D01*
X112344991Y-69431086D01*
X112447765Y-69385707D01*
X112527206Y-69306266D01*
X112572585Y-69203492D01*
X112575500Y-69178366D01*
X112575499Y-68688637D01*
X112575499Y-68688635D01*
X112924500Y-68688635D01*
X112924500Y-69178359D01*
X112924501Y-69178369D01*
X112927415Y-69203493D01*
X112972794Y-69306267D01*
X113052233Y-69385706D01*
X113155006Y-69431085D01*
X113155009Y-69431086D01*
X113180135Y-69434001D01*
X113819864Y-69434000D01*
X113844991Y-69431086D01*
X113947765Y-69385707D01*
X114027206Y-69306266D01*
X114072585Y-69203492D01*
X114075500Y-69178366D01*
X114075499Y-68688637D01*
X114075499Y-68688635D01*
X114424500Y-68688635D01*
X114424500Y-69178359D01*
X114424501Y-69178369D01*
X114427415Y-69203493D01*
X114472794Y-69306267D01*
X114552233Y-69385706D01*
X114655006Y-69431085D01*
X114655009Y-69431086D01*
X114680135Y-69434001D01*
X115319864Y-69434000D01*
X115344991Y-69431086D01*
X115447765Y-69385707D01*
X115527206Y-69306266D01*
X115572585Y-69203492D01*
X115575500Y-69178366D01*
X115575499Y-68688637D01*
X115572585Y-68663510D01*
X115527206Y-68560736D01*
X115527205Y-68560735D01*
X115527205Y-68560734D01*
X115447766Y-68481295D01*
X115447767Y-68481295D01*
X115344993Y-68435916D01*
X115332428Y-68434458D01*
X115319865Y-68433001D01*
X115319863Y-68433001D01*
X114680141Y-68433001D01*
X114680131Y-68433002D01*
X114655007Y-68435916D01*
X114552233Y-68481295D01*
X114472794Y-68560734D01*
X114427415Y-68663507D01*
X114424500Y-68688635D01*
X114075499Y-68688635D01*
X114072585Y-68663510D01*
X114027206Y-68560736D01*
X114027205Y-68560735D01*
X114027205Y-68560734D01*
X113947766Y-68481295D01*
X113947767Y-68481295D01*
X113844993Y-68435916D01*
X113832428Y-68434458D01*
X113819865Y-68433001D01*
X113819863Y-68433001D01*
X113180141Y-68433001D01*
X113180131Y-68433002D01*
X113155007Y-68435916D01*
X113052233Y-68481295D01*
X112972794Y-68560734D01*
X112927415Y-68663507D01*
X112924500Y-68688635D01*
X112575499Y-68688635D01*
X112572585Y-68663510D01*
X112527206Y-68560736D01*
X112527205Y-68560735D01*
X112527205Y-68560734D01*
X112447766Y-68481295D01*
X112447767Y-68481295D01*
X112344993Y-68435916D01*
X112332428Y-68434458D01*
X112319865Y-68433001D01*
X112319863Y-68433001D01*
X111680141Y-68433001D01*
X111680131Y-68433002D01*
X111655007Y-68435916D01*
X111552233Y-68481295D01*
X111472794Y-68560734D01*
X111427415Y-68663507D01*
X111424500Y-68688635D01*
X111075499Y-68688635D01*
X111072585Y-68663510D01*
X111027206Y-68560736D01*
X111027205Y-68560735D01*
X111027205Y-68560734D01*
X110947766Y-68481295D01*
X110947767Y-68481295D01*
X110844993Y-68435916D01*
X110832428Y-68434458D01*
X110819865Y-68433001D01*
X110819863Y-68433001D01*
X110180141Y-68433001D01*
X110180131Y-68433002D01*
X110155007Y-68435916D01*
X110052233Y-68481295D01*
X109972794Y-68560734D01*
X109927415Y-68663507D01*
X109924500Y-68688635D01*
X109575499Y-68688635D01*
X109572585Y-68663510D01*
X109527206Y-68560736D01*
X109527205Y-68560735D01*
X109527205Y-68560734D01*
X109447766Y-68481295D01*
X109447767Y-68481295D01*
X109344993Y-68435916D01*
X109332428Y-68434458D01*
X109319865Y-68433001D01*
X109319863Y-68433001D01*
X108680141Y-68433001D01*
X108680131Y-68433002D01*
X108655007Y-68435916D01*
X108552233Y-68481295D01*
X108472794Y-68560734D01*
X108427415Y-68663507D01*
X108424500Y-68688635D01*
X108075499Y-68688635D01*
X108072585Y-68663510D01*
X108027206Y-68560736D01*
X108027205Y-68560735D01*
X108027205Y-68560734D01*
X107947766Y-68481295D01*
X107947767Y-68481295D01*
X107844993Y-68435916D01*
X107832428Y-68434458D01*
X107819865Y-68433001D01*
X107819863Y-68433001D01*
X107180141Y-68433001D01*
X107180131Y-68433002D01*
X107155007Y-68435916D01*
X107052233Y-68481295D01*
X106972794Y-68560734D01*
X106927415Y-68663507D01*
X106924500Y-68688635D01*
X106575499Y-68688635D01*
X106572585Y-68663510D01*
X106527206Y-68560736D01*
X106527205Y-68560735D01*
X106527205Y-68560734D01*
X106447766Y-68481295D01*
X106447767Y-68481295D01*
X106344993Y-68435916D01*
X106332428Y-68434458D01*
X106319865Y-68433001D01*
X106319863Y-68433001D01*
X105680141Y-68433001D01*
X105680131Y-68433002D01*
X105655007Y-68435916D01*
X105552233Y-68481295D01*
X105472794Y-68560734D01*
X105427415Y-68663507D01*
X105424500Y-68688635D01*
X105075499Y-68688635D01*
X105072585Y-68663510D01*
X105027206Y-68560736D01*
X105027205Y-68560735D01*
X105027205Y-68560734D01*
X104947766Y-68481295D01*
X104947767Y-68481295D01*
X104844993Y-68435916D01*
X104832428Y-68434458D01*
X104819865Y-68433001D01*
X104819863Y-68433001D01*
X104180141Y-68433001D01*
X104180131Y-68433002D01*
X104155007Y-68435916D01*
X104052233Y-68481295D01*
X103972794Y-68560734D01*
X103927415Y-68663507D01*
X103924500Y-68688635D01*
X103575499Y-68688635D01*
X103572585Y-68663510D01*
X103527206Y-68560736D01*
X103527205Y-68560735D01*
X103527205Y-68560734D01*
X103447766Y-68481295D01*
X103447767Y-68481295D01*
X103344993Y-68435916D01*
X103332428Y-68434458D01*
X103319865Y-68433001D01*
X103319863Y-68433001D01*
X102680141Y-68433001D01*
X102680131Y-68433002D01*
X102655007Y-68435916D01*
X102552233Y-68481295D01*
X102472794Y-68560734D01*
X102427415Y-68663507D01*
X102424500Y-68688635D01*
X102075499Y-68688635D01*
X102072585Y-68663510D01*
X102027206Y-68560736D01*
X102027205Y-68560735D01*
X102027205Y-68560734D01*
X101947766Y-68481295D01*
X101947767Y-68481295D01*
X101844993Y-68435916D01*
X101832428Y-68434458D01*
X101819865Y-68433001D01*
X101819863Y-68433001D01*
X101180141Y-68433001D01*
X101180131Y-68433002D01*
X101155007Y-68435916D01*
X101052233Y-68481295D01*
X100972794Y-68560734D01*
X100927415Y-68663507D01*
X100924500Y-68688635D01*
X100575499Y-68688635D01*
X100572585Y-68663510D01*
X100527206Y-68560736D01*
X100527205Y-68560735D01*
X100527205Y-68560734D01*
X100447766Y-68481295D01*
X100447767Y-68481295D01*
X100344993Y-68435916D01*
X100332428Y-68434458D01*
X100319865Y-68433001D01*
X100319863Y-68433001D01*
X99680141Y-68433001D01*
X99680131Y-68433002D01*
X99655007Y-68435916D01*
X99552233Y-68481295D01*
X99472794Y-68560734D01*
X99427415Y-68663507D01*
X99424500Y-68688635D01*
X99075499Y-68688635D01*
X99072585Y-68663510D01*
X99027206Y-68560736D01*
X99027205Y-68560735D01*
X99027205Y-68560734D01*
X98947766Y-68481295D01*
X98947767Y-68481295D01*
X98844993Y-68435916D01*
X98832428Y-68434458D01*
X98819865Y-68433001D01*
X98819863Y-68433001D01*
X98180141Y-68433001D01*
X98180131Y-68433002D01*
X98155007Y-68435916D01*
X98052233Y-68481295D01*
X97972794Y-68560734D01*
X97927415Y-68663507D01*
X97924500Y-68688635D01*
X97575499Y-68688635D01*
X97572585Y-68663510D01*
X97527206Y-68560736D01*
X97527205Y-68560735D01*
X97527205Y-68560734D01*
X97447766Y-68481295D01*
X97447767Y-68481295D01*
X97344993Y-68435916D01*
X97332428Y-68434458D01*
X97319865Y-68433001D01*
X97319863Y-68433001D01*
X96680141Y-68433001D01*
X96680131Y-68433002D01*
X96655007Y-68435916D01*
X96552233Y-68481295D01*
X96472794Y-68560734D01*
X96427415Y-68663507D01*
X96424500Y-68688635D01*
X96075499Y-68688635D01*
X96072585Y-68663510D01*
X96027206Y-68560736D01*
X96027205Y-68560735D01*
X96027205Y-68560734D01*
X95947766Y-68481295D01*
X95947767Y-68481295D01*
X95844993Y-68435916D01*
X95832428Y-68434458D01*
X95819865Y-68433001D01*
X95819863Y-68433001D01*
X95180141Y-68433001D01*
X95180131Y-68433002D01*
X95155007Y-68435916D01*
X95052233Y-68481295D01*
X94972794Y-68560734D01*
X94927415Y-68663507D01*
X94924500Y-68688635D01*
X94575499Y-68688635D01*
X94572585Y-68663510D01*
X94527206Y-68560736D01*
X94527205Y-68560735D01*
X94527205Y-68560734D01*
X94447766Y-68481295D01*
X94447767Y-68481295D01*
X94344993Y-68435916D01*
X94332428Y-68434458D01*
X94319865Y-68433001D01*
X94319863Y-68433001D01*
X93680141Y-68433001D01*
X93680131Y-68433002D01*
X93655007Y-68435916D01*
X93552233Y-68481295D01*
X93472794Y-68560734D01*
X93427415Y-68663507D01*
X93424500Y-68688635D01*
X93075499Y-68688635D01*
X93072585Y-68663510D01*
X93027206Y-68560736D01*
X93027205Y-68560735D01*
X93027205Y-68560734D01*
X92947766Y-68481295D01*
X92947767Y-68481295D01*
X92844993Y-68435916D01*
X92832428Y-68434458D01*
X92819865Y-68433001D01*
X92819863Y-68433001D01*
X92180141Y-68433001D01*
X92180131Y-68433002D01*
X92155007Y-68435916D01*
X92052233Y-68481295D01*
X91972794Y-68560734D01*
X91927415Y-68663507D01*
X91924500Y-68688635D01*
X91575499Y-68688635D01*
X91572585Y-68663510D01*
X91564497Y-68645194D01*
X91563632Y-68607703D01*
X91574673Y-68590757D01*
X91815006Y-68350425D01*
X91815009Y-68350423D01*
X91821898Y-68343534D01*
X91821899Y-68343534D01*
X91868033Y-68297400D01*
X91878374Y-68272432D01*
X91893001Y-68237122D01*
X91893001Y-68171879D01*
X91893001Y-68167936D01*
X91893000Y-68167922D01*
X91893000Y-67694769D01*
X91907352Y-67660121D01*
X91942000Y-67645769D01*
X91976648Y-67660121D01*
X92052233Y-67735706D01*
X92155006Y-67781085D01*
X92155009Y-67781086D01*
X92180135Y-67784001D01*
X92819864Y-67784000D01*
X92844991Y-67781086D01*
X92947765Y-67735707D01*
X93027206Y-67656266D01*
X93072585Y-67553492D01*
X93075500Y-67528366D01*
X93075499Y-67038637D01*
X93072585Y-67013510D01*
X93064497Y-66995194D01*
X93063632Y-66957703D01*
X93074672Y-66940758D01*
X93346079Y-66669353D01*
X93380727Y-66655001D01*
X94278272Y-66655001D01*
X94312920Y-66669353D01*
X94327272Y-66704001D01*
X94312920Y-66738649D01*
X94282920Y-66768649D01*
X94248272Y-66783001D01*
X93680141Y-66783001D01*
X93680131Y-66783002D01*
X93655007Y-66785916D01*
X93552233Y-66831295D01*
X93472794Y-66910734D01*
X93427415Y-67013507D01*
X93424500Y-67038635D01*
X93424500Y-67528359D01*
X93424501Y-67528369D01*
X93427415Y-67553493D01*
X93472794Y-67656267D01*
X93552233Y-67735706D01*
X93655006Y-67781085D01*
X93655009Y-67781086D01*
X93680135Y-67784001D01*
X94319864Y-67784000D01*
X94344991Y-67781086D01*
X94447765Y-67735707D01*
X94527206Y-67656266D01*
X94572585Y-67553492D01*
X94575500Y-67528366D01*
X94575499Y-67038637D01*
X94572585Y-67013510D01*
X94564497Y-66995194D01*
X94564260Y-66984908D01*
X94560323Y-66975402D01*
X94563844Y-66966901D01*
X94563632Y-66957703D01*
X94574673Y-66940757D01*
X94618080Y-66897352D01*
X94652727Y-66883001D01*
X94909840Y-66883001D01*
X94944488Y-66897353D01*
X94958840Y-66932001D01*
X94954665Y-66951793D01*
X94927415Y-67013507D01*
X94924500Y-67038635D01*
X94924500Y-67528359D01*
X94924501Y-67528369D01*
X94927415Y-67553493D01*
X94972794Y-67656267D01*
X95052233Y-67735706D01*
X95155006Y-67781085D01*
X95155009Y-67781086D01*
X95180135Y-67784001D01*
X95819864Y-67784000D01*
X95844991Y-67781086D01*
X95947765Y-67735707D01*
X96027206Y-67656266D01*
X96072585Y-67553492D01*
X96075500Y-67528366D01*
X96075499Y-67038637D01*
X96072585Y-67013510D01*
X96064497Y-66995194D01*
X96063632Y-66957703D01*
X96074672Y-66940758D01*
X96346079Y-66669353D01*
X96380727Y-66655001D01*
X97278272Y-66655001D01*
X97312920Y-66669353D01*
X97327272Y-66704001D01*
X97312920Y-66738649D01*
X97282920Y-66768649D01*
X97248272Y-66783001D01*
X96680141Y-66783001D01*
X96680131Y-66783002D01*
X96655007Y-66785916D01*
X96552233Y-66831295D01*
X96472794Y-66910734D01*
X96427415Y-67013507D01*
X96424500Y-67038635D01*
X96424500Y-67528359D01*
X96424501Y-67528369D01*
X96427415Y-67553493D01*
X96472794Y-67656267D01*
X96552233Y-67735706D01*
X96655006Y-67781085D01*
X96655009Y-67781086D01*
X96680135Y-67784001D01*
X97319864Y-67784000D01*
X97344991Y-67781086D01*
X97447765Y-67735707D01*
X97527206Y-67656266D01*
X97572585Y-67553492D01*
X97575500Y-67528366D01*
X97575499Y-67038637D01*
X97572585Y-67013510D01*
X97564497Y-66995194D01*
X97564260Y-66984908D01*
X97560323Y-66975402D01*
X97563844Y-66966901D01*
X97563632Y-66957703D01*
X97574673Y-66940757D01*
X97618080Y-66897352D01*
X97652727Y-66883001D01*
X97909840Y-66883001D01*
X97944488Y-66897353D01*
X97958840Y-66932001D01*
X97954665Y-66951793D01*
X97927415Y-67013507D01*
X97924500Y-67038635D01*
X97924500Y-67528359D01*
X97924501Y-67528369D01*
X97927415Y-67553493D01*
X97972794Y-67656267D01*
X98052233Y-67735706D01*
X98155006Y-67781085D01*
X98155009Y-67781086D01*
X98180135Y-67784001D01*
X98819864Y-67784000D01*
X98844991Y-67781086D01*
X98947765Y-67735707D01*
X99027206Y-67656266D01*
X99072585Y-67553492D01*
X99075500Y-67528366D01*
X99075499Y-67038637D01*
X99072585Y-67013510D01*
X99064497Y-66995194D01*
X99063632Y-66957703D01*
X99074672Y-66940758D01*
X99346079Y-66669353D01*
X99380727Y-66655001D01*
X100278272Y-66655001D01*
X100312920Y-66669353D01*
X100327272Y-66704001D01*
X100312920Y-66738649D01*
X100282920Y-66768649D01*
X100248272Y-66783001D01*
X99680141Y-66783001D01*
X99680131Y-66783002D01*
X99655007Y-66785916D01*
X99552233Y-66831295D01*
X99472794Y-66910734D01*
X99427415Y-67013507D01*
X99424500Y-67038635D01*
X99424500Y-67528359D01*
X99424501Y-67528369D01*
X99427415Y-67553493D01*
X99472794Y-67656267D01*
X99552233Y-67735706D01*
X99655006Y-67781085D01*
X99655009Y-67781086D01*
X99680135Y-67784001D01*
X100319864Y-67784000D01*
X100344991Y-67781086D01*
X100447765Y-67735707D01*
X100527206Y-67656266D01*
X100572585Y-67553492D01*
X100575500Y-67528366D01*
X100575499Y-67038637D01*
X100572585Y-67013510D01*
X100564497Y-66995194D01*
X100564260Y-66984908D01*
X100560323Y-66975402D01*
X100563844Y-66966901D01*
X100563632Y-66957703D01*
X100574673Y-66940757D01*
X100618080Y-66897352D01*
X100652727Y-66883001D01*
X100909840Y-66883001D01*
X100944488Y-66897353D01*
X100958840Y-66932001D01*
X100954665Y-66951793D01*
X100927415Y-67013507D01*
X100924500Y-67038635D01*
X100924500Y-67528359D01*
X100924501Y-67528369D01*
X100927415Y-67553493D01*
X100972794Y-67656267D01*
X101052233Y-67735706D01*
X101155006Y-67781085D01*
X101155009Y-67781086D01*
X101180135Y-67784001D01*
X101819864Y-67784000D01*
X101844991Y-67781086D01*
X101947765Y-67735707D01*
X102027206Y-67656266D01*
X102072585Y-67553492D01*
X102075500Y-67528366D01*
X102075499Y-67218228D01*
X102089851Y-67183581D01*
X102148081Y-67125351D01*
X102182728Y-67111001D01*
X102302147Y-67111001D01*
X102302155Y-67111002D01*
X102375500Y-67111002D01*
X102410148Y-67125354D01*
X102424500Y-67160002D01*
X102424500Y-67528359D01*
X102424501Y-67528369D01*
X102427415Y-67553493D01*
X102472794Y-67656267D01*
X102552233Y-67735706D01*
X102655006Y-67781085D01*
X102655009Y-67781086D01*
X102680135Y-67784001D01*
X103319864Y-67784000D01*
X103344991Y-67781086D01*
X103447765Y-67735707D01*
X103527206Y-67656266D01*
X103572585Y-67553492D01*
X103575500Y-67528366D01*
X103575499Y-67038637D01*
X103572585Y-67013510D01*
X103527206Y-66910736D01*
X103527205Y-66910735D01*
X103527205Y-66910734D01*
X103447766Y-66831295D01*
X103447767Y-66831295D01*
X103344993Y-66785916D01*
X103319865Y-66783001D01*
X103300726Y-66783001D01*
X103266078Y-66768649D01*
X103251726Y-66734001D01*
X103266078Y-66699353D01*
X103746031Y-66219400D01*
X104252353Y-65713078D01*
X104287000Y-65698727D01*
X104321648Y-65713079D01*
X104336000Y-65747727D01*
X104336000Y-66734001D01*
X104321648Y-66768649D01*
X104287000Y-66783001D01*
X104180140Y-66783001D01*
X104180133Y-66783002D01*
X104155007Y-66785916D01*
X104052233Y-66831295D01*
X103972794Y-66910734D01*
X103927415Y-67013507D01*
X103924500Y-67038635D01*
X103924500Y-67528359D01*
X103924501Y-67528369D01*
X103927415Y-67553493D01*
X103972794Y-67656267D01*
X104052233Y-67735706D01*
X104155006Y-67781085D01*
X104155009Y-67781086D01*
X104180135Y-67784001D01*
X104819864Y-67784000D01*
X104844991Y-67781086D01*
X104947765Y-67735707D01*
X105027206Y-67656266D01*
X105072585Y-67553492D01*
X105075500Y-67528366D01*
X105075499Y-67038637D01*
X105072585Y-67013510D01*
X105027206Y-66910736D01*
X105027205Y-66910735D01*
X105027205Y-66910734D01*
X104947766Y-66831295D01*
X104947767Y-66831295D01*
X104844993Y-66785916D01*
X104819865Y-66783001D01*
X104713000Y-66783001D01*
X104678352Y-66768649D01*
X104664000Y-66734001D01*
X104664000Y-65732727D01*
X104678351Y-65698080D01*
X105186006Y-65190424D01*
X105186009Y-65190423D01*
X105192898Y-65183534D01*
X105192899Y-65183534D01*
X105239033Y-65137400D01*
X105246345Y-65119744D01*
X105254938Y-65098999D01*
X105281456Y-65072483D01*
X105318959Y-65072485D01*
X105345476Y-65099002D01*
X105354066Y-65119739D01*
X105360967Y-65136400D01*
X105407101Y-65182534D01*
X105407102Y-65182534D01*
X105413993Y-65189425D01*
X105413992Y-65189425D01*
X105413994Y-65189426D01*
X105821648Y-65597080D01*
X105836000Y-65631728D01*
X105836000Y-66734001D01*
X105821648Y-66768649D01*
X105787000Y-66783001D01*
X105680140Y-66783001D01*
X105680133Y-66783002D01*
X105655007Y-66785916D01*
X105552233Y-66831295D01*
X105472794Y-66910734D01*
X105427415Y-67013507D01*
X105424500Y-67038635D01*
X105424500Y-67528359D01*
X105424501Y-67528369D01*
X105427415Y-67553493D01*
X105472794Y-67656267D01*
X105552233Y-67735706D01*
X105655006Y-67781085D01*
X105655009Y-67781086D01*
X105680135Y-67784001D01*
X106319864Y-67784000D01*
X106344991Y-67781086D01*
X106447765Y-67735707D01*
X106527206Y-67656266D01*
X106572585Y-67553492D01*
X106575500Y-67528366D01*
X106575499Y-67038637D01*
X106572585Y-67013510D01*
X106527206Y-66910736D01*
X106527205Y-66910735D01*
X106527205Y-66910734D01*
X106447766Y-66831295D01*
X106447767Y-66831295D01*
X106344993Y-66785916D01*
X106319865Y-66783001D01*
X106213000Y-66783001D01*
X106178352Y-66768649D01*
X106164000Y-66734001D01*
X106164000Y-65653728D01*
X106178352Y-65619080D01*
X106213000Y-65604728D01*
X106247648Y-65619080D01*
X107321648Y-66693080D01*
X107336000Y-66727728D01*
X107336000Y-66734001D01*
X107321648Y-66768649D01*
X107287000Y-66783001D01*
X107180140Y-66783001D01*
X107180133Y-66783002D01*
X107155007Y-66785916D01*
X107052233Y-66831295D01*
X106972794Y-66910734D01*
X106927415Y-67013507D01*
X106924500Y-67038635D01*
X106924500Y-67528359D01*
X106924501Y-67528369D01*
X106927415Y-67553493D01*
X106972794Y-67656267D01*
X107052233Y-67735706D01*
X107155006Y-67781085D01*
X107155009Y-67781086D01*
X107180135Y-67784001D01*
X107819864Y-67784000D01*
X107844991Y-67781086D01*
X107947765Y-67735707D01*
X108027206Y-67656266D01*
X108072585Y-67553492D01*
X108075500Y-67528366D01*
X108075499Y-67038637D01*
X108072585Y-67013510D01*
X108027206Y-66910736D01*
X108027205Y-66910735D01*
X108027205Y-66910734D01*
X107947766Y-66831295D01*
X107947767Y-66831295D01*
X107844993Y-66785916D01*
X107819865Y-66783001D01*
X107713000Y-66783001D01*
X107678352Y-66768649D01*
X107664000Y-66734001D01*
X107664000Y-66677832D01*
X107664001Y-66677823D01*
X107664001Y-66606882D01*
X107664000Y-66606878D01*
X107645517Y-66562258D01*
X107642511Y-66555000D01*
X107639033Y-66546602D01*
X107592899Y-66500468D01*
X107592897Y-66500467D01*
X106102465Y-65010035D01*
X106088113Y-64975387D01*
X106094093Y-64955697D01*
X106092823Y-64955171D01*
X106094666Y-64950717D01*
X106094669Y-64950714D01*
X106100500Y-64921400D01*
X106100499Y-63951603D01*
X106094669Y-63922288D01*
X106094667Y-63922285D01*
X106092821Y-63917826D01*
X106094128Y-63917284D01*
X106088002Y-63886474D01*
X106108840Y-63855292D01*
X106145622Y-63847978D01*
X106154813Y-63850766D01*
X106155782Y-63851167D01*
X106155787Y-63851170D01*
X106185101Y-63857001D01*
X107154898Y-63857000D01*
X107157305Y-63857000D01*
X107157305Y-63858672D01*
X107188432Y-63867977D01*
X107206244Y-63900981D01*
X107206500Y-63905980D01*
X107206500Y-65617422D01*
X107206499Y-65617436D01*
X107206499Y-65621379D01*
X107206499Y-65686623D01*
X107221800Y-65723561D01*
X107231467Y-65746900D01*
X107277601Y-65793034D01*
X107277602Y-65793034D01*
X107284493Y-65799925D01*
X107284492Y-65799925D01*
X107284494Y-65799926D01*
X108425323Y-66940755D01*
X108439675Y-66975403D01*
X108435501Y-66995192D01*
X108427415Y-67013507D01*
X108424500Y-67038635D01*
X108424500Y-67528359D01*
X108424501Y-67528369D01*
X108427415Y-67553493D01*
X108472794Y-67656267D01*
X108552233Y-67735706D01*
X108655006Y-67781085D01*
X108655009Y-67781086D01*
X108680135Y-67784001D01*
X109319864Y-67784000D01*
X109344991Y-67781086D01*
X109447765Y-67735707D01*
X109527206Y-67656266D01*
X109572585Y-67553492D01*
X109575500Y-67528366D01*
X109575499Y-67038637D01*
X109572585Y-67013510D01*
X109527206Y-66910736D01*
X109527205Y-66910735D01*
X109527205Y-66910734D01*
X109447767Y-66831296D01*
X109446498Y-66830427D01*
X109445749Y-66829278D01*
X109444555Y-66828084D01*
X109444806Y-66827832D01*
X109426023Y-66799007D01*
X109433762Y-66762311D01*
X109465182Y-66741836D01*
X109474188Y-66741001D01*
X110025812Y-66741001D01*
X110060460Y-66755353D01*
X110074812Y-66790001D01*
X110060460Y-66824649D01*
X110053502Y-66830427D01*
X110052232Y-66831296D01*
X109972794Y-66910734D01*
X109927415Y-67013507D01*
X109924500Y-67038635D01*
X109924500Y-67528359D01*
X109924501Y-67528369D01*
X109927415Y-67553493D01*
X109972794Y-67656267D01*
X110052233Y-67735706D01*
X110155006Y-67781085D01*
X110155009Y-67781086D01*
X110180135Y-67784001D01*
X110819864Y-67784000D01*
X110844991Y-67781086D01*
X110947765Y-67735707D01*
X111027206Y-67656266D01*
X111072585Y-67553492D01*
X111075500Y-67528366D01*
X111075499Y-67038637D01*
X111072585Y-67013510D01*
X111027206Y-66910736D01*
X111027205Y-66910735D01*
X111027205Y-66910734D01*
X110947767Y-66831296D01*
X110946498Y-66830427D01*
X110945749Y-66829278D01*
X110944555Y-66828084D01*
X110944806Y-66827832D01*
X110926023Y-66799007D01*
X110933762Y-66762311D01*
X110965182Y-66741836D01*
X110974188Y-66741001D01*
X111205273Y-66741001D01*
X111239921Y-66755353D01*
X111425323Y-66940755D01*
X111439675Y-66975403D01*
X111435501Y-66995192D01*
X111427415Y-67013507D01*
X111424500Y-67038635D01*
X111424500Y-67528359D01*
X111424501Y-67528369D01*
X111427415Y-67553493D01*
X111472794Y-67656267D01*
X111552233Y-67735706D01*
X111655006Y-67781085D01*
X111655009Y-67781086D01*
X111680135Y-67784001D01*
X112319864Y-67784000D01*
X112344991Y-67781086D01*
X112447765Y-67735707D01*
X112527206Y-67656266D01*
X112572585Y-67553492D01*
X112575500Y-67528366D01*
X112575499Y-67038637D01*
X112572585Y-67013510D01*
X112527206Y-66910736D01*
X112527205Y-66910735D01*
X112527205Y-66910734D01*
X112447766Y-66831295D01*
X112447767Y-66831295D01*
X112344993Y-66785916D01*
X112319865Y-66783001D01*
X111751727Y-66783001D01*
X111717079Y-66768649D01*
X111545079Y-66596649D01*
X111530727Y-66562001D01*
X111545079Y-66527353D01*
X111579727Y-66513001D01*
X112477273Y-66513001D01*
X112511921Y-66527353D01*
X112925323Y-66940755D01*
X112939675Y-66975403D01*
X112935501Y-66995192D01*
X112927415Y-67013507D01*
X112924500Y-67038635D01*
X112924500Y-67528359D01*
X112924501Y-67528369D01*
X112927415Y-67553493D01*
X112972794Y-67656267D01*
X113052233Y-67735706D01*
X113155006Y-67781085D01*
X113155009Y-67781086D01*
X113180135Y-67784001D01*
X113819864Y-67784000D01*
X113844991Y-67781086D01*
X113947765Y-67735707D01*
X114027206Y-67656266D01*
X114072585Y-67553492D01*
X114075500Y-67528366D01*
X114075499Y-67038637D01*
X114072585Y-67013510D01*
X114027206Y-66910736D01*
X114027205Y-66910735D01*
X114027205Y-66910734D01*
X113947766Y-66831295D01*
X113947767Y-66831295D01*
X113844993Y-66785916D01*
X113819865Y-66783001D01*
X113251727Y-66783001D01*
X113217079Y-66768649D01*
X112817079Y-66368649D01*
X112802727Y-66334001D01*
X112817079Y-66299353D01*
X112851727Y-66285001D01*
X113749273Y-66285001D01*
X113783921Y-66299353D01*
X114425323Y-66940755D01*
X114439675Y-66975403D01*
X114435501Y-66995192D01*
X114427415Y-67013507D01*
X114424500Y-67038635D01*
X114424500Y-67528359D01*
X114424501Y-67528369D01*
X114427415Y-67553493D01*
X114472794Y-67656267D01*
X114552233Y-67735706D01*
X114655006Y-67781085D01*
X114655009Y-67781086D01*
X114680135Y-67784001D01*
X115319864Y-67784000D01*
X115344991Y-67781086D01*
X115447765Y-67735707D01*
X115527206Y-67656266D01*
X115572585Y-67553492D01*
X115575500Y-67528366D01*
X115575499Y-67038637D01*
X115572585Y-67013510D01*
X115527206Y-66910736D01*
X115527205Y-66910735D01*
X115527205Y-66910734D01*
X115447766Y-66831295D01*
X115447767Y-66831295D01*
X115344993Y-66785916D01*
X115319865Y-66783001D01*
X114751727Y-66783001D01*
X114717079Y-66768649D01*
X114089078Y-66140648D01*
X114074726Y-66106000D01*
X114089078Y-66071352D01*
X114123726Y-66057000D01*
X115159895Y-66057000D01*
X115159898Y-66057000D01*
X115189213Y-66051170D01*
X115222457Y-66028958D01*
X115244669Y-65995714D01*
X115250500Y-65966400D01*
X115250499Y-65246603D01*
X115244669Y-65217288D01*
X115244667Y-65217285D01*
X115244667Y-65217284D01*
X115222457Y-65184044D01*
X115189212Y-65161831D01*
X115159901Y-65156001D01*
X113940105Y-65156001D01*
X113940104Y-65156001D01*
X113940102Y-65156002D01*
X113910787Y-65161832D01*
X113910786Y-65161832D01*
X113910784Y-65161833D01*
X113910783Y-65161833D01*
X113877543Y-65184043D01*
X113855330Y-65217287D01*
X113855330Y-65217288D01*
X113849500Y-65246596D01*
X113849500Y-65246601D01*
X113849500Y-65246602D01*
X113849500Y-65597080D01*
X113849501Y-65908000D01*
X113842315Y-65925346D01*
X113835175Y-65942622D01*
X113835156Y-65942629D01*
X113835149Y-65942648D01*
X113810400Y-65952910D01*
X113811057Y-65955537D01*
X113811053Y-65955538D01*
X113801112Y-65956761D01*
X113800538Y-65957000D01*
X113799206Y-65957001D01*
X113799204Y-65957000D01*
X113799177Y-65957000D01*
X113799169Y-65957001D01*
X113299500Y-65957001D01*
X113264852Y-65942649D01*
X113250500Y-65908001D01*
X113250499Y-65246606D01*
X113250499Y-65246603D01*
X113244669Y-65217288D01*
X113244667Y-65217285D01*
X113244667Y-65217284D01*
X113222457Y-65184044D01*
X113189212Y-65161831D01*
X113159901Y-65156001D01*
X111940105Y-65156001D01*
X111940104Y-65156001D01*
X111940102Y-65156002D01*
X111910787Y-65161832D01*
X111910786Y-65161832D01*
X111910784Y-65161833D01*
X111910783Y-65161833D01*
X111877543Y-65184043D01*
X111855330Y-65217287D01*
X111855330Y-65217288D01*
X111849500Y-65246596D01*
X111849500Y-65246601D01*
X111849500Y-65246602D01*
X111849500Y-65597080D01*
X111849501Y-65908001D01*
X111835149Y-65942649D01*
X111800501Y-65957001D01*
X108893047Y-65957001D01*
X108858399Y-65942649D01*
X108782184Y-65866434D01*
X108767832Y-65831786D01*
X108782184Y-65797138D01*
X108816832Y-65782786D01*
X108822479Y-65783112D01*
X108830135Y-65784001D01*
X109319864Y-65784000D01*
X109344991Y-65781086D01*
X109447765Y-65735707D01*
X109527206Y-65656266D01*
X109572585Y-65553492D01*
X109575500Y-65528366D01*
X109575499Y-64888637D01*
X109572585Y-64863510D01*
X109527206Y-64760736D01*
X109527205Y-64760735D01*
X109527205Y-64760734D01*
X109447766Y-64681295D01*
X109447767Y-64681295D01*
X109344993Y-64635916D01*
X109332428Y-64634458D01*
X109319865Y-64633001D01*
X109319863Y-64633001D01*
X108830141Y-64633001D01*
X108830131Y-64633002D01*
X108805008Y-64635916D01*
X108805005Y-64635917D01*
X108786694Y-64644002D01*
X108749201Y-64644868D01*
X108732255Y-64633825D01*
X108460852Y-64362422D01*
X108446500Y-64327774D01*
X108446500Y-63430228D01*
X108460852Y-63395580D01*
X108495500Y-63381228D01*
X108530148Y-63395580D01*
X108560148Y-63425580D01*
X108574500Y-63460228D01*
X108574500Y-64028359D01*
X108574501Y-64028369D01*
X108577415Y-64053493D01*
X108622794Y-64156267D01*
X108702233Y-64235706D01*
X108805006Y-64281085D01*
X108805009Y-64281086D01*
X108830135Y-64284001D01*
X109319864Y-64284000D01*
X109344991Y-64281086D01*
X109447765Y-64235707D01*
X109527206Y-64156266D01*
X109572585Y-64053492D01*
X109575500Y-64028366D01*
X109575499Y-63388637D01*
X109572585Y-63363510D01*
X109527206Y-63260736D01*
X109527205Y-63260735D01*
X109527205Y-63260734D01*
X109447766Y-63181295D01*
X109447767Y-63181295D01*
X109344993Y-63135916D01*
X109332428Y-63134458D01*
X109319865Y-63133001D01*
X109319863Y-63133001D01*
X108830141Y-63133001D01*
X108830131Y-63133002D01*
X108805008Y-63135916D01*
X108805005Y-63135917D01*
X108786694Y-63144002D01*
X108776408Y-63144239D01*
X108766903Y-63148177D01*
X108758401Y-63144655D01*
X108749201Y-63144868D01*
X108732255Y-63133825D01*
X108688852Y-63090422D01*
X108674500Y-63055774D01*
X108674500Y-62798660D01*
X108688852Y-62764012D01*
X108723500Y-62749660D01*
X108743289Y-62753834D01*
X108805009Y-62781086D01*
X108830135Y-62784001D01*
X109319864Y-62784000D01*
X109344991Y-62781086D01*
X109447765Y-62735707D01*
X109527206Y-62656266D01*
X109572585Y-62553492D01*
X109575500Y-62528366D01*
X109575499Y-61888637D01*
X109572585Y-61863510D01*
X109527206Y-61760736D01*
X109527205Y-61760735D01*
X109527205Y-61760734D01*
X109447766Y-61681295D01*
X109447767Y-61681295D01*
X109344993Y-61635916D01*
X109332428Y-61634458D01*
X109319865Y-61633001D01*
X109319863Y-61633001D01*
X108830141Y-61633001D01*
X108830131Y-61633002D01*
X108805008Y-61635916D01*
X108805005Y-61635917D01*
X108786694Y-61644002D01*
X108749201Y-61644868D01*
X108732255Y-61633825D01*
X107868925Y-60770495D01*
X107868924Y-60770493D01*
X107868924Y-60770494D01*
X107862033Y-60763602D01*
X107815899Y-60717468D01*
X107815464Y-60717288D01*
X107809390Y-60714772D01*
X107782871Y-60688254D01*
X107782869Y-60650751D01*
X107809387Y-60624232D01*
X107828140Y-60620501D01*
X108020773Y-60620501D01*
X108055421Y-60634853D01*
X108219171Y-60798603D01*
X108219174Y-60798607D01*
X108221967Y-60801400D01*
X108268101Y-60847534D01*
X108285752Y-60854844D01*
X108285755Y-60854847D01*
X108285756Y-60854846D01*
X108328378Y-60872502D01*
X108328379Y-60872502D01*
X108399323Y-60872502D01*
X108399331Y-60872501D01*
X108525501Y-60872501D01*
X108560149Y-60886853D01*
X108574501Y-60921501D01*
X108574501Y-61028369D01*
X108577415Y-61053493D01*
X108622794Y-61156267D01*
X108702233Y-61235706D01*
X108702234Y-61235706D01*
X108702235Y-61235707D01*
X108712823Y-61240382D01*
X108805006Y-61281085D01*
X108805009Y-61281086D01*
X108830135Y-61284001D01*
X109319864Y-61284000D01*
X109344991Y-61281086D01*
X109447765Y-61235707D01*
X109527206Y-61156266D01*
X109572585Y-61053492D01*
X109575500Y-61028366D01*
X109575499Y-60388637D01*
X109572585Y-60363510D01*
X109527206Y-60260736D01*
X109527205Y-60260735D01*
X109527205Y-60260734D01*
X109447766Y-60181295D01*
X109447767Y-60181295D01*
X109344993Y-60135916D01*
X109332428Y-60134458D01*
X109319865Y-60133001D01*
X109319863Y-60133001D01*
X108830141Y-60133001D01*
X108830131Y-60133002D01*
X108805007Y-60135916D01*
X108702233Y-60181295D01*
X108622794Y-60260734D01*
X108577415Y-60363507D01*
X108574500Y-60388635D01*
X108574500Y-60495501D01*
X108560148Y-60530149D01*
X108525500Y-60544501D01*
X108449227Y-60544501D01*
X108414579Y-60530149D01*
X108254925Y-60370495D01*
X108254924Y-60370493D01*
X108254924Y-60370494D01*
X108248033Y-60363602D01*
X108201899Y-60317468D01*
X108179043Y-60308001D01*
X108141623Y-60292500D01*
X108141622Y-60292500D01*
X108076378Y-60292500D01*
X108070677Y-60292500D01*
X108070669Y-60292501D01*
X107244977Y-60292501D01*
X107217754Y-60284243D01*
X107217457Y-60284044D01*
X107190541Y-60266060D01*
X107184212Y-60261831D01*
X107154901Y-60256001D01*
X106185105Y-60256001D01*
X106185104Y-60256001D01*
X106185102Y-60256002D01*
X106155787Y-60261832D01*
X106155786Y-60261832D01*
X106155784Y-60261833D01*
X106155783Y-60261833D01*
X106122543Y-60284043D01*
X106100330Y-60317287D01*
X106100330Y-60317288D01*
X106094500Y-60346596D01*
X106094500Y-60566395D01*
X106094501Y-60566399D01*
X106098873Y-60588385D01*
X106100331Y-60595715D01*
X106110136Y-60610389D01*
X106122543Y-60628958D01*
X106122544Y-60628959D01*
X106122757Y-60629277D01*
X106130073Y-60666060D01*
X106122757Y-60683722D01*
X106100331Y-60717284D01*
X106100330Y-60717288D01*
X106094500Y-60746596D01*
X106094500Y-60966395D01*
X106094501Y-60966399D01*
X106096623Y-60977069D01*
X106100331Y-60995715D01*
X106110136Y-61010389D01*
X106122543Y-61028958D01*
X106122544Y-61028959D01*
X106122757Y-61029277D01*
X106130073Y-61066060D01*
X106122757Y-61083722D01*
X106100331Y-61117284D01*
X106100330Y-61117288D01*
X106094500Y-61146596D01*
X106094500Y-61366395D01*
X106094501Y-61366399D01*
X106098873Y-61388385D01*
X106100331Y-61395715D01*
X106110136Y-61410389D01*
X106122543Y-61428958D01*
X106122544Y-61428959D01*
X106122757Y-61429277D01*
X106130073Y-61466060D01*
X106122757Y-61483722D01*
X106100331Y-61517284D01*
X106100330Y-61517288D01*
X106094500Y-61546596D01*
X106094500Y-61766395D01*
X106094501Y-61766399D01*
X106097052Y-61779227D01*
X106100331Y-61795715D01*
X106107256Y-61806079D01*
X106122543Y-61828958D01*
X106122544Y-61828959D01*
X106122757Y-61829277D01*
X106130073Y-61866060D01*
X106122757Y-61883722D01*
X106100331Y-61917284D01*
X106100330Y-61917288D01*
X106094500Y-61946596D01*
X106094500Y-62166395D01*
X106094501Y-62166399D01*
X106097048Y-62179205D01*
X106100331Y-62195715D01*
X106110136Y-62210389D01*
X106122543Y-62228958D01*
X106122544Y-62228959D01*
X106122757Y-62229277D01*
X106130073Y-62266060D01*
X106122757Y-62283722D01*
X106100331Y-62317284D01*
X106100330Y-62317288D01*
X106094500Y-62346596D01*
X106094500Y-62566395D01*
X106094501Y-62566399D01*
X106094734Y-62567569D01*
X106100331Y-62595715D01*
X106106513Y-62604967D01*
X106122543Y-62628958D01*
X106122544Y-62628959D01*
X106122757Y-62629277D01*
X106130073Y-62666060D01*
X106122757Y-62683722D01*
X106100331Y-62717284D01*
X106100330Y-62717288D01*
X106094500Y-62746596D01*
X106094500Y-62966395D01*
X106094501Y-62966399D01*
X106094542Y-62966603D01*
X106100331Y-62995715D01*
X106110136Y-63010389D01*
X106122543Y-63028958D01*
X106122544Y-63028959D01*
X106122757Y-63029277D01*
X106130073Y-63066060D01*
X106122757Y-63083722D01*
X106100331Y-63117284D01*
X106100330Y-63117288D01*
X106094500Y-63146596D01*
X106094500Y-63366395D01*
X106094501Y-63366399D01*
X106097450Y-63381228D01*
X106100331Y-63395715D01*
X106107592Y-63406581D01*
X106122543Y-63428958D01*
X106122544Y-63428959D01*
X106122757Y-63429277D01*
X106130073Y-63466060D01*
X106122757Y-63483722D01*
X106100331Y-63517284D01*
X106100330Y-63517288D01*
X106094500Y-63546596D01*
X106094500Y-63766395D01*
X106094501Y-63766399D01*
X106100331Y-63795714D01*
X106100331Y-63795715D01*
X106100332Y-63795716D01*
X106102179Y-63800176D01*
X106100871Y-63800717D01*
X106106996Y-63831531D01*
X106086156Y-63862711D01*
X106049373Y-63870022D01*
X106040191Y-63867236D01*
X106039214Y-63866831D01*
X106009901Y-63861001D01*
X105790105Y-63861001D01*
X105790104Y-63861001D01*
X105790102Y-63861002D01*
X105760787Y-63866832D01*
X105760786Y-63866832D01*
X105760784Y-63866833D01*
X105760783Y-63866833D01*
X105727222Y-63889258D01*
X105690440Y-63896574D01*
X105672777Y-63889258D01*
X105672455Y-63889043D01*
X105654859Y-63877286D01*
X105639212Y-63866831D01*
X105609901Y-63861001D01*
X105390105Y-63861001D01*
X105390104Y-63861001D01*
X105390102Y-63861002D01*
X105360787Y-63866832D01*
X105360786Y-63866832D01*
X105360784Y-63866833D01*
X105360783Y-63866833D01*
X105327222Y-63889258D01*
X105290440Y-63896574D01*
X105272777Y-63889258D01*
X105272455Y-63889043D01*
X105254859Y-63877286D01*
X105239212Y-63866831D01*
X105209901Y-63861001D01*
X104990105Y-63861001D01*
X104990104Y-63861001D01*
X104990102Y-63861002D01*
X104960787Y-63866832D01*
X104960786Y-63866832D01*
X104960784Y-63866833D01*
X104960783Y-63866833D01*
X104927222Y-63889258D01*
X104890440Y-63896574D01*
X104872777Y-63889258D01*
X104872455Y-63889043D01*
X104854859Y-63877286D01*
X104839212Y-63866831D01*
X104809901Y-63861001D01*
X104590105Y-63861001D01*
X104590104Y-63861001D01*
X104590102Y-63861002D01*
X104560787Y-63866832D01*
X104560786Y-63866832D01*
X104560784Y-63866833D01*
X104560783Y-63866833D01*
X104527222Y-63889258D01*
X104490440Y-63896574D01*
X104472777Y-63889258D01*
X104472455Y-63889043D01*
X104454859Y-63877286D01*
X104439212Y-63866831D01*
X104409901Y-63861001D01*
X104190105Y-63861001D01*
X104190104Y-63861001D01*
X104190102Y-63861002D01*
X104160787Y-63866832D01*
X104160786Y-63866832D01*
X104160784Y-63866833D01*
X104160783Y-63866833D01*
X104127222Y-63889258D01*
X104090440Y-63896574D01*
X104072777Y-63889258D01*
X104072455Y-63889043D01*
X104054859Y-63877286D01*
X104039212Y-63866831D01*
X104009901Y-63861001D01*
X103790105Y-63861001D01*
X103790104Y-63861001D01*
X103790102Y-63861002D01*
X103760787Y-63866832D01*
X103760786Y-63866832D01*
X103760784Y-63866833D01*
X103760783Y-63866833D01*
X103727222Y-63889258D01*
X103690440Y-63896574D01*
X103672777Y-63889258D01*
X103672455Y-63889043D01*
X103654859Y-63877286D01*
X103639212Y-63866831D01*
X103609901Y-63861001D01*
X103390105Y-63861001D01*
X103390104Y-63861001D01*
X103390102Y-63861002D01*
X103360787Y-63866832D01*
X103360786Y-63866832D01*
X103360784Y-63866833D01*
X103360783Y-63866833D01*
X103327222Y-63889258D01*
X103290440Y-63896574D01*
X103272777Y-63889258D01*
X103272455Y-63889043D01*
X103254859Y-63877286D01*
X103239212Y-63866831D01*
X103209901Y-63861001D01*
X102990105Y-63861001D01*
X102990104Y-63861001D01*
X102990102Y-63861002D01*
X102960787Y-63866832D01*
X102960786Y-63866832D01*
X102960784Y-63866833D01*
X102960783Y-63866833D01*
X102927222Y-63889258D01*
X102890440Y-63896574D01*
X102872777Y-63889258D01*
X102872455Y-63889043D01*
X102854859Y-63877286D01*
X102839212Y-63866831D01*
X102809901Y-63861001D01*
X102590105Y-63861001D01*
X102590104Y-63861001D01*
X102590102Y-63861002D01*
X102560787Y-63866832D01*
X102560786Y-63866832D01*
X102560784Y-63866833D01*
X102560783Y-63866833D01*
X102527543Y-63889043D01*
X102505330Y-63922287D01*
X102505330Y-63922288D01*
X102499500Y-63951596D01*
X102499500Y-64921395D01*
X102499501Y-64921399D01*
X102503187Y-64939932D01*
X102505331Y-64950715D01*
X102507232Y-64953559D01*
X102514548Y-64990342D01*
X102501138Y-65015430D01*
X101659921Y-65856649D01*
X101625273Y-65871001D01*
X101429727Y-65871001D01*
X101395079Y-65856649D01*
X101380727Y-65822001D01*
X101395079Y-65787353D01*
X101539431Y-65643001D01*
X101992897Y-65189534D01*
X101992899Y-65189534D01*
X102039033Y-65143400D01*
X102050547Y-65115603D01*
X102064001Y-65083122D01*
X102064001Y-65017879D01*
X102064001Y-65013936D01*
X102064000Y-65013922D01*
X102064000Y-65011479D01*
X102072258Y-64984256D01*
X102094669Y-64950714D01*
X102094669Y-64950713D01*
X102094752Y-64950299D01*
X102100500Y-64921400D01*
X102100499Y-63951603D01*
X102094669Y-63922288D01*
X102094667Y-63922285D01*
X102094667Y-63922284D01*
X102072457Y-63889044D01*
X102039212Y-63866831D01*
X102009901Y-63861001D01*
X101790105Y-63861001D01*
X101790104Y-63861001D01*
X101790102Y-63861002D01*
X101760787Y-63866832D01*
X101760786Y-63866832D01*
X101760784Y-63866833D01*
X101760783Y-63866833D01*
X101727222Y-63889258D01*
X101690440Y-63896574D01*
X101672777Y-63889258D01*
X101672455Y-63889043D01*
X101654859Y-63877286D01*
X101639212Y-63866831D01*
X101609901Y-63861001D01*
X101390105Y-63861001D01*
X101390104Y-63861001D01*
X101390102Y-63861002D01*
X101360787Y-63866832D01*
X101360786Y-63866832D01*
X101360784Y-63866833D01*
X101360783Y-63866833D01*
X101327222Y-63889258D01*
X101290440Y-63896574D01*
X101272777Y-63889258D01*
X101272455Y-63889043D01*
X101254859Y-63877286D01*
X101239212Y-63866831D01*
X101209901Y-63861001D01*
X100990105Y-63861001D01*
X100990104Y-63861001D01*
X100990102Y-63861002D01*
X100960787Y-63866832D01*
X100960786Y-63866832D01*
X100960784Y-63866833D01*
X100960783Y-63866833D01*
X100927222Y-63889258D01*
X100890440Y-63896574D01*
X100872777Y-63889258D01*
X100872455Y-63889043D01*
X100854859Y-63877286D01*
X100839212Y-63866831D01*
X100809901Y-63861001D01*
X100590105Y-63861001D01*
X100590104Y-63861001D01*
X100590102Y-63861002D01*
X100560787Y-63866832D01*
X100560786Y-63866832D01*
X100560784Y-63866833D01*
X100560783Y-63866833D01*
X100527222Y-63889258D01*
X100490440Y-63896574D01*
X100472777Y-63889258D01*
X100472455Y-63889043D01*
X100454859Y-63877286D01*
X100439212Y-63866831D01*
X100409901Y-63861001D01*
X100190105Y-63861001D01*
X100190104Y-63861001D01*
X100190102Y-63861002D01*
X100170369Y-63864926D01*
X100160781Y-63866833D01*
X100159800Y-63867240D01*
X100158740Y-63867239D01*
X100156054Y-63867774D01*
X100155947Y-63867238D01*
X100122297Y-63867230D01*
X100095785Y-63840705D01*
X100095795Y-63803202D01*
X100099222Y-63796793D01*
X100099669Y-63795713D01*
X100105499Y-63766405D01*
X100105500Y-63766400D01*
X100105499Y-63546603D01*
X100099669Y-63517288D01*
X100099666Y-63517284D01*
X100094732Y-63509899D01*
X100077457Y-63484044D01*
X100077454Y-63484042D01*
X100077242Y-63483724D01*
X100069925Y-63446942D01*
X100077242Y-63429277D01*
X100077453Y-63428960D01*
X100077457Y-63428958D01*
X100099669Y-63395714D01*
X100105500Y-63366400D01*
X100105499Y-63146603D01*
X100099669Y-63117288D01*
X100099666Y-63117284D01*
X100093207Y-63107617D01*
X100077457Y-63084044D01*
X100077454Y-63084042D01*
X100077242Y-63083724D01*
X100069925Y-63046942D01*
X100077242Y-63029277D01*
X100077453Y-63028960D01*
X100077457Y-63028958D01*
X100099669Y-62995714D01*
X100105500Y-62966400D01*
X100105499Y-62746603D01*
X100099669Y-62717288D01*
X100099666Y-62717284D01*
X100094732Y-62709899D01*
X100077457Y-62684044D01*
X100077454Y-62684042D01*
X100077242Y-62683724D01*
X100069925Y-62646942D01*
X100077242Y-62629277D01*
X100077453Y-62628960D01*
X100077457Y-62628958D01*
X100099669Y-62595714D01*
X100105500Y-62566400D01*
X100105499Y-62346603D01*
X100099669Y-62317288D01*
X100099666Y-62317284D01*
X100094732Y-62309899D01*
X100077457Y-62284044D01*
X100077454Y-62284042D01*
X100077242Y-62283724D01*
X100069925Y-62246942D01*
X100077242Y-62229277D01*
X100077453Y-62228960D01*
X100077457Y-62228958D01*
X100099669Y-62195714D01*
X100105500Y-62166400D01*
X100105499Y-61946603D01*
X100099669Y-61917288D01*
X100099666Y-61917284D01*
X100094732Y-61909899D01*
X100077457Y-61884044D01*
X100077454Y-61884042D01*
X100077242Y-61883724D01*
X100069925Y-61846942D01*
X100077242Y-61829277D01*
X100077453Y-61828960D01*
X100077457Y-61828958D01*
X100099669Y-61795714D01*
X100105500Y-61766400D01*
X100105499Y-61737463D01*
X100106441Y-61727901D01*
X100110500Y-61707501D01*
X100110500Y-61605501D01*
X100110499Y-61605497D01*
X100106441Y-61585095D01*
X100105499Y-61575535D01*
X100105499Y-61546606D01*
X100105499Y-61546603D01*
X100099669Y-61517288D01*
X100099666Y-61517284D01*
X100089022Y-61501353D01*
X100077457Y-61484044D01*
X100077454Y-61484042D01*
X100077242Y-61483724D01*
X100069925Y-61446942D01*
X100077242Y-61429277D01*
X100077453Y-61428960D01*
X100077457Y-61428958D01*
X100099669Y-61395714D01*
X100105500Y-61366400D01*
X100105499Y-61146603D01*
X100099669Y-61117288D01*
X100099666Y-61117284D01*
X100089022Y-61101353D01*
X100077457Y-61084044D01*
X100077454Y-61084042D01*
X100077242Y-61083724D01*
X100069925Y-61046942D01*
X100077242Y-61029277D01*
X100077453Y-61028960D01*
X100077457Y-61028958D01*
X100099669Y-60995714D01*
X100105500Y-60966400D01*
X100105499Y-60746603D01*
X100099669Y-60717288D01*
X100099666Y-60717284D01*
X100094732Y-60709899D01*
X100077457Y-60684044D01*
X100077454Y-60684042D01*
X100077242Y-60683724D01*
X100069925Y-60646942D01*
X100077242Y-60629277D01*
X100077453Y-60628960D01*
X100077457Y-60628958D01*
X100099669Y-60595714D01*
X100105500Y-60566400D01*
X100105499Y-60346603D01*
X100099669Y-60317288D01*
X100099666Y-60317284D01*
X100093464Y-60308001D01*
X100077457Y-60284044D01*
X100077454Y-60284042D01*
X100077242Y-60283724D01*
X100069925Y-60246942D01*
X100077242Y-60229277D01*
X100077453Y-60228960D01*
X100077457Y-60228958D01*
X100099669Y-60195714D01*
X100105500Y-60166400D01*
X100105499Y-59946603D01*
X100099669Y-59917288D01*
X100099666Y-59917284D01*
X100094732Y-59909899D01*
X100077457Y-59884044D01*
X100077454Y-59884042D01*
X100077242Y-59883724D01*
X100069925Y-59846942D01*
X100077242Y-59829277D01*
X100077453Y-59828960D01*
X100077457Y-59828958D01*
X100099669Y-59795714D01*
X100105500Y-59766400D01*
X100105499Y-59546603D01*
X100099669Y-59517288D01*
X100099666Y-59517284D01*
X100094732Y-59509899D01*
X100077457Y-59484044D01*
X100077454Y-59484042D01*
X100077242Y-59483724D01*
X100069925Y-59446942D01*
X100077242Y-59429277D01*
X100077453Y-59428960D01*
X100077457Y-59428958D01*
X100099669Y-59395714D01*
X100105500Y-59366400D01*
X100105499Y-59146603D01*
X100099669Y-59117288D01*
X100099666Y-59117284D01*
X100094732Y-59109899D01*
X100077457Y-59084044D01*
X100077454Y-59084042D01*
X100077242Y-59083724D01*
X100069925Y-59046942D01*
X100077242Y-59029277D01*
X100077453Y-59028960D01*
X100077457Y-59028958D01*
X100099669Y-58995714D01*
X100105500Y-58966400D01*
X100105499Y-58746603D01*
X100099669Y-58717288D01*
X100099666Y-58717284D01*
X100094151Y-58709030D01*
X100077457Y-58684044D01*
X100077454Y-58684042D01*
X100077242Y-58683724D01*
X100069925Y-58646942D01*
X100077242Y-58629277D01*
X100077453Y-58628960D01*
X100077457Y-58628958D01*
X100099669Y-58595714D01*
X100105500Y-58566400D01*
X100105499Y-58346603D01*
X100099669Y-58317288D01*
X100099666Y-58317284D01*
X100094732Y-58309899D01*
X100077457Y-58284044D01*
X100077454Y-58284042D01*
X100077242Y-58283724D01*
X100069925Y-58246942D01*
X100077242Y-58229277D01*
X100077453Y-58228960D01*
X100077457Y-58228958D01*
X100099669Y-58195714D01*
X100105500Y-58166400D01*
X100105499Y-57946603D01*
X100099669Y-57917288D01*
X100099667Y-57917285D01*
X100097821Y-57912826D01*
X100099128Y-57912284D01*
X100093002Y-57881474D01*
X100113840Y-57850292D01*
X100150622Y-57842978D01*
X100150965Y-57843048D01*
X100158415Y-57844585D01*
X100160787Y-57846170D01*
X100190101Y-57852001D01*
X100194159Y-57852000D01*
X100219296Y-57857001D01*
X100219297Y-57857001D01*
X100751000Y-57857001D01*
X100771405Y-57852941D01*
X100780965Y-57852000D01*
X100809895Y-57852000D01*
X100809898Y-57852000D01*
X100839213Y-57846170D01*
X100872457Y-57823958D01*
X100872460Y-57823953D01*
X100872775Y-57823743D01*
X100909558Y-57816426D01*
X100927222Y-57823743D01*
X100927542Y-57823957D01*
X100927543Y-57823958D01*
X100960787Y-57846170D01*
X100990101Y-57852001D01*
X101209898Y-57852000D01*
X101239213Y-57846170D01*
X101272457Y-57823958D01*
X101294669Y-57790714D01*
X101300500Y-57761400D01*
X101300499Y-57391458D01*
X101304229Y-57372708D01*
X101315042Y-57346603D01*
X101325500Y-57321356D01*
X101325500Y-57231646D01*
X101674500Y-57231646D01*
X101674500Y-57321356D01*
X101691960Y-57363510D01*
X101695770Y-57372707D01*
X101699500Y-57391458D01*
X101699500Y-57761395D01*
X101699501Y-57761399D01*
X101705331Y-57790714D01*
X101705331Y-57790715D01*
X101705332Y-57790716D01*
X101705332Y-57790717D01*
X101727399Y-57823743D01*
X101727543Y-57823958D01*
X101760787Y-57846170D01*
X101790101Y-57852001D01*
X102009898Y-57852000D01*
X102039213Y-57846170D01*
X102072457Y-57823958D01*
X102072460Y-57823953D01*
X102072775Y-57823743D01*
X102109558Y-57816426D01*
X102127222Y-57823743D01*
X102127542Y-57823957D01*
X102127543Y-57823958D01*
X102160787Y-57846170D01*
X102190101Y-57852001D01*
X102409898Y-57852000D01*
X102439213Y-57846170D01*
X102472457Y-57823958D01*
X102472460Y-57823953D01*
X102472775Y-57823743D01*
X102509558Y-57816426D01*
X102527222Y-57823743D01*
X102527542Y-57823957D01*
X102527543Y-57823958D01*
X102560787Y-57846170D01*
X102590101Y-57852001D01*
X102809898Y-57852000D01*
X102839213Y-57846170D01*
X102872457Y-57823958D01*
X102872460Y-57823953D01*
X102872775Y-57823743D01*
X102909558Y-57816426D01*
X102927222Y-57823743D01*
X102927542Y-57823957D01*
X102927543Y-57823958D01*
X102960787Y-57846170D01*
X102990101Y-57852001D01*
X103209898Y-57852000D01*
X103239213Y-57846170D01*
X103272457Y-57823958D01*
X103272460Y-57823953D01*
X103272775Y-57823743D01*
X103309558Y-57816426D01*
X103327222Y-57823743D01*
X103327542Y-57823957D01*
X103327543Y-57823958D01*
X103360787Y-57846170D01*
X103390101Y-57852001D01*
X103609898Y-57852000D01*
X103639213Y-57846170D01*
X103672457Y-57823958D01*
X103672460Y-57823953D01*
X103672775Y-57823743D01*
X103709558Y-57816426D01*
X103727222Y-57823743D01*
X103727542Y-57823957D01*
X103727543Y-57823958D01*
X103760787Y-57846170D01*
X103790101Y-57852001D01*
X104009898Y-57852000D01*
X104039213Y-57846170D01*
X104072457Y-57823958D01*
X104072460Y-57823953D01*
X104072775Y-57823743D01*
X104109558Y-57816426D01*
X104127222Y-57823743D01*
X104127542Y-57823957D01*
X104127543Y-57823958D01*
X104160787Y-57846170D01*
X104190101Y-57852001D01*
X104409898Y-57852000D01*
X104439213Y-57846170D01*
X104472457Y-57823958D01*
X104472460Y-57823953D01*
X104472775Y-57823743D01*
X104509558Y-57816426D01*
X104527222Y-57823743D01*
X104527542Y-57823957D01*
X104527543Y-57823958D01*
X104560787Y-57846170D01*
X104590101Y-57852001D01*
X104809898Y-57852000D01*
X104839213Y-57846170D01*
X104872457Y-57823958D01*
X104872460Y-57823953D01*
X104872775Y-57823743D01*
X104909558Y-57816426D01*
X104927222Y-57823743D01*
X104927542Y-57823957D01*
X104927543Y-57823958D01*
X104960787Y-57846170D01*
X104990101Y-57852001D01*
X105209898Y-57852000D01*
X105239213Y-57846170D01*
X105272457Y-57823958D01*
X105272460Y-57823953D01*
X105272775Y-57823743D01*
X105309558Y-57816426D01*
X105327222Y-57823743D01*
X105327542Y-57823957D01*
X105327543Y-57823958D01*
X105360787Y-57846170D01*
X105390101Y-57852001D01*
X105609898Y-57852000D01*
X105639213Y-57846170D01*
X105672457Y-57823958D01*
X105672460Y-57823953D01*
X105672775Y-57823743D01*
X105709558Y-57816426D01*
X105727222Y-57823743D01*
X105727542Y-57823957D01*
X105727543Y-57823958D01*
X105760787Y-57846170D01*
X105790101Y-57852001D01*
X106009898Y-57852000D01*
X106039213Y-57846170D01*
X106039218Y-57846166D01*
X106040189Y-57845765D01*
X106041245Y-57845765D01*
X106043946Y-57845228D01*
X106044052Y-57845765D01*
X106077692Y-57845767D01*
X106104210Y-57872286D01*
X106104208Y-57909789D01*
X106100777Y-57916208D01*
X106100330Y-57917288D01*
X106094500Y-57946596D01*
X106094500Y-58166395D01*
X106094501Y-58166399D01*
X106098873Y-58188385D01*
X106100331Y-58195715D01*
X106108521Y-58207972D01*
X106122543Y-58228958D01*
X106122544Y-58228959D01*
X106122757Y-58229277D01*
X106130073Y-58266060D01*
X106122757Y-58283722D01*
X106100331Y-58317284D01*
X106100330Y-58317288D01*
X106094500Y-58346596D01*
X106094500Y-58566395D01*
X106094501Y-58566399D01*
X106097883Y-58583403D01*
X106100331Y-58595715D01*
X106107495Y-58606436D01*
X106122543Y-58628958D01*
X106122544Y-58628959D01*
X106122757Y-58629277D01*
X106130073Y-58666060D01*
X106122757Y-58683722D01*
X106100331Y-58717284D01*
X106100330Y-58717288D01*
X106094500Y-58746596D01*
X106094500Y-58966395D01*
X106094501Y-58966399D01*
X106098873Y-58988385D01*
X106100331Y-58995715D01*
X106107158Y-59005932D01*
X106122543Y-59028958D01*
X106122544Y-59028959D01*
X106122757Y-59029277D01*
X106130073Y-59066060D01*
X106122757Y-59083722D01*
X106100331Y-59117284D01*
X106100330Y-59117288D01*
X106094500Y-59146596D01*
X106094500Y-59366395D01*
X106094501Y-59366399D01*
X106098598Y-59386999D01*
X106100331Y-59395715D01*
X106109110Y-59408853D01*
X106122543Y-59428958D01*
X106122544Y-59428959D01*
X106122757Y-59429277D01*
X106130073Y-59466060D01*
X106122757Y-59483722D01*
X106100331Y-59517284D01*
X106100330Y-59517288D01*
X106094500Y-59546596D01*
X106094500Y-59766395D01*
X106094501Y-59766399D01*
X106100331Y-59795714D01*
X106100331Y-59795715D01*
X106100332Y-59795716D01*
X106100332Y-59795717D01*
X106116892Y-59820501D01*
X106122543Y-59828958D01*
X106155787Y-59851170D01*
X106185101Y-59857001D01*
X107154898Y-59857000D01*
X107184213Y-59851170D01*
X107217457Y-59828958D01*
X107217457Y-59828956D01*
X107217754Y-59828759D01*
X107244977Y-59820501D01*
X108039669Y-59820501D01*
X108039677Y-59820502D01*
X108045378Y-59820502D01*
X108110621Y-59820502D01*
X108110622Y-59820502D01*
X108153243Y-59802846D01*
X108170899Y-59795534D01*
X108217033Y-59749400D01*
X108217033Y-59749399D01*
X108223922Y-59742510D01*
X108223924Y-59742507D01*
X108490853Y-59475577D01*
X108525500Y-59461226D01*
X108560148Y-59475578D01*
X108574500Y-59510223D01*
X108574500Y-59528359D01*
X108574501Y-59528367D01*
X108577415Y-59553493D01*
X108622794Y-59656267D01*
X108702233Y-59735706D01*
X108805006Y-59781085D01*
X108805009Y-59781086D01*
X108830135Y-59784001D01*
X109319864Y-59784000D01*
X109344991Y-59781086D01*
X109447765Y-59735707D01*
X109527206Y-59656266D01*
X109572585Y-59553492D01*
X109575500Y-59528366D01*
X109575499Y-58888637D01*
X109572585Y-58863510D01*
X109527206Y-58760736D01*
X109527205Y-58760735D01*
X109527205Y-58760734D01*
X109447766Y-58681295D01*
X109447767Y-58681295D01*
X109344993Y-58635916D01*
X109332428Y-58634458D01*
X109319865Y-58633001D01*
X109319863Y-58633001D01*
X108830141Y-58633001D01*
X108830131Y-58633002D01*
X108805007Y-58635916D01*
X108702233Y-58681295D01*
X108622794Y-58760734D01*
X108577415Y-58863507D01*
X108574500Y-58888635D01*
X108574500Y-58995500D01*
X108560148Y-59030148D01*
X108525500Y-59044500D01*
X108493377Y-59044500D01*
X108458069Y-59059126D01*
X108433100Y-59069468D01*
X108418847Y-59083722D01*
X108386967Y-59115602D01*
X108386966Y-59115603D01*
X108024421Y-59478149D01*
X107989773Y-59492501D01*
X107424139Y-59492501D01*
X107389491Y-59478149D01*
X107375139Y-59443501D01*
X107389491Y-59408853D01*
X107405386Y-59398231D01*
X107411899Y-59395534D01*
X107458033Y-59349400D01*
X107458033Y-59349399D01*
X107464924Y-59342508D01*
X107464925Y-59342506D01*
X107736897Y-59070534D01*
X107736899Y-59070534D01*
X107783033Y-59024400D01*
X107808000Y-58964123D01*
X107808000Y-58073728D01*
X107822352Y-58039080D01*
X107974579Y-57886853D01*
X108009227Y-57872501D01*
X108525501Y-57872501D01*
X108560149Y-57886853D01*
X108574501Y-57921501D01*
X108574501Y-58028369D01*
X108577415Y-58053493D01*
X108622794Y-58156267D01*
X108702233Y-58235706D01*
X108805006Y-58281085D01*
X108805009Y-58281086D01*
X108830135Y-58284001D01*
X109319864Y-58284000D01*
X109344991Y-58281086D01*
X109447765Y-58235707D01*
X109527206Y-58156266D01*
X109572585Y-58053492D01*
X109575500Y-58028366D01*
X109575499Y-57388637D01*
X109572585Y-57363510D01*
X109527206Y-57260736D01*
X109527205Y-57260735D01*
X109527205Y-57260734D01*
X109447766Y-57181295D01*
X109447767Y-57181295D01*
X109344993Y-57135916D01*
X109319865Y-57133001D01*
X108945133Y-57133001D01*
X108910485Y-57118649D01*
X108896133Y-57084001D01*
X108899863Y-57065249D01*
X108925500Y-57003356D01*
X108925500Y-56913646D01*
X108909386Y-56874742D01*
X108899863Y-56851751D01*
X108899863Y-56814248D01*
X108926382Y-56787730D01*
X108945133Y-56784000D01*
X109319858Y-56784000D01*
X109319864Y-56784000D01*
X109344991Y-56781086D01*
X109447765Y-56735707D01*
X109527206Y-56656266D01*
X109572585Y-56553492D01*
X109575500Y-56528366D01*
X109575499Y-55888637D01*
X109572585Y-55863510D01*
X109527206Y-55760736D01*
X109527205Y-55760735D01*
X109527205Y-55760734D01*
X109447766Y-55681295D01*
X109447767Y-55681295D01*
X109344993Y-55635916D01*
X109332428Y-55634458D01*
X109319865Y-55633001D01*
X109319863Y-55633001D01*
X108830141Y-55633001D01*
X108830131Y-55633002D01*
X108811614Y-55635150D01*
X108805009Y-55635916D01*
X108805008Y-55635916D01*
X108805002Y-55635917D01*
X108803388Y-55636356D01*
X108802356Y-55636223D01*
X108801348Y-55636341D01*
X108801319Y-55636091D01*
X108766189Y-55631593D01*
X108743252Y-55601922D01*
X108748015Y-55564723D01*
X108755883Y-55554430D01*
X108905960Y-55404352D01*
X108940608Y-55390001D01*
X111169169Y-55390001D01*
X111169177Y-55390002D01*
X111174878Y-55390002D01*
X111240120Y-55390002D01*
X111240122Y-55390002D01*
X111284788Y-55371500D01*
X111300399Y-55365034D01*
X111346533Y-55318900D01*
X111346533Y-55318899D01*
X111353424Y-55312008D01*
X111353425Y-55312006D01*
X111717079Y-54948352D01*
X111751727Y-54934000D01*
X112319858Y-54934000D01*
X112319864Y-54934000D01*
X112344991Y-54931086D01*
X112447765Y-54885707D01*
X112471703Y-54861769D01*
X112506352Y-54827121D01*
X112541000Y-54812769D01*
X112575648Y-54827121D01*
X112590000Y-54861769D01*
X112590000Y-54922922D01*
X112589999Y-54922936D01*
X112589999Y-54926879D01*
X112589999Y-54992123D01*
X112599398Y-55014813D01*
X112614967Y-55052400D01*
X112661101Y-55098534D01*
X112661102Y-55098534D01*
X112667993Y-55105425D01*
X112667992Y-55105425D01*
X112667994Y-55105426D01*
X113134921Y-55572353D01*
X113149273Y-55607001D01*
X113134921Y-55641649D01*
X113100273Y-55656001D01*
X111940105Y-55656001D01*
X111940104Y-55656001D01*
X111940102Y-55656002D01*
X111910787Y-55661832D01*
X111910786Y-55661832D01*
X111910784Y-55661833D01*
X111910783Y-55661833D01*
X111877543Y-55684043D01*
X111855330Y-55717287D01*
X111855330Y-55717288D01*
X111849500Y-55746596D01*
X111849500Y-56466395D01*
X111849501Y-56466399D01*
X111855331Y-56495714D01*
X111855331Y-56495715D01*
X111855332Y-56495716D01*
X111855332Y-56495717D01*
X111877147Y-56528366D01*
X111877543Y-56528958D01*
X111910787Y-56551170D01*
X111940101Y-56557001D01*
X113104000Y-56557000D01*
X113138648Y-56571352D01*
X113153000Y-56606000D01*
X113153000Y-57967834D01*
X113138648Y-58002482D01*
X113062981Y-58078149D01*
X113028333Y-58092501D01*
X112871671Y-58092501D01*
X112837023Y-58078149D01*
X112822671Y-58043501D01*
X112830929Y-58016278D01*
X112844669Y-57995714D01*
X112844669Y-57995713D01*
X112846178Y-57988130D01*
X112850500Y-57966400D01*
X112850499Y-57746603D01*
X112844669Y-57717288D01*
X112844666Y-57717284D01*
X112832632Y-57699273D01*
X112822457Y-57684044D01*
X112822454Y-57684042D01*
X112822242Y-57683724D01*
X112814925Y-57646942D01*
X112822242Y-57629277D01*
X112822453Y-57628960D01*
X112822457Y-57628958D01*
X112844669Y-57595714D01*
X112850500Y-57566400D01*
X112850499Y-57346603D01*
X112844669Y-57317288D01*
X112844666Y-57317284D01*
X112839732Y-57309899D01*
X112822457Y-57284044D01*
X112822454Y-57284042D01*
X112822242Y-57283724D01*
X112814925Y-57246942D01*
X112822242Y-57229277D01*
X112822453Y-57228960D01*
X112822457Y-57228958D01*
X112844669Y-57195714D01*
X112850500Y-57166400D01*
X112850499Y-56946603D01*
X112844669Y-56917288D01*
X112844667Y-56917285D01*
X112844667Y-56917284D01*
X112822457Y-56884044D01*
X112789212Y-56861831D01*
X112759904Y-56856001D01*
X112759899Y-56856001D01*
X112464957Y-56856001D01*
X112446206Y-56852271D01*
X112422099Y-56842286D01*
X112394856Y-56831001D01*
X112394855Y-56831001D01*
X112305145Y-56831001D01*
X112253792Y-56852271D01*
X112235041Y-56856001D01*
X111940105Y-56856001D01*
X111940104Y-56856001D01*
X111940102Y-56856002D01*
X111910787Y-56861832D01*
X111910786Y-56861832D01*
X111910784Y-56861833D01*
X111910783Y-56861833D01*
X111877543Y-56884043D01*
X111855330Y-56917287D01*
X111855330Y-56917288D01*
X111849500Y-56946596D01*
X111849500Y-57166395D01*
X111849501Y-57166399D01*
X111853001Y-57183999D01*
X111855331Y-57195715D01*
X111862872Y-57207001D01*
X111877543Y-57228958D01*
X111877544Y-57228959D01*
X111877757Y-57229277D01*
X111885073Y-57266060D01*
X111877757Y-57283722D01*
X111855331Y-57317284D01*
X111855330Y-57317288D01*
X111849500Y-57346596D01*
X111849500Y-57566395D01*
X111849501Y-57566399D01*
X111853019Y-57584089D01*
X111855331Y-57595715D01*
X111862872Y-57607001D01*
X111877543Y-57628958D01*
X111877544Y-57628959D01*
X111877757Y-57629277D01*
X111885073Y-57666060D01*
X111877757Y-57683722D01*
X111855331Y-57717284D01*
X111855330Y-57717288D01*
X111849500Y-57746596D01*
X111849500Y-57966395D01*
X111849501Y-57966399D01*
X111851623Y-57977069D01*
X111855331Y-57995715D01*
X111859853Y-58002482D01*
X111877543Y-58028958D01*
X111877544Y-58028959D01*
X111877757Y-58029277D01*
X111885073Y-58066060D01*
X111877757Y-58083722D01*
X111855331Y-58117284D01*
X111855330Y-58117288D01*
X111849500Y-58146596D01*
X111849500Y-58366395D01*
X111849501Y-58366399D01*
X111853873Y-58388385D01*
X111855331Y-58395715D01*
X111862872Y-58407001D01*
X111877543Y-58428958D01*
X111877544Y-58428959D01*
X111877757Y-58429277D01*
X111885073Y-58466060D01*
X111877757Y-58483722D01*
X111855331Y-58517284D01*
X111855330Y-58517288D01*
X111849500Y-58546596D01*
X111849500Y-58766395D01*
X111849501Y-58766399D01*
X111855331Y-58795714D01*
X111855331Y-58795715D01*
X111855332Y-58795716D01*
X111855332Y-58795717D01*
X111869071Y-58816279D01*
X111871858Y-58830295D01*
X111877329Y-58843501D01*
X111875407Y-58848138D01*
X111876387Y-58853061D01*
X111868446Y-58864943D01*
X111862977Y-58878149D01*
X111858339Y-58880069D01*
X111855551Y-58884243D01*
X111828329Y-58892501D01*
X111824227Y-58892501D01*
X111789579Y-58878149D01*
X111695852Y-58784422D01*
X111681500Y-58749774D01*
X111681500Y-57039331D01*
X111681501Y-57039322D01*
X111681501Y-56968381D01*
X111681500Y-56968377D01*
X111656533Y-56908103D01*
X111656533Y-56908102D01*
X111610399Y-56861968D01*
X111610397Y-56861967D01*
X111239851Y-56491421D01*
X111225499Y-56456773D01*
X111225499Y-55888642D01*
X111225498Y-55888636D01*
X111222585Y-55863510D01*
X111177206Y-55760736D01*
X111177205Y-55760735D01*
X111177205Y-55760734D01*
X111097766Y-55681295D01*
X111097767Y-55681295D01*
X110994993Y-55635916D01*
X110982428Y-55634458D01*
X110969865Y-55633001D01*
X110969863Y-55633001D01*
X110480141Y-55633001D01*
X110480131Y-55633002D01*
X110455007Y-55635916D01*
X110352233Y-55681295D01*
X110272794Y-55760734D01*
X110227415Y-55863507D01*
X110224500Y-55888635D01*
X110224500Y-56528359D01*
X110224501Y-56528369D01*
X110227415Y-56553493D01*
X110272794Y-56656267D01*
X110352233Y-56735706D01*
X110352234Y-56735706D01*
X110352235Y-56735707D01*
X110361068Y-56739607D01*
X110455006Y-56781085D01*
X110455009Y-56781086D01*
X110480135Y-56784001D01*
X110969864Y-56784000D01*
X110994991Y-56781086D01*
X111013304Y-56772999D01*
X111050795Y-56772132D01*
X111067744Y-56783176D01*
X111339148Y-57054580D01*
X111353500Y-57089228D01*
X111353500Y-57986774D01*
X111339148Y-58021422D01*
X111304500Y-58035774D01*
X111269852Y-58021422D01*
X111239851Y-57991421D01*
X111225499Y-57956773D01*
X111225499Y-57388642D01*
X111225498Y-57388636D01*
X111222585Y-57363510D01*
X111177206Y-57260736D01*
X111177205Y-57260735D01*
X111177205Y-57260734D01*
X111097766Y-57181295D01*
X111097767Y-57181295D01*
X110994993Y-57135916D01*
X110982428Y-57134458D01*
X110969865Y-57133001D01*
X110969863Y-57133001D01*
X110480141Y-57133001D01*
X110480131Y-57133002D01*
X110455007Y-57135916D01*
X110352233Y-57181295D01*
X110272794Y-57260734D01*
X110227415Y-57363507D01*
X110224500Y-57388635D01*
X110224500Y-58028359D01*
X110224501Y-58028369D01*
X110227415Y-58053493D01*
X110272794Y-58156267D01*
X110352233Y-58235706D01*
X110455006Y-58281085D01*
X110455009Y-58281086D01*
X110480135Y-58284001D01*
X110969864Y-58284000D01*
X110994991Y-58281086D01*
X111013304Y-58272999D01*
X111023589Y-58272761D01*
X111033096Y-58268824D01*
X111041596Y-58272344D01*
X111050795Y-58272132D01*
X111067744Y-58283176D01*
X111111148Y-58326580D01*
X111125500Y-58361228D01*
X111125500Y-58618341D01*
X111111148Y-58652989D01*
X111076500Y-58667341D01*
X111056708Y-58663166D01*
X110994993Y-58635916D01*
X110982428Y-58634458D01*
X110969865Y-58633001D01*
X110969863Y-58633001D01*
X110480141Y-58633001D01*
X110480131Y-58633002D01*
X110455007Y-58635916D01*
X110352233Y-58681295D01*
X110272794Y-58760734D01*
X110227415Y-58863507D01*
X110224500Y-58888635D01*
X110224500Y-59528359D01*
X110224501Y-59528369D01*
X110227415Y-59553493D01*
X110272794Y-59656267D01*
X110352233Y-59735706D01*
X110455006Y-59781085D01*
X110455009Y-59781086D01*
X110480135Y-59784001D01*
X110969864Y-59784000D01*
X110994991Y-59781086D01*
X111013304Y-59772999D01*
X111050795Y-59772132D01*
X111067744Y-59783176D01*
X111231171Y-59946603D01*
X111231173Y-59946608D01*
X111231175Y-59946607D01*
X111233966Y-59949398D01*
X111233967Y-59949400D01*
X111280101Y-59995534D01*
X111286613Y-59998231D01*
X111313131Y-60024750D01*
X111313131Y-60062253D01*
X111286612Y-60088771D01*
X111267861Y-60092501D01*
X111215331Y-60092501D01*
X111215323Y-60092500D01*
X111209622Y-60092500D01*
X111144379Y-60092500D01*
X111144377Y-60092500D01*
X111109069Y-60107126D01*
X111084099Y-60117468D01*
X111067741Y-60133826D01*
X111033093Y-60148176D01*
X111013304Y-60144001D01*
X110994993Y-60135916D01*
X110982428Y-60134458D01*
X110969865Y-60133001D01*
X110969863Y-60133001D01*
X110480141Y-60133001D01*
X110480131Y-60133002D01*
X110455007Y-60135916D01*
X110352233Y-60181295D01*
X110272794Y-60260734D01*
X110227415Y-60363507D01*
X110224500Y-60388635D01*
X110224500Y-61028359D01*
X110224501Y-61028369D01*
X110227415Y-61053493D01*
X110272794Y-61156267D01*
X110352233Y-61235706D01*
X110352234Y-61235706D01*
X110352235Y-61235707D01*
X110362823Y-61240382D01*
X110455006Y-61281085D01*
X110455009Y-61281086D01*
X110480135Y-61284001D01*
X110795294Y-61284000D01*
X110829942Y-61298352D01*
X110844294Y-61333000D01*
X110829942Y-61367648D01*
X110632321Y-61565269D01*
X110632277Y-61565313D01*
X110632102Y-61565489D01*
X110632101Y-61565490D01*
X110585967Y-61611624D01*
X110585199Y-61613478D01*
X110580533Y-61618252D01*
X110567147Y-61623976D01*
X110555046Y-61632060D01*
X110546207Y-61632930D01*
X110546050Y-61632998D01*
X110545946Y-61632956D01*
X110545493Y-61633001D01*
X110480140Y-61633001D01*
X110480133Y-61633002D01*
X110455007Y-61635916D01*
X110352233Y-61681295D01*
X110272794Y-61760734D01*
X110227415Y-61863507D01*
X110224500Y-61888635D01*
X110224500Y-62528359D01*
X110224501Y-62528369D01*
X110227415Y-62553493D01*
X110272794Y-62656267D01*
X110352233Y-62735706D01*
X110455006Y-62781085D01*
X110455009Y-62781086D01*
X110480135Y-62784001D01*
X110969864Y-62784000D01*
X110994991Y-62781086D01*
X111056708Y-62753834D01*
X111094201Y-62752969D01*
X111121325Y-62778868D01*
X111125500Y-62798660D01*
X111125500Y-63055774D01*
X111111488Y-63089602D01*
X111111148Y-63090421D01*
X111111148Y-63090422D01*
X111067744Y-63133825D01*
X111033095Y-63148176D01*
X111013305Y-63144002D01*
X111011567Y-63143235D01*
X110994991Y-63135916D01*
X110969865Y-63133001D01*
X110969863Y-63133001D01*
X110480141Y-63133001D01*
X110480131Y-63133002D01*
X110455007Y-63135916D01*
X110352233Y-63181295D01*
X110272794Y-63260734D01*
X110227415Y-63363507D01*
X110224500Y-63388635D01*
X110224500Y-64028359D01*
X110224501Y-64028369D01*
X110227415Y-64053493D01*
X110272794Y-64156267D01*
X110352233Y-64235706D01*
X110455006Y-64281085D01*
X110455009Y-64281086D01*
X110480135Y-64284001D01*
X110969864Y-64284000D01*
X110994991Y-64281086D01*
X111097765Y-64235707D01*
X111177206Y-64156266D01*
X111222585Y-64053492D01*
X111225500Y-64028366D01*
X111225499Y-63460227D01*
X111239851Y-63425580D01*
X111278352Y-63387079D01*
X111313000Y-63372727D01*
X111347648Y-63387079D01*
X111362000Y-63421727D01*
X111362000Y-64319273D01*
X111347648Y-64353921D01*
X111067744Y-64633824D01*
X111033096Y-64648176D01*
X111013305Y-64644002D01*
X111011567Y-64643235D01*
X110994991Y-64635916D01*
X110969865Y-64633001D01*
X110969863Y-64633001D01*
X110480141Y-64633001D01*
X110480131Y-64633002D01*
X110455007Y-64635916D01*
X110352233Y-64681295D01*
X110272794Y-64760734D01*
X110227415Y-64863507D01*
X110224500Y-64888635D01*
X110224500Y-65528359D01*
X110224501Y-65528369D01*
X110227415Y-65553493D01*
X110272794Y-65656267D01*
X110352233Y-65735706D01*
X110455006Y-65781085D01*
X110455009Y-65781086D01*
X110480135Y-65784001D01*
X110969864Y-65784000D01*
X110994991Y-65781086D01*
X111097765Y-65735707D01*
X111177206Y-65656266D01*
X111222585Y-65553492D01*
X111225500Y-65528366D01*
X111225499Y-64960226D01*
X111239850Y-64925580D01*
X111618897Y-64546534D01*
X111618899Y-64546534D01*
X111665033Y-64500400D01*
X111679559Y-64465331D01*
X111690001Y-64440123D01*
X111690001Y-64374879D01*
X111690001Y-64370936D01*
X111690000Y-64370922D01*
X111690000Y-61840727D01*
X111704351Y-61806080D01*
X111765853Y-61744578D01*
X111800500Y-61730227D01*
X111835148Y-61744579D01*
X111849500Y-61779227D01*
X111849500Y-61966395D01*
X111849501Y-61966399D01*
X111853873Y-61988385D01*
X111855331Y-61995715D01*
X111863005Y-62007200D01*
X111877543Y-62028958D01*
X111877544Y-62028959D01*
X111877757Y-62029277D01*
X111885073Y-62066060D01*
X111877757Y-62083722D01*
X111855331Y-62117284D01*
X111855330Y-62117288D01*
X111849500Y-62146596D01*
X111849500Y-62366395D01*
X111849501Y-62366399D01*
X111850515Y-62371496D01*
X111855331Y-62395715D01*
X111855745Y-62396334D01*
X111877543Y-62428958D01*
X111877544Y-62428959D01*
X111877757Y-62429277D01*
X111885073Y-62466060D01*
X111877757Y-62483722D01*
X111855331Y-62517284D01*
X111855330Y-62517288D01*
X111849500Y-62546596D01*
X111849500Y-62766395D01*
X111849501Y-62766399D01*
X111853002Y-62784001D01*
X111855331Y-62795715D01*
X111857299Y-62798660D01*
X111877543Y-62828958D01*
X111877544Y-62828959D01*
X111877757Y-62829277D01*
X111885073Y-62866060D01*
X111877757Y-62883722D01*
X111855331Y-62917284D01*
X111855330Y-62917288D01*
X111849500Y-62946596D01*
X111849500Y-63166395D01*
X111849501Y-63166399D01*
X111853873Y-63188385D01*
X111855331Y-63195715D01*
X111865136Y-63210389D01*
X111877543Y-63228958D01*
X111877544Y-63228959D01*
X111877757Y-63229277D01*
X111885073Y-63266060D01*
X111877757Y-63283722D01*
X111855331Y-63317284D01*
X111855330Y-63317288D01*
X111849500Y-63346596D01*
X111849500Y-63566395D01*
X111849501Y-63566399D01*
X111853873Y-63588385D01*
X111855331Y-63595715D01*
X111865136Y-63610389D01*
X111877543Y-63628958D01*
X111877544Y-63628959D01*
X111877757Y-63629277D01*
X111885073Y-63666060D01*
X111877757Y-63683722D01*
X111855331Y-63717284D01*
X111855330Y-63717288D01*
X111849500Y-63746596D01*
X111849500Y-63966395D01*
X111849501Y-63966399D01*
X111853873Y-63988385D01*
X111855331Y-63995715D01*
X111865136Y-64010389D01*
X111877543Y-64028958D01*
X111877544Y-64028959D01*
X111877757Y-64029277D01*
X111885073Y-64066060D01*
X111877757Y-64083722D01*
X111855331Y-64117284D01*
X111855330Y-64117288D01*
X111849500Y-64146596D01*
X111849500Y-64366395D01*
X111849501Y-64366399D01*
X111853873Y-64388385D01*
X111855331Y-64395715D01*
X111865136Y-64410389D01*
X111877543Y-64428958D01*
X111877544Y-64428959D01*
X111877757Y-64429277D01*
X111885073Y-64466060D01*
X111877757Y-64483722D01*
X111855331Y-64517284D01*
X111855330Y-64517288D01*
X111849500Y-64546596D01*
X111849500Y-64766395D01*
X111849501Y-64766399D01*
X111855331Y-64795714D01*
X111855331Y-64795715D01*
X111855332Y-64795716D01*
X111855332Y-64795717D01*
X111871892Y-64820501D01*
X111877543Y-64828958D01*
X111910787Y-64851170D01*
X111940101Y-64857001D01*
X112235040Y-64857000D01*
X112253791Y-64860730D01*
X112289574Y-64875551D01*
X112305145Y-64882001D01*
X112305147Y-64882001D01*
X112394853Y-64882001D01*
X112394855Y-64882001D01*
X112446207Y-64860729D01*
X112464959Y-64857000D01*
X112759895Y-64857000D01*
X112759898Y-64857000D01*
X112789213Y-64851170D01*
X112822457Y-64828958D01*
X112844669Y-64795714D01*
X112850500Y-64766400D01*
X112850499Y-64546603D01*
X112844669Y-64517288D01*
X112844666Y-64517284D01*
X112830929Y-64496724D01*
X112822457Y-64484044D01*
X112822454Y-64484042D01*
X112822242Y-64483724D01*
X112814925Y-64446942D01*
X112822242Y-64429277D01*
X112822453Y-64428960D01*
X112822457Y-64428958D01*
X112844669Y-64395714D01*
X112850500Y-64366400D01*
X112850499Y-64146603D01*
X112844669Y-64117288D01*
X112844666Y-64117284D01*
X112830928Y-64096723D01*
X112822457Y-64084044D01*
X112822454Y-64084042D01*
X112822242Y-64083724D01*
X112814925Y-64046942D01*
X112822242Y-64029277D01*
X112822453Y-64028960D01*
X112822457Y-64028958D01*
X112844669Y-63995714D01*
X112850500Y-63966400D01*
X112850499Y-63746603D01*
X112844669Y-63717288D01*
X112844666Y-63717284D01*
X112839732Y-63709899D01*
X112822457Y-63684044D01*
X112822454Y-63684042D01*
X112822242Y-63683724D01*
X112814925Y-63646942D01*
X112822242Y-63629277D01*
X112822453Y-63628960D01*
X112822457Y-63628958D01*
X112844669Y-63595714D01*
X112850500Y-63566400D01*
X112850499Y-63346603D01*
X112844669Y-63317288D01*
X112844666Y-63317284D01*
X112835411Y-63303432D01*
X112822457Y-63284044D01*
X112822454Y-63284042D01*
X112822242Y-63283724D01*
X112814925Y-63246942D01*
X112822242Y-63229277D01*
X112822453Y-63228960D01*
X112822457Y-63228958D01*
X112844669Y-63195714D01*
X112850500Y-63166400D01*
X112850499Y-62946603D01*
X112844669Y-62917288D01*
X112844666Y-62917284D01*
X112839732Y-62909899D01*
X112822457Y-62884044D01*
X112822454Y-62884042D01*
X112822242Y-62883724D01*
X112814925Y-62846942D01*
X112822242Y-62829277D01*
X112822453Y-62828960D01*
X112822457Y-62828958D01*
X112844669Y-62795714D01*
X112850500Y-62766400D01*
X112850499Y-62546603D01*
X112844669Y-62517288D01*
X112844666Y-62517284D01*
X112835642Y-62503778D01*
X112822457Y-62484044D01*
X112822454Y-62484042D01*
X112822242Y-62483724D01*
X112814925Y-62446942D01*
X112822242Y-62429277D01*
X112822453Y-62428960D01*
X112822457Y-62428958D01*
X112844669Y-62395714D01*
X112850500Y-62366400D01*
X112850499Y-62146603D01*
X112844669Y-62117288D01*
X112844666Y-62117284D01*
X112827002Y-62090847D01*
X112822457Y-62084044D01*
X112822454Y-62084042D01*
X112822242Y-62083724D01*
X112814925Y-62046942D01*
X112822242Y-62029277D01*
X112822453Y-62028960D01*
X112822457Y-62028958D01*
X112844669Y-61995714D01*
X112850500Y-61966400D01*
X112850499Y-61746603D01*
X112844669Y-61717288D01*
X112822457Y-61684044D01*
X112822454Y-61684042D01*
X112822242Y-61683724D01*
X112814925Y-61646942D01*
X112822242Y-61629277D01*
X112822453Y-61628960D01*
X112822457Y-61628958D01*
X112844669Y-61595714D01*
X112850500Y-61566400D01*
X112850499Y-61346603D01*
X112844669Y-61317288D01*
X112840689Y-61311332D01*
X112836875Y-61305623D01*
X112822457Y-61284044D01*
X112822454Y-61284042D01*
X112822242Y-61283724D01*
X112814925Y-61246942D01*
X112822242Y-61229277D01*
X112822453Y-61228960D01*
X112822457Y-61228958D01*
X112844669Y-61195714D01*
X112850500Y-61166400D01*
X112850499Y-60946603D01*
X112844669Y-60917288D01*
X112822457Y-60884044D01*
X112822454Y-60884042D01*
X112822242Y-60883724D01*
X112814925Y-60846942D01*
X112822242Y-60829277D01*
X112822453Y-60828960D01*
X112822457Y-60828958D01*
X112844669Y-60795714D01*
X112850500Y-60766400D01*
X112850499Y-60546603D01*
X112844669Y-60517288D01*
X112822457Y-60484044D01*
X112822454Y-60484042D01*
X112822242Y-60483724D01*
X112814925Y-60446942D01*
X112822242Y-60429277D01*
X112822453Y-60428960D01*
X112822457Y-60428958D01*
X112844669Y-60395714D01*
X112850500Y-60366400D01*
X112850499Y-60146603D01*
X112844669Y-60117288D01*
X112822457Y-60084044D01*
X112822454Y-60084042D01*
X112822242Y-60083724D01*
X112814925Y-60046942D01*
X112822242Y-60029277D01*
X112822453Y-60028960D01*
X112822457Y-60028958D01*
X112844669Y-59995714D01*
X112850500Y-59966400D01*
X112850499Y-59746603D01*
X112844669Y-59717288D01*
X112844666Y-59717284D01*
X112839732Y-59709899D01*
X112822457Y-59684044D01*
X112822454Y-59684042D01*
X112822242Y-59683724D01*
X112814925Y-59646942D01*
X112822242Y-59629277D01*
X112822453Y-59628960D01*
X112822457Y-59628958D01*
X112844669Y-59595714D01*
X112850500Y-59566400D01*
X112850499Y-59346603D01*
X112844669Y-59317288D01*
X112844666Y-59317284D01*
X112830928Y-59296723D01*
X112822457Y-59284044D01*
X112822454Y-59284042D01*
X112822242Y-59283724D01*
X112814925Y-59246942D01*
X112822242Y-59229277D01*
X112822453Y-59228960D01*
X112822457Y-59228958D01*
X112844669Y-59195714D01*
X112850500Y-59166400D01*
X112850499Y-58946603D01*
X112844669Y-58917288D01*
X112844667Y-58917285D01*
X112844667Y-58917284D01*
X112830929Y-58896723D01*
X112823613Y-58859941D01*
X112844449Y-58828759D01*
X112871671Y-58820501D01*
X113000669Y-58820501D01*
X113000677Y-58820502D01*
X113006378Y-58820502D01*
X113071620Y-58820502D01*
X113071622Y-58820502D01*
X113126626Y-58797718D01*
X113131899Y-58795534D01*
X113178033Y-58749400D01*
X113178033Y-58749398D01*
X113385898Y-58541533D01*
X113420545Y-58527182D01*
X113455193Y-58541534D01*
X113465815Y-58557431D01*
X113491830Y-58620237D01*
X113491832Y-58620240D01*
X113555261Y-58683669D01*
X113555263Y-58683670D01*
X113555264Y-58683671D01*
X113638145Y-58718001D01*
X113638147Y-58718001D01*
X113727853Y-58718001D01*
X113727855Y-58718001D01*
X113810736Y-58683671D01*
X113857479Y-58636926D01*
X113857730Y-58636679D01*
X113862303Y-58632194D01*
X113863901Y-58631534D01*
X113910035Y-58585400D01*
X113912033Y-58583402D01*
X113924211Y-58554002D01*
X113937001Y-58523124D01*
X113937001Y-58457881D01*
X113937001Y-58453938D01*
X113937000Y-58453924D01*
X113937000Y-56946596D01*
X114249500Y-56946596D01*
X114249500Y-57166395D01*
X114249501Y-57166399D01*
X114253001Y-57183999D01*
X114255331Y-57195715D01*
X114262872Y-57207001D01*
X114277543Y-57228958D01*
X114277544Y-57228959D01*
X114277757Y-57229277D01*
X114285073Y-57266060D01*
X114277757Y-57283722D01*
X114255331Y-57317284D01*
X114255330Y-57317288D01*
X114249500Y-57346596D01*
X114249500Y-57566395D01*
X114249501Y-57566399D01*
X114253019Y-57584089D01*
X114255331Y-57595715D01*
X114262872Y-57607001D01*
X114277543Y-57628958D01*
X114277544Y-57628959D01*
X114277757Y-57629277D01*
X114285073Y-57666060D01*
X114277757Y-57683722D01*
X114255331Y-57717284D01*
X114255330Y-57717288D01*
X114249500Y-57746596D01*
X114249500Y-57966395D01*
X114249501Y-57966399D01*
X114255331Y-57995714D01*
X114255331Y-57995715D01*
X114255332Y-57995716D01*
X114255332Y-57995717D01*
X114277147Y-58028366D01*
X114277543Y-58028958D01*
X114310787Y-58051170D01*
X114340101Y-58057001D01*
X114635040Y-58057000D01*
X114653791Y-58060730D01*
X114685172Y-58073728D01*
X114705145Y-58082001D01*
X114705147Y-58082001D01*
X114794853Y-58082001D01*
X114794855Y-58082001D01*
X114846207Y-58060729D01*
X114864959Y-58057000D01*
X115159895Y-58057000D01*
X115159898Y-58057000D01*
X115189213Y-58051170D01*
X115222457Y-58028958D01*
X115244669Y-57995714D01*
X115250500Y-57966400D01*
X115250499Y-57746603D01*
X115244669Y-57717288D01*
X115244666Y-57717284D01*
X115232632Y-57699273D01*
X115222457Y-57684044D01*
X115222454Y-57684042D01*
X115222242Y-57683724D01*
X115214925Y-57646942D01*
X115222242Y-57629277D01*
X115222453Y-57628960D01*
X115222457Y-57628958D01*
X115244669Y-57595714D01*
X115250500Y-57566400D01*
X115250499Y-57346603D01*
X115244669Y-57317288D01*
X115244666Y-57317284D01*
X115239732Y-57309899D01*
X115222457Y-57284044D01*
X115222454Y-57284042D01*
X115222242Y-57283724D01*
X115214925Y-57246942D01*
X115222242Y-57229277D01*
X115222453Y-57228960D01*
X115222457Y-57228958D01*
X115244669Y-57195714D01*
X115250500Y-57166400D01*
X115250499Y-56946603D01*
X115244669Y-56917288D01*
X115244667Y-56917285D01*
X115244667Y-56917284D01*
X115222457Y-56884044D01*
X115189212Y-56861831D01*
X115159904Y-56856001D01*
X115159899Y-56856001D01*
X114864957Y-56856001D01*
X114846206Y-56852271D01*
X114822099Y-56842286D01*
X114794856Y-56831001D01*
X114794855Y-56831001D01*
X114705145Y-56831001D01*
X114653792Y-56852271D01*
X114635041Y-56856001D01*
X114340105Y-56856001D01*
X114340104Y-56856001D01*
X114340102Y-56856002D01*
X114310787Y-56861832D01*
X114310786Y-56861832D01*
X114310784Y-56861833D01*
X114310783Y-56861833D01*
X114277543Y-56884043D01*
X114255330Y-56917287D01*
X114255330Y-56917288D01*
X114249500Y-56946596D01*
X113937000Y-56946596D01*
X113937000Y-56606000D01*
X113951352Y-56571352D01*
X113985997Y-56557000D01*
X115159898Y-56557000D01*
X115189213Y-56551170D01*
X115222457Y-56528958D01*
X115244669Y-56495714D01*
X115250500Y-56466400D01*
X115250499Y-55746603D01*
X115244669Y-55717288D01*
X115244667Y-55717285D01*
X115244667Y-55717284D01*
X115222457Y-55684044D01*
X115189212Y-55661831D01*
X115159904Y-55656001D01*
X115159899Y-55656001D01*
X114088166Y-55656001D01*
X114053518Y-55641649D01*
X114039166Y-55607001D01*
X114053518Y-55572353D01*
X114677519Y-54948352D01*
X114712167Y-54934000D01*
X115319858Y-54934000D01*
X115319864Y-54934000D01*
X115344991Y-54931086D01*
X115447765Y-54885707D01*
X115527206Y-54806266D01*
X115572585Y-54703492D01*
X115575500Y-54678366D01*
X115575499Y-54188637D01*
X115572585Y-54163510D01*
X115527206Y-54060736D01*
X115527205Y-54060735D01*
X115527205Y-54060734D01*
X115447766Y-53981295D01*
X115447767Y-53981295D01*
X115344993Y-53935916D01*
X115332428Y-53934458D01*
X115319865Y-53933001D01*
X115319863Y-53933001D01*
X114680141Y-53933001D01*
X114680131Y-53933002D01*
X114655007Y-53935916D01*
X114552233Y-53981295D01*
X114512648Y-54020881D01*
X114478000Y-54035233D01*
X114443352Y-54020881D01*
X114429000Y-53986233D01*
X114429000Y-53606727D01*
X114443351Y-53572080D01*
X114717079Y-53298351D01*
X114751727Y-53284000D01*
X115319858Y-53284000D01*
X115319864Y-53284000D01*
X115344991Y-53281086D01*
X115447765Y-53235707D01*
X115527206Y-53156266D01*
X115572585Y-53053492D01*
X115575500Y-53028366D01*
X115575499Y-52538637D01*
X115572585Y-52513510D01*
X115527206Y-52410736D01*
X115527205Y-52410735D01*
X115527205Y-52410734D01*
X115447766Y-52331295D01*
X115447767Y-52331295D01*
X115344993Y-52285916D01*
X115332428Y-52284458D01*
X115319865Y-52283001D01*
X115319863Y-52283001D01*
X114680141Y-52283001D01*
X114680131Y-52283002D01*
X114655007Y-52285916D01*
X114552233Y-52331295D01*
X114472794Y-52410734D01*
X114427415Y-52513507D01*
X114424500Y-52538635D01*
X114424500Y-53028359D01*
X114424501Y-53028369D01*
X114427415Y-53053492D01*
X114435501Y-53071807D01*
X114436365Y-53109300D01*
X114425323Y-53126245D01*
X114173020Y-53378548D01*
X114173011Y-53378557D01*
X114172102Y-53379467D01*
X114172101Y-53379468D01*
X114125967Y-53425602D01*
X114125967Y-53425603D01*
X114121925Y-53435360D01*
X114121924Y-53435362D01*
X114100999Y-53485877D01*
X114100999Y-53556823D01*
X114101000Y-53556832D01*
X114101000Y-54016233D01*
X114086648Y-54050881D01*
X114052000Y-54065233D01*
X114017352Y-54050881D01*
X113947766Y-53981295D01*
X113947767Y-53981295D01*
X113844993Y-53935916D01*
X113832428Y-53934458D01*
X113819865Y-53933001D01*
X113819863Y-53933001D01*
X113180141Y-53933001D01*
X113180131Y-53933002D01*
X113155007Y-53935916D01*
X113052233Y-53981295D01*
X113001648Y-54031881D01*
X112967000Y-54046233D01*
X112932352Y-54031881D01*
X112918000Y-53997233D01*
X112918000Y-53617727D01*
X112932351Y-53583080D01*
X113217079Y-53298351D01*
X113251727Y-53284000D01*
X113819858Y-53284000D01*
X113819864Y-53284000D01*
X113844991Y-53281086D01*
X113947765Y-53235707D01*
X114027206Y-53156266D01*
X114072585Y-53053492D01*
X114075500Y-53028366D01*
X114075499Y-52538637D01*
X114072585Y-52513510D01*
X114027206Y-52410736D01*
X114027205Y-52410735D01*
X114027205Y-52410734D01*
X113947766Y-52331295D01*
X113947767Y-52331295D01*
X113844993Y-52285916D01*
X113832428Y-52284458D01*
X113819865Y-52283001D01*
X113819863Y-52283001D01*
X113180141Y-52283001D01*
X113180131Y-52283002D01*
X113155007Y-52285916D01*
X113052233Y-52331295D01*
X112972794Y-52410734D01*
X112927415Y-52513507D01*
X112924500Y-52538635D01*
X112924500Y-53028359D01*
X112924501Y-53028369D01*
X112927415Y-53053492D01*
X112935501Y-53071807D01*
X112936365Y-53109300D01*
X112925323Y-53126245D01*
X112661873Y-53389695D01*
X112661862Y-53389706D01*
X112661102Y-53390467D01*
X112661101Y-53390468D01*
X112614967Y-53436602D01*
X112614967Y-53436603D01*
X112611668Y-53444564D01*
X112611668Y-53444566D01*
X112589999Y-53496877D01*
X112589999Y-53567823D01*
X112590000Y-53567832D01*
X112590000Y-54005233D01*
X112575648Y-54039881D01*
X112541000Y-54054233D01*
X112506352Y-54039881D01*
X112447766Y-53981295D01*
X112447767Y-53981295D01*
X112344993Y-53935916D01*
X112332428Y-53934458D01*
X112319865Y-53933001D01*
X112319863Y-53933001D01*
X111680141Y-53933001D01*
X111680131Y-53933002D01*
X111655007Y-53935916D01*
X111552233Y-53981295D01*
X111472794Y-54060734D01*
X111427415Y-54163507D01*
X111424500Y-54188635D01*
X111424500Y-54678359D01*
X111424501Y-54678369D01*
X111427415Y-54703492D01*
X111435501Y-54721807D01*
X111436365Y-54759300D01*
X111425323Y-54776245D01*
X111153921Y-55047649D01*
X111119273Y-55062001D01*
X110221726Y-55062001D01*
X110187078Y-55047649D01*
X110172726Y-55013001D01*
X110187078Y-54978353D01*
X110217079Y-54948352D01*
X110251727Y-54934000D01*
X110819858Y-54934000D01*
X110819864Y-54934000D01*
X110844991Y-54931086D01*
X110947765Y-54885707D01*
X111027206Y-54806266D01*
X111072585Y-54703492D01*
X111075500Y-54678366D01*
X111075499Y-54188637D01*
X111072585Y-54163510D01*
X111027206Y-54060736D01*
X111027205Y-54060735D01*
X111027205Y-54060734D01*
X110947766Y-53981295D01*
X110947767Y-53981295D01*
X110844993Y-53935916D01*
X110832428Y-53934458D01*
X110819865Y-53933001D01*
X110819863Y-53933001D01*
X110180141Y-53933001D01*
X110180131Y-53933002D01*
X110155007Y-53935916D01*
X110052233Y-53981295D01*
X109972794Y-54060734D01*
X109927415Y-54163507D01*
X109924500Y-54188635D01*
X109924500Y-54678359D01*
X109924501Y-54678369D01*
X109927415Y-54703492D01*
X109935501Y-54721805D01*
X109935738Y-54732090D01*
X109939676Y-54741596D01*
X109936154Y-54750098D01*
X109936367Y-54759298D01*
X109925326Y-54776242D01*
X109881919Y-54819649D01*
X109847274Y-54834001D01*
X109590160Y-54834001D01*
X109555512Y-54819649D01*
X109541160Y-54785001D01*
X109545335Y-54765209D01*
X109572584Y-54703494D01*
X109572583Y-54703494D01*
X109572585Y-54703492D01*
X109575500Y-54678366D01*
X109575499Y-54188637D01*
X109572585Y-54163510D01*
X109527206Y-54060736D01*
X109527205Y-54060735D01*
X109527205Y-54060734D01*
X109447766Y-53981295D01*
X109447767Y-53981295D01*
X109344993Y-53935916D01*
X109332428Y-53934458D01*
X109319865Y-53933001D01*
X109319863Y-53933001D01*
X108680141Y-53933001D01*
X108680131Y-53933002D01*
X108655007Y-53935916D01*
X108552233Y-53981295D01*
X108472794Y-54060734D01*
X108427415Y-54163507D01*
X108424500Y-54188635D01*
X108424500Y-54678359D01*
X108424501Y-54678369D01*
X108427415Y-54703492D01*
X108435501Y-54721807D01*
X108436365Y-54759300D01*
X108425323Y-54776245D01*
X108153921Y-55047649D01*
X108119273Y-55062001D01*
X107221726Y-55062001D01*
X107187078Y-55047649D01*
X107172726Y-55013001D01*
X107187078Y-54978353D01*
X107217079Y-54948352D01*
X107251727Y-54934000D01*
X107819858Y-54934000D01*
X107819864Y-54934000D01*
X107844991Y-54931086D01*
X107947765Y-54885707D01*
X108027206Y-54806266D01*
X108072585Y-54703492D01*
X108075500Y-54678366D01*
X108075499Y-54188637D01*
X108072585Y-54163510D01*
X108027206Y-54060736D01*
X108027205Y-54060735D01*
X108027205Y-54060734D01*
X107947766Y-53981295D01*
X107947767Y-53981295D01*
X107844993Y-53935916D01*
X107832428Y-53934458D01*
X107819865Y-53933001D01*
X107819863Y-53933001D01*
X107180141Y-53933001D01*
X107180131Y-53933002D01*
X107155007Y-53935916D01*
X107052233Y-53981295D01*
X106972794Y-54060734D01*
X106927415Y-54163507D01*
X106924500Y-54188635D01*
X106924500Y-54678359D01*
X106924501Y-54678369D01*
X106927415Y-54703492D01*
X106935501Y-54721805D01*
X106935738Y-54732090D01*
X106939676Y-54741596D01*
X106936154Y-54750098D01*
X106936367Y-54759298D01*
X106925326Y-54776242D01*
X106881919Y-54819649D01*
X106847274Y-54834001D01*
X106590160Y-54834001D01*
X106555512Y-54819649D01*
X106541160Y-54785001D01*
X106545335Y-54765209D01*
X106572584Y-54703494D01*
X106572583Y-54703494D01*
X106572585Y-54703492D01*
X106575500Y-54678366D01*
X106575499Y-54188637D01*
X106572585Y-54163510D01*
X106527206Y-54060736D01*
X106527205Y-54060735D01*
X106527205Y-54060734D01*
X106447766Y-53981295D01*
X106447767Y-53981295D01*
X106344993Y-53935916D01*
X106332428Y-53934458D01*
X106319865Y-53933001D01*
X106319863Y-53933001D01*
X105680141Y-53933001D01*
X105680131Y-53933002D01*
X105655007Y-53935916D01*
X105552233Y-53981295D01*
X105472794Y-54060734D01*
X105427415Y-54163507D01*
X105424500Y-54188635D01*
X105424500Y-54678359D01*
X105424501Y-54678369D01*
X105427415Y-54703492D01*
X105435501Y-54721807D01*
X105436365Y-54759300D01*
X105425323Y-54776245D01*
X104747648Y-55453921D01*
X104713000Y-55468273D01*
X104678352Y-55453921D01*
X104664000Y-55419273D01*
X104664000Y-54983000D01*
X104678352Y-54948352D01*
X104713000Y-54934000D01*
X104819858Y-54934000D01*
X104819864Y-54934000D01*
X104844991Y-54931086D01*
X104947765Y-54885707D01*
X105027206Y-54806266D01*
X105072585Y-54703492D01*
X105075500Y-54678366D01*
X105075499Y-54188637D01*
X105072585Y-54163510D01*
X105027206Y-54060736D01*
X105027205Y-54060735D01*
X105027205Y-54060734D01*
X104947766Y-53981295D01*
X104947767Y-53981295D01*
X104844993Y-53935916D01*
X104832428Y-53934458D01*
X104819865Y-53933001D01*
X104819863Y-53933001D01*
X104180141Y-53933001D01*
X104180131Y-53933002D01*
X104155007Y-53935916D01*
X104052233Y-53981295D01*
X103972794Y-54060734D01*
X103927415Y-54163507D01*
X103924500Y-54188635D01*
X103924500Y-54621664D01*
X103910148Y-54656312D01*
X103875500Y-54670664D01*
X103840852Y-54656312D01*
X103830232Y-54640419D01*
X103813533Y-54600102D01*
X103767399Y-54553968D01*
X103767398Y-54553967D01*
X103633979Y-54420549D01*
X103619628Y-54385902D01*
X103620300Y-54379097D01*
X103620264Y-54379094D01*
X103620500Y-54376698D01*
X103620500Y-54060305D01*
X103620499Y-54060301D01*
X103616978Y-54042602D01*
X103606836Y-53991613D01*
X103571722Y-53939061D01*
X103554786Y-53913714D01*
X103480761Y-53864253D01*
X103476888Y-53861665D01*
X103476887Y-53861664D01*
X103476886Y-53861664D01*
X103408199Y-53848001D01*
X103408196Y-53848001D01*
X102991804Y-53848001D01*
X102991800Y-53848001D01*
X102923114Y-53861664D01*
X102923112Y-53861664D01*
X102923112Y-53861665D01*
X102919239Y-53864253D01*
X102873208Y-53895008D01*
X102873191Y-53895020D01*
X102845214Y-53913715D01*
X102840516Y-53920744D01*
X102839000Y-53921939D01*
X102836132Y-53927306D01*
X102793163Y-53991614D01*
X102779500Y-54060301D01*
X102779500Y-54376700D01*
X102793163Y-54445387D01*
X102845213Y-54523287D01*
X102884163Y-54549312D01*
X102923112Y-54575337D01*
X102991804Y-54589001D01*
X103318272Y-54589001D01*
X103352920Y-54603353D01*
X103496148Y-54746580D01*
X103510500Y-54781228D01*
X103510500Y-55625773D01*
X103496148Y-55660421D01*
X103362920Y-55793649D01*
X103328272Y-55808001D01*
X103006306Y-55808001D01*
X102936163Y-55821953D01*
X102856608Y-55875109D01*
X102803452Y-55954664D01*
X102789500Y-56024807D01*
X102789500Y-56352194D01*
X102803452Y-56422337D01*
X102856608Y-56501892D01*
X102897116Y-56528958D01*
X102936161Y-56555047D01*
X102936163Y-56555048D01*
X103006306Y-56569000D01*
X103006312Y-56569001D01*
X103393688Y-56569001D01*
X103409142Y-56565927D01*
X103463836Y-56555048D01*
X103463836Y-56555047D01*
X103463839Y-56555047D01*
X103543391Y-56501892D01*
X103596546Y-56422340D01*
X103599399Y-56408001D01*
X103610499Y-56352194D01*
X103610500Y-56352189D01*
X103610500Y-56030228D01*
X103624852Y-55995580D01*
X103813531Y-55806902D01*
X103813531Y-55806901D01*
X103813533Y-55806900D01*
X103838500Y-55746623D01*
X103838500Y-55681380D01*
X103838500Y-54734404D01*
X103852852Y-54699756D01*
X103887500Y-54685404D01*
X103922148Y-54699756D01*
X103932325Y-54714612D01*
X103972794Y-54806267D01*
X104052233Y-54885706D01*
X104052234Y-54885706D01*
X104052235Y-54885707D01*
X104079446Y-54897722D01*
X104155006Y-54931085D01*
X104155009Y-54931086D01*
X104180135Y-54934001D01*
X104287000Y-54934000D01*
X104321648Y-54948351D01*
X104336000Y-54983000D01*
X104336000Y-55447273D01*
X104321648Y-55481921D01*
X104070568Y-55733001D01*
X103807102Y-55996467D01*
X103807101Y-55996468D01*
X103793931Y-56009638D01*
X103760966Y-56042602D01*
X103755582Y-56055602D01*
X103735999Y-56102877D01*
X103735999Y-56173823D01*
X103736000Y-56173832D01*
X103736000Y-56679829D01*
X103721648Y-56714477D01*
X103687000Y-56728829D01*
X103659778Y-56720572D01*
X103639212Y-56706831D01*
X103609901Y-56701001D01*
X103390105Y-56701001D01*
X103390104Y-56701001D01*
X103390102Y-56701002D01*
X103360787Y-56706832D01*
X103360786Y-56706832D01*
X103360784Y-56706833D01*
X103360783Y-56706833D01*
X103327222Y-56729258D01*
X103290440Y-56736574D01*
X103272777Y-56729258D01*
X103272455Y-56729043D01*
X103250655Y-56714477D01*
X103239212Y-56706831D01*
X103209901Y-56701001D01*
X102990105Y-56701001D01*
X102990104Y-56701001D01*
X102990102Y-56701002D01*
X102960787Y-56706832D01*
X102960786Y-56706832D01*
X102960784Y-56706833D01*
X102960783Y-56706833D01*
X102927222Y-56729258D01*
X102890440Y-56736574D01*
X102872777Y-56729258D01*
X102872455Y-56729043D01*
X102850655Y-56714477D01*
X102839212Y-56706831D01*
X102809901Y-56701001D01*
X102590105Y-56701001D01*
X102590104Y-56701001D01*
X102590102Y-56701002D01*
X102560787Y-56706832D01*
X102560786Y-56706832D01*
X102560784Y-56706833D01*
X102560783Y-56706833D01*
X102527222Y-56729258D01*
X102490440Y-56736574D01*
X102472777Y-56729258D01*
X102472455Y-56729043D01*
X102450655Y-56714477D01*
X102439212Y-56706831D01*
X102409901Y-56701001D01*
X102190105Y-56701001D01*
X102190104Y-56701001D01*
X102190102Y-56701002D01*
X102160787Y-56706832D01*
X102160786Y-56706832D01*
X102160784Y-56706833D01*
X102160783Y-56706833D01*
X102127222Y-56729258D01*
X102090440Y-56736574D01*
X102072777Y-56729258D01*
X102072455Y-56729043D01*
X102050655Y-56714477D01*
X102039212Y-56706831D01*
X102009901Y-56701001D01*
X101790105Y-56701001D01*
X101790104Y-56701001D01*
X101790102Y-56701002D01*
X101760787Y-56706832D01*
X101760786Y-56706832D01*
X101760784Y-56706833D01*
X101760783Y-56706833D01*
X101727543Y-56729043D01*
X101705330Y-56762287D01*
X101705330Y-56762288D01*
X101699500Y-56791596D01*
X101699500Y-57161542D01*
X101695770Y-57180293D01*
X101674502Y-57231642D01*
X101674500Y-57231646D01*
X101325500Y-57231646D01*
X101312412Y-57200049D01*
X101304229Y-57180292D01*
X101300499Y-57161541D01*
X101300499Y-56791606D01*
X101300499Y-56791603D01*
X101294669Y-56762288D01*
X101294667Y-56762285D01*
X101294667Y-56762284D01*
X101272457Y-56729044D01*
X101242074Y-56708743D01*
X101221239Y-56677560D01*
X101228555Y-56640778D01*
X101259738Y-56619943D01*
X101269297Y-56619001D01*
X101383688Y-56619001D01*
X101384625Y-56618814D01*
X101453836Y-56605048D01*
X101453836Y-56605047D01*
X101453839Y-56605047D01*
X101533391Y-56551892D01*
X101586546Y-56472340D01*
X101587729Y-56466396D01*
X101600499Y-56402194D01*
X101600500Y-56402189D01*
X101600500Y-56118165D01*
X101601442Y-56108604D01*
X101602581Y-56102877D01*
X101605500Y-56088205D01*
X101605500Y-55228797D01*
X101601441Y-55208390D01*
X101600500Y-55198832D01*
X101600500Y-55014813D01*
X101600499Y-55014807D01*
X101586547Y-54944664D01*
X101579422Y-54934001D01*
X101549281Y-54888891D01*
X101533391Y-54865109D01*
X101453836Y-54811953D01*
X101383693Y-54798001D01*
X101383688Y-54798001D01*
X101199665Y-54798001D01*
X101190105Y-54797059D01*
X101169707Y-54793001D01*
X101169704Y-54793001D01*
X100393000Y-54793001D01*
X100358352Y-54778649D01*
X100344000Y-54744001D01*
X100344000Y-54223728D01*
X100358352Y-54189080D01*
X100652579Y-53894853D01*
X100687227Y-53880501D01*
X100783624Y-53880501D01*
X100818272Y-53894853D01*
X100832624Y-53929501D01*
X100831682Y-53939061D01*
X100819500Y-54000301D01*
X100819500Y-54416700D01*
X100833163Y-54485387D01*
X100885213Y-54563287D01*
X100923696Y-54589000D01*
X100963112Y-54615337D01*
X101031804Y-54629001D01*
X101348196Y-54629001D01*
X101416888Y-54615337D01*
X101494786Y-54563287D01*
X101546836Y-54485389D01*
X101560500Y-54416697D01*
X101560500Y-54000305D01*
X101548318Y-53939061D01*
X101555634Y-53902278D01*
X101586816Y-53881443D01*
X101596376Y-53880501D01*
X102643669Y-53880501D01*
X102643677Y-53880502D01*
X102649378Y-53880502D01*
X102714620Y-53880502D01*
X102714622Y-53880502D01*
X102760097Y-53861665D01*
X102774899Y-53855534D01*
X102821033Y-53809400D01*
X102821033Y-53809398D01*
X102827922Y-53802510D01*
X102827923Y-53802507D01*
X103047079Y-53583353D01*
X103081727Y-53569001D01*
X103408196Y-53569001D01*
X103476888Y-53555337D01*
X103554786Y-53503287D01*
X103606836Y-53425389D01*
X103620500Y-53356697D01*
X103620500Y-53040305D01*
X103606836Y-52971613D01*
X103580811Y-52932664D01*
X103554786Y-52893714D01*
X103496493Y-52854765D01*
X103476888Y-52841665D01*
X103476887Y-52841664D01*
X103476886Y-52841664D01*
X103408199Y-52828001D01*
X103408196Y-52828001D01*
X102991804Y-52828001D01*
X102991800Y-52828001D01*
X102923113Y-52841664D01*
X102845213Y-52893714D01*
X102793163Y-52971614D01*
X102779500Y-53040301D01*
X102779500Y-53356695D01*
X102779736Y-53359091D01*
X102778866Y-53359176D01*
X102772113Y-53393124D01*
X102766019Y-53400549D01*
X102628421Y-53538149D01*
X102593773Y-53552501D01*
X100566378Y-53552501D01*
X100506101Y-53577468D01*
X100459967Y-53623602D01*
X100040967Y-54042601D01*
X100038711Y-54048049D01*
X100038711Y-54048050D01*
X100015999Y-54102877D01*
X100015999Y-54173823D01*
X100016000Y-54173832D01*
X100016000Y-54757849D01*
X100001648Y-54792497D01*
X99976560Y-54805907D01*
X99946162Y-54811954D01*
X99866608Y-54865109D01*
X99813452Y-54944664D01*
X99799500Y-55014807D01*
X99799500Y-55198832D01*
X99798559Y-55208390D01*
X99794500Y-55228797D01*
X99794500Y-57432205D01*
X99800523Y-57462485D01*
X99802531Y-57472580D01*
X99802531Y-57472581D01*
X99816880Y-57507221D01*
X99816883Y-57507227D01*
X99839748Y-57541448D01*
X99839751Y-57541452D01*
X100074693Y-57776394D01*
X100089045Y-57811042D01*
X100074693Y-57845690D01*
X100040045Y-57860042D01*
X100030488Y-57859101D01*
X100014899Y-57856001D01*
X99644958Y-57856001D01*
X99626207Y-57852271D01*
X99574855Y-57831001D01*
X99485145Y-57831001D01*
X99433792Y-57852271D01*
X99415041Y-57856001D01*
X99045105Y-57856001D01*
X99045104Y-57856001D01*
X99045102Y-57856002D01*
X99015787Y-57861832D01*
X99015786Y-57861832D01*
X99015784Y-57861833D01*
X99015783Y-57861833D01*
X98982543Y-57884043D01*
X98960330Y-57917287D01*
X98960330Y-57917288D01*
X98954500Y-57946596D01*
X98954500Y-58166395D01*
X98954501Y-58166399D01*
X98958873Y-58188385D01*
X98960331Y-58195715D01*
X98968521Y-58207972D01*
X98982543Y-58228958D01*
X98982544Y-58228959D01*
X98982757Y-58229277D01*
X98990073Y-58266060D01*
X98982757Y-58283722D01*
X98960331Y-58317284D01*
X98960330Y-58317288D01*
X98954500Y-58346596D01*
X98954500Y-58566395D01*
X98954501Y-58566399D01*
X98957883Y-58583403D01*
X98960331Y-58595715D01*
X98967495Y-58606436D01*
X98982543Y-58628958D01*
X98982544Y-58628959D01*
X98982757Y-58629277D01*
X98990073Y-58666060D01*
X98982757Y-58683722D01*
X98960331Y-58717284D01*
X98960330Y-58717288D01*
X98954500Y-58746596D01*
X98954500Y-58966395D01*
X98954501Y-58966399D01*
X98958873Y-58988385D01*
X98960331Y-58995715D01*
X98967158Y-59005932D01*
X98982543Y-59028958D01*
X98982544Y-59028959D01*
X98982757Y-59029277D01*
X98990073Y-59066060D01*
X98982757Y-59083722D01*
X98960331Y-59117284D01*
X98960330Y-59117288D01*
X98954500Y-59146596D01*
X98954500Y-59366395D01*
X98954501Y-59366399D01*
X98958598Y-59386999D01*
X98960331Y-59395715D01*
X98969110Y-59408853D01*
X98982543Y-59428958D01*
X98982544Y-59428959D01*
X98982757Y-59429277D01*
X98990073Y-59466060D01*
X98982757Y-59483722D01*
X98960331Y-59517284D01*
X98960330Y-59517288D01*
X98954500Y-59546596D01*
X98954500Y-59766395D01*
X98954501Y-59766399D01*
X98958002Y-59784001D01*
X98960331Y-59795715D01*
X98962299Y-59798660D01*
X98982543Y-59828958D01*
X98982544Y-59828959D01*
X98982757Y-59829277D01*
X98990073Y-59866060D01*
X98982757Y-59883722D01*
X98960331Y-59917284D01*
X98960330Y-59917288D01*
X98954500Y-59946596D01*
X98954500Y-60166395D01*
X98954501Y-60166399D01*
X98958873Y-60188385D01*
X98960331Y-60195715D01*
X98970136Y-60210389D01*
X98982543Y-60228958D01*
X98982544Y-60228959D01*
X98982757Y-60229277D01*
X98990073Y-60266060D01*
X98982757Y-60283722D01*
X98960331Y-60317284D01*
X98960330Y-60317288D01*
X98954500Y-60346596D01*
X98954500Y-60566395D01*
X98954501Y-60566399D01*
X98958873Y-60588385D01*
X98960331Y-60595715D01*
X98970136Y-60610389D01*
X98982543Y-60628958D01*
X98982544Y-60628959D01*
X98982757Y-60629277D01*
X98990073Y-60666060D01*
X98982757Y-60683722D01*
X98960331Y-60717284D01*
X98960330Y-60717288D01*
X98954500Y-60746596D01*
X98954500Y-60966395D01*
X98954501Y-60966399D01*
X98956623Y-60977069D01*
X98960331Y-60995715D01*
X98970136Y-61010389D01*
X98982543Y-61028958D01*
X98982544Y-61028959D01*
X98982757Y-61029277D01*
X98990073Y-61066060D01*
X98982757Y-61083722D01*
X98960331Y-61117284D01*
X98960330Y-61117288D01*
X98954500Y-61146596D01*
X98954500Y-61188505D01*
X98940148Y-61223153D01*
X98905500Y-61237505D01*
X98870852Y-61223153D01*
X98588249Y-60940550D01*
X98582155Y-60933125D01*
X98580887Y-60931228D01*
X98569892Y-60914771D01*
X98543391Y-60875109D01*
X98474797Y-60829277D01*
X98463839Y-60821955D01*
X98463838Y-60821954D01*
X98463837Y-60821954D01*
X98448580Y-60818919D01*
X98439391Y-60816132D01*
X98434752Y-60814210D01*
X98427078Y-60811032D01*
X98386704Y-60803001D01*
X98220296Y-60803001D01*
X98220292Y-60803001D01*
X98199895Y-60807059D01*
X98190335Y-60808001D01*
X98006306Y-60808001D01*
X97936163Y-60821953D01*
X97856608Y-60875109D01*
X97803452Y-60954664D01*
X97789500Y-61024807D01*
X97789500Y-61212859D01*
X97788559Y-61222417D01*
X97785500Y-61237798D01*
X97785500Y-62179206D01*
X97788558Y-62194577D01*
X97789500Y-62204138D01*
X97789500Y-62392194D01*
X97803452Y-62462337D01*
X97831142Y-62503778D01*
X97833930Y-62517795D01*
X97839400Y-62531001D01*
X97837478Y-62535638D01*
X97838458Y-62540561D01*
X97830517Y-62552445D01*
X97825048Y-62565649D01*
X97820411Y-62567569D01*
X97817623Y-62571743D01*
X97790400Y-62580001D01*
X97737167Y-62580001D01*
X97702519Y-62565649D01*
X97567852Y-62430982D01*
X97553500Y-62396334D01*
X97553500Y-61311332D01*
X97553501Y-61311323D01*
X97553501Y-61240382D01*
X97553500Y-61240378D01*
X97545266Y-61220501D01*
X97535707Y-61197423D01*
X97528533Y-61180102D01*
X97482399Y-61133968D01*
X97479609Y-61131178D01*
X97479602Y-61131172D01*
X97339851Y-60991421D01*
X97325499Y-60956773D01*
X97325499Y-60388642D01*
X97325498Y-60388636D01*
X97322585Y-60363510D01*
X97277206Y-60260736D01*
X97277205Y-60260735D01*
X97277205Y-60260734D01*
X97197766Y-60181295D01*
X97197767Y-60181295D01*
X97094993Y-60135916D01*
X97082428Y-60134458D01*
X97069865Y-60133001D01*
X97069863Y-60133001D01*
X96580141Y-60133001D01*
X96580131Y-60133002D01*
X96555007Y-60135916D01*
X96452233Y-60181295D01*
X96372794Y-60260734D01*
X96327415Y-60363507D01*
X96324500Y-60388635D01*
X96324500Y-61028359D01*
X96324501Y-61028369D01*
X96327415Y-61053493D01*
X96372794Y-61156267D01*
X96452233Y-61235706D01*
X96452234Y-61235706D01*
X96452235Y-61235707D01*
X96462823Y-61240382D01*
X96555006Y-61281085D01*
X96555009Y-61281086D01*
X96580135Y-61284001D01*
X97069864Y-61284000D01*
X97094991Y-61281086D01*
X97113304Y-61272999D01*
X97123589Y-61272761D01*
X97133096Y-61268824D01*
X97141596Y-61272344D01*
X97150795Y-61272132D01*
X97167744Y-61283176D01*
X97211148Y-61326580D01*
X97225500Y-61361228D01*
X97225500Y-61618341D01*
X97211148Y-61652989D01*
X97176500Y-61667341D01*
X97156708Y-61663166D01*
X97094993Y-61635916D01*
X97082428Y-61634458D01*
X97069865Y-61633001D01*
X97069863Y-61633001D01*
X96580141Y-61633001D01*
X96580131Y-61633002D01*
X96555007Y-61635916D01*
X96452233Y-61681295D01*
X96372794Y-61760734D01*
X96327415Y-61863507D01*
X96324500Y-61888635D01*
X96324500Y-62528359D01*
X96324501Y-62528369D01*
X96327415Y-62553493D01*
X96372794Y-62656267D01*
X96452233Y-62735706D01*
X96555006Y-62781085D01*
X96555009Y-62781086D01*
X96580135Y-62784001D01*
X96897272Y-62784000D01*
X96931920Y-62798352D01*
X96981648Y-62848080D01*
X96996000Y-62882728D01*
X96996000Y-62920041D01*
X96995999Y-62920055D01*
X96995999Y-62989243D01*
X97012368Y-63028759D01*
X97013297Y-63031001D01*
X97020967Y-63049519D01*
X97026012Y-63054564D01*
X97029461Y-63061081D01*
X97030582Y-63072969D01*
X97035152Y-63084001D01*
X97032277Y-63090940D01*
X97032983Y-63098418D01*
X97025369Y-63107617D01*
X97020800Y-63118649D01*
X97013861Y-63121523D01*
X97009072Y-63127310D01*
X96997183Y-63128431D01*
X96986152Y-63133001D01*
X96580141Y-63133001D01*
X96580131Y-63133002D01*
X96555007Y-63135916D01*
X96452233Y-63181295D01*
X96372794Y-63260734D01*
X96327415Y-63363507D01*
X96324500Y-63388635D01*
X96324500Y-64028359D01*
X96324501Y-64028369D01*
X96327415Y-64053493D01*
X96372794Y-64156267D01*
X96452233Y-64235706D01*
X96555006Y-64281085D01*
X96555009Y-64281086D01*
X96580135Y-64284001D01*
X97069864Y-64284000D01*
X97085486Y-64282188D01*
X97121557Y-64292450D01*
X97125781Y-64296213D01*
X97357171Y-64527603D01*
X97357174Y-64527607D01*
X97359967Y-64530400D01*
X97406101Y-64576534D01*
X97423752Y-64583844D01*
X97423755Y-64583847D01*
X97423756Y-64583846D01*
X97466378Y-64601502D01*
X97466379Y-64601502D01*
X97537323Y-64601502D01*
X97537331Y-64601501D01*
X100050501Y-64601501D01*
X100085149Y-64615853D01*
X100099501Y-64650501D01*
X100099501Y-64921399D01*
X100105331Y-64950714D01*
X100105331Y-64950715D01*
X100105332Y-64950716D01*
X100105332Y-64950717D01*
X100127542Y-64983957D01*
X100127543Y-64983958D01*
X100160787Y-65006170D01*
X100190101Y-65012001D01*
X100373273Y-65012000D01*
X100407921Y-65026352D01*
X100422273Y-65061000D01*
X100407921Y-65095648D01*
X100330921Y-65172649D01*
X100296273Y-65187001D01*
X98778997Y-65187001D01*
X98718720Y-65211968D01*
X98672586Y-65258102D01*
X98672585Y-65258103D01*
X98302040Y-65628649D01*
X98267392Y-65643001D01*
X97511727Y-65643001D01*
X97477079Y-65628649D01*
X97339851Y-65491421D01*
X97325499Y-65456773D01*
X97325499Y-64888642D01*
X97325498Y-64888636D01*
X97322585Y-64863510D01*
X97277206Y-64760736D01*
X97277205Y-64760735D01*
X97277205Y-64760734D01*
X97197766Y-64681295D01*
X97197767Y-64681295D01*
X97094993Y-64635916D01*
X97082428Y-64634458D01*
X97069865Y-64633001D01*
X97069863Y-64633001D01*
X96580141Y-64633001D01*
X96580131Y-64633002D01*
X96555007Y-64635916D01*
X96452233Y-64681295D01*
X96372794Y-64760734D01*
X96327415Y-64863507D01*
X96324500Y-64888635D01*
X96324500Y-65528359D01*
X96324501Y-65528369D01*
X96327415Y-65553493D01*
X96372794Y-65656267D01*
X96452233Y-65735706D01*
X96546152Y-65777176D01*
X96572051Y-65804300D01*
X96571185Y-65841793D01*
X96544061Y-65867692D01*
X96526360Y-65871001D01*
X96070997Y-65871001D01*
X96010720Y-65895968D01*
X95964586Y-65942102D01*
X95964585Y-65942103D01*
X95594040Y-66312649D01*
X95559392Y-66327001D01*
X93330830Y-66327001D01*
X93330822Y-66327000D01*
X93325121Y-66327000D01*
X93259878Y-66327000D01*
X93259876Y-66327000D01*
X93217256Y-66344655D01*
X93199600Y-66351968D01*
X93182920Y-66368649D01*
X93153467Y-66398102D01*
X93153466Y-66398103D01*
X92782919Y-66768649D01*
X92748271Y-66783001D01*
X92180141Y-66783001D01*
X92180131Y-66783002D01*
X92155007Y-66785916D01*
X92052233Y-66831295D01*
X91976648Y-66906881D01*
X91942000Y-66921233D01*
X91907352Y-66906881D01*
X91893000Y-66872233D01*
X91893000Y-66829728D01*
X91907352Y-66795080D01*
X92189432Y-66513001D01*
X92483033Y-66219400D01*
X92508000Y-66159123D01*
X92508000Y-66093880D01*
X92508000Y-65246596D01*
X92649500Y-65246596D01*
X92649500Y-65966395D01*
X92649501Y-65966399D01*
X92655331Y-65995714D01*
X92655331Y-65995715D01*
X92655332Y-65995716D01*
X92655332Y-65995717D01*
X92677542Y-66028957D01*
X92677543Y-66028958D01*
X92710787Y-66051170D01*
X92740101Y-66057001D01*
X93959898Y-66057000D01*
X93989213Y-66051170D01*
X94022457Y-66028958D01*
X94044669Y-65995714D01*
X94050500Y-65966400D01*
X94050499Y-65246603D01*
X94044669Y-65217288D01*
X94044667Y-65217285D01*
X94044667Y-65217284D01*
X94022457Y-65184044D01*
X93989212Y-65161831D01*
X93959901Y-65156001D01*
X92740105Y-65156001D01*
X92740104Y-65156001D01*
X92740102Y-65156002D01*
X92710787Y-65161832D01*
X92710786Y-65161832D01*
X92710784Y-65161833D01*
X92710783Y-65161833D01*
X92677543Y-65184043D01*
X92655330Y-65217287D01*
X92655330Y-65217288D01*
X92649500Y-65246596D01*
X92508000Y-65246596D01*
X92508000Y-64793728D01*
X92522352Y-64759080D01*
X92846579Y-64434853D01*
X92881227Y-64420501D01*
X93028329Y-64420501D01*
X93062977Y-64434853D01*
X93077329Y-64469501D01*
X93069071Y-64496724D01*
X93055330Y-64517287D01*
X93055330Y-64517288D01*
X93049500Y-64546596D01*
X93049500Y-64766395D01*
X93049501Y-64766399D01*
X93055331Y-64795714D01*
X93055331Y-64795715D01*
X93055332Y-64795716D01*
X93055332Y-64795717D01*
X93071892Y-64820501D01*
X93077543Y-64828958D01*
X93110787Y-64851170D01*
X93140101Y-64857001D01*
X93959898Y-64857000D01*
X93989213Y-64851170D01*
X94022457Y-64828958D01*
X94022457Y-64828956D01*
X94022754Y-64828759D01*
X94049977Y-64820501D01*
X94534773Y-64820501D01*
X94569421Y-64834853D01*
X94660148Y-64925580D01*
X94674500Y-64960228D01*
X94674500Y-65528359D01*
X94674501Y-65528369D01*
X94677415Y-65553493D01*
X94722794Y-65656267D01*
X94802233Y-65735706D01*
X94905006Y-65781085D01*
X94905009Y-65781086D01*
X94930135Y-65784001D01*
X95419864Y-65784000D01*
X95444991Y-65781086D01*
X95547765Y-65735707D01*
X95627206Y-65656266D01*
X95672585Y-65553492D01*
X95675500Y-65528366D01*
X95675499Y-64888637D01*
X95672585Y-64863510D01*
X95627206Y-64760736D01*
X95627205Y-64760735D01*
X95627205Y-64760734D01*
X95547766Y-64681295D01*
X95547767Y-64681295D01*
X95444993Y-64635916D01*
X95432428Y-64634458D01*
X95419865Y-64633001D01*
X95419863Y-64633001D01*
X94930141Y-64633001D01*
X94930131Y-64633002D01*
X94905008Y-64635916D01*
X94905005Y-64635917D01*
X94886694Y-64644002D01*
X94876408Y-64644239D01*
X94866903Y-64648177D01*
X94858401Y-64644655D01*
X94849201Y-64644868D01*
X94832255Y-64633825D01*
X94768925Y-64570495D01*
X94768924Y-64570493D01*
X94768924Y-64570494D01*
X94762033Y-64563602D01*
X94715899Y-64517468D01*
X94695211Y-64508899D01*
X94655623Y-64492500D01*
X94655622Y-64492500D01*
X94590378Y-64492500D01*
X94584677Y-64492500D01*
X94584669Y-64492501D01*
X94071671Y-64492501D01*
X94037023Y-64478149D01*
X94022671Y-64443501D01*
X94030929Y-64416278D01*
X94044669Y-64395714D01*
X94044669Y-64395713D01*
X94049601Y-64370922D01*
X94050500Y-64366400D01*
X94050499Y-64146603D01*
X94044669Y-64117288D01*
X94044666Y-64117284D01*
X94030928Y-64096723D01*
X94022457Y-64084044D01*
X94022454Y-64084042D01*
X94022242Y-64083724D01*
X94014925Y-64046942D01*
X94022242Y-64029277D01*
X94022453Y-64028960D01*
X94022457Y-64028958D01*
X94044669Y-63995714D01*
X94050500Y-63966400D01*
X94050499Y-63746603D01*
X94044669Y-63717288D01*
X94044666Y-63717284D01*
X94039732Y-63709899D01*
X94022457Y-63684044D01*
X94022454Y-63684042D01*
X94022242Y-63683724D01*
X94014925Y-63646942D01*
X94022242Y-63629277D01*
X94022453Y-63628960D01*
X94022457Y-63628958D01*
X94044669Y-63595714D01*
X94050500Y-63566400D01*
X94050499Y-63346603D01*
X94044669Y-63317288D01*
X94044666Y-63317284D01*
X94035411Y-63303432D01*
X94022457Y-63284044D01*
X94022454Y-63284042D01*
X94022242Y-63283724D01*
X94014925Y-63246942D01*
X94022242Y-63229277D01*
X94022453Y-63228960D01*
X94022457Y-63228958D01*
X94044669Y-63195714D01*
X94050500Y-63166400D01*
X94050499Y-62946603D01*
X94049565Y-62941908D01*
X94056882Y-62905128D01*
X94088065Y-62884293D01*
X94124848Y-62891610D01*
X94132272Y-62897704D01*
X94660148Y-63425580D01*
X94674500Y-63460228D01*
X94674500Y-64028359D01*
X94674501Y-64028369D01*
X94677415Y-64053493D01*
X94722794Y-64156267D01*
X94802233Y-64235706D01*
X94905006Y-64281085D01*
X94905009Y-64281086D01*
X94930135Y-64284001D01*
X95419864Y-64284000D01*
X95444991Y-64281086D01*
X95547765Y-64235707D01*
X95627206Y-64156266D01*
X95672585Y-64053492D01*
X95675500Y-64028366D01*
X95675499Y-63388637D01*
X95672585Y-63363510D01*
X95627206Y-63260736D01*
X95627205Y-63260735D01*
X95627205Y-63260734D01*
X95547766Y-63181295D01*
X95547767Y-63181295D01*
X95444993Y-63135916D01*
X95432428Y-63134458D01*
X95419865Y-63133001D01*
X95419863Y-63133001D01*
X94930141Y-63133001D01*
X94930131Y-63133002D01*
X94905008Y-63135916D01*
X94905005Y-63135917D01*
X94886694Y-63144002D01*
X94849201Y-63144868D01*
X94832255Y-63133825D01*
X94332852Y-62634422D01*
X94318500Y-62599774D01*
X94318500Y-61702228D01*
X94332852Y-61667580D01*
X94367500Y-61653228D01*
X94402148Y-61667580D01*
X94660148Y-61925580D01*
X94674500Y-61960228D01*
X94674500Y-62528359D01*
X94674501Y-62528369D01*
X94677415Y-62553493D01*
X94722794Y-62656267D01*
X94802233Y-62735706D01*
X94905006Y-62781085D01*
X94905009Y-62781086D01*
X94930135Y-62784001D01*
X95419864Y-62784000D01*
X95444991Y-62781086D01*
X95547765Y-62735707D01*
X95627206Y-62656266D01*
X95672585Y-62553492D01*
X95675500Y-62528366D01*
X95675499Y-61888637D01*
X95672585Y-61863510D01*
X95627206Y-61760736D01*
X95627205Y-61760735D01*
X95627205Y-61760734D01*
X95547766Y-61681295D01*
X95547767Y-61681295D01*
X95444993Y-61635916D01*
X95432428Y-61634458D01*
X95419865Y-61633001D01*
X95419863Y-61633001D01*
X94930141Y-61633001D01*
X94930131Y-61633002D01*
X94905008Y-61635916D01*
X94905005Y-61635917D01*
X94886694Y-61644002D01*
X94849201Y-61644868D01*
X94832255Y-61633825D01*
X94560852Y-61362422D01*
X94546500Y-61327774D01*
X94546500Y-60430228D01*
X94560852Y-60395580D01*
X94595500Y-60381228D01*
X94630148Y-60395580D01*
X94660148Y-60425580D01*
X94674500Y-60460228D01*
X94674500Y-61028359D01*
X94674501Y-61028369D01*
X94677415Y-61053493D01*
X94722794Y-61156267D01*
X94802233Y-61235706D01*
X94802234Y-61235706D01*
X94802235Y-61235707D01*
X94812823Y-61240382D01*
X94905006Y-61281085D01*
X94905009Y-61281086D01*
X94930135Y-61284001D01*
X95419864Y-61284000D01*
X95444991Y-61281086D01*
X95547765Y-61235707D01*
X95627206Y-61156266D01*
X95672585Y-61053492D01*
X95675500Y-61028366D01*
X95675499Y-60388637D01*
X95672585Y-60363510D01*
X95627206Y-60260736D01*
X95627205Y-60260735D01*
X95627205Y-60260734D01*
X95547766Y-60181295D01*
X95547767Y-60181295D01*
X95444993Y-60135916D01*
X95432428Y-60134458D01*
X95419865Y-60133001D01*
X95419863Y-60133001D01*
X94930141Y-60133001D01*
X94930131Y-60133002D01*
X94905008Y-60135916D01*
X94905005Y-60135917D01*
X94886694Y-60144002D01*
X94876408Y-60144239D01*
X94866903Y-60148177D01*
X94858401Y-60144655D01*
X94849201Y-60144868D01*
X94832255Y-60133825D01*
X94788852Y-60090422D01*
X94774500Y-60055774D01*
X94774500Y-59798660D01*
X94788852Y-59764012D01*
X94823500Y-59749660D01*
X94843289Y-59753834D01*
X94905009Y-59781086D01*
X94930135Y-59784001D01*
X95419864Y-59784000D01*
X95444991Y-59781086D01*
X95547765Y-59735707D01*
X95627206Y-59656266D01*
X95672585Y-59553492D01*
X95675500Y-59528366D01*
X95675499Y-58960227D01*
X95689851Y-58925580D01*
X95726797Y-58888635D01*
X96324500Y-58888635D01*
X96324500Y-59528359D01*
X96324501Y-59528369D01*
X96327415Y-59553493D01*
X96372794Y-59656267D01*
X96452233Y-59735706D01*
X96555006Y-59781085D01*
X96555009Y-59781086D01*
X96580135Y-59784001D01*
X97069864Y-59784000D01*
X97094991Y-59781086D01*
X97197765Y-59735707D01*
X97277206Y-59656266D01*
X97322585Y-59553492D01*
X97325500Y-59528366D01*
X97325499Y-58888637D01*
X97322585Y-58863510D01*
X97277206Y-58760736D01*
X97277205Y-58760735D01*
X97277205Y-58760734D01*
X97197766Y-58681295D01*
X97197767Y-58681295D01*
X97094993Y-58635916D01*
X97082428Y-58634458D01*
X97069865Y-58633001D01*
X97069863Y-58633001D01*
X96580141Y-58633001D01*
X96580131Y-58633002D01*
X96555007Y-58635916D01*
X96452233Y-58681295D01*
X96372794Y-58760734D01*
X96327415Y-58863507D01*
X96324500Y-58888635D01*
X95726797Y-58888635D01*
X95762859Y-58852573D01*
X95878532Y-58736900D01*
X95878532Y-58736899D01*
X95878533Y-58736899D01*
X95900427Y-58684044D01*
X95903501Y-58676623D01*
X95903501Y-58611379D01*
X95903501Y-58610379D01*
X95903501Y-58606436D01*
X95903500Y-58606422D01*
X95903500Y-57388635D01*
X96324500Y-57388635D01*
X96324500Y-58028359D01*
X96324501Y-58028369D01*
X96327415Y-58053493D01*
X96372794Y-58156267D01*
X96452233Y-58235706D01*
X96555006Y-58281085D01*
X96555009Y-58281086D01*
X96580135Y-58284001D01*
X97069864Y-58284000D01*
X97094991Y-58281086D01*
X97197765Y-58235707D01*
X97277206Y-58156266D01*
X97322585Y-58053492D01*
X97325500Y-58028366D01*
X97325499Y-57388637D01*
X97322585Y-57363510D01*
X97277206Y-57260736D01*
X97277205Y-57260735D01*
X97277205Y-57260734D01*
X97197766Y-57181295D01*
X97197767Y-57181295D01*
X97094993Y-57135916D01*
X97082428Y-57134458D01*
X97069865Y-57133001D01*
X97069863Y-57133001D01*
X96580141Y-57133001D01*
X96580131Y-57133002D01*
X96555007Y-57135916D01*
X96452233Y-57181295D01*
X96372794Y-57260734D01*
X96327415Y-57363507D01*
X96324500Y-57388635D01*
X95903500Y-57388635D01*
X95903500Y-55888635D01*
X96324500Y-55888635D01*
X96324500Y-56528359D01*
X96324501Y-56528369D01*
X96327415Y-56553493D01*
X96372794Y-56656267D01*
X96452233Y-56735706D01*
X96452234Y-56735706D01*
X96452235Y-56735707D01*
X96461068Y-56739607D01*
X96555006Y-56781085D01*
X96555009Y-56781086D01*
X96580135Y-56784001D01*
X97069864Y-56784000D01*
X97094991Y-56781086D01*
X97197765Y-56735707D01*
X97277206Y-56656266D01*
X97322585Y-56553492D01*
X97325500Y-56528366D01*
X97325499Y-55888637D01*
X97322585Y-55863510D01*
X97277206Y-55760736D01*
X97277205Y-55760735D01*
X97277205Y-55760734D01*
X97197766Y-55681295D01*
X97197767Y-55681295D01*
X97094993Y-55635916D01*
X97082428Y-55634458D01*
X97069865Y-55633001D01*
X97069863Y-55633001D01*
X96580141Y-55633001D01*
X96580131Y-55633002D01*
X96555007Y-55635916D01*
X96452233Y-55681295D01*
X96372794Y-55760734D01*
X96327415Y-55863507D01*
X96324500Y-55888635D01*
X95903500Y-55888635D01*
X95903500Y-55744356D01*
X95892287Y-55717287D01*
X95878533Y-55684080D01*
X95832399Y-55637946D01*
X95832397Y-55637945D01*
X95829606Y-55635154D01*
X95829606Y-55635153D01*
X95829602Y-55635150D01*
X95677447Y-55482995D01*
X95677446Y-55482993D01*
X95677446Y-55482994D01*
X95670555Y-55476103D01*
X95670555Y-55476102D01*
X95624421Y-55429968D01*
X95603685Y-55421379D01*
X95598601Y-55419273D01*
X95564145Y-55405000D01*
X95564144Y-55405000D01*
X95498900Y-55405000D01*
X95493199Y-55405000D01*
X95493191Y-55405001D01*
X90646830Y-55405001D01*
X90646822Y-55405000D01*
X90641121Y-55405000D01*
X90575878Y-55405000D01*
X90575876Y-55405000D01*
X90536337Y-55421379D01*
X90515600Y-55429968D01*
X90498296Y-55447273D01*
X90469467Y-55476102D01*
X90469466Y-55476103D01*
X90402102Y-55543467D01*
X90402101Y-55543468D01*
X90380846Y-55564723D01*
X90355967Y-55589601D01*
X90355967Y-55589602D01*
X90354546Y-55593034D01*
X90350989Y-55601621D01*
X90350988Y-55601623D01*
X90330999Y-55649877D01*
X90330999Y-55720823D01*
X90331000Y-55720832D01*
X90331000Y-58480922D01*
X90330999Y-58480936D01*
X90330999Y-58550124D01*
X90337741Y-58566399D01*
X90345611Y-58585399D01*
X90355967Y-58610400D01*
X90402101Y-58656534D01*
X90402102Y-58656534D01*
X90408993Y-58663425D01*
X90408992Y-58663425D01*
X90408994Y-58663426D01*
X90492171Y-58746603D01*
X90492174Y-58746607D01*
X90494967Y-58749400D01*
X90541101Y-58795534D01*
X90566069Y-58805875D01*
X90601379Y-58820502D01*
X90633809Y-58820502D01*
X90639157Y-58821714D01*
X90650331Y-58829616D01*
X90662976Y-58834854D01*
X90665146Y-58840093D01*
X90669777Y-58843368D01*
X90672090Y-58856857D01*
X90677328Y-58869502D01*
X90675367Y-58875965D01*
X90676116Y-58880331D01*
X90672485Y-58885464D01*
X90669070Y-58896725D01*
X90655330Y-58917287D01*
X90651933Y-58934367D01*
X90631097Y-58965549D01*
X90594315Y-58972865D01*
X90585124Y-58970077D01*
X90502859Y-58936002D01*
X90502856Y-58936001D01*
X90502855Y-58936001D01*
X90413145Y-58936001D01*
X90413143Y-58936001D01*
X90413141Y-58936002D01*
X90330263Y-58970331D01*
X90266830Y-59033764D01*
X90232501Y-59116642D01*
X90232500Y-59116644D01*
X89950500Y-59116644D01*
X89950500Y-54288635D01*
X90824500Y-54288635D01*
X90824500Y-54778359D01*
X90824501Y-54778369D01*
X90827415Y-54803493D01*
X90872794Y-54906267D01*
X90952233Y-54985706D01*
X91055006Y-55031085D01*
X91055009Y-55031086D01*
X91080135Y-55034001D01*
X91719864Y-55034000D01*
X91744991Y-55031086D01*
X91847765Y-54985707D01*
X91927206Y-54906266D01*
X91972585Y-54803492D01*
X91972585Y-54803489D01*
X91973552Y-54799938D01*
X91974760Y-54800266D01*
X91990738Y-54771588D01*
X92021159Y-54761001D01*
X92778842Y-54761001D01*
X92813490Y-54775353D01*
X92825501Y-54800194D01*
X92826448Y-54799937D01*
X92827415Y-54803492D01*
X92872794Y-54906267D01*
X92952233Y-54985706D01*
X93055006Y-55031085D01*
X93055009Y-55031086D01*
X93080135Y-55034001D01*
X93719864Y-55034000D01*
X93744991Y-55031086D01*
X93847765Y-54985707D01*
X93927206Y-54906266D01*
X93972585Y-54803492D01*
X93972585Y-54803489D01*
X93973552Y-54799938D01*
X93974760Y-54800266D01*
X93990738Y-54771588D01*
X94021159Y-54761001D01*
X94778842Y-54761001D01*
X94813490Y-54775353D01*
X94825501Y-54800194D01*
X94826448Y-54799937D01*
X94827415Y-54803492D01*
X94872794Y-54906267D01*
X94952233Y-54985706D01*
X95055006Y-55031085D01*
X95055009Y-55031086D01*
X95080135Y-55034001D01*
X95719864Y-55034000D01*
X95744991Y-55031086D01*
X95847765Y-54985707D01*
X95927206Y-54906266D01*
X95972585Y-54803492D01*
X95972585Y-54803489D01*
X95973552Y-54799938D01*
X95974760Y-54800266D01*
X95990738Y-54771588D01*
X96021159Y-54761001D01*
X96778842Y-54761001D01*
X96813490Y-54775353D01*
X96825501Y-54800194D01*
X96826448Y-54799937D01*
X96827415Y-54803492D01*
X96872794Y-54906267D01*
X96952233Y-54985706D01*
X97055006Y-55031085D01*
X97055009Y-55031086D01*
X97080135Y-55034001D01*
X97719864Y-55034000D01*
X97744991Y-55031086D01*
X97847765Y-54985707D01*
X97927206Y-54906266D01*
X97972585Y-54803492D01*
X97975500Y-54778366D01*
X97975499Y-54288637D01*
X97972585Y-54263510D01*
X97927206Y-54160736D01*
X97927205Y-54160735D01*
X97927205Y-54160734D01*
X97847766Y-54081295D01*
X97847767Y-54081295D01*
X97744993Y-54035916D01*
X97732428Y-54034458D01*
X97719865Y-54033001D01*
X97719863Y-54033001D01*
X97080141Y-54033001D01*
X97080131Y-54033002D01*
X97055007Y-54035916D01*
X96952233Y-54081295D01*
X96872794Y-54160734D01*
X96827415Y-54263507D01*
X96826448Y-54267064D01*
X96825239Y-54266735D01*
X96809262Y-54295414D01*
X96778841Y-54306001D01*
X96021158Y-54306001D01*
X95986510Y-54291649D01*
X95974498Y-54266807D01*
X95973552Y-54267065D01*
X95972585Y-54263514D01*
X95972585Y-54263510D01*
X95927206Y-54160736D01*
X95927205Y-54160735D01*
X95927205Y-54160734D01*
X95847766Y-54081295D01*
X95847767Y-54081295D01*
X95744993Y-54035916D01*
X95732428Y-54034458D01*
X95719865Y-54033001D01*
X95719863Y-54033001D01*
X95080141Y-54033001D01*
X95080131Y-54033002D01*
X95055007Y-54035916D01*
X94952233Y-54081295D01*
X94872794Y-54160734D01*
X94827415Y-54263507D01*
X94826448Y-54267064D01*
X94825239Y-54266735D01*
X94809262Y-54295414D01*
X94778841Y-54306001D01*
X94021158Y-54306001D01*
X93986510Y-54291649D01*
X93974498Y-54266807D01*
X93973552Y-54267065D01*
X93972585Y-54263514D01*
X93972585Y-54263510D01*
X93927206Y-54160736D01*
X93927205Y-54160735D01*
X93927205Y-54160734D01*
X93847766Y-54081295D01*
X93847767Y-54081295D01*
X93744993Y-54035916D01*
X93732428Y-54034458D01*
X93719865Y-54033001D01*
X93719863Y-54033001D01*
X93080141Y-54033001D01*
X93080131Y-54033002D01*
X93055007Y-54035916D01*
X92952233Y-54081295D01*
X92872794Y-54160734D01*
X92827415Y-54263507D01*
X92826448Y-54267064D01*
X92825239Y-54266735D01*
X92809262Y-54295414D01*
X92778841Y-54306001D01*
X92021158Y-54306001D01*
X91986510Y-54291649D01*
X91974498Y-54266807D01*
X91973552Y-54267065D01*
X91972585Y-54263514D01*
X91972585Y-54263510D01*
X91927206Y-54160736D01*
X91927205Y-54160735D01*
X91927205Y-54160734D01*
X91847766Y-54081295D01*
X91847767Y-54081295D01*
X91744993Y-54035916D01*
X91732428Y-54034458D01*
X91719865Y-54033001D01*
X91719863Y-54033001D01*
X91080141Y-54033001D01*
X91080131Y-54033002D01*
X91055007Y-54035916D01*
X90952233Y-54081295D01*
X90872794Y-54160734D01*
X90827415Y-54263507D01*
X90824500Y-54288635D01*
X89950500Y-54288635D01*
X89950500Y-52638635D01*
X92824500Y-52638635D01*
X92824500Y-53128359D01*
X92824501Y-53128369D01*
X92827415Y-53153493D01*
X92872794Y-53256267D01*
X92952233Y-53335706D01*
X93055006Y-53381085D01*
X93055009Y-53381086D01*
X93080135Y-53384001D01*
X93719864Y-53384000D01*
X93744991Y-53381086D01*
X93847765Y-53335707D01*
X93927206Y-53256266D01*
X93972585Y-53153492D01*
X93975500Y-53128366D01*
X93975499Y-52638637D01*
X93975499Y-52638635D01*
X94824500Y-52638635D01*
X94824500Y-53128359D01*
X94824501Y-53128369D01*
X94827415Y-53153493D01*
X94872794Y-53256267D01*
X94952233Y-53335706D01*
X95055006Y-53381085D01*
X95055009Y-53381086D01*
X95080135Y-53384001D01*
X95719864Y-53384000D01*
X95744991Y-53381086D01*
X95847765Y-53335707D01*
X95927206Y-53256266D01*
X95972585Y-53153492D01*
X95975500Y-53128366D01*
X95975499Y-52638637D01*
X95975499Y-52638635D01*
X96824500Y-52638635D01*
X96824500Y-53128359D01*
X96824501Y-53128369D01*
X96827415Y-53153493D01*
X96872794Y-53256267D01*
X96952233Y-53335706D01*
X97055006Y-53381085D01*
X97055009Y-53381086D01*
X97080135Y-53384001D01*
X97125500Y-53384000D01*
X97160147Y-53398351D01*
X97174500Y-53432999D01*
X97174500Y-53453356D01*
X97174500Y-53453358D01*
X97174501Y-53453359D01*
X97208830Y-53536237D01*
X97208832Y-53536240D01*
X97272261Y-53599669D01*
X97272263Y-53599670D01*
X97272264Y-53599671D01*
X97355145Y-53634001D01*
X97355147Y-53634001D01*
X97444853Y-53634001D01*
X97444855Y-53634001D01*
X97527736Y-53599671D01*
X97527737Y-53599669D01*
X97527739Y-53599669D01*
X97591168Y-53536240D01*
X97591168Y-53536238D01*
X97591170Y-53536237D01*
X97625500Y-53453356D01*
X97625500Y-53432999D01*
X97639852Y-53398352D01*
X97674500Y-53384000D01*
X97719858Y-53384000D01*
X97719864Y-53384000D01*
X97744991Y-53381086D01*
X97847765Y-53335707D01*
X97927206Y-53256266D01*
X97972585Y-53153492D01*
X97975500Y-53128366D01*
X97975499Y-52790644D01*
X101573500Y-52790644D01*
X101573500Y-52790646D01*
X101573500Y-52880356D01*
X101573500Y-52880358D01*
X101573501Y-52880359D01*
X101607830Y-52963237D01*
X101607832Y-52963240D01*
X101671261Y-53026669D01*
X101671263Y-53026670D01*
X101671264Y-53026671D01*
X101754145Y-53061001D01*
X101754147Y-53061001D01*
X101843853Y-53061001D01*
X101843855Y-53061001D01*
X101926736Y-53026671D01*
X101926737Y-53026669D01*
X101926739Y-53026669D01*
X101990168Y-52963240D01*
X101990168Y-52963238D01*
X101990170Y-52963237D01*
X102024500Y-52880356D01*
X102024500Y-52790646D01*
X101990170Y-52707765D01*
X101990169Y-52707764D01*
X101990168Y-52707762D01*
X101926739Y-52644333D01*
X101926736Y-52644331D01*
X101843858Y-52610002D01*
X101843856Y-52610001D01*
X101843855Y-52610001D01*
X101754145Y-52610001D01*
X101754143Y-52610001D01*
X101754141Y-52610002D01*
X101671263Y-52644331D01*
X101607830Y-52707764D01*
X101573501Y-52790642D01*
X101573500Y-52790644D01*
X97975499Y-52790644D01*
X97975499Y-52638637D01*
X97972585Y-52613510D01*
X97927206Y-52510736D01*
X97927205Y-52510735D01*
X97927205Y-52510734D01*
X97847767Y-52431296D01*
X97841763Y-52428645D01*
X97841762Y-52428644D01*
X97751171Y-52388644D01*
X100756500Y-52388644D01*
X100756500Y-52388646D01*
X100756500Y-52478356D01*
X100756500Y-52478358D01*
X100756501Y-52478359D01*
X100790830Y-52561237D01*
X100790832Y-52561240D01*
X100854261Y-52624669D01*
X100854263Y-52624670D01*
X100854264Y-52624671D01*
X100937145Y-52659001D01*
X100937147Y-52659001D01*
X101026853Y-52659001D01*
X101026855Y-52659001D01*
X101109736Y-52624671D01*
X101109737Y-52624669D01*
X101109739Y-52624669D01*
X101173168Y-52561240D01*
X101173168Y-52561239D01*
X101173170Y-52561237D01*
X101182532Y-52538635D01*
X103924500Y-52538635D01*
X103924500Y-53028359D01*
X103924501Y-53028369D01*
X103927415Y-53053493D01*
X103972794Y-53156267D01*
X104052233Y-53235706D01*
X104155006Y-53281085D01*
X104155009Y-53281086D01*
X104180135Y-53284001D01*
X104819864Y-53284000D01*
X104844991Y-53281086D01*
X104947765Y-53235707D01*
X105027206Y-53156266D01*
X105072585Y-53053492D01*
X105075500Y-53028366D01*
X105075499Y-52538637D01*
X105075499Y-52538635D01*
X105424500Y-52538635D01*
X105424500Y-53028359D01*
X105424501Y-53028369D01*
X105427415Y-53053493D01*
X105472794Y-53156267D01*
X105552233Y-53235706D01*
X105655006Y-53281085D01*
X105655009Y-53281086D01*
X105680135Y-53284001D01*
X106319864Y-53284000D01*
X106344991Y-53281086D01*
X106447765Y-53235707D01*
X106527206Y-53156266D01*
X106572585Y-53053492D01*
X106575500Y-53028366D01*
X106575499Y-52538637D01*
X106575499Y-52538635D01*
X106924500Y-52538635D01*
X106924500Y-53028359D01*
X106924501Y-53028369D01*
X106927415Y-53053493D01*
X106972794Y-53156267D01*
X107052233Y-53235706D01*
X107155006Y-53281085D01*
X107155009Y-53281086D01*
X107180135Y-53284001D01*
X107819864Y-53284000D01*
X107844991Y-53281086D01*
X107947765Y-53235707D01*
X108027206Y-53156266D01*
X108072585Y-53053492D01*
X108075500Y-53028366D01*
X108075499Y-52538637D01*
X108075499Y-52538635D01*
X108424500Y-52538635D01*
X108424500Y-53028359D01*
X108424501Y-53028369D01*
X108427415Y-53053493D01*
X108472794Y-53156267D01*
X108552233Y-53235706D01*
X108655006Y-53281085D01*
X108655009Y-53281086D01*
X108680135Y-53284001D01*
X109319864Y-53284000D01*
X109344991Y-53281086D01*
X109447765Y-53235707D01*
X109527206Y-53156266D01*
X109572585Y-53053492D01*
X109575500Y-53028366D01*
X109575499Y-52538637D01*
X109575499Y-52538635D01*
X109924500Y-52538635D01*
X109924500Y-53028359D01*
X109924501Y-53028369D01*
X109927415Y-53053493D01*
X109972794Y-53156267D01*
X110052233Y-53235706D01*
X110155006Y-53281085D01*
X110155009Y-53281086D01*
X110180135Y-53284001D01*
X110819864Y-53284000D01*
X110844991Y-53281086D01*
X110947765Y-53235707D01*
X111027206Y-53156266D01*
X111072585Y-53053492D01*
X111075500Y-53028366D01*
X111075499Y-52538637D01*
X111075499Y-52538635D01*
X111424500Y-52538635D01*
X111424500Y-53028359D01*
X111424501Y-53028369D01*
X111427415Y-53053493D01*
X111472794Y-53156267D01*
X111552233Y-53235706D01*
X111655006Y-53281085D01*
X111655009Y-53281086D01*
X111680135Y-53284001D01*
X112319864Y-53284000D01*
X112344991Y-53281086D01*
X112447765Y-53235707D01*
X112527206Y-53156266D01*
X112572585Y-53053492D01*
X112575500Y-53028366D01*
X112575499Y-52538637D01*
X112572585Y-52513510D01*
X112527206Y-52410736D01*
X112527205Y-52410735D01*
X112527205Y-52410734D01*
X112447766Y-52331295D01*
X112447767Y-52331295D01*
X112344993Y-52285916D01*
X112332428Y-52284458D01*
X112319865Y-52283001D01*
X112319863Y-52283001D01*
X111680141Y-52283001D01*
X111680131Y-52283002D01*
X111655007Y-52285916D01*
X111552233Y-52331295D01*
X111472794Y-52410734D01*
X111427415Y-52513507D01*
X111424500Y-52538635D01*
X111075499Y-52538635D01*
X111072585Y-52513510D01*
X111027206Y-52410736D01*
X111027205Y-52410735D01*
X111027205Y-52410734D01*
X110947766Y-52331295D01*
X110947767Y-52331295D01*
X110844993Y-52285916D01*
X110832428Y-52284458D01*
X110819865Y-52283001D01*
X110819863Y-52283001D01*
X110180141Y-52283001D01*
X110180131Y-52283002D01*
X110155007Y-52285916D01*
X110052233Y-52331295D01*
X109972794Y-52410734D01*
X109927415Y-52513507D01*
X109924500Y-52538635D01*
X109575499Y-52538635D01*
X109572585Y-52513510D01*
X109527206Y-52410736D01*
X109527205Y-52410735D01*
X109527205Y-52410734D01*
X109447766Y-52331295D01*
X109447767Y-52331295D01*
X109344993Y-52285916D01*
X109332428Y-52284458D01*
X109319865Y-52283001D01*
X109319863Y-52283001D01*
X108680141Y-52283001D01*
X108680131Y-52283002D01*
X108655007Y-52285916D01*
X108552233Y-52331295D01*
X108472794Y-52410734D01*
X108427415Y-52513507D01*
X108424500Y-52538635D01*
X108075499Y-52538635D01*
X108072585Y-52513510D01*
X108027206Y-52410736D01*
X108027205Y-52410735D01*
X108027205Y-52410734D01*
X107947766Y-52331295D01*
X107947767Y-52331295D01*
X107844993Y-52285916D01*
X107832428Y-52284458D01*
X107819865Y-52283001D01*
X107819863Y-52283001D01*
X107180141Y-52283001D01*
X107180131Y-52283002D01*
X107155007Y-52285916D01*
X107052233Y-52331295D01*
X106972794Y-52410734D01*
X106927415Y-52513507D01*
X106924500Y-52538635D01*
X106575499Y-52538635D01*
X106572585Y-52513510D01*
X106527206Y-52410736D01*
X106527205Y-52410735D01*
X106527205Y-52410734D01*
X106447766Y-52331295D01*
X106447767Y-52331295D01*
X106344993Y-52285916D01*
X106332428Y-52284458D01*
X106319865Y-52283001D01*
X106319863Y-52283001D01*
X105680141Y-52283001D01*
X105680131Y-52283002D01*
X105655007Y-52285916D01*
X105552233Y-52331295D01*
X105472794Y-52410734D01*
X105427415Y-52513507D01*
X105424500Y-52538635D01*
X105075499Y-52538635D01*
X105072585Y-52513510D01*
X105027206Y-52410736D01*
X105027205Y-52410735D01*
X105027205Y-52410734D01*
X104947766Y-52331295D01*
X104947767Y-52331295D01*
X104844993Y-52285916D01*
X104832428Y-52284458D01*
X104819865Y-52283001D01*
X104819863Y-52283001D01*
X104180141Y-52283001D01*
X104180131Y-52283002D01*
X104155007Y-52285916D01*
X104052233Y-52331295D01*
X103972794Y-52410734D01*
X103927415Y-52513507D01*
X103924500Y-52538635D01*
X101182532Y-52538635D01*
X101207500Y-52478356D01*
X101207500Y-52388646D01*
X101173170Y-52305765D01*
X101173169Y-52305764D01*
X101173168Y-52305762D01*
X101109739Y-52242333D01*
X101109736Y-52242331D01*
X101026858Y-52208002D01*
X101026856Y-52208001D01*
X101026855Y-52208001D01*
X100937145Y-52208001D01*
X100937143Y-52208001D01*
X100937141Y-52208002D01*
X100854263Y-52242331D01*
X100790830Y-52305764D01*
X100756501Y-52388642D01*
X100756500Y-52388644D01*
X97751171Y-52388644D01*
X97744993Y-52385916D01*
X97732428Y-52384458D01*
X97719865Y-52383001D01*
X97719863Y-52383001D01*
X97080141Y-52383001D01*
X97080131Y-52383002D01*
X97055007Y-52385916D01*
X96952233Y-52431295D01*
X96872794Y-52510734D01*
X96827415Y-52613507D01*
X96824500Y-52638635D01*
X95975499Y-52638635D01*
X95972585Y-52613510D01*
X95927206Y-52510736D01*
X95927205Y-52510735D01*
X95927205Y-52510734D01*
X95847766Y-52431295D01*
X95847767Y-52431295D01*
X95744993Y-52385916D01*
X95732428Y-52384458D01*
X95719865Y-52383001D01*
X95719863Y-52383001D01*
X95080141Y-52383001D01*
X95080131Y-52383002D01*
X95055007Y-52385916D01*
X94952233Y-52431295D01*
X94872794Y-52510734D01*
X94827415Y-52613507D01*
X94824500Y-52638635D01*
X93975499Y-52638635D01*
X93972585Y-52613510D01*
X93927206Y-52510736D01*
X93927205Y-52510735D01*
X93927205Y-52510734D01*
X93847766Y-52431295D01*
X93847767Y-52431295D01*
X93744993Y-52385916D01*
X93732428Y-52384458D01*
X93719865Y-52383001D01*
X93719863Y-52383001D01*
X93080141Y-52383001D01*
X93080131Y-52383002D01*
X93055007Y-52385916D01*
X92952233Y-52431295D01*
X92872794Y-52510734D01*
X92827415Y-52613507D01*
X92824500Y-52638635D01*
X89950500Y-52638635D01*
X89950500Y-51908001D01*
X89964852Y-51873353D01*
X89999500Y-51859001D01*
X115900500Y-51859001D01*
X115935148Y-51873353D01*
G37*
%TD.AperFunction*%
%TD*%
M02*
