M48
; DRILL file {KiCad 9.0.2} date 2025-07-17T09:08:12+0200
; FORMAT={-:-/ absolute / metric / decimal}
; #@! TF.CreationDate,2025-07-17T09:08:12+02:00
; #@! TF.GenerationSoftware,Kicad,Pcbnew,9.0.2
; #@! TF.FileFunction,Plated,1,4,PTH
FMAT,2
METRIC
; #@! TA.AperFunction,Plated,PTH,ViaDrill
T1C0.150
%
G90
G05
T1
X42.58Y-26.42
X42.58Y-27.58
X42.58Y-46.42
X42.58Y-47.58
X42.58Y-66.42
X42.58Y-67.58
X42.58Y-86.42
X42.58Y-87.58
X42.6Y-29.0
X42.6Y-31.0
X42.6Y-33.0
X42.6Y-35.0
X42.6Y-49.0
X42.6Y-51.0
X42.6Y-53.0
X42.6Y-55.0
X42.6Y-69.0
X42.6Y-71.0
X42.6Y-73.0
X42.6Y-75.0
X42.6Y-89.0
X42.6Y-91.0
X42.6Y-93.0
X42.6Y-95.0
X43.4Y-21.0
X43.4Y-35.0
X43.4Y-41.0
X43.4Y-55.0
X43.4Y-61.0
X43.4Y-75.0
X43.4Y-81.0
X43.4Y-95.0
X43.42Y-19.58
X43.42Y-21.58
X43.42Y-33.58
X43.42Y-35.58
X43.42Y-39.58
X43.42Y-41.58
X43.42Y-53.58
X43.42Y-55.58
X43.42Y-59.58
X43.42Y-61.58
X43.42Y-73.58
X43.42Y-75.58
X43.42Y-79.58
X43.42Y-81.58
X43.42Y-93.58
X43.42Y-95.58
X43.42Y-22.897
X43.42Y-42.897
X43.42Y-62.897
X43.42Y-82.897
X43.53Y-25.0
X43.53Y-27.0
X43.53Y-29.0
X43.53Y-31.0
X43.53Y-45.0
X43.53Y-47.0
X43.53Y-49.0
X43.53Y-51.0
X43.53Y-65.0
X43.53Y-67.0
X43.53Y-69.0
X43.53Y-71.0
X43.53Y-85.0
X43.53Y-87.0
X43.53Y-89.0
X43.53Y-91.0
X43.85Y-22.42
X43.85Y-42.42
X43.85Y-62.42
X43.85Y-82.42
X44.009Y-19.61
X44.009Y-36.41
X44.009Y-39.609
X44.009Y-56.409
X44.009Y-59.609
X44.009Y-76.409
X44.009Y-79.609
X44.009Y-96.409
X44.58Y-22.42
X44.58Y-25.58
X44.58Y-42.42
X44.58Y-45.58
X44.58Y-62.42
X44.58Y-65.58
X44.58Y-82.42
X44.58Y-85.58
X44.6Y-21.0
X44.6Y-35.0
X44.6Y-41.0
X44.6Y-55.0
X44.6Y-61.0
X44.6Y-75.0
X44.6Y-81.0
X44.6Y-95.0
X45.27Y-25.0
X45.27Y-27.0
X45.27Y-29.0
X45.27Y-31.0
X45.27Y-45.0
X45.27Y-47.0
X45.27Y-49.0
X45.27Y-51.0
X45.27Y-65.0
X45.27Y-67.0
X45.27Y-69.0
X45.27Y-71.0
X45.27Y-85.0
X45.27Y-87.0
X45.27Y-89.0
X45.27Y-91.0
X45.4Y-21.0
X45.4Y-33.0
X45.4Y-35.0
X45.4Y-41.0
X45.4Y-53.0
X45.4Y-55.0
X45.4Y-61.0
X45.4Y-73.0
X45.4Y-75.0
X45.4Y-81.0
X45.4Y-93.0
X45.4Y-95.0
X45.42Y-19.58
X45.42Y-20.42
X45.42Y-21.58
X45.42Y-33.58
X45.42Y-35.58
X45.42Y-39.58
X45.42Y-40.42
X45.42Y-41.58
X45.42Y-53.58
X45.42Y-55.58
X45.42Y-59.58
X45.42Y-60.42
X45.42Y-61.58
X45.42Y-73.58
X45.42Y-75.58
X45.42Y-79.58
X45.42Y-80.42
X45.42Y-81.58
X45.42Y-93.58
X45.42Y-95.58
X45.42Y-22.897
X45.42Y-42.897
X45.42Y-62.897
X45.42Y-82.897
X46.009Y-19.61
X46.009Y-36.41
X46.009Y-39.609
X46.009Y-56.409
X46.009Y-59.609
X46.009Y-76.409
X46.009Y-79.609
X46.009Y-96.409
X46.58Y-30.42
X46.58Y-31.58
X46.58Y-50.42
X46.58Y-51.58
X46.58Y-70.42
X46.58Y-71.58
X46.58Y-90.42
X46.58Y-91.58
X46.6Y-21.0
X46.6Y-23.0
X46.6Y-25.0
X46.6Y-27.0
X46.6Y-29.0
X46.6Y-33.0
X46.6Y-35.0
X46.6Y-41.0
X46.6Y-43.0
X46.6Y-45.0
X46.6Y-47.0
X46.6Y-49.0
X46.6Y-53.0
X46.6Y-55.0
X46.6Y-61.0
X46.6Y-63.0
X46.6Y-65.0
X46.6Y-67.0
X46.6Y-69.0
X46.6Y-73.0
X46.6Y-75.0
X46.6Y-81.0
X46.6Y-83.0
X46.6Y-85.0
X46.6Y-87.0
X46.6Y-89.0
X46.6Y-93.0
X46.6Y-95.0
X47.4Y-21.0
X47.4Y-23.0
X47.4Y-25.0
X47.4Y-31.0
X47.4Y-33.0
X47.4Y-35.0
X47.4Y-41.0
X47.4Y-43.0
X47.4Y-45.0
X47.4Y-51.0
X47.4Y-53.0
X47.4Y-55.0
X47.4Y-61.0
X47.4Y-63.0
X47.4Y-65.0
X47.4Y-71.0
X47.4Y-73.0
X47.4Y-75.0
X47.4Y-81.0
X47.4Y-83.0
X47.4Y-85.0
X47.4Y-91.0
X47.4Y-93.0
X47.4Y-95.0
X47.42Y-19.58
X47.42Y-21.58
X47.42Y-23.58
X47.42Y-25.58
X47.42Y-27.58
X47.42Y-29.58
X47.42Y-31.58
X47.42Y-33.58
X47.42Y-34.42
X47.42Y-35.58
X47.42Y-39.58
X47.42Y-41.58
X47.42Y-43.58
X47.42Y-45.58
X47.42Y-47.58
X47.42Y-49.58
X47.42Y-51.58
X47.42Y-53.58
X47.42Y-54.42
X47.42Y-55.58
X47.42Y-59.58
X47.42Y-61.58
X47.42Y-63.58
X47.42Y-65.58
X47.42Y-67.58
X47.42Y-69.58
X47.42Y-71.58
X47.42Y-73.58
X47.42Y-74.42
X47.42Y-75.58
X47.42Y-79.58
X47.42Y-81.58
X47.42Y-83.58
X47.42Y-85.58
X47.42Y-87.58
X47.42Y-89.58
X47.42Y-91.58
X47.42Y-93.58
X47.42Y-94.42
X47.42Y-95.58
X48.009Y-19.61
X48.009Y-36.41
X48.009Y-39.609
X48.009Y-56.409
X48.009Y-59.609
X48.009Y-76.409
X48.009Y-79.609
X48.009Y-96.409
X48.58Y-30.42
X48.58Y-31.58
X48.58Y-50.42
X48.58Y-51.58
X48.58Y-70.42
X48.58Y-71.58
X48.58Y-90.42
X48.58Y-91.58
X48.6Y-21.0
X48.6Y-23.0
X48.6Y-25.0
X48.6Y-29.0
X48.6Y-31.0
X48.6Y-33.0
X48.6Y-35.0
X48.6Y-41.0
X48.6Y-43.0
X48.6Y-45.0
X48.6Y-49.0
X48.6Y-51.0
X48.6Y-53.0
X48.6Y-55.0
X48.6Y-61.0
X48.6Y-63.0
X48.6Y-65.0
X48.6Y-69.0
X48.6Y-71.0
X48.6Y-73.0
X48.6Y-75.0
X48.6Y-81.0
X48.6Y-83.0
X48.6Y-85.0
X48.6Y-89.0
X48.6Y-91.0
X48.6Y-93.0
X48.6Y-95.0
X49.4Y-21.0
X49.4Y-23.0
X49.4Y-27.0
X49.4Y-29.0
X49.4Y-31.0
X49.4Y-33.0
X49.4Y-35.0
X49.4Y-41.0
X49.4Y-43.0
X49.4Y-47.0
X49.4Y-49.0
X49.4Y-51.0
X49.4Y-53.0
X49.4Y-55.0
X49.4Y-61.0
X49.4Y-63.0
X49.4Y-67.0
X49.4Y-69.0
X49.4Y-71.0
X49.4Y-73.0
X49.4Y-75.0
X49.4Y-81.0
X49.4Y-83.0
X49.4Y-87.0
X49.4Y-89.0
X49.4Y-91.0
X49.4Y-93.0
X49.4Y-95.0
X49.42Y-19.58
X49.42Y-21.58
X49.42Y-23.58
X49.42Y-25.58
X49.42Y-27.58
X49.42Y-28.42
X49.42Y-29.58
X49.42Y-31.58
X49.42Y-33.58
X49.42Y-35.58
X49.42Y-39.58
X49.42Y-41.58
X49.42Y-43.58
X49.42Y-45.58
X49.42Y-47.58
X49.42Y-48.42
X49.42Y-49.58
X49.42Y-51.58
X49.42Y-53.58
X49.42Y-55.58
X49.42Y-59.58
X49.42Y-61.58
X49.42Y-63.58
X49.42Y-65.58
X49.42Y-67.58
X49.42Y-68.42
X49.42Y-69.58
X49.42Y-71.58
X49.42Y-73.58
X49.42Y-75.58
X49.42Y-79.58
X49.42Y-81.58
X49.42Y-83.58
X49.42Y-85.58
X49.42Y-87.58
X49.42Y-88.42
X49.42Y-89.58
X49.42Y-91.58
X49.42Y-93.58
X49.42Y-95.58
X50.009Y-19.61
X50.009Y-36.41
X50.009Y-39.609
X50.009Y-56.409
X50.009Y-59.609
X50.009Y-76.409
X50.009Y-79.609
X50.009Y-96.409
X50.58Y-26.42
X50.58Y-27.58
X50.58Y-46.42
X50.58Y-47.58
X50.58Y-66.42
X50.58Y-67.58
X50.58Y-86.42
X50.58Y-87.58
X50.6Y-21.0
X50.6Y-23.0
X50.6Y-27.0
X50.6Y-29.0
X50.6Y-31.0
X50.6Y-33.0
X50.6Y-35.0
X50.6Y-41.0
X50.6Y-43.0
X50.6Y-47.0
X50.6Y-49.0
X50.6Y-51.0
X50.6Y-53.0
X50.6Y-55.0
X50.6Y-61.0
X50.6Y-63.0
X50.6Y-67.0
X50.6Y-69.0
X50.6Y-71.0
X50.6Y-73.0
X50.6Y-75.0
X50.6Y-81.0
X50.6Y-83.0
X50.6Y-87.0
X50.6Y-89.0
X50.6Y-91.0
X50.6Y-93.0
X50.6Y-95.0
X51.4Y-21.0
X51.4Y-23.0
X51.4Y-27.0
X51.4Y-29.0
X51.4Y-31.0
X51.4Y-33.0
X51.4Y-35.0
X51.4Y-41.0
X51.4Y-43.0
X51.4Y-47.0
X51.4Y-49.0
X51.4Y-51.0
X51.4Y-53.0
X51.4Y-55.0
X51.4Y-61.0
X51.4Y-63.0
X51.4Y-67.0
X51.4Y-69.0
X51.4Y-71.0
X51.4Y-73.0
X51.4Y-75.0
X51.4Y-81.0
X51.4Y-83.0
X51.4Y-87.0
X51.4Y-89.0
X51.4Y-91.0
X51.4Y-93.0
X51.4Y-95.0
X51.42Y-19.58
X51.42Y-21.58
X51.42Y-23.58
X51.42Y-25.58
X51.42Y-26.42
X51.42Y-27.58
X51.42Y-29.58
X51.42Y-31.58
X51.42Y-33.58
X51.42Y-35.58
X51.42Y-39.58
X51.42Y-41.58
X51.42Y-43.58
X51.42Y-45.58
X51.42Y-46.42
X51.42Y-47.58
X51.42Y-49.58
X51.42Y-51.58
X51.42Y-53.58
X51.42Y-55.58
X51.42Y-59.58
X51.42Y-61.58
X51.42Y-63.58
X51.42Y-65.58
X51.42Y-66.42
X51.42Y-67.58
X51.42Y-69.58
X51.42Y-71.58
X51.42Y-73.58
X51.42Y-75.58
X51.42Y-79.58
X51.42Y-81.58
X51.42Y-83.58
X51.42Y-85.58
X51.42Y-86.42
X51.42Y-87.58
X51.42Y-89.58
X51.42Y-91.58
X51.42Y-93.58
X51.42Y-95.58
X52.009Y-19.61
X52.009Y-36.41
X52.009Y-39.609
X52.009Y-56.409
X52.009Y-59.609
X52.009Y-76.409
X52.009Y-79.609
X52.009Y-96.409
X52.58Y-25.58
X52.58Y-32.42
X52.58Y-45.58
X52.58Y-52.42
X52.58Y-65.58
X52.58Y-72.42
X52.58Y-85.58
X52.58Y-92.42
X52.6Y-21.0
X52.6Y-23.0
X52.6Y-27.0
X52.6Y-29.0
X52.6Y-31.0
X52.6Y-33.0
X52.6Y-35.0
X52.6Y-41.0
X52.6Y-43.0
X52.6Y-47.0
X52.6Y-49.0
X52.6Y-51.0
X52.6Y-53.0
X52.6Y-55.0
X52.6Y-61.0
X52.6Y-63.0
X52.6Y-67.0
X52.6Y-69.0
X52.6Y-71.0
X52.6Y-73.0
X52.6Y-75.0
X52.6Y-81.0
X52.6Y-83.0
X52.6Y-87.0
X52.6Y-89.0
X52.6Y-91.0
X52.6Y-93.0
X52.6Y-95.0
X53.4Y-21.0
X53.4Y-23.0
X53.4Y-25.0
X53.4Y-27.0
X53.4Y-29.0
X53.4Y-31.0
X53.4Y-35.0
X53.4Y-41.0
X53.4Y-43.0
X53.4Y-45.0
X53.4Y-47.0
X53.4Y-49.0
X53.4Y-51.0
X53.4Y-55.0
X53.4Y-61.0
X53.4Y-63.0
X53.4Y-65.0
X53.4Y-67.0
X53.4Y-69.0
X53.4Y-71.0
X53.4Y-75.0
X53.4Y-81.0
X53.4Y-83.0
X53.4Y-85.0
X53.4Y-87.0
X53.4Y-89.0
X53.4Y-91.0
X53.4Y-95.0
X53.42Y-19.58
X53.42Y-21.58
X53.42Y-23.58
X53.42Y-25.58
X53.42Y-27.58
X53.42Y-29.58
X53.42Y-31.58
X53.42Y-32.42
X53.42Y-33.58
X53.42Y-35.58
X53.42Y-39.58
X53.42Y-41.58
X53.42Y-43.58
X53.42Y-45.58
X53.42Y-47.58
X53.42Y-49.58
X53.42Y-51.58
X53.42Y-52.42
X53.42Y-53.58
X53.42Y-55.58
X53.42Y-59.58
X53.42Y-61.58
X53.42Y-63.58
X53.42Y-65.58
X53.42Y-67.58
X53.42Y-69.58
X53.42Y-71.58
X53.42Y-72.42
X53.42Y-73.58
X53.42Y-75.58
X53.42Y-79.58
X53.42Y-81.58
X53.42Y-83.58
X53.42Y-85.58
X53.42Y-87.58
X53.42Y-89.58
X53.42Y-91.58
X53.42Y-92.42
X53.42Y-93.58
X53.42Y-95.58
X54.009Y-19.61
X54.009Y-36.41
X54.009Y-39.609
X54.009Y-56.409
X54.009Y-59.609
X54.009Y-76.409
X54.009Y-79.609
X54.009Y-96.409
X54.58Y-30.42
X54.58Y-31.58
X54.58Y-50.42
X54.58Y-51.58
X54.58Y-70.42
X54.58Y-71.58
X54.58Y-90.42
X54.58Y-91.58
X54.6Y-21.0
X54.6Y-23.0
X54.6Y-25.0
X54.6Y-27.0
X54.6Y-29.0
X54.6Y-31.0
X54.6Y-35.0
X54.6Y-41.0
X54.6Y-43.0
X54.6Y-45.0
X54.6Y-47.0
X54.6Y-49.0
X54.6Y-51.0
X54.6Y-55.0
X54.6Y-61.0
X54.6Y-63.0
X54.6Y-65.0
X54.6Y-67.0
X54.6Y-69.0
X54.6Y-71.0
X54.6Y-75.0
X54.6Y-81.0
X54.6Y-83.0
X54.6Y-85.0
X54.6Y-87.0
X54.6Y-89.0
X54.6Y-91.0
X54.6Y-95.0
X55.4Y-21.0
X55.4Y-23.0
X55.4Y-25.0
X55.4Y-27.0
X55.4Y-29.0
X55.4Y-35.0
X55.4Y-41.0
X55.4Y-43.0
X55.4Y-45.0
X55.4Y-47.0
X55.4Y-49.0
X55.4Y-55.0
X55.4Y-61.0
X55.4Y-63.0
X55.4Y-65.0
X55.4Y-67.0
X55.4Y-69.0
X55.4Y-75.0
X55.4Y-81.0
X55.4Y-83.0
X55.4Y-85.0
X55.4Y-87.0
X55.4Y-89.0
X55.4Y-95.0
X55.42Y-19.58
X55.42Y-21.58
X55.42Y-23.58
X55.42Y-25.58
X55.42Y-27.58
X55.42Y-29.58
X55.42Y-30.42
X55.42Y-31.58
X55.42Y-33.58
X55.42Y-35.58
X55.42Y-39.58
X55.42Y-41.58
X55.42Y-43.58
X55.42Y-45.58
X55.42Y-47.58
X55.42Y-49.58
X55.42Y-50.42
X55.42Y-51.58
X55.42Y-53.58
X55.42Y-55.58
X55.42Y-59.58
X55.42Y-61.58
X55.42Y-63.58
X55.42Y-65.58
X55.42Y-67.58
X55.42Y-69.58
X55.42Y-70.42
X55.42Y-71.58
X55.42Y-73.58
X55.42Y-75.58
X55.42Y-79.58
X55.42Y-81.58
X55.42Y-83.58
X55.42Y-85.58
X55.42Y-87.58
X55.42Y-89.58
X55.42Y-90.42
X55.42Y-91.58
X55.42Y-93.58
X55.42Y-95.58
X56.009Y-19.61
X56.009Y-36.41
X56.009Y-39.609
X56.009Y-56.409
X56.009Y-59.609
X56.009Y-76.409
X56.009Y-79.609
X56.009Y-96.409
X56.58Y-29.58
X56.58Y-30.42
X56.58Y-49.58
X56.58Y-50.42
X56.58Y-69.58
X56.58Y-70.42
X56.58Y-89.58
X56.58Y-90.42
X56.6Y-21.0
X56.6Y-23.0
X56.6Y-25.0
X56.6Y-27.0
X56.6Y-35.0
X56.6Y-41.0
X56.6Y-43.0
X56.6Y-45.0
X56.6Y-47.0
X56.6Y-55.0
X56.6Y-61.0
X56.6Y-63.0
X56.6Y-65.0
X56.6Y-67.0
X56.6Y-75.0
X56.6Y-81.0
X56.6Y-83.0
X56.6Y-85.0
X56.6Y-87.0
X56.6Y-95.0
X57.4Y-21.0
X57.4Y-23.0
X57.4Y-25.0
X57.4Y-27.0
X57.4Y-29.0
X57.4Y-35.0
X57.4Y-41.0
X57.4Y-43.0
X57.4Y-45.0
X57.4Y-47.0
X57.4Y-49.0
X57.4Y-55.0
X57.4Y-61.0
X57.4Y-63.0
X57.4Y-65.0
X57.4Y-67.0
X57.4Y-69.0
X57.4Y-75.0
X57.4Y-81.0
X57.4Y-83.0
X57.4Y-85.0
X57.4Y-87.0
X57.4Y-89.0
X57.4Y-95.0
X57.42Y-19.58
X57.42Y-21.58
X57.42Y-23.58
X57.42Y-25.58
X57.42Y-27.58
X57.42Y-29.58
X57.42Y-30.42
X57.42Y-31.58
X57.42Y-33.58
X57.42Y-35.58
X57.42Y-39.58
X57.42Y-41.58
X57.42Y-43.58
X57.42Y-45.58
X57.42Y-47.58
X57.42Y-49.58
X57.42Y-50.42
X57.42Y-51.58
X57.42Y-53.58
X57.42Y-55.58
X57.42Y-59.58
X57.42Y-61.58
X57.42Y-63.58
X57.42Y-65.58
X57.42Y-67.58
X57.42Y-69.58
X57.42Y-70.42
X57.42Y-71.58
X57.42Y-73.58
X57.42Y-75.58
X57.42Y-79.58
X57.42Y-81.58
X57.42Y-83.58
X57.42Y-85.58
X57.42Y-87.58
X57.42Y-89.58
X57.42Y-90.42
X57.42Y-91.58
X57.42Y-93.58
X57.42Y-95.58
X58.009Y-19.61
X58.009Y-36.41
X58.009Y-39.609
X58.009Y-56.409
X58.009Y-59.609
X58.009Y-76.409
X58.009Y-79.609
X58.009Y-96.409
X58.58Y-28.42
X58.58Y-29.58
X58.58Y-48.42
X58.58Y-49.58
X58.58Y-68.42
X58.58Y-69.58
X58.58Y-88.42
X58.58Y-89.58
X58.6Y-21.0
X58.6Y-23.0
X58.6Y-25.0
X58.6Y-27.0
X58.6Y-29.0
X58.6Y-35.0
X58.6Y-41.0
X58.6Y-43.0
X58.6Y-45.0
X58.6Y-47.0
X58.6Y-49.0
X58.6Y-55.0
X58.6Y-61.0
X58.6Y-63.0
X58.6Y-65.0
X58.6Y-67.0
X58.6Y-69.0
X58.6Y-75.0
X58.6Y-81.0
X58.6Y-83.0
X58.6Y-85.0
X58.6Y-87.0
X58.6Y-89.0
X58.6Y-95.0
X59.4Y-21.0
X59.4Y-23.0
X59.4Y-25.0
X59.4Y-35.0
X59.4Y-41.0
X59.4Y-43.0
X59.4Y-45.0
X59.4Y-55.0
X59.4Y-61.0
X59.4Y-63.0
X59.4Y-65.0
X59.4Y-75.0
X59.4Y-81.0
X59.4Y-83.0
X59.4Y-85.0
X59.4Y-95.0
X59.42Y-19.58
X59.42Y-21.58
X59.42Y-23.58
X59.42Y-25.58
X59.42Y-26.42
X59.42Y-27.58
X59.42Y-29.58
X59.42Y-31.58
X59.42Y-33.58
X59.42Y-35.58
X59.42Y-39.58
X59.42Y-41.58
X59.42Y-43.58
X59.42Y-45.58
X59.42Y-46.42
X59.42Y-47.58
X59.42Y-49.58
X59.42Y-51.58
X59.42Y-53.58
X59.42Y-55.58
X59.42Y-59.58
X59.42Y-61.58
X59.42Y-63.58
X59.42Y-65.58
X59.42Y-66.42
X59.42Y-67.58
X59.42Y-69.58
X59.42Y-71.58
X59.42Y-73.58
X59.42Y-75.58
X59.42Y-79.58
X59.42Y-81.58
X59.42Y-83.58
X59.42Y-85.58
X59.42Y-86.42
X59.42Y-87.58
X59.42Y-89.58
X59.42Y-91.58
X59.42Y-93.58
X59.42Y-95.58
X60.009Y-19.61
X60.009Y-36.41
X60.009Y-39.609
X60.009Y-56.409
X60.009Y-59.609
X60.009Y-76.409
X60.009Y-79.609
X60.009Y-96.409
X60.58Y-26.42
X60.58Y-27.58
X60.58Y-46.42
X60.58Y-47.58
X60.58Y-66.42
X60.58Y-67.58
X60.58Y-86.42
X60.58Y-87.58
X60.6Y-21.0
X60.6Y-23.0
X60.6Y-25.0
X60.6Y-33.0
X60.6Y-35.0
X60.6Y-41.0
X60.6Y-43.0
X60.6Y-45.0
X60.6Y-53.0
X60.6Y-55.0
X60.6Y-61.0
X60.6Y-63.0
X60.6Y-65.0
X60.6Y-73.0
X60.6Y-75.0
X60.6Y-81.0
X60.6Y-83.0
X60.6Y-85.0
X60.6Y-93.0
X60.6Y-95.0
X61.4Y-21.0
X61.4Y-23.0
X61.4Y-25.0
X61.4Y-33.0
X61.4Y-35.0
X61.4Y-41.0
X61.4Y-43.0
X61.4Y-45.0
X61.4Y-53.0
X61.4Y-55.0
X61.4Y-61.0
X61.4Y-63.0
X61.4Y-65.0
X61.4Y-73.0
X61.4Y-75.0
X61.4Y-81.0
X61.4Y-83.0
X61.4Y-85.0
X61.4Y-93.0
X61.4Y-95.0
X61.42Y-19.58
X61.42Y-21.58
X61.42Y-23.58
X61.42Y-25.58
X61.42Y-26.42
X61.42Y-27.58
X61.42Y-29.58
X61.42Y-31.58
X61.42Y-33.58
X61.42Y-35.58
X61.42Y-39.58
X61.42Y-41.58
X61.42Y-43.58
X61.42Y-45.58
X61.42Y-46.42
X61.42Y-47.58
X61.42Y-49.58
X61.42Y-51.58
X61.42Y-53.58
X61.42Y-55.58
X61.42Y-59.58
X61.42Y-61.58
X61.42Y-63.58
X61.42Y-65.58
X61.42Y-66.42
X61.42Y-67.58
X61.42Y-69.58
X61.42Y-71.58
X61.42Y-73.58
X61.42Y-75.58
X61.42Y-79.58
X61.42Y-81.58
X61.42Y-83.58
X61.42Y-85.58
X61.42Y-86.42
X61.42Y-87.58
X61.42Y-89.58
X61.42Y-91.58
X61.42Y-93.58
X61.42Y-95.58
X62.009Y-19.61
X62.009Y-36.41
X62.009Y-39.609
X62.009Y-56.409
X62.009Y-59.609
X62.009Y-76.409
X62.009Y-79.609
X62.009Y-96.409
X62.58Y-24.42
X62.58Y-25.58
X62.58Y-44.42
X62.58Y-45.58
X62.58Y-64.42
X62.58Y-65.58
X62.58Y-84.42
X62.58Y-85.58
X62.6Y-21.0
X62.6Y-23.0
X62.6Y-33.0
X62.6Y-35.0
X62.6Y-41.0
X62.6Y-43.0
X62.6Y-53.0
X62.6Y-55.0
X62.6Y-61.0
X62.6Y-63.0
X62.6Y-73.0
X62.6Y-75.0
X62.6Y-81.0
X62.6Y-83.0
X62.6Y-93.0
X62.6Y-95.0
X63.4Y-21.0
X63.4Y-23.0
X63.4Y-33.0
X63.4Y-35.0
X63.4Y-41.0
X63.4Y-43.0
X63.4Y-53.0
X63.4Y-55.0
X63.4Y-61.0
X63.4Y-63.0
X63.4Y-73.0
X63.4Y-75.0
X63.4Y-81.0
X63.4Y-83.0
X63.4Y-93.0
X63.4Y-95.0
X63.42Y-19.58
X63.42Y-21.58
X63.42Y-23.58
X63.42Y-24.42
X63.42Y-25.58
X63.42Y-27.58
X63.42Y-29.58
X63.42Y-31.58
X63.42Y-33.58
X63.42Y-35.58
X63.42Y-39.58
X63.42Y-41.58
X63.42Y-43.58
X63.42Y-44.42
X63.42Y-45.58
X63.42Y-47.58
X63.42Y-49.58
X63.42Y-51.58
X63.42Y-53.58
X63.42Y-55.58
X63.42Y-59.58
X63.42Y-61.58
X63.42Y-63.58
X63.42Y-64.42
X63.42Y-65.58
X63.42Y-67.58
X63.42Y-69.58
X63.42Y-71.58
X63.42Y-73.58
X63.42Y-75.58
X63.42Y-79.58
X63.42Y-81.58
X63.42Y-83.58
X63.42Y-84.42
X63.42Y-85.58
X63.42Y-87.58
X63.42Y-89.58
X63.42Y-91.58
X63.42Y-93.58
X63.42Y-95.58
X64.01Y-19.61
X64.01Y-36.41
X64.01Y-39.609
X64.01Y-56.409
X64.01Y-59.609
X64.01Y-76.409
X64.01Y-79.609
X64.01Y-96.409
X64.58Y-21.58
X64.58Y-22.42
X64.58Y-41.58
X64.58Y-42.42
X64.58Y-61.58
X64.58Y-62.42
X64.58Y-81.58
X64.58Y-82.42
X64.6Y-33.0
X64.6Y-35.0
X64.6Y-53.0
X64.6Y-55.0
X64.6Y-73.0
X64.6Y-75.0
X64.6Y-93.0
X64.6Y-95.0
X65.4Y-21.0
X65.4Y-25.0
X65.4Y-27.0
X65.4Y-29.0
X65.4Y-31.0
X65.4Y-33.0
X65.4Y-35.0
X65.4Y-41.0
X65.4Y-45.0
X65.4Y-47.0
X65.4Y-49.0
X65.4Y-51.0
X65.4Y-53.0
X65.4Y-55.0
X65.4Y-61.0
X65.4Y-65.0
X65.4Y-67.0
X65.4Y-69.0
X65.4Y-71.0
X65.4Y-73.0
X65.4Y-75.0
X65.4Y-81.0
X65.4Y-85.0
X65.4Y-87.0
X65.4Y-89.0
X65.4Y-91.0
X65.4Y-93.0
X65.4Y-95.0
X65.42Y-19.58
X65.42Y-21.58
X65.42Y-24.42
X65.42Y-25.58
X65.42Y-27.58
X65.42Y-29.58
X65.42Y-31.58
X65.42Y-33.58
X65.42Y-35.58
X65.42Y-39.58
X65.42Y-41.58
X65.42Y-44.42
X65.42Y-45.58
X65.42Y-47.58
X65.42Y-49.58
X65.42Y-51.58
X65.42Y-53.58
X65.42Y-55.58
X65.42Y-59.58
X65.42Y-61.58
X65.42Y-64.42
X65.42Y-65.58
X65.42Y-67.58
X65.42Y-69.58
X65.42Y-71.58
X65.42Y-73.58
X65.42Y-75.58
X65.42Y-79.58
X65.42Y-81.58
X65.42Y-84.42
X65.42Y-85.58
X65.42Y-87.58
X65.42Y-89.58
X65.42Y-91.58
X65.42Y-93.58
X65.42Y-95.58
X65.42Y-22.897
X65.42Y-42.897
X65.42Y-62.897
X65.42Y-82.897
X66.01Y-19.61
X66.01Y-36.41
X66.01Y-39.609
X66.01Y-56.409
X66.01Y-59.609
X66.01Y-76.409
X66.01Y-79.609
X66.01Y-96.409
X66.58Y-20.42
X66.58Y-21.58
X66.58Y-40.42
X66.58Y-41.58
X66.58Y-60.42
X66.58Y-61.58
X66.58Y-80.42
X66.58Y-81.58
X66.6Y-21.0
X66.6Y-27.0
X66.6Y-29.0
X66.6Y-31.0
X66.6Y-33.0
X66.6Y-35.0
X66.6Y-41.0
X66.6Y-47.0
X66.6Y-49.0
X66.6Y-51.0
X66.6Y-53.0
X66.6Y-55.0
X66.6Y-61.0
X66.6Y-67.0
X66.6Y-69.0
X66.6Y-71.0
X66.6Y-73.0
X66.6Y-75.0
X66.6Y-81.0
X66.6Y-87.0
X66.6Y-89.0
X66.6Y-91.0
X66.6Y-93.0
X66.6Y-95.0
X67.4Y-21.0
X67.4Y-23.0
X67.4Y-25.0
X67.4Y-27.0
X67.4Y-29.0
X67.4Y-31.0
X67.4Y-33.0
X67.4Y-35.0
X67.4Y-41.0
X67.4Y-43.0
X67.4Y-45.0
X67.4Y-47.0
X67.4Y-49.0
X67.4Y-51.0
X67.4Y-53.0
X67.4Y-55.0
X67.4Y-61.0
X67.4Y-63.0
X67.4Y-65.0
X67.4Y-67.0
X67.4Y-69.0
X67.4Y-71.0
X67.4Y-73.0
X67.4Y-75.0
X67.4Y-81.0
X67.4Y-83.0
X67.4Y-85.0
X67.4Y-87.0
X67.4Y-89.0
X67.4Y-91.0
X67.4Y-93.0
X67.4Y-95.0
X67.42Y-19.58
X67.42Y-21.58
X67.42Y-23.58
X67.42Y-24.42
X67.42Y-25.58
X67.42Y-27.58
X67.42Y-29.58
X67.42Y-31.58
X67.42Y-33.58
X67.42Y-35.58
X67.42Y-39.58
X67.42Y-41.58
X67.42Y-43.58
X67.42Y-44.42
X67.42Y-45.58
X67.42Y-47.58
X67.42Y-49.58
X67.42Y-51.58
X67.42Y-53.58
X67.42Y-55.58
X67.42Y-59.58
X67.42Y-61.58
X67.42Y-63.58
X67.42Y-64.42
X67.42Y-65.58
X67.42Y-67.58
X67.42Y-69.58
X67.42Y-71.58
X67.42Y-73.58
X67.42Y-75.58
X67.42Y-79.58
X67.42Y-81.58
X67.42Y-83.58
X67.42Y-84.42
X67.42Y-85.58
X67.42Y-87.58
X67.42Y-89.58
X67.42Y-91.58
X67.42Y-93.58
X67.42Y-95.58
X70.58Y-26.42
X70.58Y-27.58
X70.58Y-46.42
X70.58Y-47.58
X70.58Y-66.42
X70.58Y-67.58
X70.58Y-86.42
X70.58Y-87.58
X70.6Y-29.0
X70.6Y-31.0
X70.6Y-33.0
X70.6Y-35.0
X70.6Y-49.0
X70.6Y-51.0
X70.6Y-53.0
X70.6Y-55.0
X70.6Y-69.0
X70.6Y-71.0
X70.6Y-73.0
X70.6Y-75.0
X70.6Y-89.0
X70.6Y-91.0
X70.6Y-93.0
X70.6Y-95.0
X71.4Y-21.0
X71.4Y-35.0
X71.4Y-41.0
X71.4Y-55.0
X71.4Y-61.0
X71.4Y-75.0
X71.4Y-81.0
X71.4Y-95.0
X71.42Y-19.58
X71.42Y-21.58
X71.42Y-33.58
X71.42Y-35.58
X71.42Y-39.58
X71.42Y-41.58
X71.42Y-53.58
X71.42Y-55.58
X71.42Y-59.58
X71.42Y-61.58
X71.42Y-73.58
X71.42Y-75.58
X71.42Y-79.58
X71.42Y-81.58
X71.42Y-93.58
X71.42Y-95.58
X71.42Y-22.897
X71.42Y-42.897
X71.42Y-62.897
X71.42Y-82.897
X71.53Y-25.0
X71.53Y-27.0
X71.53Y-29.0
X71.53Y-31.0
X71.53Y-45.0
X71.53Y-47.0
X71.53Y-49.0
X71.53Y-51.0
X71.53Y-65.0
X71.53Y-67.0
X71.53Y-69.0
X71.53Y-71.0
X71.53Y-85.0
X71.53Y-87.0
X71.53Y-89.0
X71.53Y-91.0
X71.85Y-22.42
X71.85Y-42.42
X71.85Y-62.42
X71.85Y-82.42
X72.01Y-19.61
X72.01Y-36.41
X72.01Y-39.609
X72.01Y-56.409
X72.01Y-59.609
X72.01Y-76.409
X72.01Y-79.609
X72.01Y-96.409
X72.58Y-22.42
X72.58Y-25.58
X72.58Y-42.42
X72.58Y-45.58
X72.58Y-62.42
X72.58Y-65.58
X72.58Y-82.42
X72.58Y-85.58
X72.6Y-21.0
X72.6Y-35.0
X72.6Y-41.0
X72.6Y-55.0
X72.6Y-61.0
X72.6Y-75.0
X72.6Y-81.0
X72.6Y-95.0
X73.27Y-25.0
X73.27Y-27.0
X73.27Y-29.0
X73.27Y-31.0
X73.27Y-45.0
X73.27Y-47.0
X73.27Y-49.0
X73.27Y-51.0
X73.27Y-65.0
X73.27Y-67.0
X73.27Y-69.0
X73.27Y-71.0
X73.27Y-85.0
X73.27Y-87.0
X73.27Y-89.0
X73.27Y-91.0
X73.4Y-21.0
X73.4Y-33.0
X73.4Y-35.0
X73.4Y-41.0
X73.4Y-53.0
X73.4Y-55.0
X73.4Y-61.0
X73.4Y-73.0
X73.4Y-75.0
X73.4Y-81.0
X73.4Y-93.0
X73.4Y-95.0
X73.42Y-19.58
X73.42Y-20.42
X73.42Y-21.58
X73.42Y-33.58
X73.42Y-35.58
X73.42Y-39.58
X73.42Y-40.42
X73.42Y-41.58
X73.42Y-53.58
X73.42Y-55.58
X73.42Y-59.58
X73.42Y-60.42
X73.42Y-61.58
X73.42Y-73.58
X73.42Y-75.58
X73.42Y-79.58
X73.42Y-80.42
X73.42Y-81.58
X73.42Y-93.58
X73.42Y-95.58
X73.42Y-22.897
X73.42Y-42.897
X73.42Y-62.897
X73.42Y-82.897
X74.01Y-19.61
X74.01Y-36.41
X74.01Y-39.609
X74.01Y-56.409
X74.01Y-59.609
X74.01Y-76.409
X74.01Y-79.609
X74.01Y-96.409
X74.58Y-30.42
X74.58Y-31.58
X74.58Y-50.42
X74.58Y-51.58
X74.58Y-70.42
X74.58Y-71.58
X74.58Y-90.42
X74.58Y-91.58
X74.6Y-21.0
X74.6Y-23.0
X74.6Y-25.0
X74.6Y-27.0
X74.6Y-29.0
X74.6Y-33.0
X74.6Y-35.0
X74.6Y-41.0
X74.6Y-43.0
X74.6Y-45.0
X74.6Y-47.0
X74.6Y-49.0
X74.6Y-53.0
X74.6Y-55.0
X74.6Y-61.0
X74.6Y-63.0
X74.6Y-65.0
X74.6Y-67.0
X74.6Y-69.0
X74.6Y-73.0
X74.6Y-75.0
X74.6Y-81.0
X74.6Y-83.0
X74.6Y-85.0
X74.6Y-87.0
X74.6Y-89.0
X74.6Y-93.0
X74.6Y-95.0
X75.4Y-21.0
X75.4Y-23.0
X75.4Y-25.0
X75.4Y-31.0
X75.4Y-33.0
X75.4Y-35.0
X75.4Y-41.0
X75.4Y-43.0
X75.4Y-45.0
X75.4Y-51.0
X75.4Y-53.0
X75.4Y-55.0
X75.4Y-61.0
X75.4Y-63.0
X75.4Y-65.0
X75.4Y-71.0
X75.4Y-73.0
X75.4Y-75.0
X75.4Y-81.0
X75.4Y-83.0
X75.4Y-85.0
X75.4Y-91.0
X75.4Y-93.0
X75.4Y-95.0
X75.42Y-19.58
X75.42Y-21.58
X75.42Y-23.58
X75.42Y-25.58
X75.42Y-27.58
X75.42Y-29.58
X75.42Y-31.58
X75.42Y-33.58
X75.42Y-34.42
X75.42Y-35.58
X75.42Y-39.58
X75.42Y-41.58
X75.42Y-43.58
X75.42Y-45.58
X75.42Y-47.58
X75.42Y-49.58
X75.42Y-51.58
X75.42Y-53.58
X75.42Y-54.42
X75.42Y-55.58
X75.42Y-59.58
X75.42Y-61.58
X75.42Y-63.58
X75.42Y-65.58
X75.42Y-67.58
X75.42Y-69.58
X75.42Y-71.58
X75.42Y-73.58
X75.42Y-74.42
X75.42Y-75.58
X75.42Y-79.58
X75.42Y-81.58
X75.42Y-83.58
X75.42Y-85.58
X75.42Y-87.58
X75.42Y-89.58
X75.42Y-91.58
X75.42Y-93.58
X75.42Y-94.42
X75.42Y-95.58
X76.01Y-19.61
X76.01Y-36.41
X76.01Y-39.609
X76.01Y-56.409
X76.01Y-59.609
X76.01Y-76.409
X76.01Y-79.609
X76.01Y-96.409
X76.58Y-30.42
X76.58Y-31.58
X76.58Y-50.42
X76.58Y-51.58
X76.58Y-70.42
X76.58Y-71.58
X76.58Y-90.42
X76.58Y-91.58
X76.6Y-21.0
X76.6Y-23.0
X76.6Y-25.0
X76.6Y-29.0
X76.6Y-31.0
X76.6Y-33.0
X76.6Y-35.0
X76.6Y-41.0
X76.6Y-43.0
X76.6Y-45.0
X76.6Y-49.0
X76.6Y-51.0
X76.6Y-53.0
X76.6Y-55.0
X76.6Y-61.0
X76.6Y-63.0
X76.6Y-65.0
X76.6Y-69.0
X76.6Y-71.0
X76.6Y-73.0
X76.6Y-75.0
X76.6Y-81.0
X76.6Y-83.0
X76.6Y-85.0
X76.6Y-89.0
X76.6Y-91.0
X76.6Y-93.0
X76.6Y-95.0
X77.4Y-21.0
X77.4Y-23.0
X77.4Y-27.0
X77.4Y-29.0
X77.4Y-31.0
X77.4Y-33.0
X77.4Y-35.0
X77.4Y-41.0
X77.4Y-43.0
X77.4Y-47.0
X77.4Y-49.0
X77.4Y-51.0
X77.4Y-53.0
X77.4Y-55.0
X77.4Y-61.0
X77.4Y-63.0
X77.4Y-67.0
X77.4Y-69.0
X77.4Y-71.0
X77.4Y-73.0
X77.4Y-75.0
X77.4Y-81.0
X77.4Y-83.0
X77.4Y-87.0
X77.4Y-89.0
X77.4Y-91.0
X77.4Y-93.0
X77.4Y-95.0
X77.42Y-19.58
X77.42Y-21.58
X77.42Y-23.58
X77.42Y-25.58
X77.42Y-27.58
X77.42Y-28.42
X77.42Y-29.58
X77.42Y-31.58
X77.42Y-33.58
X77.42Y-35.58
X77.42Y-39.58
X77.42Y-41.58
X77.42Y-43.58
X77.42Y-45.58
X77.42Y-47.58
X77.42Y-48.42
X77.42Y-49.58
X77.42Y-51.58
X77.42Y-53.58
X77.42Y-55.58
X77.42Y-59.58
X77.42Y-61.58
X77.42Y-63.58
X77.42Y-65.58
X77.42Y-67.58
X77.42Y-68.42
X77.42Y-69.58
X77.42Y-71.58
X77.42Y-73.58
X77.42Y-75.58
X77.42Y-79.58
X77.42Y-81.58
X77.42Y-83.58
X77.42Y-85.58
X77.42Y-87.58
X77.42Y-88.42
X77.42Y-89.58
X77.42Y-91.58
X77.42Y-93.58
X77.42Y-95.58
X78.01Y-19.61
X78.01Y-36.41
X78.01Y-39.609
X78.01Y-56.409
X78.01Y-59.609
X78.01Y-76.409
X78.01Y-79.609
X78.01Y-96.409
X78.58Y-26.42
X78.58Y-27.58
X78.58Y-46.42
X78.58Y-47.58
X78.58Y-66.42
X78.58Y-67.58
X78.58Y-86.42
X78.58Y-87.58
X78.6Y-21.0
X78.6Y-23.0
X78.6Y-27.0
X78.6Y-29.0
X78.6Y-31.0
X78.6Y-33.0
X78.6Y-35.0
X78.6Y-41.0
X78.6Y-43.0
X78.6Y-47.0
X78.6Y-49.0
X78.6Y-51.0
X78.6Y-53.0
X78.6Y-55.0
X78.6Y-61.0
X78.6Y-63.0
X78.6Y-67.0
X78.6Y-69.0
X78.6Y-71.0
X78.6Y-73.0
X78.6Y-75.0
X78.6Y-81.0
X78.6Y-83.0
X78.6Y-87.0
X78.6Y-89.0
X78.6Y-91.0
X78.6Y-93.0
X78.6Y-95.0
X79.4Y-21.0
X79.4Y-23.0
X79.4Y-27.0
X79.4Y-29.0
X79.4Y-31.0
X79.4Y-33.0
X79.4Y-35.0
X79.4Y-41.0
X79.4Y-43.0
X79.4Y-47.0
X79.4Y-49.0
X79.4Y-51.0
X79.4Y-53.0
X79.4Y-55.0
X79.4Y-61.0
X79.4Y-63.0
X79.4Y-67.0
X79.4Y-69.0
X79.4Y-71.0
X79.4Y-73.0
X79.4Y-75.0
X79.4Y-81.0
X79.4Y-83.0
X79.4Y-87.0
X79.4Y-89.0
X79.4Y-91.0
X79.4Y-93.0
X79.4Y-95.0
X79.42Y-19.58
X79.42Y-21.58
X79.42Y-23.58
X79.42Y-25.58
X79.42Y-26.42
X79.42Y-27.58
X79.42Y-29.58
X79.42Y-31.58
X79.42Y-33.58
X79.42Y-35.58
X79.42Y-39.58
X79.42Y-41.58
X79.42Y-43.58
X79.42Y-45.58
X79.42Y-46.42
X79.42Y-47.58
X79.42Y-49.58
X79.42Y-51.58
X79.42Y-53.58
X79.42Y-55.58
X79.42Y-59.58
X79.42Y-61.58
X79.42Y-63.58
X79.42Y-65.58
X79.42Y-66.42
X79.42Y-67.58
X79.42Y-69.58
X79.42Y-71.58
X79.42Y-73.58
X79.42Y-75.58
X79.42Y-79.58
X79.42Y-81.58
X79.42Y-83.58
X79.42Y-85.58
X79.42Y-86.42
X79.42Y-87.58
X79.42Y-89.58
X79.42Y-91.58
X79.42Y-93.58
X79.42Y-95.58
X80.01Y-19.61
X80.01Y-36.41
X80.01Y-39.609
X80.01Y-56.409
X80.01Y-59.609
X80.01Y-76.409
X80.01Y-79.609
X80.01Y-96.409
X80.58Y-25.58
X80.58Y-32.42
X80.58Y-45.58
X80.58Y-52.42
X80.58Y-65.58
X80.58Y-72.42
X80.58Y-85.58
X80.58Y-92.42
X80.6Y-21.0
X80.6Y-23.0
X80.6Y-27.0
X80.6Y-29.0
X80.6Y-31.0
X80.6Y-33.0
X80.6Y-35.0
X80.6Y-41.0
X80.6Y-43.0
X80.6Y-47.0
X80.6Y-49.0
X80.6Y-51.0
X80.6Y-53.0
X80.6Y-55.0
X80.6Y-61.0
X80.6Y-63.0
X80.6Y-67.0
X80.6Y-69.0
X80.6Y-71.0
X80.6Y-73.0
X80.6Y-75.0
X80.6Y-81.0
X80.6Y-83.0
X80.6Y-87.0
X80.6Y-89.0
X80.6Y-91.0
X80.6Y-93.0
X80.6Y-95.0
X81.4Y-21.0
X81.4Y-23.0
X81.4Y-25.0
X81.4Y-27.0
X81.4Y-29.0
X81.4Y-31.0
X81.4Y-35.0
X81.4Y-41.0
X81.4Y-43.0
X81.4Y-45.0
X81.4Y-47.0
X81.4Y-49.0
X81.4Y-51.0
X81.4Y-55.0
X81.4Y-61.0
X81.4Y-63.0
X81.4Y-65.0
X81.4Y-67.0
X81.4Y-69.0
X81.4Y-71.0
X81.4Y-75.0
X81.4Y-81.0
X81.4Y-83.0
X81.4Y-85.0
X81.4Y-87.0
X81.4Y-89.0
X81.4Y-91.0
X81.4Y-95.0
X81.42Y-19.58
X81.42Y-21.58
X81.42Y-23.58
X81.42Y-25.58
X81.42Y-27.58
X81.42Y-29.58
X81.42Y-31.58
X81.42Y-32.42
X81.42Y-33.58
X81.42Y-35.58
X81.42Y-39.58
X81.42Y-41.58
X81.42Y-43.58
X81.42Y-45.58
X81.42Y-47.58
X81.42Y-49.58
X81.42Y-51.58
X81.42Y-52.42
X81.42Y-53.58
X81.42Y-55.58
X81.42Y-59.58
X81.42Y-61.58
X81.42Y-63.58
X81.42Y-65.58
X81.42Y-67.58
X81.42Y-69.58
X81.42Y-71.58
X81.42Y-72.42
X81.42Y-73.58
X81.42Y-75.58
X81.42Y-79.58
X81.42Y-81.58
X81.42Y-83.58
X81.42Y-85.58
X81.42Y-87.58
X81.42Y-89.58
X81.42Y-91.58
X81.42Y-92.42
X81.42Y-93.58
X81.42Y-95.58
X82.01Y-19.61
X82.01Y-36.41
X82.01Y-39.609
X82.01Y-56.409
X82.01Y-59.609
X82.01Y-76.409
X82.01Y-79.609
X82.01Y-96.409
X82.58Y-30.42
X82.58Y-31.58
X82.58Y-50.42
X82.58Y-51.58
X82.58Y-70.42
X82.58Y-71.58
X82.58Y-90.42
X82.58Y-91.58
X82.6Y-21.0
X82.6Y-23.0
X82.6Y-25.0
X82.6Y-27.0
X82.6Y-29.0
X82.6Y-31.0
X82.6Y-35.0
X82.6Y-41.0
X82.6Y-43.0
X82.6Y-45.0
X82.6Y-47.0
X82.6Y-49.0
X82.6Y-51.0
X82.6Y-55.0
X82.6Y-61.0
X82.6Y-63.0
X82.6Y-65.0
X82.6Y-67.0
X82.6Y-69.0
X82.6Y-71.0
X82.6Y-75.0
X82.6Y-81.0
X82.6Y-83.0
X82.6Y-85.0
X82.6Y-87.0
X82.6Y-89.0
X82.6Y-91.0
X82.6Y-95.0
X83.4Y-21.0
X83.4Y-23.0
X83.4Y-25.0
X83.4Y-27.0
X83.4Y-29.0
X83.4Y-35.0
X83.4Y-41.0
X83.4Y-43.0
X83.4Y-45.0
X83.4Y-47.0
X83.4Y-49.0
X83.4Y-55.0
X83.4Y-61.0
X83.4Y-63.0
X83.4Y-65.0
X83.4Y-67.0
X83.4Y-69.0
X83.4Y-75.0
X83.4Y-81.0
X83.4Y-83.0
X83.4Y-85.0
X83.4Y-87.0
X83.4Y-89.0
X83.4Y-95.0
X83.42Y-19.58
X83.42Y-21.58
X83.42Y-23.58
X83.42Y-25.58
X83.42Y-27.58
X83.42Y-29.58
X83.42Y-30.42
X83.42Y-31.58
X83.42Y-33.58
X83.42Y-35.58
X83.42Y-39.58
X83.42Y-41.58
X83.42Y-43.58
X83.42Y-45.58
X83.42Y-47.58
X83.42Y-49.58
X83.42Y-50.42
X83.42Y-51.58
X83.42Y-53.58
X83.42Y-55.58
X83.42Y-59.58
X83.42Y-61.58
X83.42Y-63.58
X83.42Y-65.58
X83.42Y-67.58
X83.42Y-69.58
X83.42Y-70.42
X83.42Y-71.58
X83.42Y-73.58
X83.42Y-75.58
X83.42Y-79.58
X83.42Y-81.58
X83.42Y-83.58
X83.42Y-85.58
X83.42Y-87.58
X83.42Y-89.58
X83.42Y-90.42
X83.42Y-91.58
X83.42Y-93.58
X83.42Y-95.58
X84.01Y-19.61
X84.01Y-36.41
X84.01Y-39.609
X84.01Y-56.409
X84.01Y-59.609
X84.01Y-76.409
X84.01Y-79.609
X84.01Y-96.409
X84.58Y-29.58
X84.58Y-30.42
X84.58Y-49.58
X84.58Y-50.42
X84.58Y-69.58
X84.58Y-70.42
X84.58Y-89.58
X84.58Y-90.42
X84.6Y-21.0
X84.6Y-23.0
X84.6Y-25.0
X84.6Y-27.0
X84.6Y-35.0
X84.6Y-41.0
X84.6Y-43.0
X84.6Y-45.0
X84.6Y-47.0
X84.6Y-55.0
X84.6Y-61.0
X84.6Y-63.0
X84.6Y-65.0
X84.6Y-67.0
X84.6Y-75.0
X84.6Y-81.0
X84.6Y-83.0
X84.6Y-85.0
X84.6Y-87.0
X84.6Y-95.0
X85.4Y-21.0
X85.4Y-23.0
X85.4Y-25.0
X85.4Y-27.0
X85.4Y-29.0
X85.4Y-35.0
X85.4Y-41.0
X85.4Y-43.0
X85.4Y-45.0
X85.4Y-47.0
X85.4Y-49.0
X85.4Y-55.0
X85.4Y-61.0
X85.4Y-63.0
X85.4Y-65.0
X85.4Y-67.0
X85.4Y-69.0
X85.4Y-75.0
X85.4Y-81.0
X85.4Y-83.0
X85.4Y-85.0
X85.4Y-87.0
X85.4Y-89.0
X85.4Y-95.0
X85.42Y-19.58
X85.42Y-21.58
X85.42Y-23.58
X85.42Y-25.58
X85.42Y-27.58
X85.42Y-29.58
X85.42Y-30.42
X85.42Y-31.58
X85.42Y-33.58
X85.42Y-35.58
X85.42Y-39.58
X85.42Y-41.58
X85.42Y-43.58
X85.42Y-45.58
X85.42Y-47.58
X85.42Y-49.58
X85.42Y-50.42
X85.42Y-51.58
X85.42Y-53.58
X85.42Y-55.58
X85.42Y-59.58
X85.42Y-61.58
X85.42Y-63.58
X85.42Y-65.58
X85.42Y-67.58
X85.42Y-69.58
X85.42Y-70.42
X85.42Y-71.58
X85.42Y-73.58
X85.42Y-75.58
X85.42Y-79.58
X85.42Y-81.58
X85.42Y-83.58
X85.42Y-85.58
X85.42Y-87.58
X85.42Y-89.58
X85.42Y-90.42
X85.42Y-91.58
X85.42Y-93.58
X85.42Y-95.58
X86.01Y-19.61
X86.01Y-36.41
X86.01Y-39.609
X86.01Y-56.409
X86.01Y-59.609
X86.01Y-76.409
X86.01Y-79.609
X86.01Y-96.409
X86.58Y-28.42
X86.58Y-29.58
X86.58Y-48.42
X86.58Y-49.58
X86.58Y-68.42
X86.58Y-69.58
X86.58Y-88.42
X86.58Y-89.58
X86.6Y-21.0
X86.6Y-23.0
X86.6Y-25.0
X86.6Y-27.0
X86.6Y-29.0
X86.6Y-35.0
X86.6Y-41.0
X86.6Y-43.0
X86.6Y-45.0
X86.6Y-47.0
X86.6Y-49.0
X86.6Y-55.0
X86.6Y-61.0
X86.6Y-63.0
X86.6Y-65.0
X86.6Y-67.0
X86.6Y-69.0
X86.6Y-75.0
X86.6Y-81.0
X86.6Y-83.0
X86.6Y-85.0
X86.6Y-87.0
X86.6Y-89.0
X86.6Y-95.0
X87.4Y-21.0
X87.4Y-23.0
X87.4Y-25.0
X87.4Y-35.0
X87.4Y-41.0
X87.4Y-43.0
X87.4Y-45.0
X87.4Y-55.0
X87.4Y-61.0
X87.4Y-63.0
X87.4Y-65.0
X87.4Y-75.0
X87.4Y-81.0
X87.4Y-83.0
X87.4Y-85.0
X87.4Y-95.0
X87.42Y-19.58
X87.42Y-21.58
X87.42Y-23.58
X87.42Y-25.58
X87.42Y-26.42
X87.42Y-27.58
X87.42Y-29.58
X87.42Y-31.58
X87.42Y-33.58
X87.42Y-35.58
X87.42Y-39.58
X87.42Y-41.58
X87.42Y-43.58
X87.42Y-45.58
X87.42Y-46.42
X87.42Y-47.58
X87.42Y-49.58
X87.42Y-51.58
X87.42Y-53.58
X87.42Y-55.58
X87.42Y-59.58
X87.42Y-61.58
X87.42Y-63.58
X87.42Y-65.58
X87.42Y-66.42
X87.42Y-67.58
X87.42Y-69.58
X87.42Y-71.58
X87.42Y-73.58
X87.42Y-75.58
X87.42Y-79.58
X87.42Y-81.58
X87.42Y-83.58
X87.42Y-85.58
X87.42Y-86.42
X87.42Y-87.58
X87.42Y-89.58
X87.42Y-91.58
X87.42Y-93.58
X87.42Y-95.58
X88.01Y-19.61
X88.01Y-36.41
X88.01Y-39.609
X88.01Y-56.409
X88.01Y-59.609
X88.01Y-76.409
X88.01Y-79.609
X88.01Y-96.409
X88.58Y-26.42
X88.58Y-27.58
X88.58Y-46.42
X88.58Y-47.58
X88.58Y-66.42
X88.58Y-67.58
X88.58Y-86.42
X88.58Y-87.58
X88.6Y-21.0
X88.6Y-23.0
X88.6Y-25.0
X88.6Y-33.0
X88.6Y-35.0
X88.6Y-41.0
X88.6Y-43.0
X88.6Y-45.0
X88.6Y-53.0
X88.6Y-55.0
X88.6Y-61.0
X88.6Y-63.0
X88.6Y-65.0
X88.6Y-73.0
X88.6Y-75.0
X88.6Y-81.0
X88.6Y-83.0
X88.6Y-85.0
X88.6Y-93.0
X88.6Y-95.0
X89.4Y-21.0
X89.4Y-23.0
X89.4Y-25.0
X89.4Y-33.0
X89.4Y-35.0
X89.4Y-41.0
X89.4Y-43.0
X89.4Y-45.0
X89.4Y-53.0
X89.4Y-55.0
X89.4Y-61.0
X89.4Y-63.0
X89.4Y-65.0
X89.4Y-73.0
X89.4Y-75.0
X89.4Y-81.0
X89.4Y-83.0
X89.4Y-85.0
X89.4Y-93.0
X89.4Y-95.0
X89.42Y-19.58
X89.42Y-21.58
X89.42Y-23.58
X89.42Y-25.58
X89.42Y-26.42
X89.42Y-27.58
X89.42Y-29.58
X89.42Y-31.58
X89.42Y-33.58
X89.42Y-35.58
X89.42Y-39.58
X89.42Y-41.58
X89.42Y-43.58
X89.42Y-45.58
X89.42Y-46.42
X89.42Y-47.58
X89.42Y-49.58
X89.42Y-51.58
X89.42Y-53.58
X89.42Y-55.58
X89.42Y-59.58
X89.42Y-61.58
X89.42Y-63.58
X89.42Y-65.58
X89.42Y-66.42
X89.42Y-67.58
X89.42Y-69.58
X89.42Y-71.58
X89.42Y-73.58
X89.42Y-75.58
X89.42Y-79.58
X89.42Y-81.58
X89.42Y-83.58
X89.42Y-85.58
X89.42Y-86.42
X89.42Y-87.58
X89.42Y-89.58
X89.42Y-91.58
X89.42Y-93.58
X89.42Y-95.58
X90.01Y-19.61
X90.01Y-36.41
X90.01Y-39.609
X90.01Y-56.409
X90.01Y-59.609
X90.01Y-76.409
X90.01Y-79.609
X90.01Y-96.409
X90.58Y-24.42
X90.58Y-25.58
X90.58Y-44.42
X90.58Y-45.58
X90.58Y-64.42
X90.58Y-65.58
X90.58Y-84.42
X90.58Y-85.58
X90.6Y-21.0
X90.6Y-23.0
X90.6Y-33.0
X90.6Y-35.0
X90.6Y-41.0
X90.6Y-43.0
X90.6Y-53.0
X90.6Y-55.0
X90.6Y-61.0
X90.6Y-63.0
X90.6Y-73.0
X90.6Y-75.0
X90.6Y-81.0
X90.6Y-83.0
X90.6Y-93.0
X90.6Y-95.0
X91.4Y-21.0
X91.4Y-23.0
X91.4Y-33.0
X91.4Y-35.0
X91.4Y-41.0
X91.4Y-43.0
X91.4Y-53.0
X91.4Y-55.0
X91.4Y-61.0
X91.4Y-63.0
X91.4Y-73.0
X91.4Y-75.0
X91.4Y-81.0
X91.4Y-83.0
X91.4Y-93.0
X91.4Y-95.0
X91.42Y-19.58
X91.42Y-21.58
X91.42Y-23.58
X91.42Y-24.42
X91.42Y-25.58
X91.42Y-27.58
X91.42Y-29.58
X91.42Y-31.58
X91.42Y-33.58
X91.42Y-35.58
X91.42Y-39.58
X91.42Y-41.58
X91.42Y-43.58
X91.42Y-44.42
X91.42Y-45.58
X91.42Y-47.58
X91.42Y-49.58
X91.42Y-51.58
X91.42Y-53.58
X91.42Y-55.58
X91.42Y-59.58
X91.42Y-61.58
X91.42Y-63.58
X91.42Y-64.42
X91.42Y-65.58
X91.42Y-67.58
X91.42Y-69.58
X91.42Y-71.58
X91.42Y-73.58
X91.42Y-75.58
X91.42Y-79.58
X91.42Y-81.58
X91.42Y-83.58
X91.42Y-84.42
X91.42Y-85.58
X91.42Y-87.58
X91.42Y-89.58
X91.42Y-91.58
X91.42Y-93.58
X91.42Y-95.58
X92.01Y-19.61
X92.01Y-36.41
X92.01Y-39.609
X92.01Y-56.409
X92.01Y-59.609
X92.01Y-76.409
X92.01Y-79.609
X92.01Y-96.409
X92.58Y-21.58
X92.58Y-22.42
X92.58Y-41.58
X92.58Y-42.42
X92.58Y-61.58
X92.58Y-62.42
X92.58Y-81.58
X92.58Y-82.42
X92.6Y-33.0
X92.6Y-35.0
X92.6Y-53.0
X92.6Y-55.0
X92.6Y-73.0
X92.6Y-75.0
X92.6Y-93.0
X92.6Y-95.0
X93.4Y-21.0
X93.4Y-25.0
X93.4Y-27.0
X93.4Y-29.0
X93.4Y-31.0
X93.4Y-33.0
X93.4Y-35.0
X93.4Y-41.0
X93.4Y-45.0
X93.4Y-47.0
X93.4Y-49.0
X93.4Y-51.0
X93.4Y-53.0
X93.4Y-55.0
X93.4Y-61.0
X93.4Y-65.0
X93.4Y-67.0
X93.4Y-69.0
X93.4Y-71.0
X93.4Y-73.0
X93.4Y-75.0
X93.4Y-81.0
X93.4Y-85.0
X93.4Y-87.0
X93.4Y-89.0
X93.4Y-91.0
X93.4Y-93.0
X93.4Y-95.0
X93.42Y-19.58
X93.42Y-21.58
X93.42Y-24.42
X93.42Y-25.58
X93.42Y-27.58
X93.42Y-29.58
X93.42Y-31.58
X93.42Y-33.58
X93.42Y-35.58
X93.42Y-39.58
X93.42Y-41.58
X93.42Y-44.42
X93.42Y-45.58
X93.42Y-47.58
X93.42Y-49.58
X93.42Y-51.58
X93.42Y-53.58
X93.42Y-55.58
X93.42Y-59.58
X93.42Y-61.58
X93.42Y-64.42
X93.42Y-65.58
X93.42Y-67.58
X93.42Y-69.58
X93.42Y-71.58
X93.42Y-73.58
X93.42Y-75.58
X93.42Y-79.58
X93.42Y-81.58
X93.42Y-84.42
X93.42Y-85.58
X93.42Y-87.58
X93.42Y-89.58
X93.42Y-91.58
X93.42Y-93.58
X93.42Y-95.58
X93.42Y-22.897
X93.42Y-42.897
X93.42Y-62.897
X93.42Y-82.897
X94.01Y-19.61
X94.01Y-36.41
X94.01Y-39.609
X94.01Y-56.409
X94.01Y-59.609
X94.01Y-76.409
X94.01Y-79.609
X94.01Y-96.409
X94.58Y-20.42
X94.58Y-21.58
X94.58Y-40.42
X94.58Y-41.58
X94.58Y-60.42
X94.58Y-61.58
X94.58Y-80.42
X94.58Y-81.58
X94.6Y-21.0
X94.6Y-27.0
X94.6Y-29.0
X94.6Y-31.0
X94.6Y-33.0
X94.6Y-35.0
X94.6Y-41.0
X94.6Y-47.0
X94.6Y-49.0
X94.6Y-51.0
X94.6Y-53.0
X94.6Y-55.0
X94.6Y-61.0
X94.6Y-67.0
X94.6Y-69.0
X94.6Y-71.0
X94.6Y-73.0
X94.6Y-75.0
X94.6Y-81.0
X94.6Y-87.0
X94.6Y-89.0
X94.6Y-91.0
X94.6Y-93.0
X94.6Y-95.0
X95.4Y-21.0
X95.4Y-23.0
X95.4Y-25.0
X95.4Y-27.0
X95.4Y-29.0
X95.4Y-31.0
X95.4Y-33.0
X95.4Y-35.0
X95.4Y-41.0
X95.4Y-43.0
X95.4Y-45.0
X95.4Y-47.0
X95.4Y-49.0
X95.4Y-51.0
X95.4Y-53.0
X95.4Y-55.0
X95.4Y-61.0
X95.4Y-63.0
X95.4Y-65.0
X95.4Y-67.0
X95.4Y-69.0
X95.4Y-71.0
X95.4Y-73.0
X95.4Y-75.0
X95.4Y-81.0
X95.4Y-83.0
X95.4Y-85.0
X95.4Y-87.0
X95.4Y-89.0
X95.4Y-91.0
X95.4Y-93.0
X95.4Y-95.0
X95.42Y-19.58
X95.42Y-21.58
X95.42Y-23.58
X95.42Y-24.42
X95.42Y-25.58
X95.42Y-27.58
X95.42Y-29.58
X95.42Y-31.58
X95.42Y-33.58
X95.42Y-35.58
X95.42Y-39.58
X95.42Y-41.58
X95.42Y-43.58
X95.42Y-44.42
X95.42Y-45.58
X95.42Y-47.58
X95.42Y-49.58
X95.42Y-51.58
X95.42Y-53.58
X95.42Y-55.58
X95.42Y-59.58
X95.42Y-61.58
X95.42Y-63.58
X95.42Y-64.42
X95.42Y-65.58
X95.42Y-67.58
X95.42Y-69.58
X95.42Y-71.58
X95.42Y-73.58
X95.42Y-75.58
X95.42Y-79.58
X95.42Y-81.58
X95.42Y-83.58
X95.42Y-84.42
X95.42Y-85.58
X95.42Y-87.58
X95.42Y-89.58
X95.42Y-91.58
X95.42Y-93.58
X95.42Y-95.58
X98.58Y-26.42
X98.58Y-27.58
X98.58Y-46.42
X98.58Y-47.58
X98.58Y-66.42
X98.58Y-67.58
X98.58Y-86.42
X98.58Y-87.58
X98.6Y-29.0
X98.6Y-31.0
X98.6Y-33.0
X98.6Y-35.0
X98.6Y-49.0
X98.6Y-51.0
X98.6Y-53.0
X98.6Y-55.0
X98.6Y-69.0
X98.6Y-71.0
X98.6Y-73.0
X98.6Y-75.0
X98.6Y-89.0
X98.6Y-91.0
X98.6Y-93.0
X98.6Y-95.0
X99.4Y-21.0
X99.4Y-35.0
X99.4Y-41.0
X99.4Y-55.0
X99.4Y-61.0
X99.4Y-75.0
X99.4Y-81.0
X99.4Y-95.0
X99.42Y-19.58
X99.42Y-21.58
X99.42Y-33.58
X99.42Y-35.58
X99.42Y-39.58
X99.42Y-41.58
X99.42Y-53.58
X99.42Y-55.58
X99.42Y-59.58
X99.42Y-61.58
X99.42Y-73.58
X99.42Y-75.58
X99.42Y-79.58
X99.42Y-81.58
X99.42Y-93.58
X99.42Y-95.58
X99.42Y-22.897
X99.42Y-42.897
X99.42Y-62.897
X99.42Y-82.897
X99.53Y-25.0
X99.53Y-27.0
X99.53Y-29.0
X99.53Y-31.0
X99.53Y-45.0
X99.53Y-47.0
X99.53Y-49.0
X99.53Y-51.0
X99.53Y-65.0
X99.53Y-67.0
X99.53Y-69.0
X99.53Y-71.0
X99.53Y-85.0
X99.53Y-87.0
X99.53Y-89.0
X99.53Y-91.0
X99.85Y-22.42
X99.85Y-42.42
X99.85Y-62.42
X99.85Y-82.42
X100.009Y-19.61
X100.009Y-36.41
X100.009Y-39.609
X100.009Y-56.409
X100.009Y-59.609
X100.009Y-76.409
X100.009Y-79.609
X100.009Y-96.409
X100.58Y-22.42
X100.58Y-25.58
X100.58Y-42.42
X100.58Y-45.58
X100.58Y-62.42
X100.58Y-65.58
X100.58Y-82.42
X100.58Y-85.58
X100.6Y-21.0
X100.6Y-35.0
X100.6Y-41.0
X100.6Y-55.0
X100.6Y-61.0
X100.6Y-75.0
X100.6Y-81.0
X100.6Y-95.0
X101.27Y-25.0
X101.27Y-27.0
X101.27Y-29.0
X101.27Y-31.0
X101.27Y-45.0
X101.27Y-47.0
X101.27Y-49.0
X101.27Y-51.0
X101.27Y-65.0
X101.27Y-67.0
X101.27Y-69.0
X101.27Y-71.0
X101.27Y-85.0
X101.27Y-87.0
X101.27Y-89.0
X101.27Y-91.0
X101.4Y-21.0
X101.4Y-33.0
X101.4Y-35.0
X101.4Y-41.0
X101.4Y-53.0
X101.4Y-55.0
X101.4Y-61.0
X101.4Y-73.0
X101.4Y-75.0
X101.4Y-81.0
X101.4Y-93.0
X101.4Y-95.0
X101.42Y-19.58
X101.42Y-20.42
X101.42Y-21.58
X101.42Y-33.58
X101.42Y-35.58
X101.42Y-39.58
X101.42Y-40.42
X101.42Y-41.58
X101.42Y-53.58
X101.42Y-55.58
X101.42Y-59.58
X101.42Y-60.42
X101.42Y-61.58
X101.42Y-73.58
X101.42Y-75.58
X101.42Y-79.58
X101.42Y-80.42
X101.42Y-81.58
X101.42Y-93.58
X101.42Y-95.58
X101.42Y-22.897
X101.42Y-42.897
X101.42Y-62.897
X101.42Y-82.897
X102.009Y-19.61
X102.009Y-36.41
X102.009Y-39.609
X102.009Y-56.409
X102.009Y-59.609
X102.009Y-76.409
X102.009Y-79.609
X102.009Y-96.409
X102.58Y-30.42
X102.58Y-31.58
X102.58Y-50.42
X102.58Y-51.58
X102.58Y-70.42
X102.58Y-71.58
X102.58Y-90.42
X102.58Y-91.58
X102.6Y-21.0
X102.6Y-23.0
X102.6Y-25.0
X102.6Y-27.0
X102.6Y-29.0
X102.6Y-33.0
X102.6Y-35.0
X102.6Y-41.0
X102.6Y-43.0
X102.6Y-45.0
X102.6Y-47.0
X102.6Y-49.0
X102.6Y-53.0
X102.6Y-55.0
X102.6Y-61.0
X102.6Y-63.0
X102.6Y-65.0
X102.6Y-67.0
X102.6Y-69.0
X102.6Y-73.0
X102.6Y-75.0
X102.6Y-81.0
X102.6Y-83.0
X102.6Y-85.0
X102.6Y-87.0
X102.6Y-89.0
X102.6Y-93.0
X102.6Y-95.0
X103.4Y-21.0
X103.4Y-23.0
X103.4Y-25.0
X103.4Y-31.0
X103.4Y-33.0
X103.4Y-35.0
X103.4Y-41.0
X103.4Y-43.0
X103.4Y-45.0
X103.4Y-51.0
X103.4Y-53.0
X103.4Y-55.0
X103.4Y-61.0
X103.4Y-63.0
X103.4Y-65.0
X103.4Y-71.0
X103.4Y-73.0
X103.4Y-75.0
X103.4Y-81.0
X103.4Y-83.0
X103.4Y-85.0
X103.4Y-91.0
X103.4Y-93.0
X103.4Y-95.0
X103.42Y-19.58
X103.42Y-21.58
X103.42Y-23.58
X103.42Y-25.58
X103.42Y-27.58
X103.42Y-29.58
X103.42Y-31.58
X103.42Y-33.58
X103.42Y-34.42
X103.42Y-35.58
X103.42Y-39.58
X103.42Y-41.58
X103.42Y-43.58
X103.42Y-45.58
X103.42Y-47.58
X103.42Y-49.58
X103.42Y-51.58
X103.42Y-53.58
X103.42Y-54.42
X103.42Y-55.58
X103.42Y-59.58
X103.42Y-61.58
X103.42Y-63.58
X103.42Y-65.58
X103.42Y-67.58
X103.42Y-69.58
X103.42Y-71.58
X103.42Y-73.58
X103.42Y-74.42
X103.42Y-75.58
X103.42Y-79.58
X103.42Y-81.58
X103.42Y-83.58
X103.42Y-85.58
X103.42Y-87.58
X103.42Y-89.58
X103.42Y-91.58
X103.42Y-93.58
X103.42Y-94.42
X103.42Y-95.58
X104.009Y-19.61
X104.009Y-36.41
X104.009Y-39.609
X104.009Y-56.409
X104.009Y-59.609
X104.009Y-76.409
X104.009Y-79.609
X104.009Y-96.409
X104.58Y-30.42
X104.58Y-31.58
X104.58Y-50.42
X104.58Y-51.58
X104.58Y-70.42
X104.58Y-71.58
X104.58Y-90.42
X104.58Y-91.58
X104.6Y-21.0
X104.6Y-23.0
X104.6Y-25.0
X104.6Y-29.0
X104.6Y-31.0
X104.6Y-33.0
X104.6Y-35.0
X104.6Y-41.0
X104.6Y-43.0
X104.6Y-45.0
X104.6Y-49.0
X104.6Y-51.0
X104.6Y-53.0
X104.6Y-55.0
X104.6Y-61.0
X104.6Y-63.0
X104.6Y-65.0
X104.6Y-69.0
X104.6Y-71.0
X104.6Y-73.0
X104.6Y-75.0
X104.6Y-81.0
X104.6Y-83.0
X104.6Y-85.0
X104.6Y-89.0
X104.6Y-91.0
X104.6Y-93.0
X104.6Y-95.0
X105.4Y-21.0
X105.4Y-23.0
X105.4Y-27.0
X105.4Y-29.0
X105.4Y-31.0
X105.4Y-33.0
X105.4Y-35.0
X105.4Y-41.0
X105.4Y-43.0
X105.4Y-47.0
X105.4Y-49.0
X105.4Y-51.0
X105.4Y-53.0
X105.4Y-55.0
X105.4Y-61.0
X105.4Y-63.0
X105.4Y-67.0
X105.4Y-69.0
X105.4Y-71.0
X105.4Y-73.0
X105.4Y-75.0
X105.4Y-81.0
X105.4Y-83.0
X105.4Y-87.0
X105.4Y-89.0
X105.4Y-91.0
X105.4Y-93.0
X105.4Y-95.0
X105.42Y-19.58
X105.42Y-21.58
X105.42Y-23.58
X105.42Y-25.58
X105.42Y-27.58
X105.42Y-28.42
X105.42Y-29.58
X105.42Y-31.58
X105.42Y-33.58
X105.42Y-35.58
X105.42Y-39.58
X105.42Y-41.58
X105.42Y-43.58
X105.42Y-45.58
X105.42Y-47.58
X105.42Y-48.42
X105.42Y-49.58
X105.42Y-51.58
X105.42Y-53.58
X105.42Y-55.58
X105.42Y-59.58
X105.42Y-61.58
X105.42Y-63.58
X105.42Y-65.58
X105.42Y-67.58
X105.42Y-68.42
X105.42Y-69.58
X105.42Y-71.58
X105.42Y-73.58
X105.42Y-75.58
X105.42Y-79.58
X105.42Y-81.58
X105.42Y-83.58
X105.42Y-85.58
X105.42Y-87.58
X105.42Y-88.42
X105.42Y-89.58
X105.42Y-91.58
X105.42Y-93.58
X105.42Y-95.58
X106.009Y-19.61
X106.009Y-36.41
X106.009Y-39.609
X106.009Y-56.409
X106.009Y-59.609
X106.009Y-76.409
X106.009Y-79.609
X106.009Y-96.409
X106.58Y-26.42
X106.58Y-27.58
X106.58Y-46.42
X106.58Y-47.58
X106.58Y-66.42
X106.58Y-67.58
X106.58Y-86.42
X106.58Y-87.58
X106.6Y-21.0
X106.6Y-23.0
X106.6Y-27.0
X106.6Y-29.0
X106.6Y-31.0
X106.6Y-33.0
X106.6Y-35.0
X106.6Y-41.0
X106.6Y-43.0
X106.6Y-47.0
X106.6Y-49.0
X106.6Y-51.0
X106.6Y-53.0
X106.6Y-55.0
X106.6Y-61.0
X106.6Y-63.0
X106.6Y-67.0
X106.6Y-69.0
X106.6Y-71.0
X106.6Y-73.0
X106.6Y-75.0
X106.6Y-81.0
X106.6Y-83.0
X106.6Y-87.0
X106.6Y-89.0
X106.6Y-91.0
X106.6Y-93.0
X106.6Y-95.0
X107.4Y-21.0
X107.4Y-23.0
X107.4Y-27.0
X107.4Y-29.0
X107.4Y-31.0
X107.4Y-33.0
X107.4Y-35.0
X107.4Y-41.0
X107.4Y-43.0
X107.4Y-47.0
X107.4Y-49.0
X107.4Y-51.0
X107.4Y-53.0
X107.4Y-55.0
X107.4Y-61.0
X107.4Y-63.0
X107.4Y-67.0
X107.4Y-69.0
X107.4Y-71.0
X107.4Y-73.0
X107.4Y-75.0
X107.4Y-81.0
X107.4Y-83.0
X107.4Y-87.0
X107.4Y-89.0
X107.4Y-91.0
X107.4Y-93.0
X107.4Y-95.0
X107.42Y-19.58
X107.42Y-21.58
X107.42Y-23.58
X107.42Y-25.58
X107.42Y-26.42
X107.42Y-27.58
X107.42Y-29.58
X107.42Y-31.58
X107.42Y-33.58
X107.42Y-35.58
X107.42Y-39.58
X107.42Y-41.58
X107.42Y-43.58
X107.42Y-45.58
X107.42Y-46.42
X107.42Y-47.58
X107.42Y-49.58
X107.42Y-51.58
X107.42Y-53.58
X107.42Y-55.58
X107.42Y-59.58
X107.42Y-61.58
X107.42Y-63.58
X107.42Y-65.58
X107.42Y-66.42
X107.42Y-67.58
X107.42Y-69.58
X107.42Y-71.58
X107.42Y-73.58
X107.42Y-75.58
X107.42Y-79.58
X107.42Y-81.58
X107.42Y-83.58
X107.42Y-85.58
X107.42Y-86.42
X107.42Y-87.58
X107.42Y-89.58
X107.42Y-91.58
X107.42Y-93.58
X107.42Y-95.58
X108.009Y-19.61
X108.009Y-36.41
X108.009Y-39.609
X108.009Y-56.409
X108.009Y-59.609
X108.009Y-76.409
X108.009Y-79.609
X108.009Y-96.409
X108.58Y-25.58
X108.58Y-32.42
X108.58Y-45.58
X108.58Y-52.42
X108.58Y-65.58
X108.58Y-72.42
X108.58Y-85.58
X108.58Y-92.42
X108.6Y-21.0
X108.6Y-23.0
X108.6Y-27.0
X108.6Y-29.0
X108.6Y-31.0
X108.6Y-33.0
X108.6Y-35.0
X108.6Y-41.0
X108.6Y-43.0
X108.6Y-47.0
X108.6Y-49.0
X108.6Y-51.0
X108.6Y-53.0
X108.6Y-55.0
X108.6Y-61.0
X108.6Y-63.0
X108.6Y-67.0
X108.6Y-69.0
X108.6Y-71.0
X108.6Y-73.0
X108.6Y-75.0
X108.6Y-81.0
X108.6Y-83.0
X108.6Y-87.0
X108.6Y-89.0
X108.6Y-91.0
X108.6Y-93.0
X108.6Y-95.0
X109.4Y-21.0
X109.4Y-23.0
X109.4Y-25.0
X109.4Y-27.0
X109.4Y-29.0
X109.4Y-31.0
X109.4Y-35.0
X109.4Y-41.0
X109.4Y-43.0
X109.4Y-45.0
X109.4Y-47.0
X109.4Y-49.0
X109.4Y-51.0
X109.4Y-55.0
X109.4Y-61.0
X109.4Y-63.0
X109.4Y-65.0
X109.4Y-67.0
X109.4Y-69.0
X109.4Y-71.0
X109.4Y-75.0
X109.4Y-81.0
X109.4Y-83.0
X109.4Y-85.0
X109.4Y-87.0
X109.4Y-89.0
X109.4Y-91.0
X109.4Y-95.0
X109.42Y-19.58
X109.42Y-21.58
X109.42Y-23.58
X109.42Y-25.58
X109.42Y-27.58
X109.42Y-29.58
X109.42Y-31.58
X109.42Y-32.42
X109.42Y-33.58
X109.42Y-35.58
X109.42Y-39.58
X109.42Y-41.58
X109.42Y-43.58
X109.42Y-45.58
X109.42Y-47.58
X109.42Y-49.58
X109.42Y-51.58
X109.42Y-52.42
X109.42Y-53.58
X109.42Y-55.58
X109.42Y-59.58
X109.42Y-61.58
X109.42Y-63.58
X109.42Y-65.58
X109.42Y-67.58
X109.42Y-69.58
X109.42Y-71.58
X109.42Y-72.42
X109.42Y-73.58
X109.42Y-75.58
X109.42Y-79.58
X109.42Y-81.58
X109.42Y-83.58
X109.42Y-85.58
X109.42Y-87.58
X109.42Y-89.58
X109.42Y-91.58
X109.42Y-92.42
X109.42Y-93.58
X109.42Y-95.58
X110.009Y-19.61
X110.009Y-36.41
X110.009Y-39.609
X110.009Y-56.409
X110.009Y-59.609
X110.009Y-76.409
X110.009Y-79.609
X110.009Y-96.409
X110.58Y-30.42
X110.58Y-31.58
X110.58Y-50.42
X110.58Y-51.58
X110.58Y-70.42
X110.58Y-71.58
X110.58Y-90.42
X110.58Y-91.58
X110.6Y-21.0
X110.6Y-23.0
X110.6Y-25.0
X110.6Y-27.0
X110.6Y-29.0
X110.6Y-31.0
X110.6Y-35.0
X110.6Y-41.0
X110.6Y-43.0
X110.6Y-45.0
X110.6Y-47.0
X110.6Y-49.0
X110.6Y-51.0
X110.6Y-55.0
X110.6Y-61.0
X110.6Y-63.0
X110.6Y-65.0
X110.6Y-67.0
X110.6Y-69.0
X110.6Y-71.0
X110.6Y-75.0
X110.6Y-81.0
X110.6Y-83.0
X110.6Y-85.0
X110.6Y-87.0
X110.6Y-89.0
X110.6Y-91.0
X110.6Y-95.0
X111.4Y-21.0
X111.4Y-23.0
X111.4Y-25.0
X111.4Y-27.0
X111.4Y-29.0
X111.4Y-35.0
X111.4Y-41.0
X111.4Y-43.0
X111.4Y-45.0
X111.4Y-47.0
X111.4Y-49.0
X111.4Y-55.0
X111.4Y-61.0
X111.4Y-63.0
X111.4Y-65.0
X111.4Y-67.0
X111.4Y-69.0
X111.4Y-75.0
X111.4Y-81.0
X111.4Y-83.0
X111.4Y-85.0
X111.4Y-87.0
X111.4Y-89.0
X111.4Y-95.0
X111.42Y-19.58
X111.42Y-21.58
X111.42Y-23.58
X111.42Y-25.58
X111.42Y-27.58
X111.42Y-29.58
X111.42Y-30.42
X111.42Y-31.58
X111.42Y-33.58
X111.42Y-35.58
X111.42Y-39.58
X111.42Y-41.58
X111.42Y-43.58
X111.42Y-45.58
X111.42Y-47.58
X111.42Y-49.58
X111.42Y-50.42
X111.42Y-51.58
X111.42Y-53.58
X111.42Y-55.58
X111.42Y-59.58
X111.42Y-61.58
X111.42Y-63.58
X111.42Y-65.58
X111.42Y-67.58
X111.42Y-69.58
X111.42Y-70.42
X111.42Y-71.58
X111.42Y-73.58
X111.42Y-75.58
X111.42Y-79.58
X111.42Y-81.58
X111.42Y-83.58
X111.42Y-85.58
X111.42Y-87.58
X111.42Y-89.58
X111.42Y-90.42
X111.42Y-91.58
X111.42Y-93.58
X111.42Y-95.58
X112.009Y-19.61
X112.009Y-36.41
X112.009Y-39.609
X112.009Y-56.409
X112.009Y-59.609
X112.009Y-76.409
X112.009Y-79.609
X112.009Y-96.409
X112.58Y-29.58
X112.58Y-30.42
X112.58Y-49.58
X112.58Y-50.42
X112.58Y-69.58
X112.58Y-70.42
X112.58Y-89.58
X112.58Y-90.42
X112.6Y-21.0
X112.6Y-23.0
X112.6Y-25.0
X112.6Y-27.0
X112.6Y-35.0
X112.6Y-41.0
X112.6Y-43.0
X112.6Y-45.0
X112.6Y-47.0
X112.6Y-55.0
X112.6Y-61.0
X112.6Y-63.0
X112.6Y-65.0
X112.6Y-67.0
X112.6Y-75.0
X112.6Y-81.0
X112.6Y-83.0
X112.6Y-85.0
X112.6Y-87.0
X112.6Y-95.0
X113.4Y-21.0
X113.4Y-23.0
X113.4Y-25.0
X113.4Y-27.0
X113.4Y-29.0
X113.4Y-35.0
X113.4Y-41.0
X113.4Y-43.0
X113.4Y-45.0
X113.4Y-47.0
X113.4Y-49.0
X113.4Y-55.0
X113.4Y-61.0
X113.4Y-63.0
X113.4Y-65.0
X113.4Y-67.0
X113.4Y-69.0
X113.4Y-75.0
X113.4Y-81.0
X113.4Y-83.0
X113.4Y-85.0
X113.4Y-87.0
X113.4Y-89.0
X113.4Y-95.0
X113.42Y-19.58
X113.42Y-21.58
X113.42Y-23.58
X113.42Y-25.58
X113.42Y-27.58
X113.42Y-29.58
X113.42Y-30.42
X113.42Y-31.58
X113.42Y-33.58
X113.42Y-35.58
X113.42Y-39.58
X113.42Y-41.58
X113.42Y-43.58
X113.42Y-45.58
X113.42Y-47.58
X113.42Y-49.58
X113.42Y-50.42
X113.42Y-51.58
X113.42Y-53.58
X113.42Y-55.58
X113.42Y-59.58
X113.42Y-61.58
X113.42Y-63.58
X113.42Y-65.58
X113.42Y-67.58
X113.42Y-69.58
X113.42Y-70.42
X113.42Y-71.58
X113.42Y-73.58
X113.42Y-75.58
X113.42Y-79.58
X113.42Y-81.58
X113.42Y-83.58
X113.42Y-85.58
X113.42Y-87.58
X113.42Y-89.58
X113.42Y-90.42
X113.42Y-91.58
X113.42Y-93.58
X113.42Y-95.58
X114.009Y-19.61
X114.009Y-36.41
X114.009Y-39.609
X114.009Y-56.409
X114.009Y-59.609
X114.009Y-76.409
X114.009Y-79.609
X114.009Y-96.409
X114.58Y-28.42
X114.58Y-29.58
X114.58Y-48.42
X114.58Y-49.58
X114.58Y-68.42
X114.58Y-69.58
X114.58Y-88.42
X114.58Y-89.58
X114.6Y-21.0
X114.6Y-23.0
X114.6Y-25.0
X114.6Y-27.0
X114.6Y-29.0
X114.6Y-35.0
X114.6Y-41.0
X114.6Y-43.0
X114.6Y-45.0
X114.6Y-47.0
X114.6Y-49.0
X114.6Y-55.0
X114.6Y-61.0
X114.6Y-63.0
X114.6Y-65.0
X114.6Y-67.0
X114.6Y-69.0
X114.6Y-75.0
X114.6Y-81.0
X114.6Y-83.0
X114.6Y-85.0
X114.6Y-87.0
X114.6Y-89.0
X114.6Y-95.0
X115.4Y-21.0
X115.4Y-23.0
X115.4Y-25.0
X115.4Y-35.0
X115.4Y-41.0
X115.4Y-43.0
X115.4Y-45.0
X115.4Y-55.0
X115.4Y-61.0
X115.4Y-63.0
X115.4Y-65.0
X115.4Y-75.0
X115.4Y-81.0
X115.4Y-83.0
X115.4Y-85.0
X115.4Y-95.0
X115.42Y-19.58
X115.42Y-21.58
X115.42Y-23.58
X115.42Y-25.58
X115.42Y-26.42
X115.42Y-27.58
X115.42Y-29.58
X115.42Y-31.58
X115.42Y-33.58
X115.42Y-35.58
X115.42Y-39.58
X115.42Y-41.58
X115.42Y-43.58
X115.42Y-45.58
X115.42Y-46.42
X115.42Y-47.58
X115.42Y-49.58
X115.42Y-51.58
X115.42Y-53.58
X115.42Y-55.58
X115.42Y-59.58
X115.42Y-61.58
X115.42Y-63.58
X115.42Y-65.58
X115.42Y-66.42
X115.42Y-67.58
X115.42Y-69.58
X115.42Y-71.58
X115.42Y-73.58
X115.42Y-75.58
X115.42Y-79.58
X115.42Y-81.58
X115.42Y-83.58
X115.42Y-85.58
X115.42Y-86.42
X115.42Y-87.58
X115.42Y-89.58
X115.42Y-91.58
X115.42Y-93.58
X115.42Y-95.58
X116.009Y-19.61
X116.009Y-36.41
X116.009Y-39.609
X116.009Y-56.409
X116.009Y-59.609
X116.009Y-76.409
X116.009Y-79.609
X116.009Y-96.409
X116.58Y-26.42
X116.58Y-27.58
X116.58Y-46.42
X116.58Y-47.58
X116.58Y-66.42
X116.58Y-67.58
X116.58Y-86.42
X116.58Y-87.58
X116.6Y-21.0
X116.6Y-23.0
X116.6Y-25.0
X116.6Y-33.0
X116.6Y-35.0
X116.6Y-41.0
X116.6Y-43.0
X116.6Y-45.0
X116.6Y-53.0
X116.6Y-55.0
X116.6Y-61.0
X116.6Y-63.0
X116.6Y-65.0
X116.6Y-73.0
X116.6Y-75.0
X116.6Y-81.0
X116.6Y-83.0
X116.6Y-85.0
X116.6Y-93.0
X116.6Y-95.0
X117.4Y-21.0
X117.4Y-23.0
X117.4Y-25.0
X117.4Y-33.0
X117.4Y-35.0
X117.4Y-41.0
X117.4Y-43.0
X117.4Y-45.0
X117.4Y-53.0
X117.4Y-55.0
X117.4Y-61.0
X117.4Y-63.0
X117.4Y-65.0
X117.4Y-73.0
X117.4Y-75.0
X117.4Y-81.0
X117.4Y-83.0
X117.4Y-85.0
X117.4Y-93.0
X117.4Y-95.0
X117.42Y-19.58
X117.42Y-21.58
X117.42Y-23.58
X117.42Y-25.58
X117.42Y-26.42
X117.42Y-27.58
X117.42Y-29.58
X117.42Y-31.58
X117.42Y-33.58
X117.42Y-35.58
X117.42Y-39.58
X117.42Y-41.58
X117.42Y-43.58
X117.42Y-45.58
X117.42Y-46.42
X117.42Y-47.58
X117.42Y-49.58
X117.42Y-51.58
X117.42Y-53.58
X117.42Y-55.58
X117.42Y-59.58
X117.42Y-61.58
X117.42Y-63.58
X117.42Y-65.58
X117.42Y-66.42
X117.42Y-67.58
X117.42Y-69.58
X117.42Y-71.58
X117.42Y-73.58
X117.42Y-75.58
X117.42Y-79.58
X117.42Y-81.58
X117.42Y-83.58
X117.42Y-85.58
X117.42Y-86.42
X117.42Y-87.58
X117.42Y-89.58
X117.42Y-91.58
X117.42Y-93.58
X117.42Y-95.58
X118.009Y-19.61
X118.009Y-36.41
X118.009Y-39.609
X118.009Y-56.409
X118.009Y-59.609
X118.009Y-76.409
X118.009Y-79.609
X118.009Y-96.409
X118.58Y-24.42
X118.58Y-25.58
X118.58Y-44.42
X118.58Y-45.58
X118.58Y-64.42
X118.58Y-65.58
X118.58Y-84.42
X118.58Y-85.58
X118.6Y-21.0
X118.6Y-23.0
X118.6Y-33.0
X118.6Y-35.0
X118.6Y-41.0
X118.6Y-43.0
X118.6Y-53.0
X118.6Y-55.0
X118.6Y-61.0
X118.6Y-63.0
X118.6Y-73.0
X118.6Y-75.0
X118.6Y-81.0
X118.6Y-83.0
X118.6Y-93.0
X118.6Y-95.0
X119.4Y-21.0
X119.4Y-23.0
X119.4Y-33.0
X119.4Y-35.0
X119.4Y-41.0
X119.4Y-43.0
X119.4Y-53.0
X119.4Y-55.0
X119.4Y-61.0
X119.4Y-63.0
X119.4Y-73.0
X119.4Y-75.0
X119.4Y-81.0
X119.4Y-83.0
X119.4Y-93.0
X119.4Y-95.0
X119.42Y-19.58
X119.42Y-21.58
X119.42Y-23.58
X119.42Y-24.42
X119.42Y-25.58
X119.42Y-27.58
X119.42Y-29.58
X119.42Y-31.58
X119.42Y-33.58
X119.42Y-35.58
X119.42Y-39.58
X119.42Y-41.58
X119.42Y-43.58
X119.42Y-44.42
X119.42Y-45.58
X119.42Y-47.58
X119.42Y-49.58
X119.42Y-51.58
X119.42Y-53.58
X119.42Y-55.58
X119.42Y-59.58
X119.42Y-61.58
X119.42Y-63.58
X119.42Y-64.42
X119.42Y-65.58
X119.42Y-67.58
X119.42Y-69.58
X119.42Y-71.58
X119.42Y-73.58
X119.42Y-75.58
X119.42Y-79.58
X119.42Y-81.58
X119.42Y-83.58
X119.42Y-84.42
X119.42Y-85.58
X119.42Y-87.58
X119.42Y-89.58
X119.42Y-91.58
X119.42Y-93.58
X119.42Y-95.58
X120.009Y-19.61
X120.009Y-36.41
X120.009Y-39.609
X120.009Y-56.409
X120.009Y-59.609
X120.009Y-76.409
X120.009Y-79.609
X120.009Y-96.409
X120.58Y-21.58
X120.58Y-22.42
X120.58Y-41.58
X120.58Y-42.42
X120.58Y-61.58
X120.58Y-62.42
X120.58Y-81.58
X120.58Y-82.42
X120.6Y-33.0
X120.6Y-35.0
X120.6Y-53.0
X120.6Y-55.0
X120.6Y-73.0
X120.6Y-75.0
X120.6Y-93.0
X120.6Y-95.0
X121.4Y-21.0
X121.4Y-25.0
X121.4Y-27.0
X121.4Y-29.0
X121.4Y-31.0
X121.4Y-33.0
X121.4Y-35.0
X121.4Y-41.0
X121.4Y-45.0
X121.4Y-47.0
X121.4Y-49.0
X121.4Y-51.0
X121.4Y-53.0
X121.4Y-55.0
X121.4Y-61.0
X121.4Y-65.0
X121.4Y-67.0
X121.4Y-69.0
X121.4Y-71.0
X121.4Y-73.0
X121.4Y-75.0
X121.4Y-81.0
X121.4Y-85.0
X121.4Y-87.0
X121.4Y-89.0
X121.4Y-91.0
X121.4Y-93.0
X121.4Y-95.0
X121.42Y-19.58
X121.42Y-21.58
X121.42Y-24.42
X121.42Y-25.58
X121.42Y-27.58
X121.42Y-29.58
X121.42Y-31.58
X121.42Y-33.58
X121.42Y-35.58
X121.42Y-39.58
X121.42Y-41.58
X121.42Y-44.42
X121.42Y-45.58
X121.42Y-47.58
X121.42Y-49.58
X121.42Y-51.58
X121.42Y-53.58
X121.42Y-55.58
X121.42Y-59.58
X121.42Y-61.58
X121.42Y-64.42
X121.42Y-65.58
X121.42Y-67.58
X121.42Y-69.58
X121.42Y-71.58
X121.42Y-73.58
X121.42Y-75.58
X121.42Y-79.58
X121.42Y-81.58
X121.42Y-84.42
X121.42Y-85.58
X121.42Y-87.58
X121.42Y-89.58
X121.42Y-91.58
X121.42Y-93.58
X121.42Y-95.58
X121.42Y-22.897
X121.42Y-42.897
X121.42Y-62.897
X121.42Y-82.897
X122.009Y-19.61
X122.009Y-36.41
X122.009Y-39.609
X122.009Y-56.409
X122.009Y-59.609
X122.009Y-76.409
X122.009Y-79.609
X122.009Y-96.409
X122.58Y-20.42
X122.58Y-21.58
X122.58Y-40.42
X122.58Y-41.58
X122.58Y-60.42
X122.58Y-61.58
X122.58Y-80.42
X122.58Y-81.58
X122.6Y-21.0
X122.6Y-27.0
X122.6Y-29.0
X122.6Y-31.0
X122.6Y-33.0
X122.6Y-35.0
X122.6Y-41.0
X122.6Y-47.0
X122.6Y-49.0
X122.6Y-51.0
X122.6Y-53.0
X122.6Y-55.0
X122.6Y-61.0
X122.6Y-67.0
X122.6Y-69.0
X122.6Y-71.0
X122.6Y-73.0
X122.6Y-75.0
X122.6Y-81.0
X122.6Y-87.0
X122.6Y-89.0
X122.6Y-91.0
X122.6Y-93.0
X122.6Y-95.0
X123.4Y-21.0
X123.4Y-23.0
X123.4Y-25.0
X123.4Y-27.0
X123.4Y-29.0
X123.4Y-31.0
X123.4Y-33.0
X123.4Y-35.0
X123.4Y-41.0
X123.4Y-43.0
X123.4Y-45.0
X123.4Y-47.0
X123.4Y-49.0
X123.4Y-51.0
X123.4Y-53.0
X123.4Y-55.0
X123.4Y-61.0
X123.4Y-63.0
X123.4Y-65.0
X123.4Y-67.0
X123.4Y-69.0
X123.4Y-71.0
X123.4Y-73.0
X123.4Y-75.0
X123.4Y-81.0
X123.4Y-83.0
X123.4Y-85.0
X123.4Y-87.0
X123.4Y-89.0
X123.4Y-91.0
X123.4Y-93.0
X123.4Y-95.0
X123.42Y-19.58
X123.42Y-21.58
X123.42Y-23.58
X123.42Y-24.42
X123.42Y-25.58
X123.42Y-27.58
X123.42Y-29.58
X123.42Y-31.58
X123.42Y-33.58
X123.42Y-35.58
X123.42Y-39.58
X123.42Y-41.58
X123.42Y-43.58
X123.42Y-44.42
X123.42Y-45.58
X123.42Y-47.58
X123.42Y-49.58
X123.42Y-51.58
X123.42Y-53.58
X123.42Y-55.58
X123.42Y-59.58
X123.42Y-61.58
X123.42Y-63.58
X123.42Y-64.42
X123.42Y-65.58
X123.42Y-67.58
X123.42Y-69.58
X123.42Y-71.58
X123.42Y-73.58
X123.42Y-75.58
X123.42Y-79.58
X123.42Y-81.58
X123.42Y-83.58
X123.42Y-84.42
X123.42Y-85.58
X123.42Y-87.58
X123.42Y-89.58
X123.42Y-91.58
X123.42Y-93.58
X123.42Y-95.58
X126.58Y-26.42
X126.58Y-27.58
X126.58Y-46.42
X126.58Y-47.58
X126.58Y-66.42
X126.58Y-67.58
X126.58Y-86.42
X126.58Y-87.58
X126.6Y-29.0
X126.6Y-31.0
X126.6Y-33.0
X126.6Y-35.0
X126.6Y-49.0
X126.6Y-51.0
X126.6Y-53.0
X126.6Y-55.0
X126.6Y-69.0
X126.6Y-71.0
X126.6Y-73.0
X126.6Y-75.0
X126.6Y-89.0
X126.6Y-91.0
X126.6Y-93.0
X126.6Y-95.0
X127.4Y-21.0
X127.4Y-35.0
X127.4Y-41.0
X127.4Y-55.0
X127.4Y-61.0
X127.4Y-75.0
X127.4Y-81.0
X127.4Y-95.0
X127.42Y-19.58
X127.42Y-21.58
X127.42Y-33.58
X127.42Y-35.58
X127.42Y-39.58
X127.42Y-41.58
X127.42Y-53.58
X127.42Y-55.58
X127.42Y-59.58
X127.42Y-61.58
X127.42Y-73.58
X127.42Y-75.58
X127.42Y-79.58
X127.42Y-81.58
X127.42Y-93.58
X127.42Y-95.58
X127.42Y-22.897
X127.42Y-42.897
X127.42Y-62.897
X127.42Y-82.897
X127.53Y-25.0
X127.53Y-27.0
X127.53Y-29.0
X127.53Y-31.0
X127.53Y-45.0
X127.53Y-47.0
X127.53Y-49.0
X127.53Y-51.0
X127.53Y-65.0
X127.53Y-67.0
X127.53Y-69.0
X127.53Y-71.0
X127.53Y-85.0
X127.53Y-87.0
X127.53Y-89.0
X127.53Y-91.0
X127.85Y-22.42
X127.85Y-42.42
X127.85Y-62.42
X127.85Y-82.42
X128.01Y-19.61
X128.01Y-36.41
X128.01Y-39.609
X128.01Y-56.409
X128.01Y-59.609
X128.01Y-76.409
X128.01Y-79.609
X128.01Y-96.409
X128.58Y-22.42
X128.58Y-25.58
X128.58Y-42.42
X128.58Y-45.58
X128.58Y-62.42
X128.58Y-65.58
X128.58Y-82.42
X128.58Y-85.58
X128.6Y-21.0
X128.6Y-35.0
X128.6Y-41.0
X128.6Y-55.0
X128.6Y-61.0
X128.6Y-75.0
X128.6Y-81.0
X128.6Y-95.0
X129.27Y-25.0
X129.27Y-27.0
X129.27Y-29.0
X129.27Y-31.0
X129.27Y-45.0
X129.27Y-47.0
X129.27Y-49.0
X129.27Y-51.0
X129.27Y-65.0
X129.27Y-67.0
X129.27Y-69.0
X129.27Y-71.0
X129.27Y-85.0
X129.27Y-87.0
X129.27Y-89.0
X129.27Y-91.0
X129.4Y-21.0
X129.4Y-33.0
X129.4Y-35.0
X129.4Y-41.0
X129.4Y-53.0
X129.4Y-55.0
X129.4Y-61.0
X129.4Y-73.0
X129.4Y-75.0
X129.4Y-81.0
X129.4Y-93.0
X129.4Y-95.0
X129.42Y-19.58
X129.42Y-20.42
X129.42Y-21.58
X129.42Y-33.58
X129.42Y-35.58
X129.42Y-39.58
X129.42Y-40.42
X129.42Y-41.58
X129.42Y-53.58
X129.42Y-55.58
X129.42Y-59.58
X129.42Y-60.42
X129.42Y-61.58
X129.42Y-73.58
X129.42Y-75.58
X129.42Y-79.58
X129.42Y-80.42
X129.42Y-81.58
X129.42Y-93.58
X129.42Y-95.58
X129.42Y-22.897
X129.42Y-42.897
X129.42Y-62.897
X129.42Y-82.897
X130.01Y-19.61
X130.01Y-36.41
X130.01Y-39.609
X130.01Y-56.409
X130.01Y-59.609
X130.01Y-76.409
X130.01Y-79.609
X130.01Y-96.409
X130.58Y-30.42
X130.58Y-31.58
X130.58Y-50.42
X130.58Y-51.58
X130.58Y-70.42
X130.58Y-71.58
X130.58Y-90.42
X130.58Y-91.58
X130.6Y-21.0
X130.6Y-23.0
X130.6Y-25.0
X130.6Y-27.0
X130.6Y-29.0
X130.6Y-33.0
X130.6Y-35.0
X130.6Y-41.0
X130.6Y-43.0
X130.6Y-45.0
X130.6Y-47.0
X130.6Y-49.0
X130.6Y-53.0
X130.6Y-55.0
X130.6Y-61.0
X130.6Y-63.0
X130.6Y-65.0
X130.6Y-67.0
X130.6Y-69.0
X130.6Y-73.0
X130.6Y-75.0
X130.6Y-81.0
X130.6Y-83.0
X130.6Y-85.0
X130.6Y-87.0
X130.6Y-89.0
X130.6Y-93.0
X130.6Y-95.0
X131.4Y-21.0
X131.4Y-23.0
X131.4Y-25.0
X131.4Y-31.0
X131.4Y-33.0
X131.4Y-35.0
X131.4Y-41.0
X131.4Y-43.0
X131.4Y-45.0
X131.4Y-51.0
X131.4Y-53.0
X131.4Y-55.0
X131.4Y-61.0
X131.4Y-63.0
X131.4Y-65.0
X131.4Y-71.0
X131.4Y-73.0
X131.4Y-75.0
X131.4Y-81.0
X131.4Y-83.0
X131.4Y-85.0
X131.4Y-91.0
X131.4Y-93.0
X131.4Y-95.0
X131.42Y-19.58
X131.42Y-21.58
X131.42Y-23.58
X131.42Y-25.58
X131.42Y-27.58
X131.42Y-29.58
X131.42Y-31.58
X131.42Y-33.58
X131.42Y-34.42
X131.42Y-35.58
X131.42Y-39.58
X131.42Y-41.58
X131.42Y-43.58
X131.42Y-45.58
X131.42Y-47.58
X131.42Y-49.58
X131.42Y-51.58
X131.42Y-53.58
X131.42Y-54.42
X131.42Y-55.58
X131.42Y-59.58
X131.42Y-61.58
X131.42Y-63.58
X131.42Y-65.58
X131.42Y-67.58
X131.42Y-69.58
X131.42Y-71.58
X131.42Y-73.58
X131.42Y-74.42
X131.42Y-75.58
X131.42Y-79.58
X131.42Y-81.58
X131.42Y-83.58
X131.42Y-85.58
X131.42Y-87.58
X131.42Y-89.58
X131.42Y-91.58
X131.42Y-93.58
X131.42Y-94.42
X131.42Y-95.58
X132.01Y-19.61
X132.01Y-36.41
X132.01Y-39.609
X132.01Y-56.409
X132.01Y-59.609
X132.01Y-76.409
X132.01Y-79.609
X132.01Y-96.409
X132.58Y-30.42
X132.58Y-31.58
X132.58Y-50.42
X132.58Y-51.58
X132.58Y-70.42
X132.58Y-71.58
X132.58Y-90.42
X132.58Y-91.58
X132.6Y-21.0
X132.6Y-23.0
X132.6Y-25.0
X132.6Y-29.0
X132.6Y-31.0
X132.6Y-33.0
X132.6Y-35.0
X132.6Y-41.0
X132.6Y-43.0
X132.6Y-45.0
X132.6Y-49.0
X132.6Y-51.0
X132.6Y-53.0
X132.6Y-55.0
X132.6Y-61.0
X132.6Y-63.0
X132.6Y-65.0
X132.6Y-69.0
X132.6Y-71.0
X132.6Y-73.0
X132.6Y-75.0
X132.6Y-81.0
X132.6Y-83.0
X132.6Y-85.0
X132.6Y-89.0
X132.6Y-91.0
X132.6Y-93.0
X132.6Y-95.0
X133.4Y-21.0
X133.4Y-23.0
X133.4Y-27.0
X133.4Y-29.0
X133.4Y-31.0
X133.4Y-33.0
X133.4Y-35.0
X133.4Y-41.0
X133.4Y-43.0
X133.4Y-47.0
X133.4Y-49.0
X133.4Y-51.0
X133.4Y-53.0
X133.4Y-55.0
X133.4Y-61.0
X133.4Y-63.0
X133.4Y-67.0
X133.4Y-69.0
X133.4Y-71.0
X133.4Y-73.0
X133.4Y-75.0
X133.4Y-81.0
X133.4Y-83.0
X133.4Y-87.0
X133.4Y-89.0
X133.4Y-91.0
X133.4Y-93.0
X133.4Y-95.0
X133.42Y-19.58
X133.42Y-21.58
X133.42Y-23.58
X133.42Y-25.58
X133.42Y-27.58
X133.42Y-28.42
X133.42Y-29.58
X133.42Y-31.58
X133.42Y-33.58
X133.42Y-35.58
X133.42Y-39.58
X133.42Y-41.58
X133.42Y-43.58
X133.42Y-45.58
X133.42Y-47.58
X133.42Y-48.42
X133.42Y-49.58
X133.42Y-51.58
X133.42Y-53.58
X133.42Y-55.58
X133.42Y-59.58
X133.42Y-61.58
X133.42Y-63.58
X133.42Y-65.58
X133.42Y-67.58
X133.42Y-68.42
X133.42Y-69.58
X133.42Y-71.58
X133.42Y-73.58
X133.42Y-75.58
X133.42Y-79.58
X133.42Y-81.58
X133.42Y-83.58
X133.42Y-85.58
X133.42Y-87.58
X133.42Y-88.42
X133.42Y-89.58
X133.42Y-91.58
X133.42Y-93.58
X133.42Y-95.58
X134.01Y-19.61
X134.01Y-36.41
X134.01Y-39.609
X134.01Y-56.409
X134.01Y-59.609
X134.01Y-76.409
X134.01Y-79.609
X134.01Y-96.409
X134.58Y-26.42
X134.58Y-27.58
X134.58Y-46.42
X134.58Y-47.58
X134.58Y-66.42
X134.58Y-67.58
X134.58Y-86.42
X134.58Y-87.58
X134.6Y-21.0
X134.6Y-23.0
X134.6Y-27.0
X134.6Y-29.0
X134.6Y-31.0
X134.6Y-33.0
X134.6Y-35.0
X134.6Y-41.0
X134.6Y-43.0
X134.6Y-47.0
X134.6Y-49.0
X134.6Y-51.0
X134.6Y-53.0
X134.6Y-55.0
X134.6Y-61.0
X134.6Y-63.0
X134.6Y-67.0
X134.6Y-69.0
X134.6Y-71.0
X134.6Y-73.0
X134.6Y-75.0
X134.6Y-81.0
X134.6Y-83.0
X134.6Y-87.0
X134.6Y-89.0
X134.6Y-91.0
X134.6Y-93.0
X134.6Y-95.0
X135.4Y-21.0
X135.4Y-23.0
X135.4Y-27.0
X135.4Y-29.0
X135.4Y-31.0
X135.4Y-33.0
X135.4Y-35.0
X135.4Y-41.0
X135.4Y-43.0
X135.4Y-47.0
X135.4Y-49.0
X135.4Y-51.0
X135.4Y-53.0
X135.4Y-55.0
X135.4Y-61.0
X135.4Y-63.0
X135.4Y-67.0
X135.4Y-69.0
X135.4Y-71.0
X135.4Y-73.0
X135.4Y-75.0
X135.4Y-81.0
X135.4Y-83.0
X135.4Y-87.0
X135.4Y-89.0
X135.4Y-91.0
X135.4Y-93.0
X135.4Y-95.0
X135.42Y-19.58
X135.42Y-21.58
X135.42Y-23.58
X135.42Y-25.58
X135.42Y-26.42
X135.42Y-27.58
X135.42Y-29.58
X135.42Y-31.58
X135.42Y-33.58
X135.42Y-35.58
X135.42Y-39.58
X135.42Y-41.58
X135.42Y-43.58
X135.42Y-45.58
X135.42Y-46.42
X135.42Y-47.58
X135.42Y-49.58
X135.42Y-51.58
X135.42Y-53.58
X135.42Y-55.58
X135.42Y-59.58
X135.42Y-61.58
X135.42Y-63.58
X135.42Y-65.58
X135.42Y-66.42
X135.42Y-67.58
X135.42Y-69.58
X135.42Y-71.58
X135.42Y-73.58
X135.42Y-75.58
X135.42Y-79.58
X135.42Y-81.58
X135.42Y-83.58
X135.42Y-85.58
X135.42Y-86.42
X135.42Y-87.58
X135.42Y-89.58
X135.42Y-91.58
X135.42Y-93.58
X135.42Y-95.58
X136.01Y-19.61
X136.01Y-36.41
X136.01Y-39.609
X136.01Y-56.409
X136.01Y-59.609
X136.01Y-76.409
X136.01Y-79.609
X136.01Y-96.409
X136.58Y-25.58
X136.58Y-32.42
X136.58Y-45.58
X136.58Y-52.42
X136.58Y-65.58
X136.58Y-72.42
X136.58Y-85.58
X136.58Y-92.42
X136.6Y-21.0
X136.6Y-23.0
X136.6Y-27.0
X136.6Y-29.0
X136.6Y-31.0
X136.6Y-33.0
X136.6Y-35.0
X136.6Y-41.0
X136.6Y-43.0
X136.6Y-47.0
X136.6Y-49.0
X136.6Y-51.0
X136.6Y-53.0
X136.6Y-55.0
X136.6Y-61.0
X136.6Y-63.0
X136.6Y-67.0
X136.6Y-69.0
X136.6Y-71.0
X136.6Y-73.0
X136.6Y-75.0
X136.6Y-81.0
X136.6Y-83.0
X136.6Y-87.0
X136.6Y-89.0
X136.6Y-91.0
X136.6Y-93.0
X136.6Y-95.0
X137.4Y-21.0
X137.4Y-23.0
X137.4Y-25.0
X137.4Y-27.0
X137.4Y-29.0
X137.4Y-31.0
X137.4Y-35.0
X137.4Y-41.0
X137.4Y-43.0
X137.4Y-45.0
X137.4Y-47.0
X137.4Y-49.0
X137.4Y-51.0
X137.4Y-55.0
X137.4Y-61.0
X137.4Y-63.0
X137.4Y-65.0
X137.4Y-67.0
X137.4Y-69.0
X137.4Y-71.0
X137.4Y-75.0
X137.4Y-81.0
X137.4Y-83.0
X137.4Y-85.0
X137.4Y-87.0
X137.4Y-89.0
X137.4Y-91.0
X137.4Y-95.0
X137.42Y-19.58
X137.42Y-21.58
X137.42Y-23.58
X137.42Y-25.58
X137.42Y-27.58
X137.42Y-29.58
X137.42Y-31.58
X137.42Y-32.42
X137.42Y-33.58
X137.42Y-35.58
X137.42Y-39.58
X137.42Y-41.58
X137.42Y-43.58
X137.42Y-45.58
X137.42Y-47.58
X137.42Y-49.58
X137.42Y-51.58
X137.42Y-52.42
X137.42Y-53.58
X137.42Y-55.58
X137.42Y-59.58
X137.42Y-61.58
X137.42Y-63.58
X137.42Y-65.58
X137.42Y-67.58
X137.42Y-69.58
X137.42Y-71.58
X137.42Y-72.42
X137.42Y-73.58
X137.42Y-75.58
X137.42Y-79.58
X137.42Y-81.58
X137.42Y-83.58
X137.42Y-85.58
X137.42Y-87.58
X137.42Y-89.58
X137.42Y-91.58
X137.42Y-92.42
X137.42Y-93.58
X137.42Y-95.58
X138.01Y-19.61
X138.01Y-36.41
X138.01Y-39.609
X138.01Y-56.409
X138.01Y-59.609
X138.01Y-76.409
X138.01Y-79.609
X138.01Y-96.409
X138.58Y-30.42
X138.58Y-31.58
X138.58Y-50.42
X138.58Y-51.58
X138.58Y-70.42
X138.58Y-71.58
X138.58Y-90.42
X138.58Y-91.58
X138.6Y-21.0
X138.6Y-23.0
X138.6Y-25.0
X138.6Y-27.0
X138.6Y-29.0
X138.6Y-31.0
X138.6Y-35.0
X138.6Y-41.0
X138.6Y-43.0
X138.6Y-45.0
X138.6Y-47.0
X138.6Y-49.0
X138.6Y-51.0
X138.6Y-55.0
X138.6Y-61.0
X138.6Y-63.0
X138.6Y-65.0
X138.6Y-67.0
X138.6Y-69.0
X138.6Y-71.0
X138.6Y-75.0
X138.6Y-81.0
X138.6Y-83.0
X138.6Y-85.0
X138.6Y-87.0
X138.6Y-89.0
X138.6Y-91.0
X138.6Y-95.0
X139.4Y-21.0
X139.4Y-23.0
X139.4Y-25.0
X139.4Y-27.0
X139.4Y-29.0
X139.4Y-35.0
X139.4Y-41.0
X139.4Y-43.0
X139.4Y-45.0
X139.4Y-47.0
X139.4Y-49.0
X139.4Y-55.0
X139.4Y-61.0
X139.4Y-63.0
X139.4Y-65.0
X139.4Y-67.0
X139.4Y-69.0
X139.4Y-75.0
X139.4Y-81.0
X139.4Y-83.0
X139.4Y-85.0
X139.4Y-87.0
X139.4Y-89.0
X139.4Y-95.0
X139.42Y-19.58
X139.42Y-21.58
X139.42Y-23.58
X139.42Y-25.58
X139.42Y-27.58
X139.42Y-29.58
X139.42Y-30.42
X139.42Y-31.58
X139.42Y-33.58
X139.42Y-35.58
X139.42Y-39.58
X139.42Y-41.58
X139.42Y-43.58
X139.42Y-45.58
X139.42Y-47.58
X139.42Y-49.58
X139.42Y-50.42
X139.42Y-51.58
X139.42Y-53.58
X139.42Y-55.58
X139.42Y-59.58
X139.42Y-61.58
X139.42Y-63.58
X139.42Y-65.58
X139.42Y-67.58
X139.42Y-69.58
X139.42Y-70.42
X139.42Y-71.58
X139.42Y-73.58
X139.42Y-75.58
X139.42Y-79.58
X139.42Y-81.58
X139.42Y-83.58
X139.42Y-85.58
X139.42Y-87.58
X139.42Y-89.58
X139.42Y-90.42
X139.42Y-91.58
X139.42Y-93.58
X139.42Y-95.58
X140.01Y-19.61
X140.01Y-36.41
X140.01Y-39.609
X140.01Y-56.409
X140.01Y-59.609
X140.01Y-76.409
X140.01Y-79.609
X140.01Y-96.409
X140.58Y-29.58
X140.58Y-30.42
X140.58Y-49.58
X140.58Y-50.42
X140.58Y-69.58
X140.58Y-70.42
X140.58Y-89.58
X140.58Y-90.42
X140.6Y-21.0
X140.6Y-23.0
X140.6Y-25.0
X140.6Y-27.0
X140.6Y-35.0
X140.6Y-41.0
X140.6Y-43.0
X140.6Y-45.0
X140.6Y-47.0
X140.6Y-55.0
X140.6Y-61.0
X140.6Y-63.0
X140.6Y-65.0
X140.6Y-67.0
X140.6Y-75.0
X140.6Y-81.0
X140.6Y-83.0
X140.6Y-85.0
X140.6Y-87.0
X140.6Y-95.0
X141.4Y-21.0
X141.4Y-23.0
X141.4Y-25.0
X141.4Y-27.0
X141.4Y-29.0
X141.4Y-35.0
X141.4Y-41.0
X141.4Y-43.0
X141.4Y-45.0
X141.4Y-47.0
X141.4Y-49.0
X141.4Y-55.0
X141.4Y-61.0
X141.4Y-63.0
X141.4Y-65.0
X141.4Y-67.0
X141.4Y-69.0
X141.4Y-75.0
X141.4Y-81.0
X141.4Y-83.0
X141.4Y-85.0
X141.4Y-87.0
X141.4Y-89.0
X141.4Y-95.0
X141.42Y-19.58
X141.42Y-21.58
X141.42Y-23.58
X141.42Y-25.58
X141.42Y-27.58
X141.42Y-29.58
X141.42Y-30.42
X141.42Y-31.58
X141.42Y-33.58
X141.42Y-35.58
X141.42Y-39.58
X141.42Y-41.58
X141.42Y-43.58
X141.42Y-45.58
X141.42Y-47.58
X141.42Y-49.58
X141.42Y-50.42
X141.42Y-51.58
X141.42Y-53.58
X141.42Y-55.58
X141.42Y-59.58
X141.42Y-61.58
X141.42Y-63.58
X141.42Y-65.58
X141.42Y-67.58
X141.42Y-69.58
X141.42Y-70.42
X141.42Y-71.58
X141.42Y-73.58
X141.42Y-75.58
X141.42Y-79.58
X141.42Y-81.58
X141.42Y-83.58
X141.42Y-85.58
X141.42Y-87.58
X141.42Y-89.58
X141.42Y-90.42
X141.42Y-91.58
X141.42Y-93.58
X141.42Y-95.58
X142.01Y-19.61
X142.01Y-36.41
X142.01Y-39.609
X142.01Y-56.409
X142.01Y-59.609
X142.01Y-76.409
X142.01Y-79.609
X142.01Y-96.409
X142.58Y-28.42
X142.58Y-29.58
X142.58Y-48.42
X142.58Y-49.58
X142.58Y-68.42
X142.58Y-69.58
X142.58Y-88.42
X142.58Y-89.58
X142.6Y-21.0
X142.6Y-23.0
X142.6Y-25.0
X142.6Y-27.0
X142.6Y-29.0
X142.6Y-35.0
X142.6Y-41.0
X142.6Y-43.0
X142.6Y-45.0
X142.6Y-47.0
X142.6Y-49.0
X142.6Y-55.0
X142.6Y-61.0
X142.6Y-63.0
X142.6Y-65.0
X142.6Y-67.0
X142.6Y-69.0
X142.6Y-75.0
X142.6Y-81.0
X142.6Y-83.0
X142.6Y-85.0
X142.6Y-87.0
X142.6Y-89.0
X142.6Y-95.0
X143.4Y-21.0
X143.4Y-23.0
X143.4Y-25.0
X143.4Y-35.0
X143.4Y-41.0
X143.4Y-43.0
X143.4Y-45.0
X143.4Y-55.0
X143.4Y-61.0
X143.4Y-63.0
X143.4Y-65.0
X143.4Y-75.0
X143.4Y-81.0
X143.4Y-83.0
X143.4Y-85.0
X143.4Y-95.0
X143.42Y-19.58
X143.42Y-21.58
X143.42Y-23.58
X143.42Y-25.58
X143.42Y-26.42
X143.42Y-27.58
X143.42Y-29.58
X143.42Y-31.58
X143.42Y-33.58
X143.42Y-35.58
X143.42Y-39.58
X143.42Y-41.58
X143.42Y-43.58
X143.42Y-45.58
X143.42Y-46.42
X143.42Y-47.58
X143.42Y-49.58
X143.42Y-51.58
X143.42Y-53.58
X143.42Y-55.58
X143.42Y-59.58
X143.42Y-61.58
X143.42Y-63.58
X143.42Y-65.58
X143.42Y-66.42
X143.42Y-67.58
X143.42Y-69.58
X143.42Y-71.58
X143.42Y-73.58
X143.42Y-75.58
X143.42Y-79.58
X143.42Y-81.58
X143.42Y-83.58
X143.42Y-85.58
X143.42Y-86.42
X143.42Y-87.58
X143.42Y-89.58
X143.42Y-91.58
X143.42Y-93.58
X143.42Y-95.58
X144.01Y-19.61
X144.01Y-36.41
X144.01Y-39.609
X144.01Y-56.409
X144.01Y-59.609
X144.01Y-76.409
X144.01Y-79.609
X144.01Y-96.409
X144.58Y-26.42
X144.58Y-27.58
X144.58Y-46.42
X144.58Y-47.58
X144.58Y-66.42
X144.58Y-67.58
X144.58Y-86.42
X144.58Y-87.58
X144.6Y-21.0
X144.6Y-23.0
X144.6Y-25.0
X144.6Y-33.0
X144.6Y-35.0
X144.6Y-41.0
X144.6Y-43.0
X144.6Y-45.0
X144.6Y-53.0
X144.6Y-55.0
X144.6Y-61.0
X144.6Y-63.0
X144.6Y-65.0
X144.6Y-73.0
X144.6Y-75.0
X144.6Y-81.0
X144.6Y-83.0
X144.6Y-85.0
X144.6Y-93.0
X144.6Y-95.0
X145.4Y-21.0
X145.4Y-23.0
X145.4Y-25.0
X145.4Y-33.0
X145.4Y-35.0
X145.4Y-41.0
X145.4Y-43.0
X145.4Y-45.0
X145.4Y-53.0
X145.4Y-55.0
X145.4Y-61.0
X145.4Y-63.0
X145.4Y-65.0
X145.4Y-73.0
X145.4Y-75.0
X145.4Y-81.0
X145.4Y-83.0
X145.4Y-85.0
X145.4Y-93.0
X145.4Y-95.0
X145.42Y-19.58
X145.42Y-21.58
X145.42Y-23.58
X145.42Y-25.58
X145.42Y-26.42
X145.42Y-27.58
X145.42Y-29.58
X145.42Y-31.58
X145.42Y-33.58
X145.42Y-35.58
X145.42Y-39.58
X145.42Y-41.58
X145.42Y-43.58
X145.42Y-45.58
X145.42Y-46.42
X145.42Y-47.58
X145.42Y-49.58
X145.42Y-51.58
X145.42Y-53.58
X145.42Y-55.58
X145.42Y-59.58
X145.42Y-61.58
X145.42Y-63.58
X145.42Y-65.58
X145.42Y-66.42
X145.42Y-67.58
X145.42Y-69.58
X145.42Y-71.58
X145.42Y-73.58
X145.42Y-75.58
X145.42Y-79.58
X145.42Y-81.58
X145.42Y-83.58
X145.42Y-85.58
X145.42Y-86.42
X145.42Y-87.58
X145.42Y-89.58
X145.42Y-91.58
X145.42Y-93.58
X145.42Y-95.58
X146.01Y-19.61
X146.01Y-36.41
X146.01Y-39.609
X146.01Y-56.409
X146.01Y-59.609
X146.01Y-76.409
X146.01Y-79.609
X146.01Y-96.409
X146.58Y-24.42
X146.58Y-25.58
X146.58Y-44.42
X146.58Y-45.58
X146.58Y-64.42
X146.58Y-65.58
X146.58Y-84.42
X146.58Y-85.58
X146.6Y-21.0
X146.6Y-23.0
X146.6Y-33.0
X146.6Y-35.0
X146.6Y-41.0
X146.6Y-43.0
X146.6Y-53.0
X146.6Y-55.0
X146.6Y-61.0
X146.6Y-63.0
X146.6Y-73.0
X146.6Y-75.0
X146.6Y-81.0
X146.6Y-83.0
X146.6Y-93.0
X146.6Y-95.0
X147.4Y-21.0
X147.4Y-23.0
X147.4Y-33.0
X147.4Y-35.0
X147.4Y-41.0
X147.4Y-43.0
X147.4Y-53.0
X147.4Y-55.0
X147.4Y-61.0
X147.4Y-63.0
X147.4Y-73.0
X147.4Y-75.0
X147.4Y-81.0
X147.4Y-83.0
X147.4Y-93.0
X147.4Y-95.0
X147.42Y-19.58
X147.42Y-21.58
X147.42Y-23.58
X147.42Y-24.42
X147.42Y-25.58
X147.42Y-27.58
X147.42Y-29.58
X147.42Y-31.58
X147.42Y-33.58
X147.42Y-35.58
X147.42Y-39.58
X147.42Y-41.58
X147.42Y-43.58
X147.42Y-44.42
X147.42Y-45.58
X147.42Y-47.58
X147.42Y-49.58
X147.42Y-51.58
X147.42Y-53.58
X147.42Y-55.58
X147.42Y-59.58
X147.42Y-61.58
X147.42Y-63.58
X147.42Y-64.42
X147.42Y-65.58
X147.42Y-67.58
X147.42Y-69.58
X147.42Y-71.58
X147.42Y-73.58
X147.42Y-75.58
X147.42Y-79.58
X147.42Y-81.58
X147.42Y-83.58
X147.42Y-84.42
X147.42Y-85.58
X147.42Y-87.58
X147.42Y-89.58
X147.42Y-91.58
X147.42Y-93.58
X147.42Y-95.58
X148.01Y-19.61
X148.01Y-36.41
X148.01Y-39.609
X148.01Y-56.409
X148.01Y-59.609
X148.01Y-76.409
X148.01Y-79.609
X148.01Y-96.409
X148.58Y-21.58
X148.58Y-22.42
X148.58Y-41.58
X148.58Y-42.42
X148.58Y-61.58
X148.58Y-62.42
X148.58Y-81.58
X148.58Y-82.42
X148.6Y-33.0
X148.6Y-35.0
X148.6Y-53.0
X148.6Y-55.0
X148.6Y-73.0
X148.6Y-75.0
X148.6Y-93.0
X148.6Y-95.0
X149.4Y-21.0
X149.4Y-25.0
X149.4Y-27.0
X149.4Y-29.0
X149.4Y-31.0
X149.4Y-33.0
X149.4Y-35.0
X149.4Y-41.0
X149.4Y-45.0
X149.4Y-47.0
X149.4Y-49.0
X149.4Y-51.0
X149.4Y-53.0
X149.4Y-55.0
X149.4Y-61.0
X149.4Y-65.0
X149.4Y-67.0
X149.4Y-69.0
X149.4Y-71.0
X149.4Y-73.0
X149.4Y-75.0
X149.4Y-81.0
X149.4Y-85.0
X149.4Y-87.0
X149.4Y-89.0
X149.4Y-91.0
X149.4Y-93.0
X149.4Y-95.0
X149.42Y-19.58
X149.42Y-21.58
X149.42Y-24.42
X149.42Y-25.58
X149.42Y-27.58
X149.42Y-29.58
X149.42Y-31.58
X149.42Y-33.58
X149.42Y-35.58
X149.42Y-39.58
X149.42Y-41.58
X149.42Y-44.42
X149.42Y-45.58
X149.42Y-47.58
X149.42Y-49.58
X149.42Y-51.58
X149.42Y-53.58
X149.42Y-55.58
X149.42Y-59.58
X149.42Y-61.58
X149.42Y-64.42
X149.42Y-65.58
X149.42Y-67.58
X149.42Y-69.58
X149.42Y-71.58
X149.42Y-73.58
X149.42Y-75.58
X149.42Y-79.58
X149.42Y-81.58
X149.42Y-84.42
X149.42Y-85.58
X149.42Y-87.58
X149.42Y-89.58
X149.42Y-91.58
X149.42Y-93.58
X149.42Y-95.58
X149.42Y-22.897
X149.42Y-42.897
X149.42Y-62.897
X149.42Y-82.897
X150.01Y-19.61
X150.01Y-36.41
X150.01Y-39.609
X150.01Y-56.409
X150.01Y-59.609
X150.01Y-76.409
X150.01Y-79.609
X150.01Y-96.409
X150.58Y-20.42
X150.58Y-21.58
X150.58Y-40.42
X150.58Y-41.58
X150.58Y-60.42
X150.58Y-61.58
X150.58Y-80.42
X150.58Y-81.58
X150.6Y-21.0
X150.6Y-27.0
X150.6Y-29.0
X150.6Y-31.0
X150.6Y-33.0
X150.6Y-35.0
X150.6Y-41.0
X150.6Y-47.0
X150.6Y-49.0
X150.6Y-51.0
X150.6Y-53.0
X150.6Y-55.0
X150.6Y-61.0
X150.6Y-67.0
X150.6Y-69.0
X150.6Y-71.0
X150.6Y-73.0
X150.6Y-75.0
X150.6Y-81.0
X150.6Y-87.0
X150.6Y-89.0
X150.6Y-91.0
X150.6Y-93.0
X150.6Y-95.0
X151.4Y-21.0
X151.4Y-23.0
X151.4Y-25.0
X151.4Y-27.0
X151.4Y-29.0
X151.4Y-31.0
X151.4Y-33.0
X151.4Y-35.0
X151.4Y-41.0
X151.4Y-43.0
X151.4Y-45.0
X151.4Y-47.0
X151.4Y-49.0
X151.4Y-51.0
X151.4Y-53.0
X151.4Y-55.0
X151.4Y-61.0
X151.4Y-63.0
X151.4Y-65.0
X151.4Y-67.0
X151.4Y-69.0
X151.4Y-71.0
X151.4Y-73.0
X151.4Y-75.0
X151.4Y-81.0
X151.4Y-83.0
X151.4Y-85.0
X151.4Y-87.0
X151.4Y-89.0
X151.4Y-91.0
X151.4Y-93.0
X151.4Y-95.0
X151.42Y-19.58
X151.42Y-21.58
X151.42Y-23.58
X151.42Y-24.42
X151.42Y-25.58
X151.42Y-27.58
X151.42Y-29.58
X151.42Y-31.58
X151.42Y-33.58
X151.42Y-35.58
X151.42Y-39.58
X151.42Y-41.58
X151.42Y-43.58
X151.42Y-44.42
X151.42Y-45.58
X151.42Y-47.58
X151.42Y-49.58
X151.42Y-51.58
X151.42Y-53.58
X151.42Y-55.58
X151.42Y-59.58
X151.42Y-61.58
X151.42Y-63.58
X151.42Y-64.42
X151.42Y-65.58
X151.42Y-67.58
X151.42Y-69.58
X151.42Y-71.58
X151.42Y-73.58
X151.42Y-75.58
X151.42Y-79.58
X151.42Y-81.58
X151.42Y-83.58
X151.42Y-84.42
X151.42Y-85.58
X151.42Y-87.58
X151.42Y-89.58
X151.42Y-91.58
X151.42Y-93.58
X151.42Y-95.58
M30
