G04 #@! TF.GenerationSoftware,KiCad,Pcbnew,9.0.2*
G04 #@! TF.CreationDate,2025-07-17T09:08:15+02:00*
G04 #@! TF.ProjectId,ILM139C_panel_4x4,494c4d31-3339-4435-9f70-616e656c5f34,v0.1.0*
G04 #@! TF.SameCoordinates,Original*
G04 #@! TF.FileFunction,Paste,Top*
G04 #@! TF.FilePolarity,Positive*
%FSLAX46Y46*%
G04 Gerber Fmt 4.6, Leading zero omitted, Abs format (unit mm)*
G04 Created by KiCad (PCBNEW 9.0.2) date 2025-07-17 09:08:15*
%MOMM*%
%LPD*%
G01*
G04 APERTURE LIST*
%ADD10R,0.450000X0.450000*%
G04 APERTURE END LIST*
D10*
X51420000Y-25580000D03*
X51420000Y-26420000D03*
X50580000Y-26420000D03*
X50580000Y-25580000D03*
X135420000Y-29580000D03*
X135420000Y-30420000D03*
X134580000Y-30420000D03*
X134580000Y-29580000D03*
X55420000Y-19580000D03*
X55420000Y-20420000D03*
X54580000Y-20420000D03*
X54580000Y-19580000D03*
X45420000Y-91580000D03*
X45420000Y-92420000D03*
X44580000Y-92420000D03*
X44580000Y-91580000D03*
X57420000Y-67580000D03*
X57420000Y-68420000D03*
X56580000Y-68420000D03*
X56580000Y-67580000D03*
X131420000Y-85580000D03*
X131420000Y-86420000D03*
X130580000Y-86420000D03*
X130580000Y-85580000D03*
X47420000Y-73580000D03*
X47420000Y-74420000D03*
X46580000Y-74420000D03*
X46580000Y-73580000D03*
X141420000Y-63580000D03*
X141420000Y-64420000D03*
X140580000Y-64420000D03*
X140580000Y-63580000D03*
X115420000Y-61580000D03*
X115420000Y-62420000D03*
X114580000Y-62420000D03*
X114580000Y-61580000D03*
X133420000Y-49580000D03*
X133420000Y-50420000D03*
X132580000Y-50420000D03*
X132580000Y-49580000D03*
X109420000Y-79580000D03*
X109420000Y-80420000D03*
X108580000Y-80420000D03*
X108580000Y-79580000D03*
X111420000Y-35580000D03*
X111420000Y-36420000D03*
X110580000Y-36420000D03*
X110580000Y-35580000D03*
X133420000Y-47580000D03*
X133420000Y-48420000D03*
X132580000Y-48420000D03*
X132580000Y-47580000D03*
X53420000Y-29580000D03*
X53420000Y-30420000D03*
X52580000Y-30420000D03*
X52580000Y-29580000D03*
X127420000Y-67580000D03*
X127420000Y-68420000D03*
X126580000Y-68420000D03*
X126580000Y-67580000D03*
X137420000Y-75580000D03*
X137420000Y-76420000D03*
X136580000Y-76420000D03*
X136580000Y-75580000D03*
X45420000Y-29580000D03*
X45420000Y-30420000D03*
X44580000Y-30420000D03*
X44580000Y-29580000D03*
X89420000Y-59580000D03*
X89420000Y-60420000D03*
X88580000Y-60420000D03*
X88580000Y-59580000D03*
X99420000Y-35580000D03*
X99420000Y-36420000D03*
X98580000Y-36420000D03*
X98580000Y-35580000D03*
X55420000Y-71580000D03*
X55420000Y-72420000D03*
X54580000Y-72420000D03*
X54580000Y-71580000D03*
X93420000Y-63580000D03*
X93420000Y-64420000D03*
X92580000Y-64420000D03*
X92580000Y-63580000D03*
X123420000Y-81580000D03*
X123420000Y-82420000D03*
X122580000Y-82420000D03*
X122580000Y-81580000D03*
X57420000Y-41580000D03*
X57420000Y-42420000D03*
X56580000Y-42420000D03*
X56580000Y-41580000D03*
X117420000Y-41580000D03*
X117420000Y-42420000D03*
X116580000Y-42420000D03*
X116580000Y-41580000D03*
X137420000Y-51580000D03*
X137420000Y-52420000D03*
X136580000Y-52420000D03*
X136580000Y-51580000D03*
X63420000Y-83580000D03*
X63420000Y-84420000D03*
X62580000Y-84420000D03*
X62580000Y-83580000D03*
X63420000Y-51580000D03*
X63420000Y-52420000D03*
X62580000Y-52420000D03*
X62580000Y-51580000D03*
X89420000Y-93580000D03*
X89420000Y-94420000D03*
X88580000Y-94420000D03*
X88580000Y-93580000D03*
X133420000Y-19580000D03*
X133420000Y-20420000D03*
X132580000Y-20420000D03*
X132580000Y-19580000D03*
X137420000Y-27580000D03*
X137420000Y-28420000D03*
X136580000Y-28420000D03*
X136580000Y-27580000D03*
X149420000Y-29580000D03*
X149420000Y-30420000D03*
X148580000Y-30420000D03*
X148580000Y-29580000D03*
X67420000Y-47580000D03*
X67420000Y-48420000D03*
X66580000Y-48420000D03*
X66580000Y-47580000D03*
X127420000Y-63580000D03*
X127420000Y-64420000D03*
X126580000Y-64420000D03*
X126580000Y-63580000D03*
X47420000Y-29580000D03*
X47420000Y-30420000D03*
X46580000Y-30420000D03*
X46580000Y-29580000D03*
X141420000Y-93580000D03*
X141420000Y-94420000D03*
X140580000Y-94420000D03*
X140580000Y-93580000D03*
X151420000Y-43580000D03*
X151420000Y-44420000D03*
X150580000Y-44420000D03*
X150580000Y-43580000D03*
X103420000Y-61580000D03*
X103420000Y-62420000D03*
X102580000Y-62420000D03*
X102580000Y-61580000D03*
X137420000Y-81580000D03*
X137420000Y-82420000D03*
X136580000Y-82420000D03*
X136580000Y-81580000D03*
X145420000Y-33580000D03*
X145420000Y-34420000D03*
X144580000Y-34420000D03*
X144580000Y-33580000D03*
X85420000Y-27580000D03*
X85420000Y-28420000D03*
X84580000Y-28420000D03*
X84580000Y-27580000D03*
X71420000Y-35580000D03*
X71420000Y-36420000D03*
X70580000Y-36420000D03*
X70580000Y-35580000D03*
X89420000Y-71580000D03*
X89420000Y-72420000D03*
X88580000Y-72420000D03*
X88580000Y-71580000D03*
X139420000Y-91580000D03*
X139420000Y-92420000D03*
X138580000Y-92420000D03*
X138580000Y-91580000D03*
X151420000Y-63580000D03*
X151420000Y-64420000D03*
X150580000Y-64420000D03*
X150580000Y-63580000D03*
X45420000Y-83580000D03*
X45420000Y-84420000D03*
X44580000Y-84420000D03*
X44580000Y-83580000D03*
X99420000Y-25580000D03*
X99420000Y-26420000D03*
X98580000Y-26420000D03*
X98580000Y-25580000D03*
X135420000Y-87580000D03*
X135420000Y-88420000D03*
X134580000Y-88420000D03*
X134580000Y-87580000D03*
X73420000Y-83580000D03*
X73420000Y-84420000D03*
X72580000Y-84420000D03*
X72580000Y-83580000D03*
X71420000Y-47580000D03*
X71420000Y-48420000D03*
X70580000Y-48420000D03*
X70580000Y-47580000D03*
X119420000Y-93580000D03*
X119420000Y-94420000D03*
X118580000Y-94420000D03*
X118580000Y-93580000D03*
X71420000Y-21580000D03*
X71420000Y-22420000D03*
X70580000Y-22420000D03*
X70580000Y-21580000D03*
X105420000Y-67580000D03*
X105420000Y-68420000D03*
X104580000Y-68420000D03*
X104580000Y-67580000D03*
X123420000Y-83580000D03*
X123420000Y-84420000D03*
X122580000Y-84420000D03*
X122580000Y-83580000D03*
X61420000Y-33580000D03*
X61420000Y-34420000D03*
X60580000Y-34420000D03*
X60580000Y-33580000D03*
X49420000Y-39580000D03*
X49420000Y-40420000D03*
X48580000Y-40420000D03*
X48580000Y-39580000D03*
X49420000Y-35580000D03*
X49420000Y-36420000D03*
X48580000Y-36420000D03*
X48580000Y-35580000D03*
X113420000Y-79580000D03*
X113420000Y-80420000D03*
X112580000Y-80420000D03*
X112580000Y-79580000D03*
X87420000Y-61580000D03*
X87420000Y-62420000D03*
X86580000Y-62420000D03*
X86580000Y-61580000D03*
X111420000Y-33580000D03*
X111420000Y-34420000D03*
X110580000Y-34420000D03*
X110580000Y-33580000D03*
X73420000Y-31580000D03*
X73420000Y-32420000D03*
X72580000Y-32420000D03*
X72580000Y-31580000D03*
X71420000Y-53580000D03*
X71420000Y-54420000D03*
X70580000Y-54420000D03*
X70580000Y-53580000D03*
X127420000Y-55580000D03*
X127420000Y-56420000D03*
X126580000Y-56420000D03*
X126580000Y-55580000D03*
X151420000Y-95580000D03*
X151420000Y-96420000D03*
X150580000Y-96420000D03*
X150580000Y-95580000D03*
X93420000Y-53580000D03*
X93420000Y-54420000D03*
X92580000Y-54420000D03*
X92580000Y-53580000D03*
X105420000Y-47580000D03*
X105420000Y-48420000D03*
X104580000Y-48420000D03*
X104580000Y-47580000D03*
X139420000Y-73580000D03*
X139420000Y-74420000D03*
X138580000Y-74420000D03*
X138580000Y-73580000D03*
X83420000Y-69580000D03*
X83420000Y-70420000D03*
X82580000Y-70420000D03*
X82580000Y-69580000D03*
X129420000Y-25580000D03*
X129420000Y-26420000D03*
X128580000Y-26420000D03*
X128580000Y-25580000D03*
X87420000Y-65580000D03*
X87420000Y-66420000D03*
X86580000Y-66420000D03*
X86580000Y-65580000D03*
X61420000Y-35580000D03*
X61420000Y-36420000D03*
X60580000Y-36420000D03*
X60580000Y-35580000D03*
X151420000Y-35580000D03*
X151420000Y-36420000D03*
X150580000Y-36420000D03*
X150580000Y-35580000D03*
X59420000Y-19580000D03*
X59420000Y-20420000D03*
X58580000Y-20420000D03*
X58580000Y-19580000D03*
X101420000Y-49580000D03*
X101420000Y-50420000D03*
X100580000Y-50420000D03*
X100580000Y-49580000D03*
X65420000Y-79580000D03*
X65420000Y-80420000D03*
X64580000Y-80420000D03*
X64580000Y-79580000D03*
X141420000Y-71580000D03*
X141420000Y-72420000D03*
X140580000Y-72420000D03*
X140580000Y-71580000D03*
X133420000Y-43580000D03*
X133420000Y-44420000D03*
X132580000Y-44420000D03*
X132580000Y-43580000D03*
X101420000Y-91580000D03*
X101420000Y-92420000D03*
X100580000Y-92420000D03*
X100580000Y-91580000D03*
X87420000Y-63580000D03*
X87420000Y-64420000D03*
X86580000Y-64420000D03*
X86580000Y-63580000D03*
X71420000Y-93580000D03*
X71420000Y-94420000D03*
X70580000Y-94420000D03*
X70580000Y-93580000D03*
X139420000Y-69580000D03*
X139420000Y-70420000D03*
X138580000Y-70420000D03*
X138580000Y-69580000D03*
X111420000Y-61580000D03*
X111420000Y-62420000D03*
X110580000Y-62420000D03*
X110580000Y-61580000D03*
X75420000Y-27580000D03*
X75420000Y-28420000D03*
X74580000Y-28420000D03*
X74580000Y-27580000D03*
X119420000Y-25580000D03*
X119420000Y-26420000D03*
X118580000Y-26420000D03*
X118580000Y-25580000D03*
X51420000Y-21580000D03*
X51420000Y-22420000D03*
X50580000Y-22420000D03*
X50580000Y-21580000D03*
X103420000Y-51580000D03*
X103420000Y-52420000D03*
X102580000Y-52420000D03*
X102580000Y-51580000D03*
X151420000Y-69580000D03*
X151420000Y-70420000D03*
X150580000Y-70420000D03*
X150580000Y-69580000D03*
X77420000Y-49580000D03*
X77420000Y-50420000D03*
X76580000Y-50420000D03*
X76580000Y-49580000D03*
X121420000Y-79580000D03*
X121420000Y-80420000D03*
X120580000Y-80420000D03*
X120580000Y-79580000D03*
X123420000Y-89580000D03*
X123420000Y-90420000D03*
X122580000Y-90420000D03*
X122580000Y-89580000D03*
X139420000Y-31580000D03*
X139420000Y-32420000D03*
X138580000Y-32420000D03*
X138580000Y-31580000D03*
X55420000Y-51580000D03*
X55420000Y-52420000D03*
X54580000Y-52420000D03*
X54580000Y-51580000D03*
X131420000Y-61580000D03*
X131420000Y-62420000D03*
X130580000Y-62420000D03*
X130580000Y-61580000D03*
X99420000Y-89580000D03*
X99420000Y-90420000D03*
X98580000Y-90420000D03*
X98580000Y-89580000D03*
X53420000Y-41580000D03*
X53420000Y-42420000D03*
X52580000Y-42420000D03*
X52580000Y-41580000D03*
X151420000Y-47580000D03*
X151420000Y-48420000D03*
X150580000Y-48420000D03*
X150580000Y-47580000D03*
X55420000Y-65580000D03*
X55420000Y-66420000D03*
X54580000Y-66420000D03*
X54580000Y-65580000D03*
X147420000Y-55580000D03*
X147420000Y-56420000D03*
X146580000Y-56420000D03*
X146580000Y-55580000D03*
X71420000Y-25580000D03*
X71420000Y-26420000D03*
X70580000Y-26420000D03*
X70580000Y-25580000D03*
X121420000Y-61580000D03*
X121420000Y-62420000D03*
X120580000Y-62420000D03*
X120580000Y-61580000D03*
X87420000Y-91580000D03*
X87420000Y-92420000D03*
X86580000Y-92420000D03*
X86580000Y-91580000D03*
X65420000Y-51580000D03*
X65420000Y-52420000D03*
X64580000Y-52420000D03*
X64580000Y-51580000D03*
X133420000Y-53580000D03*
X133420000Y-54420000D03*
X132580000Y-54420000D03*
X132580000Y-53580000D03*
X73420000Y-73580000D03*
X73420000Y-74420000D03*
X72580000Y-74420000D03*
X72580000Y-73580000D03*
X45420000Y-71580000D03*
X45420000Y-72420000D03*
X44580000Y-72420000D03*
X44580000Y-71580000D03*
X113420000Y-95580000D03*
X113420000Y-96420000D03*
X112580000Y-96420000D03*
X112580000Y-95580000D03*
X123420000Y-91580000D03*
X123420000Y-92420000D03*
X122580000Y-92420000D03*
X122580000Y-91580000D03*
X139420000Y-81580000D03*
X139420000Y-82420000D03*
X138580000Y-82420000D03*
X138580000Y-81580000D03*
X75420000Y-63580000D03*
X75420000Y-64420000D03*
X74580000Y-64420000D03*
X74580000Y-63580000D03*
X129420000Y-27580000D03*
X129420000Y-28420000D03*
X128580000Y-28420000D03*
X128580000Y-27580000D03*
X123420000Y-75580000D03*
X123420000Y-76420000D03*
X122580000Y-76420000D03*
X122580000Y-75580000D03*
X49420000Y-47580000D03*
X49420000Y-48420000D03*
X48580000Y-48420000D03*
X48580000Y-47580000D03*
X67420000Y-85580000D03*
X67420000Y-86420000D03*
X66580000Y-86420000D03*
X66580000Y-85580000D03*
X133420000Y-23580000D03*
X133420000Y-24420000D03*
X132580000Y-24420000D03*
X132580000Y-23580000D03*
X149420000Y-35580000D03*
X149420000Y-36420000D03*
X148580000Y-36420000D03*
X148580000Y-35580000D03*
X73420000Y-87580000D03*
X73420000Y-88420000D03*
X72580000Y-88420000D03*
X72580000Y-87580000D03*
X57420000Y-87580000D03*
X57420000Y-88420000D03*
X56580000Y-88420000D03*
X56580000Y-87580000D03*
X129420000Y-33580000D03*
X129420000Y-34420000D03*
X128580000Y-34420000D03*
X128580000Y-33580000D03*
X45420000Y-51580000D03*
X45420000Y-52420000D03*
X44580000Y-52420000D03*
X44580000Y-51580000D03*
X103420000Y-25580000D03*
X103420000Y-26420000D03*
X102580000Y-26420000D03*
X102580000Y-25580000D03*
X95420000Y-43580000D03*
X95420000Y-44420000D03*
X94580000Y-44420000D03*
X94580000Y-43580000D03*
X101420000Y-61580000D03*
X101420000Y-62420000D03*
X100580000Y-62420000D03*
X100580000Y-61580000D03*
X83420000Y-49580000D03*
X83420000Y-50420000D03*
X82580000Y-50420000D03*
X82580000Y-49580000D03*
X145420000Y-79580000D03*
X145420000Y-80420000D03*
X144580000Y-80420000D03*
X144580000Y-79580000D03*
X123420000Y-49580000D03*
X123420000Y-50420000D03*
X122580000Y-50420000D03*
X122580000Y-49580000D03*
X55420000Y-83580000D03*
X55420000Y-84420000D03*
X54580000Y-84420000D03*
X54580000Y-83580000D03*
X73420000Y-75580000D03*
X73420000Y-76420000D03*
X72580000Y-76420000D03*
X72580000Y-75580000D03*
X53420000Y-51580000D03*
X53420000Y-52420000D03*
X52580000Y-52420000D03*
X52580000Y-51580000D03*
X49420000Y-65580000D03*
X49420000Y-66420000D03*
X48580000Y-66420000D03*
X48580000Y-65580000D03*
X75420000Y-73580000D03*
X75420000Y-74420000D03*
X74580000Y-74420000D03*
X74580000Y-73580000D03*
X49420000Y-75580000D03*
X49420000Y-76420000D03*
X48580000Y-76420000D03*
X48580000Y-75580000D03*
X49420000Y-91580000D03*
X49420000Y-92420000D03*
X48580000Y-92420000D03*
X48580000Y-91580000D03*
X45420000Y-75580000D03*
X45420000Y-76420000D03*
X44580000Y-76420000D03*
X44580000Y-75580000D03*
X85420000Y-59580000D03*
X85420000Y-60420000D03*
X84580000Y-60420000D03*
X84580000Y-59580000D03*
X57420000Y-73580000D03*
X57420000Y-74420000D03*
X56580000Y-74420000D03*
X56580000Y-73580000D03*
X115420000Y-41580000D03*
X115420000Y-42420000D03*
X114580000Y-42420000D03*
X114580000Y-41580000D03*
X141420000Y-85580000D03*
X141420000Y-86420000D03*
X140580000Y-86420000D03*
X140580000Y-85580000D03*
X111420000Y-51580000D03*
X111420000Y-52420000D03*
X110580000Y-52420000D03*
X110580000Y-51580000D03*
X91420000Y-89580000D03*
X91420000Y-90420000D03*
X90580000Y-90420000D03*
X90580000Y-89580000D03*
X143420000Y-35580000D03*
X143420000Y-36420000D03*
X142580000Y-36420000D03*
X142580000Y-35580000D03*
X89420000Y-41580000D03*
X89420000Y-42420000D03*
X88580000Y-42420000D03*
X88580000Y-41580000D03*
X89420000Y-87580000D03*
X89420000Y-88420000D03*
X88580000Y-88420000D03*
X88580000Y-87580000D03*
X53420000Y-25580000D03*
X53420000Y-26420000D03*
X52580000Y-26420000D03*
X52580000Y-25580000D03*
X67420000Y-49580000D03*
X67420000Y-50420000D03*
X66580000Y-50420000D03*
X66580000Y-49580000D03*
X107420000Y-65580000D03*
X107420000Y-66420000D03*
X106580000Y-66420000D03*
X106580000Y-65580000D03*
X111420000Y-19580000D03*
X111420000Y-20420000D03*
X110580000Y-20420000D03*
X110580000Y-19580000D03*
X77420000Y-45580000D03*
X77420000Y-46420000D03*
X76580000Y-46420000D03*
X76580000Y-45580000D03*
X145420000Y-49580000D03*
X145420000Y-50420000D03*
X144580000Y-50420000D03*
X144580000Y-49580000D03*
X103420000Y-41580000D03*
X103420000Y-42420000D03*
X102580000Y-42420000D03*
X102580000Y-41580000D03*
X81420000Y-87580000D03*
X81420000Y-88420000D03*
X80580000Y-88420000D03*
X80580000Y-87580000D03*
X127420000Y-33580000D03*
X127420000Y-34420000D03*
X126580000Y-34420000D03*
X126580000Y-33580000D03*
X79420000Y-19580000D03*
X79420000Y-20420000D03*
X78580000Y-20420000D03*
X78580000Y-19580000D03*
X143420000Y-39580000D03*
X143420000Y-40420000D03*
X142580000Y-40420000D03*
X142580000Y-39580000D03*
X85420000Y-31580000D03*
X85420000Y-32420000D03*
X84580000Y-32420000D03*
X84580000Y-31580000D03*
X141420000Y-55580000D03*
X141420000Y-56420000D03*
X140580000Y-56420000D03*
X140580000Y-55580000D03*
X79420000Y-73580000D03*
X79420000Y-74420000D03*
X78580000Y-74420000D03*
X78580000Y-73580000D03*
X75420000Y-95580000D03*
X75420000Y-96420000D03*
X74580000Y-96420000D03*
X74580000Y-95580000D03*
X45420000Y-69580000D03*
X45420000Y-70420000D03*
X44580000Y-70420000D03*
X44580000Y-69580000D03*
X91420000Y-63580000D03*
X91420000Y-64420000D03*
X90580000Y-64420000D03*
X90580000Y-63580000D03*
X99420000Y-67580000D03*
X99420000Y-68420000D03*
X98580000Y-68420000D03*
X98580000Y-67580000D03*
X57420000Y-23580000D03*
X57420000Y-24420000D03*
X56580000Y-24420000D03*
X56580000Y-23580000D03*
X75420000Y-53580000D03*
X75420000Y-54420000D03*
X74580000Y-54420000D03*
X74580000Y-53580000D03*
X81420000Y-29580000D03*
X81420000Y-30420000D03*
X80580000Y-30420000D03*
X80580000Y-29580000D03*
X43420000Y-47580000D03*
X43420000Y-48420000D03*
X42580000Y-48420000D03*
X42580000Y-47580000D03*
X107420000Y-33580000D03*
X107420000Y-34420000D03*
X106580000Y-34420000D03*
X106580000Y-33580000D03*
X135420000Y-51580000D03*
X135420000Y-52420000D03*
X134580000Y-52420000D03*
X134580000Y-51580000D03*
X123420000Y-19580000D03*
X123420000Y-20420000D03*
X122580000Y-20420000D03*
X122580000Y-19580000D03*
X115420000Y-67580000D03*
X115420000Y-68420000D03*
X114580000Y-68420000D03*
X114580000Y-67580000D03*
X113420000Y-75580000D03*
X113420000Y-76420000D03*
X112580000Y-76420000D03*
X112580000Y-75580000D03*
X143420000Y-87580000D03*
X143420000Y-88420000D03*
X142580000Y-88420000D03*
X142580000Y-87580000D03*
X139420000Y-29580000D03*
X139420000Y-30420000D03*
X138580000Y-30420000D03*
X138580000Y-29580000D03*
X145420000Y-89580000D03*
X145420000Y-90420000D03*
X144580000Y-90420000D03*
X144580000Y-89580000D03*
X47420000Y-75580000D03*
X47420000Y-76420000D03*
X46580000Y-76420000D03*
X46580000Y-75580000D03*
X119420000Y-47580000D03*
X119420000Y-48420000D03*
X118580000Y-48420000D03*
X118580000Y-47580000D03*
X55420000Y-31580000D03*
X55420000Y-32420000D03*
X54580000Y-32420000D03*
X54580000Y-31580000D03*
X95420000Y-49580000D03*
X95420000Y-50420000D03*
X94580000Y-50420000D03*
X94580000Y-49580000D03*
X77420000Y-53580000D03*
X77420000Y-54420000D03*
X76580000Y-54420000D03*
X76580000Y-53580000D03*
X51420000Y-63580000D03*
X51420000Y-64420000D03*
X50580000Y-64420000D03*
X50580000Y-63580000D03*
X67420000Y-87580000D03*
X67420000Y-88420000D03*
X66580000Y-88420000D03*
X66580000Y-87580000D03*
X49420000Y-81580000D03*
X49420000Y-82420000D03*
X48580000Y-82420000D03*
X48580000Y-81580000D03*
X139420000Y-85580000D03*
X139420000Y-86420000D03*
X138580000Y-86420000D03*
X138580000Y-85580000D03*
X129420000Y-21580000D03*
X129420000Y-22420000D03*
X128580000Y-22420000D03*
X128580000Y-21580000D03*
X85420000Y-23580000D03*
X85420000Y-24420000D03*
X84580000Y-24420000D03*
X84580000Y-23580000D03*
X73420000Y-67580000D03*
X73420000Y-68420000D03*
X72580000Y-68420000D03*
X72580000Y-67580000D03*
X65420000Y-41580000D03*
X65420000Y-42420000D03*
X64580000Y-42420000D03*
X64580000Y-41580000D03*
X61420000Y-31580000D03*
X61420000Y-32420000D03*
X60580000Y-32420000D03*
X60580000Y-31580000D03*
X43420000Y-19580000D03*
X43420000Y-20420000D03*
X42580000Y-20420000D03*
X42580000Y-19580000D03*
X129420000Y-81580000D03*
X129420000Y-82420000D03*
X128580000Y-82420000D03*
X128580000Y-81580000D03*
X149420000Y-19580000D03*
X149420000Y-20420000D03*
X148580000Y-20420000D03*
X148580000Y-19580000D03*
X121420000Y-21580000D03*
X121420000Y-22420000D03*
X120580000Y-22420000D03*
X120580000Y-21580000D03*
X117420000Y-39580000D03*
X117420000Y-40420000D03*
X116580000Y-40420000D03*
X116580000Y-39580000D03*
X47420000Y-41580000D03*
X47420000Y-42420000D03*
X46580000Y-42420000D03*
X46580000Y-41580000D03*
X59420000Y-25580000D03*
X59420000Y-26420000D03*
X58580000Y-26420000D03*
X58580000Y-25580000D03*
X67420000Y-63580000D03*
X67420000Y-64420000D03*
X66580000Y-64420000D03*
X66580000Y-63580000D03*
X149420000Y-93580000D03*
X149420000Y-94420000D03*
X148580000Y-94420000D03*
X148580000Y-93580000D03*
X129420000Y-83580000D03*
X129420000Y-84420000D03*
X128580000Y-84420000D03*
X128580000Y-83580000D03*
X145420000Y-61580000D03*
X145420000Y-62420000D03*
X144580000Y-62420000D03*
X144580000Y-61580000D03*
X51420000Y-89580000D03*
X51420000Y-90420000D03*
X50580000Y-90420000D03*
X50580000Y-89580000D03*
X59420000Y-69580000D03*
X59420000Y-70420000D03*
X58580000Y-70420000D03*
X58580000Y-69580000D03*
X109420000Y-51580000D03*
X109420000Y-52420000D03*
X108580000Y-52420000D03*
X108580000Y-51580000D03*
X77420000Y-33580000D03*
X77420000Y-34420000D03*
X76580000Y-34420000D03*
X76580000Y-33580000D03*
X49420000Y-69580000D03*
X49420000Y-70420000D03*
X48580000Y-70420000D03*
X48580000Y-69580000D03*
X151420000Y-61580000D03*
X151420000Y-62420000D03*
X150580000Y-62420000D03*
X150580000Y-61580000D03*
X135420000Y-93580000D03*
X135420000Y-94420000D03*
X134580000Y-94420000D03*
X134580000Y-93580000D03*
X137420000Y-65580000D03*
X137420000Y-66420000D03*
X136580000Y-66420000D03*
X136580000Y-65580000D03*
X55420000Y-69580000D03*
X55420000Y-70420000D03*
X54580000Y-70420000D03*
X54580000Y-69580000D03*
X57420000Y-35580000D03*
X57420000Y-36420000D03*
X56580000Y-36420000D03*
X56580000Y-35580000D03*
X67420000Y-67580000D03*
X67420000Y-68420000D03*
X66580000Y-68420000D03*
X66580000Y-67580000D03*
X113420000Y-87580000D03*
X113420000Y-88420000D03*
X112580000Y-88420000D03*
X112580000Y-87580000D03*
X137420000Y-87580000D03*
X137420000Y-88420000D03*
X136580000Y-88420000D03*
X136580000Y-87580000D03*
X65420000Y-93580000D03*
X65420000Y-94420000D03*
X64580000Y-94420000D03*
X64580000Y-93580000D03*
X45420000Y-33580000D03*
X45420000Y-34420000D03*
X44580000Y-34420000D03*
X44580000Y-33580000D03*
X49420000Y-85580000D03*
X49420000Y-86420000D03*
X48580000Y-86420000D03*
X48580000Y-85580000D03*
X123420000Y-87580000D03*
X123420000Y-88420000D03*
X122580000Y-88420000D03*
X122580000Y-87580000D03*
X107420000Y-93580000D03*
X107420000Y-94420000D03*
X106580000Y-94420000D03*
X106580000Y-93580000D03*
X81420000Y-59580000D03*
X81420000Y-60420000D03*
X80580000Y-60420000D03*
X80580000Y-59580000D03*
X93420000Y-81580000D03*
X93420000Y-82420000D03*
X92580000Y-82420000D03*
X92580000Y-81580000D03*
X109420000Y-19580000D03*
X109420000Y-20420000D03*
X108580000Y-20420000D03*
X108580000Y-19580000D03*
X83420000Y-43580000D03*
X83420000Y-44420000D03*
X82580000Y-44420000D03*
X82580000Y-43580000D03*
X59420000Y-87580000D03*
X59420000Y-88420000D03*
X58580000Y-88420000D03*
X58580000Y-87580000D03*
X65420000Y-63580000D03*
X65420000Y-64420000D03*
X64580000Y-64420000D03*
X64580000Y-63580000D03*
X105420000Y-75580000D03*
X105420000Y-76420000D03*
X104580000Y-76420000D03*
X104580000Y-75580000D03*
X55420000Y-63580000D03*
X55420000Y-64420000D03*
X54580000Y-64420000D03*
X54580000Y-63580000D03*
X75420000Y-29580000D03*
X75420000Y-30420000D03*
X74580000Y-30420000D03*
X74580000Y-29580000D03*
X99420000Y-51580000D03*
X99420000Y-52420000D03*
X98580000Y-52420000D03*
X98580000Y-51580000D03*
X75420000Y-25580000D03*
X75420000Y-26420000D03*
X74580000Y-26420000D03*
X74580000Y-25580000D03*
X87420000Y-87580000D03*
X87420000Y-88420000D03*
X86580000Y-88420000D03*
X86580000Y-87580000D03*
X117420000Y-63580000D03*
X117420000Y-64420000D03*
X116580000Y-64420000D03*
X116580000Y-63580000D03*
X147420000Y-85580000D03*
X147420000Y-86420000D03*
X146580000Y-86420000D03*
X146580000Y-85580000D03*
X65420000Y-81580000D03*
X65420000Y-82420000D03*
X64580000Y-82420000D03*
X64580000Y-81580000D03*
X119420000Y-59580000D03*
X119420000Y-60420000D03*
X118580000Y-60420000D03*
X118580000Y-59580000D03*
X119420000Y-73580000D03*
X119420000Y-74420000D03*
X118580000Y-74420000D03*
X118580000Y-73580000D03*
X93420000Y-49580000D03*
X93420000Y-50420000D03*
X92580000Y-50420000D03*
X92580000Y-49580000D03*
X137420000Y-19580000D03*
X137420000Y-20420000D03*
X136580000Y-20420000D03*
X136580000Y-19580000D03*
X139420000Y-43580000D03*
X139420000Y-44420000D03*
X138580000Y-44420000D03*
X138580000Y-43580000D03*
X45420000Y-45580000D03*
X45420000Y-46420000D03*
X44580000Y-46420000D03*
X44580000Y-45580000D03*
X57420000Y-79580000D03*
X57420000Y-80420000D03*
X56580000Y-80420000D03*
X56580000Y-79580000D03*
X71420000Y-71580000D03*
X71420000Y-72420000D03*
X70580000Y-72420000D03*
X70580000Y-71580000D03*
X147420000Y-75580000D03*
X147420000Y-76420000D03*
X146580000Y-76420000D03*
X146580000Y-75580000D03*
X73420000Y-21580000D03*
X73420000Y-22420000D03*
X72580000Y-22420000D03*
X72580000Y-21580000D03*
X63420000Y-29580000D03*
X63420000Y-30420000D03*
X62580000Y-30420000D03*
X62580000Y-29580000D03*
X141420000Y-49580000D03*
X141420000Y-50420000D03*
X140580000Y-50420000D03*
X140580000Y-49580000D03*
X65420000Y-49580000D03*
X65420000Y-50420000D03*
X64580000Y-50420000D03*
X64580000Y-49580000D03*
X121420000Y-23580000D03*
X121420000Y-24420000D03*
X120580000Y-24420000D03*
X120580000Y-23580000D03*
X95420000Y-33580000D03*
X95420000Y-34420000D03*
X94580000Y-34420000D03*
X94580000Y-33580000D03*
X79420000Y-21580000D03*
X79420000Y-22420000D03*
X78580000Y-22420000D03*
X78580000Y-21580000D03*
X115420000Y-69580000D03*
X115420000Y-70420000D03*
X114580000Y-70420000D03*
X114580000Y-69580000D03*
X89420000Y-63580000D03*
X89420000Y-64420000D03*
X88580000Y-64420000D03*
X88580000Y-63580000D03*
X141420000Y-89580000D03*
X141420000Y-90420000D03*
X140580000Y-90420000D03*
X140580000Y-89580000D03*
X119420000Y-69580000D03*
X119420000Y-70420000D03*
X118580000Y-70420000D03*
X118580000Y-69580000D03*
X49420000Y-25580000D03*
X49420000Y-26420000D03*
X48580000Y-26420000D03*
X48580000Y-25580000D03*
X135420000Y-65580000D03*
X135420000Y-66420000D03*
X134580000Y-66420000D03*
X134580000Y-65580000D03*
X107420000Y-63580000D03*
X107420000Y-64420000D03*
X106580000Y-64420000D03*
X106580000Y-63580000D03*
X99420000Y-47580000D03*
X99420000Y-48420000D03*
X98580000Y-48420000D03*
X98580000Y-47580000D03*
X79420000Y-91580000D03*
X79420000Y-92420000D03*
X78580000Y-92420000D03*
X78580000Y-91580000D03*
X91420000Y-33580000D03*
X91420000Y-34420000D03*
X90580000Y-34420000D03*
X90580000Y-33580000D03*
X105420000Y-95580000D03*
X105420000Y-96420000D03*
X104580000Y-96420000D03*
X104580000Y-95580000D03*
X65420000Y-25580000D03*
X65420000Y-26420000D03*
X64580000Y-26420000D03*
X64580000Y-25580000D03*
X83420000Y-51580000D03*
X83420000Y-52420000D03*
X82580000Y-52420000D03*
X82580000Y-51580000D03*
X71420000Y-23580000D03*
X71420000Y-24420000D03*
X70580000Y-24420000D03*
X70580000Y-23580000D03*
X131420000Y-87580000D03*
X131420000Y-88420000D03*
X130580000Y-88420000D03*
X130580000Y-87580000D03*
X139420000Y-95580000D03*
X139420000Y-96420000D03*
X138580000Y-96420000D03*
X138580000Y-95580000D03*
X135420000Y-45580000D03*
X135420000Y-46420000D03*
X134580000Y-46420000D03*
X134580000Y-45580000D03*
X65420000Y-33580000D03*
X65420000Y-34420000D03*
X64580000Y-34420000D03*
X64580000Y-33580000D03*
X87420000Y-49580000D03*
X87420000Y-50420000D03*
X86580000Y-50420000D03*
X86580000Y-49580000D03*
X87420000Y-93580000D03*
X87420000Y-94420000D03*
X86580000Y-94420000D03*
X86580000Y-93580000D03*
X73420000Y-61580000D03*
X73420000Y-62420000D03*
X72580000Y-62420000D03*
X72580000Y-61580000D03*
X109420000Y-91580000D03*
X109420000Y-92420000D03*
X108580000Y-92420000D03*
X108580000Y-91580000D03*
X63420000Y-63580000D03*
X63420000Y-64420000D03*
X62580000Y-64420000D03*
X62580000Y-63580000D03*
X49420000Y-83580000D03*
X49420000Y-84420000D03*
X48580000Y-84420000D03*
X48580000Y-83580000D03*
X111420000Y-23580000D03*
X111420000Y-24420000D03*
X110580000Y-24420000D03*
X110580000Y-23580000D03*
X51420000Y-75580000D03*
X51420000Y-76420000D03*
X50580000Y-76420000D03*
X50580000Y-75580000D03*
X51420000Y-33580000D03*
X51420000Y-34420000D03*
X50580000Y-34420000D03*
X50580000Y-33580000D03*
X85420000Y-21580000D03*
X85420000Y-22420000D03*
X84580000Y-22420000D03*
X84580000Y-21580000D03*
X51420000Y-87580000D03*
X51420000Y-88420000D03*
X50580000Y-88420000D03*
X50580000Y-87580000D03*
X85420000Y-85580000D03*
X85420000Y-86420000D03*
X84580000Y-86420000D03*
X84580000Y-85580000D03*
X55420000Y-33580000D03*
X55420000Y-34420000D03*
X54580000Y-34420000D03*
X54580000Y-33580000D03*
X77420000Y-65580000D03*
X77420000Y-66420000D03*
X76580000Y-66420000D03*
X76580000Y-65580000D03*
X93420000Y-69580000D03*
X93420000Y-70420000D03*
X92580000Y-70420000D03*
X92580000Y-69580000D03*
X103420000Y-63580000D03*
X103420000Y-64420000D03*
X102580000Y-64420000D03*
X102580000Y-63580000D03*
X53420000Y-47580000D03*
X53420000Y-48420000D03*
X52580000Y-48420000D03*
X52580000Y-47580000D03*
X89420000Y-43580000D03*
X89420000Y-44420000D03*
X88580000Y-44420000D03*
X88580000Y-43580000D03*
X127420000Y-85580000D03*
X127420000Y-86420000D03*
X126580000Y-86420000D03*
X126580000Y-85580000D03*
X87420000Y-51580000D03*
X87420000Y-52420000D03*
X86580000Y-52420000D03*
X86580000Y-51580000D03*
X77420000Y-67580000D03*
X77420000Y-68420000D03*
X76580000Y-68420000D03*
X76580000Y-67580000D03*
X75420000Y-87580000D03*
X75420000Y-88420000D03*
X74580000Y-88420000D03*
X74580000Y-87580000D03*
X85420000Y-61580000D03*
X85420000Y-62420000D03*
X84580000Y-62420000D03*
X84580000Y-61580000D03*
X111420000Y-85580000D03*
X111420000Y-86420000D03*
X110580000Y-86420000D03*
X110580000Y-85580000D03*
X135420000Y-71580000D03*
X135420000Y-72420000D03*
X134580000Y-72420000D03*
X134580000Y-71580000D03*
X109420000Y-81580000D03*
X109420000Y-82420000D03*
X108580000Y-82420000D03*
X108580000Y-81580000D03*
X121420000Y-89580000D03*
X121420000Y-90420000D03*
X120580000Y-90420000D03*
X120580000Y-89580000D03*
X113420000Y-73580000D03*
X113420000Y-74420000D03*
X112580000Y-74420000D03*
X112580000Y-73580000D03*
X47420000Y-19580000D03*
X47420000Y-20420000D03*
X46580000Y-20420000D03*
X46580000Y-19580000D03*
X55420000Y-35580000D03*
X55420000Y-36420000D03*
X54580000Y-36420000D03*
X54580000Y-35580000D03*
X65420000Y-65580000D03*
X65420000Y-66420000D03*
X64580000Y-66420000D03*
X64580000Y-65580000D03*
X65420000Y-23580000D03*
X65420000Y-24420000D03*
X64580000Y-24420000D03*
X64580000Y-23580000D03*
X93420000Y-73580000D03*
X93420000Y-74420000D03*
X92580000Y-74420000D03*
X92580000Y-73580000D03*
X79420000Y-39580000D03*
X79420000Y-40420000D03*
X78580000Y-40420000D03*
X78580000Y-39580000D03*
X101420000Y-35580000D03*
X101420000Y-36420000D03*
X100580000Y-36420000D03*
X100580000Y-35580000D03*
X141420000Y-91580000D03*
X141420000Y-92420000D03*
X140580000Y-92420000D03*
X140580000Y-91580000D03*
X149420000Y-59580000D03*
X149420000Y-60420000D03*
X148580000Y-60420000D03*
X148580000Y-59580000D03*
X81420000Y-73580000D03*
X81420000Y-74420000D03*
X80580000Y-74420000D03*
X80580000Y-73580000D03*
X57420000Y-43580000D03*
X57420000Y-44420000D03*
X56580000Y-44420000D03*
X56580000Y-43580000D03*
X47420000Y-87580000D03*
X47420000Y-88420000D03*
X46580000Y-88420000D03*
X46580000Y-87580000D03*
X61420000Y-87580000D03*
X61420000Y-88420000D03*
X60580000Y-88420000D03*
X60580000Y-87580000D03*
X101420000Y-65580000D03*
X101420000Y-66420000D03*
X100580000Y-66420000D03*
X100580000Y-65580000D03*
X55420000Y-27580000D03*
X55420000Y-28420000D03*
X54580000Y-28420000D03*
X54580000Y-27580000D03*
X55420000Y-59580000D03*
X55420000Y-60420000D03*
X54580000Y-60420000D03*
X54580000Y-59580000D03*
X79420000Y-51580000D03*
X79420000Y-52420000D03*
X78580000Y-52420000D03*
X78580000Y-51580000D03*
X53420000Y-19580000D03*
X53420000Y-20420000D03*
X52580000Y-20420000D03*
X52580000Y-19580000D03*
X151420000Y-93580000D03*
X151420000Y-94420000D03*
X150580000Y-94420000D03*
X150580000Y-93580000D03*
X121420000Y-55580000D03*
X121420000Y-56420000D03*
X120580000Y-56420000D03*
X120580000Y-55580000D03*
X61420000Y-25580000D03*
X61420000Y-26420000D03*
X60580000Y-26420000D03*
X60580000Y-25580000D03*
X119420000Y-53580000D03*
X119420000Y-54420000D03*
X118580000Y-54420000D03*
X118580000Y-53580000D03*
X107420000Y-87580000D03*
X107420000Y-88420000D03*
X106580000Y-88420000D03*
X106580000Y-87580000D03*
X79420000Y-71580000D03*
X79420000Y-72420000D03*
X78580000Y-72420000D03*
X78580000Y-71580000D03*
X81420000Y-49580000D03*
X81420000Y-50420000D03*
X80580000Y-50420000D03*
X80580000Y-49580000D03*
X121420000Y-67580000D03*
X121420000Y-68420000D03*
X120580000Y-68420000D03*
X120580000Y-67580000D03*
X49420000Y-21580000D03*
X49420000Y-22420000D03*
X48580000Y-22420000D03*
X48580000Y-21580000D03*
X61420000Y-95580000D03*
X61420000Y-96420000D03*
X60580000Y-96420000D03*
X60580000Y-95580000D03*
X127420000Y-73580000D03*
X127420000Y-74420000D03*
X126580000Y-74420000D03*
X126580000Y-73580000D03*
X135420000Y-59580000D03*
X135420000Y-60420000D03*
X134580000Y-60420000D03*
X134580000Y-59580000D03*
X131420000Y-25580000D03*
X131420000Y-26420000D03*
X130580000Y-26420000D03*
X130580000Y-25580000D03*
X137420000Y-39580000D03*
X137420000Y-40420000D03*
X136580000Y-40420000D03*
X136580000Y-39580000D03*
X89420000Y-85580000D03*
X89420000Y-86420000D03*
X88580000Y-86420000D03*
X88580000Y-85580000D03*
X101420000Y-55580000D03*
X101420000Y-56420000D03*
X100580000Y-56420000D03*
X100580000Y-55580000D03*
X123420000Y-53580000D03*
X123420000Y-54420000D03*
X122580000Y-54420000D03*
X122580000Y-53580000D03*
X111420000Y-67580000D03*
X111420000Y-68420000D03*
X110580000Y-68420000D03*
X110580000Y-67580000D03*
X63420000Y-91580000D03*
X63420000Y-92420000D03*
X62580000Y-92420000D03*
X62580000Y-91580000D03*
X81420000Y-25580000D03*
X81420000Y-26420000D03*
X80580000Y-26420000D03*
X80580000Y-25580000D03*
X79420000Y-63580000D03*
X79420000Y-64420000D03*
X78580000Y-64420000D03*
X78580000Y-63580000D03*
X85420000Y-35580000D03*
X85420000Y-36420000D03*
X84580000Y-36420000D03*
X84580000Y-35580000D03*
X47420000Y-81580000D03*
X47420000Y-82420000D03*
X46580000Y-82420000D03*
X46580000Y-81580000D03*
X149420000Y-33580000D03*
X149420000Y-34420000D03*
X148580000Y-34420000D03*
X148580000Y-33580000D03*
X143420000Y-75580000D03*
X143420000Y-76420000D03*
X142580000Y-76420000D03*
X142580000Y-75580000D03*
X51420000Y-47580000D03*
X51420000Y-48420000D03*
X50580000Y-48420000D03*
X50580000Y-47580000D03*
X95420000Y-29580000D03*
X95420000Y-30420000D03*
X94580000Y-30420000D03*
X94580000Y-29580000D03*
X149420000Y-87580000D03*
X149420000Y-88420000D03*
X148580000Y-88420000D03*
X148580000Y-87580000D03*
X51420000Y-83580000D03*
X51420000Y-84420000D03*
X50580000Y-84420000D03*
X50580000Y-83580000D03*
X59420000Y-85580000D03*
X59420000Y-86420000D03*
X58580000Y-86420000D03*
X58580000Y-85580000D03*
X51420000Y-49580000D03*
X51420000Y-50420000D03*
X50580000Y-50420000D03*
X50580000Y-49580000D03*
X121420000Y-87580000D03*
X121420000Y-88420000D03*
X120580000Y-88420000D03*
X120580000Y-87580000D03*
X123420000Y-69580000D03*
X123420000Y-70420000D03*
X122580000Y-70420000D03*
X122580000Y-69580000D03*
X77420000Y-81580000D03*
X77420000Y-82420000D03*
X76580000Y-82420000D03*
X76580000Y-81580000D03*
X89420000Y-75580000D03*
X89420000Y-76420000D03*
X88580000Y-76420000D03*
X88580000Y-75580000D03*
X63420000Y-61580000D03*
X63420000Y-62420000D03*
X62580000Y-62420000D03*
X62580000Y-61580000D03*
X99420000Y-45580000D03*
X99420000Y-46420000D03*
X98580000Y-46420000D03*
X98580000Y-45580000D03*
X67420000Y-23580000D03*
X67420000Y-24420000D03*
X66580000Y-24420000D03*
X66580000Y-23580000D03*
X139420000Y-87580000D03*
X139420000Y-88420000D03*
X138580000Y-88420000D03*
X138580000Y-87580000D03*
X67420000Y-51580000D03*
X67420000Y-52420000D03*
X66580000Y-52420000D03*
X66580000Y-51580000D03*
X127420000Y-23580000D03*
X127420000Y-24420000D03*
X126580000Y-24420000D03*
X126580000Y-23580000D03*
X113420000Y-45580000D03*
X113420000Y-46420000D03*
X112580000Y-46420000D03*
X112580000Y-45580000D03*
X145420000Y-27580000D03*
X145420000Y-28420000D03*
X144580000Y-28420000D03*
X144580000Y-27580000D03*
X147420000Y-33580000D03*
X147420000Y-34420000D03*
X146580000Y-34420000D03*
X146580000Y-33580000D03*
X135420000Y-27580000D03*
X135420000Y-28420000D03*
X134580000Y-28420000D03*
X134580000Y-27580000D03*
X59420000Y-63580000D03*
X59420000Y-64420000D03*
X58580000Y-64420000D03*
X58580000Y-63580000D03*
X145420000Y-87580000D03*
X145420000Y-88420000D03*
X144580000Y-88420000D03*
X144580000Y-87580000D03*
X79420000Y-35580000D03*
X79420000Y-36420000D03*
X78580000Y-36420000D03*
X78580000Y-35580000D03*
X65420000Y-39580000D03*
X65420000Y-40420000D03*
X64580000Y-40420000D03*
X64580000Y-39580000D03*
X131420000Y-93580000D03*
X131420000Y-94420000D03*
X130580000Y-94420000D03*
X130580000Y-93580000D03*
X113420000Y-81580000D03*
X113420000Y-82420000D03*
X112580000Y-82420000D03*
X112580000Y-81580000D03*
X147420000Y-49580000D03*
X147420000Y-50420000D03*
X146580000Y-50420000D03*
X146580000Y-49580000D03*
X91420000Y-61580000D03*
X91420000Y-62420000D03*
X90580000Y-62420000D03*
X90580000Y-61580000D03*
X77420000Y-43580000D03*
X77420000Y-44420000D03*
X76580000Y-44420000D03*
X76580000Y-43580000D03*
X43420000Y-23580000D03*
X43420000Y-24420000D03*
X42580000Y-24420000D03*
X42580000Y-23580000D03*
X131420000Y-19580000D03*
X131420000Y-20420000D03*
X130580000Y-20420000D03*
X130580000Y-19580000D03*
X115420000Y-27580000D03*
X115420000Y-28420000D03*
X114580000Y-28420000D03*
X114580000Y-27580000D03*
X43420000Y-73580000D03*
X43420000Y-74420000D03*
X42580000Y-74420000D03*
X42580000Y-73580000D03*
X145420000Y-81580000D03*
X145420000Y-82420000D03*
X144580000Y-82420000D03*
X144580000Y-81580000D03*
X73420000Y-25580000D03*
X73420000Y-26420000D03*
X72580000Y-26420000D03*
X72580000Y-25580000D03*
X123420000Y-27580000D03*
X123420000Y-28420000D03*
X122580000Y-28420000D03*
X122580000Y-27580000D03*
X51420000Y-51580000D03*
X51420000Y-52420000D03*
X50580000Y-52420000D03*
X50580000Y-51580000D03*
X79420000Y-55580000D03*
X79420000Y-56420000D03*
X78580000Y-56420000D03*
X78580000Y-55580000D03*
X105420000Y-85580000D03*
X105420000Y-86420000D03*
X104580000Y-86420000D03*
X104580000Y-85580000D03*
X73420000Y-93580000D03*
X73420000Y-94420000D03*
X72580000Y-94420000D03*
X72580000Y-93580000D03*
X83420000Y-67580000D03*
X83420000Y-68420000D03*
X82580000Y-68420000D03*
X82580000Y-67580000D03*
X133420000Y-33580000D03*
X133420000Y-34420000D03*
X132580000Y-34420000D03*
X132580000Y-33580000D03*
X49420000Y-89580000D03*
X49420000Y-90420000D03*
X48580000Y-90420000D03*
X48580000Y-89580000D03*
X103420000Y-21580000D03*
X103420000Y-22420000D03*
X102580000Y-22420000D03*
X102580000Y-21580000D03*
X89420000Y-67580000D03*
X89420000Y-68420000D03*
X88580000Y-68420000D03*
X88580000Y-67580000D03*
X113420000Y-21580000D03*
X113420000Y-22420000D03*
X112580000Y-22420000D03*
X112580000Y-21580000D03*
X75420000Y-47580000D03*
X75420000Y-48420000D03*
X74580000Y-48420000D03*
X74580000Y-47580000D03*
X77420000Y-71580000D03*
X77420000Y-72420000D03*
X76580000Y-72420000D03*
X76580000Y-71580000D03*
X109420000Y-61580000D03*
X109420000Y-62420000D03*
X108580000Y-62420000D03*
X108580000Y-61580000D03*
X55420000Y-67580000D03*
X55420000Y-68420000D03*
X54580000Y-68420000D03*
X54580000Y-67580000D03*
X75420000Y-43580000D03*
X75420000Y-44420000D03*
X74580000Y-44420000D03*
X74580000Y-43580000D03*
X103420000Y-93580000D03*
X103420000Y-94420000D03*
X102580000Y-94420000D03*
X102580000Y-93580000D03*
X57420000Y-85580000D03*
X57420000Y-86420000D03*
X56580000Y-86420000D03*
X56580000Y-85580000D03*
X53420000Y-91580000D03*
X53420000Y-92420000D03*
X52580000Y-92420000D03*
X52580000Y-91580000D03*
X77420000Y-59580000D03*
X77420000Y-60420000D03*
X76580000Y-60420000D03*
X76580000Y-59580000D03*
X147420000Y-23580000D03*
X147420000Y-24420000D03*
X146580000Y-24420000D03*
X146580000Y-23580000D03*
X133420000Y-89580000D03*
X133420000Y-90420000D03*
X132580000Y-90420000D03*
X132580000Y-89580000D03*
X43420000Y-59580000D03*
X43420000Y-60420000D03*
X42580000Y-60420000D03*
X42580000Y-59580000D03*
X43420000Y-49580000D03*
X43420000Y-50420000D03*
X42580000Y-50420000D03*
X42580000Y-49580000D03*
X75420000Y-69580000D03*
X75420000Y-70420000D03*
X74580000Y-70420000D03*
X74580000Y-69580000D03*
X43420000Y-69580000D03*
X43420000Y-70420000D03*
X42580000Y-70420000D03*
X42580000Y-69580000D03*
X107420000Y-91580000D03*
X107420000Y-92420000D03*
X106580000Y-92420000D03*
X106580000Y-91580000D03*
X131420000Y-81580000D03*
X131420000Y-82420000D03*
X130580000Y-82420000D03*
X130580000Y-81580000D03*
X89420000Y-61580000D03*
X89420000Y-62420000D03*
X88580000Y-62420000D03*
X88580000Y-61580000D03*
X113420000Y-53580000D03*
X113420000Y-54420000D03*
X112580000Y-54420000D03*
X112580000Y-53580000D03*
X135420000Y-89580000D03*
X135420000Y-90420000D03*
X134580000Y-90420000D03*
X134580000Y-89580000D03*
X45420000Y-79580000D03*
X45420000Y-80420000D03*
X44580000Y-80420000D03*
X44580000Y-79580000D03*
X141420000Y-19580000D03*
X141420000Y-20420000D03*
X140580000Y-20420000D03*
X140580000Y-19580000D03*
X75420000Y-49580000D03*
X75420000Y-50420000D03*
X74580000Y-50420000D03*
X74580000Y-49580000D03*
X135420000Y-49580000D03*
X135420000Y-50420000D03*
X134580000Y-50420000D03*
X134580000Y-49580000D03*
X139420000Y-51580000D03*
X139420000Y-52420000D03*
X138580000Y-52420000D03*
X138580000Y-51580000D03*
X59420000Y-27580000D03*
X59420000Y-28420000D03*
X58580000Y-28420000D03*
X58580000Y-27580000D03*
X135420000Y-23580000D03*
X135420000Y-24420000D03*
X134580000Y-24420000D03*
X134580000Y-23580000D03*
X73420000Y-65580000D03*
X73420000Y-66420000D03*
X72580000Y-66420000D03*
X72580000Y-65580000D03*
X85420000Y-89580000D03*
X85420000Y-90420000D03*
X84580000Y-90420000D03*
X84580000Y-89580000D03*
X129420000Y-59580000D03*
X129420000Y-60420000D03*
X128580000Y-60420000D03*
X128580000Y-59580000D03*
X109420000Y-95580000D03*
X109420000Y-96420000D03*
X108580000Y-96420000D03*
X108580000Y-95580000D03*
X111420000Y-87580000D03*
X111420000Y-88420000D03*
X110580000Y-88420000D03*
X110580000Y-87580000D03*
X105420000Y-39580000D03*
X105420000Y-40420000D03*
X104580000Y-40420000D03*
X104580000Y-39580000D03*
X149420000Y-39580000D03*
X149420000Y-40420000D03*
X148580000Y-40420000D03*
X148580000Y-39580000D03*
X103420000Y-65580000D03*
X103420000Y-66420000D03*
X102580000Y-66420000D03*
X102580000Y-65580000D03*
X81420000Y-21580000D03*
X81420000Y-22420000D03*
X80580000Y-22420000D03*
X80580000Y-21580000D03*
X103420000Y-81580000D03*
X103420000Y-82420000D03*
X102580000Y-82420000D03*
X102580000Y-81580000D03*
X47420000Y-79580000D03*
X47420000Y-80420000D03*
X46580000Y-80420000D03*
X46580000Y-79580000D03*
X123420000Y-33580000D03*
X123420000Y-34420000D03*
X122580000Y-34420000D03*
X122580000Y-33580000D03*
X51420000Y-41580000D03*
X51420000Y-42420000D03*
X50580000Y-42420000D03*
X50580000Y-41580000D03*
X105420000Y-49580000D03*
X105420000Y-50420000D03*
X104580000Y-50420000D03*
X104580000Y-49580000D03*
X99420000Y-41580000D03*
X99420000Y-42420000D03*
X98580000Y-42420000D03*
X98580000Y-41580000D03*
X133420000Y-59580000D03*
X133420000Y-60420000D03*
X132580000Y-60420000D03*
X132580000Y-59580000D03*
X99420000Y-91580000D03*
X99420000Y-92420000D03*
X98580000Y-92420000D03*
X98580000Y-91580000D03*
X139420000Y-61580000D03*
X139420000Y-62420000D03*
X138580000Y-62420000D03*
X138580000Y-61580000D03*
X121420000Y-29580000D03*
X121420000Y-30420000D03*
X120580000Y-30420000D03*
X120580000Y-29580000D03*
X63420000Y-65580000D03*
X63420000Y-66420000D03*
X62580000Y-66420000D03*
X62580000Y-65580000D03*
X133420000Y-51580000D03*
X133420000Y-52420000D03*
X132580000Y-52420000D03*
X132580000Y-51580000D03*
X91420000Y-65580000D03*
X91420000Y-66420000D03*
X90580000Y-66420000D03*
X90580000Y-65580000D03*
X141420000Y-33580000D03*
X141420000Y-34420000D03*
X140580000Y-34420000D03*
X140580000Y-33580000D03*
X77420000Y-23580000D03*
X77420000Y-24420000D03*
X76580000Y-24420000D03*
X76580000Y-23580000D03*
X93420000Y-25580000D03*
X93420000Y-26420000D03*
X92580000Y-26420000D03*
X92580000Y-25580000D03*
X61420000Y-43580000D03*
X61420000Y-44420000D03*
X60580000Y-44420000D03*
X60580000Y-43580000D03*
X55420000Y-89580000D03*
X55420000Y-90420000D03*
X54580000Y-90420000D03*
X54580000Y-89580000D03*
X87420000Y-27580000D03*
X87420000Y-28420000D03*
X86580000Y-28420000D03*
X86580000Y-27580000D03*
X111420000Y-91580000D03*
X111420000Y-92420000D03*
X110580000Y-92420000D03*
X110580000Y-91580000D03*
X101420000Y-89580000D03*
X101420000Y-90420000D03*
X100580000Y-90420000D03*
X100580000Y-89580000D03*
X45420000Y-73580000D03*
X45420000Y-74420000D03*
X44580000Y-74420000D03*
X44580000Y-73580000D03*
X105420000Y-21580000D03*
X105420000Y-22420000D03*
X104580000Y-22420000D03*
X104580000Y-21580000D03*
X53420000Y-89580000D03*
X53420000Y-90420000D03*
X52580000Y-90420000D03*
X52580000Y-89580000D03*
X71420000Y-75580000D03*
X71420000Y-76420000D03*
X70580000Y-76420000D03*
X70580000Y-75580000D03*
X43420000Y-75580000D03*
X43420000Y-76420000D03*
X42580000Y-76420000D03*
X42580000Y-75580000D03*
X109420000Y-83580000D03*
X109420000Y-84420000D03*
X108580000Y-84420000D03*
X108580000Y-83580000D03*
X53420000Y-63580000D03*
X53420000Y-64420000D03*
X52580000Y-64420000D03*
X52580000Y-63580000D03*
X119420000Y-29580000D03*
X119420000Y-30420000D03*
X118580000Y-30420000D03*
X118580000Y-29580000D03*
X47420000Y-83580000D03*
X47420000Y-84420000D03*
X46580000Y-84420000D03*
X46580000Y-83580000D03*
X49420000Y-73580000D03*
X49420000Y-74420000D03*
X48580000Y-74420000D03*
X48580000Y-73580000D03*
X133420000Y-39580000D03*
X133420000Y-40420000D03*
X132580000Y-40420000D03*
X132580000Y-39580000D03*
X77420000Y-87580000D03*
X77420000Y-88420000D03*
X76580000Y-88420000D03*
X76580000Y-87580000D03*
X119420000Y-91580000D03*
X119420000Y-92420000D03*
X118580000Y-92420000D03*
X118580000Y-91580000D03*
X117420000Y-69580000D03*
X117420000Y-70420000D03*
X116580000Y-70420000D03*
X116580000Y-69580000D03*
X65420000Y-27580000D03*
X65420000Y-28420000D03*
X64580000Y-28420000D03*
X64580000Y-27580000D03*
X143420000Y-29580000D03*
X143420000Y-30420000D03*
X142580000Y-30420000D03*
X142580000Y-29580000D03*
X45420000Y-47580000D03*
X45420000Y-48420000D03*
X44580000Y-48420000D03*
X44580000Y-47580000D03*
X87420000Y-73580000D03*
X87420000Y-74420000D03*
X86580000Y-74420000D03*
X86580000Y-73580000D03*
X81420000Y-79580000D03*
X81420000Y-80420000D03*
X80580000Y-80420000D03*
X80580000Y-79580000D03*
X55420000Y-91580000D03*
X55420000Y-92420000D03*
X54580000Y-92420000D03*
X54580000Y-91580000D03*
X75420000Y-65580000D03*
X75420000Y-66420000D03*
X74580000Y-66420000D03*
X74580000Y-65580000D03*
X67420000Y-35580000D03*
X67420000Y-36420000D03*
X66580000Y-36420000D03*
X66580000Y-35580000D03*
X87420000Y-59580000D03*
X87420000Y-60420000D03*
X86580000Y-60420000D03*
X86580000Y-59580000D03*
X87420000Y-83580000D03*
X87420000Y-84420000D03*
X86580000Y-84420000D03*
X86580000Y-83580000D03*
X117420000Y-73580000D03*
X117420000Y-74420000D03*
X116580000Y-74420000D03*
X116580000Y-73580000D03*
X127420000Y-49580000D03*
X127420000Y-50420000D03*
X126580000Y-50420000D03*
X126580000Y-49580000D03*
X83420000Y-89580000D03*
X83420000Y-90420000D03*
X82580000Y-90420000D03*
X82580000Y-89580000D03*
X63420000Y-45580000D03*
X63420000Y-46420000D03*
X62580000Y-46420000D03*
X62580000Y-45580000D03*
X117420000Y-31580000D03*
X117420000Y-32420000D03*
X116580000Y-32420000D03*
X116580000Y-31580000D03*
X121420000Y-19580000D03*
X121420000Y-20420000D03*
X120580000Y-20420000D03*
X120580000Y-19580000D03*
X119420000Y-49580000D03*
X119420000Y-50420000D03*
X118580000Y-50420000D03*
X118580000Y-49580000D03*
X149420000Y-49580000D03*
X149420000Y-50420000D03*
X148580000Y-50420000D03*
X148580000Y-49580000D03*
X83420000Y-75580000D03*
X83420000Y-76420000D03*
X82580000Y-76420000D03*
X82580000Y-75580000D03*
X45420000Y-93580000D03*
X45420000Y-94420000D03*
X44580000Y-94420000D03*
X44580000Y-93580000D03*
X51420000Y-73580000D03*
X51420000Y-74420000D03*
X50580000Y-74420000D03*
X50580000Y-73580000D03*
X117420000Y-65580000D03*
X117420000Y-66420000D03*
X116580000Y-66420000D03*
X116580000Y-65580000D03*
X113420000Y-19580000D03*
X113420000Y-20420000D03*
X112580000Y-20420000D03*
X112580000Y-19580000D03*
X127420000Y-65580000D03*
X127420000Y-66420000D03*
X126580000Y-66420000D03*
X126580000Y-65580000D03*
X107420000Y-23580000D03*
X107420000Y-24420000D03*
X106580000Y-24420000D03*
X106580000Y-23580000D03*
X101420000Y-87580000D03*
X101420000Y-88420000D03*
X100580000Y-88420000D03*
X100580000Y-87580000D03*
X57420000Y-27580000D03*
X57420000Y-28420000D03*
X56580000Y-28420000D03*
X56580000Y-27580000D03*
X95420000Y-63580000D03*
X95420000Y-64420000D03*
X94580000Y-64420000D03*
X94580000Y-63580000D03*
X75420000Y-75580000D03*
X75420000Y-76420000D03*
X74580000Y-76420000D03*
X74580000Y-75580000D03*
X67420000Y-43580000D03*
X67420000Y-44420000D03*
X66580000Y-44420000D03*
X66580000Y-43580000D03*
X127420000Y-43580000D03*
X127420000Y-44420000D03*
X126580000Y-44420000D03*
X126580000Y-43580000D03*
X53420000Y-27580000D03*
X53420000Y-28420000D03*
X52580000Y-28420000D03*
X52580000Y-27580000D03*
X137420000Y-91580000D03*
X137420000Y-92420000D03*
X136580000Y-92420000D03*
X136580000Y-91580000D03*
X151420000Y-27580000D03*
X151420000Y-28420000D03*
X150580000Y-28420000D03*
X150580000Y-27580000D03*
X71420000Y-39580000D03*
X71420000Y-40420000D03*
X70580000Y-40420000D03*
X70580000Y-39580000D03*
X87420000Y-75580000D03*
X87420000Y-76420000D03*
X86580000Y-76420000D03*
X86580000Y-75580000D03*
X75420000Y-19580000D03*
X75420000Y-20420000D03*
X74580000Y-20420000D03*
X74580000Y-19580000D03*
X101420000Y-73580000D03*
X101420000Y-74420000D03*
X100580000Y-74420000D03*
X100580000Y-73580000D03*
X137420000Y-43580000D03*
X137420000Y-44420000D03*
X136580000Y-44420000D03*
X136580000Y-43580000D03*
X111420000Y-81580000D03*
X111420000Y-82420000D03*
X110580000Y-82420000D03*
X110580000Y-81580000D03*
X101420000Y-85580000D03*
X101420000Y-86420000D03*
X100580000Y-86420000D03*
X100580000Y-85580000D03*
X131420000Y-95580000D03*
X131420000Y-96420000D03*
X130580000Y-96420000D03*
X130580000Y-95580000D03*
X55420000Y-29580000D03*
X55420000Y-30420000D03*
X54580000Y-30420000D03*
X54580000Y-29580000D03*
X109420000Y-85580000D03*
X109420000Y-86420000D03*
X108580000Y-86420000D03*
X108580000Y-85580000D03*
X151420000Y-73580000D03*
X151420000Y-74420000D03*
X150580000Y-74420000D03*
X150580000Y-73580000D03*
X105420000Y-33580000D03*
X105420000Y-34420000D03*
X104580000Y-34420000D03*
X104580000Y-33580000D03*
X103420000Y-39580000D03*
X103420000Y-40420000D03*
X102580000Y-40420000D03*
X102580000Y-39580000D03*
X135420000Y-91580000D03*
X135420000Y-92420000D03*
X134580000Y-92420000D03*
X134580000Y-91580000D03*
X59420000Y-53580000D03*
X59420000Y-54420000D03*
X58580000Y-54420000D03*
X58580000Y-53580000D03*
X81420000Y-61580000D03*
X81420000Y-62420000D03*
X80580000Y-62420000D03*
X80580000Y-61580000D03*
X59420000Y-31580000D03*
X59420000Y-32420000D03*
X58580000Y-32420000D03*
X58580000Y-31580000D03*
X137420000Y-89580000D03*
X137420000Y-90420000D03*
X136580000Y-90420000D03*
X136580000Y-89580000D03*
X93420000Y-29580000D03*
X93420000Y-30420000D03*
X92580000Y-30420000D03*
X92580000Y-29580000D03*
X65420000Y-71580000D03*
X65420000Y-72420000D03*
X64580000Y-72420000D03*
X64580000Y-71580000D03*
X83420000Y-47580000D03*
X83420000Y-48420000D03*
X82580000Y-48420000D03*
X82580000Y-47580000D03*
X147420000Y-95580000D03*
X147420000Y-96420000D03*
X146580000Y-96420000D03*
X146580000Y-95580000D03*
X129420000Y-87580000D03*
X129420000Y-88420000D03*
X128580000Y-88420000D03*
X128580000Y-87580000D03*
X133420000Y-83580000D03*
X133420000Y-84420000D03*
X132580000Y-84420000D03*
X132580000Y-83580000D03*
X67420000Y-29580000D03*
X67420000Y-30420000D03*
X66580000Y-30420000D03*
X66580000Y-29580000D03*
X65420000Y-43580000D03*
X65420000Y-44420000D03*
X64580000Y-44420000D03*
X64580000Y-43580000D03*
X127420000Y-69580000D03*
X127420000Y-70420000D03*
X126580000Y-70420000D03*
X126580000Y-69580000D03*
X109420000Y-55580000D03*
X109420000Y-56420000D03*
X108580000Y-56420000D03*
X108580000Y-55580000D03*
X91420000Y-83580000D03*
X91420000Y-84420000D03*
X90580000Y-84420000D03*
X90580000Y-83580000D03*
X119420000Y-51580000D03*
X119420000Y-52420000D03*
X118580000Y-52420000D03*
X118580000Y-51580000D03*
X119420000Y-65580000D03*
X119420000Y-66420000D03*
X118580000Y-66420000D03*
X118580000Y-65580000D03*
X77420000Y-41580000D03*
X77420000Y-42420000D03*
X76580000Y-42420000D03*
X76580000Y-41580000D03*
X47420000Y-61580000D03*
X47420000Y-62420000D03*
X46580000Y-62420000D03*
X46580000Y-61580000D03*
X145420000Y-69580000D03*
X145420000Y-70420000D03*
X144580000Y-70420000D03*
X144580000Y-69580000D03*
X103420000Y-45580000D03*
X103420000Y-46420000D03*
X102580000Y-46420000D03*
X102580000Y-45580000D03*
X103420000Y-43580000D03*
X103420000Y-44420000D03*
X102580000Y-44420000D03*
X102580000Y-43580000D03*
X147420000Y-31580000D03*
X147420000Y-32420000D03*
X146580000Y-32420000D03*
X146580000Y-31580000D03*
X79420000Y-61580000D03*
X79420000Y-62420000D03*
X78580000Y-62420000D03*
X78580000Y-61580000D03*
X75420000Y-33580000D03*
X75420000Y-34420000D03*
X74580000Y-34420000D03*
X74580000Y-33580000D03*
X67420000Y-75580000D03*
X67420000Y-76420000D03*
X66580000Y-76420000D03*
X66580000Y-75580000D03*
X109420000Y-35580000D03*
X109420000Y-36420000D03*
X108580000Y-36420000D03*
X108580000Y-35580000D03*
X71420000Y-43580000D03*
X71420000Y-44420000D03*
X70580000Y-44420000D03*
X70580000Y-43580000D03*
X121420000Y-81580000D03*
X121420000Y-82420000D03*
X120580000Y-82420000D03*
X120580000Y-81580000D03*
X73420000Y-63580000D03*
X73420000Y-64420000D03*
X72580000Y-64420000D03*
X72580000Y-63580000D03*
X127420000Y-59580000D03*
X127420000Y-60420000D03*
X126580000Y-60420000D03*
X126580000Y-59580000D03*
X101420000Y-23580000D03*
X101420000Y-24420000D03*
X100580000Y-24420000D03*
X100580000Y-23580000D03*
X49420000Y-59580000D03*
X49420000Y-60420000D03*
X48580000Y-60420000D03*
X48580000Y-59580000D03*
X51420000Y-79580000D03*
X51420000Y-80420000D03*
X50580000Y-80420000D03*
X50580000Y-79580000D03*
X121420000Y-53580000D03*
X121420000Y-54420000D03*
X120580000Y-54420000D03*
X120580000Y-53580000D03*
X143420000Y-21580000D03*
X143420000Y-22420000D03*
X142580000Y-22420000D03*
X142580000Y-21580000D03*
X133420000Y-79580000D03*
X133420000Y-80420000D03*
X132580000Y-80420000D03*
X132580000Y-79580000D03*
X131420000Y-47580000D03*
X131420000Y-48420000D03*
X130580000Y-48420000D03*
X130580000Y-47580000D03*
X137420000Y-93580000D03*
X137420000Y-94420000D03*
X136580000Y-94420000D03*
X136580000Y-93580000D03*
X105420000Y-81580000D03*
X105420000Y-82420000D03*
X104580000Y-82420000D03*
X104580000Y-81580000D03*
X65420000Y-29580000D03*
X65420000Y-30420000D03*
X64580000Y-30420000D03*
X64580000Y-29580000D03*
X133420000Y-69580000D03*
X133420000Y-70420000D03*
X132580000Y-70420000D03*
X132580000Y-69580000D03*
X149420000Y-55580000D03*
X149420000Y-56420000D03*
X148580000Y-56420000D03*
X148580000Y-55580000D03*
X81420000Y-41580000D03*
X81420000Y-42420000D03*
X80580000Y-42420000D03*
X80580000Y-41580000D03*
X141420000Y-69580000D03*
X141420000Y-70420000D03*
X140580000Y-70420000D03*
X140580000Y-69580000D03*
X133420000Y-71580000D03*
X133420000Y-72420000D03*
X132580000Y-72420000D03*
X132580000Y-71580000D03*
X87420000Y-25580000D03*
X87420000Y-26420000D03*
X86580000Y-26420000D03*
X86580000Y-25580000D03*
X135420000Y-79580000D03*
X135420000Y-80420000D03*
X134580000Y-80420000D03*
X134580000Y-79580000D03*
X143420000Y-65580000D03*
X143420000Y-66420000D03*
X142580000Y-66420000D03*
X142580000Y-65580000D03*
X63420000Y-85580000D03*
X63420000Y-86420000D03*
X62580000Y-86420000D03*
X62580000Y-85580000D03*
X81420000Y-53580000D03*
X81420000Y-54420000D03*
X80580000Y-54420000D03*
X80580000Y-53580000D03*
X81420000Y-83580000D03*
X81420000Y-84420000D03*
X80580000Y-84420000D03*
X80580000Y-83580000D03*
X43420000Y-87580000D03*
X43420000Y-88420000D03*
X42580000Y-88420000D03*
X42580000Y-87580000D03*
X129420000Y-63580000D03*
X129420000Y-64420000D03*
X128580000Y-64420000D03*
X128580000Y-63580000D03*
X113420000Y-31580000D03*
X113420000Y-32420000D03*
X112580000Y-32420000D03*
X112580000Y-31580000D03*
X143420000Y-59580000D03*
X143420000Y-60420000D03*
X142580000Y-60420000D03*
X142580000Y-59580000D03*
X99420000Y-71580000D03*
X99420000Y-72420000D03*
X98580000Y-72420000D03*
X98580000Y-71580000D03*
X45420000Y-53580000D03*
X45420000Y-54420000D03*
X44580000Y-54420000D03*
X44580000Y-53580000D03*
X91420000Y-93580000D03*
X91420000Y-94420000D03*
X90580000Y-94420000D03*
X90580000Y-93580000D03*
X77420000Y-63580000D03*
X77420000Y-64420000D03*
X76580000Y-64420000D03*
X76580000Y-63580000D03*
X43420000Y-39580000D03*
X43420000Y-40420000D03*
X42580000Y-40420000D03*
X42580000Y-39580000D03*
X95420000Y-25580000D03*
X95420000Y-26420000D03*
X94580000Y-26420000D03*
X94580000Y-25580000D03*
X55420000Y-23580000D03*
X55420000Y-24420000D03*
X54580000Y-24420000D03*
X54580000Y-23580000D03*
X51420000Y-43580000D03*
X51420000Y-44420000D03*
X50580000Y-44420000D03*
X50580000Y-43580000D03*
X85420000Y-67580000D03*
X85420000Y-68420000D03*
X84580000Y-68420000D03*
X84580000Y-67580000D03*
X63420000Y-23580000D03*
X63420000Y-24420000D03*
X62580000Y-24420000D03*
X62580000Y-23580000D03*
X65420000Y-67580000D03*
X65420000Y-68420000D03*
X64580000Y-68420000D03*
X64580000Y-67580000D03*
X57420000Y-49580000D03*
X57420000Y-50420000D03*
X56580000Y-50420000D03*
X56580000Y-49580000D03*
X101420000Y-83580000D03*
X101420000Y-84420000D03*
X100580000Y-84420000D03*
X100580000Y-83580000D03*
X59420000Y-23580000D03*
X59420000Y-24420000D03*
X58580000Y-24420000D03*
X58580000Y-23580000D03*
X43420000Y-63580000D03*
X43420000Y-64420000D03*
X42580000Y-64420000D03*
X42580000Y-63580000D03*
X55420000Y-85580000D03*
X55420000Y-86420000D03*
X54580000Y-86420000D03*
X54580000Y-85580000D03*
X135420000Y-41580000D03*
X135420000Y-42420000D03*
X134580000Y-42420000D03*
X134580000Y-41580000D03*
X61420000Y-73580000D03*
X61420000Y-74420000D03*
X60580000Y-74420000D03*
X60580000Y-73580000D03*
X115420000Y-47580000D03*
X115420000Y-48420000D03*
X114580000Y-48420000D03*
X114580000Y-47580000D03*
X109420000Y-21580000D03*
X109420000Y-22420000D03*
X108580000Y-22420000D03*
X108580000Y-21580000D03*
X139420000Y-93580000D03*
X139420000Y-94420000D03*
X138580000Y-94420000D03*
X138580000Y-93580000D03*
X59420000Y-81580000D03*
X59420000Y-82420000D03*
X58580000Y-82420000D03*
X58580000Y-81580000D03*
X67420000Y-21580000D03*
X67420000Y-22420000D03*
X66580000Y-22420000D03*
X66580000Y-21580000D03*
X93420000Y-87580000D03*
X93420000Y-88420000D03*
X92580000Y-88420000D03*
X92580000Y-87580000D03*
X123420000Y-29580000D03*
X123420000Y-30420000D03*
X122580000Y-30420000D03*
X122580000Y-29580000D03*
X59420000Y-71580000D03*
X59420000Y-72420000D03*
X58580000Y-72420000D03*
X58580000Y-71580000D03*
X135420000Y-73580000D03*
X135420000Y-74420000D03*
X134580000Y-74420000D03*
X134580000Y-73580000D03*
X45420000Y-31580000D03*
X45420000Y-32420000D03*
X44580000Y-32420000D03*
X44580000Y-31580000D03*
X121420000Y-49580000D03*
X121420000Y-50420000D03*
X120580000Y-50420000D03*
X120580000Y-49580000D03*
X103420000Y-87580000D03*
X103420000Y-88420000D03*
X102580000Y-88420000D03*
X102580000Y-87580000D03*
X79420000Y-33580000D03*
X79420000Y-34420000D03*
X78580000Y-34420000D03*
X78580000Y-33580000D03*
X91420000Y-43580000D03*
X91420000Y-44420000D03*
X90580000Y-44420000D03*
X90580000Y-43580000D03*
X103420000Y-71580000D03*
X103420000Y-72420000D03*
X102580000Y-72420000D03*
X102580000Y-71580000D03*
X111420000Y-83580000D03*
X111420000Y-84420000D03*
X110580000Y-84420000D03*
X110580000Y-83580000D03*
X81420000Y-67580000D03*
X81420000Y-68420000D03*
X80580000Y-68420000D03*
X80580000Y-67580000D03*
X141420000Y-81580000D03*
X141420000Y-82420000D03*
X140580000Y-82420000D03*
X140580000Y-81580000D03*
X51420000Y-93580000D03*
X51420000Y-94420000D03*
X50580000Y-94420000D03*
X50580000Y-93580000D03*
X47420000Y-85580000D03*
X47420000Y-86420000D03*
X46580000Y-86420000D03*
X46580000Y-85580000D03*
X75420000Y-39580000D03*
X75420000Y-40420000D03*
X74580000Y-40420000D03*
X74580000Y-39580000D03*
X123420000Y-55580000D03*
X123420000Y-56420000D03*
X122580000Y-56420000D03*
X122580000Y-55580000D03*
X109420000Y-87580000D03*
X109420000Y-88420000D03*
X108580000Y-88420000D03*
X108580000Y-87580000D03*
X75420000Y-89580000D03*
X75420000Y-90420000D03*
X74580000Y-90420000D03*
X74580000Y-89580000D03*
X67420000Y-59580000D03*
X67420000Y-60420000D03*
X66580000Y-60420000D03*
X66580000Y-59580000D03*
X83420000Y-83580000D03*
X83420000Y-84420000D03*
X82580000Y-84420000D03*
X82580000Y-83580000D03*
X63420000Y-21580000D03*
X63420000Y-22420000D03*
X62580000Y-22420000D03*
X62580000Y-21580000D03*
X137420000Y-63580000D03*
X137420000Y-64420000D03*
X136580000Y-64420000D03*
X136580000Y-63580000D03*
X79420000Y-53580000D03*
X79420000Y-54420000D03*
X78580000Y-54420000D03*
X78580000Y-53580000D03*
X53420000Y-85580000D03*
X53420000Y-86420000D03*
X52580000Y-86420000D03*
X52580000Y-85580000D03*
X147420000Y-43580000D03*
X147420000Y-44420000D03*
X146580000Y-44420000D03*
X146580000Y-43580000D03*
X143420000Y-49580000D03*
X143420000Y-50420000D03*
X142580000Y-50420000D03*
X142580000Y-49580000D03*
X87420000Y-55580000D03*
X87420000Y-56420000D03*
X86580000Y-56420000D03*
X86580000Y-55580000D03*
X73420000Y-29580000D03*
X73420000Y-30420000D03*
X72580000Y-30420000D03*
X72580000Y-29580000D03*
X131420000Y-31580000D03*
X131420000Y-32420000D03*
X130580000Y-32420000D03*
X130580000Y-31580000D03*
X83420000Y-55580000D03*
X83420000Y-56420000D03*
X82580000Y-56420000D03*
X82580000Y-55580000D03*
X43420000Y-79580000D03*
X43420000Y-80420000D03*
X42580000Y-80420000D03*
X42580000Y-79580000D03*
X61420000Y-23580000D03*
X61420000Y-24420000D03*
X60580000Y-24420000D03*
X60580000Y-23580000D03*
X89420000Y-23580000D03*
X89420000Y-24420000D03*
X88580000Y-24420000D03*
X88580000Y-23580000D03*
X149420000Y-79580000D03*
X149420000Y-80420000D03*
X148580000Y-80420000D03*
X148580000Y-79580000D03*
X127420000Y-41580000D03*
X127420000Y-42420000D03*
X126580000Y-42420000D03*
X126580000Y-41580000D03*
X51420000Y-59580000D03*
X51420000Y-60420000D03*
X50580000Y-60420000D03*
X50580000Y-59580000D03*
X63420000Y-27580000D03*
X63420000Y-28420000D03*
X62580000Y-28420000D03*
X62580000Y-27580000D03*
X143420000Y-71580000D03*
X143420000Y-72420000D03*
X142580000Y-72420000D03*
X142580000Y-71580000D03*
X87420000Y-47580000D03*
X87420000Y-48420000D03*
X86580000Y-48420000D03*
X86580000Y-47580000D03*
X59420000Y-59580000D03*
X59420000Y-60420000D03*
X58580000Y-60420000D03*
X58580000Y-59580000D03*
X109420000Y-27580000D03*
X109420000Y-28420000D03*
X108580000Y-28420000D03*
X108580000Y-27580000D03*
X121420000Y-59580000D03*
X121420000Y-60420000D03*
X120580000Y-60420000D03*
X120580000Y-59580000D03*
X53420000Y-31580000D03*
X53420000Y-32420000D03*
X52580000Y-32420000D03*
X52580000Y-31580000D03*
X101420000Y-67580000D03*
X101420000Y-68420000D03*
X100580000Y-68420000D03*
X100580000Y-67580000D03*
X71420000Y-87580000D03*
X71420000Y-88420000D03*
X70580000Y-88420000D03*
X70580000Y-87580000D03*
X143420000Y-93580000D03*
X143420000Y-94420000D03*
X142580000Y-94420000D03*
X142580000Y-93580000D03*
X139420000Y-89580000D03*
X139420000Y-90420000D03*
X138580000Y-90420000D03*
X138580000Y-89580000D03*
X131420000Y-69580000D03*
X131420000Y-70420000D03*
X130580000Y-70420000D03*
X130580000Y-69580000D03*
X137420000Y-25580000D03*
X137420000Y-26420000D03*
X136580000Y-26420000D03*
X136580000Y-25580000D03*
X99420000Y-87580000D03*
X99420000Y-88420000D03*
X98580000Y-88420000D03*
X98580000Y-87580000D03*
X123420000Y-71580000D03*
X123420000Y-72420000D03*
X122580000Y-72420000D03*
X122580000Y-71580000D03*
X143420000Y-95580000D03*
X143420000Y-96420000D03*
X142580000Y-96420000D03*
X142580000Y-95580000D03*
X123420000Y-23580000D03*
X123420000Y-24420000D03*
X122580000Y-24420000D03*
X122580000Y-23580000D03*
X43420000Y-21580000D03*
X43420000Y-22420000D03*
X42580000Y-22420000D03*
X42580000Y-21580000D03*
X83420000Y-53580000D03*
X83420000Y-54420000D03*
X82580000Y-54420000D03*
X82580000Y-53580000D03*
X143420000Y-79580000D03*
X143420000Y-80420000D03*
X142580000Y-80420000D03*
X142580000Y-79580000D03*
X143420000Y-31580000D03*
X143420000Y-32420000D03*
X142580000Y-32420000D03*
X142580000Y-31580000D03*
X99420000Y-81580000D03*
X99420000Y-82420000D03*
X98580000Y-82420000D03*
X98580000Y-81580000D03*
X93420000Y-91580000D03*
X93420000Y-92420000D03*
X92580000Y-92420000D03*
X92580000Y-91580000D03*
X55420000Y-45580000D03*
X55420000Y-46420000D03*
X54580000Y-46420000D03*
X54580000Y-45580000D03*
X133420000Y-61580000D03*
X133420000Y-62420000D03*
X132580000Y-62420000D03*
X132580000Y-61580000D03*
X49420000Y-63580000D03*
X49420000Y-64420000D03*
X48580000Y-64420000D03*
X48580000Y-63580000D03*
X147420000Y-71580000D03*
X147420000Y-72420000D03*
X146580000Y-72420000D03*
X146580000Y-71580000D03*
X71420000Y-51580000D03*
X71420000Y-52420000D03*
X70580000Y-52420000D03*
X70580000Y-51580000D03*
X79420000Y-27580000D03*
X79420000Y-28420000D03*
X78580000Y-28420000D03*
X78580000Y-27580000D03*
X89420000Y-83580000D03*
X89420000Y-84420000D03*
X88580000Y-84420000D03*
X88580000Y-83580000D03*
X85420000Y-29580000D03*
X85420000Y-30420000D03*
X84580000Y-30420000D03*
X84580000Y-29580000D03*
X57420000Y-71580000D03*
X57420000Y-72420000D03*
X56580000Y-72420000D03*
X56580000Y-71580000D03*
X133420000Y-85580000D03*
X133420000Y-86420000D03*
X132580000Y-86420000D03*
X132580000Y-85580000D03*
X83420000Y-25580000D03*
X83420000Y-26420000D03*
X82580000Y-26420000D03*
X82580000Y-25580000D03*
X51420000Y-29580000D03*
X51420000Y-30420000D03*
X50580000Y-30420000D03*
X50580000Y-29580000D03*
X75420000Y-51580000D03*
X75420000Y-52420000D03*
X74580000Y-52420000D03*
X74580000Y-51580000D03*
X87420000Y-85580000D03*
X87420000Y-86420000D03*
X86580000Y-86420000D03*
X86580000Y-85580000D03*
X95420000Y-85580000D03*
X95420000Y-86420000D03*
X94580000Y-86420000D03*
X94580000Y-85580000D03*
X131420000Y-53580000D03*
X131420000Y-54420000D03*
X130580000Y-54420000D03*
X130580000Y-53580000D03*
X95420000Y-19580000D03*
X95420000Y-20420000D03*
X94580000Y-20420000D03*
X94580000Y-19580000D03*
X93420000Y-27580000D03*
X93420000Y-28420000D03*
X92580000Y-28420000D03*
X92580000Y-27580000D03*
X129420000Y-29580000D03*
X129420000Y-30420000D03*
X128580000Y-30420000D03*
X128580000Y-29580000D03*
X83420000Y-79580000D03*
X83420000Y-80420000D03*
X82580000Y-80420000D03*
X82580000Y-79580000D03*
X79420000Y-95580000D03*
X79420000Y-96420000D03*
X78580000Y-96420000D03*
X78580000Y-95580000D03*
X53420000Y-93580000D03*
X53420000Y-94420000D03*
X52580000Y-94420000D03*
X52580000Y-93580000D03*
X57420000Y-75580000D03*
X57420000Y-76420000D03*
X56580000Y-76420000D03*
X56580000Y-75580000D03*
X135420000Y-43580000D03*
X135420000Y-44420000D03*
X134580000Y-44420000D03*
X134580000Y-43580000D03*
X137420000Y-29580000D03*
X137420000Y-30420000D03*
X136580000Y-30420000D03*
X136580000Y-29580000D03*
X43420000Y-33580000D03*
X43420000Y-34420000D03*
X42580000Y-34420000D03*
X42580000Y-33580000D03*
X87420000Y-81580000D03*
X87420000Y-82420000D03*
X86580000Y-82420000D03*
X86580000Y-81580000D03*
X145420000Y-53580000D03*
X145420000Y-54420000D03*
X144580000Y-54420000D03*
X144580000Y-53580000D03*
X121420000Y-91580000D03*
X121420000Y-92420000D03*
X120580000Y-92420000D03*
X120580000Y-91580000D03*
X151420000Y-39580000D03*
X151420000Y-40420000D03*
X150580000Y-40420000D03*
X150580000Y-39580000D03*
X49420000Y-61580000D03*
X49420000Y-62420000D03*
X48580000Y-62420000D03*
X48580000Y-61580000D03*
X47420000Y-21580000D03*
X47420000Y-22420000D03*
X46580000Y-22420000D03*
X46580000Y-21580000D03*
X121420000Y-69580000D03*
X121420000Y-70420000D03*
X120580000Y-70420000D03*
X120580000Y-69580000D03*
X145420000Y-65580000D03*
X145420000Y-66420000D03*
X144580000Y-66420000D03*
X144580000Y-65580000D03*
X67420000Y-41580000D03*
X67420000Y-42420000D03*
X66580000Y-42420000D03*
X66580000Y-41580000D03*
X119420000Y-89580000D03*
X119420000Y-90420000D03*
X118580000Y-90420000D03*
X118580000Y-89580000D03*
X119420000Y-45580000D03*
X119420000Y-46420000D03*
X118580000Y-46420000D03*
X118580000Y-45580000D03*
X93420000Y-23580000D03*
X93420000Y-24420000D03*
X92580000Y-24420000D03*
X92580000Y-23580000D03*
X147420000Y-27580000D03*
X147420000Y-28420000D03*
X146580000Y-28420000D03*
X146580000Y-27580000D03*
X145420000Y-25580000D03*
X145420000Y-26420000D03*
X144580000Y-26420000D03*
X144580000Y-25580000D03*
X137420000Y-33580000D03*
X137420000Y-34420000D03*
X136580000Y-34420000D03*
X136580000Y-33580000D03*
X43420000Y-45580000D03*
X43420000Y-46420000D03*
X42580000Y-46420000D03*
X42580000Y-45580000D03*
X43420000Y-43580000D03*
X43420000Y-44420000D03*
X42580000Y-44420000D03*
X42580000Y-43580000D03*
X57420000Y-31580000D03*
X57420000Y-32420000D03*
X56580000Y-32420000D03*
X56580000Y-31580000D03*
X43420000Y-65580000D03*
X43420000Y-66420000D03*
X42580000Y-66420000D03*
X42580000Y-65580000D03*
X117420000Y-87580000D03*
X117420000Y-88420000D03*
X116580000Y-88420000D03*
X116580000Y-87580000D03*
X77420000Y-85580000D03*
X77420000Y-86420000D03*
X76580000Y-86420000D03*
X76580000Y-85580000D03*
X123420000Y-95580000D03*
X123420000Y-96420000D03*
X122580000Y-96420000D03*
X122580000Y-95580000D03*
X151420000Y-85580000D03*
X151420000Y-86420000D03*
X150580000Y-86420000D03*
X150580000Y-85580000D03*
X53420000Y-49580000D03*
X53420000Y-50420000D03*
X52580000Y-50420000D03*
X52580000Y-49580000D03*
X85420000Y-19580000D03*
X85420000Y-20420000D03*
X84580000Y-20420000D03*
X84580000Y-19580000D03*
X75420000Y-81580000D03*
X75420000Y-82420000D03*
X74580000Y-82420000D03*
X74580000Y-81580000D03*
X115420000Y-29580000D03*
X115420000Y-30420000D03*
X114580000Y-30420000D03*
X114580000Y-29580000D03*
X121420000Y-83580000D03*
X121420000Y-84420000D03*
X120580000Y-84420000D03*
X120580000Y-83580000D03*
X139420000Y-33580000D03*
X139420000Y-34420000D03*
X138580000Y-34420000D03*
X138580000Y-33580000D03*
X141420000Y-83580000D03*
X141420000Y-84420000D03*
X140580000Y-84420000D03*
X140580000Y-83580000D03*
X67420000Y-69580000D03*
X67420000Y-70420000D03*
X66580000Y-70420000D03*
X66580000Y-69580000D03*
X113420000Y-67580000D03*
X113420000Y-68420000D03*
X112580000Y-68420000D03*
X112580000Y-67580000D03*
X43420000Y-89580000D03*
X43420000Y-90420000D03*
X42580000Y-90420000D03*
X42580000Y-89580000D03*
X91420000Y-59580000D03*
X91420000Y-60420000D03*
X90580000Y-60420000D03*
X90580000Y-59580000D03*
X107420000Y-31580000D03*
X107420000Y-32420000D03*
X106580000Y-32420000D03*
X106580000Y-31580000D03*
X53420000Y-75580000D03*
X53420000Y-76420000D03*
X52580000Y-76420000D03*
X52580000Y-75580000D03*
X71420000Y-81580000D03*
X71420000Y-82420000D03*
X70580000Y-82420000D03*
X70580000Y-81580000D03*
X135420000Y-69580000D03*
X135420000Y-70420000D03*
X134580000Y-70420000D03*
X134580000Y-69580000D03*
X147420000Y-65580000D03*
X147420000Y-66420000D03*
X146580000Y-66420000D03*
X146580000Y-65580000D03*
X143420000Y-69580000D03*
X143420000Y-70420000D03*
X142580000Y-70420000D03*
X142580000Y-69580000D03*
X127420000Y-27580000D03*
X127420000Y-28420000D03*
X126580000Y-28420000D03*
X126580000Y-27580000D03*
X45420000Y-87580000D03*
X45420000Y-88420000D03*
X44580000Y-88420000D03*
X44580000Y-87580000D03*
X85420000Y-81580000D03*
X85420000Y-82420000D03*
X84580000Y-82420000D03*
X84580000Y-81580000D03*
X47420000Y-71580000D03*
X47420000Y-72420000D03*
X46580000Y-72420000D03*
X46580000Y-71580000D03*
X99420000Y-33580000D03*
X99420000Y-34420000D03*
X98580000Y-34420000D03*
X98580000Y-33580000D03*
X119420000Y-21580000D03*
X119420000Y-22420000D03*
X118580000Y-22420000D03*
X118580000Y-21580000D03*
X143420000Y-83580000D03*
X143420000Y-84420000D03*
X142580000Y-84420000D03*
X142580000Y-83580000D03*
X107420000Y-95580000D03*
X107420000Y-96420000D03*
X106580000Y-96420000D03*
X106580000Y-95580000D03*
X105420000Y-89580000D03*
X105420000Y-90420000D03*
X104580000Y-90420000D03*
X104580000Y-89580000D03*
X131420000Y-51580000D03*
X131420000Y-52420000D03*
X130580000Y-52420000D03*
X130580000Y-51580000D03*
X129420000Y-79580000D03*
X129420000Y-80420000D03*
X128580000Y-80420000D03*
X128580000Y-79580000D03*
X61420000Y-29580000D03*
X61420000Y-30420000D03*
X60580000Y-30420000D03*
X60580000Y-29580000D03*
X93420000Y-71580000D03*
X93420000Y-72420000D03*
X92580000Y-72420000D03*
X92580000Y-71580000D03*
X63420000Y-87580000D03*
X63420000Y-88420000D03*
X62580000Y-88420000D03*
X62580000Y-87580000D03*
X91420000Y-45580000D03*
X91420000Y-46420000D03*
X90580000Y-46420000D03*
X90580000Y-45580000D03*
X117420000Y-51580000D03*
X117420000Y-52420000D03*
X116580000Y-52420000D03*
X116580000Y-51580000D03*
X151420000Y-25580000D03*
X151420000Y-26420000D03*
X150580000Y-26420000D03*
X150580000Y-25580000D03*
X47420000Y-39580000D03*
X47420000Y-40420000D03*
X46580000Y-40420000D03*
X46580000Y-39580000D03*
X73420000Y-69580000D03*
X73420000Y-70420000D03*
X72580000Y-70420000D03*
X72580000Y-69580000D03*
X121420000Y-25580000D03*
X121420000Y-26420000D03*
X120580000Y-26420000D03*
X120580000Y-25580000D03*
X57420000Y-29580000D03*
X57420000Y-30420000D03*
X56580000Y-30420000D03*
X56580000Y-29580000D03*
X51420000Y-23580000D03*
X51420000Y-24420000D03*
X50580000Y-24420000D03*
X50580000Y-23580000D03*
X85420000Y-91580000D03*
X85420000Y-92420000D03*
X84580000Y-92420000D03*
X84580000Y-91580000D03*
X145420000Y-29580000D03*
X145420000Y-30420000D03*
X144580000Y-30420000D03*
X144580000Y-29580000D03*
X113420000Y-25580000D03*
X113420000Y-26420000D03*
X112580000Y-26420000D03*
X112580000Y-25580000D03*
X151420000Y-53580000D03*
X151420000Y-54420000D03*
X150580000Y-54420000D03*
X150580000Y-53580000D03*
X67420000Y-71580000D03*
X67420000Y-72420000D03*
X66580000Y-72420000D03*
X66580000Y-71580000D03*
X107420000Y-21580000D03*
X107420000Y-22420000D03*
X106580000Y-22420000D03*
X106580000Y-21580000D03*
X91420000Y-79580000D03*
X91420000Y-80420000D03*
X90580000Y-80420000D03*
X90580000Y-79580000D03*
X71420000Y-79580000D03*
X71420000Y-80420000D03*
X70580000Y-80420000D03*
X70580000Y-79580000D03*
X61420000Y-53580000D03*
X61420000Y-54420000D03*
X60580000Y-54420000D03*
X60580000Y-53580000D03*
X85420000Y-95580000D03*
X85420000Y-96420000D03*
X84580000Y-96420000D03*
X84580000Y-95580000D03*
X81420000Y-45580000D03*
X81420000Y-46420000D03*
X80580000Y-46420000D03*
X80580000Y-45580000D03*
X47420000Y-31580000D03*
X47420000Y-32420000D03*
X46580000Y-32420000D03*
X46580000Y-31580000D03*
X55420000Y-81580000D03*
X55420000Y-82420000D03*
X54580000Y-82420000D03*
X54580000Y-81580000D03*
X81420000Y-47580000D03*
X81420000Y-48420000D03*
X80580000Y-48420000D03*
X80580000Y-47580000D03*
X105420000Y-25580000D03*
X105420000Y-26420000D03*
X104580000Y-26420000D03*
X104580000Y-25580000D03*
X103420000Y-33580000D03*
X103420000Y-34420000D03*
X102580000Y-34420000D03*
X102580000Y-33580000D03*
X141420000Y-45580000D03*
X141420000Y-46420000D03*
X140580000Y-46420000D03*
X140580000Y-45580000D03*
X79420000Y-41580000D03*
X79420000Y-42420000D03*
X78580000Y-42420000D03*
X78580000Y-41580000D03*
X101420000Y-75580000D03*
X101420000Y-76420000D03*
X100580000Y-76420000D03*
X100580000Y-75580000D03*
X89420000Y-45580000D03*
X89420000Y-46420000D03*
X88580000Y-46420000D03*
X88580000Y-45580000D03*
X147420000Y-39580000D03*
X147420000Y-40420000D03*
X146580000Y-40420000D03*
X146580000Y-39580000D03*
X127420000Y-61580000D03*
X127420000Y-62420000D03*
X126580000Y-62420000D03*
X126580000Y-61580000D03*
X51420000Y-91580000D03*
X51420000Y-92420000D03*
X50580000Y-92420000D03*
X50580000Y-91580000D03*
X93420000Y-19580000D03*
X93420000Y-20420000D03*
X92580000Y-20420000D03*
X92580000Y-19580000D03*
X75420000Y-23580000D03*
X75420000Y-24420000D03*
X74580000Y-24420000D03*
X74580000Y-23580000D03*
X71420000Y-89580000D03*
X71420000Y-90420000D03*
X70580000Y-90420000D03*
X70580000Y-89580000D03*
X119420000Y-43580000D03*
X119420000Y-44420000D03*
X118580000Y-44420000D03*
X118580000Y-43580000D03*
X99420000Y-75580000D03*
X99420000Y-76420000D03*
X98580000Y-76420000D03*
X98580000Y-75580000D03*
X115420000Y-95580000D03*
X115420000Y-96420000D03*
X114580000Y-96420000D03*
X114580000Y-95580000D03*
X149420000Y-47580000D03*
X149420000Y-48420000D03*
X148580000Y-48420000D03*
X148580000Y-47580000D03*
X99420000Y-53580000D03*
X99420000Y-54420000D03*
X98580000Y-54420000D03*
X98580000Y-53580000D03*
X75420000Y-21580000D03*
X75420000Y-22420000D03*
X74580000Y-22420000D03*
X74580000Y-21580000D03*
X71420000Y-67580000D03*
X71420000Y-68420000D03*
X70580000Y-68420000D03*
X70580000Y-67580000D03*
X73420000Y-47580000D03*
X73420000Y-48420000D03*
X72580000Y-48420000D03*
X72580000Y-47580000D03*
X147420000Y-81580000D03*
X147420000Y-82420000D03*
X146580000Y-82420000D03*
X146580000Y-81580000D03*
X71420000Y-95580000D03*
X71420000Y-96420000D03*
X70580000Y-96420000D03*
X70580000Y-95580000D03*
X145420000Y-67580000D03*
X145420000Y-68420000D03*
X144580000Y-68420000D03*
X144580000Y-67580000D03*
X83420000Y-35580000D03*
X83420000Y-36420000D03*
X82580000Y-36420000D03*
X82580000Y-35580000D03*
X49420000Y-51580000D03*
X49420000Y-52420000D03*
X48580000Y-52420000D03*
X48580000Y-51580000D03*
X81420000Y-31580000D03*
X81420000Y-32420000D03*
X80580000Y-32420000D03*
X80580000Y-31580000D03*
X91420000Y-51580000D03*
X91420000Y-52420000D03*
X90580000Y-52420000D03*
X90580000Y-51580000D03*
X71420000Y-41580000D03*
X71420000Y-42420000D03*
X70580000Y-42420000D03*
X70580000Y-41580000D03*
X127420000Y-79580000D03*
X127420000Y-80420000D03*
X126580000Y-80420000D03*
X126580000Y-79580000D03*
X89420000Y-55580000D03*
X89420000Y-56420000D03*
X88580000Y-56420000D03*
X88580000Y-55580000D03*
X117420000Y-43580000D03*
X117420000Y-44420000D03*
X116580000Y-44420000D03*
X116580000Y-43580000D03*
X141420000Y-67580000D03*
X141420000Y-68420000D03*
X140580000Y-68420000D03*
X140580000Y-67580000D03*
X99420000Y-59580000D03*
X99420000Y-60420000D03*
X98580000Y-60420000D03*
X98580000Y-59580000D03*
X119420000Y-83580000D03*
X119420000Y-84420000D03*
X118580000Y-84420000D03*
X118580000Y-83580000D03*
X71420000Y-29580000D03*
X71420000Y-30420000D03*
X70580000Y-30420000D03*
X70580000Y-29580000D03*
X79420000Y-69580000D03*
X79420000Y-70420000D03*
X78580000Y-70420000D03*
X78580000Y-69580000D03*
X73420000Y-81580000D03*
X73420000Y-82420000D03*
X72580000Y-82420000D03*
X72580000Y-81580000D03*
X75420000Y-93580000D03*
X75420000Y-94420000D03*
X74580000Y-94420000D03*
X74580000Y-93580000D03*
X109420000Y-23580000D03*
X109420000Y-24420000D03*
X108580000Y-24420000D03*
X108580000Y-23580000D03*
X61420000Y-69580000D03*
X61420000Y-70420000D03*
X60580000Y-70420000D03*
X60580000Y-69580000D03*
X67420000Y-33580000D03*
X67420000Y-34420000D03*
X66580000Y-34420000D03*
X66580000Y-33580000D03*
X129420000Y-61580000D03*
X129420000Y-62420000D03*
X128580000Y-62420000D03*
X128580000Y-61580000D03*
X107420000Y-75580000D03*
X107420000Y-76420000D03*
X106580000Y-76420000D03*
X106580000Y-75580000D03*
X65420000Y-85580000D03*
X65420000Y-86420000D03*
X64580000Y-86420000D03*
X64580000Y-85580000D03*
X47420000Y-43580000D03*
X47420000Y-44420000D03*
X46580000Y-44420000D03*
X46580000Y-43580000D03*
X67420000Y-55580000D03*
X67420000Y-56420000D03*
X66580000Y-56420000D03*
X66580000Y-55580000D03*
X71420000Y-61580000D03*
X71420000Y-62420000D03*
X70580000Y-62420000D03*
X70580000Y-61580000D03*
X147420000Y-59580000D03*
X147420000Y-60420000D03*
X146580000Y-60420000D03*
X146580000Y-59580000D03*
X101420000Y-69580000D03*
X101420000Y-70420000D03*
X100580000Y-70420000D03*
X100580000Y-69580000D03*
X65420000Y-55580000D03*
X65420000Y-56420000D03*
X64580000Y-56420000D03*
X64580000Y-55580000D03*
X79420000Y-25580000D03*
X79420000Y-26420000D03*
X78580000Y-26420000D03*
X78580000Y-25580000D03*
X131420000Y-83580000D03*
X131420000Y-84420000D03*
X130580000Y-84420000D03*
X130580000Y-83580000D03*
X107420000Y-61580000D03*
X107420000Y-62420000D03*
X106580000Y-62420000D03*
X106580000Y-61580000D03*
X85420000Y-69580000D03*
X85420000Y-70420000D03*
X84580000Y-70420000D03*
X84580000Y-69580000D03*
X47420000Y-45580000D03*
X47420000Y-46420000D03*
X46580000Y-46420000D03*
X46580000Y-45580000D03*
X143420000Y-89580000D03*
X143420000Y-90420000D03*
X142580000Y-90420000D03*
X142580000Y-89580000D03*
X79420000Y-75580000D03*
X79420000Y-76420000D03*
X78580000Y-76420000D03*
X78580000Y-75580000D03*
X103420000Y-19580000D03*
X103420000Y-20420000D03*
X102580000Y-20420000D03*
X102580000Y-19580000D03*
X147420000Y-67580000D03*
X147420000Y-68420000D03*
X146580000Y-68420000D03*
X146580000Y-67580000D03*
X67420000Y-31580000D03*
X67420000Y-32420000D03*
X66580000Y-32420000D03*
X66580000Y-31580000D03*
X75420000Y-35580000D03*
X75420000Y-36420000D03*
X74580000Y-36420000D03*
X74580000Y-35580000D03*
X59420000Y-29580000D03*
X59420000Y-30420000D03*
X58580000Y-30420000D03*
X58580000Y-29580000D03*
X93420000Y-83580000D03*
X93420000Y-84420000D03*
X92580000Y-84420000D03*
X92580000Y-83580000D03*
X75420000Y-61580000D03*
X75420000Y-62420000D03*
X74580000Y-62420000D03*
X74580000Y-61580000D03*
X147420000Y-47580000D03*
X147420000Y-48420000D03*
X146580000Y-48420000D03*
X146580000Y-47580000D03*
X103420000Y-27580000D03*
X103420000Y-28420000D03*
X102580000Y-28420000D03*
X102580000Y-27580000D03*
X115420000Y-85580000D03*
X115420000Y-86420000D03*
X114580000Y-86420000D03*
X114580000Y-85580000D03*
X85420000Y-47580000D03*
X85420000Y-48420000D03*
X84580000Y-48420000D03*
X84580000Y-47580000D03*
X137420000Y-41580000D03*
X137420000Y-42420000D03*
X136580000Y-42420000D03*
X136580000Y-41580000D03*
X129420000Y-31580000D03*
X129420000Y-32420000D03*
X128580000Y-32420000D03*
X128580000Y-31580000D03*
X59420000Y-91580000D03*
X59420000Y-92420000D03*
X58580000Y-92420000D03*
X58580000Y-91580000D03*
X129420000Y-75580000D03*
X129420000Y-76420000D03*
X128580000Y-76420000D03*
X128580000Y-75580000D03*
X77420000Y-55580000D03*
X77420000Y-56420000D03*
X76580000Y-56420000D03*
X76580000Y-55580000D03*
X139420000Y-21580000D03*
X139420000Y-22420000D03*
X138580000Y-22420000D03*
X138580000Y-21580000D03*
X65420000Y-83580000D03*
X65420000Y-84420000D03*
X64580000Y-84420000D03*
X64580000Y-83580000D03*
X131420000Y-41580000D03*
X131420000Y-42420000D03*
X130580000Y-42420000D03*
X130580000Y-41580000D03*
X121420000Y-35580000D03*
X121420000Y-36420000D03*
X120580000Y-36420000D03*
X120580000Y-35580000D03*
X133420000Y-73580000D03*
X133420000Y-74420000D03*
X132580000Y-74420000D03*
X132580000Y-73580000D03*
X137420000Y-35580000D03*
X137420000Y-36420000D03*
X136580000Y-36420000D03*
X136580000Y-35580000D03*
X55420000Y-39580000D03*
X55420000Y-40420000D03*
X54580000Y-40420000D03*
X54580000Y-39580000D03*
X45420000Y-41580000D03*
X45420000Y-42420000D03*
X44580000Y-42420000D03*
X44580000Y-41580000D03*
X101420000Y-39580000D03*
X101420000Y-40420000D03*
X100580000Y-40420000D03*
X100580000Y-39580000D03*
X129420000Y-69580000D03*
X129420000Y-70420000D03*
X128580000Y-70420000D03*
X128580000Y-69580000D03*
X99420000Y-23580000D03*
X99420000Y-24420000D03*
X98580000Y-24420000D03*
X98580000Y-23580000D03*
X107420000Y-51580000D03*
X107420000Y-52420000D03*
X106580000Y-52420000D03*
X106580000Y-51580000D03*
X55420000Y-47580000D03*
X55420000Y-48420000D03*
X54580000Y-48420000D03*
X54580000Y-47580000D03*
X79420000Y-65580000D03*
X79420000Y-66420000D03*
X78580000Y-66420000D03*
X78580000Y-65580000D03*
X111420000Y-49580000D03*
X111420000Y-50420000D03*
X110580000Y-50420000D03*
X110580000Y-49580000D03*
X95420000Y-89580000D03*
X95420000Y-90420000D03*
X94580000Y-90420000D03*
X94580000Y-89580000D03*
X95420000Y-47580000D03*
X95420000Y-48420000D03*
X94580000Y-48420000D03*
X94580000Y-47580000D03*
X103420000Y-29580000D03*
X103420000Y-30420000D03*
X102580000Y-30420000D03*
X102580000Y-29580000D03*
X133420000Y-29580000D03*
X133420000Y-30420000D03*
X132580000Y-30420000D03*
X132580000Y-29580000D03*
X123420000Y-67580000D03*
X123420000Y-68420000D03*
X122580000Y-68420000D03*
X122580000Y-67580000D03*
X103420000Y-91580000D03*
X103420000Y-92420000D03*
X102580000Y-92420000D03*
X102580000Y-91580000D03*
X83420000Y-93580000D03*
X83420000Y-94420000D03*
X82580000Y-94420000D03*
X82580000Y-93580000D03*
X47420000Y-47580000D03*
X47420000Y-48420000D03*
X46580000Y-48420000D03*
X46580000Y-47580000D03*
X81420000Y-69580000D03*
X81420000Y-70420000D03*
X80580000Y-70420000D03*
X80580000Y-69580000D03*
X89420000Y-27580000D03*
X89420000Y-28420000D03*
X88580000Y-28420000D03*
X88580000Y-27580000D03*
X105420000Y-87580000D03*
X105420000Y-88420000D03*
X104580000Y-88420000D03*
X104580000Y-87580000D03*
X151420000Y-79580000D03*
X151420000Y-80420000D03*
X150580000Y-80420000D03*
X150580000Y-79580000D03*
X57420000Y-81580000D03*
X57420000Y-82420000D03*
X56580000Y-82420000D03*
X56580000Y-81580000D03*
X83420000Y-73580000D03*
X83420000Y-74420000D03*
X82580000Y-74420000D03*
X82580000Y-73580000D03*
X59420000Y-21580000D03*
X59420000Y-22420000D03*
X58580000Y-22420000D03*
X58580000Y-21580000D03*
X59420000Y-49580000D03*
X59420000Y-50420000D03*
X58580000Y-50420000D03*
X58580000Y-49580000D03*
X53420000Y-21580000D03*
X53420000Y-22420000D03*
X52580000Y-22420000D03*
X52580000Y-21580000D03*
X79420000Y-87580000D03*
X79420000Y-88420000D03*
X78580000Y-88420000D03*
X78580000Y-87580000D03*
X139420000Y-39580000D03*
X139420000Y-40420000D03*
X138580000Y-40420000D03*
X138580000Y-39580000D03*
X131420000Y-45580000D03*
X131420000Y-46420000D03*
X130580000Y-46420000D03*
X130580000Y-45580000D03*
X51420000Y-65580000D03*
X51420000Y-66420000D03*
X50580000Y-66420000D03*
X50580000Y-65580000D03*
X115420000Y-87580000D03*
X115420000Y-88420000D03*
X114580000Y-88420000D03*
X114580000Y-87580000D03*
X51420000Y-71580000D03*
X51420000Y-72420000D03*
X50580000Y-72420000D03*
X50580000Y-71580000D03*
X131420000Y-23580000D03*
X131420000Y-24420000D03*
X130580000Y-24420000D03*
X130580000Y-23580000D03*
X113420000Y-41580000D03*
X113420000Y-42420000D03*
X112580000Y-42420000D03*
X112580000Y-41580000D03*
X63420000Y-41580000D03*
X63420000Y-42420000D03*
X62580000Y-42420000D03*
X62580000Y-41580000D03*
X55420000Y-93580000D03*
X55420000Y-94420000D03*
X54580000Y-94420000D03*
X54580000Y-93580000D03*
X151420000Y-83580000D03*
X151420000Y-84420000D03*
X150580000Y-84420000D03*
X150580000Y-83580000D03*
X139420000Y-83580000D03*
X139420000Y-84420000D03*
X138580000Y-84420000D03*
X138580000Y-83580000D03*
X93420000Y-21580000D03*
X93420000Y-22420000D03*
X92580000Y-22420000D03*
X92580000Y-21580000D03*
X111420000Y-47580000D03*
X111420000Y-48420000D03*
X110580000Y-48420000D03*
X110580000Y-47580000D03*
X63420000Y-49580000D03*
X63420000Y-50420000D03*
X62580000Y-50420000D03*
X62580000Y-49580000D03*
X65420000Y-95580000D03*
X65420000Y-96420000D03*
X64580000Y-96420000D03*
X64580000Y-95580000D03*
X115420000Y-25580000D03*
X115420000Y-26420000D03*
X114580000Y-26420000D03*
X114580000Y-25580000D03*
X53420000Y-61580000D03*
X53420000Y-62420000D03*
X52580000Y-62420000D03*
X52580000Y-61580000D03*
X47420000Y-59580000D03*
X47420000Y-60420000D03*
X46580000Y-60420000D03*
X46580000Y-59580000D03*
X81420000Y-75580000D03*
X81420000Y-76420000D03*
X80580000Y-76420000D03*
X80580000Y-75580000D03*
X137420000Y-95580000D03*
X137420000Y-96420000D03*
X136580000Y-96420000D03*
X136580000Y-95580000D03*
X119420000Y-35580000D03*
X119420000Y-36420000D03*
X118580000Y-36420000D03*
X118580000Y-35580000D03*
X151420000Y-67580000D03*
X151420000Y-68420000D03*
X150580000Y-68420000D03*
X150580000Y-67580000D03*
X105420000Y-71580000D03*
X105420000Y-72420000D03*
X104580000Y-72420000D03*
X104580000Y-71580000D03*
X111420000Y-93580000D03*
X111420000Y-94420000D03*
X110580000Y-94420000D03*
X110580000Y-93580000D03*
X123420000Y-41580000D03*
X123420000Y-42420000D03*
X122580000Y-42420000D03*
X122580000Y-41580000D03*
X87420000Y-21580000D03*
X87420000Y-22420000D03*
X86580000Y-22420000D03*
X86580000Y-21580000D03*
X67420000Y-91580000D03*
X67420000Y-92420000D03*
X66580000Y-92420000D03*
X66580000Y-91580000D03*
X149420000Y-73580000D03*
X149420000Y-74420000D03*
X148580000Y-74420000D03*
X148580000Y-73580000D03*
X67420000Y-61580000D03*
X67420000Y-62420000D03*
X66580000Y-62420000D03*
X66580000Y-61580000D03*
X149420000Y-41580000D03*
X149420000Y-42420000D03*
X148580000Y-42420000D03*
X148580000Y-41580000D03*
X109420000Y-29580000D03*
X109420000Y-30420000D03*
X108580000Y-30420000D03*
X108580000Y-29580000D03*
X143420000Y-19580000D03*
X143420000Y-20420000D03*
X142580000Y-20420000D03*
X142580000Y-19580000D03*
X99420000Y-21580000D03*
X99420000Y-22420000D03*
X98580000Y-22420000D03*
X98580000Y-21580000D03*
X141420000Y-41580000D03*
X141420000Y-42420000D03*
X140580000Y-42420000D03*
X140580000Y-41580000D03*
X83420000Y-23580000D03*
X83420000Y-24420000D03*
X82580000Y-24420000D03*
X82580000Y-23580000D03*
X129420000Y-49580000D03*
X129420000Y-50420000D03*
X128580000Y-50420000D03*
X128580000Y-49580000D03*
X89420000Y-69580000D03*
X89420000Y-70420000D03*
X88580000Y-70420000D03*
X88580000Y-69580000D03*
X73420000Y-59580000D03*
X73420000Y-60420000D03*
X72580000Y-60420000D03*
X72580000Y-59580000D03*
X133420000Y-45580000D03*
X133420000Y-46420000D03*
X132580000Y-46420000D03*
X132580000Y-45580000D03*
X83420000Y-65580000D03*
X83420000Y-66420000D03*
X82580000Y-66420000D03*
X82580000Y-65580000D03*
X93420000Y-43580000D03*
X93420000Y-44420000D03*
X92580000Y-44420000D03*
X92580000Y-43580000D03*
X91420000Y-95580000D03*
X91420000Y-96420000D03*
X90580000Y-96420000D03*
X90580000Y-95580000D03*
X73420000Y-79580000D03*
X73420000Y-80420000D03*
X72580000Y-80420000D03*
X72580000Y-79580000D03*
X135420000Y-39580000D03*
X135420000Y-40420000D03*
X134580000Y-40420000D03*
X134580000Y-39580000D03*
X121420000Y-95580000D03*
X121420000Y-96420000D03*
X120580000Y-96420000D03*
X120580000Y-95580000D03*
X95420000Y-79580000D03*
X95420000Y-80420000D03*
X94580000Y-80420000D03*
X94580000Y-79580000D03*
X141420000Y-65580000D03*
X141420000Y-66420000D03*
X140580000Y-66420000D03*
X140580000Y-65580000D03*
X113420000Y-27580000D03*
X113420000Y-28420000D03*
X112580000Y-28420000D03*
X112580000Y-27580000D03*
X43420000Y-85580000D03*
X43420000Y-86420000D03*
X42580000Y-86420000D03*
X42580000Y-85580000D03*
X83420000Y-45580000D03*
X83420000Y-46420000D03*
X82580000Y-46420000D03*
X82580000Y-45580000D03*
X59420000Y-41580000D03*
X59420000Y-42420000D03*
X58580000Y-42420000D03*
X58580000Y-41580000D03*
X131420000Y-35580000D03*
X131420000Y-36420000D03*
X130580000Y-36420000D03*
X130580000Y-35580000D03*
X57420000Y-45580000D03*
X57420000Y-46420000D03*
X56580000Y-46420000D03*
X56580000Y-45580000D03*
X121420000Y-45580000D03*
X121420000Y-46420000D03*
X120580000Y-46420000D03*
X120580000Y-45580000D03*
X81420000Y-35580000D03*
X81420000Y-36420000D03*
X80580000Y-36420000D03*
X80580000Y-35580000D03*
X43420000Y-83580000D03*
X43420000Y-84420000D03*
X42580000Y-84420000D03*
X42580000Y-83580000D03*
X137420000Y-61580000D03*
X137420000Y-62420000D03*
X136580000Y-62420000D03*
X136580000Y-61580000D03*
X53420000Y-67580000D03*
X53420000Y-68420000D03*
X52580000Y-68420000D03*
X52580000Y-67580000D03*
X147420000Y-93580000D03*
X147420000Y-94420000D03*
X146580000Y-94420000D03*
X146580000Y-93580000D03*
X147420000Y-19580000D03*
X147420000Y-20420000D03*
X146580000Y-20420000D03*
X146580000Y-19580000D03*
X75420000Y-79580000D03*
X75420000Y-80420000D03*
X74580000Y-80420000D03*
X74580000Y-79580000D03*
X51420000Y-19580000D03*
X51420000Y-20420000D03*
X50580000Y-20420000D03*
X50580000Y-19580000D03*
X81420000Y-65580000D03*
X81420000Y-66420000D03*
X80580000Y-66420000D03*
X80580000Y-65580000D03*
X73420000Y-49580000D03*
X73420000Y-50420000D03*
X72580000Y-50420000D03*
X72580000Y-49580000D03*
X95420000Y-31580000D03*
X95420000Y-32420000D03*
X94580000Y-32420000D03*
X94580000Y-31580000D03*
X145420000Y-73580000D03*
X145420000Y-74420000D03*
X144580000Y-74420000D03*
X144580000Y-73580000D03*
X129420000Y-65580000D03*
X129420000Y-66420000D03*
X128580000Y-66420000D03*
X128580000Y-65580000D03*
X85420000Y-73580000D03*
X85420000Y-74420000D03*
X84580000Y-74420000D03*
X84580000Y-73580000D03*
X61420000Y-81580000D03*
X61420000Y-82420000D03*
X60580000Y-82420000D03*
X60580000Y-81580000D03*
X145420000Y-95580000D03*
X145420000Y-96420000D03*
X144580000Y-96420000D03*
X144580000Y-95580000D03*
X139420000Y-19580000D03*
X139420000Y-20420000D03*
X138580000Y-20420000D03*
X138580000Y-19580000D03*
X137420000Y-67580000D03*
X137420000Y-68420000D03*
X136580000Y-68420000D03*
X136580000Y-67580000D03*
X107420000Y-83580000D03*
X107420000Y-84420000D03*
X106580000Y-84420000D03*
X106580000Y-83580000D03*
X93420000Y-41580000D03*
X93420000Y-42420000D03*
X92580000Y-42420000D03*
X92580000Y-41580000D03*
X91420000Y-75580000D03*
X91420000Y-76420000D03*
X90580000Y-76420000D03*
X90580000Y-75580000D03*
X141420000Y-51580000D03*
X141420000Y-52420000D03*
X140580000Y-52420000D03*
X140580000Y-51580000D03*
X63420000Y-39580000D03*
X63420000Y-40420000D03*
X62580000Y-40420000D03*
X62580000Y-39580000D03*
X113420000Y-71580000D03*
X113420000Y-72420000D03*
X112580000Y-72420000D03*
X112580000Y-71580000D03*
X127420000Y-21580000D03*
X127420000Y-22420000D03*
X126580000Y-22420000D03*
X126580000Y-21580000D03*
X115420000Y-81580000D03*
X115420000Y-82420000D03*
X114580000Y-82420000D03*
X114580000Y-81580000D03*
X131420000Y-65580000D03*
X131420000Y-66420000D03*
X130580000Y-66420000D03*
X130580000Y-65580000D03*
X55420000Y-87580000D03*
X55420000Y-88420000D03*
X54580000Y-88420000D03*
X54580000Y-87580000D03*
X67420000Y-93580000D03*
X67420000Y-94420000D03*
X66580000Y-94420000D03*
X66580000Y-93580000D03*
X79420000Y-67580000D03*
X79420000Y-68420000D03*
X78580000Y-68420000D03*
X78580000Y-67580000D03*
X63420000Y-67580000D03*
X63420000Y-68420000D03*
X62580000Y-68420000D03*
X62580000Y-67580000D03*
X105420000Y-31580000D03*
X105420000Y-32420000D03*
X104580000Y-32420000D03*
X104580000Y-31580000D03*
X73420000Y-45580000D03*
X73420000Y-46420000D03*
X72580000Y-46420000D03*
X72580000Y-45580000D03*
X73420000Y-19580000D03*
X73420000Y-20420000D03*
X72580000Y-20420000D03*
X72580000Y-19580000D03*
X149420000Y-53580000D03*
X149420000Y-54420000D03*
X148580000Y-54420000D03*
X148580000Y-53580000D03*
X53420000Y-33580000D03*
X53420000Y-34420000D03*
X52580000Y-34420000D03*
X52580000Y-33580000D03*
X139420000Y-45580000D03*
X139420000Y-46420000D03*
X138580000Y-46420000D03*
X138580000Y-45580000D03*
X79420000Y-81580000D03*
X79420000Y-82420000D03*
X78580000Y-82420000D03*
X78580000Y-81580000D03*
X143420000Y-55580000D03*
X143420000Y-56420000D03*
X142580000Y-56420000D03*
X142580000Y-55580000D03*
X115420000Y-43580000D03*
X115420000Y-44420000D03*
X114580000Y-44420000D03*
X114580000Y-43580000D03*
X51420000Y-55580000D03*
X51420000Y-56420000D03*
X50580000Y-56420000D03*
X50580000Y-55580000D03*
X143420000Y-63580000D03*
X143420000Y-64420000D03*
X142580000Y-64420000D03*
X142580000Y-63580000D03*
X63420000Y-31580000D03*
X63420000Y-32420000D03*
X62580000Y-32420000D03*
X62580000Y-31580000D03*
X105420000Y-53580000D03*
X105420000Y-54420000D03*
X104580000Y-54420000D03*
X104580000Y-53580000D03*
X105420000Y-27580000D03*
X105420000Y-28420000D03*
X104580000Y-28420000D03*
X104580000Y-27580000D03*
X51420000Y-53580000D03*
X51420000Y-54420000D03*
X50580000Y-54420000D03*
X50580000Y-53580000D03*
X45420000Y-39580000D03*
X45420000Y-40420000D03*
X44580000Y-40420000D03*
X44580000Y-39580000D03*
X151420000Y-89580000D03*
X151420000Y-90420000D03*
X150580000Y-90420000D03*
X150580000Y-89580000D03*
X117420000Y-33580000D03*
X117420000Y-34420000D03*
X116580000Y-34420000D03*
X116580000Y-33580000D03*
X79420000Y-59580000D03*
X79420000Y-60420000D03*
X78580000Y-60420000D03*
X78580000Y-59580000D03*
X43420000Y-93580000D03*
X43420000Y-94420000D03*
X42580000Y-94420000D03*
X42580000Y-93580000D03*
X47420000Y-91580000D03*
X47420000Y-92420000D03*
X46580000Y-92420000D03*
X46580000Y-91580000D03*
X141420000Y-29580000D03*
X141420000Y-30420000D03*
X140580000Y-30420000D03*
X140580000Y-29580000D03*
X115420000Y-45580000D03*
X115420000Y-46420000D03*
X114580000Y-46420000D03*
X114580000Y-45580000D03*
X103420000Y-59580000D03*
X103420000Y-60420000D03*
X102580000Y-60420000D03*
X102580000Y-59580000D03*
X77420000Y-79580000D03*
X77420000Y-80420000D03*
X76580000Y-80420000D03*
X76580000Y-79580000D03*
X91420000Y-73580000D03*
X91420000Y-74420000D03*
X90580000Y-74420000D03*
X90580000Y-73580000D03*
X111420000Y-21580000D03*
X111420000Y-22420000D03*
X110580000Y-22420000D03*
X110580000Y-21580000D03*
X59420000Y-65580000D03*
X59420000Y-66420000D03*
X58580000Y-66420000D03*
X58580000Y-65580000D03*
X109420000Y-63580000D03*
X109420000Y-64420000D03*
X108580000Y-64420000D03*
X108580000Y-63580000D03*
X99420000Y-31580000D03*
X99420000Y-32420000D03*
X98580000Y-32420000D03*
X98580000Y-31580000D03*
X71420000Y-27580000D03*
X71420000Y-28420000D03*
X70580000Y-28420000D03*
X70580000Y-27580000D03*
X43420000Y-41580000D03*
X43420000Y-42420000D03*
X42580000Y-42420000D03*
X42580000Y-41580000D03*
X49420000Y-93580000D03*
X49420000Y-94420000D03*
X48580000Y-94420000D03*
X48580000Y-93580000D03*
X137420000Y-83580000D03*
X137420000Y-84420000D03*
X136580000Y-84420000D03*
X136580000Y-83580000D03*
X103420000Y-73580000D03*
X103420000Y-74420000D03*
X102580000Y-74420000D03*
X102580000Y-73580000D03*
X59420000Y-67580000D03*
X59420000Y-68420000D03*
X58580000Y-68420000D03*
X58580000Y-67580000D03*
X59420000Y-95580000D03*
X59420000Y-96420000D03*
X58580000Y-96420000D03*
X58580000Y-95580000D03*
X145420000Y-43580000D03*
X145420000Y-44420000D03*
X144580000Y-44420000D03*
X144580000Y-43580000D03*
X129420000Y-39580000D03*
X129420000Y-40420000D03*
X128580000Y-40420000D03*
X128580000Y-39580000D03*
X63420000Y-69580000D03*
X63420000Y-70420000D03*
X62580000Y-70420000D03*
X62580000Y-69580000D03*
X131420000Y-89580000D03*
X131420000Y-90420000D03*
X130580000Y-90420000D03*
X130580000Y-89580000D03*
X51420000Y-35580000D03*
X51420000Y-36420000D03*
X50580000Y-36420000D03*
X50580000Y-35580000D03*
X73420000Y-35580000D03*
X73420000Y-36420000D03*
X72580000Y-36420000D03*
X72580000Y-35580000D03*
X53420000Y-35580000D03*
X53420000Y-36420000D03*
X52580000Y-36420000D03*
X52580000Y-35580000D03*
X49420000Y-43580000D03*
X49420000Y-44420000D03*
X48580000Y-44420000D03*
X48580000Y-43580000D03*
X115420000Y-51580000D03*
X115420000Y-52420000D03*
X114580000Y-52420000D03*
X114580000Y-51580000D03*
X107420000Y-43580000D03*
X107420000Y-44420000D03*
X106580000Y-44420000D03*
X106580000Y-43580000D03*
X123420000Y-59580000D03*
X123420000Y-60420000D03*
X122580000Y-60420000D03*
X122580000Y-59580000D03*
X45420000Y-67580000D03*
X45420000Y-68420000D03*
X44580000Y-68420000D03*
X44580000Y-67580000D03*
X93420000Y-61580000D03*
X93420000Y-62420000D03*
X92580000Y-62420000D03*
X92580000Y-61580000D03*
X117420000Y-53580000D03*
X117420000Y-54420000D03*
X116580000Y-54420000D03*
X116580000Y-53580000D03*
X147420000Y-51580000D03*
X147420000Y-52420000D03*
X146580000Y-52420000D03*
X146580000Y-51580000D03*
X87420000Y-19580000D03*
X87420000Y-20420000D03*
X86580000Y-20420000D03*
X86580000Y-19580000D03*
X113420000Y-91580000D03*
X113420000Y-92420000D03*
X112580000Y-92420000D03*
X112580000Y-91580000D03*
X145420000Y-23580000D03*
X145420000Y-24420000D03*
X144580000Y-24420000D03*
X144580000Y-23580000D03*
X115420000Y-31580000D03*
X115420000Y-32420000D03*
X114580000Y-32420000D03*
X114580000Y-31580000D03*
X61420000Y-83580000D03*
X61420000Y-84420000D03*
X60580000Y-84420000D03*
X60580000Y-83580000D03*
X67420000Y-27580000D03*
X67420000Y-28420000D03*
X66580000Y-28420000D03*
X66580000Y-27580000D03*
X81420000Y-39580000D03*
X81420000Y-40420000D03*
X80580000Y-40420000D03*
X80580000Y-39580000D03*
X103420000Y-69580000D03*
X103420000Y-70420000D03*
X102580000Y-70420000D03*
X102580000Y-69580000D03*
X145420000Y-63580000D03*
X145420000Y-64420000D03*
X144580000Y-64420000D03*
X144580000Y-63580000D03*
X43420000Y-91580000D03*
X43420000Y-92420000D03*
X42580000Y-92420000D03*
X42580000Y-91580000D03*
X149420000Y-69580000D03*
X149420000Y-70420000D03*
X148580000Y-70420000D03*
X148580000Y-69580000D03*
X87420000Y-41580000D03*
X87420000Y-42420000D03*
X86580000Y-42420000D03*
X86580000Y-41580000D03*
X103420000Y-75580000D03*
X103420000Y-76420000D03*
X102580000Y-76420000D03*
X102580000Y-75580000D03*
X81420000Y-81580000D03*
X81420000Y-82420000D03*
X80580000Y-82420000D03*
X80580000Y-81580000D03*
X111420000Y-31580000D03*
X111420000Y-32420000D03*
X110580000Y-32420000D03*
X110580000Y-31580000D03*
X111420000Y-25580000D03*
X111420000Y-26420000D03*
X110580000Y-26420000D03*
X110580000Y-25580000D03*
X77420000Y-47580000D03*
X77420000Y-48420000D03*
X76580000Y-48420000D03*
X76580000Y-47580000D03*
X53420000Y-39580000D03*
X53420000Y-40420000D03*
X52580000Y-40420000D03*
X52580000Y-39580000D03*
X43420000Y-31580000D03*
X43420000Y-32420000D03*
X42580000Y-32420000D03*
X42580000Y-31580000D03*
X149420000Y-23580000D03*
X149420000Y-24420000D03*
X148580000Y-24420000D03*
X148580000Y-23580000D03*
X53420000Y-23580000D03*
X53420000Y-24420000D03*
X52580000Y-24420000D03*
X52580000Y-23580000D03*
X85420000Y-71580000D03*
X85420000Y-72420000D03*
X84580000Y-72420000D03*
X84580000Y-71580000D03*
X91420000Y-25580000D03*
X91420000Y-26420000D03*
X90580000Y-26420000D03*
X90580000Y-25580000D03*
X133420000Y-35580000D03*
X133420000Y-36420000D03*
X132580000Y-36420000D03*
X132580000Y-35580000D03*
X143420000Y-61580000D03*
X143420000Y-62420000D03*
X142580000Y-62420000D03*
X142580000Y-61580000D03*
X67420000Y-19580000D03*
X67420000Y-20420000D03*
X66580000Y-20420000D03*
X66580000Y-19580000D03*
X83420000Y-29580000D03*
X83420000Y-30420000D03*
X82580000Y-30420000D03*
X82580000Y-29580000D03*
X89420000Y-29580000D03*
X89420000Y-30420000D03*
X88580000Y-30420000D03*
X88580000Y-29580000D03*
X89420000Y-35580000D03*
X89420000Y-36420000D03*
X88580000Y-36420000D03*
X88580000Y-35580000D03*
X65420000Y-45580000D03*
X65420000Y-46420000D03*
X64580000Y-46420000D03*
X64580000Y-45580000D03*
X85420000Y-93580000D03*
X85420000Y-94420000D03*
X84580000Y-94420000D03*
X84580000Y-93580000D03*
X73420000Y-41580000D03*
X73420000Y-42420000D03*
X72580000Y-42420000D03*
X72580000Y-41580000D03*
X47420000Y-63580000D03*
X47420000Y-64420000D03*
X46580000Y-64420000D03*
X46580000Y-63580000D03*
X59420000Y-89580000D03*
X59420000Y-90420000D03*
X58580000Y-90420000D03*
X58580000Y-89580000D03*
X49420000Y-53580000D03*
X49420000Y-54420000D03*
X48580000Y-54420000D03*
X48580000Y-53580000D03*
X129420000Y-89580000D03*
X129420000Y-90420000D03*
X128580000Y-90420000D03*
X128580000Y-89580000D03*
X103420000Y-89580000D03*
X103420000Y-90420000D03*
X102580000Y-90420000D03*
X102580000Y-89580000D03*
X99420000Y-49580000D03*
X99420000Y-50420000D03*
X98580000Y-50420000D03*
X98580000Y-49580000D03*
X85420000Y-39580000D03*
X85420000Y-40420000D03*
X84580000Y-40420000D03*
X84580000Y-39580000D03*
X101420000Y-47580000D03*
X101420000Y-48420000D03*
X100580000Y-48420000D03*
X100580000Y-47580000D03*
X71420000Y-85580000D03*
X71420000Y-86420000D03*
X70580000Y-86420000D03*
X70580000Y-85580000D03*
X57420000Y-83580000D03*
X57420000Y-84420000D03*
X56580000Y-84420000D03*
X56580000Y-83580000D03*
X55420000Y-79580000D03*
X55420000Y-80420000D03*
X54580000Y-80420000D03*
X54580000Y-79580000D03*
X75420000Y-83580000D03*
X75420000Y-84420000D03*
X74580000Y-84420000D03*
X74580000Y-83580000D03*
X105420000Y-55580000D03*
X105420000Y-56420000D03*
X104580000Y-56420000D03*
X104580000Y-55580000D03*
X77420000Y-19580000D03*
X77420000Y-20420000D03*
X76580000Y-20420000D03*
X76580000Y-19580000D03*
X139420000Y-41580000D03*
X139420000Y-42420000D03*
X138580000Y-42420000D03*
X138580000Y-41580000D03*
X109420000Y-69580000D03*
X109420000Y-70420000D03*
X108580000Y-70420000D03*
X108580000Y-69580000D03*
X133420000Y-67580000D03*
X133420000Y-68420000D03*
X132580000Y-68420000D03*
X132580000Y-67580000D03*
X141420000Y-87580000D03*
X141420000Y-88420000D03*
X140580000Y-88420000D03*
X140580000Y-87580000D03*
X117420000Y-35580000D03*
X117420000Y-36420000D03*
X116580000Y-36420000D03*
X116580000Y-35580000D03*
X79420000Y-79580000D03*
X79420000Y-80420000D03*
X78580000Y-80420000D03*
X78580000Y-79580000D03*
X133420000Y-93580000D03*
X133420000Y-94420000D03*
X132580000Y-94420000D03*
X132580000Y-93580000D03*
X47420000Y-51580000D03*
X47420000Y-52420000D03*
X46580000Y-52420000D03*
X46580000Y-51580000D03*
X83420000Y-91580000D03*
X83420000Y-92420000D03*
X82580000Y-92420000D03*
X82580000Y-91580000D03*
X109420000Y-59580000D03*
X109420000Y-60420000D03*
X108580000Y-60420000D03*
X108580000Y-59580000D03*
X79420000Y-43580000D03*
X79420000Y-44420000D03*
X78580000Y-44420000D03*
X78580000Y-43580000D03*
X81420000Y-91580000D03*
X81420000Y-92420000D03*
X80580000Y-92420000D03*
X80580000Y-91580000D03*
X145420000Y-83580000D03*
X145420000Y-84420000D03*
X144580000Y-84420000D03*
X144580000Y-83580000D03*
X63420000Y-33580000D03*
X63420000Y-34420000D03*
X62580000Y-34420000D03*
X62580000Y-33580000D03*
X87420000Y-95580000D03*
X87420000Y-96420000D03*
X86580000Y-96420000D03*
X86580000Y-95580000D03*
X115420000Y-71580000D03*
X115420000Y-72420000D03*
X114580000Y-72420000D03*
X114580000Y-71580000D03*
X107420000Y-49580000D03*
X107420000Y-50420000D03*
X106580000Y-50420000D03*
X106580000Y-49580000D03*
X109420000Y-89580000D03*
X109420000Y-90420000D03*
X108580000Y-90420000D03*
X108580000Y-89580000D03*
X83420000Y-59580000D03*
X83420000Y-60420000D03*
X82580000Y-60420000D03*
X82580000Y-59580000D03*
X109420000Y-31580000D03*
X109420000Y-32420000D03*
X108580000Y-32420000D03*
X108580000Y-31580000D03*
X149420000Y-83580000D03*
X149420000Y-84420000D03*
X148580000Y-84420000D03*
X148580000Y-83580000D03*
X61420000Y-91580000D03*
X61420000Y-92420000D03*
X60580000Y-92420000D03*
X60580000Y-91580000D03*
X71420000Y-19580000D03*
X71420000Y-20420000D03*
X70580000Y-20420000D03*
X70580000Y-19580000D03*
X87420000Y-89580000D03*
X87420000Y-90420000D03*
X86580000Y-90420000D03*
X86580000Y-89580000D03*
X117420000Y-85580000D03*
X117420000Y-86420000D03*
X116580000Y-86420000D03*
X116580000Y-85580000D03*
X143420000Y-27580000D03*
X143420000Y-28420000D03*
X142580000Y-28420000D03*
X142580000Y-27580000D03*
X95420000Y-87580000D03*
X95420000Y-88420000D03*
X94580000Y-88420000D03*
X94580000Y-87580000D03*
X57420000Y-39580000D03*
X57420000Y-40420000D03*
X56580000Y-40420000D03*
X56580000Y-39580000D03*
X149420000Y-31580000D03*
X149420000Y-32420000D03*
X148580000Y-32420000D03*
X148580000Y-31580000D03*
X137420000Y-53580000D03*
X137420000Y-54420000D03*
X136580000Y-54420000D03*
X136580000Y-53580000D03*
X135420000Y-85580000D03*
X135420000Y-86420000D03*
X134580000Y-86420000D03*
X134580000Y-85580000D03*
X101420000Y-95580000D03*
X101420000Y-96420000D03*
X100580000Y-96420000D03*
X100580000Y-95580000D03*
X151420000Y-21580000D03*
X151420000Y-22420000D03*
X150580000Y-22420000D03*
X150580000Y-21580000D03*
X93420000Y-95580000D03*
X93420000Y-96420000D03*
X92580000Y-96420000D03*
X92580000Y-95580000D03*
X91420000Y-31580000D03*
X91420000Y-32420000D03*
X90580000Y-32420000D03*
X90580000Y-31580000D03*
X63420000Y-81580000D03*
X63420000Y-82420000D03*
X62580000Y-82420000D03*
X62580000Y-81580000D03*
X47420000Y-49580000D03*
X47420000Y-50420000D03*
X46580000Y-50420000D03*
X46580000Y-49580000D03*
X51420000Y-81580000D03*
X51420000Y-82420000D03*
X50580000Y-82420000D03*
X50580000Y-81580000D03*
X123420000Y-21580000D03*
X123420000Y-22420000D03*
X122580000Y-22420000D03*
X122580000Y-21580000D03*
X91420000Y-55580000D03*
X91420000Y-56420000D03*
X90580000Y-56420000D03*
X90580000Y-55580000D03*
X115420000Y-33580000D03*
X115420000Y-34420000D03*
X114580000Y-34420000D03*
X114580000Y-33580000D03*
X117420000Y-71580000D03*
X117420000Y-72420000D03*
X116580000Y-72420000D03*
X116580000Y-71580000D03*
X83420000Y-81580000D03*
X83420000Y-82420000D03*
X82580000Y-82420000D03*
X82580000Y-81580000D03*
X83420000Y-71580000D03*
X83420000Y-72420000D03*
X82580000Y-72420000D03*
X82580000Y-71580000D03*
X55420000Y-61580000D03*
X55420000Y-62420000D03*
X54580000Y-62420000D03*
X54580000Y-61580000D03*
X121420000Y-31580000D03*
X121420000Y-32420000D03*
X120580000Y-32420000D03*
X120580000Y-31580000D03*
X95420000Y-23580000D03*
X95420000Y-24420000D03*
X94580000Y-24420000D03*
X94580000Y-23580000D03*
X107420000Y-27580000D03*
X107420000Y-28420000D03*
X106580000Y-28420000D03*
X106580000Y-27580000D03*
X137420000Y-49580000D03*
X137420000Y-50420000D03*
X136580000Y-50420000D03*
X136580000Y-49580000D03*
X127420000Y-19580000D03*
X127420000Y-20420000D03*
X126580000Y-20420000D03*
X126580000Y-19580000D03*
X85420000Y-75580000D03*
X85420000Y-76420000D03*
X84580000Y-76420000D03*
X84580000Y-75580000D03*
X129420000Y-41580000D03*
X129420000Y-42420000D03*
X128580000Y-42420000D03*
X128580000Y-41580000D03*
X71420000Y-73580000D03*
X71420000Y-74420000D03*
X70580000Y-74420000D03*
X70580000Y-73580000D03*
X103420000Y-95580000D03*
X103420000Y-96420000D03*
X102580000Y-96420000D03*
X102580000Y-95580000D03*
X83420000Y-61580000D03*
X83420000Y-62420000D03*
X82580000Y-62420000D03*
X82580000Y-61580000D03*
X101420000Y-19580000D03*
X101420000Y-20420000D03*
X100580000Y-20420000D03*
X100580000Y-19580000D03*
X49420000Y-95580000D03*
X49420000Y-96420000D03*
X48580000Y-96420000D03*
X48580000Y-95580000D03*
X119420000Y-31580000D03*
X119420000Y-32420000D03*
X118580000Y-32420000D03*
X118580000Y-31580000D03*
X61420000Y-41580000D03*
X61420000Y-42420000D03*
X60580000Y-42420000D03*
X60580000Y-41580000D03*
X129420000Y-51580000D03*
X129420000Y-52420000D03*
X128580000Y-52420000D03*
X128580000Y-51580000D03*
X145420000Y-91580000D03*
X145420000Y-92420000D03*
X144580000Y-92420000D03*
X144580000Y-91580000D03*
X119420000Y-41580000D03*
X119420000Y-42420000D03*
X118580000Y-42420000D03*
X118580000Y-41580000D03*
X103420000Y-85580000D03*
X103420000Y-86420000D03*
X102580000Y-86420000D03*
X102580000Y-85580000D03*
X57420000Y-63580000D03*
X57420000Y-64420000D03*
X56580000Y-64420000D03*
X56580000Y-63580000D03*
X45420000Y-19580000D03*
X45420000Y-20420000D03*
X44580000Y-20420000D03*
X44580000Y-19580000D03*
X95420000Y-75580000D03*
X95420000Y-76420000D03*
X94580000Y-76420000D03*
X94580000Y-75580000D03*
X113420000Y-43580000D03*
X113420000Y-44420000D03*
X112580000Y-44420000D03*
X112580000Y-43580000D03*
X65420000Y-69580000D03*
X65420000Y-70420000D03*
X64580000Y-70420000D03*
X64580000Y-69580000D03*
X103420000Y-53580000D03*
X103420000Y-54420000D03*
X102580000Y-54420000D03*
X102580000Y-53580000D03*
X135420000Y-81580000D03*
X135420000Y-82420000D03*
X134580000Y-82420000D03*
X134580000Y-81580000D03*
X123420000Y-45580000D03*
X123420000Y-46420000D03*
X122580000Y-46420000D03*
X122580000Y-45580000D03*
X47420000Y-27580000D03*
X47420000Y-28420000D03*
X46580000Y-28420000D03*
X46580000Y-27580000D03*
X93420000Y-67580000D03*
X93420000Y-68420000D03*
X92580000Y-68420000D03*
X92580000Y-67580000D03*
X137420000Y-79580000D03*
X137420000Y-80420000D03*
X136580000Y-80420000D03*
X136580000Y-79580000D03*
X49420000Y-49580000D03*
X49420000Y-50420000D03*
X48580000Y-50420000D03*
X48580000Y-49580000D03*
X107420000Y-67580000D03*
X107420000Y-68420000D03*
X106580000Y-68420000D03*
X106580000Y-67580000D03*
X57420000Y-95580000D03*
X57420000Y-96420000D03*
X56580000Y-96420000D03*
X56580000Y-95580000D03*
X115420000Y-89580000D03*
X115420000Y-90420000D03*
X114580000Y-90420000D03*
X114580000Y-89580000D03*
X45420000Y-85580000D03*
X45420000Y-86420000D03*
X44580000Y-86420000D03*
X44580000Y-85580000D03*
X59420000Y-35580000D03*
X59420000Y-36420000D03*
X58580000Y-36420000D03*
X58580000Y-35580000D03*
X85420000Y-79580000D03*
X85420000Y-80420000D03*
X84580000Y-80420000D03*
X84580000Y-79580000D03*
X111420000Y-55580000D03*
X111420000Y-56420000D03*
X110580000Y-56420000D03*
X110580000Y-55580000D03*
X131420000Y-27580000D03*
X131420000Y-28420000D03*
X130580000Y-28420000D03*
X130580000Y-27580000D03*
X61420000Y-39580000D03*
X61420000Y-40420000D03*
X60580000Y-40420000D03*
X60580000Y-39580000D03*
X59420000Y-79580000D03*
X59420000Y-80420000D03*
X58580000Y-80420000D03*
X58580000Y-79580000D03*
X109420000Y-71580000D03*
X109420000Y-72420000D03*
X108580000Y-72420000D03*
X108580000Y-71580000D03*
X109420000Y-75580000D03*
X109420000Y-76420000D03*
X108580000Y-76420000D03*
X108580000Y-75580000D03*
X95420000Y-73580000D03*
X95420000Y-74420000D03*
X94580000Y-74420000D03*
X94580000Y-73580000D03*
X73420000Y-55580000D03*
X73420000Y-56420000D03*
X72580000Y-56420000D03*
X72580000Y-55580000D03*
X85420000Y-53580000D03*
X85420000Y-54420000D03*
X84580000Y-54420000D03*
X84580000Y-53580000D03*
X53420000Y-71580000D03*
X53420000Y-72420000D03*
X52580000Y-72420000D03*
X52580000Y-71580000D03*
X89420000Y-51580000D03*
X89420000Y-52420000D03*
X88580000Y-52420000D03*
X88580000Y-51580000D03*
X139420000Y-27580000D03*
X139420000Y-28420000D03*
X138580000Y-28420000D03*
X138580000Y-27580000D03*
X117420000Y-93580000D03*
X117420000Y-94420000D03*
X116580000Y-94420000D03*
X116580000Y-93580000D03*
X77420000Y-39580000D03*
X77420000Y-40420000D03*
X76580000Y-40420000D03*
X76580000Y-39580000D03*
X139420000Y-35580000D03*
X139420000Y-36420000D03*
X138580000Y-36420000D03*
X138580000Y-35580000D03*
X119420000Y-55580000D03*
X119420000Y-56420000D03*
X118580000Y-56420000D03*
X118580000Y-55580000D03*
X77420000Y-51580000D03*
X77420000Y-52420000D03*
X76580000Y-52420000D03*
X76580000Y-51580000D03*
X67420000Y-53580000D03*
X67420000Y-54420000D03*
X66580000Y-54420000D03*
X66580000Y-53580000D03*
X141420000Y-31580000D03*
X141420000Y-32420000D03*
X140580000Y-32420000D03*
X140580000Y-31580000D03*
X135420000Y-25580000D03*
X135420000Y-26420000D03*
X134580000Y-26420000D03*
X134580000Y-25580000D03*
X139420000Y-65580000D03*
X139420000Y-66420000D03*
X138580000Y-66420000D03*
X138580000Y-65580000D03*
X121420000Y-73580000D03*
X121420000Y-74420000D03*
X120580000Y-74420000D03*
X120580000Y-73580000D03*
X93420000Y-75580000D03*
X93420000Y-76420000D03*
X92580000Y-76420000D03*
X92580000Y-75580000D03*
X109420000Y-93580000D03*
X109420000Y-94420000D03*
X108580000Y-94420000D03*
X108580000Y-93580000D03*
X63420000Y-25580000D03*
X63420000Y-26420000D03*
X62580000Y-26420000D03*
X62580000Y-25580000D03*
X51420000Y-61580000D03*
X51420000Y-62420000D03*
X50580000Y-62420000D03*
X50580000Y-61580000D03*
X149420000Y-85580000D03*
X149420000Y-86420000D03*
X148580000Y-86420000D03*
X148580000Y-85580000D03*
X89420000Y-53580000D03*
X89420000Y-54420000D03*
X88580000Y-54420000D03*
X88580000Y-53580000D03*
X45420000Y-61580000D03*
X45420000Y-62420000D03*
X44580000Y-62420000D03*
X44580000Y-61580000D03*
X113420000Y-23580000D03*
X113420000Y-24420000D03*
X112580000Y-24420000D03*
X112580000Y-23580000D03*
X121420000Y-65580000D03*
X121420000Y-66420000D03*
X120580000Y-66420000D03*
X120580000Y-65580000D03*
X133420000Y-63580000D03*
X133420000Y-64420000D03*
X132580000Y-64420000D03*
X132580000Y-63580000D03*
X149420000Y-81580000D03*
X149420000Y-82420000D03*
X148580000Y-82420000D03*
X148580000Y-81580000D03*
X121420000Y-71580000D03*
X121420000Y-72420000D03*
X120580000Y-72420000D03*
X120580000Y-71580000D03*
X113420000Y-69580000D03*
X113420000Y-70420000D03*
X112580000Y-70420000D03*
X112580000Y-69580000D03*
X143420000Y-73580000D03*
X143420000Y-74420000D03*
X142580000Y-74420000D03*
X142580000Y-73580000D03*
X93420000Y-33580000D03*
X93420000Y-34420000D03*
X92580000Y-34420000D03*
X92580000Y-33580000D03*
X145420000Y-93580000D03*
X145420000Y-94420000D03*
X144580000Y-94420000D03*
X144580000Y-93580000D03*
X75420000Y-71580000D03*
X75420000Y-72420000D03*
X74580000Y-72420000D03*
X74580000Y-71580000D03*
X119420000Y-33580000D03*
X119420000Y-34420000D03*
X118580000Y-34420000D03*
X118580000Y-33580000D03*
X117420000Y-25580000D03*
X117420000Y-26420000D03*
X116580000Y-26420000D03*
X116580000Y-25580000D03*
X151420000Y-23580000D03*
X151420000Y-24420000D03*
X150580000Y-24420000D03*
X150580000Y-23580000D03*
X137420000Y-45580000D03*
X137420000Y-46420000D03*
X136580000Y-46420000D03*
X136580000Y-45580000D03*
X143420000Y-45580000D03*
X143420000Y-46420000D03*
X142580000Y-46420000D03*
X142580000Y-45580000D03*
X99420000Y-95580000D03*
X99420000Y-96420000D03*
X98580000Y-96420000D03*
X98580000Y-95580000D03*
X45420000Y-55580000D03*
X45420000Y-56420000D03*
X44580000Y-56420000D03*
X44580000Y-55580000D03*
X47420000Y-35580000D03*
X47420000Y-36420000D03*
X46580000Y-36420000D03*
X46580000Y-35580000D03*
X73420000Y-91580000D03*
X73420000Y-92420000D03*
X72580000Y-92420000D03*
X72580000Y-91580000D03*
X55420000Y-75580000D03*
X55420000Y-76420000D03*
X54580000Y-76420000D03*
X54580000Y-75580000D03*
X57420000Y-33580000D03*
X57420000Y-34420000D03*
X56580000Y-34420000D03*
X56580000Y-33580000D03*
X99420000Y-79580000D03*
X99420000Y-80420000D03*
X98580000Y-80420000D03*
X98580000Y-79580000D03*
X57420000Y-65580000D03*
X57420000Y-66420000D03*
X56580000Y-66420000D03*
X56580000Y-65580000D03*
X137420000Y-73580000D03*
X137420000Y-74420000D03*
X136580000Y-74420000D03*
X136580000Y-73580000D03*
X91420000Y-29580000D03*
X91420000Y-30420000D03*
X90580000Y-30420000D03*
X90580000Y-29580000D03*
X53420000Y-81580000D03*
X53420000Y-82420000D03*
X52580000Y-82420000D03*
X52580000Y-81580000D03*
X117420000Y-45580000D03*
X117420000Y-46420000D03*
X116580000Y-46420000D03*
X116580000Y-45580000D03*
X71420000Y-33580000D03*
X71420000Y-34420000D03*
X70580000Y-34420000D03*
X70580000Y-33580000D03*
X83420000Y-95580000D03*
X83420000Y-96420000D03*
X82580000Y-96420000D03*
X82580000Y-95580000D03*
X65420000Y-75580000D03*
X65420000Y-76420000D03*
X64580000Y-76420000D03*
X64580000Y-75580000D03*
X139420000Y-23580000D03*
X139420000Y-24420000D03*
X138580000Y-24420000D03*
X138580000Y-23580000D03*
X103420000Y-55580000D03*
X103420000Y-56420000D03*
X102580000Y-56420000D03*
X102580000Y-55580000D03*
X99420000Y-27580000D03*
X99420000Y-28420000D03*
X98580000Y-28420000D03*
X98580000Y-27580000D03*
X47420000Y-23580000D03*
X47420000Y-24420000D03*
X46580000Y-24420000D03*
X46580000Y-23580000D03*
X73420000Y-23580000D03*
X73420000Y-24420000D03*
X72580000Y-24420000D03*
X72580000Y-23580000D03*
X121420000Y-39580000D03*
X121420000Y-40420000D03*
X120580000Y-40420000D03*
X120580000Y-39580000D03*
X47420000Y-55580000D03*
X47420000Y-56420000D03*
X46580000Y-56420000D03*
X46580000Y-55580000D03*
X77420000Y-75580000D03*
X77420000Y-76420000D03*
X76580000Y-76420000D03*
X76580000Y-75580000D03*
X113420000Y-65580000D03*
X113420000Y-66420000D03*
X112580000Y-66420000D03*
X112580000Y-65580000D03*
X141420000Y-75580000D03*
X141420000Y-76420000D03*
X140580000Y-76420000D03*
X140580000Y-75580000D03*
X117420000Y-81580000D03*
X117420000Y-82420000D03*
X116580000Y-82420000D03*
X116580000Y-81580000D03*
X119420000Y-39580000D03*
X119420000Y-40420000D03*
X118580000Y-40420000D03*
X118580000Y-39580000D03*
X99420000Y-65580000D03*
X99420000Y-66420000D03*
X98580000Y-66420000D03*
X98580000Y-65580000D03*
X93420000Y-65580000D03*
X93420000Y-66420000D03*
X92580000Y-66420000D03*
X92580000Y-65580000D03*
X63420000Y-47580000D03*
X63420000Y-48420000D03*
X62580000Y-48420000D03*
X62580000Y-47580000D03*
X61420000Y-55580000D03*
X61420000Y-56420000D03*
X60580000Y-56420000D03*
X60580000Y-55580000D03*
X151420000Y-31580000D03*
X151420000Y-32420000D03*
X150580000Y-32420000D03*
X150580000Y-31580000D03*
X115420000Y-63580000D03*
X115420000Y-64420000D03*
X114580000Y-64420000D03*
X114580000Y-63580000D03*
X87420000Y-33580000D03*
X87420000Y-34420000D03*
X86580000Y-34420000D03*
X86580000Y-33580000D03*
X81420000Y-95580000D03*
X81420000Y-96420000D03*
X80580000Y-96420000D03*
X80580000Y-95580000D03*
X83420000Y-33580000D03*
X83420000Y-34420000D03*
X82580000Y-34420000D03*
X82580000Y-33580000D03*
X87420000Y-43580000D03*
X87420000Y-44420000D03*
X86580000Y-44420000D03*
X86580000Y-43580000D03*
X149420000Y-45580000D03*
X149420000Y-46420000D03*
X148580000Y-46420000D03*
X148580000Y-45580000D03*
X47420000Y-67580000D03*
X47420000Y-68420000D03*
X46580000Y-68420000D03*
X46580000Y-67580000D03*
X119420000Y-95580000D03*
X119420000Y-96420000D03*
X118580000Y-96420000D03*
X118580000Y-95580000D03*
X65420000Y-21580000D03*
X65420000Y-22420000D03*
X64580000Y-22420000D03*
X64580000Y-21580000D03*
X117420000Y-19580000D03*
X117420000Y-20420000D03*
X116580000Y-20420000D03*
X116580000Y-19580000D03*
X61420000Y-67580000D03*
X61420000Y-68420000D03*
X60580000Y-68420000D03*
X60580000Y-67580000D03*
X103420000Y-79580000D03*
X103420000Y-80420000D03*
X102580000Y-80420000D03*
X102580000Y-79580000D03*
X117420000Y-95580000D03*
X117420000Y-96420000D03*
X116580000Y-96420000D03*
X116580000Y-95580000D03*
X115420000Y-79580000D03*
X115420000Y-80420000D03*
X114580000Y-80420000D03*
X114580000Y-79580000D03*
X131420000Y-73580000D03*
X131420000Y-74420000D03*
X130580000Y-74420000D03*
X130580000Y-73580000D03*
X91420000Y-53580000D03*
X91420000Y-54420000D03*
X90580000Y-54420000D03*
X90580000Y-53580000D03*
X141420000Y-61580000D03*
X141420000Y-62420000D03*
X140580000Y-62420000D03*
X140580000Y-61580000D03*
X47420000Y-89580000D03*
X47420000Y-90420000D03*
X46580000Y-90420000D03*
X46580000Y-89580000D03*
X93420000Y-31580000D03*
X93420000Y-32420000D03*
X92580000Y-32420000D03*
X92580000Y-31580000D03*
X89420000Y-65580000D03*
X89420000Y-66420000D03*
X88580000Y-66420000D03*
X88580000Y-65580000D03*
X43420000Y-81580000D03*
X43420000Y-82420000D03*
X42580000Y-82420000D03*
X42580000Y-81580000D03*
X103420000Y-31580000D03*
X103420000Y-32420000D03*
X102580000Y-32420000D03*
X102580000Y-31580000D03*
X91420000Y-67580000D03*
X91420000Y-68420000D03*
X90580000Y-68420000D03*
X90580000Y-67580000D03*
X81420000Y-23580000D03*
X81420000Y-24420000D03*
X80580000Y-24420000D03*
X80580000Y-23580000D03*
X89420000Y-21580000D03*
X89420000Y-22420000D03*
X88580000Y-22420000D03*
X88580000Y-21580000D03*
X133420000Y-31580000D03*
X133420000Y-32420000D03*
X132580000Y-32420000D03*
X132580000Y-31580000D03*
X57420000Y-91580000D03*
X57420000Y-92420000D03*
X56580000Y-92420000D03*
X56580000Y-91580000D03*
X91420000Y-81580000D03*
X91420000Y-82420000D03*
X90580000Y-82420000D03*
X90580000Y-81580000D03*
X107420000Y-55580000D03*
X107420000Y-56420000D03*
X106580000Y-56420000D03*
X106580000Y-55580000D03*
X115420000Y-49580000D03*
X115420000Y-50420000D03*
X114580000Y-50420000D03*
X114580000Y-49580000D03*
X95420000Y-27580000D03*
X95420000Y-28420000D03*
X94580000Y-28420000D03*
X94580000Y-27580000D03*
X51420000Y-39580000D03*
X51420000Y-40420000D03*
X50580000Y-40420000D03*
X50580000Y-39580000D03*
X91420000Y-21580000D03*
X91420000Y-22420000D03*
X90580000Y-22420000D03*
X90580000Y-21580000D03*
X93420000Y-45580000D03*
X93420000Y-46420000D03*
X92580000Y-46420000D03*
X92580000Y-45580000D03*
X105420000Y-93580000D03*
X105420000Y-94420000D03*
X104580000Y-94420000D03*
X104580000Y-93580000D03*
X129420000Y-55580000D03*
X129420000Y-56420000D03*
X128580000Y-56420000D03*
X128580000Y-55580000D03*
X53420000Y-45580000D03*
X53420000Y-46420000D03*
X52580000Y-46420000D03*
X52580000Y-45580000D03*
X111420000Y-63580000D03*
X111420000Y-64420000D03*
X110580000Y-64420000D03*
X110580000Y-63580000D03*
X63420000Y-35580000D03*
X63420000Y-36420000D03*
X62580000Y-36420000D03*
X62580000Y-35580000D03*
X43420000Y-27580000D03*
X43420000Y-28420000D03*
X42580000Y-28420000D03*
X42580000Y-27580000D03*
X91420000Y-39580000D03*
X91420000Y-40420000D03*
X90580000Y-40420000D03*
X90580000Y-39580000D03*
X85420000Y-41580000D03*
X85420000Y-42420000D03*
X84580000Y-42420000D03*
X84580000Y-41580000D03*
X149420000Y-65580000D03*
X149420000Y-66420000D03*
X148580000Y-66420000D03*
X148580000Y-65580000D03*
X151420000Y-87580000D03*
X151420000Y-88420000D03*
X150580000Y-88420000D03*
X150580000Y-87580000D03*
X121420000Y-63580000D03*
X121420000Y-64420000D03*
X120580000Y-64420000D03*
X120580000Y-63580000D03*
X57420000Y-19580000D03*
X57420000Y-20420000D03*
X56580000Y-20420000D03*
X56580000Y-19580000D03*
X111420000Y-71580000D03*
X111420000Y-72420000D03*
X110580000Y-72420000D03*
X110580000Y-71580000D03*
X59420000Y-55580000D03*
X59420000Y-56420000D03*
X58580000Y-56420000D03*
X58580000Y-55580000D03*
X47420000Y-65580000D03*
X47420000Y-66420000D03*
X46580000Y-66420000D03*
X46580000Y-65580000D03*
X57420000Y-25580000D03*
X57420000Y-26420000D03*
X56580000Y-26420000D03*
X56580000Y-25580000D03*
X117420000Y-67580000D03*
X117420000Y-68420000D03*
X116580000Y-68420000D03*
X116580000Y-67580000D03*
X43420000Y-55580000D03*
X43420000Y-56420000D03*
X42580000Y-56420000D03*
X42580000Y-55580000D03*
X57420000Y-61580000D03*
X57420000Y-62420000D03*
X56580000Y-62420000D03*
X56580000Y-61580000D03*
X105420000Y-63580000D03*
X105420000Y-64420000D03*
X104580000Y-64420000D03*
X104580000Y-63580000D03*
X113420000Y-49580000D03*
X113420000Y-50420000D03*
X112580000Y-50420000D03*
X112580000Y-49580000D03*
X149420000Y-51580000D03*
X149420000Y-52420000D03*
X148580000Y-52420000D03*
X148580000Y-51580000D03*
X117420000Y-47580000D03*
X117420000Y-48420000D03*
X116580000Y-48420000D03*
X116580000Y-47580000D03*
X101420000Y-63580000D03*
X101420000Y-64420000D03*
X100580000Y-64420000D03*
X100580000Y-63580000D03*
X87420000Y-67580000D03*
X87420000Y-68420000D03*
X86580000Y-68420000D03*
X86580000Y-67580000D03*
X91420000Y-91580000D03*
X91420000Y-92420000D03*
X90580000Y-92420000D03*
X90580000Y-91580000D03*
X67420000Y-73580000D03*
X67420000Y-74420000D03*
X66580000Y-74420000D03*
X66580000Y-73580000D03*
X145420000Y-35580000D03*
X145420000Y-36420000D03*
X144580000Y-36420000D03*
X144580000Y-35580000D03*
X79420000Y-23580000D03*
X79420000Y-24420000D03*
X78580000Y-24420000D03*
X78580000Y-23580000D03*
X139420000Y-75580000D03*
X139420000Y-76420000D03*
X138580000Y-76420000D03*
X138580000Y-75580000D03*
X95420000Y-67580000D03*
X95420000Y-68420000D03*
X94580000Y-68420000D03*
X94580000Y-67580000D03*
X143420000Y-51580000D03*
X143420000Y-52420000D03*
X142580000Y-52420000D03*
X142580000Y-51580000D03*
X67420000Y-89580000D03*
X67420000Y-90420000D03*
X66580000Y-90420000D03*
X66580000Y-89580000D03*
X73420000Y-53580000D03*
X73420000Y-54420000D03*
X72580000Y-54420000D03*
X72580000Y-53580000D03*
X139420000Y-71580000D03*
X139420000Y-72420000D03*
X138580000Y-72420000D03*
X138580000Y-71580000D03*
X111420000Y-69580000D03*
X111420000Y-70420000D03*
X110580000Y-70420000D03*
X110580000Y-69580000D03*
X135420000Y-21580000D03*
X135420000Y-22420000D03*
X134580000Y-22420000D03*
X134580000Y-21580000D03*
X151420000Y-29580000D03*
X151420000Y-30420000D03*
X150580000Y-30420000D03*
X150580000Y-29580000D03*
X113420000Y-29580000D03*
X113420000Y-30420000D03*
X112580000Y-30420000D03*
X112580000Y-29580000D03*
X71420000Y-49580000D03*
X71420000Y-50420000D03*
X70580000Y-50420000D03*
X70580000Y-49580000D03*
X43420000Y-35580000D03*
X43420000Y-36420000D03*
X42580000Y-36420000D03*
X42580000Y-35580000D03*
X101420000Y-43580000D03*
X101420000Y-44420000D03*
X100580000Y-44420000D03*
X100580000Y-43580000D03*
X91420000Y-71580000D03*
X91420000Y-72420000D03*
X90580000Y-72420000D03*
X90580000Y-71580000D03*
X131420000Y-91580000D03*
X131420000Y-92420000D03*
X130580000Y-92420000D03*
X130580000Y-91580000D03*
X123420000Y-79580000D03*
X123420000Y-80420000D03*
X122580000Y-80420000D03*
X122580000Y-79580000D03*
X53420000Y-73580000D03*
X53420000Y-74420000D03*
X52580000Y-74420000D03*
X52580000Y-73580000D03*
X105420000Y-29580000D03*
X105420000Y-30420000D03*
X104580000Y-30420000D03*
X104580000Y-29580000D03*
X91420000Y-85580000D03*
X91420000Y-86420000D03*
X90580000Y-86420000D03*
X90580000Y-85580000D03*
X73420000Y-43580000D03*
X73420000Y-44420000D03*
X72580000Y-44420000D03*
X72580000Y-43580000D03*
X101420000Y-81580000D03*
X101420000Y-82420000D03*
X100580000Y-82420000D03*
X100580000Y-81580000D03*
X43420000Y-67580000D03*
X43420000Y-68420000D03*
X42580000Y-68420000D03*
X42580000Y-67580000D03*
X55420000Y-43580000D03*
X55420000Y-44420000D03*
X54580000Y-44420000D03*
X54580000Y-43580000D03*
X45420000Y-43580000D03*
X45420000Y-44420000D03*
X44580000Y-44420000D03*
X44580000Y-43580000D03*
X151420000Y-59580000D03*
X151420000Y-60420000D03*
X150580000Y-60420000D03*
X150580000Y-59580000D03*
X49420000Y-87580000D03*
X49420000Y-88420000D03*
X48580000Y-88420000D03*
X48580000Y-87580000D03*
X145420000Y-45580000D03*
X145420000Y-46420000D03*
X144580000Y-46420000D03*
X144580000Y-45580000D03*
X95420000Y-35580000D03*
X95420000Y-36420000D03*
X94580000Y-36420000D03*
X94580000Y-35580000D03*
X63420000Y-53580000D03*
X63420000Y-54420000D03*
X62580000Y-54420000D03*
X62580000Y-53580000D03*
X47420000Y-69580000D03*
X47420000Y-70420000D03*
X46580000Y-70420000D03*
X46580000Y-69580000D03*
X121420000Y-85580000D03*
X121420000Y-86420000D03*
X120580000Y-86420000D03*
X120580000Y-85580000D03*
X63420000Y-19580000D03*
X63420000Y-20420000D03*
X62580000Y-20420000D03*
X62580000Y-19580000D03*
X59420000Y-45580000D03*
X59420000Y-46420000D03*
X58580000Y-46420000D03*
X58580000Y-45580000D03*
X85420000Y-63580000D03*
X85420000Y-64420000D03*
X84580000Y-64420000D03*
X84580000Y-63580000D03*
X117420000Y-75580000D03*
X117420000Y-76420000D03*
X116580000Y-76420000D03*
X116580000Y-75580000D03*
X145420000Y-19580000D03*
X145420000Y-20420000D03*
X144580000Y-20420000D03*
X144580000Y-19580000D03*
X117420000Y-29580000D03*
X117420000Y-30420000D03*
X116580000Y-30420000D03*
X116580000Y-29580000D03*
X111420000Y-89580000D03*
X111420000Y-90420000D03*
X110580000Y-90420000D03*
X110580000Y-89580000D03*
X107420000Y-59580000D03*
X107420000Y-60420000D03*
X106580000Y-60420000D03*
X106580000Y-59580000D03*
X79420000Y-89580000D03*
X79420000Y-90420000D03*
X78580000Y-90420000D03*
X78580000Y-89580000D03*
X99420000Y-93580000D03*
X99420000Y-94420000D03*
X98580000Y-94420000D03*
X98580000Y-93580000D03*
X111420000Y-29580000D03*
X111420000Y-30420000D03*
X110580000Y-30420000D03*
X110580000Y-29580000D03*
X135420000Y-61580000D03*
X135420000Y-62420000D03*
X134580000Y-62420000D03*
X134580000Y-61580000D03*
X137420000Y-85580000D03*
X137420000Y-86420000D03*
X136580000Y-86420000D03*
X136580000Y-85580000D03*
X135420000Y-67580000D03*
X135420000Y-68420000D03*
X134580000Y-68420000D03*
X134580000Y-67580000D03*
X99420000Y-39580000D03*
X99420000Y-40420000D03*
X98580000Y-40420000D03*
X98580000Y-39580000D03*
X85420000Y-49580000D03*
X85420000Y-50420000D03*
X84580000Y-50420000D03*
X84580000Y-49580000D03*
X71420000Y-69580000D03*
X71420000Y-70420000D03*
X70580000Y-70420000D03*
X70580000Y-69580000D03*
X141420000Y-43580000D03*
X141420000Y-44420000D03*
X140580000Y-44420000D03*
X140580000Y-43580000D03*
X123420000Y-43580000D03*
X123420000Y-44420000D03*
X122580000Y-44420000D03*
X122580000Y-43580000D03*
X147420000Y-45580000D03*
X147420000Y-46420000D03*
X146580000Y-46420000D03*
X146580000Y-45580000D03*
X73420000Y-39580000D03*
X73420000Y-40420000D03*
X72580000Y-40420000D03*
X72580000Y-39580000D03*
X149420000Y-25580000D03*
X149420000Y-26420000D03*
X148580000Y-26420000D03*
X148580000Y-25580000D03*
X105420000Y-59580000D03*
X105420000Y-60420000D03*
X104580000Y-60420000D03*
X104580000Y-59580000D03*
X129420000Y-43580000D03*
X129420000Y-44420000D03*
X128580000Y-44420000D03*
X128580000Y-43580000D03*
X129420000Y-23580000D03*
X129420000Y-24420000D03*
X128580000Y-24420000D03*
X128580000Y-23580000D03*
X107420000Y-69580000D03*
X107420000Y-70420000D03*
X106580000Y-70420000D03*
X106580000Y-69580000D03*
X147420000Y-73580000D03*
X147420000Y-74420000D03*
X146580000Y-74420000D03*
X146580000Y-73580000D03*
X135420000Y-63580000D03*
X135420000Y-64420000D03*
X134580000Y-64420000D03*
X134580000Y-63580000D03*
X89420000Y-81580000D03*
X89420000Y-82420000D03*
X88580000Y-82420000D03*
X88580000Y-81580000D03*
X77420000Y-89580000D03*
X77420000Y-90420000D03*
X76580000Y-90420000D03*
X76580000Y-89580000D03*
X151420000Y-33580000D03*
X151420000Y-34420000D03*
X150580000Y-34420000D03*
X150580000Y-33580000D03*
X119420000Y-87580000D03*
X119420000Y-88420000D03*
X118580000Y-88420000D03*
X118580000Y-87580000D03*
X121420000Y-75580000D03*
X121420000Y-76420000D03*
X120580000Y-76420000D03*
X120580000Y-75580000D03*
X101420000Y-51580000D03*
X101420000Y-52420000D03*
X100580000Y-52420000D03*
X100580000Y-51580000D03*
X55420000Y-73580000D03*
X55420000Y-74420000D03*
X54580000Y-74420000D03*
X54580000Y-73580000D03*
X67420000Y-79580000D03*
X67420000Y-80420000D03*
X66580000Y-80420000D03*
X66580000Y-79580000D03*
X61420000Y-61580000D03*
X61420000Y-62420000D03*
X60580000Y-62420000D03*
X60580000Y-61580000D03*
X113420000Y-59580000D03*
X113420000Y-60420000D03*
X112580000Y-60420000D03*
X112580000Y-59580000D03*
X73420000Y-89580000D03*
X73420000Y-90420000D03*
X72580000Y-90420000D03*
X72580000Y-89580000D03*
X103420000Y-47580000D03*
X103420000Y-48420000D03*
X102580000Y-48420000D03*
X102580000Y-47580000D03*
X131420000Y-43580000D03*
X131420000Y-44420000D03*
X130580000Y-44420000D03*
X130580000Y-43580000D03*
X61420000Y-21580000D03*
X61420000Y-22420000D03*
X60580000Y-22420000D03*
X60580000Y-21580000D03*
X95420000Y-91580000D03*
X95420000Y-92420000D03*
X94580000Y-92420000D03*
X94580000Y-91580000D03*
X147420000Y-79580000D03*
X147420000Y-80420000D03*
X146580000Y-80420000D03*
X146580000Y-79580000D03*
X129420000Y-93580000D03*
X129420000Y-94420000D03*
X128580000Y-94420000D03*
X128580000Y-93580000D03*
X119420000Y-75580000D03*
X119420000Y-76420000D03*
X118580000Y-76420000D03*
X118580000Y-75580000D03*
X147420000Y-53580000D03*
X147420000Y-54420000D03*
X146580000Y-54420000D03*
X146580000Y-53580000D03*
X149420000Y-61580000D03*
X149420000Y-62420000D03*
X148580000Y-62420000D03*
X148580000Y-61580000D03*
X117420000Y-55580000D03*
X117420000Y-56420000D03*
X116580000Y-56420000D03*
X116580000Y-55580000D03*
X81420000Y-55580000D03*
X81420000Y-56420000D03*
X80580000Y-56420000D03*
X80580000Y-55580000D03*
X131420000Y-49580000D03*
X131420000Y-50420000D03*
X130580000Y-50420000D03*
X130580000Y-49580000D03*
X141420000Y-35580000D03*
X141420000Y-36420000D03*
X140580000Y-36420000D03*
X140580000Y-35580000D03*
X45420000Y-95580000D03*
X45420000Y-96420000D03*
X44580000Y-96420000D03*
X44580000Y-95580000D03*
X67420000Y-45580000D03*
X67420000Y-46420000D03*
X66580000Y-46420000D03*
X66580000Y-45580000D03*
X95420000Y-21580000D03*
X95420000Y-22420000D03*
X94580000Y-22420000D03*
X94580000Y-21580000D03*
X51420000Y-69580000D03*
X51420000Y-70420000D03*
X50580000Y-70420000D03*
X50580000Y-69580000D03*
X71420000Y-55580000D03*
X71420000Y-56420000D03*
X70580000Y-56420000D03*
X70580000Y-55580000D03*
X129420000Y-71580000D03*
X129420000Y-72420000D03*
X128580000Y-72420000D03*
X128580000Y-71580000D03*
X135420000Y-55580000D03*
X135420000Y-56420000D03*
X134580000Y-56420000D03*
X134580000Y-55580000D03*
X61420000Y-79580000D03*
X61420000Y-80420000D03*
X60580000Y-80420000D03*
X60580000Y-79580000D03*
X51420000Y-27580000D03*
X51420000Y-28420000D03*
X50580000Y-28420000D03*
X50580000Y-27580000D03*
X63420000Y-43580000D03*
X63420000Y-44420000D03*
X62580000Y-44420000D03*
X62580000Y-43580000D03*
X83420000Y-85580000D03*
X83420000Y-86420000D03*
X82580000Y-86420000D03*
X82580000Y-85580000D03*
X113420000Y-35580000D03*
X113420000Y-36420000D03*
X112580000Y-36420000D03*
X112580000Y-35580000D03*
X123420000Y-93580000D03*
X123420000Y-94420000D03*
X122580000Y-94420000D03*
X122580000Y-93580000D03*
X99420000Y-85580000D03*
X99420000Y-86420000D03*
X98580000Y-86420000D03*
X98580000Y-85580000D03*
X73420000Y-51580000D03*
X73420000Y-52420000D03*
X72580000Y-52420000D03*
X72580000Y-51580000D03*
X103420000Y-35580000D03*
X103420000Y-36420000D03*
X102580000Y-36420000D03*
X102580000Y-35580000D03*
X117420000Y-23580000D03*
X117420000Y-24420000D03*
X116580000Y-24420000D03*
X116580000Y-23580000D03*
X105420000Y-73580000D03*
X105420000Y-74420000D03*
X104580000Y-74420000D03*
X104580000Y-73580000D03*
X129420000Y-47580000D03*
X129420000Y-48420000D03*
X128580000Y-48420000D03*
X128580000Y-47580000D03*
X147420000Y-61580000D03*
X147420000Y-62420000D03*
X146580000Y-62420000D03*
X146580000Y-61580000D03*
X119420000Y-19580000D03*
X119420000Y-20420000D03*
X118580000Y-20420000D03*
X118580000Y-19580000D03*
X133420000Y-65580000D03*
X133420000Y-66420000D03*
X132580000Y-66420000D03*
X132580000Y-65580000D03*
X145420000Y-39580000D03*
X145420000Y-40420000D03*
X144580000Y-40420000D03*
X144580000Y-39580000D03*
X101420000Y-71580000D03*
X101420000Y-72420000D03*
X100580000Y-72420000D03*
X100580000Y-71580000D03*
X123420000Y-61580000D03*
X123420000Y-62420000D03*
X122580000Y-62420000D03*
X122580000Y-61580000D03*
X75420000Y-41580000D03*
X75420000Y-42420000D03*
X74580000Y-42420000D03*
X74580000Y-41580000D03*
X49420000Y-19580000D03*
X49420000Y-20420000D03*
X48580000Y-20420000D03*
X48580000Y-19580000D03*
X133420000Y-91580000D03*
X133420000Y-92420000D03*
X132580000Y-92420000D03*
X132580000Y-91580000D03*
X107420000Y-85580000D03*
X107420000Y-86420000D03*
X106580000Y-86420000D03*
X106580000Y-85580000D03*
X147420000Y-63580000D03*
X147420000Y-64420000D03*
X146580000Y-64420000D03*
X146580000Y-63580000D03*
X107420000Y-71580000D03*
X107420000Y-72420000D03*
X106580000Y-72420000D03*
X106580000Y-71580000D03*
X105420000Y-41580000D03*
X105420000Y-42420000D03*
X104580000Y-42420000D03*
X104580000Y-41580000D03*
X103420000Y-83580000D03*
X103420000Y-84420000D03*
X102580000Y-84420000D03*
X102580000Y-83580000D03*
X93420000Y-39580000D03*
X93420000Y-40420000D03*
X92580000Y-40420000D03*
X92580000Y-39580000D03*
X119420000Y-81580000D03*
X119420000Y-82420000D03*
X118580000Y-82420000D03*
X118580000Y-81580000D03*
X99420000Y-73580000D03*
X99420000Y-74420000D03*
X98580000Y-74420000D03*
X98580000Y-73580000D03*
X131420000Y-55580000D03*
X131420000Y-56420000D03*
X130580000Y-56420000D03*
X130580000Y-55580000D03*
X61420000Y-19580000D03*
X61420000Y-20420000D03*
X60580000Y-20420000D03*
X60580000Y-19580000D03*
X129420000Y-91580000D03*
X129420000Y-92420000D03*
X128580000Y-92420000D03*
X128580000Y-91580000D03*
X45420000Y-63580000D03*
X45420000Y-64420000D03*
X44580000Y-64420000D03*
X44580000Y-63580000D03*
X67420000Y-83580000D03*
X67420000Y-84420000D03*
X66580000Y-84420000D03*
X66580000Y-83580000D03*
X105420000Y-19580000D03*
X105420000Y-20420000D03*
X104580000Y-20420000D03*
X104580000Y-19580000D03*
X115420000Y-75580000D03*
X115420000Y-76420000D03*
X114580000Y-76420000D03*
X114580000Y-75580000D03*
X55420000Y-53580000D03*
X55420000Y-54420000D03*
X54580000Y-54420000D03*
X54580000Y-53580000D03*
X111420000Y-79580000D03*
X111420000Y-80420000D03*
X110580000Y-80420000D03*
X110580000Y-79580000D03*
X73420000Y-71580000D03*
X73420000Y-72420000D03*
X72580000Y-72420000D03*
X72580000Y-71580000D03*
X137420000Y-21580000D03*
X137420000Y-22420000D03*
X136580000Y-22420000D03*
X136580000Y-21580000D03*
X133420000Y-27580000D03*
X133420000Y-28420000D03*
X132580000Y-28420000D03*
X132580000Y-27580000D03*
X63420000Y-75580000D03*
X63420000Y-76420000D03*
X62580000Y-76420000D03*
X62580000Y-75580000D03*
X59420000Y-73580000D03*
X59420000Y-74420000D03*
X58580000Y-74420000D03*
X58580000Y-73580000D03*
X71420000Y-59580000D03*
X71420000Y-60420000D03*
X70580000Y-60420000D03*
X70580000Y-59580000D03*
X89420000Y-79580000D03*
X89420000Y-80420000D03*
X88580000Y-80420000D03*
X88580000Y-79580000D03*
X113420000Y-93580000D03*
X113420000Y-94420000D03*
X112580000Y-94420000D03*
X112580000Y-93580000D03*
X95420000Y-71580000D03*
X95420000Y-72420000D03*
X94580000Y-72420000D03*
X94580000Y-71580000D03*
X59420000Y-47580000D03*
X59420000Y-48420000D03*
X58580000Y-48420000D03*
X58580000Y-47580000D03*
X49420000Y-67580000D03*
X49420000Y-68420000D03*
X48580000Y-68420000D03*
X48580000Y-67580000D03*
X127420000Y-83580000D03*
X127420000Y-84420000D03*
X126580000Y-84420000D03*
X126580000Y-83580000D03*
X151420000Y-71580000D03*
X151420000Y-72420000D03*
X150580000Y-72420000D03*
X150580000Y-71580000D03*
X95420000Y-59580000D03*
X95420000Y-60420000D03*
X94580000Y-60420000D03*
X94580000Y-59580000D03*
X83420000Y-21580000D03*
X83420000Y-22420000D03*
X82580000Y-22420000D03*
X82580000Y-21580000D03*
X129420000Y-73580000D03*
X129420000Y-74420000D03*
X128580000Y-74420000D03*
X128580000Y-73580000D03*
X65420000Y-53580000D03*
X65420000Y-54420000D03*
X64580000Y-54420000D03*
X64580000Y-53580000D03*
X83420000Y-41580000D03*
X83420000Y-42420000D03*
X82580000Y-42420000D03*
X82580000Y-41580000D03*
X99420000Y-83580000D03*
X99420000Y-84420000D03*
X98580000Y-84420000D03*
X98580000Y-83580000D03*
X87420000Y-23580000D03*
X87420000Y-24420000D03*
X86580000Y-24420000D03*
X86580000Y-23580000D03*
X105420000Y-45580000D03*
X105420000Y-46420000D03*
X104580000Y-46420000D03*
X104580000Y-45580000D03*
X61420000Y-51580000D03*
X61420000Y-52420000D03*
X60580000Y-52420000D03*
X60580000Y-51580000D03*
X63420000Y-71580000D03*
X63420000Y-72420000D03*
X62580000Y-72420000D03*
X62580000Y-71580000D03*
X73420000Y-95580000D03*
X73420000Y-96420000D03*
X72580000Y-96420000D03*
X72580000Y-95580000D03*
X127420000Y-71580000D03*
X127420000Y-72420000D03*
X126580000Y-72420000D03*
X126580000Y-71580000D03*
X129420000Y-45580000D03*
X129420000Y-46420000D03*
X128580000Y-46420000D03*
X128580000Y-45580000D03*
X71420000Y-63580000D03*
X71420000Y-64420000D03*
X70580000Y-64420000D03*
X70580000Y-63580000D03*
X89420000Y-25580000D03*
X89420000Y-26420000D03*
X88580000Y-26420000D03*
X88580000Y-25580000D03*
X45420000Y-59580000D03*
X45420000Y-60420000D03*
X44580000Y-60420000D03*
X44580000Y-59580000D03*
X47420000Y-33580000D03*
X47420000Y-34420000D03*
X46580000Y-34420000D03*
X46580000Y-33580000D03*
X109420000Y-45580000D03*
X109420000Y-46420000D03*
X108580000Y-46420000D03*
X108580000Y-45580000D03*
X111420000Y-27580000D03*
X111420000Y-28420000D03*
X110580000Y-28420000D03*
X110580000Y-27580000D03*
X135420000Y-53580000D03*
X135420000Y-54420000D03*
X134580000Y-54420000D03*
X134580000Y-53580000D03*
X101420000Y-33580000D03*
X101420000Y-34420000D03*
X100580000Y-34420000D03*
X100580000Y-33580000D03*
X95420000Y-95580000D03*
X95420000Y-96420000D03*
X94580000Y-96420000D03*
X94580000Y-95580000D03*
X93420000Y-89580000D03*
X93420000Y-90420000D03*
X92580000Y-90420000D03*
X92580000Y-89580000D03*
X83420000Y-39580000D03*
X83420000Y-40420000D03*
X82580000Y-40420000D03*
X82580000Y-39580000D03*
X45420000Y-81580000D03*
X45420000Y-82420000D03*
X44580000Y-82420000D03*
X44580000Y-81580000D03*
X101420000Y-31580000D03*
X101420000Y-32420000D03*
X100580000Y-32420000D03*
X100580000Y-31580000D03*
X47420000Y-25580000D03*
X47420000Y-26420000D03*
X46580000Y-26420000D03*
X46580000Y-25580000D03*
X57420000Y-69580000D03*
X57420000Y-70420000D03*
X56580000Y-70420000D03*
X56580000Y-69580000D03*
X135420000Y-35580000D03*
X135420000Y-36420000D03*
X134580000Y-36420000D03*
X134580000Y-35580000D03*
X117420000Y-79580000D03*
X117420000Y-80420000D03*
X116580000Y-80420000D03*
X116580000Y-79580000D03*
X61420000Y-75580000D03*
X61420000Y-76420000D03*
X60580000Y-76420000D03*
X60580000Y-75580000D03*
X119420000Y-61580000D03*
X119420000Y-62420000D03*
X118580000Y-62420000D03*
X118580000Y-61580000D03*
X139420000Y-47580000D03*
X139420000Y-48420000D03*
X138580000Y-48420000D03*
X138580000Y-47580000D03*
X77420000Y-91580000D03*
X77420000Y-92420000D03*
X76580000Y-92420000D03*
X76580000Y-91580000D03*
X129420000Y-95580000D03*
X129420000Y-96420000D03*
X128580000Y-96420000D03*
X128580000Y-95580000D03*
X61420000Y-47580000D03*
X61420000Y-48420000D03*
X60580000Y-48420000D03*
X60580000Y-47580000D03*
X133420000Y-41580000D03*
X133420000Y-42420000D03*
X132580000Y-42420000D03*
X132580000Y-41580000D03*
X83420000Y-19580000D03*
X83420000Y-20420000D03*
X82580000Y-20420000D03*
X82580000Y-19580000D03*
X151420000Y-65580000D03*
X151420000Y-66420000D03*
X150580000Y-66420000D03*
X150580000Y-65580000D03*
X123420000Y-35580000D03*
X123420000Y-36420000D03*
X122580000Y-36420000D03*
X122580000Y-35580000D03*
X53420000Y-87580000D03*
X53420000Y-88420000D03*
X52580000Y-88420000D03*
X52580000Y-87580000D03*
X107420000Y-53580000D03*
X107420000Y-54420000D03*
X106580000Y-54420000D03*
X106580000Y-53580000D03*
X111420000Y-43580000D03*
X111420000Y-44420000D03*
X110580000Y-44420000D03*
X110580000Y-43580000D03*
X101420000Y-41580000D03*
X101420000Y-42420000D03*
X100580000Y-42420000D03*
X100580000Y-41580000D03*
X121420000Y-47580000D03*
X121420000Y-48420000D03*
X120580000Y-48420000D03*
X120580000Y-47580000D03*
X111420000Y-75580000D03*
X111420000Y-76420000D03*
X110580000Y-76420000D03*
X110580000Y-75580000D03*
X141420000Y-59580000D03*
X141420000Y-60420000D03*
X140580000Y-60420000D03*
X140580000Y-59580000D03*
X107420000Y-47580000D03*
X107420000Y-48420000D03*
X106580000Y-48420000D03*
X106580000Y-47580000D03*
X117420000Y-21580000D03*
X117420000Y-22420000D03*
X116580000Y-22420000D03*
X116580000Y-21580000D03*
X115420000Y-39580000D03*
X115420000Y-40420000D03*
X114580000Y-40420000D03*
X114580000Y-39580000D03*
X115420000Y-53580000D03*
X115420000Y-54420000D03*
X114580000Y-54420000D03*
X114580000Y-53580000D03*
X115420000Y-19580000D03*
X115420000Y-20420000D03*
X114580000Y-20420000D03*
X114580000Y-19580000D03*
X139420000Y-63580000D03*
X139420000Y-64420000D03*
X138580000Y-64420000D03*
X138580000Y-63580000D03*
X123420000Y-51580000D03*
X123420000Y-52420000D03*
X122580000Y-52420000D03*
X122580000Y-51580000D03*
X105420000Y-65580000D03*
X105420000Y-66420000D03*
X104580000Y-66420000D03*
X104580000Y-65580000D03*
X99420000Y-69580000D03*
X99420000Y-70420000D03*
X98580000Y-70420000D03*
X98580000Y-69580000D03*
X117420000Y-61580000D03*
X117420000Y-62420000D03*
X116580000Y-62420000D03*
X116580000Y-61580000D03*
X149420000Y-71580000D03*
X149420000Y-72420000D03*
X148580000Y-72420000D03*
X148580000Y-71580000D03*
X61420000Y-93580000D03*
X61420000Y-94420000D03*
X60580000Y-94420000D03*
X60580000Y-93580000D03*
X51420000Y-95580000D03*
X51420000Y-96420000D03*
X50580000Y-96420000D03*
X50580000Y-95580000D03*
X123420000Y-63580000D03*
X123420000Y-64420000D03*
X122580000Y-64420000D03*
X122580000Y-63580000D03*
X147420000Y-29580000D03*
X147420000Y-30420000D03*
X146580000Y-30420000D03*
X146580000Y-29580000D03*
X75420000Y-59580000D03*
X75420000Y-60420000D03*
X74580000Y-60420000D03*
X74580000Y-59580000D03*
X151420000Y-41580000D03*
X151420000Y-42420000D03*
X150580000Y-42420000D03*
X150580000Y-41580000D03*
X75420000Y-85580000D03*
X75420000Y-86420000D03*
X74580000Y-86420000D03*
X74580000Y-85580000D03*
X79420000Y-31580000D03*
X79420000Y-32420000D03*
X78580000Y-32420000D03*
X78580000Y-31580000D03*
X143420000Y-41580000D03*
X143420000Y-42420000D03*
X142580000Y-42420000D03*
X142580000Y-41580000D03*
X101420000Y-21580000D03*
X101420000Y-22420000D03*
X100580000Y-22420000D03*
X100580000Y-21580000D03*
X149420000Y-95580000D03*
X149420000Y-96420000D03*
X148580000Y-96420000D03*
X148580000Y-95580000D03*
X49420000Y-23580000D03*
X49420000Y-24420000D03*
X48580000Y-24420000D03*
X48580000Y-23580000D03*
X49420000Y-55580000D03*
X49420000Y-56420000D03*
X48580000Y-56420000D03*
X48580000Y-55580000D03*
X135420000Y-83580000D03*
X135420000Y-84420000D03*
X134580000Y-84420000D03*
X134580000Y-83580000D03*
X123420000Y-47580000D03*
X123420000Y-48420000D03*
X122580000Y-48420000D03*
X122580000Y-47580000D03*
X55420000Y-25580000D03*
X55420000Y-26420000D03*
X54580000Y-26420000D03*
X54580000Y-25580000D03*
X85420000Y-43580000D03*
X85420000Y-44420000D03*
X84580000Y-44420000D03*
X84580000Y-43580000D03*
X101420000Y-53580000D03*
X101420000Y-54420000D03*
X100580000Y-54420000D03*
X100580000Y-53580000D03*
X77420000Y-31580000D03*
X77420000Y-32420000D03*
X76580000Y-32420000D03*
X76580000Y-31580000D03*
X145420000Y-47580000D03*
X145420000Y-48420000D03*
X144580000Y-48420000D03*
X144580000Y-47580000D03*
X123420000Y-39580000D03*
X123420000Y-40420000D03*
X122580000Y-40420000D03*
X122580000Y-39580000D03*
X65420000Y-73580000D03*
X65420000Y-74420000D03*
X64580000Y-74420000D03*
X64580000Y-73580000D03*
X89420000Y-31580000D03*
X89420000Y-32420000D03*
X88580000Y-32420000D03*
X88580000Y-31580000D03*
X45420000Y-49580000D03*
X45420000Y-50420000D03*
X44580000Y-50420000D03*
X44580000Y-49580000D03*
X139420000Y-67580000D03*
X139420000Y-68420000D03*
X138580000Y-68420000D03*
X138580000Y-67580000D03*
X79420000Y-49580000D03*
X79420000Y-50420000D03*
X78580000Y-50420000D03*
X78580000Y-49580000D03*
X43420000Y-51580000D03*
X43420000Y-52420000D03*
X42580000Y-52420000D03*
X42580000Y-51580000D03*
X85420000Y-45580000D03*
X85420000Y-46420000D03*
X84580000Y-46420000D03*
X84580000Y-45580000D03*
X107420000Y-73580000D03*
X107420000Y-74420000D03*
X106580000Y-74420000D03*
X106580000Y-73580000D03*
X45420000Y-65580000D03*
X45420000Y-66420000D03*
X44580000Y-66420000D03*
X44580000Y-65580000D03*
X89420000Y-89580000D03*
X89420000Y-90420000D03*
X88580000Y-90420000D03*
X88580000Y-89580000D03*
X45420000Y-89580000D03*
X45420000Y-90420000D03*
X44580000Y-90420000D03*
X44580000Y-89580000D03*
X91420000Y-41580000D03*
X91420000Y-42420000D03*
X90580000Y-42420000D03*
X90580000Y-41580000D03*
X87420000Y-45580000D03*
X87420000Y-46420000D03*
X86580000Y-46420000D03*
X86580000Y-45580000D03*
X45420000Y-21580000D03*
X45420000Y-22420000D03*
X44580000Y-22420000D03*
X44580000Y-21580000D03*
X111420000Y-39580000D03*
X111420000Y-40420000D03*
X110580000Y-40420000D03*
X110580000Y-39580000D03*
X95420000Y-41580000D03*
X95420000Y-42420000D03*
X94580000Y-42420000D03*
X94580000Y-41580000D03*
X63420000Y-59580000D03*
X63420000Y-60420000D03*
X62580000Y-60420000D03*
X62580000Y-59580000D03*
X55420000Y-41580000D03*
X55420000Y-42420000D03*
X54580000Y-42420000D03*
X54580000Y-41580000D03*
X43420000Y-29580000D03*
X43420000Y-30420000D03*
X42580000Y-30420000D03*
X42580000Y-29580000D03*
X63420000Y-79580000D03*
X63420000Y-80420000D03*
X62580000Y-80420000D03*
X62580000Y-79580000D03*
X63420000Y-93580000D03*
X63420000Y-94420000D03*
X62580000Y-94420000D03*
X62580000Y-93580000D03*
X99420000Y-55580000D03*
X99420000Y-56420000D03*
X98580000Y-56420000D03*
X98580000Y-55580000D03*
X107420000Y-19580000D03*
X107420000Y-20420000D03*
X106580000Y-20420000D03*
X106580000Y-19580000D03*
X91420000Y-19580000D03*
X91420000Y-20420000D03*
X90580000Y-20420000D03*
X90580000Y-19580000D03*
X91420000Y-69580000D03*
X91420000Y-70420000D03*
X90580000Y-70420000D03*
X90580000Y-69580000D03*
X47420000Y-53580000D03*
X47420000Y-54420000D03*
X46580000Y-54420000D03*
X46580000Y-53580000D03*
X55420000Y-21580000D03*
X55420000Y-22420000D03*
X54580000Y-22420000D03*
X54580000Y-21580000D03*
X95420000Y-39580000D03*
X95420000Y-40420000D03*
X94580000Y-40420000D03*
X94580000Y-39580000D03*
X137420000Y-55580000D03*
X137420000Y-56420000D03*
X136580000Y-56420000D03*
X136580000Y-55580000D03*
X57420000Y-89580000D03*
X57420000Y-90420000D03*
X56580000Y-90420000D03*
X56580000Y-89580000D03*
X111420000Y-45580000D03*
X111420000Y-46420000D03*
X110580000Y-46420000D03*
X110580000Y-45580000D03*
X95420000Y-45580000D03*
X95420000Y-46420000D03*
X94580000Y-46420000D03*
X94580000Y-45580000D03*
X121420000Y-33580000D03*
X121420000Y-34420000D03*
X120580000Y-34420000D03*
X120580000Y-33580000D03*
X81420000Y-93580000D03*
X81420000Y-94420000D03*
X80580000Y-94420000D03*
X80580000Y-93580000D03*
X63420000Y-95580000D03*
X63420000Y-96420000D03*
X62580000Y-96420000D03*
X62580000Y-95580000D03*
X61420000Y-71580000D03*
X61420000Y-72420000D03*
X60580000Y-72420000D03*
X60580000Y-71580000D03*
X127420000Y-91580000D03*
X127420000Y-92420000D03*
X126580000Y-92420000D03*
X126580000Y-91580000D03*
X147420000Y-41580000D03*
X147420000Y-42420000D03*
X146580000Y-42420000D03*
X146580000Y-41580000D03*
X77420000Y-73580000D03*
X77420000Y-74420000D03*
X76580000Y-74420000D03*
X76580000Y-73580000D03*
X117420000Y-89580000D03*
X117420000Y-90420000D03*
X116580000Y-90420000D03*
X116580000Y-89580000D03*
X47420000Y-95580000D03*
X47420000Y-96420000D03*
X46580000Y-96420000D03*
X46580000Y-95580000D03*
X127420000Y-31580000D03*
X127420000Y-32420000D03*
X126580000Y-32420000D03*
X126580000Y-31580000D03*
X85420000Y-65580000D03*
X85420000Y-66420000D03*
X84580000Y-66420000D03*
X84580000Y-65580000D03*
X143420000Y-53580000D03*
X143420000Y-54420000D03*
X142580000Y-54420000D03*
X142580000Y-53580000D03*
X99420000Y-29580000D03*
X99420000Y-30420000D03*
X98580000Y-30420000D03*
X98580000Y-29580000D03*
X77420000Y-83580000D03*
X77420000Y-84420000D03*
X76580000Y-84420000D03*
X76580000Y-83580000D03*
X107420000Y-45580000D03*
X107420000Y-46420000D03*
X106580000Y-46420000D03*
X106580000Y-45580000D03*
X43420000Y-53580000D03*
X43420000Y-54420000D03*
X42580000Y-54420000D03*
X42580000Y-53580000D03*
X113420000Y-83580000D03*
X113420000Y-84420000D03*
X112580000Y-84420000D03*
X112580000Y-83580000D03*
X127420000Y-35580000D03*
X127420000Y-36420000D03*
X126580000Y-36420000D03*
X126580000Y-35580000D03*
X99420000Y-43580000D03*
X99420000Y-44420000D03*
X98580000Y-44420000D03*
X98580000Y-43580000D03*
X55420000Y-55580000D03*
X55420000Y-56420000D03*
X54580000Y-56420000D03*
X54580000Y-55580000D03*
X133420000Y-87580000D03*
X133420000Y-88420000D03*
X132580000Y-88420000D03*
X132580000Y-87580000D03*
X73420000Y-27580000D03*
X73420000Y-28420000D03*
X72580000Y-28420000D03*
X72580000Y-27580000D03*
X109420000Y-41580000D03*
X109420000Y-42420000D03*
X108580000Y-42420000D03*
X108580000Y-41580000D03*
X117420000Y-49580000D03*
X117420000Y-50420000D03*
X116580000Y-50420000D03*
X116580000Y-49580000D03*
X107420000Y-39580000D03*
X107420000Y-40420000D03*
X106580000Y-40420000D03*
X106580000Y-39580000D03*
X49420000Y-71580000D03*
X49420000Y-72420000D03*
X48580000Y-72420000D03*
X48580000Y-71580000D03*
X61420000Y-63580000D03*
X61420000Y-64420000D03*
X60580000Y-64420000D03*
X60580000Y-63580000D03*
X67420000Y-25580000D03*
X67420000Y-26420000D03*
X66580000Y-26420000D03*
X66580000Y-25580000D03*
X61420000Y-27580000D03*
X61420000Y-28420000D03*
X60580000Y-28420000D03*
X60580000Y-27580000D03*
X65420000Y-31580000D03*
X65420000Y-32420000D03*
X64580000Y-32420000D03*
X64580000Y-31580000D03*
X65420000Y-59580000D03*
X65420000Y-60420000D03*
X64580000Y-60420000D03*
X64580000Y-59580000D03*
X105420000Y-23580000D03*
X105420000Y-24420000D03*
X104580000Y-24420000D03*
X104580000Y-23580000D03*
X139420000Y-59580000D03*
X139420000Y-60420000D03*
X138580000Y-60420000D03*
X138580000Y-59580000D03*
X95420000Y-53580000D03*
X95420000Y-54420000D03*
X94580000Y-54420000D03*
X94580000Y-53580000D03*
X135420000Y-33580000D03*
X135420000Y-34420000D03*
X134580000Y-34420000D03*
X134580000Y-33580000D03*
X83420000Y-31580000D03*
X83420000Y-32420000D03*
X82580000Y-32420000D03*
X82580000Y-31580000D03*
X133420000Y-81580000D03*
X133420000Y-82420000D03*
X132580000Y-82420000D03*
X132580000Y-81580000D03*
X131420000Y-39580000D03*
X131420000Y-40420000D03*
X130580000Y-40420000D03*
X130580000Y-39580000D03*
X61420000Y-65580000D03*
X61420000Y-66420000D03*
X60580000Y-66420000D03*
X60580000Y-65580000D03*
X51420000Y-31580000D03*
X51420000Y-32420000D03*
X50580000Y-32420000D03*
X50580000Y-31580000D03*
X147420000Y-91580000D03*
X147420000Y-92420000D03*
X146580000Y-92420000D03*
X146580000Y-91580000D03*
X71420000Y-91580000D03*
X71420000Y-92420000D03*
X70580000Y-92420000D03*
X70580000Y-91580000D03*
X147420000Y-87580000D03*
X147420000Y-88420000D03*
X146580000Y-88420000D03*
X146580000Y-87580000D03*
X139420000Y-53580000D03*
X139420000Y-54420000D03*
X138580000Y-54420000D03*
X138580000Y-53580000D03*
X105420000Y-91580000D03*
X105420000Y-92420000D03*
X104580000Y-92420000D03*
X104580000Y-91580000D03*
X151420000Y-19580000D03*
X151420000Y-20420000D03*
X150580000Y-20420000D03*
X150580000Y-19580000D03*
X79420000Y-85580000D03*
X79420000Y-86420000D03*
X78580000Y-86420000D03*
X78580000Y-85580000D03*
X67420000Y-65580000D03*
X67420000Y-66420000D03*
X66580000Y-66420000D03*
X66580000Y-65580000D03*
X137420000Y-31580000D03*
X137420000Y-32420000D03*
X136580000Y-32420000D03*
X136580000Y-31580000D03*
X95420000Y-51580000D03*
X95420000Y-52420000D03*
X94580000Y-52420000D03*
X94580000Y-51580000D03*
X81420000Y-85580000D03*
X81420000Y-86420000D03*
X80580000Y-86420000D03*
X80580000Y-85580000D03*
X139420000Y-79580000D03*
X139420000Y-80420000D03*
X138580000Y-80420000D03*
X138580000Y-79580000D03*
X75420000Y-45580000D03*
X75420000Y-46420000D03*
X74580000Y-46420000D03*
X74580000Y-45580000D03*
X105420000Y-69580000D03*
X105420000Y-70420000D03*
X104580000Y-70420000D03*
X104580000Y-69580000D03*
X145420000Y-59580000D03*
X145420000Y-60420000D03*
X144580000Y-60420000D03*
X144580000Y-59580000D03*
X89420000Y-49580000D03*
X89420000Y-50420000D03*
X88580000Y-50420000D03*
X88580000Y-49580000D03*
X85420000Y-87580000D03*
X85420000Y-88420000D03*
X84580000Y-88420000D03*
X84580000Y-87580000D03*
X53420000Y-83580000D03*
X53420000Y-84420000D03*
X52580000Y-84420000D03*
X52580000Y-83580000D03*
X45420000Y-27580000D03*
X45420000Y-28420000D03*
X44580000Y-28420000D03*
X44580000Y-27580000D03*
X57420000Y-93580000D03*
X57420000Y-94420000D03*
X56580000Y-94420000D03*
X56580000Y-93580000D03*
X49420000Y-27580000D03*
X49420000Y-28420000D03*
X48580000Y-28420000D03*
X48580000Y-27580000D03*
X131420000Y-67580000D03*
X131420000Y-68420000D03*
X130580000Y-68420000D03*
X130580000Y-67580000D03*
X85420000Y-33580000D03*
X85420000Y-34420000D03*
X84580000Y-34420000D03*
X84580000Y-33580000D03*
X123420000Y-85580000D03*
X123420000Y-86420000D03*
X122580000Y-86420000D03*
X122580000Y-85580000D03*
X119420000Y-85580000D03*
X119420000Y-86420000D03*
X118580000Y-86420000D03*
X118580000Y-85580000D03*
X149420000Y-75580000D03*
X149420000Y-76420000D03*
X148580000Y-76420000D03*
X148580000Y-75580000D03*
X143420000Y-43580000D03*
X143420000Y-44420000D03*
X142580000Y-44420000D03*
X142580000Y-43580000D03*
X151420000Y-91580000D03*
X151420000Y-92420000D03*
X150580000Y-92420000D03*
X150580000Y-91580000D03*
X87420000Y-53580000D03*
X87420000Y-54420000D03*
X86580000Y-54420000D03*
X86580000Y-53580000D03*
X141420000Y-95580000D03*
X141420000Y-96420000D03*
X140580000Y-96420000D03*
X140580000Y-95580000D03*
X95420000Y-65580000D03*
X95420000Y-66420000D03*
X94580000Y-66420000D03*
X94580000Y-65580000D03*
X133420000Y-25580000D03*
X133420000Y-26420000D03*
X132580000Y-26420000D03*
X132580000Y-25580000D03*
X109420000Y-53580000D03*
X109420000Y-54420000D03*
X108580000Y-54420000D03*
X108580000Y-53580000D03*
X61420000Y-89580000D03*
X61420000Y-90420000D03*
X60580000Y-90420000D03*
X60580000Y-89580000D03*
X61420000Y-49580000D03*
X61420000Y-50420000D03*
X60580000Y-50420000D03*
X60580000Y-49580000D03*
X95420000Y-93580000D03*
X95420000Y-94420000D03*
X94580000Y-94420000D03*
X94580000Y-93580000D03*
X131420000Y-63580000D03*
X131420000Y-64420000D03*
X130580000Y-64420000D03*
X130580000Y-63580000D03*
X53420000Y-79580000D03*
X53420000Y-80420000D03*
X52580000Y-80420000D03*
X52580000Y-79580000D03*
X65420000Y-91580000D03*
X65420000Y-92420000D03*
X64580000Y-92420000D03*
X64580000Y-91580000D03*
X113420000Y-89580000D03*
X113420000Y-90420000D03*
X112580000Y-90420000D03*
X112580000Y-89580000D03*
X105420000Y-83580000D03*
X105420000Y-84420000D03*
X104580000Y-84420000D03*
X104580000Y-83580000D03*
X59420000Y-33580000D03*
X59420000Y-34420000D03*
X58580000Y-34420000D03*
X58580000Y-33580000D03*
X49420000Y-33580000D03*
X49420000Y-34420000D03*
X48580000Y-34420000D03*
X48580000Y-33580000D03*
X141420000Y-39580000D03*
X141420000Y-40420000D03*
X140580000Y-40420000D03*
X140580000Y-39580000D03*
X115420000Y-83580000D03*
X115420000Y-84420000D03*
X114580000Y-84420000D03*
X114580000Y-83580000D03*
X145420000Y-51580000D03*
X145420000Y-52420000D03*
X144580000Y-52420000D03*
X144580000Y-51580000D03*
X49420000Y-41580000D03*
X49420000Y-42420000D03*
X48580000Y-42420000D03*
X48580000Y-41580000D03*
X107420000Y-89580000D03*
X107420000Y-90420000D03*
X106580000Y-90420000D03*
X106580000Y-89580000D03*
X91420000Y-49580000D03*
X91420000Y-50420000D03*
X90580000Y-50420000D03*
X90580000Y-49580000D03*
X61420000Y-45580000D03*
X61420000Y-46420000D03*
X60580000Y-46420000D03*
X60580000Y-45580000D03*
X113420000Y-39580000D03*
X113420000Y-40420000D03*
X112580000Y-40420000D03*
X112580000Y-39580000D03*
X107420000Y-79580000D03*
X107420000Y-80420000D03*
X106580000Y-80420000D03*
X106580000Y-79580000D03*
X57420000Y-53580000D03*
X57420000Y-54420000D03*
X56580000Y-54420000D03*
X56580000Y-53580000D03*
X139420000Y-25580000D03*
X139420000Y-26420000D03*
X138580000Y-26420000D03*
X138580000Y-25580000D03*
X147420000Y-89580000D03*
X147420000Y-90420000D03*
X146580000Y-90420000D03*
X146580000Y-89580000D03*
X141420000Y-79580000D03*
X141420000Y-80420000D03*
X140580000Y-80420000D03*
X140580000Y-79580000D03*
X127420000Y-25580000D03*
X127420000Y-26420000D03*
X126580000Y-26420000D03*
X126580000Y-25580000D03*
X111420000Y-95580000D03*
X111420000Y-96420000D03*
X110580000Y-96420000D03*
X110580000Y-95580000D03*
X147420000Y-25580000D03*
X147420000Y-26420000D03*
X146580000Y-26420000D03*
X146580000Y-25580000D03*
X113420000Y-51580000D03*
X113420000Y-52420000D03*
X112580000Y-52420000D03*
X112580000Y-51580000D03*
X81420000Y-43580000D03*
X81420000Y-44420000D03*
X80580000Y-44420000D03*
X80580000Y-43580000D03*
X83420000Y-63580000D03*
X83420000Y-64420000D03*
X82580000Y-64420000D03*
X82580000Y-63580000D03*
X49420000Y-31580000D03*
X49420000Y-32420000D03*
X48580000Y-32420000D03*
X48580000Y-31580000D03*
X83420000Y-87580000D03*
X83420000Y-88420000D03*
X82580000Y-88420000D03*
X82580000Y-87580000D03*
X65420000Y-47580000D03*
X65420000Y-48420000D03*
X64580000Y-48420000D03*
X64580000Y-47580000D03*
X89420000Y-91580000D03*
X89420000Y-92420000D03*
X88580000Y-92420000D03*
X88580000Y-91580000D03*
X133420000Y-75580000D03*
X133420000Y-76420000D03*
X132580000Y-76420000D03*
X132580000Y-75580000D03*
X111420000Y-41580000D03*
X111420000Y-42420000D03*
X110580000Y-42420000D03*
X110580000Y-41580000D03*
X115420000Y-23580000D03*
X115420000Y-24420000D03*
X114580000Y-24420000D03*
X114580000Y-23580000D03*
X91420000Y-35580000D03*
X91420000Y-36420000D03*
X90580000Y-36420000D03*
X90580000Y-35580000D03*
X77420000Y-69580000D03*
X77420000Y-70420000D03*
X76580000Y-70420000D03*
X76580000Y-69580000D03*
X119420000Y-71580000D03*
X119420000Y-72420000D03*
X118580000Y-72420000D03*
X118580000Y-71580000D03*
X101420000Y-25580000D03*
X101420000Y-26420000D03*
X100580000Y-26420000D03*
X100580000Y-25580000D03*
X135420000Y-47580000D03*
X135420000Y-48420000D03*
X134580000Y-48420000D03*
X134580000Y-47580000D03*
X115420000Y-73580000D03*
X115420000Y-74420000D03*
X114580000Y-74420000D03*
X114580000Y-73580000D03*
X91420000Y-27580000D03*
X91420000Y-28420000D03*
X90580000Y-28420000D03*
X90580000Y-27580000D03*
X109420000Y-49580000D03*
X109420000Y-50420000D03*
X108580000Y-50420000D03*
X108580000Y-49580000D03*
X99420000Y-19580000D03*
X99420000Y-20420000D03*
X98580000Y-20420000D03*
X98580000Y-19580000D03*
X43420000Y-61580000D03*
X43420000Y-62420000D03*
X42580000Y-62420000D03*
X42580000Y-61580000D03*
X149420000Y-67580000D03*
X149420000Y-68420000D03*
X148580000Y-68420000D03*
X148580000Y-67580000D03*
X71420000Y-31580000D03*
X71420000Y-32420000D03*
X70580000Y-32420000D03*
X70580000Y-31580000D03*
X49420000Y-45580000D03*
X49420000Y-46420000D03*
X48580000Y-46420000D03*
X48580000Y-45580000D03*
X67420000Y-39580000D03*
X67420000Y-40420000D03*
X66580000Y-40420000D03*
X66580000Y-39580000D03*
X151420000Y-51580000D03*
X151420000Y-52420000D03*
X150580000Y-52420000D03*
X150580000Y-51580000D03*
X89420000Y-39580000D03*
X89420000Y-40420000D03*
X88580000Y-40420000D03*
X88580000Y-39580000D03*
X109420000Y-39580000D03*
X109420000Y-40420000D03*
X108580000Y-40420000D03*
X108580000Y-39580000D03*
X147420000Y-83580000D03*
X147420000Y-84420000D03*
X146580000Y-84420000D03*
X146580000Y-83580000D03*
X109420000Y-33580000D03*
X109420000Y-34420000D03*
X108580000Y-34420000D03*
X108580000Y-33580000D03*
X77420000Y-95580000D03*
X77420000Y-96420000D03*
X76580000Y-96420000D03*
X76580000Y-95580000D03*
X141420000Y-25580000D03*
X141420000Y-26420000D03*
X140580000Y-26420000D03*
X140580000Y-25580000D03*
X47420000Y-93580000D03*
X47420000Y-94420000D03*
X46580000Y-94420000D03*
X46580000Y-93580000D03*
X141420000Y-53580000D03*
X141420000Y-54420000D03*
X140580000Y-54420000D03*
X140580000Y-53580000D03*
X73420000Y-85580000D03*
X73420000Y-86420000D03*
X72580000Y-86420000D03*
X72580000Y-85580000D03*
X127420000Y-39580000D03*
X127420000Y-40420000D03*
X126580000Y-40420000D03*
X126580000Y-39580000D03*
X117420000Y-83580000D03*
X117420000Y-84420000D03*
X116580000Y-84420000D03*
X116580000Y-83580000D03*
X101420000Y-79580000D03*
X101420000Y-80420000D03*
X100580000Y-80420000D03*
X100580000Y-79580000D03*
X129420000Y-19580000D03*
X129420000Y-20420000D03*
X128580000Y-20420000D03*
X128580000Y-19580000D03*
X93420000Y-93580000D03*
X93420000Y-94420000D03*
X92580000Y-94420000D03*
X92580000Y-93580000D03*
X115420000Y-35580000D03*
X115420000Y-36420000D03*
X114580000Y-36420000D03*
X114580000Y-35580000D03*
X151420000Y-49580000D03*
X151420000Y-50420000D03*
X150580000Y-50420000D03*
X150580000Y-49580000D03*
X93420000Y-79580000D03*
X93420000Y-80420000D03*
X92580000Y-80420000D03*
X92580000Y-79580000D03*
X95420000Y-83580000D03*
X95420000Y-84420000D03*
X94580000Y-84420000D03*
X94580000Y-83580000D03*
X93420000Y-85580000D03*
X93420000Y-86420000D03*
X92580000Y-86420000D03*
X92580000Y-85580000D03*
X123420000Y-31580000D03*
X123420000Y-32420000D03*
X122580000Y-32420000D03*
X122580000Y-31580000D03*
X91420000Y-47580000D03*
X91420000Y-48420000D03*
X90580000Y-48420000D03*
X90580000Y-47580000D03*
X103420000Y-49580000D03*
X103420000Y-50420000D03*
X102580000Y-50420000D03*
X102580000Y-49580000D03*
X99420000Y-61580000D03*
X99420000Y-62420000D03*
X98580000Y-62420000D03*
X98580000Y-61580000D03*
X131420000Y-59580000D03*
X131420000Y-60420000D03*
X130580000Y-60420000D03*
X130580000Y-59580000D03*
X93420000Y-47580000D03*
X93420000Y-48420000D03*
X92580000Y-48420000D03*
X92580000Y-47580000D03*
X119420000Y-79580000D03*
X119420000Y-80420000D03*
X118580000Y-80420000D03*
X118580000Y-79580000D03*
X115420000Y-55580000D03*
X115420000Y-56420000D03*
X114580000Y-56420000D03*
X114580000Y-55580000D03*
X149420000Y-91580000D03*
X149420000Y-92420000D03*
X148580000Y-92420000D03*
X148580000Y-91580000D03*
X109420000Y-65580000D03*
X109420000Y-66420000D03*
X108580000Y-66420000D03*
X108580000Y-65580000D03*
X87420000Y-29580000D03*
X87420000Y-30420000D03*
X86580000Y-30420000D03*
X86580000Y-29580000D03*
X131420000Y-29580000D03*
X131420000Y-30420000D03*
X130580000Y-30420000D03*
X130580000Y-29580000D03*
X51420000Y-67580000D03*
X51420000Y-68420000D03*
X50580000Y-68420000D03*
X50580000Y-67580000D03*
X51420000Y-45580000D03*
X51420000Y-46420000D03*
X50580000Y-46420000D03*
X50580000Y-45580000D03*
X151420000Y-75580000D03*
X151420000Y-76420000D03*
X150580000Y-76420000D03*
X150580000Y-75580000D03*
X91420000Y-87580000D03*
X91420000Y-88420000D03*
X90580000Y-88420000D03*
X90580000Y-87580000D03*
X73420000Y-33580000D03*
X73420000Y-34420000D03*
X72580000Y-34420000D03*
X72580000Y-33580000D03*
X147420000Y-21580000D03*
X147420000Y-22420000D03*
X146580000Y-22420000D03*
X146580000Y-21580000D03*
X85420000Y-25580000D03*
X85420000Y-26420000D03*
X84580000Y-26420000D03*
X84580000Y-25580000D03*
X149420000Y-63580000D03*
X149420000Y-64420000D03*
X148580000Y-64420000D03*
X148580000Y-63580000D03*
X145420000Y-75580000D03*
X145420000Y-76420000D03*
X144580000Y-76420000D03*
X144580000Y-75580000D03*
X129420000Y-67580000D03*
X129420000Y-68420000D03*
X128580000Y-68420000D03*
X128580000Y-67580000D03*
X75420000Y-31580000D03*
X75420000Y-32420000D03*
X74580000Y-32420000D03*
X74580000Y-31580000D03*
X121420000Y-51580000D03*
X121420000Y-52420000D03*
X120580000Y-52420000D03*
X120580000Y-51580000D03*
X107420000Y-81580000D03*
X107420000Y-82420000D03*
X106580000Y-82420000D03*
X106580000Y-81580000D03*
X81420000Y-71580000D03*
X81420000Y-72420000D03*
X80580000Y-72420000D03*
X80580000Y-71580000D03*
X93420000Y-51580000D03*
X93420000Y-52420000D03*
X92580000Y-52420000D03*
X92580000Y-51580000D03*
X135420000Y-31580000D03*
X135420000Y-32420000D03*
X134580000Y-32420000D03*
X134580000Y-31580000D03*
X87420000Y-71580000D03*
X87420000Y-72420000D03*
X86580000Y-72420000D03*
X86580000Y-71580000D03*
X77420000Y-35580000D03*
X77420000Y-36420000D03*
X76580000Y-36420000D03*
X76580000Y-35580000D03*
X93420000Y-59580000D03*
X93420000Y-60420000D03*
X92580000Y-60420000D03*
X92580000Y-59580000D03*
X143420000Y-25580000D03*
X143420000Y-26420000D03*
X142580000Y-26420000D03*
X142580000Y-25580000D03*
X59420000Y-75580000D03*
X59420000Y-76420000D03*
X58580000Y-76420000D03*
X58580000Y-75580000D03*
X107420000Y-41580000D03*
X107420000Y-42420000D03*
X106580000Y-42420000D03*
X106580000Y-41580000D03*
X127420000Y-75580000D03*
X127420000Y-76420000D03*
X126580000Y-76420000D03*
X126580000Y-75580000D03*
X57420000Y-21580000D03*
X57420000Y-22420000D03*
X56580000Y-22420000D03*
X56580000Y-21580000D03*
X127420000Y-89580000D03*
X127420000Y-90420000D03*
X126580000Y-90420000D03*
X126580000Y-89580000D03*
X101420000Y-93580000D03*
X101420000Y-94420000D03*
X100580000Y-94420000D03*
X100580000Y-93580000D03*
X143420000Y-23580000D03*
X143420000Y-24420000D03*
X142580000Y-24420000D03*
X142580000Y-23580000D03*
X129420000Y-53580000D03*
X129420000Y-54420000D03*
X128580000Y-54420000D03*
X128580000Y-53580000D03*
X111420000Y-73580000D03*
X111420000Y-74420000D03*
X110580000Y-74420000D03*
X110580000Y-73580000D03*
X55420000Y-95580000D03*
X55420000Y-96420000D03*
X54580000Y-96420000D03*
X54580000Y-95580000D03*
X57420000Y-51580000D03*
X57420000Y-52420000D03*
X56580000Y-52420000D03*
X56580000Y-51580000D03*
X103420000Y-23580000D03*
X103420000Y-24420000D03*
X102580000Y-24420000D03*
X102580000Y-23580000D03*
X139420000Y-55580000D03*
X139420000Y-56420000D03*
X138580000Y-56420000D03*
X138580000Y-55580000D03*
X77420000Y-27580000D03*
X77420000Y-28420000D03*
X76580000Y-28420000D03*
X76580000Y-27580000D03*
X51420000Y-85580000D03*
X51420000Y-86420000D03*
X50580000Y-86420000D03*
X50580000Y-85580000D03*
X57420000Y-55580000D03*
X57420000Y-56420000D03*
X56580000Y-56420000D03*
X56580000Y-55580000D03*
X127420000Y-51580000D03*
X127420000Y-52420000D03*
X126580000Y-52420000D03*
X126580000Y-51580000D03*
X65420000Y-19580000D03*
X65420000Y-20420000D03*
X64580000Y-20420000D03*
X64580000Y-19580000D03*
X83420000Y-27580000D03*
X83420000Y-28420000D03*
X82580000Y-28420000D03*
X82580000Y-27580000D03*
X109420000Y-25580000D03*
X109420000Y-26420000D03*
X108580000Y-26420000D03*
X108580000Y-25580000D03*
X95420000Y-81580000D03*
X95420000Y-82420000D03*
X94580000Y-82420000D03*
X94580000Y-81580000D03*
X123420000Y-65580000D03*
X123420000Y-66420000D03*
X122580000Y-66420000D03*
X122580000Y-65580000D03*
X123420000Y-25580000D03*
X123420000Y-26420000D03*
X122580000Y-26420000D03*
X122580000Y-25580000D03*
X45420000Y-23580000D03*
X45420000Y-24420000D03*
X44580000Y-24420000D03*
X44580000Y-23580000D03*
X75420000Y-55580000D03*
X75420000Y-56420000D03*
X74580000Y-56420000D03*
X74580000Y-55580000D03*
X53420000Y-43580000D03*
X53420000Y-44420000D03*
X52580000Y-44420000D03*
X52580000Y-43580000D03*
X121420000Y-93580000D03*
X121420000Y-94420000D03*
X120580000Y-94420000D03*
X120580000Y-93580000D03*
X71420000Y-83580000D03*
X71420000Y-84420000D03*
X70580000Y-84420000D03*
X70580000Y-83580000D03*
X149420000Y-89580000D03*
X149420000Y-90420000D03*
X148580000Y-90420000D03*
X148580000Y-89580000D03*
X101420000Y-45580000D03*
X101420000Y-46420000D03*
X100580000Y-46420000D03*
X100580000Y-45580000D03*
X87420000Y-31580000D03*
X87420000Y-32420000D03*
X86580000Y-32420000D03*
X86580000Y-31580000D03*
X57420000Y-59580000D03*
X57420000Y-60420000D03*
X56580000Y-60420000D03*
X56580000Y-59580000D03*
X105420000Y-43580000D03*
X105420000Y-44420000D03*
X104580000Y-44420000D03*
X104580000Y-43580000D03*
X59420000Y-83580000D03*
X59420000Y-84420000D03*
X58580000Y-84420000D03*
X58580000Y-83580000D03*
X89420000Y-95580000D03*
X89420000Y-96420000D03*
X88580000Y-96420000D03*
X88580000Y-95580000D03*
X141420000Y-47580000D03*
X141420000Y-48420000D03*
X140580000Y-48420000D03*
X140580000Y-47580000D03*
X107420000Y-25580000D03*
X107420000Y-26420000D03*
X106580000Y-26420000D03*
X106580000Y-25580000D03*
X145420000Y-71580000D03*
X145420000Y-72420000D03*
X144580000Y-72420000D03*
X144580000Y-71580000D03*
X75420000Y-67580000D03*
X75420000Y-68420000D03*
X74580000Y-68420000D03*
X74580000Y-67580000D03*
X147420000Y-69580000D03*
X147420000Y-70420000D03*
X146580000Y-70420000D03*
X146580000Y-69580000D03*
X143420000Y-81580000D03*
X143420000Y-82420000D03*
X142580000Y-82420000D03*
X142580000Y-81580000D03*
X79420000Y-29580000D03*
X79420000Y-30420000D03*
X78580000Y-30420000D03*
X78580000Y-29580000D03*
X115420000Y-21580000D03*
X115420000Y-22420000D03*
X114580000Y-22420000D03*
X114580000Y-21580000D03*
X53420000Y-59580000D03*
X53420000Y-60420000D03*
X52580000Y-60420000D03*
X52580000Y-59580000D03*
X53420000Y-95580000D03*
X53420000Y-96420000D03*
X52580000Y-96420000D03*
X52580000Y-95580000D03*
X127420000Y-29580000D03*
X127420000Y-30420000D03*
X126580000Y-30420000D03*
X126580000Y-29580000D03*
X71420000Y-45580000D03*
X71420000Y-46420000D03*
X70580000Y-46420000D03*
X70580000Y-45580000D03*
X113420000Y-33580000D03*
X113420000Y-34420000D03*
X112580000Y-34420000D03*
X112580000Y-33580000D03*
X123420000Y-73580000D03*
X123420000Y-74420000D03*
X122580000Y-74420000D03*
X122580000Y-73580000D03*
X121420000Y-41580000D03*
X121420000Y-42420000D03*
X120580000Y-42420000D03*
X120580000Y-41580000D03*
X53420000Y-65580000D03*
X53420000Y-66420000D03*
X52580000Y-66420000D03*
X52580000Y-65580000D03*
X49420000Y-29580000D03*
X49420000Y-30420000D03*
X48580000Y-30420000D03*
X48580000Y-29580000D03*
X89420000Y-33580000D03*
X89420000Y-34420000D03*
X88580000Y-34420000D03*
X88580000Y-33580000D03*
X141420000Y-27580000D03*
X141420000Y-28420000D03*
X140580000Y-28420000D03*
X140580000Y-27580000D03*
X77420000Y-21580000D03*
X77420000Y-22420000D03*
X76580000Y-22420000D03*
X76580000Y-21580000D03*
X89420000Y-47580000D03*
X89420000Y-48420000D03*
X88580000Y-48420000D03*
X88580000Y-47580000D03*
X149420000Y-43580000D03*
X149420000Y-44420000D03*
X148580000Y-44420000D03*
X148580000Y-43580000D03*
X103420000Y-67580000D03*
X103420000Y-68420000D03*
X102580000Y-68420000D03*
X102580000Y-67580000D03*
X77420000Y-61580000D03*
X77420000Y-62420000D03*
X76580000Y-62420000D03*
X76580000Y-61580000D03*
X81420000Y-27580000D03*
X81420000Y-28420000D03*
X80580000Y-28420000D03*
X80580000Y-27580000D03*
X79420000Y-83580000D03*
X79420000Y-84420000D03*
X78580000Y-84420000D03*
X78580000Y-83580000D03*
X87420000Y-69580000D03*
X87420000Y-70420000D03*
X86580000Y-70420000D03*
X86580000Y-69580000D03*
X145420000Y-21580000D03*
X145420000Y-22420000D03*
X144580000Y-22420000D03*
X144580000Y-21580000D03*
X95420000Y-61580000D03*
X95420000Y-62420000D03*
X94580000Y-62420000D03*
X94580000Y-61580000D03*
X63420000Y-89580000D03*
X63420000Y-90420000D03*
X62580000Y-90420000D03*
X62580000Y-89580000D03*
X131420000Y-71580000D03*
X131420000Y-72420000D03*
X130580000Y-72420000D03*
X130580000Y-71580000D03*
X49420000Y-79580000D03*
X49420000Y-80420000D03*
X48580000Y-80420000D03*
X48580000Y-79580000D03*
X111420000Y-53580000D03*
X111420000Y-54420000D03*
X110580000Y-54420000D03*
X110580000Y-53580000D03*
X93420000Y-35580000D03*
X93420000Y-36420000D03*
X92580000Y-36420000D03*
X92580000Y-35580000D03*
X131420000Y-79580000D03*
X131420000Y-80420000D03*
X130580000Y-80420000D03*
X130580000Y-79580000D03*
X127420000Y-81580000D03*
X127420000Y-82420000D03*
X126580000Y-82420000D03*
X126580000Y-81580000D03*
X121420000Y-27580000D03*
X121420000Y-28420000D03*
X120580000Y-28420000D03*
X120580000Y-27580000D03*
X119420000Y-27580000D03*
X119420000Y-28420000D03*
X118580000Y-28420000D03*
X118580000Y-27580000D03*
X115420000Y-91580000D03*
X115420000Y-92420000D03*
X114580000Y-92420000D03*
X114580000Y-91580000D03*
X81420000Y-63580000D03*
X81420000Y-64420000D03*
X80580000Y-64420000D03*
X80580000Y-63580000D03*
X107420000Y-35580000D03*
X107420000Y-36420000D03*
X106580000Y-36420000D03*
X106580000Y-35580000D03*
X105420000Y-51580000D03*
X105420000Y-52420000D03*
X104580000Y-52420000D03*
X104580000Y-51580000D03*
X113420000Y-63580000D03*
X113420000Y-64420000D03*
X112580000Y-64420000D03*
X112580000Y-63580000D03*
X129420000Y-35580000D03*
X129420000Y-36420000D03*
X128580000Y-36420000D03*
X128580000Y-35580000D03*
X131420000Y-33580000D03*
X131420000Y-34420000D03*
X130580000Y-34420000D03*
X130580000Y-33580000D03*
X117420000Y-59580000D03*
X117420000Y-60420000D03*
X116580000Y-60420000D03*
X116580000Y-59580000D03*
X143420000Y-67580000D03*
X143420000Y-68420000D03*
X142580000Y-68420000D03*
X142580000Y-67580000D03*
X101420000Y-29580000D03*
X101420000Y-30420000D03*
X100580000Y-30420000D03*
X100580000Y-29580000D03*
X151420000Y-45580000D03*
X151420000Y-46420000D03*
X150580000Y-46420000D03*
X150580000Y-45580000D03*
X151420000Y-81580000D03*
X151420000Y-82420000D03*
X150580000Y-82420000D03*
X150580000Y-81580000D03*
X133420000Y-55580000D03*
X133420000Y-56420000D03*
X132580000Y-56420000D03*
X132580000Y-55580000D03*
X71420000Y-65580000D03*
X71420000Y-66420000D03*
X70580000Y-66420000D03*
X70580000Y-65580000D03*
X67420000Y-95580000D03*
X67420000Y-96420000D03*
X66580000Y-96420000D03*
X66580000Y-95580000D03*
X127420000Y-87580000D03*
X127420000Y-88420000D03*
X126580000Y-88420000D03*
X126580000Y-87580000D03*
X59420000Y-43580000D03*
X59420000Y-44420000D03*
X58580000Y-44420000D03*
X58580000Y-43580000D03*
X65420000Y-35580000D03*
X65420000Y-36420000D03*
X64580000Y-36420000D03*
X64580000Y-35580000D03*
X137420000Y-23580000D03*
X137420000Y-24420000D03*
X136580000Y-24420000D03*
X136580000Y-23580000D03*
X149420000Y-21580000D03*
X149420000Y-22420000D03*
X148580000Y-22420000D03*
X148580000Y-21580000D03*
X119420000Y-23580000D03*
X119420000Y-24420000D03*
X118580000Y-24420000D03*
X118580000Y-23580000D03*
X119420000Y-63580000D03*
X119420000Y-64420000D03*
X118580000Y-64420000D03*
X118580000Y-63580000D03*
X77420000Y-93580000D03*
X77420000Y-94420000D03*
X76580000Y-94420000D03*
X76580000Y-93580000D03*
X87420000Y-39580000D03*
X87420000Y-40420000D03*
X86580000Y-40420000D03*
X86580000Y-39580000D03*
X121420000Y-43580000D03*
X121420000Y-44420000D03*
X120580000Y-44420000D03*
X120580000Y-43580000D03*
X129420000Y-85580000D03*
X129420000Y-86420000D03*
X128580000Y-86420000D03*
X128580000Y-85580000D03*
X137420000Y-69580000D03*
X137420000Y-70420000D03*
X136580000Y-70420000D03*
X136580000Y-69580000D03*
X57420000Y-47580000D03*
X57420000Y-48420000D03*
X56580000Y-48420000D03*
X56580000Y-47580000D03*
X79420000Y-45580000D03*
X79420000Y-46420000D03*
X78580000Y-46420000D03*
X78580000Y-45580000D03*
X63420000Y-73580000D03*
X63420000Y-74420000D03*
X62580000Y-74420000D03*
X62580000Y-73580000D03*
X87420000Y-79580000D03*
X87420000Y-80420000D03*
X86580000Y-80420000D03*
X86580000Y-79580000D03*
X141420000Y-21580000D03*
X141420000Y-22420000D03*
X140580000Y-22420000D03*
X140580000Y-21580000D03*
X53420000Y-53580000D03*
X53420000Y-54420000D03*
X52580000Y-54420000D03*
X52580000Y-53580000D03*
X59420000Y-61580000D03*
X59420000Y-62420000D03*
X58580000Y-62420000D03*
X58580000Y-61580000D03*
X117420000Y-27580000D03*
X117420000Y-28420000D03*
X116580000Y-28420000D03*
X116580000Y-27580000D03*
X135420000Y-95580000D03*
X135420000Y-96420000D03*
X134580000Y-96420000D03*
X134580000Y-95580000D03*
X81420000Y-19580000D03*
X81420000Y-20420000D03*
X80580000Y-20420000D03*
X80580000Y-19580000D03*
X145420000Y-41580000D03*
X145420000Y-42420000D03*
X144580000Y-42420000D03*
X144580000Y-41580000D03*
X87420000Y-35580000D03*
X87420000Y-36420000D03*
X86580000Y-36420000D03*
X86580000Y-35580000D03*
X109420000Y-67580000D03*
X109420000Y-68420000D03*
X108580000Y-68420000D03*
X108580000Y-67580000D03*
X43420000Y-95580000D03*
X43420000Y-96420000D03*
X42580000Y-96420000D03*
X42580000Y-95580000D03*
X109420000Y-43580000D03*
X109420000Y-44420000D03*
X108580000Y-44420000D03*
X108580000Y-43580000D03*
X65420000Y-89580000D03*
X65420000Y-90420000D03*
X64580000Y-90420000D03*
X64580000Y-89580000D03*
X59420000Y-39580000D03*
X59420000Y-40420000D03*
X58580000Y-40420000D03*
X58580000Y-39580000D03*
X81420000Y-51580000D03*
X81420000Y-52420000D03*
X80580000Y-52420000D03*
X80580000Y-51580000D03*
X137420000Y-59580000D03*
X137420000Y-60420000D03*
X136580000Y-60420000D03*
X136580000Y-59580000D03*
X127420000Y-47580000D03*
X127420000Y-48420000D03*
X126580000Y-48420000D03*
X126580000Y-47580000D03*
X133420000Y-21580000D03*
X133420000Y-22420000D03*
X132580000Y-22420000D03*
X132580000Y-21580000D03*
X43420000Y-71580000D03*
X43420000Y-72420000D03*
X42580000Y-72420000D03*
X42580000Y-71580000D03*
X127420000Y-95580000D03*
X127420000Y-96420000D03*
X126580000Y-96420000D03*
X126580000Y-95580000D03*
X109420000Y-73580000D03*
X109420000Y-74420000D03*
X108580000Y-74420000D03*
X108580000Y-73580000D03*
X115420000Y-93580000D03*
X115420000Y-94420000D03*
X114580000Y-94420000D03*
X114580000Y-93580000D03*
X109420000Y-47580000D03*
X109420000Y-48420000D03*
X108580000Y-48420000D03*
X108580000Y-47580000D03*
X135420000Y-75580000D03*
X135420000Y-76420000D03*
X134580000Y-76420000D03*
X134580000Y-75580000D03*
X141420000Y-73580000D03*
X141420000Y-74420000D03*
X140580000Y-74420000D03*
X140580000Y-73580000D03*
X81420000Y-89580000D03*
X81420000Y-90420000D03*
X80580000Y-90420000D03*
X80580000Y-89580000D03*
X61420000Y-59580000D03*
X61420000Y-60420000D03*
X60580000Y-60420000D03*
X60580000Y-59580000D03*
X77420000Y-25580000D03*
X77420000Y-26420000D03*
X76580000Y-26420000D03*
X76580000Y-25580000D03*
X127420000Y-93580000D03*
X127420000Y-94420000D03*
X126580000Y-94420000D03*
X126580000Y-93580000D03*
X85420000Y-51580000D03*
X85420000Y-52420000D03*
X84580000Y-52420000D03*
X84580000Y-51580000D03*
X81420000Y-33580000D03*
X81420000Y-34420000D03*
X80580000Y-34420000D03*
X80580000Y-33580000D03*
X89420000Y-19580000D03*
X89420000Y-20420000D03*
X88580000Y-20420000D03*
X88580000Y-19580000D03*
X143420000Y-85580000D03*
X143420000Y-86420000D03*
X142580000Y-86420000D03*
X142580000Y-85580000D03*
X63420000Y-55580000D03*
X63420000Y-56420000D03*
X62580000Y-56420000D03*
X62580000Y-55580000D03*
X55420000Y-49580000D03*
X55420000Y-50420000D03*
X54580000Y-50420000D03*
X54580000Y-49580000D03*
X151420000Y-55580000D03*
X151420000Y-56420000D03*
X150580000Y-56420000D03*
X150580000Y-55580000D03*
X65420000Y-61580000D03*
X65420000Y-62420000D03*
X64580000Y-62420000D03*
X64580000Y-61580000D03*
X127420000Y-45580000D03*
X127420000Y-46420000D03*
X126580000Y-46420000D03*
X126580000Y-45580000D03*
X131420000Y-75580000D03*
X131420000Y-76420000D03*
X130580000Y-76420000D03*
X130580000Y-75580000D03*
X145420000Y-31580000D03*
X145420000Y-32420000D03*
X144580000Y-32420000D03*
X144580000Y-31580000D03*
X143420000Y-33580000D03*
X143420000Y-34420000D03*
X142580000Y-34420000D03*
X142580000Y-33580000D03*
X91420000Y-23580000D03*
X91420000Y-24420000D03*
X90580000Y-24420000D03*
X90580000Y-23580000D03*
X59420000Y-51580000D03*
X59420000Y-52420000D03*
X58580000Y-52420000D03*
X58580000Y-51580000D03*
X79420000Y-93580000D03*
X79420000Y-94420000D03*
X78580000Y-94420000D03*
X78580000Y-93580000D03*
X53420000Y-69580000D03*
X53420000Y-70420000D03*
X52580000Y-70420000D03*
X52580000Y-69580000D03*
X53420000Y-55580000D03*
X53420000Y-56420000D03*
X52580000Y-56420000D03*
X52580000Y-55580000D03*
X65420000Y-87580000D03*
X65420000Y-88420000D03*
X64580000Y-88420000D03*
X64580000Y-87580000D03*
X127420000Y-53580000D03*
X127420000Y-54420000D03*
X126580000Y-54420000D03*
X126580000Y-53580000D03*
X139420000Y-49580000D03*
X139420000Y-50420000D03*
X138580000Y-50420000D03*
X138580000Y-49580000D03*
X133420000Y-95580000D03*
X133420000Y-96420000D03*
X132580000Y-96420000D03*
X132580000Y-95580000D03*
X113420000Y-85580000D03*
X113420000Y-86420000D03*
X112580000Y-86420000D03*
X112580000Y-85580000D03*
X105420000Y-61580000D03*
X105420000Y-62420000D03*
X104580000Y-62420000D03*
X104580000Y-61580000D03*
X79420000Y-47580000D03*
X79420000Y-48420000D03*
X78580000Y-48420000D03*
X78580000Y-47580000D03*
X115420000Y-65580000D03*
X115420000Y-66420000D03*
X114580000Y-66420000D03*
X114580000Y-65580000D03*
X67420000Y-81580000D03*
X67420000Y-82420000D03*
X66580000Y-82420000D03*
X66580000Y-81580000D03*
X119420000Y-67580000D03*
X119420000Y-68420000D03*
X118580000Y-68420000D03*
X118580000Y-67580000D03*
X137420000Y-71580000D03*
X137420000Y-72420000D03*
X136580000Y-72420000D03*
X136580000Y-71580000D03*
X111420000Y-59580000D03*
X111420000Y-60420000D03*
X110580000Y-60420000D03*
X110580000Y-59580000D03*
X95420000Y-69580000D03*
X95420000Y-70420000D03*
X94580000Y-70420000D03*
X94580000Y-69580000D03*
X135420000Y-19580000D03*
X135420000Y-20420000D03*
X134580000Y-20420000D03*
X134580000Y-19580000D03*
X147420000Y-35580000D03*
X147420000Y-36420000D03*
X146580000Y-36420000D03*
X146580000Y-35580000D03*
X61420000Y-85580000D03*
X61420000Y-86420000D03*
X60580000Y-86420000D03*
X60580000Y-85580000D03*
X141420000Y-23580000D03*
X141420000Y-24420000D03*
X140580000Y-24420000D03*
X140580000Y-23580000D03*
X143420000Y-91580000D03*
X143420000Y-92420000D03*
X142580000Y-92420000D03*
X142580000Y-91580000D03*
X143420000Y-47580000D03*
X143420000Y-48420000D03*
X142580000Y-48420000D03*
X142580000Y-47580000D03*
X107420000Y-29580000D03*
X107420000Y-30420000D03*
X106580000Y-30420000D03*
X106580000Y-29580000D03*
X85420000Y-83580000D03*
X85420000Y-84420000D03*
X84580000Y-84420000D03*
X84580000Y-83580000D03*
X101420000Y-27580000D03*
X101420000Y-28420000D03*
X100580000Y-28420000D03*
X100580000Y-27580000D03*
X43420000Y-25580000D03*
X43420000Y-26420000D03*
X42580000Y-26420000D03*
X42580000Y-25580000D03*
X59420000Y-93580000D03*
X59420000Y-94420000D03*
X58580000Y-94420000D03*
X58580000Y-93580000D03*
X145420000Y-55580000D03*
X145420000Y-56420000D03*
X144580000Y-56420000D03*
X144580000Y-55580000D03*
X99420000Y-63580000D03*
X99420000Y-64420000D03*
X98580000Y-64420000D03*
X98580000Y-63580000D03*
X45420000Y-35580000D03*
X45420000Y-36420000D03*
X44580000Y-36420000D03*
X44580000Y-35580000D03*
X93420000Y-55580000D03*
X93420000Y-56420000D03*
X92580000Y-56420000D03*
X92580000Y-55580000D03*
X149420000Y-27580000D03*
X149420000Y-28420000D03*
X148580000Y-28420000D03*
X148580000Y-27580000D03*
X113420000Y-55580000D03*
X113420000Y-56420000D03*
X112580000Y-56420000D03*
X112580000Y-55580000D03*
X117420000Y-91580000D03*
X117420000Y-92420000D03*
X116580000Y-92420000D03*
X116580000Y-91580000D03*
X85420000Y-55580000D03*
X85420000Y-56420000D03*
X84580000Y-56420000D03*
X84580000Y-55580000D03*
X111420000Y-65580000D03*
X111420000Y-66420000D03*
X110580000Y-66420000D03*
X110580000Y-65580000D03*
X75420000Y-91580000D03*
X75420000Y-92420000D03*
X74580000Y-92420000D03*
X74580000Y-91580000D03*
X105420000Y-79580000D03*
X105420000Y-80420000D03*
X104580000Y-80420000D03*
X104580000Y-79580000D03*
X89420000Y-73580000D03*
X89420000Y-74420000D03*
X88580000Y-74420000D03*
X88580000Y-73580000D03*
X45420000Y-25580000D03*
X45420000Y-26420000D03*
X44580000Y-26420000D03*
X44580000Y-25580000D03*
X113420000Y-61580000D03*
X113420000Y-62420000D03*
X112580000Y-62420000D03*
X112580000Y-61580000D03*
X101420000Y-59580000D03*
X101420000Y-60420000D03*
X100580000Y-60420000D03*
X100580000Y-59580000D03*
X137420000Y-47580000D03*
X137420000Y-48420000D03*
X136580000Y-48420000D03*
X136580000Y-47580000D03*
X77420000Y-29580000D03*
X77420000Y-30420000D03*
X76580000Y-30420000D03*
X76580000Y-29580000D03*
X113420000Y-47580000D03*
X113420000Y-48420000D03*
X112580000Y-48420000D03*
X112580000Y-47580000D03*
X105420000Y-35580000D03*
X105420000Y-36420000D03*
X104580000Y-36420000D03*
X104580000Y-35580000D03*
X145420000Y-85580000D03*
X145420000Y-86420000D03*
X144580000Y-86420000D03*
X144580000Y-85580000D03*
X95420000Y-55580000D03*
X95420000Y-56420000D03*
X94580000Y-56420000D03*
X94580000Y-55580000D03*
X115420000Y-59580000D03*
X115420000Y-60420000D03*
X114580000Y-60420000D03*
X114580000Y-59580000D03*
X131420000Y-21580000D03*
X131420000Y-22420000D03*
X130580000Y-22420000D03*
X130580000Y-21580000D03*
M02*
